<?xml version="1.0" encoding="UTF-8"?><svg id="_レイヤー_2" xmlns="http://www.w3.org/2000/svg" width="400" height="393" viewBox="0 0 400 393"><g id="_レイヤー_1-2"><polygon points="226.5 193 226.5 174 173.5 174 173.5 193 156.7 193 200 215 243.3 193 226.5 193" style="fill:#cceaf9;"/><path d="m399,330v62H1v-62h398m1-1H0v64h400v-64h0Z" style="fill:#0094e2;"/><g><path d="m20.57,358.78c-.71.4-1.21.63-1.67.85l-.81-1.32c2.2-.78,4.68-2.32,5.92-3.83h1.25c.6.7,3.49,3.04,5.99,3.86l-.8,1.39c-.38-.19-.8-.4-1.77-.95v.95h-3.36v1.51h5.19v1.28h-5.19v3.31h1.13c.22-.49.8-1.99,1.08-2.97l1.47.34c-.47,1.29-.58,1.55-1.09,2.62h2.91v1.3h-12.39v-1.3h2.71c-.28-.92-.47-1.4-.99-2.51l1.39-.43c.62,1.19,1.03,2.68,1.1,2.94h1.28v-3.31h-5.22v-1.28h5.22v-1.51h-3.34v-.95Zm7.47-.37c-1.79-1.1-2.91-2.16-3.43-2.65-1.03,1.02-1.94,1.79-3.38,2.65h6.81Z"/><path d="m51.47,359.19c-.59,1.06-.98,1.5-1.46,2.01.88.67,1.4.97,2.24,1.28l-.36,1.33c-.27-.1-.34-.12-.42-.17v3.57h-5.15v-3.56c-.07.03-.11.04-.25.11l-.45-1.29c1.26-.45,1.88-.87,2.53-1.33-.52-.61-.69-.84-.92-1.17-.38.37-.59.54-.91.76l-.66-.95c.95-.69,1.57-1.55,1.69-1.72h-1.15v-2.49h2.16v-1.02h1.4v1.02h2.22v2.49h-.51v1.12Zm-.71,4.09c-.58-.33-.98-.59-1.69-1.22-.73.58-1.2.85-1.94,1.22h3.63Zm-.06-5.23v-1.29h-3.2v1.08c.23-.34.32-.52.44-.81l1.04.5c-.12.27-.18.37-.26.52h1.98Zm-.51,6.32h-2.57v1.74h2.57v-1.74Zm-2.06-5.23c.36.54.58.8.95,1.18.47-.48.69-.82.91-1.18h-1.85Zm3.53,7.33c.7-.34,1.48-.85,2.22-1.68l1.07.84c-.78.84-1.32,1.25-2.36,1.89l-.93-1.06Zm6.92-10.13h-2.76c-.08.27-.11.34-.32.91h2.66v7.53h-5.66v-7.53h1.67c.11-.23.23-.62.29-.91h-2.17v-1.36h6.28v1.36Zm-1.79,2.1h-2.91v.89h2.91v-.89Zm0,2.02h-2.91v.92h2.91v-.92Zm0,2.05h-2.91v1.04h2.91v-1.04Zm-.05,2.29c.91.85,1.44,1.21,2.06,1.54l-.8,1.17c-1.22-.77-1.91-1.48-2.2-1.79l.93-.92Z"/></g><g><path d="m105.93,367.26v2.47h-13.38c1.99-1.99,4.1-4.15,6.44-6.89,2.77-3.25,3.44-4.6,3.44-6.14,0-1.79-1.24-3.02-3.09-3.02-2.7,0-4.05,2.41-4.49,3.14l-1.15-2.72c1.42-1.88,3.34-2.89,5.7-2.89,2.59,0,5.75,1.49,5.75,5.43,0,2.59-1.08,4.58-6.73,10.63h7.51Z" style="fill:#ee0030;"/><path d="m120.44,364.4c0,3.34-2.93,5.7-6.46,5.7s-6.46-2.36-6.46-5.7c0-2.5,1.56-4.08,3-4.79-1.35-.83-1.99-2.29-1.99-3.69,0-2.7,2.13-4.72,5.45-4.72s5.45,2.02,5.45,4.72c0,1.4-.64,2.86-1.99,3.69,1.44.71,3,2.29,3,4.79Zm-2.73-.04c0-1.33-.92-3.25-3.73-3.25s-3.73,1.9-3.73,3.25c0,1.81,1.56,3.27,3.73,3.27s3.73-1.47,3.73-3.27Zm-.92-8.31c0-1.69-1.35-2.54-2.82-2.54s-2.82.87-2.82,2.52c0,1.1.64,2.54,2.82,2.54s2.82-1.44,2.82-2.52Z" style="fill:#ee0030;"/><path d="m126.09,366.39v3.14c0,2.11-1.17,2.59-3.27,2.68v-1.42c1.51-.05,1.53-.6,1.56-1.15h-1.56v-3.25h3.27Z" style="fill:#ee0030;"/><path d="m140.25,354.04h-7.58v4.65c.57-.21,1.3-.46,2.61-.46,3.89,0,6.41,2.59,6.41,5.84,0,2.86-2.06,6.02-7.17,6.02-2.02,0-3.78-.46-5.57-1.42l.76-2.5c1.47.98,3.02,1.44,4.79,1.44,3.5,0,4.47-2.06,4.47-3.57,0-2.13-1.74-3.41-3.87-3.41-.94,0-1.9.25-2.61.87h-2.36v-9.94h10.12v2.47Z" style="fill:#ee0030;"/><path d="m154.55,354.04h-7.58v4.65c.57-.21,1.31-.46,2.61-.46,3.89,0,6.41,2.59,6.41,5.84,0,2.86-2.06,6.02-7.17,6.02-2.02,0-3.78-.46-5.57-1.42l.76-2.5c1.47.98,3.02,1.44,4.79,1.44,3.5,0,4.47-2.06,4.47-3.57,0-2.13-1.74-3.41-3.87-3.41-.94,0-1.9.25-2.61.87h-2.36v-9.94h10.12v2.47Z" style="fill:#ee0030;"/><path d="m157.98,360.64c0-1.76,0-9.44,6.41-9.44s6.41,7.7,6.41,9.44,0,9.46-6.41,9.46-6.41-7.7-6.41-9.46Zm10.1,0c0-3.5-.66-6.96-3.69-6.96s-3.69,3.48-3.69,6.96c0,3.69.76,6.99,3.69,6.99s3.69-3.53,3.69-6.99Z" style="fill:#ee0030;"/><path d="m190.92,362.98h-14.82v8.79h-2.47v-20.77h19.77v18.62c0,1.17-.62,2.15-2.27,2.15h-4.05l-.43-2.36h3.6c.5,0,.69-.18.69-.64v-5.79Zm-14.82-2.22h6.14v-7.51h-6.14v7.51Zm8.54,0h6.25v-7.51h-6.25v7.51Z" style="fill:#ee0030;"/></g><rect x="204" y="342" width="183" height="37" style="fill:#ee0030;"/><g><path d="m213.44,367.17h1.09v-5.64h-1.02v-1.66h16.35v1.66h-8.41v8.29h-1.98v-1.28c-1.95.24-3.88.4-5.83.47l-.19-1.84Zm1.5-13.1h13.47v5.1h-13.47v-5.1Zm1.54,7.47v.9h2.98v-.9h-2.98Zm0,2.24v.91h2.98v-.91h-2.98Zm2.98,2.24h-2.98v1.1c.72-.04,1.65-.07,2.98-.21v-.9Zm-2.36-10.57v.72h9.16v-.72h-9.16Zm0,1.72v.74h9.16v-.74h-9.16Zm7.07,6.93c.24.47.62,1.12,1.47,1.9.83-.76,1.22-1.57,1.48-2.09h-5.21v-1.57h7.31v1.6c-.22.6-.66,1.74-1.98,3.09,1.03.48,1.9.72,2.71.93l-1.09,1.88c-.59-.19-1.79-.55-3.24-1.5-1.47.95-2.62,1.29-3.31,1.48l-.81-1.81c.65-.17,1.57-.43,2.53-.95-1.07-1.14-1.45-1.98-1.66-2.48l1.79-.48Z" style="fill:#fff;"/><path d="m230.93,367.56c1.26-.47,5.85-2.14,6.88-7.78h-6.64v-2.21h6.79v-3.98h2.31v3.64c0,.05-.02.26-.02.34h7.05v2.21h-6.74c1,4.62,3.74,6.57,7.12,7.84l-1.33,2.22c-1.65-.67-5.52-2.47-7.05-7.36-1.85,5.1-5.74,6.74-7.02,7.28l-1.36-2.21Z" style="fill:#fff;"/><path d="m259.9,351.7c-.58-.03-.63-.05-.88-.05-4.24,0-6.33,2.95-7.14,6.86,1.01-1.11,2.52-2.15,4.8-2.15,3.36,0,6.54,2.47,6.54,6.54s-3.1,6.84-6.94,6.84c-3.21,0-7.45-2.04-7.45-9.04,0-5.53,3.08-11.79,10.07-11.79.35,0,.58,0,1.01.05v2.73Zm-3.63,7.34c-1.94,0-4.34,1.24-4.34,3.76,0,2.09,1.64,4.21,4.27,4.21s4.01-1.92,4.01-3.99c0-3.53-2.85-3.99-3.94-3.99Z" style="fill:#fff;"/><path d="m269.31,365.66v3.46c0,2.32-1.29,2.85-3.61,2.95v-1.56c1.67-.05,1.69-.66,1.72-1.26h-1.72v-3.58h3.61Z" style="fill:#fff;"/><path d="m286.41,366.62v2.73h-14.74c2.2-2.2,4.52-4.57,7.09-7.6,3.05-3.58,3.79-5.07,3.79-6.76,0-1.97-1.36-3.33-3.41-3.33-2.98,0-4.47,2.65-4.95,3.46l-1.26-3c1.56-2.07,3.68-3.18,6.28-3.18,2.85,0,6.33,1.64,6.33,5.98,0,2.85-1.19,5.05-7.42,11.71h8.28Z" style="fill:#fff;"/><path d="m296.8,369.35v-4.29h-9.09v-2.55l9.01-13.17h3.05v13.07h2.62v2.65h-2.62v4.29h-2.98Zm-6.06-6.94h6.06v-8.98l-6.06,8.98Z" style="fill:#fff;"/><path d="m304.38,359.33c0-1.94,0-10.4,7.07-10.4s7.07,8.48,7.07,10.4,0,10.42-7.07,10.42-7.07-8.48-7.07-10.42Zm11.13,0c0-3.86-.73-7.67-4.06-7.67s-4.06,3.84-4.06,7.67c0,4.06.83,7.7,4.06,7.7s4.06-3.89,4.06-7.7Z" style="fill:#fff;"/><path d="m334.07,363.36h-10.5v6.52h-2.21v-15.74h14.9v14.07c0,1.09-.76,1.67-1.65,1.67h-3.26l-.38-2.17h2.57c.45,0,.53-.22.53-.5v-3.84Zm-10.5-1.98h4.16v-5.19h-4.16v5.19Zm6.31,0h4.19v-5.19h-4.19v5.19Z" style="fill:#fff;"/><path d="m348.64,356.29v2.1h-3.85v1.6c.38-.05.97-.16,1.95-.16,1.93,0,3.36.41,4.29,1.14,1.1.86,1.64,2.16,1.64,3.47,0,1.48-.71,3.22-2.93,4.09-1,.38-2.19.5-3.35.5l-.34-2.02c1.62-.04,4.19-.19,4.19-2.57,0-1.21-.79-2.62-3.36-2.62-.69,0-1.45.09-2.09.19v4.47c0,1.74-1.28,2.22-2.64,2.22-2.76,0-3.84-1.83-3.84-3.48,0-2.95,2.86-4.16,4.28-4.74v-2.09h-3.91v-2.1h3.91v-1.9h2.21v1.9h3.85Zm-6.04,6.31c-.78.4-2.16,1.07-2.16,2.47,0,.91.76,1.45,1.52,1.45.64,0,.64-.26.64-.57v-3.34Zm7.45-8.21c1.62,1.29,2.64,2.91,3.38,4.47l-1.95,1.19c-1.28-2.52-2.14-3.6-3.19-4.54l1.76-1.12Z" style="fill:#fff;"/><path d="m354.24,356.91c1.81-1.09,2.69-2.83,2.98-3.4l1.91.72c-.9,1.9-2.48,3.79-4.05,4.78l-.84-2.1Zm5.31,1.45c-.22.52-.6,1.41-1.52,2.81v8.71h-2.12v-6.19c-.46.43-.6.53-.9.71l-.67-2.5c1.46-1.02,2.66-2.81,3.36-4.35l1.84.81Zm1.79,6.97h-2.45v-1.79h7.76v-.83h-7.24v-1.69h11.05v1.69h-1.69v.83h2.1v1.79h-2.1v3.02c0,.74-.17,1.54-1.62,1.54h-2.55l-.35-1.97h1.91c.46,0,.48-.19.48-.59v-2h-4.96c.64.55,1.43,1.48,2.05,2.38l-1.71,1.29c-.45-.79-1.41-1.95-2.09-2.62l1.4-1.05Zm8.47-11.16v6.1h-9.78v-6.1h9.78Zm-7.76,1.55v.91h5.74v-.91h-5.74Zm0,2.17v.88h5.74v-.88h-5.74Z" style="fill:#fff;"/><path d="m378.05,354.55l-.29,9.81h-2l-.29-9.81h2.59Zm-2.55,11.29h2.5v2.47h-2.5v-2.47Z" style="fill:#fff;"/></g><path d="m399,256v36H1v-36h398m1-1H0v38h400v-38h0Z" style="fill:#0094e2;"/><g><path d="m21.14,277.5c-.54,1.19-1.4,2.25-2.18,2.95l-.95-1.06c.81-.71,1.51-1.74,1.88-2.44l1.25.55Zm-1.98-9.96h1.3v1.24h2.61v-1.24h1.3v1.24h.81v1.3h-.81v5.4h.81v1.26h-7.06v-1.26h1.03v-5.4h-.78v-1.3h.78v-1.24Zm1.3,2.54v.98h2.61v-.98h-2.61Zm0,2.13v1.02h2.61v-1.02h-2.61Zm0,2.11v1.15h2.61v-1.15h-2.61Zm2.5,2.64c.23.22.93.87,1.41,1.74l-1,.88c-.23-.43-.93-1.43-1.36-1.9l.95-.73Zm6.33-.58h-2.47c-.21,1.39-.73,2.86-1.63,4.06l-1.19-.93c.97-1.37,1.74-2.68,1.74-7.09v-4.46h4.92v11.38c0,1.1-.74,1.1-1.17,1.1h-1.76l-.22-1.39h1.35c.32,0,.44-.11.44-.41v-2.27Zm-2.22-3.58l-.1,2.27h2.32v-2.27h-2.22Zm0-3.54v2.27h2.22v-2.27h-2.22Z"/><path d="m46.18,268.11h5.22v5.01h-3.86v7.31h-1.36v-12.32Zm1.36,1.13v.91h2.53v-.91h-2.53Zm0,1.84v.91h2.53v-.91h-2.53Zm7.75,2.83v5.09h-6.37v-5.09h6.37Zm-5.08,1.11v.95h3.78v-.95h-3.78Zm0,1.87v.99h3.78v-.99h-3.78Zm6.48-3.76h-4.06v-5.01h5.44v11.03c0,.38,0,1.29-.92,1.29h-2.1l-.22-1.37h1.55c.17,0,.32-.06.32-.33v-5.6Zm-2.73-3.89v.91h2.73v-.91h-2.73Zm0,1.84v.91h2.73v-.91h-2.73Z"/></g><g><path d="m99.74,281.04v-2.96h-6.26v-1.76l6.21-9.08h2.11v9.01h1.81v1.83h-1.81v2.96h-2.05Zm-4.18-4.78h4.18v-6.19l-4.18,6.19Z"/><path d="m112.16,267.24l-6.31,13.79h-1.69l6.31-13.79h1.69Z"/><path d="m122.93,267.24v1.95l-6.89,11.85h-2.31l6.99-11.92h-7.71v-1.88h9.92Z"/><path d="m146.14,274.13c-1.77,2.24-4.21,2.24-4.54,2.24-1.44,0-2.3-.49-3.72-1.29-1.53-.87-2.23-1.04-3.1-1.04-.47,0-2.12,0-3.39,1.7l-1.11-1.04c1.79-2.21,4.02-2.23,4.58-2.23,1.51,0,2.61.63,3.79,1.29,1.22.68,1.9,1.04,2.97,1.04,1.97,0,2.97-1.22,3.43-1.74l1.1,1.06Z"/><path d="m163.4,267.24v1.95l-6.89,11.85h-2.31l6.99-11.92h-7.71v-1.88h9.92Z"/><path d="m170.25,267.24l-6.31,13.79h-1.69l6.31-13.79h1.69Z"/><path d="m180.71,279.16v1.88h-10.16c1.51-1.51,3.11-3.15,4.89-5.24,2.1-2.47,2.61-3.5,2.61-4.66,0-1.36-.94-2.3-2.35-2.3-2.05,0-3.08,1.83-3.41,2.38l-.87-2.07c1.08-1.43,2.54-2.19,4.33-2.19,1.97,0,4.37,1.13,4.37,4.12,0,1.97-.82,3.48-5.12,8.07h5.71Z"/><path d="m192.23,279.16v1.88h-10.16c1.51-1.51,3.11-3.15,4.89-5.24,2.1-2.47,2.61-3.5,2.61-4.66,0-1.36-.94-2.3-2.35-2.3-2.05,0-3.08,1.83-3.41,2.38l-.87-2.07c1.08-1.43,2.54-2.19,4.33-2.19,1.97,0,4.37,1.13,4.37,4.12,0,1.97-.82,3.48-5.11,8.07h5.71Z"/><path d="m205.48,282.67c-2.94-3.69-3.11-7.15-3.11-8.25s.17-4.56,3.11-8.25h1.65c-1.86,2.37-2.97,5.24-2.97,8.25s1.13,5.88,2.97,8.25h-1.65Z"/><path d="m219.3,268.36l2.23,2.57c-.49,2.59-1.06,4.64-2.78,6.68-1.03,1.22-3.37,3.38-7.55,4.07l-.9-1.83c6.87-1.15,8.64-5.1,9.25-9.6h-10.56v-1.9h10.31Zm5.71-.35c0,1.34-1.1,2.4-2.4,2.4s-2.4-1.06-2.4-2.4,1.08-2.4,2.4-2.4,2.4,1.06,2.4,2.4Zm-3.69,0c0,.71.57,1.29,1.29,1.29s1.29-.57,1.29-1.29-.57-1.29-1.29-1.29-1.29.56-1.29,1.29Z"/><path d="m239.57,271.7c-.8,6.84-3.97,9.31-11.19,10l-.57-1.86c3.03-.19,5.1-.78,6.45-1.63.96-.59,2.5-2.11,3.03-4.7h-11.51v-1.81h13.79Zm-1.06-4.11v1.79h-11.48v-1.79h11.48Z"/><path d="m253.26,267.87c-.8,3.55-2.09,5.6-3.22,7.18.97.75,3.18,2.5,5.77,5.06l-1.63,1.58c-.82-.89-2.31-2.54-5.32-5.18-2.38,2.61-4.8,4.24-6.92,5.18l-1.13-1.62c2.07-.89,7.31-3.5,9.88-10.37h-8.96v-1.84h11.53Z"/><path d="m259.92,267.24h1.83v13.79h-2.09v-11.53l-2.57,1.77-.28-1.93,3.11-2.1Z"/><path d="m272.98,268.88c-.4-.02-.44-.03-.61-.03-2.92,0-4.37,2.04-4.92,4.73.7-.77,1.74-1.48,3.3-1.48,2.31,0,4.5,1.7,4.5,4.5s-2.14,4.71-4.78,4.71c-2.21,0-5.13-1.41-5.13-6.23,0-3.81,2.12-8.12,6.94-8.12.24,0,.4,0,.7.04v1.88Zm-2.5,5.06c-1.34,0-2.99.85-2.99,2.59,0,1.44,1.13,2.9,2.94,2.9s2.77-1.32,2.77-2.75c0-2.44-1.97-2.75-2.71-2.75Z"/><path d="m290.91,267.05v15.06h-13.46v-15.06h13.46Zm-11.55,6.56h9.62v-4.77h-9.62v4.77Zm0,1.77v4.94h9.62v-4.94h-9.62Z"/><path d="m293.23,282.67c1.86-2.35,2.97-5.24,2.97-8.25s-1.11-5.9-2.97-8.25h1.65c2.82,3.51,3.11,6.91,3.11,8.25s-.3,4.73-3.11,8.25h-1.65Z"/></g><path d="m399,293v36H1v-36h398m1-1H0v38h400v-38h0Z" style="fill:#0094e2;"/><g><path d="m30.76,305.02v1.33h-10.62v9.41h10.97v1.35h-12.44v-12.08h12.09Zm-1.76,2.22c-.62,1.29-1.21,2.27-2.09,3.41,1.57,1.07,2.39,1.83,3.35,2.75l-1.06,1.3c-.52-.56-1.63-1.73-3.27-2.9-1.53,1.59-3.04,2.61-4.37,3.43l-.92-1.17c1.48-.75,2.77-1.61,4.13-3.05-1.48-.95-2.8-1.58-3.6-1.95l.74-1.17c.7.34,2.5,1.21,3.8,2.01.84-1.14,1.33-2.1,1.81-3.19l1.46.52Z"/><path d="m46.18,305.11h5.22v5.01h-3.86v7.31h-1.36v-12.32Zm1.36,1.13v.91h2.53v-.91h-2.53Zm0,1.84v.91h2.53v-.91h-2.53Zm7.75,2.83v5.1h-6.37v-5.1h6.37Zm-5.08,1.11v.95h3.78v-.95h-3.78Zm0,1.87v.99h3.78v-.99h-3.78Zm6.48-3.76h-4.06v-5.01h5.44v11.03c0,.38,0,1.29-.92,1.29h-2.1l-.22-1.37h1.55c.17,0,.32-.05.32-.33v-5.6Zm-2.73-3.89v.91h2.73v-.91h-2.73Zm0,1.84v.91h2.73v-.91h-2.73Z"/></g><g><path d="m92.92,316.8c1.13-.77,2.44-1.69,3.53-3.25h-3.03v-1.6h3.53v-1.62h-3.62v-1.58h1.93c-.02-.14-.19-1.55-.52-2.49h-1.06v-1.58h3.27v-1.44h1.67v1.44h3.01v1.58h-.82c-.37,1.6-.4,1.79-.63,2.49h1.71v1.58h-3.27v1.62h2.87v1.6h-2.54c.4.49,1.13,1.36,2.14,1.98l-.87,1.57c-.9-.87-1.11-1.15-1.6-1.86v4.37h-1.67v-4.33c-1.43,1.9-2.42,2.66-3.08,3.13l-.96-1.6Zm3.41-10.54c.26.83.52,2.28.54,2.49h1.76c.21-.7.45-1.86.54-2.49h-2.84Zm13.27-1.39c-1.58.75-3.51,1.24-5.38,1.3v2.64h5.38v1.67h-1.7v9.11h-1.81v-9.11h-1.86v.47c0,4.85-.96,6.71-2.33,8.64l-1.69-1.17c1.51-1.81,2.28-3.58,2.28-7.43v-6.47c3.06.05,4.99-.77,6.12-1.3l.99,1.63Z"/><path d="m126.21,304.75v1.57c-.71.8-1.11,1.2-1.58,1.63h1.88v3.06h.68v1.58h-.68v3.18h-3.32v2.61c0,.57-.28,1.2-1.22,1.2h-2.44l-.35-1.69h1.91c.14,0,.56,0,.56-.49v-1.63h-2.73v-1.55h2.73v-1.63h-2.99v-1.58h2.99v-1.48h-2.31v-1.39c-.05.04-.1.07-.23.16l-1.18-1.23v.8h-2.42v.87h3.15v1.41h-7.79v-1.41h3.06v-.87h-2.37v-1.32h2.37v-.82h-2.91v-1.43h2.91v-1.06h1.58v1.06h3.03v1.43h-3.03v.82h2.42v.45c1.38-.92,2.54-2.33,3.25-3.84l1.64.35c-.17.45-.28.7-.59,1.25h3.98Zm-8.28,6.11v7.6c0,1.01-.56,1.13-1.27,1.13h-2.16l-.33-1.58h1.63c.14,0,.54-.02.54-.42v-.97h-3.18v2.97h-1.6v-8.73h6.37Zm-1.58,1.3h-3.18v.92h3.18v-.92Zm0,2.19h-3.18v.97h3.18v-.97Zm4.78-8.04c-.82.99-1.15,1.27-1.58,1.63h2.78c.19-.14,1.1-.83,1.77-1.63h-2.97Zm3.83,3.22h-1.77v1.48h1.77v-1.48Zm0,3.06h-1.77v1.63h1.77v-1.63Z"/><path d="m128.8,303.83h15.31v14.21c0,1.2-.76,1.55-1.69,1.55h-2.97l-.26-1.76h2.63c.45,0,.54-.24.54-.57v-11.76h-11.78v14.09h-1.77v-15.76Zm2.33,4.58h2.38c-.19-.92-.68-2.16-.73-2.26l1.76-.35c.16.45.56,1.67.78,2.61h2.35c.37-1.01.52-1.46.83-2.59l1.74.35c-.33,1.03-.45,1.43-.75,2.24h2.28v1.6h-4.47v5.43h1.88v-4.59h1.72v6.19h-8.87v-6.19h1.65v4.59h1.93v-5.43h-4.49v-1.6Z"/><path d="m197.53,316.8c1.13-.77,2.44-1.69,3.53-3.25h-3.03v-1.6h3.53v-1.62h-3.62v-1.58h1.93c-.02-.14-.19-1.55-.52-2.49h-1.06v-1.58h3.27v-1.44h1.67v1.44h3.01v1.58h-.82c-.37,1.6-.4,1.79-.63,2.49h1.71v1.58h-3.27v1.62h2.87v1.6h-2.54c.4.49,1.13,1.36,2.14,1.98l-.87,1.57c-.9-.87-1.11-1.15-1.6-1.86v4.37h-1.67v-4.33c-1.43,1.9-2.42,2.66-3.08,3.13l-.96-1.6Zm3.41-10.54c.26.83.52,2.28.54,2.49h1.76c.21-.7.45-1.86.54-2.49h-2.84Zm13.27-1.39c-1.58.75-3.51,1.24-5.38,1.3v2.64h5.38v1.67h-1.7v9.11h-1.81v-9.11h-1.86v.47c0,4.85-.96,6.71-2.33,8.64l-1.69-1.17c1.51-1.81,2.28-3.58,2.28-7.43v-6.47c3.06.05,4.99-.77,6.12-1.3l.99,1.63Z"/><path d="m219.36,313.45c-.29.8-1.34,3.69-2.66,6.04l-1.5-1.51c1.51-2.16,2.23-4.14,2.64-5.44l1.51.92Zm-3.1-5.29c.77.31,1.9.96,2.8,1.69l-1.03,1.41c-1.06-.83-1.46-1.06-2.7-1.7l.92-1.39Zm.68-4.77c.7.3,2.14,1.18,2.77,1.63l-1.18,1.55c-.89-.82-1.32-1.11-2.59-1.77l1.01-1.41Zm9.72,3.43h4.45v1.34h-4.45v.9h5.27v1.48h-12.4v-1.48h5.34v-.9h-4.44v-1.34h4.44v-.85h-4.92v-1.46h4.92v-1.25h1.79v1.25h4.94v1.46h-4.94v.85Zm4.24,4.52v6.77c0,1.44-1.1,1.48-1.93,1.48h-2.31l-.28-1.71h2.05c.5,0,.7-.05.7-.47v-.47h-6.85v2.64h-1.76v-8.25h10.38Zm-8.63,1.27v.92h6.85v-.92h-6.85Zm0,2.14v.96h6.85v-.96h-6.85Z"/><path d="m233.24,307.48h6.25v1.79c-.59,3.71-2.64,6.91-5.53,8.65l-1.03-1.69c1.83-1.2,4-2.84,4.75-6.96h-4.44v-1.79Zm8.96-2.24c.1.82.28,2.49,1.18,4.31,2-1.55,3.15-2.7,4.38-4.07l1.63,1.25c-.89.89-2.78,2.73-5.15,4.35.73,1.1,2.3,3.13,5.46,5.36l-1.17,1.67c-1.46-1.01-4.94-3.57-6.35-7.74v7.2c0,.66,0,2.04-1.79,2.04h-2.85l-.38-1.84h2.71c.26,0,.5-.07.5-.49v-14.02h1.81v1.98Z"/></g><line x1="78.5" y1="254.5" x2="78.5" y2="392.5" style="fill:none; stroke:#0094e2; stroke-miterlimit:10;"/><g><line x1="185.98" y1="311" x2="155.02" y2="311" style="fill:none; stroke:#000; stroke-miterlimit:10;"/><polygon points="184.96 307.51 191 311 184.96 314.49 184.96 307.51"/><polygon points="156.04 307.51 150 311 156.04 314.49 156.04 307.51"/></g><rect width="400" height="38" style="fill:#666;"/><g><path d="m10.39,17.56h3.6v4.59c0,2.21,2.21,2.91,3.86,2.91h8.98l-.37,1.72h-8.68c-1.36,0-3.15-.37-4.17-2-.38.5-1.17,1.51-2.52,2.5l-.94-1.95c.73-.38,1.46-.94,2.09-1.51v-4.5h-1.84v-1.76Zm1.58-6.52c.78.82,1.83,1.93,2.63,3.13l-1.53,1.17c-.89-1.41-1.6-2.31-2.47-3.22l1.37-1.08Zm6.33,1.84h-2.9v-1.44h10.18v1.44c-.45.35-1.11.87-3.24,1.83h3.67v8.23c0,1.23-.71,1.44-1.41,1.44h-2.05l-.31-1.63h1.71c.4,0,.43-.23.43-.5v-.85h-2.82v2.84h-1.62v-2.84h-2.75v2.99h-1.65v-9.67h3.31c-.54-.38-.77-.5-1.37-.82l.83-1.01Zm-1.11,3.24v1.25h2.75v-1.25h-2.75Zm0,2.57v1.29h2.75v-1.29h-2.75Zm1.43-5.81c.66.4,1.3.85,1.95,1.3.24-.1,1.34-.59,2.37-1.3h-4.31Zm2.94,3.24v1.25h2.82v-1.25h-2.82Zm0,2.57v1.29h2.82v-1.29h-2.82Z" style="fill:#fff;"/><path d="m41.2,16.58v1.44c-.99.89-3.06,2.23-4.44,2.78v.14h7.31v1.71h-7.31v3.11c0,1.25-1.25,1.44-1.43,1.44h-3.41l-.33-1.84h2.8c.49,0,.49-.24.49-.56v-2.16h-7.29v-1.71h7.29v-1.36h.76c.59-.19,1.79-.68,2.58-1.38h-7.74v-1.63h10.72Zm-10.87-2.96c-.37-.94-.8-1.72-1.04-2.14l1.69-.63c.47.66,1.01,1.69,1.3,2.61l-.4.16h3.48c-.43-1.01-.77-1.6-1.18-2.24l1.72-.66c.37.56,1.04,1.84,1.32,2.71l-.57.19h2.82c.21-.4.47-.92,1.15-2.85l2,.59c-.4.92-.63,1.38-1.15,2.26h2.21v3.98h-1.76v-2.33h-12.09v2.33h-1.76v-3.98h2.26Z" style="fill:#fff;"/><path d="m52.13,17.47h-4.42v-1.74h10.66v1.74h-4.45v2.52h5.39v1.72h-5.39v3.17c.5.07.85.07,1.17.07h6.26l-.37,1.76h-6.66c-1.81,0-3.88-.42-5.98-3.08-.52,1.06-1.2,2.35-2.51,3.43l-1.11-1.63c1.65-1.36,2.91-4.07,3.18-6.98l1.84.28c-.17,1.46-.42,2.28-.71,3.2,1.13,1.53,2.02,2.17,3.1,2.56v-7.01Zm1.84-6.71v1.55h6.82v3.98h-1.79v-2.26h-11.92v2.26h-1.79v-3.98h6.77v-1.55h1.91Z" style="fill:#fff;"/><path d="m66.29,23.44c-.68,1.51-1.77,2.85-2.77,3.74l-1.2-1.34c1.03-.9,1.91-2.21,2.38-3.1l1.58.7Zm-2.5-12.61h1.65v1.57h3.31v-1.57h1.65v1.57h1.03v1.65h-1.03v6.84h1.03v1.6h-8.94v-1.6h1.3v-6.84h-.99v-1.65h.99v-1.57Zm1.65,3.22v1.24h3.31v-1.24h-3.31Zm0,2.7v1.29h3.31v-1.29h-3.31Zm0,2.68v1.46h3.31v-1.46h-3.31Zm3.17,3.34c.3.28,1.18,1.1,1.79,2.21l-1.27,1.11c-.3-.54-1.18-1.81-1.72-2.4l1.2-.92Zm8.02-.73h-3.13c-.26,1.76-.92,3.62-2.07,5.15l-1.51-1.18c1.24-1.74,2.21-3.39,2.21-8.98v-5.65h6.23v14.42c0,1.39-.94,1.39-1.48,1.39h-2.23l-.28-1.76h1.7c.4,0,.56-.14.56-.52v-2.87Zm-2.82-4.54l-.12,2.87h2.94v-2.87h-2.82Zm0-4.49v2.87h2.82v-2.87h-2.82Z" style="fill:#fff;"/><path d="m91.04,12.83h1.6v5.08h5.08v1.6h-5.08v5.1h-1.6v-5.1h-5.1v-1.6h5.1v-5.08Z" style="fill:#fff;"/><path d="m119.59,15.16c-.37.8-.78,1.57-1.22,2.31h2.77v1.55h-16.39v-1.55h2.75c-.07-.17-.45-1.04-1.13-2.33l1.63-.54c.68,1.24,1.3,2.75,1.34,2.87h.83v-3.2h-5.08v-1.58h3.71c-.21-.42-.75-1.37-.78-1.46l1.88-.49c.37.64.73,1.3,1.06,1.95h4.05c.52-.77.77-1.24,1.1-1.93l1.95.49c-.21.54-.64,1.2-.82,1.44h3.48v1.58h-5.08v3.2h.83c.61-1.13.75-1.39,1.41-2.89l1.7.57Zm-.37,11.66h-12.59v-6.94h12.59v6.94Zm-1.74-5.51h-9.08v1.32h9.08v-1.32Zm0,2.64h-9.08v1.39h9.08v-1.39Zm-3.62-9.67h-1.95v3.2h1.95v-3.2Z" style="fill:#fff;"/><path d="m122.4,17.56h3.6v4.59c0,2.21,2.21,2.91,3.86,2.91h8.98l-.37,1.72h-8.68c-1.36,0-3.15-.37-4.17-2-.38.5-1.17,1.51-2.52,2.5l-.94-1.95c.73-.38,1.46-.94,2.09-1.51v-4.5h-1.84v-1.76Zm1.58-6.52c.78.82,1.83,1.93,2.63,3.13l-1.53,1.17c-.89-1.41-1.6-2.31-2.47-3.22l1.37-1.08Zm6.33,1.84h-2.9v-1.44h10.18v1.44c-.45.35-1.11.87-3.24,1.83h3.67v8.23c0,1.23-.71,1.44-1.41,1.44h-2.05l-.31-1.63h1.71c.4,0,.43-.23.43-.5v-.85h-2.82v2.84h-1.62v-2.84h-2.75v2.99h-1.65v-9.67h3.31c-.54-.38-.77-.5-1.37-.82l.83-1.01Zm-1.11,3.24v1.25h2.75v-1.25h-2.75Zm0,2.57v1.29h2.75v-1.29h-2.75Zm1.43-5.81c.66.4,1.3.85,1.95,1.3.24-.1,1.34-.59,2.37-1.3h-4.31Zm2.94,3.24v1.25h2.82v-1.25h-2.82Zm0,2.57v1.29h2.82v-1.29h-2.82Z" style="fill:#fff;"/><path d="m147.44,13.17c-1.34.09-2.66.12-4,.12-.8,0-1.34-.02-1.88-.04l-.31-1.57c1.93.03,7.88.14,13.1-.97l.75,1.67c-.97.19-2.37.47-5.98.7v1.23h6.68v1.44h-1.9v1.69h2.59v1.48h-2.59v1.62h1.9v1.39h-4.99c2.16,1.86,5.03,2.71,5.91,2.99l-.92,1.65c-2.77-.97-4.75-2.21-6.68-4.31v4.89h-1.67v-4.7c-.73.8-3.08,3.06-6.56,4.17l-1.03-1.71c3.11-.87,4.94-2.07,6.02-2.99h-5.13v-1.39h1.86v-1.62h-2.45v-1.48h2.45v-1.69h-1.86v-1.44h6.7v-1.15Zm-3.11,2.59v1.69h3.11v-1.69h-3.11Zm0,3.17v1.62h3.11v-1.62h-3.11Zm4.78-3.17v1.69h3.1v-1.69h-3.1Zm0,3.17v1.62h3.1v-1.62h-3.1Z" style="fill:#fff;"/><path d="m173.92,13.68h-7.08v1.03h5.93v7.04h-5.93v1.13h7.24v1.6h-7.24v2.66h-1.77v-2.66h-7.32v-1.6h7.32v-1.13h-5.86v-7.04h5.86v-1.03h-7.08v-1.6h7.08v-1.25h1.77v1.25h7.08v1.6Zm-12.96,2.56v1.34h4.11v-1.34h-4.11Zm0,2.59v1.39h4.11v-1.39h-4.11Zm5.88-2.59v1.34h4.17v-1.34h-4.17Zm0,2.59v1.39h4.17v-1.39h-4.17Z" style="fill:#fff;"/><path d="m191.27,16.81v1.58h-3.51c1.25,1.13,2.19,1.76,3.74,2.38l-.96,1.72c-1.3-.64-1.79-.96-2.45-1.46-.24,5.88-1.23,6.12-2.78,6.12h-2.21l-.4-1.74h2.17c.68,0,.92-.24,1.01-.54.19-.59.33-2,.38-3.08h-3.69c-.75,4.21-3.51,5.13-6.54,5.46l-.7-1.57c3.32-.24,4.96-1.25,5.43-3.9h-2.23v-.87c-.8.59-1.39.97-2.68,1.62l-1.08-1.64c1.98-.76,2.97-1.48,4.04-2.52h-3.9v-1.58h5.17c.47-.75.73-1.41.92-1.9h-5.32v-1.55h2.97c-.38-.68-.64-1.08-1.25-1.79l1.58-.82c.7.85,1.06,1.43,1.64,2.61h.9c.23-.83.35-1.43.49-2.61l1.91.12c-.23,1.13-.38,1.7-.61,2.49h2.37c.37-.54.66-.97,1.53-2.61l1.58.78c-.31.61-.57,1.06-1.1,1.83h2.84v1.55h-5.13c.17.54.33,1.01.96,1.9h4.91Zm-4.21,3.39c-.63-.56-1.18-1.15-1.67-1.81h-4.37c-.61.8-.99,1.22-1.62,1.81h7.65Zm-2.71-3.39c-.35-.66-.52-1.08-.82-1.9h-.71c-.19.54-.35.94-.8,1.9h2.33Z" style="fill:#fff;"/></g><path d="m399,38v36H1v-36h398m1-1H0v38h400v-38h0Z" style="fill:#666;"/><g><path d="m21.14,59.5c-.54,1.19-1.4,2.25-2.18,2.95l-.95-1.06c.81-.71,1.51-1.74,1.88-2.44l1.25.55Zm-1.98-9.96h1.3v1.24h2.61v-1.24h1.3v1.24h.81v1.3h-.81v5.4h.81v1.26h-7.06v-1.26h1.03v-5.4h-.78v-1.3h.78v-1.24Zm1.3,2.54v.98h2.61v-.98h-2.61Zm0,2.13v1.02h2.61v-1.02h-2.61Zm0,2.11v1.15h2.61v-1.15h-2.61Zm2.5,2.64c.23.22.93.87,1.41,1.74l-1,.88c-.23-.43-.93-1.43-1.36-1.9l.95-.73Zm6.33-.58h-2.47c-.21,1.39-.73,2.86-1.63,4.06l-1.19-.93c.97-1.37,1.74-2.68,1.74-7.09v-4.46h4.92v11.38c0,1.1-.74,1.1-1.17,1.1h-1.76l-.22-1.39h1.35c.32,0,.44-.11.44-.41v-2.27Zm-2.22-3.58l-.1,2.27h2.32v-2.27h-2.22Zm0-3.54v2.27h2.22v-2.27h-2.22Z"/><path d="m46.18,50.11h5.22v5.01h-3.86v7.31h-1.36v-12.32Zm1.36,1.13v.91h2.53v-.91h-2.53Zm0,1.84v.91h2.53v-.91h-2.53Zm7.75,2.83v5.09h-6.37v-5.09h6.37Zm-5.08,1.11v.95h3.78v-.95h-3.78Zm0,1.87v.99h3.78v-.99h-3.78Zm6.48-3.76h-4.06v-5.01h5.44v11.03c0,.38,0,1.29-.92,1.29h-2.1l-.22-1.37h1.55c.17,0,.32-.06.32-.33v-5.6Zm-2.73-3.89v.91h2.73v-.91h-2.73Zm0,1.84v.91h2.73v-.91h-2.73Z"/></g><g><path d="m99.74,63.04v-2.96h-6.26v-1.76l6.21-9.08h2.11v9.01h1.81v1.83h-1.81v2.96h-2.05Zm-4.18-4.78h4.18v-6.19l-4.18,6.19Z"/><path d="m112.16,49.24l-6.31,13.79h-1.69l6.31-13.79h1.69Z"/><path d="m122.93,49.24v1.95l-6.89,11.85h-2.31l6.99-11.92h-7.71v-1.88h9.92Z"/><path d="m146.14,56.13c-1.77,2.24-4.21,2.24-4.54,2.24-1.44,0-2.3-.49-3.72-1.29-1.53-.87-2.23-1.04-3.1-1.04-.47,0-2.12,0-3.39,1.7l-1.11-1.04c1.79-2.21,4.02-2.23,4.58-2.23,1.51,0,2.61.63,3.79,1.29,1.22.68,1.9,1.04,2.97,1.04,1.97,0,2.97-1.22,3.43-1.74l1.1,1.06Z"/><path d="m163.4,49.24v1.95l-6.89,11.85h-2.31l6.99-11.92h-7.71v-1.88h9.92Z"/><path d="m170.25,49.24l-6.31,13.79h-1.69l6.31-13.79h1.69Z"/><path d="m180.71,61.16v1.88h-10.16c1.51-1.51,3.11-3.15,4.89-5.24,2.1-2.47,2.61-3.5,2.61-4.66,0-1.36-.94-2.3-2.35-2.3-2.05,0-3.08,1.83-3.41,2.38l-.87-2.07c1.08-1.43,2.54-2.19,4.33-2.19,1.97,0,4.37,1.13,4.37,4.12,0,1.97-.82,3.48-5.12,8.07h5.71Z"/><path d="m192.23,61.16v1.88h-10.16c1.51-1.51,3.11-3.15,4.89-5.24,2.1-2.47,2.61-3.5,2.61-4.66,0-1.36-.94-2.3-2.35-2.3-2.05,0-3.08,1.83-3.41,2.38l-.87-2.07c1.08-1.43,2.54-2.19,4.33-2.19,1.97,0,4.37,1.13,4.37,4.12,0,1.97-.82,3.48-5.11,8.07h5.71Z"/></g><path d="m399,75v36H1v-36h398m1-1H0v38h400v-38h0Z" style="fill:#666;"/><g><path d="m30.76,87.02v1.33h-10.62v9.41h10.97v1.35h-12.44v-12.08h12.09Zm-1.76,2.22c-.62,1.29-1.21,2.27-2.09,3.41,1.57,1.07,2.39,1.83,3.35,2.75l-1.06,1.3c-.52-.56-1.63-1.73-3.27-2.9-1.53,1.59-3.04,2.61-4.37,3.43l-.92-1.17c1.48-.76,2.77-1.61,4.13-3.05-1.48-.95-2.8-1.58-3.6-1.95l.74-1.17c.7.34,2.5,1.21,3.8,2.01.84-1.14,1.33-2.1,1.81-3.19l1.46.52Z"/><path d="m46.18,87.11h5.22v5.01h-3.86v7.31h-1.36v-12.32Zm1.36,1.13v.91h2.53v-.91h-2.53Zm0,1.84v.91h2.53v-.91h-2.53Zm7.75,2.83v5.09h-6.37v-5.09h6.37Zm-5.08,1.11v.95h3.78v-.95h-3.78Zm0,1.87v.99h3.78v-.99h-3.78Zm6.48-3.76h-4.06v-5.01h5.44v11.03c0,.38,0,1.29-.92,1.29h-2.1l-.22-1.37h1.55c.17,0,.32-.06.32-.33v-5.6Zm-2.73-3.89v.91h2.73v-.91h-2.73Zm0,1.84v.91h2.73v-.91h-2.73Z"/></g><g><path d="m92.92,98.8c1.13-.77,2.44-1.69,3.53-3.25h-3.03v-1.6h3.53v-1.62h-3.62v-1.58h1.93c-.02-.14-.19-1.55-.52-2.49h-1.06v-1.58h3.27v-1.44h1.67v1.44h3.01v1.58h-.82c-.37,1.6-.4,1.79-.63,2.49h1.71v1.58h-3.27v1.62h2.87v1.6h-2.54c.4.49,1.13,1.36,2.14,1.98l-.87,1.57c-.9-.87-1.11-1.15-1.6-1.86v4.37h-1.67v-4.33c-1.43,1.9-2.42,2.66-3.08,3.13l-.96-1.6Zm3.41-10.54c.26.83.52,2.28.54,2.49h1.76c.21-.7.45-1.86.54-2.49h-2.84Zm13.27-1.39c-1.58.75-3.51,1.24-5.38,1.3v2.64h5.38v1.67h-1.7v9.11h-1.81v-9.11h-1.86v.47c0,4.85-.96,6.71-2.33,8.64l-1.69-1.17c1.51-1.81,2.28-3.58,2.28-7.43v-6.47c3.06.05,4.99-.77,6.12-1.3l.99,1.63Z"/><path d="m126.21,86.75v1.57c-.71.8-1.11,1.2-1.58,1.63h1.88v3.06h.68v1.58h-.68v3.18h-3.32v2.61c0,.57-.28,1.2-1.22,1.2h-2.44l-.35-1.69h1.91c.14,0,.56,0,.56-.49v-1.63h-2.73v-1.55h2.73v-1.63h-2.99v-1.58h2.99v-1.48h-2.31v-1.39c-.05.04-.1.07-.23.16l-1.18-1.23v.8h-2.42v.87h3.15v1.41h-7.79v-1.41h3.06v-.87h-2.37v-1.32h2.37v-.82h-2.91v-1.43h2.91v-1.06h1.58v1.06h3.03v1.43h-3.03v.82h2.42v.45c1.38-.92,2.54-2.33,3.25-3.84l1.64.35c-.17.45-.28.7-.59,1.25h3.98Zm-8.28,6.11v7.6c0,1.01-.56,1.13-1.27,1.13h-2.16l-.33-1.58h1.63c.14,0,.54-.02.54-.42v-.97h-3.18v2.97h-1.6v-8.73h6.37Zm-1.58,1.3h-3.18v.92h3.18v-.92Zm0,2.19h-3.18v.97h3.18v-.97Zm4.78-8.04c-.82.99-1.15,1.27-1.58,1.63h2.78c.19-.14,1.1-.83,1.77-1.63h-2.97Zm3.83,3.22h-1.77v1.48h1.77v-1.48Zm0,3.06h-1.77v1.63h1.77v-1.63Z"/><path d="m128.8,85.83h15.31v14.21c0,1.2-.76,1.55-1.69,1.55h-2.97l-.26-1.76h2.63c.45,0,.54-.24.54-.57v-11.76h-11.78v14.09h-1.77v-15.76Zm2.33,4.58h2.38c-.19-.92-.68-2.16-.73-2.26l1.76-.35c.16.45.56,1.67.78,2.61h2.35c.37-1.01.52-1.46.83-2.59l1.74.35c-.33,1.03-.45,1.43-.75,2.24h2.28v1.6h-4.47v5.43h1.88v-4.59h1.72v6.19h-8.87v-6.19h1.65v4.59h1.93v-5.43h-4.49v-1.6Z"/><path d="m197.53,98.8c1.13-.77,2.44-1.69,3.53-3.25h-3.03v-1.6h3.53v-1.62h-3.62v-1.58h1.93c-.02-.14-.19-1.55-.52-2.49h-1.06v-1.58h3.27v-1.44h1.67v1.44h3.01v1.58h-.82c-.37,1.6-.4,1.79-.63,2.49h1.71v1.58h-3.27v1.62h2.87v1.6h-2.54c.4.49,1.13,1.36,2.14,1.98l-.87,1.57c-.9-.87-1.11-1.15-1.6-1.86v4.37h-1.67v-4.33c-1.43,1.9-2.42,2.66-3.08,3.13l-.96-1.6Zm3.41-10.54c.26.83.52,2.28.54,2.49h1.76c.21-.7.45-1.86.54-2.49h-2.84Zm13.27-1.39c-1.58.75-3.51,1.24-5.38,1.3v2.64h5.38v1.67h-1.7v9.11h-1.81v-9.11h-1.86v.47c0,4.85-.96,6.71-2.33,8.64l-1.69-1.17c1.51-1.81,2.28-3.58,2.28-7.43v-6.47c3.06.05,4.99-.77,6.12-1.3l.99,1.63Z"/><path d="m219.36,95.45c-.29.8-1.34,3.69-2.66,6.04l-1.5-1.51c1.51-2.16,2.23-4.14,2.64-5.44l1.51.92Zm-3.1-5.29c.77.31,1.9.96,2.8,1.69l-1.03,1.41c-1.06-.83-1.46-1.06-2.7-1.7l.92-1.39Zm.68-4.77c.7.3,2.14,1.18,2.77,1.63l-1.18,1.55c-.89-.82-1.32-1.11-2.59-1.77l1.01-1.41Zm9.72,3.43h4.45v1.34h-4.45v.9h5.27v1.48h-12.4v-1.48h5.34v-.9h-4.44v-1.34h4.44v-.85h-4.92v-1.46h4.92v-1.25h1.79v1.25h4.94v1.46h-4.94v.85Zm4.24,4.52v6.77c0,1.44-1.1,1.48-1.93,1.48h-2.31l-.28-1.71h2.05c.5,0,.7-.05.7-.47v-.47h-6.85v2.64h-1.76v-8.25h10.38Zm-8.63,1.27v.92h6.85v-.92h-6.85Zm0,2.14v.96h6.85v-.96h-6.85Z"/><path d="m233.24,89.48h6.25v1.79c-.59,3.71-2.64,6.91-5.53,8.65l-1.03-1.69c1.83-1.2,4-2.84,4.75-6.96h-4.44v-1.79Zm8.96-2.24c.1.82.28,2.49,1.18,4.31,2-1.55,3.15-2.7,4.38-4.07l1.63,1.25c-.89.89-2.78,2.73-5.15,4.35.73,1.1,2.3,3.13,5.46,5.36l-1.17,1.67c-1.46-1.01-4.94-3.57-6.35-7.74v7.2c0,.66,0,2.04-1.79,2.04h-2.85l-.38-1.84h2.71c.26,0,.5-.07.5-.49v-14.02h1.81v1.98Z"/><path d="m262.5,101.67c-2.94-3.69-3.11-7.15-3.11-8.25s.17-4.56,3.11-8.25h1.65c-1.86,2.37-2.97,5.24-2.97,8.25s1.13,5.88,2.97,8.25h-1.65Z"/><path d="m265.88,97.34c1.11.75,2.45,1.1,3.79,1.1,2.47,0,3.36-1.36,3.36-2.54s-1.01-2.26-3.29-2.26h-1.38v-1.81h1.32c1.88,0,2.56-1.13,2.56-2.05,0-1.32-1.17-1.93-2.29-1.93-1.3,0-2.52.63-3.39,1.6l-.75-1.86c1.32-1.17,2.84-1.62,4.16-1.62,2.28,0,4.3,1.34,4.3,3.67,0,1.95-1.37,2.66-1.88,2.92.71.28,2.71,1.04,2.71,3.53,0,1.86-1.39,4.23-5.43,4.23-1.81,0-3.15-.43-4.38-1.1l.59-1.88Z"/><path d="m276.87,97.34c1.11.75,2.45,1.1,3.79,1.1,2.47,0,3.36-1.36,3.36-2.54s-1.01-2.26-3.29-2.26h-1.38v-1.81h1.32c1.88,0,2.56-1.13,2.56-2.05,0-1.32-1.17-1.93-2.29-1.93-1.3,0-2.52.63-3.39,1.6l-.75-1.86c1.32-1.17,2.84-1.62,4.16-1.62,2.28,0,4.3,1.34,4.3,3.67,0,1.95-1.37,2.66-1.88,2.92.71.28,2.71,1.04,2.71,3.53,0,1.86-1.39,4.23-5.43,4.23-1.81,0-3.15-.43-4.38-1.1l.59-1.88Z"/><path d="m287.7,93.13c0-1.34,0-7.17,4.87-7.17s4.87,5.84,4.87,7.17,0,7.18-4.87,7.18-4.87-5.84-4.87-7.18Zm7.67,0c0-2.66-.5-5.29-2.8-5.29s-2.8,2.64-2.8,5.29c0,2.8.57,5.3,2.8,5.3s2.8-2.68,2.8-5.3Z"/><path d="m312.75,94.91h-11.25v6.68h-1.88v-15.78h15.01v14.14c0,.89-.47,1.64-1.72,1.64h-3.08l-.33-1.79h2.73c.38,0,.52-.14.52-.49v-4.4Zm-11.25-1.69h4.66v-5.71h-4.66v5.71Zm6.49,0h4.75v-5.71h-4.75v5.71Z"/><path d="m316.21,101.67c1.86-2.35,2.97-5.24,2.97-8.25s-1.11-5.9-2.97-8.25h1.65c2.82,3.51,3.11,6.91,3.11,8.25s-.3,4.73-3.11,8.25h-1.65Z"/></g><path d="m399,112v62H1v-62h398m1-1H0v64h400v-64h0Z" style="fill:#666;"/><g><path d="m20.57,140.78c-.71.4-1.21.63-1.67.85l-.81-1.32c2.2-.78,4.68-2.32,5.92-3.83h1.25c.6.7,3.49,3.04,5.99,3.86l-.8,1.39c-.38-.19-.8-.4-1.77-.95v.95h-3.36v1.51h5.19v1.28h-5.19v3.31h1.13c.22-.49.8-1.99,1.08-2.97l1.47.34c-.47,1.29-.58,1.55-1.09,2.62h2.91v1.3h-12.39v-1.3h2.71c-.28-.92-.47-1.4-.99-2.51l1.39-.43c.62,1.19,1.03,2.68,1.1,2.94h1.28v-3.31h-5.22v-1.28h5.22v-1.51h-3.34v-.95Zm7.47-.37c-1.79-1.1-2.91-2.16-3.43-2.65-1.03,1.02-1.94,1.79-3.38,2.65h6.81Z"/><path d="m51.47,141.19c-.59,1.06-.98,1.5-1.46,2,.88.67,1.4.98,2.24,1.28l-.36,1.33c-.27-.1-.34-.12-.42-.17v3.57h-5.15v-3.56c-.07.03-.11.04-.25.11l-.45-1.29c1.26-.45,1.88-.87,2.53-1.33-.52-.6-.69-.84-.92-1.17-.38.37-.59.54-.91.76l-.66-.95c.95-.69,1.57-1.55,1.69-1.72h-1.15v-2.49h2.16v-1.02h1.4v1.02h2.22v2.49h-.51v1.13Zm-.71,4.09c-.58-.33-.98-.59-1.69-1.22-.73.58-1.2.85-1.94,1.22h3.63Zm-.06-5.23v-1.29h-3.2v1.08c.23-.34.32-.52.44-.81l1.04.49c-.12.27-.18.37-.26.52h1.98Zm-.51,6.32h-2.57v1.74h2.57v-1.74Zm-2.06-5.23c.36.54.58.8.95,1.18.47-.48.69-.82.91-1.18h-1.85Zm3.53,7.33c.7-.34,1.48-.85,2.22-1.68l1.07.84c-.78.84-1.32,1.25-2.36,1.9l-.93-1.06Zm6.92-10.13h-2.76c-.08.27-.11.34-.32.91h2.66v7.53h-5.66v-7.53h1.67c.11-.23.23-.62.29-.91h-2.17v-1.36h6.28v1.36Zm-1.79,2.1h-2.91v.89h2.91v-.89Zm0,2.02h-2.91v.92h2.91v-.92Zm0,2.05h-2.91v1.04h2.91v-1.04Zm-.05,2.29c.91.85,1.44,1.21,2.06,1.54l-.8,1.17c-1.22-.77-1.91-1.48-2.2-1.79l.93-.92Z"/></g><g><rect x="93" y="123.75" width="79.16" height="13.19" style="fill:#666;"/><g><path d="m112.88,132.4c.58.39,1.28.57,1.97.57,1.28,0,1.75-.71,1.75-1.32s-.52-1.18-1.71-1.18h-.71v-.94h.69c.98,0,1.33-.59,1.33-1.07,0-.69-.61-1-1.19-1-.68,0-1.31.33-1.76.83l-.39-.97c.69-.61,1.47-.84,2.16-.84,1.19,0,2.24.7,2.24,1.91,0,1.01-.71,1.38-.98,1.52.37.14,1.41.54,1.41,1.84,0,.97-.72,2.2-2.82,2.2-.94,0-1.64-.23-2.28-.57l.31-.98Z" style="fill:#fff;"/><path d="m119.81,133.53c2.32-.44,2.86-1.74,2.93-3.41h-1.72c-.22.37-.55.96-1.36,1.57l-.65-.65c1.21-.88,1.53-1.87,1.75-3.1l.96.07c-.11.6-.23.95-.33,1.24h4.03v.88h-1.76c-.15,3.27-2.27,3.94-3.43,4.2l-.42-.79Z" style="fill:#fff;"/><path d="m133.71,133.7c0,.62-.37.9-.86.9h-1.76l-.15-1h1.49c.17,0,.29-.06.29-.3v-1.69h-4.42c-.13,1.33-.61,2.34-1.17,2.99l-.87-.71c.54-.75,1.1-1.53,1.1-3.67v-3.75h6.35v7.22Zm-5.37-6.33v1.18h4.38v-1.18h-4.38Zm0,2.04v1.32h4.38v-1.32h-4.38Z" style="fill:#fff;"/><path d="m138.83,129.57h-2.3v-.9h5.55v.9h-2.32v1.31h2.8v.9h-2.8v1.65c.26.04.44.04.61.04h3.26l-.19.91h-3.47c-.94,0-2.02-.22-3.11-1.6-.27.55-.62,1.22-1.3,1.78l-.58-.85c.86-.71,1.51-2.12,1.66-3.63l.96.15c-.09.76-.22,1.19-.37,1.66.59.8,1.05,1.13,1.61,1.33v-3.65Zm.96-3.49v.81h3.55v2.07h-.93v-1.18h-6.2v1.18h-.93v-2.07h3.52v-.81h1Z" style="fill:#fff;"/><path d="m146.32,132.67c-.35.79-.92,1.48-1.44,1.95l-.62-.7c.53-.47,1-1.15,1.24-1.61l.82.36Zm-1.3-6.56h.86v.81h1.72v-.81h.86v.81h.53v.86h-.53v3.56h.53v.83h-4.65v-.83h.68v-3.56h-.52v-.86h.52v-.81Zm.86,1.67v.64h1.72v-.64h-1.72Zm0,1.4v.67h1.72v-.67h-1.72Zm0,1.39v.76h1.72v-.76h-1.72Zm1.65,1.74c.15.14.62.57.93,1.15l-.66.58c-.15-.28-.62-.94-.9-1.25l.62-.48Zm4.17-.38h-1.63c-.14.91-.48,1.88-1.08,2.68l-.79-.62c.64-.9,1.15-1.76,1.15-4.67v-2.94h3.24v7.5c0,.72-.49.72-.77.72h-1.16l-.14-.91h.89c.21,0,.29-.07.29-.27v-1.49Zm-1.47-2.36l-.06,1.49h1.53v-1.49h-1.47Zm0-2.33v1.49h1.47v-1.49h-1.47Z" style="fill:#fff;"/></g><g><path d="m105.74,156.4v1.77h-9.58c1.43-1.43,2.94-2.97,4.61-4.94,1.98-2.33,2.46-3.3,2.46-4.4,0-1.28-.89-2.17-2.21-2.17-1.94,0-2.9,1.72-3.21,2.25l-.82-1.95c1.02-1.34,2.39-2.07,4.08-2.07,1.85,0,4.12,1.07,4.12,3.89,0,1.85-.77,3.28-4.82,7.61h5.38Z"/><path d="m112.54,158.17v-2.79h-5.9v-1.66l5.86-8.56h1.98v8.5h1.71v1.72h-1.71v2.79h-1.94Zm-3.94-4.51h3.94v-5.84l-3.94,5.84Z"/><path d="m120.09,155.78v2.25c0,1.51-.84,1.85-2.35,1.92v-1.02c1.08-.03,1.1-.43,1.12-.82h-1.12v-2.33h2.35Z"/><path d="m131.25,156.4v1.77h-9.58c1.43-1.43,2.94-2.97,4.61-4.94,1.98-2.33,2.46-3.3,2.46-4.4,0-1.28-.89-2.17-2.21-2.17-1.94,0-2.9,1.72-3.21,2.25l-.82-1.95c1.02-1.34,2.39-2.07,4.08-2.07,1.85,0,4.12,1.07,4.12,3.89,0,1.85-.77,3.28-4.82,7.61h5.38Z"/><path d="m133.19,155.63c1.05.71,2.31,1.03,3.58,1.03,2.33,0,3.17-1.28,3.17-2.39s-.95-2.13-3.1-2.13h-1.3v-1.71h1.25c1.77,0,2.41-1.07,2.41-1.94,0-1.25-1.1-1.82-2.17-1.82-1.23,0-2.38.59-3.2,1.51l-.71-1.75c1.25-1.1,2.67-1.53,3.92-1.53,2.15,0,4.05,1.26,4.05,3.46,0,1.84-1.3,2.51-1.77,2.76.67.26,2.56.98,2.56,3.33,0,1.76-1.31,3.99-5.12,3.99-1.71,0-2.97-.41-4.13-1.03l.56-1.77Z"/><path d="m143.41,151.66c0-1.26,0-6.76,4.59-6.76s4.59,5.51,4.59,6.76,0,6.77-4.59,6.77-4.59-5.51-4.59-6.77Zm7.23,0c0-2.51-.48-4.99-2.64-4.99s-2.64,2.49-2.64,4.99c0,2.64.54,5,2.64,5s2.64-2.53,2.64-5Z"/><path d="m167.03,153.33h-10.61v6.3h-1.77v-14.88h14.16v13.34c0,.84-.44,1.54-1.62,1.54h-2.9l-.31-1.69h2.58c.36,0,.49-.13.49-.46v-4.15Zm-10.61-1.59h4.4v-5.38h-4.4v5.38Zm6.12,0h4.48v-5.38h-4.48v5.38Z"/></g></g><path d="m185.08,136.72h1.98v6.3h6.3v1.98h-6.3v6.32h-1.98v-6.32h-6.32v-1.98h6.32v-6.3Z"/><path d="m298.33,140.42v1.98h-14.61v-1.98h14.61Zm0,5.22v1.98h-14.61v-1.98h14.61Z"/><g><rect x="199.96" y="123.75" width="79.16" height="13.19" style="fill:#666;"/><g><path d="m204.12,126.62h.95v7.18h-1.08v-6l-1.34.92-.14-1,1.62-1.09Z" style="fill:#fff;"/><path d="m211.08,127.48c-.21,0-.23-.02-.32-.02-1.52,0-2.27,1.06-2.56,2.46.36-.4.91-.77,1.72-.77,1.2,0,2.34.89,2.34,2.34s-1.11,2.45-2.49,2.45c-1.15,0-2.67-.73-2.67-3.24,0-1.98,1.1-4.23,3.61-4.23.13,0,.21,0,.36.02v.98Zm-1.3,2.63c-.7,0-1.56.44-1.56,1.35,0,.75.59,1.51,1.53,1.51s1.44-.69,1.44-1.43c0-1.27-1.02-1.43-1.41-1.43Z" style="fill:#fff;"/><path d="m220.56,126.53v7.84h-7v-7.84h7Zm-6.01,3.41h5v-2.48h-5v2.48Zm0,.92v2.57h5v-2.57h-5Z" style="fill:#fff;"/><path d="m223.19,129.43c-.42.38-.69.58-.93.76l-.65-.82c1.15-.63,2.3-1.98,2.71-3.29l.94.24c-.33.86-.8,1.87-1.97,3h5.57c0,.91-.03,3.27-.37,4.46-.23.81-.85.84-1.25.84h-1.38l-.18-.96h1.38c.52,0,.6-.45.67-.85.07-.41.19-1.26.18-2.58h-2.1c-.24,2.44-1.49,3.6-3.37,4.39l-.55-.87c1.96-.82,2.72-1.65,2.95-3.52h-1.66v-.81Zm6.68.69c-.74-.5-2.31-2.09-2.93-3.77l.94-.27c.47,1.13,1.44,2.53,2.65,3.26l-.66.79Z" style="fill:#fff;"/><path d="m235.16,133.14c.96-.09,2.98-.42,2.98-2.84,0-1-.42-2.5-2.44-2.6-.28,4.03-1.48,5.7-2.73,5.7-1.05,0-1.72-1.2-1.72-2.6,0-2.54,1.88-4.06,4.21-4.06,2.81,0,3.75,1.88,3.75,3.58,0,3.42-3.07,3.73-3.71,3.79l-.34-.98Zm-2.94-2.31c0,.52.19,1.48.78,1.48.34,0,.6-.31.81-.71.62-1.12.79-2.51.9-3.86-1.63.3-2.49,1.59-2.49,3.09Z" style="fill:#fff;"/><path d="m247.83,128.36c-.19.42-.41.81-.63,1.2h1.44v.81h-8.52v-.81h1.43c-.04-.09-.24-.54-.59-1.21l.85-.28c.35.64.68,1.43.7,1.49h.43v-1.66h-2.64v-.82h1.93c-.11-.22-.39-.71-.41-.76l.98-.25c.19.33.38.68.55,1.01h2.11c.27-.4.4-.64.57-1l1.01.25c-.11.28-.33.62-.43.75h1.81v.82h-2.64v1.66h.43c.32-.59.39-.72.73-1.5l.89.3Zm-.19,6.06h-6.55v-3.61h6.55v3.61Zm-.91-2.87h-4.72v.69h4.72v-.69Zm0,1.38h-4.72v.72h4.72v-.72Zm-1.88-5.03h-1.01v1.66h1.01v-1.66Z" style="fill:#fff;"/><path d="m249.42,129.61h1.87v2.39c0,1.15,1.15,1.51,2.01,1.51h4.67l-.19.9h-4.51c-.71,0-1.64-.19-2.17-1.04-.2.26-.61.79-1.31,1.3l-.49-1.01c.38-.2.76-.49,1.09-.79v-2.34h-.96v-.91Zm.82-3.39c.41.43.95,1,1.37,1.63l-.8.61c-.46-.73-.83-1.2-1.28-1.67l.71-.56Zm3.29.96h-1.51v-.75h5.29v.75c-.23.18-.58.45-1.68.95h1.91v4.28c0,.64-.37.75-.73.75h-1.07l-.16-.85h.89c.21,0,.23-.12.23-.26v-.44h-1.47v1.47h-.84v-1.47h-1.43v1.56h-.86v-5.03h1.72c-.28-.2-.4-.26-.71-.43l.43-.52Zm-.58,1.68v.65h1.43v-.65h-1.43Zm0,1.34v.67h1.43v-.67h-1.43Zm.74-3.02c.34.21.68.44,1.01.68.13-.05.7-.31,1.23-.68h-2.24Zm1.53,1.68v.65h1.47v-.65h-1.47Zm0,1.34v.67h1.47v-.67h-1.47Z" style="fill:#fff;"/><path d="m258.75,129.58h1.77v2.67c.07.67,1.02,1.24,2.3,1.24h4.55l-.12.88h-4.47c-1.57,0-2.15-.58-2.52-.93-.36.52-.78.91-1.13,1.19l-.51-1c.28-.18.77-.55.98-.76v-2.38h-.85v-.91Zm.68-3.33c.53.49.95.97,1.33,1.52l-.76.59c-.43-.61-.83-1.14-1.23-1.57l.66-.53Zm1.47.05h6.17v1.58h-.87v.33h-1.79v.43h2.36v2.8h-2.36v.42h2.83v.71h-2.83v.67h-.86v-.67h-2.7v-.71h2.7v-.42h-2.35v-2.8h2.35v-.43h-1.82v-.33h-.83v-1.58Zm.87,1.25h1.78v-.52h-1.78v.52Zm.31,1.74v.48h1.48v-.48h-1.48Zm0,1.04v.48h1.48v-.48h-1.48Zm4.11-3.29h-1.77v.52h1.77v-.52Zm-1.77,2.25v.48h1.48v-.48h-1.48Zm0,1.04v.48h1.48v-.48h-1.48Z" style="fill:#fff;"/><path d="m270.13,129.24h-.9v-1.3c-.31.24-.47.33-.71.46l-.49-.77c.86-.41,1.51-.99,1.87-1.56l.87.24c-.15.27-.24.42-.64.82v2.1Zm6.04,5.38c-.98-.14-1.74-.31-2.83-.83l.44-.5h-2.95l.44.47c-1.1.56-2.15.74-2.87.82l-.33-.82c1.09-.05,1.74-.23,2.38-.47h-1.48v-3.77h6.75v3.77h-1.58c.9.33,1.72.43,2.45.49l-.42.84Zm-1.38-4.51h-4.92v.48h4.92v-.48Zm0,1.01h-4.92v.48h4.92v-.48Zm0,1.02h-4.92v.47h4.92v-.47Zm-.71-4.63h2.5v.62h-2.5v.42h2.27v.62h-5.4v-.62h2.24v-.42h-2.44v-.62h2.44v-.43c-.67.04-1.05.05-2.05.05l-.12-.71c.7,0,3.22,0,4.96-.41l.33.72c-.54.11-1.04.19-2.23.29v.48Z" style="fill:#fff;"/></g><g><path d="m208.22,145.17h1.72v13.01h-1.97v-10.88l-2.43,1.67-.26-1.82,2.94-1.98Z"/><path d="m213.43,151.66c0-1.26,0-6.76,4.59-6.76s4.59,5.51,4.59,6.76,0,6.77-4.59,6.77-4.59-5.51-4.59-6.77Zm7.23,0c0-2.51-.48-4.99-2.64-4.99s-2.64,2.49-2.64,4.99c0,2.64.54,5,2.64,5s2.64-2.53,2.64-5Z"/><path d="m226.53,155.78v2.25c0,1.51-.84,1.85-2.35,1.92v-1.02c1.08-.03,1.1-.43,1.12-.82h-1.12v-2.33h2.35Z"/><path d="m236.7,146.94h-5.43v3.33c.41-.15.93-.33,1.87-.33,2.79,0,4.59,1.85,4.59,4.18,0,2.05-1.48,4.31-5.13,4.31-1.44,0-2.71-.33-3.99-1.02l.54-1.79c1.05.71,2.17,1.03,3.43,1.03,2.51,0,3.2-1.48,3.2-2.56,0-1.53-1.25-2.44-2.77-2.44-.67,0-1.36.18-1.87.62h-1.69v-7.12h7.25v1.77Z"/><path d="m246.38,146.71c-.38-.02-.41-.03-.57-.03-2.76,0-4.12,1.92-4.64,4.46.66-.72,1.64-1.39,3.12-1.39,2.18,0,4.25,1.61,4.25,4.25s-2.02,4.44-4.51,4.44c-2.08,0-4.84-1.33-4.84-5.87,0-3.59,2-7.66,6.54-7.66.23,0,.38,0,.66.03v1.77Zm-2.36,4.77c-1.26,0-2.82.8-2.82,2.44,0,1.36,1.07,2.74,2.77,2.74s2.61-1.25,2.61-2.59c0-2.3-1.85-2.59-2.56-2.59Z"/><path d="m249.92,151.66c0-1.26,0-6.76,4.59-6.76s4.59,5.51,4.59,6.76,0,6.77-4.59,6.77-4.59-5.51-4.59-6.77Zm7.23,0c0-2.51-.48-4.99-2.64-4.99s-2.64,2.49-2.64,4.99c0,2.64.54,5,2.64,5s2.64-2.53,2.64-5Z"/><path d="m273.53,153.33h-10.61v6.3h-1.77v-14.88h14.16v13.34c0,.84-.44,1.54-1.62,1.54h-2.9l-.31-1.69h2.58c.36,0,.49-.13.49-.46v-4.15Zm-10.61-1.59h4.4v-5.38h-4.4v5.38Zm6.12,0h4.48v-5.38h-4.48v5.38Z"/></g></g><g><path d="m304.81,147.77c1.2.8,2.64,1.18,4.08,1.18,2.66,0,3.61-1.46,3.61-2.73s-1.08-2.43-3.54-2.43h-1.48v-1.95h1.42c2.02,0,2.75-1.22,2.75-2.21,0-1.42-1.25-2.08-2.47-2.08-1.4,0-2.71.67-3.65,1.72l-.8-2c1.42-1.25,3.05-1.74,4.47-1.74,2.45,0,4.62,1.44,4.62,3.95,0,2.1-1.48,2.86-2.02,3.14.77.3,2.92,1.12,2.92,3.8,0,2-1.5,4.55-5.84,4.55-1.95,0-3.39-.47-4.71-1.18l.64-2.02Z" style="fill:#ee0030;"/><path d="m323.05,150.67v-3.18h-6.73v-1.89l6.68-9.77h2.26v9.69h1.95v1.96h-1.95v3.18h-2.21Zm-4.49-5.14h4.49v-6.66l-4.49,6.66Z" style="fill:#ee0030;"/><path d="m331.65,147.94v2.56c0,1.72-.95,2.11-2.67,2.19v-1.16c1.24-.04,1.25-.49,1.27-.94h-1.27v-2.66h2.67Z" style="fill:#ee0030;"/><path d="m344.02,135.83v2.1l-7.41,12.74h-2.49l7.52-12.81h-8.29v-2.02h10.66Z" style="fill:#ee0030;"/><path d="m346.87,148.54c.67.28,1.35.41,2.08.41,3.05,0,4.38-2.24,4.75-5.11-.52.54-1.53,1.59-3.55,1.59-2.56,0-4.83-1.85-4.83-4.81s2.19-5.09,5.18-5.09c1.63,0,5.46.71,5.46,6.77,0,5.09-2.58,8.66-6.94,8.66-1.2,0-1.83-.24-2.15-.37v-2.06Zm3.59-5.07c1.65,0,3.16-1.16,3.16-2.92,0-1.59-1.2-2.99-3.09-2.99-2.08,0-2.99,1.68-2.99,2.99,0,2.02,1.48,2.92,2.92,2.92Z" style="fill:#ee0030;"/><path d="m357.82,143.24c0-1.44,0-7.71,5.24-7.71s5.24,6.29,5.24,7.71,0,7.73-5.24,7.73-5.24-6.29-5.24-7.73Zm8.25,0c0-2.86-.54-5.69-3.01-5.69s-3.01,2.84-3.01,5.69c0,3.01.62,5.71,3.01,5.71s3.01-2.88,3.01-5.71Z" style="fill:#ee0030;"/><path d="m384.74,145.15h-12.1v7.18h-2.02v-16.97h16.14v15.21c0,.95-.5,1.76-1.85,1.76h-3.31l-.36-1.93h2.94c.41,0,.56-.15.56-.52v-4.73Zm-12.1-1.81h5.01v-6.14h-5.01v6.14Zm6.98,0h5.11v-6.14h-5.11v6.14Z" style="fill:#ee0030;"/></g><line x1="78.5" y1="36.5" x2="78.5" y2="174.5" style="fill:none; stroke:#666; stroke-miterlimit:10;"/><g><line x1="185.98" y1="93" x2="155.02" y2="93" style="fill:none; stroke:#000; stroke-miterlimit:10;"/><polygon points="184.96 89.51 191 93 184.96 96.49 184.96 89.51"/><polygon points="156.04 89.51 150 93 156.04 96.49 156.04 89.51"/></g><rect y="218" width="400" height="38" style="fill:#0094e2;"/><g><path d="m10.39,235.56h3.6v4.59c0,2.21,2.21,2.91,3.86,2.91h8.98l-.37,1.72h-8.68c-1.36,0-3.15-.37-4.17-2-.38.5-1.17,1.51-2.52,2.5l-.94-1.95c.73-.38,1.46-.94,2.09-1.51v-4.5h-1.84v-1.76Zm1.58-6.52c.78.82,1.83,1.93,2.63,3.13l-1.53,1.17c-.89-1.41-1.6-2.31-2.47-3.22l1.37-1.08Zm6.33,1.84h-2.9v-1.44h10.18v1.44c-.45.35-1.11.87-3.24,1.83h3.67v8.23c0,1.23-.71,1.44-1.41,1.44h-2.05l-.31-1.63h1.71c.4,0,.43-.23.43-.5v-.85h-2.82v2.84h-1.62v-2.84h-2.75v2.99h-1.65v-9.67h3.31c-.54-.38-.77-.5-1.37-.82l.83-1.01Zm-1.11,3.24v1.25h2.75v-1.25h-2.75Zm0,2.57v1.29h2.75v-1.29h-2.75Zm1.43-5.81c.66.4,1.3.85,1.95,1.3.24-.1,1.34-.59,2.37-1.3h-4.31Zm2.94,3.24v1.25h2.82v-1.25h-2.82Zm0,2.57v1.29h2.82v-1.29h-2.82Z" style="fill:#fff;"/><path d="m41.2,234.58v1.44c-.99.89-3.06,2.23-4.44,2.78v.14h7.31v1.71h-7.31v3.11c0,1.25-1.25,1.44-1.43,1.44h-3.41l-.33-1.84h2.8c.49,0,.49-.24.49-.56v-2.16h-7.29v-1.71h7.29v-1.36h.76c.59-.19,1.79-.68,2.58-1.38h-7.74v-1.63h10.72Zm-10.87-2.96c-.37-.94-.8-1.72-1.04-2.14l1.69-.63c.47.66,1.01,1.69,1.3,2.61l-.4.16h3.48c-.43-1.01-.77-1.6-1.18-2.24l1.72-.66c.37.56,1.04,1.84,1.32,2.71l-.57.19h2.82c.21-.4.47-.92,1.15-2.85l2,.59c-.4.92-.63,1.38-1.15,2.26h2.21v3.98h-1.76v-2.33h-12.09v2.33h-1.76v-3.98h2.26Z" style="fill:#fff;"/><path d="m47.35,233.96c-.19,1.77-.52,2.7-.64,3.06l-1.51-.66c.56-1.98.73-3.91.75-6.33l1.62.12c0,.63,0,1.13-.07,2.16h.8v-3.48h1.72v3.48h1.43v1.65h-1.43v3.88c.43-.14.76-.24,1.43-.49l.12,1.72c-.4.16-.71.28-1.55.56v5.57h-1.72v-5.03c-.68.19-2.21.64-2.77.75l-.31-1.84c.61-.12,1.46-.28,3.08-.73v-4.38h-.94Zm8.45-5.13h1.79v1.53h3.51v1.74h-3.51v2.05h4.11v1.74h-1.69v1.67h1.51v1.69h-1.51v3.6c0,2.19-.37,2.35-2.04,2.35h-2.17l-.33-1.83h2.12c.57,0,.63-.26.63-.82v-3.3h-6.25v-1.69h6.25v-1.67h-6.38v-1.74h3.97v-2.05h-3.44v-1.74h3.44v-1.53Zm-1.98,10.68c.8.64,2,2.24,2.16,2.47l-1.55,1.1c-.33-.45-1.03-1.5-2.17-2.58l1.57-.99Z" style="fill:#fff;"/><path d="m66.71,238.58c-.3,2.4-.73,4.31-2.75,6.51l-1.36-1.44c2.05-1.9,2.42-4.16,2.61-8.45h-2.04v-5.72h8.3v5.72h-4.49c-.05.73-.07,1.08-.1,1.67h4.42c-.04,1.29-.26,6.14-.64,7.1-.14.37-.45,1.13-2.04,1.13h-1.67l-.35-1.64h1.65c.66,0,.77-.16.85-.63.09-.4.28-2.37.33-4.24h-2.73Zm-1.81-7.5v2.5h4.84v-2.5h-4.84Zm8.19-1.22h1.76v11.17h-1.76v-11.17Zm3.53-1.06h1.78v14.87c0,1.3-.99,1.41-1.6,1.41h-2.61l-.37-1.86h2.42c.38,0,.38-.24.38-.57v-13.85Z" style="fill:#fff;"/><path d="m87.3,235.47h-4.42v-1.74h10.66v1.74h-4.45v2.52h5.39v1.72h-5.39v3.17c.5.07.85.07,1.17.07h6.26l-.37,1.76h-6.66c-1.81,0-3.88-.42-5.98-3.08-.52,1.06-1.2,2.35-2.51,3.43l-1.11-1.63c1.65-1.36,2.91-4.07,3.18-6.98l1.84.28c-.17,1.46-.42,2.28-.71,3.2,1.13,1.53,2.02,2.17,3.1,2.56v-7.01Zm1.84-6.71v1.55h6.82v3.98h-1.79v-2.26h-11.92v2.26h-1.79v-3.98h6.77v-1.55h1.91Z" style="fill:#fff;"/><path d="m101.46,241.44c-.68,1.51-1.77,2.85-2.77,3.74l-1.2-1.34c1.03-.9,1.91-2.21,2.38-3.1l1.58.7Zm-2.5-12.61h1.65v1.57h3.31v-1.57h1.65v1.57h1.03v1.65h-1.03v6.84h1.03v1.6h-8.94v-1.6h1.3v-6.84h-.99v-1.65h.99v-1.57Zm1.65,3.22v1.24h3.31v-1.24h-3.31Zm0,2.7v1.29h3.31v-1.29h-3.31Zm0,2.68v1.46h3.31v-1.46h-3.31Zm3.17,3.34c.3.28,1.18,1.1,1.79,2.21l-1.27,1.11c-.3-.54-1.18-1.81-1.72-2.4l1.2-.92Zm8.02-.73h-3.13c-.26,1.76-.92,3.62-2.07,5.15l-1.51-1.18c1.24-1.74,2.21-3.39,2.21-8.98v-5.65h6.23v14.42c0,1.39-.94,1.39-1.48,1.39h-2.23l-.28-1.76h1.7c.4,0,.56-.14.56-.52v-2.87Zm-2.82-4.54l-.12,2.87h2.94v-2.87h-2.82Zm0-4.49v2.87h2.82v-2.87h-2.82Z" style="fill:#fff;"/></g></g></svg>