<?xml version="1.0" encoding="UTF-8"?><svg id="_レイヤー_2" xmlns="http://www.w3.org/2000/svg" width="530" height="109" viewBox="0 0 530 109"><g id="_レイヤー_1-2"><rect width="530" height="109" style="fill:#0094e2;"/><path d="m154.52,50.57c.95.52,1.85,1.17,2.72,1.94.07.07.11.12.11.15,0,.04-.04.11-.11.23l-.87,1.21c-.06.09-.11.13-.15.13s-.1-.04-.18-.11c-.76-.76-1.65-1.45-2.66-2.07-.1-.06-.15-.11-.15-.14,0-.04.04-.11.13-.22l.78-1.03c.09-.11.16-.16.21-.16.04,0,.09.02.17.06Zm-1.12,10.9c.33-.42.65-.92.96-1.51.53-1.06,1.13-2.55,1.78-4.45.35.37.7.69,1.05.96.28.19.42.35.42.47,0,.04-.04.19-.13.45-.48,1.39-1.05,2.8-1.72,4.23-.18.39-.28.64-.3.74-.02.17-.1.25-.23.25-.11,0-.23-.04-.36-.11-.48-.29-.97-.63-1.47-1.03Zm2.19-15.74c.87.5,1.77,1.17,2.72,2.01.07.06.11.11.11.17,0,.04-.04.11-.11.23l-.87,1.2c-.08.09-.14.14-.18.14-.02,0-.07-.03-.15-.08-.93-.91-1.85-1.64-2.76-2.19-.09-.05-.13-.09-.13-.13,0-.04.05-.12.14-.23l.87-1.02c.09-.1.15-.15.2-.15.03,0,.08.02.16.06Zm1.9,7.04c.85-.8,1.6-1.76,2.24-2.87.52-.91.91-1.82,1.18-2.74.14-.49.22-.91.25-1.27.83.21,1.44.4,1.85.57.24.09.36.2.36.32,0,.09-.05.2-.15.33-.15.17-.29.45-.4.82-.67,2.07-1.77,4.01-3.29,5.83-.17.21-.29.31-.36.31-.07,0-.2-.11-.4-.32-.41-.45-.84-.78-1.27-.97Zm3.57,9.84h-1.57c-.14,0-.21-.07-.21-.2l.04-3.64v-1.87l-.04-2.59c0-.11.01-.17.04-.2.03-.02.08-.03.18-.03l2.41.04h4.25l2.39-.04c.11,0,.18.02.2.05.02.02.03.08.03.18l-.04,2.26v2.11l.04,3.61c0,.11-.01.18-.05.2-.02.02-.09.04-.19.04h-1.58c-.1,0-.16-.02-.18-.05-.02-.02-.03-.09-.03-.19v-.83h-5.51v.95c0,.13-.07.2-.2.2Zm.2-6.71v3.82h5.51v-3.82h-5.51Zm9.46-3.41c-.44.3-.83.67-1.18,1.11-.19.25-.33.38-.4.38-.06,0-.18-.09-.36-.27-1.72-1.81-3.04-4.13-3.96-6.95-.01-.04-.02-.08-.02-.1,0-.1.08-.17.24-.22l1.29-.44c.07-.02.13-.03.18-.03.09,0,.14.06.17.17.47,1.5,1.05,2.76,1.75,3.8.6.9,1.36,1.74,2.29,2.54Z" style="fill:#fff;"/><path d="m179.06,60.73c1.46-.98,2.52-2.31,3.19-3.99h-.63l-1.17.04c-.1,0-.16-.01-.19-.04-.02-.02-.03-.08-.03-.17v-1.26l-.62.19c-.09.03-.16.04-.2.04-.07,0-.12-.07-.14-.21l-.11-.55c-.31.04-.71.09-1.2.13v5.23l.04,2.49c0,.1-.01.16-.04.19-.03.02-.08.03-.17.03h-1.46c-.1,0-.16-.02-.18-.05-.02-.02-.03-.07-.03-.17l.04-2.49v-5.06l-1.5.11c-.32.02-.56.07-.72.16-.1.05-.19.07-.28.07-.11,0-.19-.1-.23-.31-.1-.52-.17-1.06-.22-1.61.45.05.91.07,1.38.07.16-.2.52-.69,1.07-1.45-.64-.88-1.46-1.82-2.48-2.8-.06-.06-.09-.12-.09-.17,0-.04.05-.12.14-.25l.7-.93c.09-.11.15-.17.19-.17s.09.03.15.1l.46.46c.41-.69.78-1.38,1.1-2.08.14-.3.25-.63.34-1,.58.22,1.1.45,1.58.69.17.09.25.19.25.3,0,.1-.06.18-.18.25-.11.07-.23.23-.35.45-.56,1.01-1.1,1.88-1.62,2.63l.83.98c.58-.96,1.01-1.68,1.28-2.16.23-.43.4-.83.53-1.2.82.33,1.34.57,1.57.7.16.09.23.18.23.27,0,.12-.07.22-.2.31-.13.09-.33.34-.59.74-.96,1.52-1.94,2.93-2.94,4.25,1-.06,1.74-.1,2.23-.13-.12-.39-.29-.83-.49-1.34-.02-.06-.04-.1-.04-.13,0-.07.07-.14.22-.2l.85-.31c.06-.03.11-.04.15-.04.06,0,.12.06.18.19.46,1.04.84,2.15,1.14,3.34,0,.04,0,.08,0,.11,0,.05-.02.09-.05.12.14.01.5.02,1.08.02h.76c.17,0,.29-.02.34-.07.1-.05.17-.07.2-.07.12,0,.34.16.67.49.24.22.42.4.53.57v-2.24h-.8l-2.3.04c-.1,0-.16-.01-.18-.04-.02-.03-.03-.08-.03-.18l.04-1.76v-2.81l-.04-1.74c0-.11.01-.18.04-.21.02-.02.08-.03.17-.03l2.3.04h.38c.12-.35.21-.62.27-.82.09-.34.15-.7.19-1.08.65.04,1.25.11,1.79.22.24.05.36.13.36.25,0,.09-.05.18-.15.29-.12.1-.22.24-.29.44-.09.22-.18.45-.29.7h1.2l2.3-.04c.1,0,.16.02.18.05.02.02.03.09.03.19l-.04,1.74v2.81l.04,1.76c0,.11-.01.17-.04.19-.03.02-.08.03-.17.03l-2.3-.04h-.97c.29.94.64,1.76,1.05,2.47.5-.41.97-.86,1.4-1.33.28-.31.51-.6.69-.86.46.33.82.63,1.09.88.15.15.23.28.23.38,0,.11-.08.21-.23.28-.18.09-.42.28-.72.57-.35.36-.87.81-1.56,1.36.72.88,1.69,1.72,2.91,2.51-.31.29-.6.71-.86,1.25-.14.25-.24.38-.3.38s-.19-.09-.38-.27c-1.45-1.34-2.55-2.81-3.31-4.41.08,2,.12,3.24.12,3.72,0,.73-.23,1.24-.71,1.54-.38.22-1.02.32-1.94.32-.31,0-.49-.02-.55-.07-.05-.05-.11-.22-.18-.49-.13-.51-.3-.91-.51-1.22.5.05.96.07,1.38.07.46,0,.69-.2.69-.59v-3.99s-.08.11-.17.18c-.14.11-.27.34-.4.68-.58,1.68-1.57,3.15-2.97,4.41-.2.2-.34.31-.44.31-.07,0-.21-.13-.42-.38-.22-.28-.51-.54-.89-.8Zm-5.89.16c.43-1.03.69-2.17.78-3.42.03-.33.05-.62.05-.87,0-.12,0-.24,0-.34.68.09,1.17.18,1.47.27.22.06.33.13.33.22,0,.1-.03.2-.09.29-.05.1-.11.33-.16.71-.2,1.54-.41,2.68-.62,3.42-.1.3-.18.46-.25.46-.06,0-.2-.08-.44-.23-.38-.23-.73-.39-1.05-.49Zm6.2-4.82c.08-.03.14-.05.18-.05.05,0,.1.06.15.18.29.81.51,1.73.68,2.77.01.06.02.11.02.13,0,.08-.08.15-.24.21l-.96.32c-.1.04-.17.06-.21.06-.06,0-.1-.06-.11-.19-.09-.9-.28-1.86-.57-2.89-.02-.06-.03-.11-.03-.13,0-.06.07-.11.22-.16l.87-.26Zm3.53-7.5v1.2h4.75v-1.2h-4.75Zm4.75,3.85v-1.29h-4.75v1.29h4.75Z" style="fill:#fff;"/><path d="m204.16,54.37c1.77,1.31,3.52,2.84,5.26,4.59.1.1.15.19.15.27s-.04.17-.13.28c-.4.49-.83.92-1.27,1.3-.08.07-.16.11-.23.11s-.16-.05-.27-.15c-1.43-1.68-3.07-3.25-4.94-4.71-1.99,2.07-4.11,3.75-6.38,5.02-.23.1-.37.15-.44.15-.12,0-.23-.06-.33-.17-.35-.44-.88-.85-1.6-1.24,1.53-.77,2.84-1.57,3.93-2.39.89-.67,1.81-1.48,2.75-2.45,1.36-1.4,2.55-2.99,3.57-4.77l-4.9.02c-.98,0-1.98.04-3.01.12-.12.01-.21-.1-.25-.32-.11-.48-.17-1.13-.17-1.98.68.05,1.75.07,3.21.07h5.22c.66,0,1.1-.06,1.31-.18.07-.05.14-.07.21-.07.06,0,.17.05.32.15.41.32.82.77,1.23,1.34.06.11.09.19.09.24,0,.13-.08.26-.25.38-.26.23-.49.51-.7.84-.71,1.21-1.52,2.39-2.43,3.55Z" style="fill:#fff;"/><path d="m216.66,53.78c.81.25,1.47.54,1.98.87.19.13.29.25.29.36,0,.09-.07.19-.21.31-.17.14-.33.35-.47.64-.62,1.28-1.33,2.34-2.11,3.18-.14.15-.27.22-.37.22-.08,0-.18-.04-.3-.11-.65-.43-1.19-.69-1.61-.8.99-1.03,1.76-2.07,2.3-3.14.25-.46.42-.97.51-1.54Zm4.5-3.46v-.89c0-1.26-.07-2.23-.21-2.92,1.08.09,1.87.19,2.36.28.23.05.34.15.34.29,0,.09-.04.2-.11.34-.13.24-.2.88-.2,1.9v1h2.34c.72,0,2.02-.04,3.88-.12h.04c.14,0,.21.1.21.31,0,.23,0,.43,0,.61,0,.32,0,.61-.03.87-.02.25-.11.37-.27.36-1.97-.06-3.28-.09-3.92-.09h-2.24l.02,3.84.04,3.3c0,.92-.38,1.57-1.12,1.96-.71.4-1.52.61-2.43.63-.2,0-.35-.13-.45-.4-.29-.67-.72-1.24-1.28-1.72,1.27,0,2.13-.07,2.59-.22.29-.13.44-.41.44-.83v-6.56h-2.99c-1.15,0-2.24.04-3.28.13-.17,0-.25-.13-.25-.38-.05-.91-.07-1.52-.07-1.82,1.13.09,2.32.13,3.57.13h3.03Zm4.15,4.68c.18-.13.45-.32.8-.57.29-.2.51-.36.65-.45.09-.07.17-.1.24-.1.1,0,.19.06.29.18.85.72,1.75,1.88,2.72,3.48.07.11.1.2.1.28,0,.1-.07.2-.2.31-.28.27-.7.58-1.27.96-.11.07-.19.1-.24.1-.07,0-.13-.06-.2-.18-.83-1.56-1.8-2.89-2.89-4Zm3.15-9.81c.61,0,1.12.22,1.52.67.35.38.53.84.53,1.37,0,.61-.23,1.11-.68,1.51-.38.35-.84.52-1.37.52-.61,0-1.12-.22-1.52-.67-.35-.38-.53-.84-.53-1.36,0-.63.23-1.14.68-1.54.38-.33.84-.5,1.37-.5Zm0,.91c-.35,0-.63.12-.84.36-.19.21-.28.47-.28.77,0,.35.12.63.36.84.2.19.46.28.76.28.35,0,.63-.12.84-.36.19-.21.28-.46.28-.76,0-.35-.12-.64-.36-.85-.2-.19-.46-.28-.76-.28Z" style="fill:#fff;"/><path d="m236.36,52.37c.37-.21.87-.46,1.5-.75.07-.04.14-.06.21-.06.1,0,.19.06.29.19.76.96,1.3,1.9,1.63,2.81.05.18.07.27.07.29,0,.08-.07.17-.22.27-.4.23-.8.42-1.22.58-.06.02-.12.04-.17.04-.13,0-.23-.1-.31-.3-.46-1.17-1.05-2.19-1.78-3.07Zm9.81-1.42c.96.3,1.67.6,2.12.91.17.12.25.23.25.33,0,.1-.07.22-.2.34-.15.13-.35.45-.58.96-.82,1.95-1.78,3.63-2.87,5.06-1.18,1.51-2.49,2.73-3.92,3.67-.19.14-.34.21-.45.21s-.22-.04-.31-.13c-.42-.34-.96-.61-1.62-.8,1.22-.81,2.17-1.51,2.85-2.11.61-.54,1.18-1.16,1.71-1.85,1.11-1.45,1.97-2.97,2.57-4.58.23-.66.38-1.33.44-2.01Zm-5.98.46c.81-.38,1.32-.62,1.52-.7.07-.04.14-.06.19-.06.11,0,.2.07.3.2.63.82,1.12,1.75,1.47,2.77.03.09.05.17.05.22,0,.1-.08.2-.24.29-.36.21-.8.41-1.31.58-.05.02-.09.03-.12.03-.1,0-.19-.1-.26-.31-.46-1.19-1-2.21-1.6-3.04Z" style="fill:#fff;"/><path d="m261.91,51.55c2.39.75,4.4,1.61,6.04,2.59.17.09.25.2.25.32,0,.05-.01.11-.04.17-.24.59-.51,1.14-.82,1.65-.08.14-.16.21-.25.21-.07,0-.14-.03-.21-.09-1.78-1.14-3.45-1.96-4.99-2.44v4.2c0,.69.02,1.93.07,3.72v.06c0,.15-.11.23-.34.23-.29.02-.57.03-.84.03s-.57,0-.84-.03c-.24,0-.36-.1-.36-.29.05-1.22.07-2.47.07-3.74v-9.35c0-1.16-.06-2.09-.19-2.81,1.11.07,1.91.18,2.38.31.24.05.36.16.36.33,0,.1-.05.25-.16.44-.09.17-.13.76-.13,1.78v2.72Z" style="fill:#fff;"/><path d="m276.97,54.95l-2.41.04c-.14,0-.21-.06-.21-.19v-1.85c0-.12.07-.19.21-.19l2.41.04h11.45l2.42-.04c.14,0,.21.06.21.19v1.85c0,.12-.07.19-.21.19l-2.42-.04h-11.45Z" style="fill:#fff;"/><path d="m309.83,59.21c.36.25.79.44,1.29.57.3.08.46.2.46.35,0,.06-.01.17-.04.33-.07.5-.19.88-.33,1.14-.11.19-.28.36-.5.53-.47.34-1.53.51-3.19.51s-2.8-.1-3.26-.29c-.46-.17-.7-.58-.7-1.22v-1.37h-1.63c-.55,1.09-1.4,1.88-2.54,2.37-.84.36-1.97.6-3.38.71-.15.01-.25.02-.32.02-.14,0-.24-.04-.31-.12-.04-.05-.11-.19-.21-.42-.17-.38-.41-.74-.7-1.08,1.44-.04,2.54-.16,3.31-.37.85-.23,1.48-.6,1.89-1.11l-2.49.04c-.11,0-.17-.02-.19-.05-.02-.03-.03-.09-.03-.19l.04-1.69v-2.74l-.04-1.71c0-.1.01-.16.04-.18.03-.02.08-.03.18-.03l2.62.04h6.16l2.6-.04c.11,0,.18.01.2.04.02.02.03.08.03.17l-.04,1.71v2.74l.04,1.69c0,.1-.01.17-.03.19s-.09.04-.2.04l-2.6-.04h-.4v.67c0,.3.12.47.36.51.27.04.79.05,1.56.05.98,0,1.61-.08,1.87-.25.18-.1.3-.25.35-.46.06-.2.09-.56.11-1.08Zm-8.93-7.83l1.83-.04c.1,0,.16.01.19.04.02.03.03.08.03.17v.88c0,.1-.02.16-.05.18-.02.02-.07.03-.17.03l-1.83-.04h-3.11l-2.47.04c-.11,0-.17-.01-.19-.04s-.03-.08-.03-.17l.04-1.87v-2.46l-.04-1.88c0-.1.01-.16.04-.18.02-.02.08-.03.18-.03l2.47.04h2.74l2.14-.04c.1,0,.16.01.18.04.02.02.03.08.03.17v.9c0,.1-.01.16-.04.18-.02.02-.07.03-.17.03l-2.14-.04h-.23v.74l1.78-.02c.13,0,.2.07.2.2l-.04.85v.53l.04.85c0,.14-.07.21-.2.21l-1.78-.02v.74h.6Zm-4.03-4.09v.74h1.83v-.74h-1.83Zm3.66,2.42v-.75h-3.66v.75h3.66Zm-3.66,1.67h1.83v-.74h-1.83v.74Zm10.05,3.06h-8.07v.71h8.07v-.71Zm-8.07,2.45h8.07v-.72h-8.07v.72Zm8.07,1.72v-.74h-8.07v.74h8.07Zm-4.56-9.28c.95-.83,1.71-1.8,2.3-2.9.19-.34.32-.7.4-1.07.24.06.75.18,1.53.38.23.06.34.15.34.27,0,.08-.06.18-.17.29-.12.11-.27.32-.44.66l-.11.23h2.39l2.41-.04c.11,0,.18.01.19.04s.03.08.03.17v1.23c0,.11-.01.18-.04.21-.03.02-.09.03-.19.03l-2.41-.04h-3.39c-.38.5-.78.95-1.21,1.36-.22.21-.36.31-.42.31-.1,0-.24-.13-.42-.38-.23-.31-.51-.56-.82-.74Zm6.11,2.66h-2.07l-1.85.04c-.1,0-.16-.01-.18-.04-.02-.02-.03-.08-.03-.17v-1.26c0-.1.01-.16.04-.18.02-.02.08-.03.17-.03l1.85.04h2.07l1.85-.04c.1,0,.16.01.19.04.02.02.03.08.03.17v1.26c0,.1-.02.16-.05.18-.02.02-.07.03-.17.03l-1.85-.04Z" style="fill:#fff;"/><path d="m316.93,46.48c1.06.27,1.78.49,2.16.68.19.11.29.23.29.38,0,.1-.04.24-.13.42-.11.18-.22.53-.34,1.05-.63,2.9-.95,5.21-.95,6.92,0,1.09.02,1.9.05,2.43.09-.21.3-.67.62-1.38.23-.5.41-.92.56-1.26.22.51.45.91.67,1.2.07.09.11.18.11.27s-.04.19-.11.31c-.56,1.24-.88,2.2-.97,2.88-.03.22-.05.41-.05.58,0,.11,0,.25.03.43v.04c0,.09-.08.15-.23.2-.34.12-.81.23-1.42.33-.06.02-.11.03-.15.03-.09,0-.17-.08-.23-.25-.54-1.39-.82-3.32-.82-5.8,0-1.61.26-4.01.78-7.21.11-.74.16-1.3.16-1.71,0-.19,0-.37-.03-.53Zm8.78,10.1c-.02-1.04-.05-2.5-.07-4.35-.89.03-1.59.05-2.09.05-.68,0-1.29-.02-1.83-.06-.21,0-.32-.08-.33-.25-.09-.53-.14-1.11-.14-1.73.84.08,1.69.12,2.53.12.59,0,1.19-.02,1.8-.07l-.02-2c-.02-.66-.1-1.27-.25-1.86,1.03.09,1.8.21,2.3.35.23.07.34.18.34.32,0,.04-.04.15-.11.32-.08.19-.13.41-.16.67-.03.43-.04,1.1-.04,2.01.85-.07,1.75-.19,2.7-.34.05-.01.09-.02.12-.02.09,0,.15.08.19.24.07.35.11.8.11,1.36,0,.17-.07.26-.21.29-.67.17-1.64.3-2.92.4,0,1.87.05,3.57.14,5.09,1.15.46,2.2,1.07,3.15,1.82.1.07.15.13.15.2,0,.04-.02.1-.06.19-.29.57-.58,1.06-.87,1.46-.06.07-.12.11-.18.11-.05,0-.1-.03-.17-.09-.59-.56-1.28-1.06-2.05-1.52-.16,1.64-1.32,2.47-3.48,2.47-1.16,0-2.04-.27-2.63-.81-.51-.46-.77-1.08-.77-1.85,0-.84.36-1.51,1.07-2.02.61-.44,1.37-.66,2.26-.66.52,0,1.02.05,1.51.15Zm.05,1.81c-.53-.17-1.08-.25-1.65-.25-.95,0-1.43.3-1.43.91,0,.64.51.96,1.54.96.5,0,.89-.14,1.19-.41.25-.23.37-.5.37-.83,0-.15,0-.28-.02-.38Z" style="fill:#fff;"/><path d="m338.05,54.72c.49.25.98.5,1.46.76.1.05.15.12.15.19,0,.04-.02.1-.05.16-.33.51-.5.99-.5,1.45,0,.65.39,1.11,1.18,1.39.72.26,1.83.39,3.33.39,1.76,0,3.47-.18,5.15-.55.07-.01.12-.02.17-.02.12,0,.2.06.23.19.15.56.25,1.18.31,1.86v.04c0,.13-.11.21-.32.25-1.66.3-3.55.45-5.67.45-2.25,0-3.92-.37-5.02-1.12-.95-.65-1.42-1.56-1.42-2.72,0-.77.34-1.67,1.01-2.72Zm.42-7.18c1.39.33,3.16.49,5.33.49.87,0,2.21-.06,4.03-.17h.06c.14,0,.21.07.23.21.06.48.09,1.02.09,1.62,0,.25-.11.38-.32.4-1.49.22-3.04.85-4.65,1.88-.15.11-.32.17-.48.17-.13,0-.26-.04-.4-.11-.43-.29-.87-.49-1.33-.61,1.03-.67,1.86-1.2,2.49-1.58-.28.04-.8.05-1.56.05-1.01,0-2.12-.11-3.32-.32-.17-.04-.25-.15-.25-.34s.03-.76.08-1.69Z" style="fill:#fff;"/><path d="m359.82,49.46c.05-.35.13-.93.23-1.74.03-.35.05-.65.05-.9,0-.33-.03-.64-.08-.95,1,.1,1.76.24,2.28.4.25.08.38.2.38.34,0,.09-.04.19-.13.31-.17.22-.28.45-.32.7-.13.71-.22,1.22-.27,1.56,1.32-.19,2.51-.42,3.57-.71.09-.03.16-.04.2-.04.11,0,.17.08.19.23.09.51.13.97.13,1.4,0,.17-.08.27-.23.31-1.64.37-3.06.62-4.25.78-.25,1.52-.54,2.91-.87,4.18,1.54-1.34,3.36-2.01,5.45-2.01,1.33,0,2.4.4,3.21,1.2.69.67,1.03,1.46,1.03,2.39,0,1.64-.72,2.92-2.17,3.84-1.03.67-2.64,1.17-4.84,1.52-.55.09-1.02.13-1.4.13-.19,0-.35-.15-.47-.45-.27-.56-.62-1.01-1.03-1.35,1.44-.09,2.56-.21,3.36-.38.67-.14,1.37-.36,2.1-.66,1.44-.6,2.16-1.49,2.16-2.68,0-.56-.2-1.01-.61-1.34-.39-.31-.91-.46-1.55-.46-1.08,0-2.1.24-3.04.73-.8.42-1.46.96-1.96,1.62l-.53.72c-.12.19-.22.29-.31.29h-.05c-.41-.04-.89-.18-1.43-.42-.28-.12-.42-.25-.42-.38,0-.11.02-.23.07-.38.06-.22.14-.52.25-.9.33-1.33.67-2.99,1.01-4.97-1.55.11-2.61.17-3.19.17-.21,0-.33-.09-.36-.27-.09-.34-.18-.89-.27-1.65,1.29,0,2.66-.06,4.12-.17Z" style="fill:#fff;"/><path d="m378.29,49.97c1.02.29,1.68.52,1.98.69.2.09.31.21.31.36,0,.09-.03.18-.09.29-.18.32-.31.66-.38,1-.22,1.14-.38,2.29-.46,3.46.98-.99,2.04-1.75,3.18-2.27,1.06-.49,2.12-.73,3.17-.73,1.47,0,2.6.42,3.4,1.26.69.72,1.03,1.65,1.03,2.8,0,1.88-.96,3.3-2.87,4.26-1.21.61-2.83,1.05-4.87,1.31-.13.02-.23.03-.3.03-.2,0-.35-.09-.46-.27-.4-.72-.83-1.26-1.29-1.61,2.21-.14,3.95-.49,5.22-1.07,1.5-.64,2.25-1.6,2.25-2.87,0-.61-.2-1.08-.6-1.44-.4-.35-.96-.52-1.68-.52-.88,0-1.84.29-2.88.87-.9.5-1.76,1.17-2.6,2.01-.32.32-.59.67-.82,1.05-.07.11-.15.17-.23.17-.04,0-.11-.01-.21-.04-.53-.18-.96-.35-1.29-.51-.18-.07-.27-.19-.27-.38.1-1.91.29-3.96.58-6.13.12-.86.18-1.43.18-1.72Zm1.33-2.63c.48-.72.86-1.22,1.12-1.48.08-.08.16-.12.24-.12.04,0,.08,0,.12.02,1.35.53,2.6,1.29,3.73,2.26.09.07.13.15.13.21,0,.04-.03.12-.09.22-.28.46-.61.91-.97,1.34-.08.1-.15.15-.21.15-.07,0-.14-.04-.23-.13-1.19-1.04-2.47-1.86-3.84-2.47Z" style="fill:#fff;"/></g></svg>