<?xml version="1.0" encoding="UTF-8"?><svg id="_レイヤー_2" xmlns="http://www.w3.org/2000/svg" width="530" height="109" viewBox="0 0 530 109"><g id="_レイヤー_1-2"><rect width="530" height="109" style="fill:#0094e2;"/><path d="m147.55,50.57c.95.52,1.85,1.17,2.72,1.94.07.07.11.12.11.15,0,.04-.04.11-.11.23l-.87,1.21c-.06.09-.11.13-.15.13s-.1-.04-.18-.11c-.76-.76-1.65-1.45-2.66-2.07-.1-.06-.15-.11-.15-.14,0-.04.04-.11.13-.22l.78-1.03c.09-.11.16-.16.21-.16.04,0,.09.02.17.06Zm-1.12,10.9c.33-.42.65-.92.96-1.51.53-1.06,1.12-2.55,1.78-4.45.35.37.7.69,1.05.96.28.19.42.35.42.47,0,.04-.04.19-.13.45-.48,1.39-1.05,2.8-1.72,4.23-.18.39-.28.64-.3.74-.02.17-.1.25-.23.25-.1,0-.23-.04-.36-.11-.48-.29-.97-.63-1.47-1.03Zm2.19-15.74c.87.5,1.77,1.17,2.72,2.01.07.06.11.11.11.17,0,.04-.04.11-.11.23l-.87,1.2c-.08.09-.14.14-.18.14-.02,0-.07-.03-.15-.08-.93-.91-1.85-1.64-2.76-2.19-.09-.05-.13-.09-.13-.13,0-.04.05-.12.14-.23l.87-1.02c.09-.1.16-.15.21-.15.03,0,.08.02.16.06Zm1.9,7.04c.85-.8,1.6-1.76,2.24-2.87.52-.91.91-1.82,1.18-2.74.14-.49.22-.91.25-1.27.83.21,1.44.4,1.85.57.24.09.36.2.36.32,0,.09-.05.2-.15.33-.15.17-.29.45-.4.82-.67,2.07-1.77,4.01-3.29,5.83-.17.21-.29.31-.36.31-.07,0-.2-.11-.4-.32-.41-.45-.84-.78-1.27-.97Zm3.57,9.84h-1.57c-.14,0-.2-.07-.2-.2l.04-3.64v-1.87l-.04-2.59c0-.11.01-.17.04-.2.02-.02.08-.03.18-.03l2.41.04h4.25l2.39-.04c.11,0,.18.02.2.05.02.02.03.08.03.18l-.04,2.26v2.11l.04,3.61c0,.11-.02.18-.05.2-.02.02-.09.04-.19.04h-1.58c-.1,0-.16-.02-.18-.05-.02-.02-.03-.09-.03-.19v-.83h-5.51v.95c0,.13-.07.2-.2.2Zm.2-6.71v3.82h5.51v-3.82h-5.51Zm9.46-3.41c-.44.3-.83.67-1.18,1.11-.19.25-.32.38-.4.38-.06,0-.18-.09-.36-.27-1.72-1.81-3.04-4.13-3.96-6.95-.01-.04-.02-.08-.02-.1,0-.1.08-.17.24-.22l1.29-.44c.07-.02.13-.03.18-.03.09,0,.14.06.17.17.47,1.5,1.05,2.76,1.75,3.8.6.9,1.36,1.74,2.29,2.54Z" style="fill:#fff;"/><path d="m172.09,60.73c1.46-.98,2.52-2.31,3.19-3.99h-.63l-1.17.04c-.1,0-.16-.01-.19-.04-.02-.02-.03-.08-.03-.17v-1.26l-.62.19c-.09.03-.16.04-.21.04-.07,0-.11-.07-.14-.21l-.11-.55c-.31.04-.71.09-1.2.13v5.23l.04,2.49c0,.1-.01.16-.04.19-.02.02-.08.03-.17.03h-1.46c-.1,0-.16-.02-.18-.05-.02-.02-.03-.07-.03-.17l.04-2.49v-5.06l-1.5.11c-.32.02-.56.07-.72.16-.1.05-.19.07-.28.07-.11,0-.19-.1-.23-.31-.1-.52-.17-1.06-.22-1.61.45.05.91.07,1.38.07.16-.2.52-.69,1.07-1.45-.64-.88-1.46-1.82-2.48-2.8-.06-.06-.09-.12-.09-.17,0-.04.05-.12.14-.25l.7-.93c.09-.11.15-.17.2-.17s.09.03.15.1l.45.46c.41-.69.78-1.38,1.1-2.08.14-.3.25-.63.34-1,.58.22,1.1.45,1.58.69.17.09.25.19.25.3,0,.1-.06.18-.18.25-.11.07-.23.23-.35.45-.56,1.01-1.1,1.88-1.62,2.63l.84.98c.58-.96,1.01-1.68,1.28-2.16.23-.43.41-.83.53-1.2.82.33,1.34.57,1.57.7.15.09.23.18.23.27,0,.12-.07.22-.2.31-.13.09-.33.34-.59.74-.96,1.52-1.94,2.93-2.94,4.25,1-.06,1.74-.1,2.23-.13-.12-.39-.29-.83-.49-1.34-.02-.06-.04-.1-.04-.13,0-.07.07-.14.22-.2l.85-.31c.06-.03.11-.04.15-.04.06,0,.12.06.18.19.46,1.04.84,2.15,1.14,3.34,0,.04,0,.08,0,.11,0,.05-.02.09-.06.12.14.01.5.02,1.09.02h.76c.17,0,.29-.02.34-.07.1-.05.17-.07.21-.07.12,0,.34.16.67.49.24.22.42.4.53.57v-2.24h-.8l-2.3.04c-.1,0-.16-.01-.18-.04-.02-.03-.03-.08-.03-.18l.04-1.76v-2.81l-.04-1.74c0-.11.01-.18.04-.21.02-.02.08-.03.17-.03l2.3.04h.38c.12-.35.21-.62.27-.82.09-.34.15-.7.19-1.08.65.04,1.25.11,1.79.22.24.05.36.13.36.25,0,.09-.05.18-.15.29-.12.1-.22.24-.29.44-.09.22-.18.45-.29.7h1.2l2.3-.04c.1,0,.16.02.18.05.02.02.03.09.03.19l-.04,1.74v2.81l.04,1.76c0,.11-.01.17-.04.19-.02.02-.08.03-.17.03l-2.3-.04h-.97c.29.94.64,1.76,1.05,2.47.5-.41.97-.86,1.4-1.33.28-.31.51-.6.69-.86.46.33.82.63,1.08.88.16.15.23.28.23.38,0,.11-.08.21-.23.28-.18.09-.42.28-.72.57-.35.36-.87.81-1.56,1.36.72.88,1.69,1.72,2.91,2.51-.31.29-.6.71-.86,1.25-.14.25-.24.38-.3.38s-.19-.09-.38-.27c-1.45-1.34-2.55-2.81-3.31-4.41.08,2,.12,3.24.12,3.72,0,.73-.24,1.24-.71,1.54-.38.22-1.02.32-1.94.32-.31,0-.49-.02-.55-.07-.06-.05-.12-.22-.18-.49-.13-.51-.3-.91-.51-1.22.5.05.96.07,1.38.07.46,0,.69-.2.69-.59v-3.99s-.08.11-.17.18c-.14.11-.27.34-.4.68-.58,1.68-1.57,3.15-2.97,4.41-.2.2-.34.31-.44.31-.07,0-.21-.13-.42-.38-.22-.28-.51-.54-.89-.8Zm-5.89.16c.43-1.03.69-2.17.78-3.42.03-.33.05-.62.05-.87,0-.12,0-.24,0-.34.68.09,1.17.18,1.47.27.22.06.32.13.32.22,0,.1-.03.2-.09.29-.06.1-.11.33-.16.71-.2,1.54-.41,2.68-.62,3.42-.1.3-.18.46-.25.46-.06,0-.2-.08-.44-.23-.38-.23-.73-.39-1.05-.49Zm6.2-4.82c.08-.03.14-.05.18-.05.05,0,.1.06.15.18.28.81.51,1.73.68,2.77.01.06.02.11.02.13,0,.08-.08.15-.24.21l-.96.32c-.1.04-.17.06-.21.06-.06,0-.1-.06-.11-.19-.09-.9-.28-1.86-.57-2.89-.02-.06-.03-.11-.03-.13,0-.06.07-.11.22-.16l.87-.26Zm3.53-7.5v1.2h4.75v-1.2h-4.75Zm4.75,3.85v-1.29h-4.75v1.29h4.75Z" style="fill:#fff;"/><path d="m196.71,57.33c.56.56,1.11,1.19,1.67,1.9.09.1.13.2.13.28,0,.09-.06.2-.17.31-.47.47-.88.84-1.24,1.12-.11.06-.19.09-.24.09-.07,0-.15-.05-.23-.17-1.79-2.31-3.83-4.28-6.09-5.91.63-.6,1.08-1.02,1.36-1.27.09-.06.16-.09.21-.09.04,0,.13.04.27.13,1.27.93,2.16,1.64,2.69,2.12,1.4-1.21,2.87-2.71,4.4-4.48l-8.01.04c-1.39,0-2.57.05-3.53.14-.19,0-.3-.11-.33-.34-.12-.67-.2-1.35-.23-2.03.86.09,2.24.13,4.14.13h7.79c.8,0,1.33-.06,1.58-.18.11-.06.2-.09.27-.09.11,0,.22.05.31.15.52.46.98.97,1.37,1.52.1.17.15.31.15.42,0,.16-.08.29-.25.4-.48.35-.78.59-.91.72-1.69,1.88-3.4,3.57-5.1,5.09Z" style="fill:#fff;"/><path d="m209.23,52.37c.37-.21.87-.46,1.5-.75.07-.04.14-.06.21-.06.1,0,.19.06.29.19.76.96,1.3,1.9,1.63,2.81.05.18.07.27.07.29,0,.08-.07.17-.22.27-.4.23-.8.42-1.22.58-.06.02-.12.04-.17.04-.13,0-.23-.1-.31-.3-.46-1.17-1.05-2.19-1.78-3.07Zm9.81-1.42c.96.3,1.67.6,2.12.91.17.12.25.23.25.33,0,.1-.07.22-.2.34-.15.13-.35.45-.58.96-.82,1.95-1.78,3.63-2.87,5.06-1.18,1.51-2.49,2.73-3.92,3.67-.19.14-.34.21-.45.21s-.22-.04-.31-.13c-.42-.34-.96-.61-1.62-.8,1.22-.81,2.17-1.51,2.85-2.11.61-.54,1.18-1.16,1.71-1.85,1.11-1.45,1.97-2.97,2.57-4.58.23-.66.38-1.33.44-2.01Zm-5.98.46c.81-.38,1.32-.62,1.52-.7.07-.04.14-.06.19-.06.11,0,.2.07.3.2.63.82,1.12,1.75,1.47,2.77.03.09.05.17.05.22,0,.1-.08.2-.24.29-.36.21-.8.41-1.31.58-.05.02-.09.03-.12.03-.1,0-.19-.1-.26-.31-.46-1.19-1-2.21-1.6-3.04Z" style="fill:#fff;"/><path d="m228.04,48.3c.8.09,2.01.13,3.65.13h6.78c.48,0,.83-.07,1.05-.2.11-.07.22-.11.33-.11.12,0,.23.04.31.13.57.46,1,.9,1.3,1.32.1.14.15.26.15.37,0,.12-.06.24-.19.36-.13.13-.28.38-.45.75-1.02,2.46-2.25,4.52-3.68,6.18-1.71,1.95-3.5,3.46-5.39,4.53-.17.11-.35.17-.52.17s-.33-.07-.47-.21c-.4-.38-.98-.72-1.76-1.04,1.47-.74,2.69-1.51,3.68-2.29.86-.69,1.7-1.51,2.52-2.46,1.43-1.63,2.5-3.44,3.22-5.43h-6.87c-.72,0-1.76.03-3.14.09-.2.01-.32-.11-.36-.38-.04-.32-.1-.95-.17-1.91Zm14.74-3.48c.61,0,1.12.22,1.52.67.35.38.53.84.53,1.36,0,.61-.23,1.12-.68,1.52-.38.35-.84.52-1.37.52-.61,0-1.12-.22-1.52-.67-.35-.38-.53-.84-.53-1.37,0-.62.23-1.13.68-1.52.38-.34.84-.51,1.37-.51Zm0,.91c-.35,0-.63.12-.84.36-.19.21-.28.46-.28.76,0,.35.12.64.36.85.2.19.46.28.76.28.35,0,.63-.12.84-.36.19-.21.28-.47.28-.77,0-.35-.12-.63-.36-.84-.2-.19-.46-.28-.76-.28Z" style="fill:#fff;"/><path d="m253.95,45.64c.89.14,1.61.32,2.16.54.15.06.23.16.23.33,0,.12-.04.21-.13.28-.11.09-.22.25-.32.46-.02.06-.06.15-.12.28-.11.27-.22.52-.32.75,1.22-.14,2.38-.34,3.46-.59.04,0,.08,0,.11,0,.1,0,.16.07.19.2.11.44.18.89.19,1.36v.06c0,.14-.11.22-.32.25-1.48.22-2.96.41-4.45.58-.62,1-1.1,1.7-1.42,2.11l.02.04c.6-.39,1.23-.58,1.9-.58,1.37,0,2.14.68,2.31,2.05,1.3-.6,2.23-1.04,2.8-1.34.61-.32,1.09-.66,1.44-1.02.59.62,1.03,1.17,1.34,1.67.1.15.15.29.15.42,0,.14-.1.23-.29.27-.38.06-.77.15-1.16.29-1.86.66-3.22,1.16-4.08,1.51v3.06c0,.19-.12.31-.36.34-.42.06-.86.09-1.35.09-.17,0-.25-.1-.25-.31,0-1.09,0-1.86.02-2.31-.88.45-1.49.89-1.85,1.33-.3.36-.45.76-.45,1.2,0,.87.88,1.31,2.63,1.31,1.38,0,2.96-.13,4.73-.38h.06c.12,0,.19.07.2.21.12.53.18,1.05.18,1.56v.07c0,.19-.07.29-.21.29-1.29.17-2.85.25-4.7.25-3.18,0-4.77-1.04-4.77-3.14,0-.97.35-1.83,1.06-2.59.62-.67,1.61-1.35,2.95-2.04-.03-.51-.13-.86-.29-1.05-.15-.18-.4-.27-.74-.27h-.11c-.74.03-1.61.49-2.63,1.37-.59.57-1.22,1.26-1.9,2.07-.09.11-.17.17-.23.17-.05,0-.12-.04-.21-.13-.54-.54-.9-.96-1.08-1.25-.05-.07-.07-.13-.07-.18,0-.07.04-.14.13-.2,1.73-1.54,3.05-3.11,3.98-4.71-.88.04-1.9.06-3.04.06-.14,0-.23-.1-.27-.31-.04-.24-.11-.76-.19-1.57.61.02,1.24.04,1.91.04.8,0,1.62-.02,2.46-.06.23-.56.42-1.11.57-1.63.09-.38.14-.76.14-1.16Z" style="fill:#fff;"/><path d="m278.3,55.81c.82.67,1.51,1.31,2.05,1.92.07.07.11.16.11.26s-.04.18-.11.25c-.39.47-.78.87-1.18,1.2-.09.06-.16.09-.23.09-.06,0-.13-.04-.2-.11-.52-.61-1.13-1.22-1.85-1.84-1.81,1.96-3.83,3.54-6.06,4.75-.2.11-.36.17-.47.17s-.23-.06-.36-.17c-.5-.41-1.1-.73-1.81-.97,1.58-.81,2.92-1.63,4.02-2.45.99-.74,1.98-1.64,2.98-2.7-.8-.66-1.72-1.25-2.74-1.78.76-.83,1.18-1.28,1.25-1.35.09-.09.17-.13.25-.13.02,0,.09.03.19.07.55.26,1.37.77,2.45,1.52.84-1.09,1.58-2.34,2.23-3.77l-4.71.1c-1.52,1.94-2.87,3.36-4.06,4.28-.16.11-.29.17-.38.17-.12,0-.22-.04-.31-.13-.45-.32-.98-.62-1.6-.88,1.34-1.06,2.46-2.12,3.37-3.17.7-.81,1.37-1.74,2.01-2.79.54-.92.88-1.7,1.02-2.34,1.15.41,1.89.72,2.23.94.14.07.2.17.2.3,0,.15-.08.28-.23.38-.14.1-.27.23-.39.4-.15.26-.35.58-.59.96l3.35-.07c.41-.02.75-.11,1.04-.29.13-.09.24-.13.33-.13s.2.05.34.15c.4.24.83.63,1.3,1.16.1.11.15.22.15.34,0,.12-.07.24-.21.36-.24.22-.43.46-.57.72-.93,1.84-1.86,3.37-2.79,4.59Zm1.87-8.83l1.01-.71s.07-.05.11-.05c.05,0,.11.03.18.08.64.5,1.24,1.18,1.8,2.03.04.06.05.1.05.14,0,.06-.04.12-.11.17l-.8.58c-.06.04-.11.07-.15.07-.06,0-.12-.04-.18-.12-.59-.9-1.23-1.64-1.92-2.2Zm1.75-1.25l.95-.69s.09-.05.12-.05c.04,0,.1.03.17.08.73.55,1.33,1.2,1.81,1.96.04.06.06.11.06.16,0,.06-.04.12-.12.19l-.76.58c-.05.04-.1.07-.15.07-.06,0-.12-.04-.17-.12-.53-.85-1.17-1.57-1.9-2.18Z" style="fill:#fff;"/><path d="m296.94,49.19h2.54c.72,0,1.2-.07,1.43-.21.08-.06.17-.09.26-.09.16,0,.3.07.43.19.49.37.91.75,1.27,1.17.09.09.13.19.13.29,0,.13-.06.27-.2.42-.13.14-.27.45-.41.94-.72,2.38-1.52,4.24-2.4,5.58-.59.92-1.36,1.82-2.31,2.7-.83.77-1.7,1.43-2.59,1.96-.11.07-.21.11-.31.11s-.23-.07-.4-.19c-.5-.34-1.13-.62-1.89-.85,1.41-.78,2.55-1.56,3.41-2.35.74-.67,1.41-1.47,2.01-2.38,1-1.51,1.74-3.27,2.21-5.3h-8.27v1.6c0,.32,0,.72.03,1.22.02.62.03.98.03,1.08,0,.16-.02.26-.07.31-.04.04-.12.05-.24.05-.28.02-.57.03-.87.03s-.59,0-.87-.03c-.21,0-.31-.1-.31-.29.02-1.29.04-2.08.04-2.36v-1.54c0-.86-.01-1.47-.04-1.84v-.04c0-.14.09-.21.27-.21.9.04,1.86.06,2.88.06h1.94v-.74c0-1.19-.06-2.03-.19-2.52,1.1.09,1.88.18,2.35.28.27.06.41.17.41.35,0,.07-.02.15-.07.24-.15.43-.22.92-.22,1.47v.91Z" style="fill:#fff;"/><path d="m309.09,49.48c.32-.38.76-.88,1.33-1.48.08-.1.17-.15.27-.15.06,0,.14.03.25.09,1.18.63,2.39,1.53,3.63,2.7.11.11.17.2.17.27s-.04.15-.11.24c-.41.55-.81,1.03-1.18,1.43-.1.1-.18.15-.23.15-.06,0-.14-.05-.24-.15-1.16-1.19-2.45-2.23-3.88-3.1Zm.42,9.48c1.01-.28,1.87-.59,2.57-.95,1.22-.64,2.24-1.22,3.05-1.75.71-.46,1.51-1.06,2.41-1.78,1.27-1.03,2.29-1.92,3.03-2.67.71-.72,1.44-1.55,2.18-2.5.1.83.28,1.57.53,2.22.06.15.09.27.09.36,0,.14-.1.33-.31.58-1.11,1.29-2.56,2.63-4.37,4.03-1.57,1.23-3.48,2.47-5.73,3.72-.67.4-1.09.7-1.27.88-.13.12-.24.19-.34.19s-.21-.07-.33-.2c-.59-.66-1.09-1.37-1.52-2.12Z" style="fill:#fff;"/><path d="m339.89,59.09h-7.37v1.12c0,.16-.03.26-.09.31-.05.04-.16.06-.33.06-.25.01-.5.02-.75.02s-.5,0-.75-.02c-.27-.01-.4-.09-.4-.23v-.05c.04-1.97.05-3.23.05-3.78v-5.89c0-.74-.01-1.38-.04-1.91,0-.18.07-.27.21-.27.67.04,1.8.06,3.4.06h4.52c1.79,0,2.98-.01,3.57-.04.17,0,.25.1.25.29v.09l-.02,3.07v4.54c0,.69.03,1.89.09,3.62,0,.22-.12.32-.36.32-.3,0-.59,0-.87,0s-.59,0-.87-.02c-.12,0-.19-.02-.22-.05-.02-.04-.03-.12-.03-.24v-1.01Zm0-2.01v-6.55h-7.38v6.55h7.38Z" style="fill:#fff;"/><path d="m348.86,52.98c.99.16,2.36.23,4.1.23h6.12c.6,0,1.37,0,2.32-.03,1.21-.02,1.89-.03,2.05-.04h.09c.17,0,.25.09.25.27.02.29.03.59.03.9s0,.6-.03.89c0,.19-.09.29-.27.29h-.07c-1.9-.02-3.31-.04-4.24-.04h-6.84l-2.79.23c-.24,0-.39-.13-.44-.4-.11-.5-.21-1.27-.29-2.31Z" style="fill:#fff;"/><path d="m375.48,51.55c2.39.75,4.4,1.61,6.04,2.59.17.09.25.2.25.32,0,.05-.01.11-.04.17-.24.59-.51,1.14-.82,1.65-.08.14-.16.21-.25.21-.07,0-.15-.03-.21-.09-1.78-1.14-3.44-1.96-4.99-2.44v4.2c0,.69.02,1.93.07,3.72v.06c0,.15-.12.23-.34.23-.28.02-.57.03-.84.03s-.57,0-.84-.03c-.24,0-.36-.1-.36-.29.05-1.22.07-2.47.07-3.74v-9.35c0-1.16-.06-2.09-.19-2.81,1.11.07,1.91.18,2.38.31.24.05.36.16.36.33,0,.1-.05.25-.16.44-.09.17-.13.76-.13,1.78v2.72Zm3.42-3.97l1-.7s.08-.05.12-.05c.04,0,.1.03.17.08.65.5,1.25,1.18,1.8,2.03.04.05.05.1.05.14,0,.06-.03.11-.1.17l-.81.58c-.06.04-.11.06-.15.06-.06,0-.11-.04-.17-.12-.59-.9-1.23-1.64-1.92-2.21Zm1.74-1.25l.96-.69s.08-.05.12-.05c.04,0,.1.03.16.08.74.56,1.34,1.21,1.81,1.96.04.06.06.12.06.16,0,.07-.04.13-.11.19l-.76.59c-.06.04-.11.06-.15.06-.07,0-.13-.04-.18-.12-.53-.85-1.17-1.57-1.9-2.18Z" style="fill:#fff;"/><path d="m427.13,50.19v13.92c0,1.75-1.45,3.21-3.21,3.21h-12.82c-1.75,0-3.21-1.45-3.21-3.21v-19.23c0-1.75,1.45-3.21,3.21-3.21h7.51c.8,0,1.65.35,2.25.95l5.31,5.31c.6.6.95,1.45.95,2.25Zm-1.6,1.1h-5.61c-1.3,0-2.4-1.1-2.4-2.4v-5.61h-6.41c-.9,0-1.6.7-1.6,1.6v19.23c0,.9.7,1.6,1.6,1.6h12.82c.9,0,1.6-.7,1.6-1.6v-12.82Zm-5.81-7.56c-.15-.15-.4-.25-.6-.35v5.51c0,.45.35.8.8.8h5.51c-.1-.2-.2-.45-.35-.6l-5.36-5.36Z" style="fill:#fff;"/></g></svg>