<?xml version="1.0" encoding="UTF-8"?><svg id="b" xmlns="http://www.w3.org/2000/svg" width="30.45" height="30.45" viewBox="0 0 30.45 30.45"><g id="c"><g><path d="m10.77,13.4l3.86,2.97.05.03h.02c.33.2.77.1,1.07-.22l.03-.02,4.73-5.59c.27-.3.27-.74.01-.97-.26-.23-.69-.18-.96.12l-4.42,4.72-3.41-2.37c-.32-.23-.8-.13-1.07.24-.27.37-.23.86.09,1.09Z" fill="#fff"/><path d="m5.97,15.23c0-.2,0-.41.03-.61h-2.42c-.01.2-.02.4-.02.61s0,.41.02.61h2.42c-.02-.2-.03-.4-.03-.61Z" fill="#fff"/><path d="m10.25,7.42c.23-.14.46-.28.7-.4l.09-.04-1.21-2.09c-.3.15-.6.32-.88.51l1.21,2.1.09-.06Z" fill="#fff"/><path d="m4.88,9.84l2.1,1.21.51-.88-2.1-1.21c-.19.29-.35.58-.51.88Z" fill="#fff"/><path d="m23.43,19.5c-.13.24-.26.47-.41.7l-.06.09,2.1,1.21c.19-.29.35-.57.51-.88l-2.09-1.21-.05.1Z" fill="#fff"/><path d="m7.02,19.49l-.05-.09-2.09,1.21c.15.3.32.6.51.88l2.1-1.21-.06-.09c-.14-.23-.28-.46-.4-.7Z" fill="#fff"/><path d="m10.25,23.03l-.09-.06-1.21,2.1c.29.19.58.36.88.51l1.21-2.1-.09-.04c-.24-.12-.47-.26-.7-.41Z" fill="#fff"/><path d="m19.4,6.97l.88.51,1.21-2.1c-.29-.19-.58-.35-.88-.51l-1.21,2.09Z" fill="#fff"/><path d="m14.62,24.45v2.42c.2.02.4.02.61.02s.41,0,.61-.02v-2.44h-1.22v.03h0Z" fill="#fff"/><path d="m15.84,6v-2.42c-.2-.02-.4-.02-.61-.02s-.41,0-.61.02v2.44h1.22v-.03Z" fill="#fff"/><path d="m19.4,23.48l1.21,2.09c.3-.16.59-.33.88-.51l-1.21-2.1-.88.52Z" fill="#fff"/><path d="m25.57,9.84c-.15-.3-.33-.6-.51-.88l-2.1,1.21.51.88,2.09-1.21Z" fill="#fff"/><path d="m26.87,14.62h-2.45v1.22h2.45c.02-.2.02-.4.02-.61,0-.2,0-.41-.02-.61Z" fill="#fff"/><path d="m15.23,0C6.82,0,0,6.82,0,15.23c0,8.41,6.82,15.23,15.23,15.23,8.41,0,15.23-6.82,15.23-15.23C30.45,6.82,23.64,0,15.23,0Zm0,28.49c-3.67,0-6.97-1.48-9.38-3.88-2.4-2.4-3.88-5.71-3.88-9.38,0-3.66,1.48-6.97,3.88-9.38,2.4-2.4,5.71-3.88,9.38-3.88,3.66,0,6.97,1.48,9.38,3.88,2.4,2.4,3.88,5.71,3.88,9.38,0,3.66-1.48,6.97-3.88,9.38-2.4,2.4-5.71,3.88-9.38,3.88Z" fill="#fff"/></g></g></svg>