<?xml version="1.0" encoding="UTF-8"?><svg id="b" xmlns="http://www.w3.org/2000/svg" width="23.82" height="33.58" viewBox="0 0 23.82 33.58"><g id="c"><path d="m23.82,23.06V5.89c0-3.26-2.64-5.89-5.89-5.89H5.89C2.64,0,0,2.64,0,5.89v17.17c0,2.47,1.8,4.52,4.15,4.93l-3.7,5.58h3.29l1.52-2.29h13.3l1.52,2.29h3.29l-3.7-5.58c2.35-.41,4.15-2.47,4.15-4.93ZM6.8,2.65h10.21v1.7H6.8v-1.7Zm-3.07,5.5c0-.74.6-1.34,1.34-1.34h13.67c.74,0,1.34.6,1.34,1.34v5.65c0,.74-.6,1.34-1.34,1.34H5.07c-.74,0-1.34-.6-1.34-1.34v-5.65h0Zm1.28,16.38c-.86,0-1.56-.7-1.56-1.56s.7-1.56,1.56-1.56,1.56.7,1.56,1.56-.7,1.56-1.56,1.56Zm1.23,5.27l1.14-1.73h9.05l1.14,1.73H6.24Zm12.56-5.27c-.86,0-1.56-.7-1.56-1.56s.7-1.56,1.56-1.56,1.56.7,1.56,1.56c0,.86-.7,1.56-1.56,1.56Z" fill="#fff"/></g></svg>