<?xml version="1.0" encoding="UTF-8"?><svg id="b" xmlns="http://www.w3.org/2000/svg" width="84.69" height="18.76" viewBox="0 0 84.69 18.76"><g id="c"><g><path d="m9.64,5.72c-.06.06-.14.1-.22.16l-1.39-1.42v.93h-2.75v.99h3.58v1.6H0v-1.6h3.48v-.99H.79v-1.5h2.69v-.93H.18v-1.62h3.3V.12h1.8v1.21h3.44v1.62h-3.44v.93h2.75v.55c2.43-1.72,3.42-3.82,3.7-4.43l1.86.42c-.16.42-.28.77-.67,1.42h4.53v1.78c-.79.91-.89,1.01-1.8,1.86h2.14v3.38h.77v1.8h-.77v4.49h-1.8v-.97h-1.98v3.17c0,.97-.59,1.37-1.39,1.37h-2.77l-.4-1.92h2.18c.36,0,.63-.14.63-.55v-2.06h-3.11v-1.78h3.11v-1.74h-3.4v-1.8h3.4v-1.58h-2.63v-1.56ZM.79,8.79h7.24v8.65c0,1.19-.69,1.29-1.44,1.29h-2.45l-.38-1.8h1.86c.36,0,.61-.12.61-.47v-1.11h-3.62v3.38H.79v-9.94Zm1.82,1.48v1.05h3.62v-1.05h-3.62Zm0,2.49v1.11h3.62v-1.11h-3.62Zm10.43-7.28c.22-.16,1.25-.95,2.02-1.86h-3.36c-.91,1.13-1.48,1.6-1.78,1.86h3.13Zm.97,1.8v1.58h2.02v-1.58h-2.02Zm0,3.38v1.74h2.02v-1.74h-2.02Z" fill="#fff"/><path d="m29.34,17.14c-1.68.42-6.02,1.03-7.56,1.17l-.3-2.02c.75-.06,1.6-.12,3.34-.3v-5.38h-3.17v-1.86h3.17v-1.68h-1.86v-1.29c-.49.47-.75.69-1.05.93l-.73-2.06c1.41-.91,2.95-2.79,3.52-4.51h2.24c.53,1.23,1.7,2.59,3.07,3.34l-1.17,1.7c-1.62-1.13-2.71-2.83-2.93-3.17-.38.65-1.01,1.74-2.35,3.17h5.03v1.88h-1.9v1.68h2.85v1.86h-2.85v5.15c1.5-.2,2.34-.4,2.85-.51l.06,1.44c3.11-1.68,3.86-4.39,4.27-6.21h-3.74v-1.98h4c.02-.2.04-.4.04-.71v-1.98h-1.9c-.51,1.5-.79,1.92-.97,2.18l-1.76-.91c.71-1.03,1.58-3.31,1.76-5.94l2,.28c-.06.46-.12,1.05-.46,2.41h1.33V.14h2.02v3.68h3.7v1.98h-3.7v2c0,.3-.02.44-.04.69h4.12v1.98h-3.92c.24.85,1.09,4,4.24,6.33l-1.25,1.94c-2.16-1.98-3.32-3.82-4.1-5.98-.85,2.51-2.53,4.67-4.83,6l-1.07-1.62Zm-5.84-5.42c.24,1.11.26,1.33.51,3.33l-1.6.24c-.06-1.35-.34-2.79-.48-3.38l1.56-.18Zm5.94-.08c-.06.83-.38,2.4-.61,3.19l-1.46-.26c.3-1.15.46-2.95.48-3.15l1.6.22Z" fill="#fff"/><path d="m45.19.75h15.87v1.64h-7.09v.79h7.86v4.25h-2.08v-2.81h-5.78v3.92h-1.88v-3.92h-5.72v2.81h-2.04V3.19h7.76v-.79h-6.91V.75Zm17.36,14.74c-.14,1.9-.4,3.05-1.72,3.05h-6.85c-1.01,0-1.92-.06-1.92-1.35v-1.72h-4.81v1.21h-1.94v-7.74h15.52v6.06l1.72.49Zm-15.3-2.71v1.17h4.81v-1.17h-4.81Zm.1-2.42v1.13h4.71v-1.13h-4.71Zm.04-4.95h3.88v1.01h-3.88v-1.01Zm0,1.76h3.88v1.05h-3.88v-1.05Zm6.63,3.19v1.13h4.83v-1.13h-4.83Zm0,2.42v1.17h4.83v-1.17h-4.83Zm0,2.69v.71c0,.44,0,.55.5.55h5.32c.55,0,.69-.06.77-1.27h-6.59Zm.91-10.05h3.96v1.01h-3.96v-1.01Zm0,1.76h3.96v1.05h-3.96v-1.05Z" fill="#fff"/><path d="m84.51,3.38h-8.06v1.17h6.75v8.02h-6.75v1.29h8.23v1.82h-8.23v3.03h-2.02v-3.03h-8.33v-1.82h8.33v-1.29h-6.67V4.55h6.67v-1.17h-8.05v-1.82h8.05V.14h2.02v1.42h8.06v1.82Zm-14.74,2.91v1.52h4.67v-1.52h-4.67Zm0,2.95v1.58h4.67v-1.58h-4.67Zm6.69-2.95v1.52h4.75v-1.52h-4.75Zm0,2.95v1.58h4.75v-1.58h-4.75Z" fill="#fff"/></g></g></svg>