<?xml version="1.0" encoding="UTF-8"?><svg id="b" xmlns="http://www.w3.org/2000/svg" width="37.32" height="32.68" viewBox="0 0 37.32 32.68"><g id="c"><g><path d="m24.08,28.1v-2.13h-2.07v-.95h2.07v-.85h-2.07v-.95h1.59l-2.18-3.78h2.18l.93,2.13c.23.53.39.99.56,1.45h.02c.18-.44.34-.94.57-1.46l.95-2.12h2.13l-2.28,3.78h1.59v.95h-2.1v.85h2.1v.95h-2.1v2.13h-1.9Z" fill="#fff"/><g><path d="m14.13,27.27c-.46,0-.83.37-.83.82s.37.83.83.83.83-.37.83-.83-.37-.82-.83-.82Z" fill="#fff"/><path d="m14.13,24.19c-.46,0-.83.37-.83.83s.37.82.83.82.83-.37.83-.82-.37-.83-.83-.83Z" fill="#fff"/><path d="m35.82,14.27H5.99v18.42h31.33V14.27h-1.5Zm0,16.92H14.96c0-.46-.37-.82-.83-.82s-.83.37-.83.82h-5.81v-15.42h5.81c0,.46.37.82.83.82s.83-.37.83-.82h20.87v15.42h0Z" fill="#fff"/><path d="m14.13,21.11c-.46,0-.83.37-.83.83s.37.82.83.82.83-.37.83-.82-.37-.83-.83-.83Z" fill="#fff"/><path d="m14.13,18.02c-.46,0-.83.37-.83.82s.37.83.83.83.83-.37.83-.83-.37-.82-.83-.82Z" fill="#fff"/><polygon points="8.59 11.98 26.93 2.03 32.75 12.77 34.46 12.77 28.25 1.32 27.53 0 26.21 .71 7.88 10.67 7.74 10.74 6.42 11.45 1.32 14.23 0 14.94 .72 16.26 4.5 23.22 4.5 20.08 2.03 15.54 4.5 14.21 8.59 11.98" fill="#fff"/></g></g></g></svg>