<?xml version="1.0" encoding="UTF-8"?><svg id="_レイヤー_2" xmlns="http://www.w3.org/2000/svg" width="122.1" height="100.07" viewBox="0 0 122.1 100.07"><g id="_レイヤー_1-2"><path d="m28.34,84.83c-.06.06-.14.1-.22.16l-1.39-1.42v.93h-2.75v.99h3.58v1.6h-8.87v-1.6h3.48v-.99h-2.69v-1.5h2.69v-.93h-3.3v-1.62h3.3v-1.21h1.8v1.21h3.44v1.62h-3.44v.93h2.75v.55c2.43-1.72,3.42-3.82,3.7-4.43l1.86.42c-.16.42-.28.77-.67,1.42h4.53v1.78c-.79.91-.89,1.01-1.8,1.86h2.14v3.38h.77v1.8h-.77v4.49h-1.8v-.97h-1.98v3.17c0,.97-.59,1.37-1.38,1.37h-2.77l-.4-1.92h2.18c.36,0,.63-.14.63-.55v-2.06h-3.11v-1.78h3.11v-1.74h-3.4v-1.8h3.4v-1.58h-2.63v-1.56Zm-8.85,3.07h7.24v8.65c0,1.19-.69,1.29-1.44,1.29h-2.45l-.38-1.8h1.86c.36,0,.61-.12.61-.48v-1.11h-3.62v3.38h-1.82v-9.94Zm1.82,1.48v1.05h3.62v-1.05h-3.62Zm0,2.49v1.11h3.62v-1.11h-3.62Zm10.43-7.28c.22-.16,1.25-.95,2.02-1.86h-3.36c-.91,1.13-1.48,1.6-1.78,1.86h3.13Zm.97,1.8v1.58h2.02v-1.58h-2.02Zm0,3.38v1.74h2.02v-1.74h-2.02Z" style="fill:#fff;"/><path d="m48.05,96.25c-1.68.42-6.02,1.03-7.56,1.17l-.3-2.02c.75-.06,1.6-.12,3.34-.3v-5.38h-3.17v-1.86h3.17v-1.68h-1.86v-1.29c-.5.48-.75.69-1.05.93l-.73-2.06c1.41-.91,2.95-2.79,3.52-4.51h2.24c.53,1.23,1.7,2.59,3.07,3.34l-1.17,1.7c-1.62-1.13-2.71-2.83-2.93-3.17-.38.65-1.01,1.74-2.35,3.17h5.03v1.88h-1.9v1.68h2.85v1.86h-2.85v5.15c1.5-.2,2.33-.4,2.85-.51l.06,1.44c3.11-1.68,3.86-4.39,4.27-6.21h-3.74v-1.98h4c.02-.2.04-.4.04-.71v-1.98h-1.9c-.51,1.5-.79,1.92-.97,2.18l-1.76-.91c.71-1.03,1.58-3.31,1.76-5.94l2,.28c-.06.46-.12,1.05-.46,2.41h1.33v-3.68h2.02v3.68h3.7v1.98h-3.7v2c0,.3-.02.44-.04.69h4.12v1.98h-3.92c.24.85,1.09,4,4.24,6.33l-1.25,1.94c-2.16-1.98-3.32-3.82-4.1-5.98-.85,2.51-2.53,4.67-4.83,6l-1.07-1.62Zm-5.84-5.42c.24,1.11.26,1.33.51,3.32l-1.6.24c-.06-1.35-.34-2.79-.47-3.38l1.56-.18Zm5.94-.08c-.06.83-.38,2.39-.61,3.19l-1.46-.26c.3-1.15.46-2.95.47-3.15l1.6.22Z" style="fill:#fff;"/><path d="m63.9,79.87h15.87v1.64h-7.09v.79h7.86v4.25h-2.08v-2.81h-5.78v3.92h-1.88v-3.92h-5.72v2.81h-2.04v-4.25h7.76v-.79h-6.91v-1.64Zm17.36,14.74c-.14,1.9-.4,3.05-1.72,3.05h-6.85c-1.01,0-1.92-.06-1.92-1.35v-1.72h-4.81v1.21h-1.94v-7.74h15.52v6.06l1.72.49Zm-15.3-2.71v1.17h4.81v-1.17h-4.81Zm.1-2.41v1.13h4.71v-1.13h-4.71Zm.04-4.95h3.88v1.01h-3.88v-1.01Zm0,1.76h3.88v1.05h-3.88v-1.05Zm6.63,3.19v1.13h4.83v-1.13h-4.83Zm0,2.41v1.17h4.83v-1.17h-4.83Zm0,2.69v.71c0,.44,0,.55.5.55h5.32c.55,0,.69-.06.77-1.27h-6.59Zm.91-10.05h3.96v1.01h-3.96v-1.01Zm0,1.76h3.96v1.05h-3.96v-1.05Z" style="fill:#fff;"/><path d="m103.22,82.5h-8.06v1.17h6.75v8.01h-6.75v1.29h8.23v1.82h-8.23v3.03h-2.02v-3.03h-8.33v-1.82h8.33v-1.29h-6.67v-8.01h6.67v-1.17h-8.05v-1.82h8.05v-1.42h2.02v1.42h8.06v1.82Zm-14.74,2.91v1.52h4.67v-1.52h-4.67Zm0,2.95v1.58h4.67v-1.58h-4.67Zm6.69-2.95v1.52h4.75v-1.52h-4.75Zm0,2.95v1.58h4.75v-1.58h-4.75Z" style="fill:#fff;"/><path d="m25.19,24.48c0-.15-.11-.28-.26-.29-14.9-.2-19.62-7.12-.61-10.01.16-.03.28-.17.28-.33V.28c0-.15-.15-.25-.3-.22-34.02,6.42-30.94,26.61.61,26.61.15,0,.27-.13.27-.28v-1.91Z" style="fill:#fff;"/><path d="m23.38,20.4c0,.15.11.28.26.29,14.9.2,19.62,7.12.61,10.01-.16.02-.28.16-.28.33v13.57c0,.15.15.25.3.22,34.02-6.41,30.94-26.61-.61-26.61-.15,0-.27.13-.27.28v1.91Z" style="fill:#fff;"/><path d="m2.1,58.9c0,.07-.06.13-.13.13h-.76c-.07,0-.13-.06-.13-.13v-3c-.08.09-.17.18-.26.27-.05.05-.12.04-.16-.02l-.41-.68c-.04-.07-.01-.16.04-.22.52-.53.97-1.18,1.25-1.83.03-.07.1-.11.18-.09l.77.21c.07.02.1.09.07.16-.13.29-.28.57-.46.86v4.34Zm.25-7.12c.07.02.09.1.05.16-.33.59-.84,1.24-1.37,1.77-.06.05-.14.07-.2.01l-.5-.5s-.05-.13,0-.18c.44-.41.86-.94,1.13-1.42.03-.06.11-.08.17-.06l.71.21Zm1.12,5.71v-.86h-.75c-.07,0-.13-.06-.13-.13v-.62c0-.07.06-.13.13-.13h.75v-.56c0-.07.06-.13.13-.13h.71c.07,0,.13.06.13.13v.56h.74c.07,0,.13.06.13.13v.62c0,.07-.06.13-.13.13h-.74v.72c.36-.06.71-.11,1-.16.06-.01.13.03.14.1,0,.09.02.27.03.59,0,.09-.07.16-.16.18-.83.17-1.97.37-2.71.49-.08.01-.16-.03-.18-.1l-.18-.71c-.02-.06.02-.13.08-.14.28-.03.63-.08,1-.12Zm0-3.45v-.71h-.67c-.07,0-.13-.06-.13-.13v-.62c0-.07.06-.13.13-.13h.67v-.78c0-.07.06-.13.13-.13h.71c.07,0,.13.06.13.13v.78h.65c.07,0,.13.06.13.13v.62c0,.07-.06.13-.13.13h-.65v.71h.67c.07,0,.13.06.13.13v.61c0,.07-.06.13-.13.13h-2.5c-.07,0-.13-.06-.13-.13v-.61c0-.07.06-.13.13-.13h.86Zm3.72,4.11c0,.5-.14.78-.57.85-.18.03-.53.03-.83.02-.07,0-.14-.06-.15-.13l-.14-.7c-.01-.07.06-.12.13-.12.16,0,.32,0,.39,0,.1,0,.13-.06.13-.15v-3.17h-.53c-.07,0-.13-.06-.13-.13v-.7c0-.07.06-.13.13-.13h2.01c.07,0,.13.06.13.13v.7c0,.07-.06.13-.13.13h-.43v3.38Zm.28-6.2c.07,0,.13.06.13.13v.7c0,.07-.06.13-.13.13h-1.83c-.07,0-.13-.06-.13-.13v-.7c0-.07.06-.13.13-.13h1.83Z" style="fill:#fff;"/><path d="m9.48,55.61c0-1.23.16-2.5.41-3.57.02-.1.08-.21.18-.19l.88.16c.09.02.09.13.07.22-.28,1.02-.43,2.2-.43,3.38,0,1.03.11,1.92.39,2.7.03.07.01.17-.06.19l-.88.26c-.08.02-.15-.05-.18-.13-.26-.85-.38-1.87-.38-3h0Zm6.2,2.53c0,.09-.1.14-.2.14-.47.04-.96.06-1.37.06-1.45,0-2.55-.29-2.55-1.14,0-.29.08-.63.26-1.07.04-.09.11-.19.21-.17l.73.13c.07.01.1.08.07.14-.12.27-.18.45-.18.61,0,.38.46.5,1.44.5.43,0,.92-.05,1.39-.13.09-.01.2,0,.2.09v.83Zm-1.29-5.25c.34,0,.69,0,.99.01.07,0,.12.06.12.13v.77c-.01.08-.09.12-.17.12-.37-.02-.8-.04-1.23-.04-.73,0-1.56.04-2.24.11-.07,0-.14-.04-.14-.12l-.05-.76c0-.08.07-.14.14-.14.77-.06,1.72-.08,2.58-.08h0Z" style="fill:#fff;"/><path d="m18.85,52.83c.07,0,.12.06.11.13-.07.57-.11,1.1-.11,1.58,0,1.68.45,2.66.88,2.66.22,0,.44-.41.58-1.04.01-.07.08-.1.14-.08l.69.31c.07.03.11.11.09.18-.31,1.28-.81,1.87-1.45,1.87-.95,0-2.04-1.22-2.04-3.89,0-.52.02-1.08.07-1.7,0-.07.07-.12.14-.11l.9.08Zm3.84-.22c.07-.05.16-.01.22.05,1.09,1.21,1.45,2.44,1.54,4.15,0,.08-.04.17-.12.18l-.95.08c-.08,0-.13-.08-.13-.16-.03-1.69-.35-2.65-1.3-3.67-.05-.05-.04-.13.01-.17l.73-.47Z" style="fill:#fff;"/><path d="m30.7,52.06c.1-.01.22,0,.28.08l.37.6c.04.07,0,.16-.06.21-.64.52-1.46,1.24-1.99,1.71.34-.09.63-.12.91-.12,1.22,0,1.95.82,1.95,1.91,0,1.46-1.02,2.31-3.5,2.31-.16,0-.35,0-.55,0-.1,0-.2-.04-.22-.13l-.17-.83c-.01-.06.03-.12.09-.12.27.02.55.03.76.03,2.03,0,2.45-.46,2.45-1.25,0-.58-.43-.98-1.14-.98-.31,0-.72.06-1.1.19-.54.18-1.36.66-2.13,1.3-.07.06-.18.1-.24.03l-.52-.61c-.05-.05-.03-.13.02-.18,1.12-.83,2.73-2.21,3.5-3.04-.65.05-1.67.11-2.53.17-.08,0-.17-.03-.18-.12l-.07-.81c0-.1.11-.13.2-.13,1.12-.01,2.83-.11,3.85-.23Z" style="fill:#fff;"/><path d="m39.52,54.43c.03.09-.07.15-.16.18-2.08.58-3.97,1.32-3.97,2.23,0,.54.55.84,2.19.84.69,0,1.46-.06,2.14-.16.07-.01.14.03.15.11l.08.85c0,.08-.06.14-.14.15-.74.09-1.46.12-2.23.12-2.2,0-3.32-.58-3.32-1.85,0-.86.67-1.54,1.72-2.12-.4-.73-.47-1.6-.47-2.85,0-.07.06-.12.13-.12h.89c.1,0,.13.12.13.21,0,1.04.05,1.77.3,2.3.62-.26,1.32-.51,2.07-.75.08-.02.17,0,.2.07l.31.81Zm-.76-2.46c.07-.05.16-.02.22.04.23.23.39.44.58.72.04.07.04.16-.02.2l-.34.24c-.07.05-.15,0-.19-.07-.18-.28-.35-.49-.57-.73-.05-.05-.05-.14,0-.18l.31-.23Zm1.17-.3c.07-.05.16-.02.22.04.23.23.39.44.58.73.04.07.04.16-.02.2l-.34.24c-.07.05-.15,0-.19-.07-.18-.28-.34-.5-.58-.73-.05-.05-.06-.13,0-.18l.32-.23Z" style="fill:#fff;"/><path d="m42.13,54.36c0-.76.11-1.54.29-2.22.02-.07.09-.12.16-.11l.85.17c.07.01.1.09.08.16-.23.67-.35,1.37-.35,1.91,0,.26.02.48.06.63.11-.18.3-.51.45-.74.03-.05.11-.05.16,0l.49.43c.08.07.03.18-.02.26-.25.4-.58,1-.76,1.43-.04.09-.1.18-.19.19l-.69.11c-.07.01-.15-.03-.18-.09-.24-.59-.36-1.35-.36-2.12h0Zm4.85-2.44c.09-.02.15.08.16.17.17.92.24,1.68.24,2.67,0,1.84-.48,3.25-2.96,4.06-.07.02-.15,0-.18-.07l-.49-.83c-.05-.08.05-.14.14-.17,2.07-.58,2.36-1.46,2.36-2.98,0-.86-.07-1.67-.28-2.51-.02-.08,0-.18.08-.19l.93-.15Z" style="fill:#fff;"/><path d="m55.65,54.9c.03.07,0,.14-.07.17-.61.26-1.24.51-1.91.82.04.34.06.74.06,1.2,0,.09-.04.2-.13.2h-.66c-.09,0-.13-.11-.13-.2,0-.27,0-.7-.01-.81-.62.31-1.15.71-1.15,1.04,0,.35.51.52,1.56.52.54,0,1.37-.05,1.93-.17.06-.01.11.04.12.1l.07.75c0,.07-.03.14-.1.15-.58.1-1.42.12-2.01.12-1.66,0-2.65-.48-2.65-1.42,0-.8.99-1.39,2.05-1.92-.07-.23-.24-.42-.51-.43-.49-.01-.85.21-1.38.73-.16.16-.49.52-.75.84-.05.06-.14.11-.2.05l-.56-.51c-.07-.06-.02-.16.04-.23.66-.7,1.17-1.43,1.59-2.3h-1.43c-.07,0-.13-.06-.13-.13v-.6c0-.07.06-.13.13-.13h1.69c.11-.3.21-.6.28-.87.02-.07.09-.11.15-.09l.79.17c.09.02.1.14.07.22-.06.2-.12.39-.19.57h2.23c.07,0,.13.06.13.13v.6c0,.07-.06.13-.13.13h-2.58c-.15.36-.33.7-.48.9.32-.16.7-.26,1.02-.26.51,0,.89.31,1.1.81.62-.28,1.19-.56,1.65-.77.09-.04.2-.06.24.03l.25.61Z" style="fill:#fff;"/><path d="m58.91,57.94c0,.59-.48,1.08-1.09,1.08s-1.09-.5-1.09-1.09.49-1.09,1.09-1.09,1.09.48,1.09,1.09h0Zm-1.72,0c0,.34.28.62.63.62s.64-.28.64-.63-.29-.64-.64-.64-.63.29-.63.64h0Z" style="fill:#fff;"/><path d="m67.92,52.98c.39,2.5,1.46,4.12,3.2,4.99.07.04.14.12.08.18l-.72.78c-.05.06-.14.06-.21.02-1.29-.76-2.23-1.93-2.85-3.5-.44,1.35-1.24,2.63-2.68,3.49-.07.04-.17.05-.23,0l-.67-.64c-.05-.05-.02-.13.04-.16,2.73-1.48,2.96-4.4,3.01-6.39,0-.09.04-.19.13-.19l.86.02c.08,0,.12.08.12.16-.02.38-.04.81-.08,1.24Z" style="fill:#fff;"/><path d="m72.69,55.61c0-1.23.16-2.5.41-3.57.02-.1.08-.21.18-.19l.88.16c.09.02.09.13.07.22-.28,1.02-.43,2.2-.43,3.38,0,1.03.1,1.92.39,2.7.03.07.01.17-.06.19l-.88.26c-.08.02-.15-.05-.18-.13-.26-.85-.38-1.87-.38-3h0Zm6.2,2.53c0,.09-.1.14-.2.14-.47.04-.97.06-1.37.06-1.45,0-2.55-.29-2.55-1.14,0-.29.08-.63.26-1.07.04-.09.11-.19.21-.17l.73.13c.07.01.1.08.07.14-.12.27-.18.45-.18.62,0,.38.47.5,1.44.5.43,0,.92-.05,1.39-.13.09-.01.2,0,.2.09v.83Zm-1.29-5.25c.34,0,.69,0,.99.01.07,0,.12.06.12.13v.77c-.01.08-.09.12-.17.12-.37-.02-.8-.04-1.24-.04-.73,0-1.55.04-2.24.11-.07,0-.14-.04-.14-.12l-.05-.76c0-.08.06-.14.14-.14.77-.06,1.72-.08,2.58-.08h0Z" style="fill:#fff;"/><path d="m85.9,54.43c.03.09-.07.15-.16.18-2.08.59-3.97,1.32-3.97,2.23,0,.54.55.84,2.19.84.69,0,1.46-.06,2.14-.16.07-.01.14.03.15.11l.08.85c0,.08-.06.14-.14.15-.75.09-1.46.12-2.24.12-2.2,0-3.32-.58-3.32-1.85,0-.86.66-1.54,1.72-2.12-.4-.73-.47-1.6-.47-2.85,0-.07.06-.12.13-.12h.89c.1,0,.13.12.13.21,0,1.04.05,1.77.3,2.3.62-.26,1.32-.51,2.07-.75.08-.02.17,0,.19.07l.31.81Z" style="fill:#fff;"/><path d="m88.26,54.43c0-.09.1-.13.18-.13.94,0,1.7-.04,2.74-.11-.06-.17-.16-.46-.21-.64-.88.06-1.77.11-2.58.12-.08,0-.16-.05-.17-.13l-.02-.63c0-.08.07-.13.15-.13.76,0,1.57-.03,2.38-.08-.05-.2-.1-.41-.14-.61-.02-.09,0-.21.09-.22l.92-.1c.1-.01.14.1.15.2.03.21.06.42.1.64.66-.06,1.28-.13,1.82-.22.06-.01.12.04.12.11l.08.64c.01.1-.1.14-.19.16-.5.06-1.05.12-1.64.18.05.18.13.46.19.64.68-.06,1.11-.08,1.65-.16.06,0,.12.05.13.11l.07.65c.01.09-.08.14-.17.15-.41.05-.74.05-1.28.1.22.43.5.81.82,1.14.07.07.13.17.08.25l-.37.59c-.05.08-.15.07-.24.03-.85-.37-1.77-.56-2.58-.56-.71,0-1.02.31-1.02.67,0,.41.6.72,1.94.72.38,0,.91-.02,1.46-.07.06,0,.11.05.1.12l-.05.77c0,.09-.09.14-.17.14-.38.03-.79.04-1.1.04-2.28,0-3.26-.69-3.26-1.73,0-.91.67-1.55,1.97-1.55.54,0,1.22.08,1.75.24-.14-.21-.26-.45-.39-.72-1.16.08-2.07.14-3.06.16-.09,0-.2-.03-.21-.12l-.04-.65Z" style="fill:#fff;"/><path d="m98.03,52.19c.08,0,.13.07.13.15,0,.36.03.73.06,1.08.38-.14.79-.24,1.24-.29.03-.33.04-.69.04-1.07,0-.08.05-.16.13-.16l.82.03c.08,0,.13.08.13.16,0,.37-.02.71-.05,1.04,1.47.2,2.24,1.34,2.24,2.66s-.57,2.42-2.45,2.89c-.09.02-.2.01-.24-.07l-.36-.73c-.03-.06.02-.13.1-.15,1.53-.34,1.87-1.08,1.87-1.91s-.49-1.51-1.27-1.7c-.21,1.31-.58,2.23-1.02,2.88.04.06.09.12.14.17.06.07.12.18.05.25l-.6.58c-.06.06-.16.01-.21-.06-.04-.05-.08-.1-.11-.15-.51.39-1.03.53-1.45.53-.78,0-1.25-.57-1.25-1.54,0-1.2.47-2.19,1.32-2.85-.07-.53-.12-1.06-.14-1.62,0-.07.06-.11.12-.12l.77-.03Zm-.54,2.88c-.35.42-.55.95-.55,1.58,0,.35.16.57.38.57.2,0,.5-.06.81-.31-.26-.55-.47-1.17-.64-1.84Zm1.34.93c.22-.45.42-1.06.54-1.88-.37.06-.7.15-1,.3.11.57.26,1.1.46,1.58Z" style="fill:#fff;"/><path d="m122.1,57.94c0,.59-.48,1.08-1.09,1.08s-1.09-.5-1.09-1.09.49-1.09,1.09-1.09,1.09.48,1.09,1.09h0Zm-1.72,0c0,.34.28.63.63.63s.64-.28.64-.63-.29-.64-.64-.64-.63.29-.63.64h0Z" style="fill:#fff;"/><path d="m104.86,54.43c0-.09.09-.13.18-.13.94,0,1.7-.04,2.74-.11-.06-.17-.15-.46-.21-.64-.88.06-1.77.11-2.58.12-.08,0-.16-.05-.17-.13l-.02-.63c0-.08.07-.13.15-.13.76,0,1.58-.03,2.38-.08-.05-.2-.1-.41-.14-.61-.02-.09,0-.21.09-.22l.91-.1c.1-.01.14.1.15.2.03.21.06.42.1.64.66-.06,1.28-.13,1.82-.22.06-.01.12.04.12.11l.08.64c.01.1-.1.14-.19.16-.49.06-1.05.12-1.64.18.05.18.13.46.19.64.68-.06,1.11-.08,1.65-.16.06,0,.12.05.13.11l.07.65c0,.09-.08.14-.17.15-.41.05-.73.05-1.28.1.22.43.5.81.82,1.14.07.07.13.17.08.25l-.37.59c-.05.08-.15.07-.24.03-.85-.37-1.77-.56-2.58-.56-.7,0-1.02.31-1.02.67,0,.41.6.72,1.94.72.38,0,.91-.02,1.46-.07.06,0,.11.06.1.12l-.05.77c0,.09-.09.14-.17.14-.39.03-.79.04-1.1.04-2.28,0-3.26-.69-3.26-1.73,0-.91.67-1.55,1.97-1.55.55,0,1.22.08,1.75.24-.14-.21-.26-.45-.39-.72-1.16.08-2.07.14-3.06.16-.09,0-.2-.03-.21-.12l-.04-.65Z" style="fill:#fff;"/><path d="m118.84,54.9c.03.07,0,.14-.07.17-.61.26-1.24.51-1.91.82.04.34.06.74.06,1.19,0,.09-.04.2-.13.2h-.66c-.09,0-.13-.11-.13-.2,0-.27,0-.7-.01-.81-.62.31-1.15.71-1.15,1.04,0,.35.51.52,1.56.52.54,0,1.37-.05,1.93-.17.06-.01.11.04.12.1l.07.75c0,.07-.03.14-.1.15-.58.1-1.42.13-2.01.13-1.66,0-2.65-.48-2.65-1.43,0-.8.99-1.39,2.05-1.92-.07-.23-.24-.42-.51-.43-.49-.01-.85.21-1.38.73-.16.16-.49.52-.75.84-.05.06-.14.1-.2.05l-.56-.51c-.07-.06-.02-.16.04-.23.66-.7,1.17-1.43,1.59-2.3h-1.43c-.07,0-.13-.06-.13-.13v-.6c0-.07.06-.13.13-.13h1.69c.11-.3.21-.6.28-.87.02-.07.09-.11.15-.09l.79.17c.09.02.1.14.07.22-.06.2-.12.39-.19.57h2.23c.07,0,.13.06.13.13v.6c0,.07-.06.13-.13.13h-2.58c-.15.36-.33.7-.48.9.32-.16.69-.26,1.02-.26.51,0,.89.31,1.1.81.62-.28,1.19-.56,1.65-.77.09-.04.2-.06.24.03l.25.61Z" style="fill:#fff;"/><path d="m88.03,4.45h2.25c.12,0,.23.1.23.23v14.18c0,.12-.1.23-.23.23h-2.25c-.12,0-.22-.1-.22-.22V4.68c0-.12.1-.22.22-.22Z" style="fill:#fff;"/><path d="m89.16,0c-.89,0-1.6.67-1.6,1.49s.72,1.49,1.6,1.49,1.6-.67,1.6-1.49S90.04,0,89.16,0Z" style="fill:#fff;"/><path d="m77.67,4.32c-.97,0-1.83.2-2.57.58V.46c0-.12-.1-.22-.22-.22h-2.34c-.12,0-.23.1-.23.22v18.42c0,.12.1.22.23.22h2.34c.12,0,.22-.1.22-.22v-8.53c0-2.15.87-3.24,2.57-3.24s2.57,1.09,2.57,3.24v8.53c0,.12.1.22.22.22h2.34c.12,0,.22-.1.22-.22v-8.53c0-3.72-2.05-6.03-5.36-6.03Z" style="fill:#fff;"/><path d="m62.93,7.97c-1.5-.54-2.7-1-3.42-1.66-.55-.5-.73-.99-.61-1.67.24-1.33,1.96-1.9,3.44-1.85,1.49.04,2.52.67,3.23,1.98.06.11.19.15.3.1l2.1-1.03c.12-.06.15-.2.09-.32C66.89,1.29,64.94.08,62.42,0c-3.28-.09-5.81,1.57-6.27,4.15-.2,1.13-.11,2.78,1.48,4.23,1.1,1,2.56,1.57,4.35,2.22,1.73.62,2.66,1.03,3.23,1.67.6.66.75,1.35.49,2.24-.55,1.87-2.67,2.04-3.88,1.98-1.39-.07-3.21-.59-4.14-2.63-.05-.11-.18-.16-.3-.12l-2.17.88c-.11.05-.18.17-.13.28,1.15,2.63,3.54,4.22,6.58,4.38.18,0,.36.01.53.01,3.14,0,5.43-1.47,6.17-4,.53-1.82.15-3.51-1.09-4.89-1.06-1.17-2.53-1.77-4.35-2.42Z" style="fill:#fff;"/><path d="m118.04,13.25c0,2.18-.94,3.24-2.86,3.24s-2.86-1.06-2.86-3.24V4.69c0-.12-.1-.22-.22-.22h-2.34c-.12,0-.23.1-.23.22v8.56c0,3.72,2.16,6.03,5.65,6.03s5.65-2.31,5.65-6.03V4.69c0-.12-.1-.22-.22-.22h-2.34c-.12,0-.22.1-.22.22v8.56Z" style="fill:#fff;"/><path d="m101.08,34.73c-1.42-.38-2.01-.63-2.54-1.08-.19-.16-.48-.52-.37-1.14.23-1.21,1.92-1.2,2.43-1.17,1.18.08,1.98.52,2.5,1.39.06.1.19.13.3.08l1.9-1c.1-.05.16-.17.11-.27-.95-1.69-2.55-2.65-4.64-2.78-2.71-.17-4.73,1.11-5.15,3.26-.26,1.37.19,2.72,1.23,3.6.95.81,1.99,1.2,3.56,1.61,1.29.34,2,.67,2.45,1.14.41.42.5.88.32,1.52-.35,1.26-2.17,1.3-2.94,1.25-1.46-.09-2.46-.68-3.04-1.82-.06-.12-.19-.2-.32-.15l-1.97.86c-.11.05-.17.18-.11.29.98,2.05,2.85,3.26,5.28,3.4.18,0,.36.02.54.02,2.62,0,4.49-1.16,5.05-3.16.42-1.51.08-2.93-.95-4.01-.81-.84-1.87-1.38-3.66-1.85Z" style="fill:#fff;"/><path d="m120.83,37.69v-8.58c0-.12-.1-.22-.22-.22h-2.34c-.12,0-.22.1-.22.22v8.57s0,0,0,0h0c0,2.18-.93,3.24-2.86,3.24s-2.86-1.06-2.86-3.24v-8.58c0-.12-.1-.22-.22-.22h-2.34c-.12,0-.22.1-.22.22v8.58c0,3.72,2.16,6.03,5.65,6.03s5.63-2.29,5.64-5.99c0-.02.02-.04,0-.04h0Z" style="fill:#fff;"/><path d="m80.93,36.25c0-4.34-2.91-7.49-6.93-7.49s-6.93,3.15-6.93,7.49,2.99,7.49,7.1,7.49c2.42,0,4.62-1.16,5.91-3.1.07-.1.04-.24-.07-.31l-1.77-1.09c-.1-.06-.24-.03-.31.07-.84,1.22-2.19,1.91-3.76,1.91-2.44,0-4.2-1.67-4.52-4.15h11.01c.12,0,.23-.08.24-.2.01-.2.02-.41.02-.62Zm-6.93-4.96c1.87,0,3.78,1.09,4.27,3.5h-8.51c.5-2.12,2.1-3.5,4.24-3.5Z" style="fill:#fff;"/><path d="m61.55,40.57c-.16-.14-.47-.4-.47-1.95v-7.26h2.22c.12,0,.22-.1.22-.22v-2.02c0-.12-.1-.22-.22-.22h-2.22v-3.99c0-.13-.1-.23-.22-.23h-2.34c-.12,0-.22.1-.22.23v3.99h-1.71c-.12,0-.22.1-.22.22v2.02c0,.12.1.22.22.22h1.71v7.26c0,2.02.42,3.21,1.46,4.08.62.52,1.55,1.04,2.81,1.04.52,0,1.09-.09,1.72-.3.12-.04.16-.17.12-.28l-.8-2.2c-.04-.11-.16-.18-.27-.14-.95.29-1.45.03-1.77-.25Z" style="fill:#fff;"/><path d="m88.95,40.57c-.17-.14-.47-.4-.47-1.95v-7.26h2.22c.12,0,.22-.1.22-.22v-2.02c0-.12-.1-.22-.22-.22h-2.22v-3.99c0-.13-.1-.23-.22-.23h-2.34c-.13,0-.23.1-.23.23v3.99h-1.71c-.12,0-.23.1-.23.22v2.02c0,.12.1.22.23.22h1.71v7.26c0,2.02.42,3.21,1.46,4.08.62.52,1.55,1.04,2.81,1.04.52,0,1.09-.09,1.72-.3.11-.04.16-.17.12-.28l-.8-2.2c-.04-.11-.16-.18-.27-.14-.95.29-1.45.03-1.77-.25Z" style="fill:#fff;"/><path d="m95.55,4.46c-.12,0-.23.1-.23.22v2.02c0,.12.1.22.23.22h6.59l-6.93,8.98c-.09.12-.14.26-.14.4v2.55c0,.13.1.23.22.23h9.89c.12,0,.22-.1.22-.22v-2.03c0-.12-.1-.22-.22-.22h-7.39l7.34-9.51c.09-.12.14-.26.14-.4v-2.01c0-.12-.1-.22-.22-.22h-9.5Z" style="fill:#fff;"/></g></svg>