<?xml version="1.0" encoding="UTF-8"?><svg id="_レイヤー_2" xmlns="http://www.w3.org/2000/svg" width="129.71" height="81.28" viewBox="0 0 129.71 81.28"><g id="_レイヤー_1-2"><path d="M.74,72.12l1.47-.13c.07.59.23,1.08.49,1.46s.65.69,1.19.92c.54.23,1.14.35,1.81.35.6,0,1.12-.09,1.58-.27s.8-.42,1.02-.73.33-.65.33-1.01-.11-.69-.32-.97-.57-.51-1.06-.7c-.32-.12-1.02-.32-2.1-.58s-1.85-.51-2.28-.74c-.56-.3-.99-.66-1.26-1.1-.28-.44-.42-.93-.42-1.47,0-.6.17-1.15.51-1.67.34-.52.83-.91,1.48-1.18.65-.27,1.37-.4,2.17-.4.88,0,1.65.14,2.32.42s1.18.7,1.54,1.25c.36.55.55,1.17.58,1.86l-1.5.11c-.08-.75-.35-1.31-.82-1.69s-1.15-.57-2.06-.57-1.63.17-2.07.52c-.43.35-.65.76-.65,1.25,0,.42.15.77.46,1.05.3.27,1.09.55,2.36.84s2.14.54,2.62.75c.69.32,1.2.72,1.53,1.21.33.49.49,1.05.49,1.68s-.18,1.22-.54,1.78c-.36.56-.88.99-1.55,1.3-.67.31-1.43.46-2.28.46-1.07,0-1.97-.16-2.69-.47s-1.29-.78-1.7-1.41c-.41-.63-.63-1.33-.65-2.12Z" style="fill:#fff;"/><path d="M12.01,75.92v-11.82h1.45v4.24c.68-.78,1.53-1.18,2.56-1.18.63,0,1.19.12,1.65.38.47.25.8.6,1,1.04.2.44.3,1.08.3,1.92v5.43h-1.45v-5.43c0-.73-.16-1.25-.47-1.58s-.76-.5-1.34-.5c-.43,0-.83.11-1.21.33s-.65.53-.81.91c-.16.38-.24.91-.24,1.58v4.68h-1.45Z" style="fill:#fff;"/><path d="M21.04,65.77v-1.67h1.45v1.67h-1.45ZM21.04,75.92v-8.56h1.45v8.56h-1.45Z" style="fill:#fff;"/><path d="M23.77,75.92v-1.18l5.45-6.26c-.62.03-1.16.05-1.64.05h-3.49v-1.18h7v.96l-4.64,5.43-.89.99c.65-.05,1.26-.07,1.83-.07h3.96v1.25h-7.58Z" style="fill:#fff;"/><path d="M38.15,75.92v-1.26c-.67.97-1.57,1.45-2.72,1.45-.5,0-.98-.1-1.41-.29s-.76-.44-.97-.73c-.21-.29-.36-.65-.45-1.08-.06-.28-.09-.74-.09-1.35v-5.3h1.45v4.75c0,.76.03,1.27.09,1.53.09.38.29.68.58.9.29.22.66.33,1.1.33s.84-.11,1.22-.33c.38-.22.65-.53.81-.91s.24-.94.24-1.67v-4.59h1.45v8.56h-1.3Z" style="fill:#fff;"/><path d="M41.08,71.64c0-1.59.44-2.76,1.32-3.52.74-.63,1.63-.95,2.69-.95,1.18,0,2.14.39,2.88,1.16.75.77,1.12,1.84,1.12,3.2,0,1.1-.16,1.97-.5,2.6-.33.63-.81,1.12-1.44,1.47-.63.35-1.32.52-2.07.52-1.2,0-2.17-.38-2.91-1.15-.74-.77-1.11-1.88-1.11-3.32ZM42.57,71.64c0,1.1.24,1.92.72,2.46.48.55,1.08.82,1.81.82s1.32-.27,1.8-.82c.48-.55.72-1.38.72-2.51,0-1.06-.24-1.86-.72-2.41-.48-.55-1.08-.82-1.79-.82s-1.33.27-1.81.81-.72,1.36-.72,2.46Z" style="fill:#fff;"/><path d="M50.72,75.92v-11.82h1.45v6.74l3.44-3.48h1.88l-3.27,3.18,3.6,5.39h-1.79l-2.83-4.38-1.02.98v3.39h-1.45Z" style="fill:#fff;"/><path d="M64.39,74.87c-.54.46-1.05.78-1.55.97-.5.19-1.03.28-1.6.28-.94,0-1.66-.23-2.17-.69-.51-.46-.76-1.05-.76-1.76,0-.42.1-.8.29-1.15.19-.35.44-.62.75-.83s.66-.37,1.04-.48c.29-.08.71-.15,1.29-.22,1.17-.14,2.04-.31,2.59-.5,0-.2,0-.33,0-.38,0-.59-.14-1.01-.41-1.25-.37-.33-.92-.49-1.65-.49-.68,0-1.19.12-1.51.36-.33.24-.57.66-.72,1.27l-1.42-.19c.13-.61.34-1.1.64-1.47.29-.37.72-.66,1.28-.86.56-.2,1.21-.3,1.94-.3s1.32.09,1.78.26c.46.17.79.39,1.01.65s.37.59.45.99c.05.25.07.69.07,1.34v1.94c0,1.35.03,2.2.09,2.56s.18.7.37,1.03h-1.52c-.15-.3-.25-.65-.29-1.06ZM64.27,71.62c-.53.22-1.32.4-2.37.55-.6.09-1.02.18-1.27.29-.25.11-.44.27-.57.47-.13.21-.2.44-.2.69,0,.39.15.71.44.97.29.26.72.39,1.29.39s1.05-.12,1.49-.37.76-.58.96-1c.15-.33.23-.81.23-1.45v-.53Z" style="fill:#fff;"/><path d="M72.79,75.92v-11.82h5.24c1.05,0,1.85.11,2.4.32.55.21.99.59,1.31,1.12.33.54.49,1.13.49,1.78,0,.84-.27,1.54-.81,2.12s-1.38.94-2.52,1.1c.41.2.73.4.94.59.46.42.89.94,1.3,1.57l2.06,3.22h-1.97l-1.56-2.46c-.46-.71-.83-1.25-1.13-1.63-.3-.38-.56-.64-.79-.79-.23-.15-.47-.25-.71-.31-.18-.04-.47-.06-.87-.06h-1.81v5.25h-1.56ZM74.35,69.32h3.36c.71,0,1.27-.07,1.68-.22.4-.15.71-.38.92-.71.21-.33.31-.68.31-1.06,0-.56-.2-1.02-.61-1.38-.41-.36-1.05-.54-1.92-.54h-3.74v3.91Z" style="fill:#fff;"/><path d="M89.95,74.87c-.54.46-1.05.78-1.55.97-.5.19-1.03.28-1.6.28-.94,0-1.66-.23-2.17-.69-.51-.46-.76-1.05-.76-1.76,0-.42.1-.8.29-1.15.19-.35.44-.62.75-.83s.66-.37,1.04-.48c.29-.08.71-.15,1.29-.22,1.17-.14,2.04-.31,2.59-.5,0-.2,0-.33,0-.38,0-.59-.14-1.01-.41-1.25-.37-.33-.92-.49-1.65-.49-.68,0-1.19.12-1.51.36-.33.24-.57.66-.72,1.27l-1.42-.19c.13-.61.34-1.1.64-1.47.29-.37.72-.66,1.28-.86.56-.2,1.21-.3,1.94-.3s1.32.09,1.78.26c.46.17.79.39,1.01.65s.37.59.45.99c.05.25.07.69.07,1.34v1.94c0,1.35.03,2.2.09,2.56s.18.7.37,1.03h-1.52c-.15-.3-.25-.65-.29-1.06ZM89.83,71.62c-.53.22-1.32.4-2.37.55-.6.09-1.02.18-1.27.29-.25.11-.44.27-.57.47-.13.21-.2.44-.2.69,0,.39.15.71.44.97.29.26.72.39,1.29.39s1.05-.12,1.49-.37.76-.58.96-1c.15-.33.23-.81.23-1.45v-.53Z" style="fill:#fff;"/><path d="M93.39,65.77v-1.67h1.45v1.67h-1.45ZM93.39,75.92v-8.56h1.45v8.56h-1.45Z" style="fill:#fff;"/><path d="M96.88,75.92v-11.82h1.45v11.82h-1.45Z" style="fill:#fff;"/><path d="M102.11,75.92l-2.62-8.56h1.5l1.36,4.94.51,1.84c.02-.09.17-.68.44-1.77l1.36-5.01h1.49l1.28,4.97.43,1.64.49-1.65,1.47-4.95h1.41l-2.68,8.56h-1.51l-1.36-5.13-.33-1.46-1.73,6.59h-1.52Z" style="fill:#fff;"/><path d="M117.79,74.87c-.54.46-1.05.78-1.55.97-.5.19-1.03.28-1.6.28-.94,0-1.66-.23-2.17-.69-.5-.46-.76-1.05-.76-1.76,0-.42.1-.8.29-1.15.19-.35.44-.62.75-.83.31-.21.66-.37,1.04-.48.29-.08.71-.15,1.29-.22,1.17-.14,2.03-.31,2.59-.5,0-.2,0-.33,0-.38,0-.59-.14-1.01-.41-1.25-.37-.33-.92-.49-1.65-.49-.68,0-1.19.12-1.51.36-.32.24-.57.66-.72,1.27l-1.42-.19c.13-.61.34-1.1.64-1.47.3-.37.72-.66,1.28-.86.56-.2,1.21-.3,1.94-.3s1.33.09,1.78.26c.46.17.79.39,1.01.65s.37.59.45.99c.05.25.07.69.07,1.34v1.94c0,1.35.03,2.2.09,2.56.06.36.18.7.37,1.03h-1.52c-.15-.3-.25-.65-.29-1.06ZM117.67,71.62c-.53.22-1.32.4-2.37.55-.6.09-1.02.18-1.27.29-.25.11-.44.27-.57.47-.13.21-.2.44-.2.69,0,.39.15.71.44.97.29.26.72.39,1.29.39s1.06-.12,1.49-.37.75-.58.96-1c.16-.33.23-.81.23-1.45v-.53Z" style="fill:#fff;"/><path d="M120.88,79.22l-.16-1.36c.32.09.59.13.83.13.32,0,.58-.05.77-.16.19-.11.35-.26.48-.45.09-.15.24-.51.44-1.08.03-.08.07-.2.13-.35l-3.25-8.58h1.56l1.78,4.96c.23.63.44,1.29.62,1.98.17-.67.37-1.32.6-1.95l1.83-4.99h1.45l-3.26,8.71c-.35.94-.62,1.59-.81,1.94-.26.48-.55.83-.89,1.05-.33.22-.73.33-1.19.33-.28,0-.59-.06-.94-.18Z" style="fill:#fff;"/><path d="M33.07,24.73c0-.15-.11-.28-.27-.29-15.05-.2-19.82-7.19-.61-10.12.16-.03.29-.17.29-.33V.29c0-.16-.15-.26-.31-.23C-2.21,6.54.91,26.95,32.79,26.95c.16,0,.27-.13.27-.29v-1.93Z" style="fill:#fff;"/><path d="M31.23,20.61c0,.15.11.28.27.29,15.05.2,19.82,7.19.61,10.12-.16.03-.29.17-.29.33v13.71c0,.16.15.26.31.23,34.38-6.48,31.26-26.89-.62-26.89-.16,0-.27.13-.27.29v1.93Z" style="fill:#fff;"/><path d="M96.56,4.5h2.27c.13,0,.23.1.23.23v14.33c0,.13-.1.23-.23.23h-2.27c-.13,0-.23-.1-.23-.23V4.73c0-.12.1-.23.23-.23Z" style="fill:#fff;"/><path d="M97.7,0c-.89,0-1.62.67-1.62,1.51s.72,1.51,1.62,1.51,1.62-.68,1.62-1.51S98.6,0,97.7,0Z" style="fill:#fff;"/><path d="M86.09,4.36c-.98,0-1.85.21-2.6.59V.46c0-.13-.1-.22-.23-.22h-2.36c-.13,0-.23.1-.23.22v18.61c0,.13.1.23.23.23h2.36c.13,0,.23-.1.23-.23v-8.62c0-2.17.87-3.28,2.6-3.28s2.6,1.1,2.6,3.28v8.62c0,.13.1.23.23.23h2.36c.13,0,.23-.1.23-.23v-8.62c0-3.76-2.07-6.09-5.41-6.09Z" style="fill:#fff;"/><path d="M71.2,8.05c-1.51-.54-2.73-1.01-3.46-1.68-.56-.51-.74-1-.61-1.69.24-1.35,1.98-1.92,3.48-1.87,1.51.05,2.55.68,3.26,2,.06.11.19.15.3.1l2.12-1.04c.12-.06.15-.2.09-.32C75.2,1.3,73.23.08,70.69,0c-3.32-.1-5.87,1.59-6.34,4.19-.21,1.14-.11,2.81,1.5,4.27,1.11,1.01,2.59,1.59,4.4,2.24,1.75.63,2.69,1.04,3.26,1.68.6.67.75,1.37.49,2.26-.55,1.89-2.69,2.06-3.92,2-1.4-.07-3.24-.6-4.18-2.66-.05-.11-.18-.17-.3-.12l-2.19.89c-.11.05-.18.17-.13.28,1.16,2.65,3.57,4.26,6.65,4.42.18,0,.36.01.54.01,3.17,0,5.48-1.49,6.23-4.04.54-1.84.16-3.55-1.1-4.94-1.07-1.18-2.56-1.78-4.4-2.45Z" style="fill:#fff;"/><path d="M126.89,13.39c0,2.2-.95,3.27-2.89,3.27s-2.89-1.07-2.89-3.27V4.74c0-.12-.1-.23-.23-.23h-2.36c-.13,0-.23.1-.23.23v8.65c0,3.76,2.19,6.09,5.71,6.09s5.7-2.33,5.7-6.09V4.74c0-.12-.1-.23-.23-.23h-2.36c-.13,0-.23.1-.23.23v8.65Z" style="fill:#fff;"/><path d="M109.75,35.1c-1.43-.38-2.03-.63-2.57-1.09-.19-.16-.49-.53-.37-1.15.24-1.22,1.94-1.21,2.46-1.18,1.19.08,2,.52,2.53,1.4.06.1.19.13.3.08l1.92-1.01c.1-.05.17-.17.11-.27-.96-1.7-2.58-2.68-4.69-2.81-2.74-.17-4.78,1.12-5.2,3.3-.27,1.39.2,2.75,1.24,3.64.96.82,2.01,1.21,3.6,1.63,1.3.34,2.02.68,2.47,1.15.41.43.51.89.33,1.53-.35,1.28-2.19,1.31-2.97,1.27-1.47-.09-2.48-.69-3.07-1.84-.06-.12-.19-.2-.32-.15l-1.99.87c-.11.05-.17.18-.11.29.99,2.08,2.88,3.29,5.34,3.44.19,0,.37.02.54.02,2.65,0,4.54-1.17,5.1-3.19.42-1.52.08-2.96-.96-4.05-.82-.85-1.89-1.39-3.69-1.87Z" style="fill:#fff;"/><path d="M129.7,38.08v-8.67c0-.12-.1-.23-.23-.23h-2.36c-.12,0-.23.1-.23.23v8.66s0,0,0,0h0c0,2.2-.94,3.28-2.89,3.28s-2.89-1.07-2.89-3.28v-8.67c0-.12-.1-.23-.23-.23h-2.36c-.13,0-.23.1-.23.23v8.67c0,3.76,2.19,6.09,5.71,6.09s5.69-2.32,5.7-6.05c0-.02.02-.04,0-.04h0Z" style="fill:#fff;"/><path d="M89.39,36.63c0-4.38-2.94-7.56-7-7.56s-7,3.18-7,7.56,3.02,7.56,7.17,7.56c2.45,0,4.66-1.17,5.97-3.13.07-.1.04-.25-.07-.31l-1.78-1.1c-.1-.06-.24-.03-.31.07-.84,1.23-2.22,1.93-3.8,1.93-2.46,0-4.24-1.69-4.57-4.19h11.13c.12,0,.23-.08.24-.2.01-.2.02-.41.02-.63ZM82.39,31.62c1.89,0,3.82,1.1,4.32,3.54h-8.6c.51-2.14,2.13-3.54,4.28-3.54Z" style="fill:#fff;"/><path d="M69.8,40.99c-.16-.14-.47-.4-.47-1.97v-7.34h2.24c.12,0,.22-.1.22-.23v-2.05c0-.13-.1-.23-.22-.23h-2.24v-4.03c0-.13-.1-.23-.23-.23h-2.36c-.13,0-.23.1-.23.23v4.03h-1.73c-.12,0-.23.1-.23.23v2.05c0,.12.1.23.23.23h1.73v7.34c0,2.04.43,3.24,1.48,4.13.63.53,1.57,1.05,2.83,1.05.52,0,1.1-.09,1.74-.3.12-.04.17-.17.12-.28l-.81-2.22c-.04-.11-.16-.18-.28-.15-.96.3-1.46.03-1.79-.25Z" style="fill:#fff;"/><path d="M97.5,40.99c-.17-.14-.48-.4-.48-1.97v-7.34h2.24c.13,0,.23-.1.23-.23v-2.05c0-.13-.1-.23-.23-.23h-2.24v-4.03c0-.13-.1-.23-.23-.23h-2.36c-.13,0-.23.1-.23.23v4.03h-1.73c-.13,0-.23.1-.23.23v2.05c0,.12.1.23.23.23h1.73v7.34c0,2.04.43,3.24,1.48,4.13.63.53,1.56,1.05,2.83,1.05.52,0,1.1-.09,1.74-.3.11-.04.16-.17.12-.28l-.81-2.22c-.04-.11-.16-.18-.27-.15-.96.3-1.46.03-1.79-.25Z" style="fill:#fff;"/><path d="M104.16,4.51c-.13,0-.23.1-.23.23v2.05c0,.12.1.23.23.23h6.66l-7,9.07c-.09.12-.14.26-.14.4v2.57c0,.13.1.23.23.23h10c.13,0,.23-.1.23-.23v-2.05c0-.12-.1-.23-.23-.23h-7.47l7.42-9.61c.09-.12.14-.26.14-.41v-2.03c0-.12-.1-.23-.23-.23h-9.6Z" style="fill:#fff;"/></g></svg>