<?xml version="1.0" encoding="UTF-8"?><svg id="_レイヤー_2" xmlns="http://www.w3.org/2000/svg" width="196.4" height="44.37" viewBox="0 0 196.4 44.37"><g id="_レイヤー_1-2"><path d="m121.34,19.5c-.06.06-.14.1-.22.16l-1.39-1.42v.93h-2.75v.99h3.58v1.6h-8.87v-1.6h3.48v-.99h-2.69v-1.5h2.69v-.93h-3.3v-1.62h3.3v-1.21h1.8v1.21h3.44v1.62h-3.44v.93h2.75v.55c2.43-1.72,3.42-3.82,3.7-4.43l1.86.42c-.16.42-.28.77-.67,1.42h4.53v1.78c-.79.91-.89,1.01-1.8,1.86h2.14v3.38h.77v1.8h-.77v4.49h-1.8v-.97h-1.98v3.17c0,.97-.59,1.37-1.39,1.37h-2.77l-.4-1.92h2.18c.36,0,.63-.14.63-.55v-2.06h-3.11v-1.78h3.11v-1.74h-3.4v-1.8h3.4v-1.58h-2.63v-1.56Zm-8.85,3.07h7.24v8.65c0,1.19-.69,1.29-1.44,1.29h-2.45l-.38-1.8h1.86c.36,0,.61-.12.61-.48v-1.11h-3.62v3.38h-1.82v-9.94Zm1.82,1.48v1.05h3.62v-1.05h-3.62Zm0,2.49v1.11h3.62v-1.11h-3.62Zm10.43-7.28c.22-.16,1.25-.95,2.02-1.86h-3.36c-.91,1.13-1.48,1.6-1.78,1.86h3.13Zm.97,1.8v1.58h2.02v-1.58h-2.02Zm0,3.38v1.74h2.02v-1.74h-2.02Z" style="fill:#4d4948;"/><path d="m141.05,30.92c-1.68.42-6.02,1.03-7.56,1.17l-.3-2.02c.75-.06,1.6-.12,3.34-.3v-5.38h-3.17v-1.86h3.17v-1.68h-1.86v-1.29c-.49.47-.75.69-1.05.93l-.73-2.06c1.41-.91,2.95-2.79,3.52-4.51h2.24c.53,1.23,1.7,2.59,3.07,3.34l-1.17,1.7c-1.62-1.13-2.71-2.83-2.93-3.17-.38.65-1.01,1.74-2.35,3.17h5.03v1.88h-1.9v1.68h2.85v1.86h-2.85v5.15c1.5-.2,2.34-.4,2.85-.51l.06,1.44c3.11-1.68,3.86-4.39,4.27-6.21h-3.74v-1.98h4c.02-.2.04-.4.04-.71v-1.98h-1.9c-.51,1.5-.79,1.92-.97,2.18l-1.76-.91c.71-1.03,1.58-3.31,1.76-5.94l2,.28c-.06.46-.12,1.05-.46,2.41h1.33v-3.68h2.02v3.68h3.7v1.98h-3.7v2c0,.3-.02.44-.04.69h4.12v1.98h-3.92c.24.85,1.09,4,4.24,6.33l-1.25,1.94c-2.16-1.98-3.32-3.82-4.1-5.98-.85,2.51-2.53,4.67-4.83,6l-1.07-1.62Zm-5.84-5.42c.24,1.11.26,1.33.51,3.32l-1.6.24c-.06-1.35-.34-2.79-.48-3.38l1.56-.18Zm5.94-.08c-.06.83-.38,2.39-.61,3.19l-1.46-.26c.3-1.15.46-2.95.48-3.15l1.6.22Z" style="fill:#4d4948;"/><path d="m156.9,14.53h15.87v1.64h-7.09v.79h7.86v4.25h-2.08v-2.81h-5.78v3.92h-1.88v-3.92h-5.72v2.81h-2.04v-4.25h7.76v-.79h-6.91v-1.64Zm17.36,14.74c-.14,1.9-.4,3.05-1.72,3.05h-6.85c-1.01,0-1.92-.06-1.92-1.35v-1.72h-4.81v1.21h-1.94v-7.74h15.52v6.06l1.72.49Zm-15.3-2.71v1.17h4.81v-1.17h-4.81Zm.1-2.41v1.13h4.71v-1.13h-4.71Zm.04-4.95h3.88v1.01h-3.88v-1.01Zm0,1.76h3.88v1.05h-3.88v-1.05Zm6.63,3.19v1.13h4.83v-1.13h-4.83Zm0,2.41v1.17h4.83v-1.17h-4.83Zm0,2.69v.71c0,.44,0,.55.49.55h5.32c.55,0,.69-.06.77-1.27h-6.59Zm.91-10.05h3.96v1.01h-3.96v-1.01Zm0,1.76h3.96v1.05h-3.96v-1.05Z" style="fill:#4d4948;"/><path d="m196.22,17.16h-8.06v1.17h6.75v8.02h-6.75v1.29h8.23v1.82h-8.23v3.03h-2.02v-3.03h-8.33v-1.82h8.33v-1.29h-6.67v-8.02h6.67v-1.17h-8.05v-1.82h8.05v-1.42h2.02v1.42h8.06v1.82Zm-14.74,2.91v1.52h4.67v-1.52h-4.67Zm0,2.95v1.58h4.67v-1.58h-4.67Zm6.69-2.95v1.52h4.75v-1.52h-4.75Zm0,2.95v1.58h4.75v-1.58h-4.75Z" style="fill:#4d4948;"/><path d="m18.93,18.39c0-.11-.08-.21-.2-.22-11.2-.15-14.74-5.35-.45-7.52.12-.02.21-.12.21-.25V.21c0-.12-.11-.19-.23-.17-25.57,4.82-23.25,20,.46,20,.12,0,.2-.1.2-.21v-1.43Z" style="fill:#e40038;"/><path d="m17.57,15.33c0,.11.08.21.2.22,11.2.15,14.74,5.35.46,7.52-.12.02-.21.12-.21.25v10.2c0,.12.11.19.23.17,25.57-4.82,23.25-20-.46-20-.12,0-.2.1-.2.21v1.43Z" style="fill:#029fe9;"/><path d="m1.58,44.27c0,.05-.04.1-.1.1h-.57c-.05,0-.1-.04-.1-.1v-2.26c-.06.07-.13.13-.2.2-.03.03-.09.03-.12-.01l-.31-.51c-.03-.05,0-.12.03-.17.39-.4.73-.89.94-1.37.02-.05.08-.09.13-.07l.58.16c.05.01.07.07.05.12-.1.22-.21.43-.35.65v3.26Zm.19-5.35c.05.02.07.08.04.12-.25.45-.63.93-1.03,1.33-.04.04-.11.05-.15,0l-.38-.38s-.04-.1,0-.13c.33-.31.65-.7.85-1.07.03-.05.08-.06.13-.04l.54.16Zm.84,4.29v-.64h-.56c-.05,0-.1-.04-.1-.1v-.46c0-.05.04-.1.1-.1h.56v-.42c0-.05.04-.1.1-.1h.54c.05,0,.1.04.1.1v.42h.56c.05,0,.1.04.1.1v.46c0,.05-.04.1-.1.1h-.56v.54c.27-.04.53-.08.75-.12.05,0,.1.02.1.07,0,.07.01.2.03.45,0,.07-.05.12-.12.14-.62.13-1.48.28-2.04.37-.06,0-.12-.02-.13-.08l-.14-.53s.01-.1.06-.1c.21-.02.47-.06.76-.09Zm0-2.59v-.54h-.5c-.05,0-.1-.04-.1-.1v-.47c0-.05.04-.1.1-.1h.5v-.59c0-.05.04-.1.1-.1h.54c.05,0,.1.04.1.1v.59h.49c.05,0,.1.04.1.1v.47c0,.05-.04.1-.1.1h-.49v.54h.51c.05,0,.1.04.1.1v.46c0,.05-.04.1-.1.1h-1.88c-.05,0-.1-.04-.1-.1v-.46c0-.05.04-.1.1-.1h.64Zm2.8,3.09c0,.37-.11.58-.43.64-.13.02-.4.02-.63.02-.06,0-.1-.04-.11-.1l-.1-.53c-.01-.05.04-.09.1-.09.12,0,.24,0,.29,0,.07,0,.1-.04.1-.11v-2.38h-.4c-.05,0-.1-.04-.1-.1v-.53c0-.05.04-.1.1-.1h1.51c.05,0,.1.04.1.1v.53c0,.05-.04.1-.1.1h-.32v2.54Zm.21-4.66c.05,0,.1.04.1.1v.52c0,.05-.04.1-.1.1h-1.38c-.05,0-.1-.04-.1-.1v-.52c0-.05.04-.1.1-.1h1.38Z" style="fill:#3e3838;"/><path d="m7.13,41.79c0-.92.12-1.88.31-2.69.02-.07.06-.16.13-.14l.66.12c.07.01.07.1.05.17-.21.77-.32,1.66-.32,2.54,0,.77.08,1.44.29,2.03.02.06,0,.13-.05.14l-.66.19c-.06.02-.11-.04-.13-.1-.2-.64-.28-1.4-.28-2.26h0Zm4.66,1.9c0,.07-.08.1-.15.11-.35.03-.72.05-1.03.05-1.09,0-1.92-.22-1.92-.86,0-.22.06-.47.19-.8.03-.07.08-.14.16-.13l.55.09s.07.06.05.11c-.09.2-.13.34-.13.46,0,.28.35.37,1.08.37.32,0,.69-.04,1.05-.1.07-.01.15,0,.15.07v.63Zm-.97-3.95c.26,0,.52,0,.74,0,.05,0,.09.05.09.1v.58c-.01.06-.07.09-.13.09-.28-.02-.6-.03-.93-.03-.55,0-1.17.03-1.69.08-.05,0-.1-.03-.11-.09l-.04-.57c0-.06.05-.1.11-.11.58-.05,1.29-.06,1.94-.06h0Z" style="fill:#3e3838;"/><path d="m14.17,39.71c.05,0,.09.04.09.09-.05.43-.09.83-.09,1.19,0,1.26.34,2,.66,2,.16,0,.33-.31.43-.78.01-.05.06-.08.11-.06l.52.23c.05.02.08.08.07.13-.23.96-.61,1.41-1.09,1.41-.71,0-1.53-.91-1.53-2.92,0-.39.02-.81.05-1.28,0-.05.05-.09.1-.09l.68.06Zm2.88-.17c.05-.03.12,0,.16.04.82.91,1.09,1.84,1.16,3.12,0,.06-.03.13-.09.13l-.72.06c-.06,0-.1-.06-.1-.12-.02-1.27-.26-1.99-.97-2.76-.04-.04-.03-.1.01-.13l.55-.35Z" style="fill:#3e3838;"/><path d="m23.07,39.13c.08,0,.17,0,.21.06l.28.45c.03.05,0,.12-.04.16-.48.39-1.09.93-1.49,1.29.26-.06.47-.09.69-.09.91,0,1.46.62,1.46,1.44,0,1.09-.76,1.74-2.63,1.74-.12,0-.26,0-.41,0-.07,0-.15-.03-.17-.1l-.13-.63s.02-.09.07-.09c.2.01.42.02.57.02,1.53,0,1.84-.35,1.84-.94,0-.43-.33-.74-.85-.74-.23,0-.54.05-.83.14-.41.14-1.02.5-1.6.98-.05.05-.13.08-.18.02l-.39-.46s-.02-.1.02-.13c.84-.62,2.05-1.66,2.63-2.29-.49.04-1.26.08-1.9.13-.06,0-.13-.03-.14-.09l-.05-.61c0-.07.08-.1.15-.1.84,0,2.13-.08,2.9-.17Z" style="fill:#3e3838;"/><path d="m29.7,40.91c.02.07-.05.11-.12.13-1.56.44-2.98.99-2.98,1.68,0,.4.42.63,1.65.63.52,0,1.1-.04,1.61-.12.05,0,.11.03.11.08l.06.64c0,.06-.04.1-.1.11-.56.07-1.1.09-1.68.09-1.65,0-2.5-.44-2.5-1.39,0-.65.5-1.15,1.3-1.59-.3-.55-.35-1.2-.36-2.14,0-.05.04-.09.1-.09h.67c.07,0,.1.09.1.16,0,.78.04,1.33.22,1.73.47-.2.99-.38,1.55-.56.06-.02.13,0,.15.05l.23.61Zm-.57-1.85c.05-.04.12-.02.17.03.17.17.29.33.44.54.03.05.03.12-.02.15l-.25.18s-.11,0-.14-.05c-.13-.21-.26-.37-.43-.55-.04-.04-.04-.1,0-.13l.24-.17Zm.88-.22c.05-.04.12-.01.17.03.17.18.3.33.44.55.03.05.03.12-.02.15l-.25.18s-.11,0-.15-.05c-.13-.21-.26-.37-.43-.55-.04-.04-.04-.1,0-.13l.24-.18Z" style="fill:#3e3838;"/><path d="m31.66,40.85c0-.57.08-1.15.22-1.67.02-.05.07-.09.12-.08l.64.13c.05.01.08.07.06.12-.17.5-.26,1.03-.26,1.43,0,.19.01.36.05.48.08-.14.23-.38.34-.56.03-.04.08-.04.12,0l.37.32c.06.05.03.13-.01.2-.19.3-.44.75-.57,1.07-.03.07-.07.13-.15.15l-.52.08c-.06,0-.11-.02-.13-.07-.18-.44-.27-1.01-.27-1.59h0Zm3.65-1.84c.07-.01.11.06.12.12.13.69.18,1.26.18,2.01,0,1.39-.36,2.44-2.23,3.05-.05.02-.11,0-.14-.05l-.37-.62c-.03-.06.04-.11.11-.12,1.56-.44,1.77-1.1,1.77-2.24,0-.65-.05-1.25-.21-1.89-.01-.06,0-.13.06-.14l.7-.11Z" style="fill:#3e3838;"/><path d="m41.83,41.26s0,.11-.05.13c-.46.19-.93.38-1.43.62.03.26.04.56.05.9,0,.07-.03.15-.1.15h-.5c-.07,0-.09-.08-.09-.15,0-.2,0-.52,0-.61-.46.24-.87.53-.87.78,0,.26.38.39,1.17.39.41,0,1.03-.04,1.45-.13.05,0,.09.03.09.08l.05.56c0,.05-.02.1-.08.11-.44.07-1.06.09-1.51.09-1.25,0-1.99-.36-1.99-1.07,0-.6.74-1.04,1.54-1.45-.06-.18-.18-.32-.38-.32-.37-.01-.64.16-1.03.55-.12.12-.37.39-.56.63-.04.05-.11.08-.15.04l-.42-.38s-.02-.12.03-.17c.5-.52.88-1.07,1.2-1.73h-1.08c-.05,0-.1-.04-.1-.1v-.45c0-.05.04-.1.1-.1h1.27c.08-.23.16-.45.21-.66.01-.05.06-.08.12-.07l.59.13c.07.01.07.1.05.17-.04.15-.09.29-.14.43h1.68c.05,0,.1.04.1.1v.45c0,.05-.04.1-.1.1h-1.94c-.11.27-.25.53-.36.68.24-.12.52-.2.77-.2.39,0,.67.23.83.61.47-.21.89-.42,1.24-.58.06-.03.15-.04.18.02l.19.46Z" style="fill:#3e3838;"/><path d="m44.27,43.55c0,.44-.36.81-.82.81s-.82-.37-.82-.82.37-.82.82-.82.82.36.82.82h0Zm-1.29,0c0,.25.21.47.48.47s.48-.21.48-.47-.22-.48-.48-.48-.48.22-.48.48h0Z" style="fill:#3e3838;"/><path d="m51.05,39.82c.29,1.88,1.1,3.1,2.4,3.75.05.03.1.09.06.13l-.54.59s-.11.05-.16.02c-.97-.57-1.68-1.45-2.14-2.63-.33,1.01-.93,1.98-2.01,2.63-.06.03-.13.04-.18,0l-.5-.48s-.01-.1.03-.12c2.05-1.12,2.22-3.31,2.26-4.8,0-.07.03-.14.1-.14h.64c.06.02.09.08.09.14-.01.29-.03.61-.06.93Z" style="fill:#3e3838;"/><path d="m54.63,41.79c0-.92.12-1.88.31-2.69.02-.07.06-.16.13-.14l.66.12c.07.01.07.1.05.17-.21.77-.32,1.66-.32,2.54,0,.77.08,1.44.29,2.03.02.06,0,.13-.05.14l-.66.19c-.06.02-.11-.04-.13-.1-.2-.64-.28-1.4-.28-2.26h0Zm4.66,1.9c0,.07-.08.1-.15.11-.35.03-.73.05-1.03.05-1.09,0-1.92-.22-1.92-.86,0-.22.06-.47.19-.8.03-.07.08-.14.16-.13l.55.09s.07.06.05.11c-.09.2-.13.34-.13.46,0,.28.35.37,1.08.37.32,0,.69-.04,1.05-.1.07-.01.15,0,.15.07v.63Zm-.97-3.95c.26,0,.52,0,.74,0,.05,0,.09.05.09.1v.58c0,.06-.07.09-.13.09-.28-.02-.6-.03-.93-.03-.55,0-1.17.03-1.69.08-.05,0-.1-.03-.11-.09l-.04-.57c0-.06.05-.1.11-.11.58-.05,1.29-.06,1.94-.06h0Z" style="fill:#3e3838;"/><path d="m64.55,40.91c.03.07-.05.11-.12.13-1.56.44-2.98.99-2.98,1.68,0,.4.41.63,1.65.63.52,0,1.1-.04,1.61-.12.05,0,.1.03.11.08l.06.64c0,.06-.04.1-.1.11-.56.07-1.1.09-1.68.09-1.65,0-2.5-.44-2.5-1.39,0-.65.5-1.15,1.29-1.59-.3-.55-.35-1.2-.36-2.14,0-.05.04-.09.1-.09h.67c.07,0,.1.09.1.16,0,.78.04,1.33.22,1.73.47-.2,1-.38,1.56-.56.06-.02.12,0,.15.05l.23.61Z" style="fill:#3e3838;"/><path d="m66.33,40.91c0-.07.07-.1.14-.1.71,0,1.28-.03,2.06-.08-.05-.13-.12-.34-.16-.48-.66.04-1.33.08-1.94.09-.06,0-.12-.03-.12-.1l-.02-.48c0-.06.05-.1.11-.1.57,0,1.18-.03,1.79-.06-.04-.15-.07-.31-.1-.46-.01-.07,0-.16.07-.16l.69-.07c.07,0,.11.08.12.15.02.16.05.32.08.48.5-.04.96-.1,1.37-.17.05,0,.09.03.09.08l.06.48c0,.07-.07.11-.14.12-.37.05-.79.09-1.23.14.04.14.1.35.15.48.51-.05.83-.06,1.24-.12.05,0,.09.03.09.08l.06.49c0,.06-.06.11-.13.11-.31.03-.55.04-.96.07.17.32.37.61.62.86.05.05.1.12.06.19l-.28.44c-.04.06-.12.05-.18.02-.64-.28-1.33-.42-1.94-.42-.53,0-.77.23-.77.5,0,.31.45.54,1.46.54.29,0,.69-.02,1.1-.05.05,0,.08.04.08.09l-.04.58c0,.06-.07.1-.13.11-.29.02-.59.03-.83.03-1.71,0-2.45-.52-2.45-1.3,0-.69.51-1.16,1.48-1.16.41,0,.92.06,1.31.18-.1-.16-.2-.34-.3-.54-.87.06-1.55.11-2.3.12-.07,0-.15-.02-.16-.09l-.03-.49Z" style="fill:#3e3838;"/><path d="m73.67,39.22c.06,0,.1.06.1.11,0,.27.02.55.05.81.28-.11.6-.18.93-.22.02-.25.03-.52.03-.81,0-.06.03-.12.1-.12l.62.02c.06,0,.1.06.1.12,0,.27-.01.54-.04.78,1.1.15,1.68,1.01,1.68,2s-.43,1.82-1.84,2.17c-.07.02-.15.01-.18-.05l-.27-.55s.02-.1.07-.11c1.15-.25,1.41-.81,1.41-1.43s-.37-1.14-.95-1.28c-.16.98-.44,1.68-.77,2.17.03.05.07.09.1.13.05.06.09.14.04.19l-.45.44s-.12.01-.16-.04c-.03-.04-.06-.07-.09-.11-.38.29-.78.4-1.09.4-.58,0-.94-.43-.94-1.16,0-.9.35-1.65.99-2.14-.06-.39-.09-.8-.11-1.21,0-.05.04-.08.09-.09l.58-.02Zm-.41,2.17c-.26.31-.41.72-.41,1.19,0,.26.12.43.29.43.15,0,.37-.05.61-.23-.2-.41-.35-.88-.48-1.39Zm1.01.7c.17-.34.31-.79.4-1.41-.28.04-.53.11-.75.22.08.43.2.83.35,1.19Z" style="fill:#3e3838;"/><path d="m91.76,43.55c0,.44-.36.81-.82.81s-.82-.37-.82-.82.37-.82.82-.82.82.36.82.82h0Zm-1.29,0c0,.25.21.47.47.47s.48-.21.48-.48-.22-.48-.48-.48-.47.22-.47.48h0Z" style="fill:#3e3838;"/><path d="m78.81,40.91c0-.07.07-.1.14-.1.71,0,1.28-.03,2.06-.08-.05-.13-.12-.34-.16-.48-.66.04-1.33.08-1.94.09-.06,0-.12-.03-.12-.1l-.02-.48c0-.06.05-.1.11-.1.57,0,1.18-.03,1.79-.06-.04-.15-.07-.31-.1-.46-.01-.07,0-.16.07-.16l.69-.07c.07,0,.11.08.11.15.02.16.05.32.08.48.5-.04.96-.1,1.37-.17.05,0,.09.03.09.08l.06.48c0,.07-.07.11-.14.12-.37.05-.79.09-1.23.14.04.14.1.35.15.48.51-.05.83-.06,1.24-.12.05,0,.09.03.09.08l.06.49c0,.06-.06.1-.13.11-.31.03-.55.04-.96.07.17.32.37.61.62.86.05.05.1.12.06.19l-.28.44c-.04.06-.12.05-.18.02-.64-.28-1.33-.42-1.94-.42-.53,0-.77.23-.77.5,0,.31.45.54,1.46.54.29,0,.69-.02,1.1-.05.05,0,.08.04.08.09l-.04.58c0,.06-.07.1-.13.11-.29.02-.59.03-.83.03-1.71,0-2.45-.52-2.45-1.3,0-.69.51-1.16,1.48-1.16.41,0,.91.06,1.31.18-.1-.16-.2-.34-.29-.54-.87.06-1.55.11-2.3.12-.07,0-.15-.02-.16-.09l-.03-.49Z" style="fill:#3e3838;"/><path d="m89.31,41.26c.02.05,0,.11-.05.13-.46.19-.93.38-1.43.62.03.26.04.56.05.9,0,.07-.03.15-.1.15h-.5c-.07,0-.09-.08-.09-.15,0-.2,0-.52,0-.61-.46.24-.87.53-.87.78,0,.26.38.39,1.17.39.41,0,1.03-.04,1.45-.13.05,0,.09.03.09.08l.05.56c0,.05-.03.1-.08.11-.44.07-1.06.09-1.51.09-1.25,0-1.99-.36-1.99-1.07,0-.6.74-1.04,1.54-1.45-.05-.18-.18-.32-.38-.32-.37-.01-.64.16-1.03.55-.12.12-.37.39-.56.63-.04.05-.1.08-.15.04l-.42-.38s-.02-.12.03-.17c.5-.52.88-1.07,1.2-1.73h-1.08c-.05,0-.1-.04-.1-.1v-.45c0-.05.04-.1.1-.1h1.27c.08-.23.15-.45.21-.66.01-.05.06-.08.12-.07l.59.13c.07.01.07.1.05.17-.04.15-.09.29-.14.43h1.68c.05,0,.1.04.1.1v.45c0,.05-.04.1-.1.1h-1.94c-.11.27-.25.53-.36.68.24-.12.52-.2.77-.2.38,0,.67.23.83.61.47-.21.89-.42,1.24-.58.07-.03.15-.04.18.02l.19.46Z" style="fill:#3e3838;"/><path d="m66.16,3.35h1.69c.09,0,.17.08.17.17v10.66c0,.09-.08.17-.17.17h-1.69c-.09,0-.17-.08-.17-.17V3.52c0-.09.08-.17.17-.17Z" style="fill:#3e3838;"/><path d="m67.01,0c-.67,0-1.2.5-1.2,1.12s.54,1.12,1.2,1.12,1.2-.5,1.2-1.12S67.67,0,67.01,0Z" style="fill:#3e3838;"/><path d="m58.37,3.25c-.73,0-1.38.15-1.93.44V.34c0-.09-.07-.17-.17-.17h-1.76c-.09,0-.17.07-.17.17v13.84c0,.09.08.17.17.17h1.76c.09,0,.17-.08.17-.17v-6.41c0-1.62.65-2.44,1.93-2.44s1.93.82,1.93,2.44v6.41c0,.09.08.17.17.17h1.76c.09,0,.17-.08.17-.17v-6.41c0-2.8-1.54-4.53-4.03-4.53Z" style="fill:#3e3838;"/><path d="m47.29,5.99c-1.13-.4-2.03-.75-2.57-1.25-.42-.38-.55-.74-.46-1.26.18-1,1.47-1.43,2.59-1.39,1.12.03,1.89.51,2.42,1.48.04.08.14.11.23.07l1.58-.77c.09-.04.11-.15.07-.24C50.27.97,48.81.06,46.91,0c-2.47-.07-4.37,1.18-4.71,3.12-.15.85-.08,2.09,1.11,3.18.83.75,1.93,1.18,3.27,1.67,1.3.47,2,.78,2.43,1.25.45.5.56,1.02.37,1.68-.41,1.4-2,1.54-2.92,1.49-1.04-.05-2.41-.44-3.11-1.98-.04-.08-.14-.12-.22-.09l-1.63.66c-.08.03-.13.12-.09.21.87,1.97,2.66,3.17,4.95,3.29.14,0,.27.01.4.01,2.36,0,4.08-1.1,4.63-3,.4-1.37.12-2.64-.82-3.68-.79-.88-1.9-1.33-3.27-1.82Z" style="fill:#3e3838;"/><path d="m88.71,9.96c0,1.64-.7,2.44-2.15,2.44s-2.15-.8-2.15-2.44V3.53c0-.09-.08-.17-.17-.17h-1.76c-.09,0-.17.08-.17.17v6.43c0,2.79,1.63,4.53,4.24,4.53s4.24-1.74,4.24-4.53V3.53c0-.09-.08-.17-.17-.17h-1.76c-.09,0-.17.08-.17.17v6.43Z" style="fill:#3e3838;"/><path d="m75.97,26.1c-1.07-.28-1.51-.47-1.91-.81-.14-.12-.36-.39-.28-.86.18-.91,1.44-.9,1.83-.88.89.06,1.49.39,1.88,1.04.05.08.15.1.23.06l1.43-.75c.08-.04.12-.13.08-.2-.72-1.27-1.92-1.99-3.49-2.09-2.04-.13-3.56.83-3.87,2.45-.2,1.03.15,2.04.92,2.71.72.61,1.49.9,2.68,1.21.97.26,1.5.5,1.84.86.31.32.38.66.24,1.14-.26.95-1.63.97-2.21.94-1.09-.07-1.85-.51-2.28-1.37-.05-.09-.14-.15-.24-.11l-1.48.65c-.08.04-.12.14-.09.22.74,1.54,2.14,2.45,3.97,2.56.14,0,.27.01.4.01,1.97,0,3.37-.87,3.79-2.38.32-1.13.06-2.2-.71-3.01-.61-.63-1.41-1.04-2.75-1.39Z" style="fill:#3e3838;"/><path d="m90.81,28.32v-6.44c0-.09-.08-.17-.17-.17h-1.76c-.09,0-.17.08-.17.17v6.44s0,0,0,0h0c0,1.64-.7,2.44-2.15,2.44s-2.15-.8-2.15-2.44v-6.44c0-.09-.07-.17-.17-.17h-1.76c-.09,0-.17.08-.17.17v6.44c0,2.8,1.63,4.53,4.24,4.53s4.23-1.72,4.24-4.5c0-.01.01-.03,0-.03h0Z" style="fill:#3e3838;"/><path d="m60.83,27.25c0-3.26-2.19-5.63-5.21-5.63s-5.21,2.37-5.21,5.63,2.24,5.63,5.34,5.63c1.82,0,3.47-.87,4.44-2.33.05-.08.03-.18-.05-.23l-1.33-.82c-.08-.05-.18-.03-.23.05-.63.92-1.65,1.44-2.83,1.44-1.83,0-3.16-1.25-3.4-3.12h8.28c.09,0,.17-.06.18-.15.01-.15.02-.31.02-.47Zm-5.21-3.73c1.4,0,2.84.82,3.21,2.63h-6.4c.38-1.59,1.58-2.63,3.19-2.63Z" style="fill:#3e3838;"/><path d="m46.26,30.49c-.12-.1-.35-.3-.35-1.47v-5.46h1.67c.09,0,.17-.08.17-.17v-1.52c0-.09-.07-.17-.17-.17h-1.67v-3c0-.09-.08-.17-.17-.17h-1.76c-.09,0-.17.08-.17.17v3h-1.28c-.09,0-.17.08-.17.17v1.52c0,.09.08.17.17.17h1.28v5.46c0,1.52.32,2.41,1.1,3.07.47.39,1.16.78,2.11.78.39,0,.82-.07,1.29-.22.09-.03.12-.13.09-.21l-.6-1.65c-.03-.08-.12-.14-.21-.11-.72.22-1.09.02-1.33-.19Z" style="fill:#3e3838;"/><path d="m66.85,30.49c-.12-.1-.35-.3-.35-1.47v-5.46h1.67c.09,0,.17-.08.17-.17v-1.52c0-.09-.07-.17-.17-.17h-1.67v-3c0-.09-.08-.17-.17-.17h-1.76c-.09,0-.17.08-.17.17v3h-1.28c-.09,0-.17.08-.17.17v1.52c0,.09.08.17.17.17h1.28v5.46c0,1.52.32,2.41,1.1,3.07.47.39,1.16.78,2.11.78.39,0,.82-.07,1.29-.22.09-.03.12-.12.09-.21l-.6-1.65c-.03-.08-.12-.14-.2-.11-.72.22-1.09.02-1.33-.19Z" style="fill:#3e3838;"/><path d="m71.81,3.35c-.09,0-.17.07-.17.17v1.52c0,.09.08.17.17.17h4.95l-5.21,6.75c-.07.09-.1.19-.1.3v1.91c0,.09.08.17.17.17h7.43c.09,0,.17-.08.17-.17v-1.52c0-.09-.08-.17-.17-.17h-5.56l5.52-7.15c.07-.09.1-.19.1-.3v-1.51c0-.09-.08-.17-.17-.17h-7.14Z" style="fill:#3e3838;"/></g></svg>