<?xml version="1.0" encoding="UTF-8"?><svg id="_レイヤー_2" xmlns="http://www.w3.org/2000/svg" width="239.22" height="33.77" viewBox="0 0 239.22 33.77"><g id="_レイヤー_1-2"><path d="M111.85,17.37l1.47-.13c.07.59.23,1.08.49,1.46.25.38.65.69,1.19.92.54.23,1.14.35,1.81.35.6,0,1.12-.09,1.58-.27s.8-.42,1.02-.73c.22-.31.33-.65.33-1.01s-.11-.69-.32-.97-.57-.51-1.06-.7c-.32-.12-1.02-.32-2.1-.58-1.08-.26-1.85-.51-2.28-.74-.56-.3-.99-.66-1.26-1.1s-.42-.93-.42-1.47c0-.6.17-1.15.51-1.67.34-.52.83-.91,1.48-1.18.65-.27,1.37-.4,2.17-.4.88,0,1.65.14,2.32.42.67.28,1.18.7,1.54,1.25.36.55.55,1.17.58,1.86l-1.5.11c-.08-.75-.35-1.31-.82-1.69s-1.15-.57-2.06-.57-1.64.17-2.07.52-.65.76-.65,1.25c0,.42.15.77.46,1.05.3.27,1.09.55,2.36.84s2.14.54,2.62.75c.69.32,1.2.72,1.52,1.21.33.49.49,1.05.49,1.68s-.18,1.22-.54,1.78-.88.99-1.55,1.3c-.67.31-1.43.46-2.28.46-1.07,0-1.97-.16-2.69-.47s-1.29-.78-1.7-1.41-.63-1.33-.65-2.12Z" style="fill:#4d4948;"/><path d="M123.12,21.16v-11.82h1.45v4.24c.68-.78,1.53-1.18,2.56-1.18.63,0,1.19.12,1.65.38.47.25.8.6,1,1.04.2.44.3,1.08.3,1.92v5.43h-1.45v-5.43c0-.73-.16-1.25-.47-1.58s-.76-.5-1.33-.5c-.43,0-.83.11-1.21.33s-.65.53-.81.91c-.16.38-.24.91-.24,1.58v4.68h-1.45Z" style="fill:#4d4948;"/><path d="M132.15,11.01v-1.67h1.45v1.67h-1.45ZM132.15,21.16v-8.56h1.45v8.56h-1.45Z" style="fill:#4d4948;"/><path d="M134.88,21.16v-1.18l5.45-6.26c-.62.03-1.16.05-1.64.05h-3.49v-1.18h7v.96l-4.64,5.43-.89.99c.65-.05,1.26-.07,1.83-.07h3.96v1.25h-7.58Z" style="fill:#4d4948;"/><path d="M149.26,21.16v-1.26c-.67.97-1.57,1.45-2.72,1.45-.5,0-.98-.1-1.42-.29-.44-.19-.76-.44-.97-.73-.21-.29-.36-.65-.45-1.08-.06-.28-.09-.74-.09-1.35v-5.3h1.45v4.75c0,.76.03,1.27.09,1.53.09.38.29.68.58.9.29.22.66.33,1.1.33s.84-.11,1.22-.33c.38-.22.65-.53.81-.91s.24-.94.24-1.67v-4.59h1.45v8.56h-1.3Z" style="fill:#4d4948;"/><path d="M152.19,16.88c0-1.59.44-2.76,1.32-3.52.74-.63,1.63-.95,2.69-.95,1.18,0,2.14.39,2.89,1.16.75.77,1.12,1.84,1.12,3.2,0,1.1-.17,1.97-.5,2.6-.33.63-.81,1.12-1.44,1.47-.63.35-1.32.52-2.07.52-1.2,0-2.17-.38-2.91-1.15-.74-.77-1.11-1.88-1.11-3.32ZM153.68,16.88c0,1.1.24,1.92.72,2.46.48.55,1.08.82,1.81.82s1.32-.27,1.8-.82c.48-.55.72-1.38.72-2.51,0-1.06-.24-1.86-.72-2.41-.48-.55-1.08-.82-1.79-.82s-1.33.27-1.81.81c-.48.54-.72,1.36-.72,2.46Z" style="fill:#4d4948;"/><path d="M161.83,21.16v-11.82h1.45v6.74l3.43-3.48h1.88l-3.27,3.18,3.6,5.39h-1.79l-2.83-4.38-1.02.98v3.39h-1.45Z" style="fill:#4d4948;"/><path d="M175.5,20.11c-.54.46-1.05.78-1.55.97-.5.19-1.03.28-1.6.28-.94,0-1.66-.23-2.17-.69-.5-.46-.76-1.05-.76-1.76,0-.42.1-.8.29-1.15s.44-.62.75-.83c.31-.21.66-.37,1.04-.48.29-.08.71-.15,1.29-.22,1.17-.14,2.03-.31,2.59-.5,0-.2,0-.33,0-.38,0-.59-.14-1.01-.41-1.25-.37-.33-.92-.49-1.65-.49-.68,0-1.19.12-1.51.36-.33.24-.57.66-.72,1.27l-1.42-.19c.13-.61.34-1.1.64-1.47s.72-.66,1.28-.86c.56-.2,1.21-.3,1.94-.3s1.33.09,1.78.26c.46.17.79.39,1.01.65s.37.59.45.99c.05.25.07.69.07,1.34v1.94c0,1.35.03,2.2.09,2.56.06.36.18.7.37,1.03h-1.52c-.15-.3-.25-.65-.29-1.06ZM175.38,16.87c-.53.22-1.32.4-2.37.55-.6.09-1.02.18-1.27.29-.25.11-.44.27-.57.47-.13.21-.2.44-.2.69,0,.39.15.71.44.97.29.26.72.39,1.29.39s1.06-.12,1.49-.37.75-.58.96-1c.16-.33.23-.81.23-1.45v-.53Z" style="fill:#4d4948;"/><path d="M183.9,21.16v-11.82h5.24c1.05,0,1.85.11,2.4.32.55.21.99.59,1.31,1.12.33.54.49,1.13.49,1.78,0,.84-.27,1.54-.81,2.12s-1.38.94-2.52,1.1c.41.2.73.4.94.59.46.42.89.94,1.3,1.57l2.06,3.22h-1.97l-1.56-2.46c-.46-.71-.83-1.25-1.13-1.63-.3-.38-.56-.64-.79-.79-.23-.15-.47-.25-.71-.31-.18-.04-.47-.06-.87-.06h-1.81v5.25h-1.56ZM185.46,14.56h3.36c.71,0,1.27-.07,1.68-.22s.71-.38.92-.71.31-.68.31-1.06c0-.56-.2-1.02-.61-1.38-.41-.36-1.05-.54-1.92-.54h-3.74v3.91Z" style="fill:#4d4948;"/><path d="M201.06,20.11c-.54.46-1.05.78-1.55.97-.5.19-1.03.28-1.6.28-.94,0-1.66-.23-2.17-.69-.5-.46-.76-1.05-.76-1.76,0-.42.1-.8.29-1.15s.44-.62.75-.83c.31-.21.66-.37,1.04-.48.29-.08.71-.15,1.29-.22,1.17-.14,2.03-.31,2.59-.5,0-.2,0-.33,0-.38,0-.59-.14-1.01-.41-1.25-.37-.33-.92-.49-1.65-.49-.68,0-1.19.12-1.51.36-.33.24-.57.66-.72,1.27l-1.42-.19c.13-.61.34-1.1.64-1.47s.72-.66,1.28-.86c.56-.2,1.21-.3,1.94-.3s1.33.09,1.78.26c.46.17.79.39,1.01.65s.37.59.45.99c.05.25.07.69.07,1.34v1.94c0,1.35.03,2.2.09,2.56.06.36.18.7.37,1.03h-1.52c-.15-.3-.25-.65-.29-1.06ZM200.94,16.87c-.53.22-1.32.4-2.37.55-.6.09-1.02.18-1.27.29-.25.11-.44.27-.57.47-.13.21-.2.44-.2.69,0,.39.15.71.44.97.29.26.72.39,1.29.39s1.06-.12,1.49-.37.75-.58.96-1c.16-.33.23-.81.23-1.45v-.53Z" style="fill:#4d4948;"/><path d="M204.5,11.01v-1.67h1.45v1.67h-1.45ZM204.5,21.16v-8.56h1.45v8.56h-1.45Z" style="fill:#4d4948;"/><path d="M207.99,21.16v-11.82h1.45v11.82h-1.45Z" style="fill:#4d4948;"/><path d="M213.23,21.16l-2.62-8.56h1.5l1.36,4.94.51,1.84c.02-.09.17-.68.44-1.77l1.36-5.01h1.49l1.28,4.97.43,1.64.49-1.65,1.47-4.95h1.41l-2.68,8.56h-1.51l-1.36-5.13-.33-1.46-1.73,6.59h-1.52Z" style="fill:#4d4948;"/><path d="M228.9,20.11c-.54.46-1.05.78-1.55.97-.5.19-1.03.28-1.6.28-.94,0-1.66-.23-2.17-.69-.5-.46-.76-1.05-.76-1.76,0-.42.1-.8.29-1.15s.44-.62.75-.83c.31-.21.66-.37,1.04-.48.29-.08.71-.15,1.29-.22,1.17-.14,2.03-.31,2.59-.5,0-.2,0-.33,0-.38,0-.59-.14-1.01-.41-1.25-.37-.33-.92-.49-1.65-.49-.68,0-1.19.12-1.51.36-.33.24-.57.66-.72,1.27l-1.42-.19c.13-.61.34-1.1.64-1.47s.72-.66,1.28-.86c.56-.2,1.21-.3,1.94-.3s1.33.09,1.78.26c.46.17.79.39,1.01.65s.37.59.45.99c.05.25.07.69.07,1.34v1.94c0,1.35.03,2.2.09,2.56.06.36.18.7.37,1.03h-1.52c-.15-.3-.25-.65-.29-1.06ZM228.78,16.87c-.53.22-1.32.4-2.37.55-.6.09-1.02.18-1.27.29-.25.11-.44.27-.57.47-.13.21-.2.44-.2.69,0,.39.15.71.44.97.29.26.72.39,1.29.39s1.06-.12,1.49-.37.75-.58.96-1c.16-.33.23-.81.23-1.45v-.53Z" style="fill:#4d4948;"/><path d="M231.99,24.46l-.16-1.36c.32.09.59.13.83.13.32,0,.58-.05.77-.16.19-.11.35-.26.48-.45.09-.15.24-.51.44-1.08.03-.08.07-.2.13-.35l-3.25-8.58h1.56l1.78,4.96c.23.63.44,1.29.62,1.98.17-.67.37-1.32.6-1.95l1.83-4.99h1.45l-3.26,8.71c-.35.94-.62,1.59-.81,1.94-.26.48-.55.83-.89,1.05s-.73.33-1.19.33c-.28,0-.59-.06-.94-.18Z" style="fill:#4d4948;"/><path d="M18.98,18.44c0-.11-.08-.21-.2-.22-11.23-.15-14.78-5.36-.46-7.54.12-.02.21-.13.21-.25V.21c0-.12-.11-.19-.23-.17-25.64,4.83-23.31,20.05.46,20.05.12,0,.2-.1.2-.21v-1.44Z" style="fill:#e40038;"/><path d="M17.61,15.37c0,.11.08.21.2.22,11.23.15,14.78,5.36.46,7.54-.12.02-.21.12-.21.25v10.22c0,.12.11.19.23.17,25.64-4.83,23.31-20.05-.46-20.05-.12,0-.2.1-.2.21v1.44Z" style="fill:#029fe9;"/><path d="M66.33,3.36h1.7c.09,0,.17.08.17.17v10.69c0,.09-.08.17-.17.17h-1.7c-.09,0-.17-.08-.17-.17V3.52c0-.09.08-.17.17-.17Z" style="fill:#3e3838;"/><path d="M67.18,0c-.67,0-1.21.5-1.21,1.13s.54,1.13,1.21,1.13,1.21-.5,1.21-1.13S67.85,0,67.18,0Z" style="fill:#3e3838;"/><path d="M58.52,3.25c-.73,0-1.38.15-1.94.44V.35c0-.09-.07-.17-.17-.17h-1.76c-.09,0-.17.07-.17.17v13.88c0,.09.08.17.17.17h1.76c.09,0,.17-.08.17-.17v-6.43c0-1.62.65-2.44,1.94-2.44s1.94.82,1.94,2.44v6.43c0,.09.08.17.17.17h1.76c.09,0,.17-.08.17-.17v-6.43c0-2.8-1.55-4.54-4.04-4.54Z" style="fill:#3e3838;"/><path d="M47.42,6.01c-1.13-.4-2.03-.76-2.58-1.25-.42-.38-.55-.74-.46-1.26.18-1.01,1.48-1.43,2.6-1.4,1.12.03,1.9.51,2.43,1.49.04.08.14.11.23.07l1.58-.78c.09-.04.11-.15.07-.24C50.4.97,48.93.06,47.03,0c-2.47-.07-4.38,1.18-4.72,3.12-.15.85-.08,2.1,1.12,3.19.83.75,1.93,1.19,3.28,1.67,1.31.47,2,.78,2.43,1.26.45.5.56,1.02.37,1.69-.41,1.41-2.01,1.54-2.92,1.49-1.04-.05-2.42-.44-3.12-1.98-.04-.08-.14-.12-.22-.09l-1.63.67c-.08.03-.13.13-.09.21.87,1.98,2.67,3.18,4.96,3.3.14,0,.27.01.4.01,2.37,0,4.09-1.11,4.65-3.01.4-1.37.12-2.64-.82-3.69-.8-.88-1.91-1.33-3.28-1.82Z" style="fill:#3e3838;"/><path d="M88.94,9.99c0,1.64-.71,2.44-2.15,2.44s-2.15-.8-2.15-2.44V3.54c0-.09-.08-.17-.17-.17h-1.76c-.09,0-.17.08-.17.17v6.45c0,2.8,1.63,4.54,4.25,4.54s4.25-1.74,4.25-4.54V3.54c0-.09-.08-.17-.17-.17h-1.76c-.09,0-.17.08-.17.17v6.45Z" style="fill:#3e3838;"/><path d="M76.16,26.17c-1.07-.28-1.52-.47-1.91-.81-.14-.12-.37-.39-.28-.86.18-.91,1.45-.9,1.83-.88.89.06,1.49.39,1.89,1.04.05.08.15.1.23.06l1.43-.75c.08-.04.12-.13.08-.2-.72-1.27-1.92-2-3.5-2.1-2.04-.13-3.57.83-3.88,2.46-.2,1.04.15,2.05.93,2.72.72.61,1.5.9,2.68,1.21.97.26,1.5.51,1.84.86.31.32.38.66.24,1.14-.26.95-1.64.98-2.21.94-1.1-.07-1.85-.51-2.29-1.37-.05-.09-.15-.15-.24-.11l-1.48.65c-.08.04-.13.14-.09.22.74,1.55,2.14,2.46,3.98,2.57.14,0,.27.01.41.01,1.97,0,3.38-.87,3.8-2.38.32-1.14.06-2.21-.72-3.02-.61-.63-1.41-1.04-2.75-1.39Z" style="fill:#3e3838;"/><path d="M91.04,28.4v-6.46c0-.09-.08-.17-.17-.17h-1.76c-.09,0-.17.08-.17.17v6.46s0,0,0,0h0c0,1.64-.7,2.44-2.15,2.44s-2.15-.8-2.15-2.44v-6.46c0-.09-.07-.17-.17-.17h-1.76c-.09,0-.17.08-.17.17v6.46c0,2.8,1.63,4.54,4.25,4.54s4.24-1.73,4.25-4.51c0-.01.01-.03,0-.03h0Z" style="fill:#3e3838;"/><path d="M60.98,27.32c0-3.27-2.19-5.64-5.22-5.64s-5.22,2.37-5.22,5.64,2.25,5.64,5.35,5.64c1.83,0,3.48-.87,4.45-2.34.05-.08.03-.18-.05-.23l-1.33-.82c-.08-.05-.18-.03-.23.05-.63.92-1.65,1.44-2.83,1.44-1.84,0-3.16-1.26-3.41-3.12h8.3c.09,0,.17-.06.18-.15.01-.15.02-.31.02-.47ZM55.76,23.58c1.41,0,2.85.82,3.22,2.64h-6.41c.38-1.59,1.58-2.64,3.19-2.64Z" style="fill:#3e3838;"/><path d="M46.38,30.57c-.12-.1-.35-.3-.35-1.47v-5.47h1.67c.09,0,.17-.08.17-.17v-1.53c0-.09-.07-.17-.17-.17h-1.67v-3c0-.09-.08-.17-.17-.17h-1.76c-.09,0-.17.08-.17.17v3h-1.29c-.09,0-.17.08-.17.17v1.53c0,.09.08.17.17.17h1.29v5.47c0,1.52.32,2.42,1.1,3.08.47.39,1.17.78,2.11.78.39,0,.82-.07,1.29-.22.09-.03.12-.13.09-.21l-.61-1.66c-.03-.08-.12-.14-.21-.11-.72.22-1.09.02-1.34-.19Z" style="fill:#3e3838;"/><path d="M67.03,30.57c-.12-.1-.36-.3-.36-1.47v-5.47h1.67c.09,0,.17-.08.17-.17v-1.53c0-.09-.07-.17-.17-.17h-1.67v-3c0-.09-.08-.17-.17-.17h-1.76c-.1,0-.17.08-.17.17v3h-1.29c-.09,0-.17.08-.17.17v1.53c0,.09.08.17.17.17h1.29v5.47c0,1.52.32,2.42,1.1,3.08.47.39,1.17.78,2.11.78.39,0,.82-.07,1.3-.22.09-.03.12-.13.09-.21l-.61-1.66c-.03-.08-.12-.14-.2-.11-.72.22-1.09.02-1.34-.19Z" style="fill:#3e3838;"/><path d="M72,3.36c-.09,0-.17.07-.17.17v1.53c0,.09.08.17.17.17h4.97l-5.22,6.77c-.07.09-.1.19-.1.3v1.92c0,.09.08.17.17.17h7.45c.09,0,.17-.08.17-.17v-1.53c0-.09-.08-.17-.17-.17h-5.57l5.53-7.17c.07-.09.1-.19.1-.3v-1.52c0-.09-.08-.17-.17-.17h-7.16Z" style="fill:#3e3838;"/></g></svg>