<?xml version="1.0" encoding="UTF-8"?><svg id="b" xmlns="http://www.w3.org/2000/svg" width="12.59" height="12.59" viewBox="0 0 12.59 12.59"><g id="c"><path d="m12.59,6.3c0,3.48-2.82,6.3-6.3,6.3S0,9.78,0,6.3,2.82,0,6.3,0s6.3,2.82,6.3,6.3ZM1.06,7.92h2.3c-.07-.52-.11-1.06-.11-1.62s.04-1.1.11-1.62H1.06c-.16.51-.25,1.06-.25,1.62s.09,1.11.25,1.62Zm.33-4.06h2.09c.23-1.13.61-2.09,1.1-2.77-1.4.46-2.54,1.47-3.19,2.77Zm3.19,7.65c-.48-.68-.87-1.64-1.1-2.77H1.39c.65,1.3,1.8,2.31,3.19,2.77Zm3.84-6.83h-4.25c-.07.5-.11,1.04-.11,1.62s.04,1.12.11,1.62h4.25c.07-.5.11-1.04.11-1.62s-.04-1.12-.11-1.62Zm-4.11-.81h3.97c-.42-1.93-1.3-3.05-1.98-3.05s-1.56,1.12-1.98,3.05Zm3.97,4.88h-3.97c.42,1.93,1.3,3.05,1.98,3.05s1.56-1.12,1.98-3.05Zm-.27-7.65c.48.68.87,1.64,1.1,2.77h2.09c-.65-1.3-1.8-2.31-3.19-2.77Zm3.19,7.65h-2.09c-.23,1.13-.61,2.09-1.1,2.77,1.4-.46,2.54-1.47,3.19-2.77Zm.33-.81c.16-.51.25-1.06.25-1.62s-.09-1.11-.25-1.62h-2.3c.07.52.11,1.06.11,1.62s-.04,1.1-.11,1.62h2.3Z" fill="#4d4948"/></g></svg>