<?xml version="1.0" encoding="UTF-8"?><svg id="_レイヤー_2" xmlns="http://www.w3.org/2000/svg" width="39" height="39" viewBox="0 0 39 39"><g id="_レイヤー_2-2"><g id="_レイヤー_2-2"><g id="_レイヤー_1-2"><circle cx="19.5" cy="19.5" r="19.5" style="fill:#e1306c; stroke-width:0px;"/><path d="M28.83,23.39c-.11,1.45-.44,2.78-1.56,3.89s-2.45,1.45-3.89,1.56c-1.56.11-6.11.11-7.67,0-1.45-.11-2.78-.44-3.89-1.56s-1.45-2.45-1.56-3.89c-.11-1.56-.11-6.11,0-7.67.11-1.45.44-2.78,1.56-3.89s2.45-1.45,3.89-1.56c1.56-.11,6.11-.11,7.67,0,1.45.11,2.78.44,3.89,1.56s1.45,2.45,1.56,3.89c.11,1.56.11,6.11,0,7.67ZM27.28,19.49c0-1.33.11-4.22-.33-5.56-.33-.78-1-1.45-1.78-1.78-1.22-.44-4.11-.33-5.56-.33-1.33,0-4.22-.11-5.56.33-.78.33-1.45,1-1.78,1.78-.44,1.22-.33,4.11-.33,5.56,0,1.33-.11,4.22.33,5.56.33.78,1,1.45,1.78,1.78,1.22.44,4.11.33,5.56.33,1.33,0,4.22.11,5.56-.33.78-.33,1.45-1,1.78-1.78.44-1.22.33-4.11.33-5.56ZM24.39,19.49c0,2.67-2.11,4.78-4.78,4.78s-4.78-2.11-4.78-4.78,2.11-4.78,4.78-4.78,4.78,2.22,4.78,4.78ZM22.72,19.49c0-1.67-1.45-3.11-3.11-3.11s-3.11,1.45-3.11,3.11,1.45,3.11,3.11,3.11c1.67.11,3.11-1.33,3.11-3.11ZM24.61,15.71c-.67,0-1.11-.56-1.11-1.11,0-.67.56-1.11,1.11-1.11.67,0,1.11.56,1.11,1.11s-.56,1.11-1.11,1.11Z" style="fill:#fff; stroke-width:0px;"/></g></g></g></svg>