<?xml version="1.0" encoding="UTF-8"?><svg id="_レイヤー_2" xmlns="http://www.w3.org/2000/svg" width="15.62" height="15.62" viewBox="0 0 15.62 15.62"><g id="b"><g id="c"><path d="m15.61,7.8v3.42c0,.27-.22.49-.49.49h-1.46v2.93c0,.54-.44.98-.97.98H2.93c-.54,0-.98-.44-.98-.98v-2.93H.49c-.27,0-.49-.22-.49-.49v-3.42c0-1.08.87-1.95,1.95-1.95V.97c0-.54.44-.97.98-.97h8.38c.26,0,.51.1.69.29l1.38,1.38c.18.18.29.43.29.69v3.5c1.08,0,1.95.87,1.95,1.95m-3.9-3.9h-1.46c-.27,0-.49-.22-.49-.49v-1.46H3.9v4.88h7.8v-2.93h.02Zm0,6.83H3.9v2.93h7.8v-2.93h.02Zm2.2-2.44c0-.4-.33-.73-.73-.73s-.73.33-.73.73.33.73.73.73.73-.33.73-.73" style="fill:#fff;"/></g></g></svg>