<?xml version="1.0" encoding="UTF-8"?><svg id="b" xmlns="http://www.w3.org/2000/svg" width="32.9" height="32.9" viewBox="0 0 32.9 32.9"><g id="c"><path d="m32.9,5.14v14.39c0,2.24-3.44,4.13-8.22,4.84v3.39c0,2.84-5.53,5.14-12.34,5.14S0,30.6,0,27.76v-14.39c0-2.24,3.44-4.14,8.22-4.84v-3.38c0-2.84,5.53-5.14,12.34-5.14s12.34,2.3,12.34,5.14Zm-11.31,9.25c0-1.7-4.14-3.08-9.25-3.08s-9.25,1.38-9.25,3.08,4.14,3.08,9.25,3.08,9.25-1.38,9.25-3.08Zm0,4.07c-2.26,1.28-5.56,2.09-9.25,2.09s-6.99-.81-9.25-2.09v2.88c.64.75,3.88,2.29,9.25,2.29s8.61-1.54,9.25-2.29v-2.88Zm0,6.52c-2.26,1.07-5.56,1.75-9.25,1.75s-6.99-.68-9.25-1.75v2.54c.64.75,3.88,2.29,9.25,2.29s8.61-1.54,9.25-2.29v-2.54ZM29.81,6.17c0-1.7-4.14-3.08-9.25-3.08s-9.25,1.38-9.25,3.08c0,.81.96,1.54,2.5,2.09,2.16.11,4.14.45,5.81.96.31.01.62.03.94.03,5.11,0,9.25-1.38,9.25-3.08Zm0,4.07c-1.46.84-3.41,1.45-5.58,1.79.28.43.44.88.44,1.34v1.72c2.9-.5,4.68-1.42,5.14-1.95v-2.89Zm0,6.52c-1.37.65-3.15,1.13-5.14,1.43v3.06c2.9-.5,4.68-1.42,5.14-1.95v-2.54Z" fill="#fff"/></g></svg>