<?xml version="1.0" encoding="UTF-8"?><svg id="b" xmlns="http://www.w3.org/2000/svg" width="13.59" height="13.59" viewBox="0 0 13.59 13.59"><g id="c"><g><path d="m4.23,4.94c.1-.69.39-1.22.89-1.57.43-.32.98-.48,1.64-.48.8,0,1.42.21,1.87.62.39.36.59.83.59,1.4,0,.37-.09.71-.29,1.02-.18.29-.47.6-.86.93-.41.34-.67.64-.78.9-.09.21-.14.53-.14.96h-.99v-.23c0-.5.07-.9.21-1.2.12-.26.35-.55.67-.87.37-.36.61-.66.72-.88.1-.19.16-.41.16-.64,0-.35-.12-.62-.36-.81-.21-.17-.47-.25-.81-.25-.41,0-.72.14-.96.41-.2.24-.31.56-.34.97l-1.24-.29Zm1.75,4.71h1.36v1.29h-1.36v-1.29Z" fill="#4d4948"/><circle cx="6.8" cy="6.8" r="6.3" fill="none" stroke="#000" stroke-miterlimit="10"/></g></g></svg>