<?xml version="1.0" encoding="UTF-8"?><svg id="_レイヤー_2" xmlns="http://www.w3.org/2000/svg" width="18" height="18" viewBox="0 0 18 18"><g id="_レイヤー_1-2"><path d="m13.5,6.75v9c0,1.23-1.02,2.25-2.25,2.25H2.25c-1.23,0-2.25-1.02-2.25-2.25V6.75c0-1.23,1.02-2.25,2.25-2.25h9c1.23,0,2.25,1.02,2.25,2.25Zm-1.12,3.38H1.12v5.62c0,.63.49,1.12,1.12,1.12h9c.63,0,1.12-.49,1.12-1.12v-5.62Zm5.62-7.88v9c0,1.23-1.02,2.25-2.25,2.25h-1.12v-1.12h1.12c.63,0,1.12-.49,1.12-1.12V2.25c0-.63-.49-1.12-1.12-1.12H6.75c-.63,0-1.12.49-1.12,1.12v1.12h-1.12v-1.12c0-1.23,1.02-2.25,2.25-2.25h9c1.23,0,2.25,1.02,2.25,2.25Z" style="fill:#0094e2;"/></g></svg>