<?xml version="1.0" encoding="UTF-8"?><svg id="_レイヤー_2" xmlns="http://www.w3.org/2000/svg" width="13.5" height="18" viewBox="0 0 13.5 18"><g id="_レイヤー_1-2"><path d="m13.5,5.98v9.77c0,1.23-1.02,2.25-2.25,2.25H2.25c-1.23,0-2.25-1.02-2.25-2.25V2.25C0,1.02,1.02,0,2.25,0h5.27c.56,0,1.16.25,1.58.67l3.73,3.73c.42.42.67,1.02.67,1.58Zm-1.12.77h-3.94c-.91,0-1.69-.77-1.69-1.69V1.12H2.25c-.63,0-1.12.49-1.12,1.12v13.5c0,.63.49,1.12,1.12,1.12h9c.63,0,1.12-.49,1.12-1.12V6.75Zm-4.32,4.54c.39-.07,1.27-.18,1.83-.18.74,0,1.37.6,1.37,1.34s-.6,1.37-1.34,1.37-1.83-.63-2.25-.91c-.74.14-1.41.35-2.04.56-.46.84-.91,1.48-1.12,1.79s-.6.49-1.02.49c-.67,0-1.23-.56-1.23-1.23,0-.39.14-.7.35-.91.53-.49,1.16-.95,1.97-1.3.35-.7.67-1.37.95-2.07-.53-1.2-.53-2.25-.53-2.25,0-.67.6-1.23,1.27-1.23s1.23.56,1.23,1.23c0,.18,0,1.05-.35,2.18.25.42.53.81.91,1.12Zm-3.55,2.18c-.46.25-.84.53-1.2.84-.04.04-.07.11-.07.14,0,.32.35.35.46.21.18-.21.46-.63.81-1.2Zm2.78-1.51c-.39-.35-.67-.74-.91-1.16-.21.6-.46,1.12-.7,1.62.53-.21,1.09-.35,1.62-.46Zm-1.27-3.97c0,.07,0,.7.28,1.51.07-.25.21-.95.21-1.51,0-.14-.11-.25-.25-.25s-.25.11-.25.25Zm1.86-2.92c0,.32.25.56.56.56h3.87c-.07-.14-.14-.32-.25-.42l-3.76-3.76c-.11-.11-.28-.18-.42-.25v3.87Zm.6,7.17c.35.21,1.12.6,1.44.6.18,0,.35-.18.35-.35,0-.21-.18-.39-.39-.39-.46,0-1.37.14-1.41.14Z" style="fill:#0094e2;"/></g></svg>