<?xml version="1.0" encoding="UTF-8"?><svg id="b" xmlns="http://www.w3.org/2000/svg" width="17.7" height="20.23" viewBox="0 0 17.7 20.23"><g id="c"><path d="m17.7,13.36c0,1.94-1.73,3.58-3.91,4.14l2.32,2.32c.15.15.04.4-.17.4h-1.91c-.11,0-.26-.06-.34-.14l-2.39-2.39h-4.9l-2.39,2.39c-.08.08-.23.14-.34.14h-1.91c-.21,0-.32-.26-.17-.4l2.32-2.32c-2.18-.55-3.91-2.19-3.91-4.14V4.33C0,1.81,2.8,0,5.46,0h6.77c2.69,0,5.46,1.81,5.46,4.33v9.03Zm-9.8-4.51v-3.16H1.9v3.16h6Zm-6,1.9v2.62c0,1.43,2.05,2.44,3.57,2.44h6.77c1.49,0,3.57-.99,3.57-2.44v-2.62H1.9ZM15.7,3.79c-.4-1.03-1.9-1.9-3.46-1.9h-6.77c-1.54,0-3.04.86-3.46,1.9h13.69ZM3.48,12.96c0-.87.71-1.58,1.58-1.58s1.58.71,1.58,1.58-.71,1.58-1.58,1.58-1.58-.71-1.58-1.58Zm6.32-7.27v3.16h6v-3.16h-6Zm2.84,5.69c.87,0,1.58.71,1.58,1.58s-.71,1.58-1.58,1.58-1.58-.71-1.58-1.58.71-1.58,1.58-1.58Z" fill="#fff"/></g></svg>