<?xml version="1.0" encoding="UTF-8"?><svg id="b" xmlns="http://www.w3.org/2000/svg" width="19.59" height="19.59" viewBox="0 0 19.59 19.59"><g id="c"><path d="m19.59,9.8c0,5.41-4.39,9.8-9.8,9.8S0,15.21,0,9.8,4.39,0,9.8,0s9.8,4.39,9.8,9.8Zm-1.9,0c0-4.37-3.54-7.9-7.9-7.9S1.9,5.43,1.9,9.8s3.54,7.9,7.9,7.9,7.9-3.54,7.9-7.9Zm-8.81,1.34c-.12-.09-.19-.23-.19-.38v-6.49c0-.26.21-.47.47-.47h1.26c.26,0,.47.21.47.47v5.6l2.64,1.92c.21.15.26.45.1.66l-.74,1.02c-.15.21-.45.26-.66.1l-3.35-2.44Z" fill="#fff"/></g></svg>