<?xml version="1.0" encoding="UTF-8"?><svg id="b" xmlns="http://www.w3.org/2000/svg" width="20.23" height="17.7" viewBox="0 0 20.23 17.7"><g id="c"><path d="m19.95,4.42l-3.13,2.88c-.6.6-1.65.17-1.65-.67v-1.9h-.47L5.21,15.01c-.09.1-.22.15-.35.15H.47c-.26,0-.47-.21-.47-.47v-1.26c0-.26.21-.47.47-.47h3.63L13.6,2.68c.09-.1.22-.15.35-.15h1.22V.95c0-.84,1.05-1.26,1.65-.67l3.13,2.8c.37.37.37.97,0,1.34Zm-19.95-.16v-1.26c0-.26.21-.47.47-.47h4.39c.13,0,.26.06.35.15l3.55,3.84-1.51,1.63-3.15-3.41H.47c-.26,0-.47-.21-.47-.48Zm16.82,13.16c-.6.6-1.65.17-1.65-.67v-1.58h-1.22c-.13,0-.26-.06-.35-.15l-3.55-3.84,1.51-1.63,3.15,3.41h.46v-1.9c0-.85,1.05-1.27,1.65-.67l3.13,2.8c.37.38.37.98,0,1.35l-3.13,2.88Z" fill="#fff"/></g></svg>