<?xml version="1.0" encoding="UTF-8"?><svg id="b" xmlns="http://www.w3.org/2000/svg" width="73.38" height="73.38" viewBox="0 0 73.38 73.38"><g id="c"><g id="d"><g><path d="m25.96,32.29l9.29,7.17.13.07.06.03c.8.45,1.87.21,2.58-.57l.06-.06,11.39-13.47c.65-.73.66-1.77.03-2.33s-1.67-.43-2.31.3l-10.64,11.37-8.22-5.72c-.77-.57-1.92-.3-2.57.58-.65.89-.55,2.06.22,2.63h-.02Z" fill="#4d4948"/><path d="m14.39,36.69c0-.49.01-.98.06-1.47h-5.83c-.04.48-.05.97-.05,1.47s0,.99.05,1.47h5.83c-.05-.48-.06-.97-.06-1.47Z" fill="#4d4948"/><path d="m24.71,17.88c.55-.35,1.11-.68,1.69-.97l.22-.11-2.91-5.05c-.73.37-1.44.77-2.12,1.22l2.91,5.05s.21-.14.21-.14Z" fill="#4d4948"/><path d="m11.76,23.71l5.05,2.91,1.22-2.12-5.05-2.91c-.45.69-.85,1.39-1.22,2.12Z" fill="#4d4948"/><path d="m56.46,46.98c-.3.57-.62,1.13-.98,1.68l-.15.21,5.05,2.91c.45-.69.85-1.38,1.23-2.11l-5.04-2.92-.12.23h0Z" fill="#4d4948"/><path d="m16.92,46.97l-.12-.22-5.04,2.91c.36.73.77,1.43,1.22,2.12l5.05-2.91-.15-.21c-.35-.54-.68-1.1-.97-1.69h.01Z" fill="#4d4948"/><path d="m24.71,55.48l-.21-.15-2.91,5.05c.69.45,1.4.86,2.12,1.23l2.91-5.05-.22-.11c-.57-.29-1.13-.62-1.69-.98h0Z" fill="#4d4948"/><path d="m46.75,16.8l2.12,1.23,2.91-5.05c-.69-.45-1.39-.85-2.11-1.22,0,0-2.92,5.04-2.92,5.04Z" fill="#4d4948"/><path d="m35.22,58.92v5.82c.48.04.97.05,1.47.05s.98,0,1.47-.05v-5.89h-2.93v.06h-.01Z" fill="#4d4948"/><path d="m38.15,14.46v-5.82c-.48-.04-.97-.05-1.47-.05s-.98,0-1.47.05v5.89h2.93v-.06h.01Z" fill="#4d4948"/><path d="m46.75,56.57l2.92,5.04c.72-.38,1.42-.78,2.11-1.23l-2.91-5.05s-2.12,1.24-2.12,1.24Z" fill="#4d4948"/><path d="m61.62,23.71c-.37-.73-.78-1.43-1.23-2.12l-5.05,2.91,1.23,2.12,5.05-2.91Z" fill="#4d4948"/><path d="m64.75,35.22h-5.89v2.94h5.89c.04-.48.04-.97.04-1.47s0-.98-.04-1.47Z" fill="#4d4948"/><path d="m36.69,0C16.42,0,0,16.42,0,36.69s16.42,36.69,36.69,36.69,36.69-16.42,36.69-36.69c0-20.27-16.43-36.69-36.69-36.69Zm0,68.64c-8.83,0-16.81-3.57-22.59-9.36-5.79-5.79-9.36-13.76-9.36-22.59s3.57-16.8,9.36-22.59c5.79-5.79,13.76-9.36,22.59-9.36s16.8,3.57,22.59,9.36c5.79,5.79,9.36,13.76,9.36,22.59s-3.57,16.8-9.36,22.59-13.76,9.36-22.59,9.36Z" fill="#4d4948"/></g></g></g></svg>