<?xml version="1.0" encoding="UTF-8"?><svg id="b" xmlns="http://www.w3.org/2000/svg" width="57.39" height="80.9" viewBox="0 0 57.39 80.9"><g id="c"><g id="d"><path d="m57.38,55.56V14.2c0-7.84-6.36-14.2-14.2-14.2H14.2C6.36,0,0,6.36,0,14.2v41.36c0,5.95,4.33,10.9,10,11.89l-8.91,13.45h7.92l3.66-5.52h32.06l3.65,5.52h7.92l-8.9-13.45c5.67-.99,9.99-5.94,9.99-11.89h-.01ZM16.39,6.38h24.59v4.1h-24.59s0-4.1,0-4.1Zm-7.4,13.25c0-1.78,1.44-3.23,3.23-3.23h32.94c1.78,0,3.23,1.45,3.23,3.23v13.62c0,1.78-1.45,3.23-3.23,3.23H12.22c-1.78,0-3.23-1.45-3.23-3.23v-13.62h0Zm3.07,39.47c-2.08,0-3.76-1.69-3.76-3.76s1.69-3.77,3.76-3.77,3.76,1.69,3.76,3.77-1.69,3.76-3.76,3.76Zm2.97,12.69l2.75-4.16h21.8l2.75,4.16s-27.3,0-27.3,0Zm30.27-12.69c-2.08,0-3.76-1.69-3.76-3.76s1.69-3.77,3.76-3.77,3.76,1.69,3.76,3.77-1.69,3.76-3.76,3.76Z" fill="#4d4948"/></g></g></svg>