<?xml version="1.0" encoding="UTF-8"?><svg id="b" xmlns="http://www.w3.org/2000/svg" width="89.92" height="78.75" viewBox="0 0 89.92 78.75"><g id="c"><g><path d="m58.03,67.71v-5.14h-4.99v-2.28h4.99v-2.04h-4.99v-2.28h3.84l-5.24-9.11h5.25l2.24,5.13c.56,1.28.94,2.38,1.35,3.5h.06c.43-1.05.83-2.27,1.37-3.52l2.29-5.1h5.13l-5.48,9.11h3.83v2.28h-5.05v2.04h5.05v2.28h-5.05v5.14h-4.6Z" fill="#4d4948"/><g><path d="m34.05,65.72c-1.1,0-1.99.89-1.99,1.99s.89,1.99,1.99,1.99,1.99-.89,1.99-1.99-.89-1.99-1.99-1.99Z" fill="#4d4948"/><path d="m34.05,58.29c-1.1,0-1.99.89-1.99,1.99s.89,1.99,1.99,1.99,1.99-.89,1.99-1.99-.89-1.99-1.99-1.99Z" fill="#4d4948"/><path d="m86.31,34.37H14.44v44.38h75.48v-44.38h-3.61Zm0,40.76h-50.27c0-1.1-.89-1.99-1.99-1.99s-1.99.89-1.99,1.99h-14v-37.15h14c0,1.1.89,1.99,1.99,1.99s1.99-.89,1.99-1.99h50.27v37.15h0Z" fill="#4d4948"/><path d="m34.05,50.86c-1.1,0-1.99.89-1.99,1.99s.89,1.99,1.99,1.99,1.99-.89,1.99-1.99-.89-1.99-1.99-1.99Z" fill="#4d4948"/><path d="m34.05,43.43c-1.1,0-1.99.89-1.99,1.99s.89,1.99,1.99,1.99,1.99-.89,1.99-1.99-.89-1.99-1.99-1.99Z" fill="#4d4948"/><polygon points="20.7 28.88 64.89 4.9 78.92 30.76 83.03 30.76 68.06 3.17 66.34 0 63.16 1.72 18.98 25.7 18.66 25.87 15.48 27.6 3.18 34.27 0 36 1.72 39.17 10.83 55.96 10.83 48.38 4.9 37.45 10.83 34.23 20.7 28.88" fill="#4d4948"/></g></g></g></svg>