<?xml version="1.0" encoding="UTF-8"?><svg id="_レイヤー_2" xmlns="http://www.w3.org/2000/svg" width="12" height="12" viewBox="0 0 12 12"><g id="_レイヤー_1-2"><path d="m12,3.56v1.88c0,.3-.26.56-.56.56h-.19v3.89c0,.3-.23.61-.61.61h-.14v.75c0,.42-.33.75-.75.75h-.75c-.42,0-.75-.33-.75-.75v-.75H3.75v.75c0,.42-.33.75-.75.75h-.75c-.42,0-.75-.33-.75-.75v-.75c-.42,0-.75-.33-.75-.75v-3.75h-.19c-.3,0-.56-.26-.56-.56v-1.88c0-.3.26-.56.56-.56h.19v-1.12C.75.82,3.07,0,6,0s5.25.82,5.25,1.88v1.12h.19c.3,0,.56.26.56.56ZM3.38,8.62c0-.42-.33-.75-.75-.75s-.75.33-.75.75.33.75.75.75.75-.33.75-.75Zm2.25-5.62h-2.62c-.42,0-.75.33-.75.75v2.25c0,.42.33.75.75.75h2.62v-3.75Zm-1.88-1.12c0,.21.16.38.38.38h3.75c.21,0,.38-.16.38-.38s-.16-.38-.38-.38h-3.75c-.21,0-.38.16-.38.38Zm5.25,4.88c.42,0,.75-.33.75-.75v-2.25c0-.42-.33-.75-.75-.75h-2.62v3.75h2.62Zm1.12,1.88c0-.42-.33-.75-.75-.75s-.75.33-.75.75.33.75.75.75.75-.33.75-.75Z" style="fill:#0094e2;"/></g></svg>