<?xml version="1.0" encoding="UTF-8"?><svg id="b" xmlns="http://www.w3.org/2000/svg" width="9.84" height="11.25" viewBox="0 0 9.84 11.25"><g id="c"><path d="m9.84,2.11v5.62c0,1.1-.83,1.98-1.89,2.09l1.14,1.12c.11.11.02.31-.13.31h-.92c-.09,0-.18-.04-.24-.11l-1.32-1.3h-3.12l-1.32,1.3c-.07.07-.15.11-.24.11h-.92c-.15,0-.24-.2-.13-.31l1.14-1.12c-1.05-.11-1.89-.99-1.89-2.09V2.11C0,.94.94,0,2.11,0h5.62c1.16,0,2.11.94,2.11,2.11Zm-5.27.7c0-.4-.31-.7-.7-.7h-1.76c-.4,0-.7.31-.7.7v2.11c0,.4.31.7.7.7h1.76c.4,0,.7-.31.7-.7v-2.11Zm-2.46,5.62c.4,0,.7-.31.7-.7s-.31-.7-.7-.7-.7.31-.7.7.31.7.7.7Zm6.33-5.62c0-.4-.31-.7-.7-.7h-1.76c-.4,0-.7.31-.7.7v2.11c0,.4.31.7.7.7h1.76c.4,0,.7-.31.7-.7v-2.11Zm0,4.92c0-.4-.31-.7-.7-.7s-.7.31-.7.7.31.7.7.7.7-.31.7-.7Z" fill="#fff"/></g></svg>