<?xml version="1.0" encoding="UTF-8"?><svg id="_レイヤー_2" xmlns="http://www.w3.org/2000/svg" width="12" height="12" viewBox="0 0 12 12"><g id="_レイヤー_1-2"><path d="m1.12,6c0,.3-.26.56-.56.56s-.56-.26-.56-.56C0,3.73,1.85,1.88,4.12,1.88h3.38V.56c0-.23.14-.42.35-.52s.45-.05.61.12l1.88,1.88c.21.21.21.59,0,.8l-1.88,1.88c-.16.16-.4.21-.61.12s-.35-.28-.35-.52v-1.31h-3.38c-1.66,0-3,1.34-3,3Zm10.88,0c0,2.27-1.85,4.12-4.12,4.12h-3.38v1.31c0,.23-.14.42-.35.52s-.45.05-.61-.12l-1.88-1.88c-.21-.21-.21-.59,0-.8l1.88-1.88c.16-.16.4-.21.61-.12s.35.28.35.52v1.31h3.38c1.66,0,3-1.34,3-3,0-.3.26-.56.56-.56s.56.26.56.56Z" style="fill:#0094e2;"/></g></svg>