<?xml version="1.0" encoding="UTF-8"?><svg id="b" xmlns="http://www.w3.org/2000/svg" width="9.47" height="15.03" viewBox="0 0 9.47 15.03"><g id="c"><g><path d="m5.41,2.79c.77,0,1.39-.62,1.39-1.39s-.62-1.39-1.39-1.39-1.39.62-1.39,1.39c0,.77.62,1.39,1.39,1.39Z" fill="#0094e2"/><path d="m9.2,6.95l-1.6-.84-.67-1.38c-.34-.7-.99-1.19-1.75-1.33l-.69-.13c-.35-.06-.71-.02-1.03.13l-2.02.95c-.22.11-.4.29-.5.52L.04,6.96c-.06.13-.06.28,0,.42.05.13.16.24.29.3h.02c.27.12.57,0,.69-.27l.82-1.78,1.3-.42-1.29,5.74-1.26,3.13c-.07.17-.06.37.02.54.08.17.23.29.41.34l.05.02c.29.08.6-.04.75-.3l1.49-2.57.89-1.76,1.62,1.79,1.2,2.53c.13.29.45.44.76.36h.01c.18-.05.33-.17.41-.33.09-.16.1-.35.04-.53l-.88-2.55c-.12-.36-.31-.69-.54-.99l-1.43-1.89.52-2.73.68.86c.08.11.19.19.32.25l1.78.8c.13.06.28.06.41,0,.13-.05.24-.15.29-.29h0c.1-.26,0-.55-.24-.68Z" fill="#0094e2"/></g></g></svg>