<?xml version="1.0" encoding="UTF-8"?><svg id="b" xmlns="http://www.w3.org/2000/svg" width="340" height="130" xmlns:xlink="http://www.w3.org/1999/xlink" viewBox="0 0 340 130"><defs><filter id="d" filterUnits="userSpaceOnUse"><feOffset dx="0" dy="0"/><feGaussianBlur result="e" stdDeviation="4.22"/><feFlood flood-color="#000" flood-opacity=".23"/><feComposite in2="e" operator="in"/><feComposite in="SourceGraphic"/></filter></defs><g id="c"><g><path d="m319.71,13.08H19.97c-3.54,0-6.4,2.87-6.4,6.4v71.04c0,3.54,2.87,6.4,6.4,6.4h138.85l11.02,19.09,11.02-19.09h138.85c3.54,0,6.4-2.87,6.4-6.4V19.48c0-3.54-2.87-6.4-6.4-6.4Z" fill="#fff" filter="url(#d)"/><g><path d="m78.86,63.33c-.35.49-.57,1.03-.66,1.62-.08.43-.17.68-.26.74-.08.07-.32.12-.71.15-3.17.15-6.03.22-8.59.22-2.92,0-4.99-.25-6.21-.75-1.03-.43-1.9-1.17-2.61-2.22-.51.5-1.33,1.2-2.46,2.1-.25.19-.44.37-.58.53-.14.17-.26.26-.35.26-.12,0-.25-.12-.38-.36-.3-.58-.63-1.33-.99-2.25.63-.31,1.13-.58,1.52-.82.57-.35,1.21-.86,1.93-1.55v-5.71h-1.1l-1.79.06c-.15,0-.24-.02-.26-.06-.03-.03-.05-.12-.05-.25v-1.93c0-.13.02-.21.06-.24.03-.02.12-.04.25-.04l1.79.05h1.47l1.86-.05c.13,0,.21.02.25.05.02.03.04.11.04.22l-.05,2.49v5.68c.49.92,1.23,1.58,2.23,1.98.94.34,2.66.51,5.15.51,3.52,0,7.02-.15,10.51-.46Zm-20.91-19.15c1.25,1.17,2.31,2.43,3.19,3.76.06.08.09.15.09.2,0,.07-.08.17-.25.3l-1.41,1.15c-.15.12-.25.17-.31.17-.04,0-.12-.07-.22-.2-.88-1.47-1.92-2.79-3.12-3.96-.07-.07-.11-.13-.11-.17,0-.06.08-.14.24-.26l1.35-.97c.14-.12.25-.17.32-.17.05,0,.13.05.24.15Zm7.67,17.04l-3.46.05c-.14,0-.22-.02-.25-.05-.02-.03-.04-.11-.04-.22v-1.46c0-.13.02-.21.05-.23.03-.02.11-.04.24-.04l3.46.05h2.82v-1.11h-1.73l-3.29.05c-.17,0-.25-.09-.25-.27l.02-2.1v-2.56l-.02-2.12c0-.18.08-.27.25-.27l3.29.05h1.73v-1.14h-2l-2.44.06c-.13,0-.21-.02-.24-.05-.02-.03-.04-.11-.04-.23v-.68h-1.83c-.19,0-.29-.09-.29-.26l.06-2.33v-.63l-.06-1.16c0-.15.02-.24.06-.27.03-.02.1-.04.22-.04l3.53.05h8.54l3.53-.05c.13,0,.21.02.24.06.02.03.04.12.04.25l-.04,1.01v.78l.04,2.33c0,.17-.09.26-.27.26h-1.89v.68c0,.14-.02.22-.06.25-.03.02-.1.04-.22.04l-2.44-.06h-2.15v1.14h1.86l3.27-.05c.13,0,.21.02.24.05.02.03.04.11.04.22l-.04,2.12v2.56l.04,2.1c0,.12-.01.2-.04.23-.03.03-.11.04-.23.04l-3.27-.05h-1.86v1.11h3.14l3.5-.05c.13,0,.21.02.24.05.02.03.04.11.04.22v1.46c0,.12-.01.2-.04.23-.03.03-.1.04-.23.04l-3.5-.05h-3.14l.05,1.77c0,.19-.09.28-.27.28h-1.83c-.18,0-.27-.09-.27-.28,0-.02,0-.22.01-.58.02-.39.03-.78.04-1.19h-2.82Zm9.69-14.92h-11.31v1.75l2.44.05h1.98c-.03-.48-.09-.92-.16-1.31.88.02,1.66.07,2.36.15.25.03.38.11.38.23,0,.08-.04.22-.14.42-.07.14-.12.31-.15.51h2.15l2.44-.05v-1.75Zm-9.89,7.52h3.02v-1.27h-3.02v1.27Zm0,2.78h3.02v-1.29h-3.02v1.29Zm8.39-4.06h-3.09v1.27h3.09v-1.27Zm0,4.06v-1.29h-3.09v1.29h3.09Z" fill="#4d4948"/><path d="m88.17,43.06c.68.23,1.36.5,2.03.8.24.12.36.25.36.41,0,.13-.14.26-.41.38-.12.06-.35.29-.68.71-.26.31-.54.61-.84.92v3.97l.05,1.83c0,.14-.02.23-.05.26-.03.02-.11.04-.22.04h-2.03c-.15,0-.24-.02-.27-.05-.03-.03-.04-.12-.04-.25l.05-1.62v-2c-.68.5-1.45,1.01-2.33,1.51-.32.19-.52.28-.58.28-.11,0-.27-.2-.48-.61-.31-.57-.64-1-.99-1.29,2.29-1.11,4.2-2.54,5.73-4.32.23-.26.47-.59.71-.98Zm.87,19.71c.68.25,1.42.56,2.23.93.24.1.36.23.36.38,0,.15-.13.25-.38.31-.18.03-.53.19-1.04.46-1.61.82-3.54,1.41-5.78,1.77-.15.03-.33.05-.53.05-.18,0-.38-.18-.61-.53-.4-.69-.78-1.19-1.16-1.52,2.43-.24,4.34-.64,5.73-1.19.4-.16.79-.38,1.19-.66Zm8.69-9.74l3.5-.05c.13,0,.21.02.24.05.02.03.04.11.04.22l-.05,2.49v4.26l.05,2.49c0,.12-.01.2-.04.23-.03.03-.11.04-.23.04l-3.5-.05h-8.29l-3.51.05c-.14,0-.22-.02-.25-.05-.02-.03-.04-.11-.04-.22l.05-2.49v-4.26l-.05-2.49c0-.13.02-.21.05-.24.03-.02.11-.04.24-.04l3.51.05h8.29Zm-9.6,1.74v1.06h10.87v-1.06h-10.87Zm0,3.63h10.87v-1.06h-10.87v1.06Zm10.87,2.59v-1.09h-10.87v1.09h10.87Zm-4.8-8.92l-3.3.05c-.13,0-.21-.02-.24-.06-.02-.03-.04-.11-.04-.24v-1.26c0-.14.02-.22.05-.25s.11-.04.22-.04l3.3.05h1.72v-1.31h-2.44l-3.44.05c-.13,0-.21-.02-.25-.05-.02-.03-.04-.11-.04-.22v-1.41c0-.13.02-.21.05-.23.03-.02.11-.04.24-.04l3.44.05h2.44v-1.14c-1.55.1-2.69.16-3.4.17-.14,0-.24.01-.31.01-.21,0-.34-.04-.41-.11-.05-.05-.12-.19-.21-.41-.21-.5-.46-.92-.77-1.26,3.76-.02,6.8-.28,9.12-.77.5-.07.95-.2,1.35-.37.63.4,1.19.81,1.7,1.24.16.13.24.25.24.36,0,.16-.16.25-.48.27-.26.02-.6.08-1.01.16-.72.14-1.84.31-3.38.49v1.35h2.92l3.42-.05c.14,0,.22.02.25.05.02.03.04.11.04.22v1.41c0,.13-.02.21-.05.23s-.11.04-.24.04l-3.42-.05h-2.92v1.31h1.96l3.29-.05c.14,0,.22.02.25.05.03.03.04.11.04.24v1.26c0,.14-.02.23-.05.26-.03.02-.11.04-.24.04l-3.29-.05h-6.1Zm3.82,10.8c1.68.84,3.98,1.41,6.89,1.7-.45.45-.86.98-1.21,1.57-.21.34-.42.51-.61.51-.12,0-.31-.02-.59-.07-1.25-.2-2.53-.54-3.86-1.03-1.2-.45-2.22-.93-3.04-1.46-.11-.07-.16-.13-.16-.19,0-.07.09-.14.27-.22l1.71-.78c.16-.08.27-.12.33-.12.06,0,.15.03.27.1Z" fill="#4d4948"/><path d="m120.49,52.4c.75,0,1.38.28,1.88.84.44.48.66,1.04.66,1.7,0,.75-.28,1.38-.84,1.88-.48.44-1.04.66-1.7.66-.75,0-1.38-.28-1.88-.84-.44-.48-.66-1.04-.66-1.7,0-.75.28-1.38.84-1.88.48-.44,1.04-.66,1.7-.66Z" fill="#4d4948"/><path d="m143.93,63.53c0,.13-.01.21-.04.24-.03.03-.11.04-.23.04h-1.83c-.17,0-.25-.09-.25-.28v-1.11h-2.34v2c0,.18-.08.27-.25.27h-1.88c-.13,0-.21-.02-.24-.05-.02-.03-.04-.11-.04-.22l.05-7.81v-5.52l-.05-6.09c0-.13.02-.21.05-.24.03-.02.11-.04.24-.04l2.17.05h2.19l2.18-.05c.13,0,.21.02.24.05.02.03.04.11.04.22l-.05,5.12v5.8l.05,7.6Zm-2.35-16.45h-2.34v5.25h2.34v-5.25Zm-2.34,13.03h2.34v-5.48h-2.34v5.48Zm9.08-6.74l-3.4.05c-.15,0-.23-.02-.26-.06-.02-.03-.04-.11-.04-.24v-1.76c0-.13.02-.21.05-.23.03-.02.12-.04.25-.04l3.4.05h1.82v-2.61h-1.19l-3.19.05c-.15,0-.24-.02-.27-.05-.02-.03-.04-.11-.04-.23v-1.77c0-.14.02-.23.06-.26.03-.02.12-.04.25-.04l3.19.05h1.19c-.02-1.25-.08-2.21-.17-2.87.85.02,1.72.09,2.61.19.27.02.41.11.41.25,0,.08-.05.26-.16.53-.08.19-.12.83-.12,1.91h1.7l3.22-.05c.14,0,.22.02.25.05.02.03.04.12.04.25v1.77c0,.14-.02.22-.05.25-.03.02-.11.04-.24.04l-3.22-.05h-1.7v2.61h2.69l3.4-.05c.14,0,.23.02.26.05.03.03.04.11.04.22v1.76c0,.14-.02.23-.05.26-.03.02-.12.04-.25.04l-3.4-.05h-7.07Zm.1,4.76l-3.38.05c-.15,0-.24-.02-.26-.05-.02-.03-.04-.11-.04-.22v-1.78c0-.13.02-.21.05-.24.03-.02.12-.04.25-.04l3.38.05h4.99c-.02-.71-.07-1.45-.17-2.23,1.06.06,1.91.13,2.55.22.29.06.43.15.43.28,0,.12-.04.26-.12.43-.08.17-.12.59-.12,1.29l2.54-.05c.14,0,.23.02.26.05.02.03.04.11.04.22v1.78c0,.12-.01.2-.04.23-.03.03-.11.04-.25.04-.03,0-.14,0-.33-.01-.66-.02-1.39-.03-2.2-.04v2.51l.02,3.12c0,1.01-.3,1.73-.89,2.15-.54.37-1.64.56-3.29.56-.4,0-.65-.04-.73-.11-.07-.07-.15-.29-.24-.66-.17-.7-.42-1.32-.75-1.84.78.07,1.61.1,2.48.1.56,0,.84-.26.84-.79v-5.04h-4.99Zm.1.73c.83.85,1.6,1.82,2.33,2.92.07.09.1.16.1.21,0,.07-.07.17-.22.27l-1.55,1.06c-.15.1-.25.15-.3.15-.07,0-.14-.06-.21-.17-.64-1.08-1.38-2.12-2.23-3.12-.08-.09-.12-.16-.12-.21,0-.07.08-.15.25-.25l1.42-.89c.12-.07.22-.11.29-.11s.15.05.25.14Z" fill="#4d4948"/><path d="m162.59,64.32c4.6-2.03,8.13-4.78,10.59-8.24.33-.45.62-.95.87-1.52.5.25,1.14.61,1.92,1.09.27.17.41.33.41.51,0,.15-.09.28-.28.41-.17.09-.45.4-.85.94-.83,1.11-1.71,2.12-2.64,3.03,1.16,1.16,2.61,2.22,4.36,3.17-.51.52-.95,1.07-1.31,1.66-.22.39-.38.58-.48.58s-.29-.12-.58-.36c-1.42-1.03-2.69-2.15-3.8-3.37-1.7,1.45-3.63,2.75-5.78,3.9-.31.15-.52.22-.64.22s-.3-.19-.53-.56c-.34-.55-.75-1.04-1.24-1.46Zm3.95-15.74l-3.29.05c-.13,0-.21-.02-.24-.05-.02-.03-.04-.11-.04-.22v-1.81c0-.14.02-.23.05-.26.03-.02.11-.04.22-.04l3.29.05h2v-.46c0-1.01-.05-1.83-.15-2.44.96.02,1.83.07,2.61.15.27.03.41.12.41.26,0,.16-.05.33-.15.53-.09.17-.14.66-.14,1.5v.46h1.47l3.27-.05c.13,0,.21.02.25.05.03.03.04.12.04.25v1.81c0,.13-.02.21-.06.24-.02.02-.1.04-.22.04l-3.27-.05h-3.98c.75.26,1.36.51,1.83.73.17.1.25.21.25.33,0,.14-.09.28-.27.41-.14.1-.32.33-.53.68-.67.92-1.31,1.71-1.93,2.39.07.07.31.3.71.67.25.25.45.45.62.62.88-.91,1.63-1.85,2.28-2.83.35-.48.64-1,.89-1.57.79.35,1.46.69,1.99,1.02.25.15.38.29.38.42,0,.15-.1.28-.31.41-.21.13-.46.4-.73.79-2.52,3.56-5.44,6.22-8.74,7.98-.34.17-.54.25-.61.25-.12,0-.3-.19-.54-.58-.39-.63-.79-1.13-1.21-1.5,1.72-.69,3.3-1.6,4.74-2.73-1.28-1.4-2.62-2.61-4.01-3.63-.12-.07-.17-.13-.17-.2s.06-.16.19-.28l1.11-1.19c.12-.13.21-.2.27-.2.05,0,.13.03.24.1l1.16.92c.58-.65,1.09-1.35,1.55-2.1.18-.3.32-.6.41-.89h-1.63Zm13.56-2.49s-.05.2-.15.56c-.07.24-.1,1.14-.1,2.71v6.99l.05,3.35c0,.14-.01.22-.04.25-.03.03-.11.04-.23.04h-2.05c-.14,0-.22-.02-.25-.05-.02-.03-.04-.12-.04-.25l.05-3.35v-6.97c0-1.71-.06-2.96-.17-3.75.91.02,1.77.08,2.57.17.24.02.36.12.36.28Zm-1.79,17.36c.84.08,1.77.12,2.79.12.45,0,.74-.08.89-.23.15-.15.22-.41.22-.78v-15.21c0-1.5-.07-2.71-.2-3.61.99.02,1.89.08,2.69.17.27.02.41.12.41.27,0,.14-.05.33-.16.56-.1.21-.15,1.06-.15,2.56v10.73l.05,5.04c0,.7-.07,1.23-.21,1.6-.14.36-.38.66-.71.89-.39.25-.86.42-1.41.51-.54.08-1.36.12-2.44.12-.4,0-.65-.05-.73-.14-.07-.07-.14-.3-.24-.67-.2-.83-.47-1.47-.8-1.93Z" fill="#4d4948"/><path d="m193.25,56.1l-3.17.05c-.17,0-.25-.09-.25-.27v-1.78c0-.18.08-.27.25-.27l3.17.05h6.38v-1.86h-3.29l-3.47.05c-.15,0-.24-.02-.27-.05-.03-.03-.04-.11-.04-.22v-1.71c0-.13.02-.21.05-.24.04-.02.13-.04.26-.04l3.47.05h3.29v-1.7h-4.43l-3.39.05c-.15,0-.24-.02-.27-.05-.03-.03-.04-.11-.04-.22v-1.76c0-.13.02-.21.05-.23.04-.02.13-.04.26-.04l3.39.05h4.43v-.25c0-.98-.07-1.79-.2-2.41,1.09.03,2.02.09,2.78.17.26.02.38.11.38.26,0,.14-.04.33-.12.56-.12.2-.17.66-.17,1.4v.27h4.86l3.42-.05c.13,0,.21.02.25.05.02.03.04.11.04.22v1.76c0,.13-.02.21-.05.24-.03.02-.11.04-.24.04l-3.42-.05h-4.86v1.7h3.8l3.49-.05c.14,0,.22.02.25.05.02.03.04.11.04.22v1.71c0,.13-.02.21-.05.24-.03.02-.11.04-.23.04l-3.49-.05h-3.8v1.86h6.81l3.17-.05c.13,0,.21.02.23.05.02.02.03.1.03.22v1.78c0,.13-.01.21-.04.24-.03.02-.1.04-.22.04l-3.17-.05h-5.44c.5,1.17,1.15,2.24,1.96,3.19.92-.69,1.65-1.34,2.2-1.96.31-.31.57-.67.78-1.06.85.5,1.52.94,2,1.35.17.13.26.26.26.38,0,.17-.11.3-.33.37-.21.05-.48.22-.83.51-.87.75-1.71,1.41-2.54,1.98,1.67,1.41,3.64,2.4,5.9,2.97-.54.5-.99,1.09-1.35,1.77-.2.39-.38.58-.53.58-.05,0-.25-.06-.61-.17-4.75-2.02-7.9-5.33-9.45-9.91h-.3c-.59.63-1.26,1.26-2.03,1.91v5.21c1.63-.3,3.41-.72,5.35-1.24-.08.4-.12.9-.12,1.5-.02.41-.07.66-.15.73-.07.07-.29.16-.67.26-2.66.69-5.46,1.29-8.42,1.79-.53.08-.85.17-.97.26-.15.1-.28.15-.4.15-.21,0-.34-.12-.41-.36-.28-.88-.48-1.65-.61-2.3,1.04-.06,2.04-.14,3.01-.26l.82-.1v-3.85c-1.48.9-3.02,1.65-4.62,2.24-.28.1-.47.15-.58.15-.16,0-.34-.21-.56-.63-.26-.5-.61-.97-1.06-1.42,1.62-.42,3.2-1.02,4.71-1.79,1.38-.69,2.52-1.44,3.43-2.24h-4.32Z" fill="#4d4948"/><path d="m225.91,43.65c1.19.19,2.15.43,2.88.72.21.07.31.22.31.43,0,.16-.06.28-.17.37-.15.12-.29.33-.43.61-.03.08-.09.21-.16.37-.15.35-.29.69-.43,1,1.63-.19,3.17-.45,4.62-.79.06,0,.11-.01.15-.01.13,0,.22.09.26.27.15.59.24,1.19.26,1.82v.07c0,.18-.14.29-.43.33-1.97.29-3.95.54-5.94.77-.83,1.34-1.46,2.27-1.89,2.81l.02.05c.8-.52,1.65-.78,2.54-.78,1.82,0,2.85.91,3.08,2.73,1.73-.8,2.98-1.39,3.74-1.78.82-.43,1.46-.88,1.92-1.36.78.83,1.38,1.57,1.78,2.23.13.21.2.39.2.56,0,.19-.13.31-.38.36-.51.07-1.03.2-1.55.38-2.48.88-4.3,1.55-5.45,2.02v4.08c0,.26-.16.41-.48.46-.55.08-1.15.12-1.79.12-.22,0-.33-.14-.33-.41,0-1.45,0-2.48.02-3.08-1.17.6-1.99,1.19-2.46,1.77-.4.48-.59,1.01-.59,1.6,0,1.16,1.17,1.75,3.51,1.75,1.84,0,3.94-.17,6.31-.51h.07c.17,0,.26.09.27.28.16.7.24,1.39.24,2.08v.09c0,.26-.1.38-.29.38-1.72.22-3.81.33-6.27.33-4.24,0-6.36-1.39-6.36-4.18,0-1.29.47-2.45,1.41-3.45.83-.89,2.15-1.8,3.94-2.72-.04-.68-.17-1.15-.38-1.4-.2-.24-.53-.36-.99-.36h-.15c-.98.04-2.15.65-3.5,1.83-.78.77-1.63,1.69-2.54,2.76-.12.15-.23.22-.31.22-.07,0-.16-.06-.27-.17-.72-.72-1.2-1.27-1.45-1.67-.07-.09-.1-.17-.1-.23,0-.09.06-.18.17-.27,2.3-2.05,4.07-4.15,5.31-6.29-1.18.05-2.53.07-4.06.07-.19,0-.31-.14-.36-.41-.06-.32-.14-1.02-.25-2.09.81.03,1.66.05,2.55.05,1.07,0,2.17-.03,3.28-.09.3-.75.56-1.48.75-2.18.12-.5.19-1.02.19-1.55Z" fill="#4d4948"/><path d="m263.89,60.59c.54.35,1.16.65,1.84.88.27.1.44.17.5.22.07.06.1.14.1.26,0,.06-.01.19-.04.38-.07.92-.21,1.59-.42,2.03-.17.36-.42.67-.77.92-.64.5-2.05.75-4.23.75-1.92,0-3.19-.12-3.81-.36-.69-.3-1.04-.9-1.04-1.79v-5.25h-2.29c-.73,4.27-3.33,6.88-7.78,7.81-.25.05-.42.07-.53.07-.17,0-.37-.21-.58-.63-.35-.67-.76-1.22-1.24-1.65,4.39-.54,6.84-2.41,7.35-5.61h-.05l-3.43.05c-.14,0-.23-.02-.26-.05-.02-.03-.04-.11-.04-.24l.05-3.08v-7.59l-.05-3.14c0-.13.02-.21.05-.24.04-.02.12-.04.25-.04l3.48.05h8.17l3.45-.05c.14,0,.22.02.25.05.02.03.04.11.04.22l-.05,3.14v7.59l.05,3.08c0,.13-.01.21-.04.24-.03.03-.11.04-.24.04l-3.45-.05h-.46v4.01c0,.49.15.76.46.83.27.08.93.12,1.97.12,1.15,0,1.88-.11,2.18-.33.4-.3.61-1.19.63-2.67Zm-3.72-13.92h-10.33v1.86h10.33v-1.86Zm-10.33,5.78h10.33v-1.79h-10.33v1.79Zm10.33,4.01v-1.88h-10.33v1.88h10.33Z" fill="#4d4948"/><path d="m282.65,47.76c-1.58.29-3.22.61-4.9.97-.44.1-.79.2-1.06.31-.21.08-.38.12-.51.12-.25,0-.43-.14-.56-.43-.26-.52-.56-1.43-.88-2.73.43.06.89.09,1.37.09.33,0,.66-.01.98-.04,1.74-.17,3.66-.46,5.75-.87.7-.14,1.16-.27,1.39-.38.23-.13.39-.2.48-.2.2,0,.39.07.58.2.68.52,1.24,1.06,1.7,1.62.19.21.28.42.28.62,0,.27-.14.47-.43.61-.29.14-.66.41-1.11.8-.52.51-1.48,1.47-2.88,2.88-1.05,1.05-1.91,1.9-2.59,2.55l.02.07c1.34-.76,2.68-1.14,4.03-1.14,1.99,0,3.57.63,4.75,1.89,1.02,1.11,1.54,2.5,1.54,4.2,0,2.27-.9,4.03-2.71,5.3-1.57,1.1-3.61,1.65-6.14,1.65-1.72,0-3.03-.37-3.94-1.11-.79-.64-1.19-1.51-1.19-2.61,0-.92.39-1.68,1.18-2.29.68-.54,1.48-.8,2.4-.8,1.29,0,2.35.35,3.19,1.06.76.64,1.28,1.51,1.57,2.64.96-.44,1.64-.98,2.04-1.63.36-.59.54-1.34.54-2.23,0-1.23-.42-2.2-1.25-2.91-.72-.61-1.63-.92-2.74-.92-2.22,0-4.38.9-6.48,2.69-.32.3-1.06,1.02-2.2,2.15-.19.19-.33.28-.43.28s-.23-.07-.38-.22c-.46-.4-.96-.96-1.49-1.66-.06-.07-.09-.14-.09-.21,0-.11.07-.23.21-.37,1.89-1.53,3.89-3.39,6-5.59,1.72-1.78,3.04-3.23,3.94-4.34Zm-.19,15.59c-.34-1.45-1.06-2.18-2.15-2.18-.38,0-.68.11-.92.32-.2.17-.3.39-.3.64,0,.88.73,1.31,2.2,1.31.44,0,.83-.03,1.16-.1Z" fill="#4d4948"/></g></g></g></svg>