<?xml version="1.0" encoding="UTF-8"?><svg id="_レイヤー_2" xmlns="http://www.w3.org/2000/svg" width="1079.05" height="526.24" xmlns:xlink="http://www.w3.org/1999/xlink" viewBox="0 0 1079.05 526.24"><defs><pattern id="_新規パターンスウォッチ_2" x="0" y="0" width="72" height="72" patternTransform="translate(-10165.31 -13941.06) rotate(-161) scale(.63)" patternUnits="userSpaceOnUse" viewBox="0 0 72 72"><rect width="72" height="72" style="fill:none;"/><line x1="71.75" y1="66" x2="144.25" y2="66" style="fill:none; stroke:#4d4948; stroke-width:1.5px;"/><line x1="71.75" y1="42" x2="144.25" y2="42" style="fill:none; stroke:#4d4948; stroke-width:1.5px;"/><line x1="71.75" y1="18" x2="144.25" y2="18" style="fill:none; stroke:#4d4948; stroke-width:1.5px;"/><line x1="71.75" y1="54" x2="144.25" y2="54" style="fill:none; stroke:#4d4948; stroke-width:1.5px;"/><line x1="71.75" y1="30" x2="144.25" y2="30" style="fill:none; stroke:#4d4948; stroke-width:1.5px;"/><line x1="71.75" y1="6" x2="144.25" y2="6" style="fill:none; stroke:#4d4948; stroke-width:1.5px;"/><line x1="-.25" y1="66" x2="72.25" y2="66" style="fill:none; stroke:#4d4948; stroke-width:1.5px;"/><line x1="-.25" y1="42" x2="72.25" y2="42" style="fill:none; stroke:#4d4948; stroke-width:1.5px;"/><line x1="-.25" y1="18" x2="72.25" y2="18" style="fill:none; stroke:#4d4948; stroke-width:1.5px;"/><line x1="-.25" y1="54" x2="72.25" y2="54" style="fill:none; stroke:#4d4948; stroke-width:1.5px;"/><line x1="-.25" y1="30" x2="72.25" y2="30" style="fill:none; stroke:#4d4948; stroke-width:1.5px;"/><line x1="-.25" y1="6" x2="72.25" y2="6" style="fill:none; stroke:#4d4948; stroke-width:1.5px;"/><line x1="-72.25" y1="66" x2=".25" y2="66" style="fill:none; stroke:#4d4948; stroke-width:1.5px;"/><line x1="-72.25" y1="42" x2=".25" y2="42" style="fill:none; stroke:#4d4948; stroke-width:1.5px;"/><line x1="-72.25" y1="18" x2=".25" y2="18" style="fill:none; stroke:#4d4948; stroke-width:1.5px;"/><line x1="-72.25" y1="54" x2=".25" y2="54" style="fill:none; stroke:#4d4948; stroke-width:1.5px;"/><line x1="-72.25" y1="30" x2=".25" y2="30" style="fill:none; stroke:#4d4948; stroke-width:1.5px;"/><line x1="-72.25" y1="6" x2=".25" y2="6" style="fill:none; stroke:#4d4948; stroke-width:1.5px;"/></pattern></defs><g id="_レイヤー_2-2"><path d="m554.21,289.79v-86.66h523.49v-86.66c0,.67-819.09,0-819.09,0l-75.75-26.36,21.4-58.72H3.14v431.15h44l92.58-254.05-84.78,227.18,71.25,26.11h427.34v-85.18h525.51v-86.8h-524.83Z" style="fill:#f2f2f2;"/><polygon points="485.96 114.46 485.96 29.81 345.62 29.81 288.52 29.81 257.81 114.46 345.62 114.46 485.96 114.46" style="fill:#f2f2f2;"/><path d="m1074.81,112.61v86.63h-523.49v86.66h524.83v86.8H259.08l-126.85,85.18-76.91-29.63L179.97,86.21l75.75,26.36s819.09.71,819.09.04Z" style="fill:#fff; stroke:#545454; stroke-miterlimit:10; stroke-width:.5px;"/><polygon points=".25 27.49 201.37 27.49 44.25 458.65 .25 458.65 .25 27.49" style="fill:#e6e6e6; stroke:#545454; stroke-miterlimit:10; stroke-width:.5px;"/><rect x="306.54" y="112.61" width="167.51" height="260.09" style="fill:#e3f2f7;"/><polygon points="1076.16 285.9 551.32 285.9 551.32 199.23 1074.81 199.23 1074.81 112.61 484.41 112.61 474.05 112.61 474.05 372.7 1076.16 372.7 1076.16 285.9" style="fill:#dbf1de;"/><polygon points="1076.16 285.9 551.32 285.9 551.32 199.23 1074.81 199.23 1074.81 112.61 484.41 112.61 306.54 112.61 306.54 372.7 1076.16 372.7 1076.16 285.9" style="fill:none; stroke:#545454; stroke-miterlimit:10; stroke-width:.5px;"/><path d="m255.72,112.57l-75.75-26.36L55.32,428.25l76.91,29.63,126.85-85.18h47.71V112.61c-32.31-.02-51.07-.04-51.07-.04Z" style="fill:#e6e6e6;"/><path d="m306.54,112.61c-32.05-.02-50.82-.04-50.82-.04l-75.75-26.36L55.32,428.25l76.91,29.63,126.85-85.18h47.46" style="fill:none; stroke:#545454; stroke-miterlimit:10; stroke-width:.5px;"/><rect x="410.91" y="372.7" width="139.74" height="85.18" style="fill:#fff; stroke:#545454; stroke-miterlimit:10; stroke-width:.5px;"/><polygon points=".25 271.79 .25 371.89 75.86 371.89 179.97 86.19 87.77 49.42 .25 271.79" style="fill:#e6e6e6; stroke:#545454; stroke-miterlimit:10; stroke-width:.5px;"/><polygon points="188.98 61.52 180.02 86.22 255.72 112.57 264.96 87.62 188.98 61.52" style="fill:url(#_新規パターンスウォッチ_2);"/><polygon points="189.05 61.52 179.97 86.22 186.94 88.74 195.69 63.91 189.05 61.52" style="fill:#4d4948;"/><polygon points="258.38 85.29 249.35 110.33 255.92 112.59 264.96 87.62 258.38 85.29" style="fill:#4d4948;"/><polygon points="286.63 27.92 255.92 112.57 343.73 112.57 343.73 27.92 286.63 27.92" style="fill:#e6e6e6; stroke:#545454; stroke-miterlimit:10; stroke-width:.5px;"/><rect x="343.73" y="27.92" width="138.39" height="84.65" style="fill:#67d4ff; stroke:#545454; stroke-miterlimit:10; stroke-width:.5px;"/><line x1="578.28" y1="412.95" x2="1073.55" y2="412.95" style="fill:none; stroke:#4d4948; stroke-miterlimit:10; stroke-width:7.56px;"/><line x1="578.28" y1="412.95" x2="1073.55" y2="412.95" style="fill:none; stroke:#fff; stroke-miterlimit:10; stroke-width:5.04px;"/><line x1="578.28" y1="412.95" x2="1073.55" y2="412.95" style="fill:none; stroke:#4d4948; stroke-dasharray:0 0 25.2 25.2; stroke-miterlimit:10; stroke-width:5.04px;"/><line x1="578.28" y1="240.97" x2="1073.55" y2="240.97" style="fill:none; stroke:#4d4948; stroke-miterlimit:10; stroke-width:7.56px;"/><line x1="578.28" y1="240.97" x2="1073.55" y2="240.97" style="fill:none; stroke:#fff; stroke-miterlimit:10; stroke-width:5.04px;"/><line x1="578.28" y1="240.97" x2="1073.55" y2="240.97" style="fill:none; stroke:#4d4948; stroke-dasharray:0 0 25.2 25.2; stroke-miterlimit:10; stroke-width:5.04px;"/><line x1="578.28" y1="68.99" x2="1073.55" y2="68.99" style="fill:none; stroke:#4d4948; stroke-miterlimit:10; stroke-width:7.56px;"/><line x1="578.28" y1="68.99" x2="1073.55" y2="68.99" style="fill:none; stroke:#fff; stroke-miterlimit:10; stroke-width:5.04px;"/><line x1="578.28" y1="68.99" x2="1073.55" y2="68.99" style="fill:none; stroke:#4d4948; stroke-dasharray:0 0 25.2 25.2; stroke-miterlimit:10; stroke-width:5.04px;"/><rect x="276.63" y="151.62" width="55.09" height="16.8" style="fill:#ffffc8; stroke:#545454; stroke-miterlimit:10; stroke-width:.5px;"/><rect x="276.63" y="183.87" width="55.09" height="16.8" style="fill:#ffffc8; stroke:#545454; stroke-miterlimit:10; stroke-width:.5px;"/><rect x="276.63" y="216.11" width="55.09" height="16.8" style="fill:#ffffc8; stroke:#545454; stroke-miterlimit:10; stroke-width:.5px;"/><rect x="276.63" y="248.36" width="55.09" height="16.8" style="fill:#ffffc8; stroke:#545454; stroke-miterlimit:10; stroke-width:.5px;"/><rect x="389.64" y="39.92" width="44.18" height="44.18" rx="3.52" ry="3.52" style="fill:none; stroke:#0094e2; stroke-linecap:round; stroke-linejoin:round; stroke-width:3.52px;"/><rect x="388.58" y="38.86" width="44.18" height="44.18" rx="3.52" ry="3.52" style="fill:#fff;"/><rect x="388.58" y="38.86" width="44.18" height="44.18" rx="3.52" ry="3.52" style="fill:none; stroke:#0094e2; stroke-linecap:round; stroke-linejoin:round; stroke-width:1.76px;"/><polygon points="406.16 77.1 401.35 77.1 398.51 53.97 409 53.97 406.16 77.1" style="fill:#0094e2;"/><polygon points="415.19 53.97 420 53.97 422.84 77.1 412.35 77.1 415.19 53.97" style="fill:#ec0e8d;"/><circle cx="403.75" cy="48.74" r="3.93" style="fill:#0094e2;"/><circle cx="417.6" cy="48.74" r="3.93" style="fill:#ec0e8d;"/><rect x="288.54" y="39.92" width="44.18" height="44.18" rx="3.52" ry="3.52" style="fill:none; stroke:#0094e2; stroke-linecap:round; stroke-linejoin:round; stroke-width:3.52px;"/><rect x="287.48" y="38.86" width="44.18" height="44.18" rx="3.52" ry="3.52" style="fill:#fff;"/><rect x="287.48" y="38.86" width="44.18" height="44.18" rx="3.52" ry="3.52" style="fill:none; stroke:#0094e2; stroke-linecap:round; stroke-linejoin:round; stroke-width:1.76px;"/><path d="m303.86,49.92c0,.64-.52,1.16-1.16,1.16s-1.16-.52-1.16-1.16.52-1.16,1.16-1.16,1.16.52,1.16,1.16Zm15.11.09c-.26-.26-.97-.71-1.7-1.36s-.97-.22-1.34.09-.45.28-.97-.17c-.52-.45-.84-.17-1.25.19-.41.37-.54.35-.82.11-.23-.2-.34-.31-.65-.65-.39-.43-.94-.48-1.38-.48h-1.05c-.82-1.76-2.61-2.98-4.67-2.98-2.85,0-5.16,2.31-5.16,5.16s2.31,5.16,5.16,5.16c2.32,0,4.29-1.54,4.94-3.65h8.13c.41,0,.56-.37.82-.65.26-.28.22-.52-.04-.78Z" style="fill:#0094e2;"/><rect x="295.89" y="57.44" width="27.37" height="19.71" rx="1.22" ry="1.22" style="fill:#0094e2;"/><rect x="306.84" y="64.28" width="5.87" height="9.94" style="fill:#fff;"/><path d="m302.88,64.28c-.38,0-.68.31-.68.68v8.57c0,.38.31.68.68.68h2.58v-9.94h-2.58Z" style="fill:#fff;"/><path d="m316.28,64.28h-2.18v9.94h2.18c.38,0,.68-.31.68-.68v-8.57c0-.38-.31-.68-.68-.68Z" style="fill:#fff;"/><path d="m306.93,63.37h.49c.25,0,.46-.2.46-.46v-.68c0-.28.37-.55.75-.55h1.77c.37,0,.75.19.75.55v.68c0,.25.2.46.46.46h.49c.25,0,.46-.2.46-.44v-.74c0-.92-.93-1.83-1.87-1.83h-2.33c-.95,0-1.87.9-1.87,1.83v.74c0,.25.2.44.46.44Z" style="fill:#fff;"/><polygon points="132.24 457.88 410.91 457.88 410.91 292.72 190.06 292.72 132.24 457.88" style="fill:#fff; stroke:#545454; stroke-miterlimit:10; stroke-width:.5px;"/><polygon points="1050.06 9.65 1033.35 0 1033.35 5.88 1013.83 5.88 1013.83 13.42 1033.35 13.42 1033.35 19.3 1050.06 9.65" style="fill:gray;"/><polygon points="65.76 524.03 79.41 510.39 73.73 508.86 77.47 494.88 70.2 492.93 66.45 506.91 60.77 505.39 65.76 524.03" style="fill:none; stroke:gray; stroke-linecap:round; stroke-linejoin:round; stroke-width:4.41px;"/><polygon points="65.76 524.03 79.41 510.39 73.73 508.86 77.47 494.88 70.2 492.93 66.45 506.91 60.77 505.39 65.76 524.03" style="fill:#fff;"/><rect x="262.02" y="342.1" width="44.18" height="44.18" rx="3.52" ry="3.52" style="fill:none; stroke:#0094e2; stroke-linecap:round; stroke-linejoin:round; stroke-width:3.52px;"/><rect x="260.96" y="341.05" width="44.18" height="44.18" rx="3.52" ry="3.52" style="fill:#fff;"/><rect x="260.96" y="341.05" width="44.18" height="44.18" rx="3.52" ry="3.52" style="fill:none; stroke:#0094e2; stroke-linecap:round; stroke-linejoin:round; stroke-width:1.76px;"/><polygon points="290.28 353.14 274.47 353.14 271.14 346.38 291.32 349.19 290.28 353.14" style="fill:#0094e2;"/><path d="m274.16,355.11h15.71v4.99c0,2.5-2.08,6.55-7.18,6.55s-7.39-4.37-7.39-5.83v-2.39h-3.95l2.81-3.33Z" style="fill:#0094e2;"/><path d="m301.31,383.3c.52-4.06.1-8.01-1.98-10.19-2.08-2.18-5.83-3.74-11.86-3.74l-4.37,8.43-5.3-8.43s-5.1.52-7.07,1.35c-1.98.83-6.76,5.2-4.99,11.96.12.45.27,1.06.45,1.74h34.97c.05-.38.11-.75.15-1.11Z" style="fill:#0094e2;"/><rect x="355.72" y="166.84" width="96.61" height="53.44" rx="3.86" ry="3.86" style="fill:#ed0030;"/><rect x="355.72" y="166.84" width="96.61" height="53.44" rx="3.86" ry="3.86" style="fill:none; stroke:#545454; stroke-linecap:round; stroke-linejoin:round; stroke-width:1.89px;"/><polyline points="357.73 195.05 337.51 207.5 359.28 207.5" style="fill:#ed0030; stroke:#545454; stroke-linecap:round; stroke-linejoin:round; stroke-width:1.89px;"/><path d="m384.79,173.16v2.97h-5.02v13.82h-3.53v-13.82h-5.05v-2.97h13.6Z" style="fill:#fff;"/><path d="m389.83,173.06v3h-3.29v-3h3.29Zm0,4.48v12.42h-3.29v-12.42h3.29Z" style="fill:#fff;"/><path d="m403.58,181.99h-3.33c-.06-.46-.22-.88-.47-1.25-.36-.5-.93-.75-1.7-.75-1.09,0-1.84.54-2.24,1.63-.21.58-.32,1.34-.32,2.3s.11,1.64.32,2.2c.39,1.03,1.12,1.55,2.19,1.55.76,0,1.3-.21,1.62-.62s.51-.94.58-1.59h3.32c-.08.99-.43,1.92-1.07,2.8-1.02,1.42-2.53,2.13-4.52,2.13s-3.47-.59-4.41-1.78c-.94-1.18-1.41-2.72-1.41-4.61,0-2.13.52-3.79,1.56-4.98,1.04-1.19,2.48-1.78,4.31-1.78,1.56,0,2.83.35,3.82,1.05.99.7,1.58,1.93,1.76,3.7Z" style="fill:#fff;"/><path d="m417.09,189.95h-3.92l-2.97-5.31-1.34,1.4v3.91h-3.19v-16.74h3.19v9.05l4.04-4.67h4.02l-4.34,4.75,4.51,7.61Z" style="fill:#fff;"/><path d="m428.89,186.31c-.08.74-.47,1.48-1.15,2.24-1.06,1.21-2.55,1.81-4.47,1.81-1.58,0-2.97-.51-4.18-1.53-1.21-1.02-1.81-2.67-1.81-4.97,0-2.15.54-3.8,1.63-4.95,1.09-1.15,2.5-1.72,4.24-1.72,1.03,0,1.96.19,2.79.58.83.39,1.51,1,2.05,1.83.49.74.8,1.59.95,2.56.08.57.12,1.39.1,2.46h-8.5c.05,1.25.44,2.12,1.17,2.62.45.31.99.47,1.62.47.67,0,1.21-.19,1.63-.57.23-.21.43-.49.6-.85h3.32Zm-3.21-3.81c-.05-.86-.31-1.51-.78-1.95-.47-.44-1.05-.67-1.74-.67-.75,0-1.33.24-1.75.71s-.67,1.11-.78,1.91h5.05Z" style="fill:#fff;"/><path d="m436.85,187.64v2.43l-1.54.06c-1.53.05-2.58-.21-3.14-.8-.36-.37-.55-.95-.55-1.72v-7.65h-1.73v-2.31h1.73v-3.46h3.21v3.46h2.02v2.31h-2.02v6.56c0,.51.06.83.19.95.13.13.52.19,1.18.19.1,0,.2,0,.31,0,.11,0,.22,0,.32-.02Z" style="fill:#fff;"/><path d="m390.35,213.65c-.93.57-2.07.85-3.42.85-2.23,0-4.05-.77-5.47-2.31-1.48-1.55-2.22-3.67-2.22-6.36s.75-4.9,2.24-6.54,3.48-2.46,5.94-2.46c2.13,0,3.85.54,5.14,1.62,1.29,1.08,2.04,2.43,2.23,4.05h-3.45c-.27-1.15-.92-1.95-1.95-2.4-.58-.25-1.22-.38-1.93-.38-1.35,0-2.46.51-3.33,1.53s-1.3,2.56-1.3,4.61.47,3.53,1.41,4.39,2.01,1.29,3.21,1.29,2.14-.34,2.89-1.02c.75-.68,1.22-1.57,1.39-2.67h-3.89v-2.8h7v9.01h-2.32l-.35-2.1c-.68.8-1.28,1.36-1.82,1.69Z" style="fill:#fff;"/><path d="m398.49,202.98c.86-1.09,2.33-1.64,4.42-1.64,1.36,0,2.57.27,3.62.81,1.06.54,1.58,1.56,1.58,3.05v5.7c0,.4,0,.87.02,1.44.02.43.09.71.19.87s.27.28.48.38v.48h-3.53c-.1-.25-.17-.49-.21-.71-.04-.22-.07-.47-.09-.75-.45.49-.96.9-1.55,1.24-.7.4-1.49.6-2.37.6-1.12,0-2.05-.32-2.79-.96s-1.1-1.55-1.1-2.73c0-1.53.59-2.63,1.77-3.32.65-.37,1.6-.64,2.85-.8l1.1-.14c.6-.08,1.03-.17,1.29-.29.46-.2.69-.5.69-.92,0-.51-.18-.86-.53-1.05-.35-.19-.87-.29-1.56-.29-.77,0-1.31.19-1.63.57-.23.28-.38.66-.46,1.14h-3.13c.07-1.09.37-1.98.91-2.68Zm2.42,8.73c.3.25.68.38,1.12.38.7,0,1.34-.21,1.93-.62.59-.41.89-1.16.92-2.25v-1.21c-.21.13-.41.23-.62.31-.21.08-.5.15-.86.22l-.73.14c-.68.12-1.17.27-1.47.44-.5.3-.75.76-.75,1.38,0,.55.16.95.47,1.2Z" style="fill:#fff;"/><path d="m416.55,211.75v2.43l-1.54.06c-1.53.05-2.58-.21-3.14-.8-.36-.37-.55-.95-.55-1.72v-7.65h-1.73v-2.31h1.73v-3.46h3.21v3.46h2.02v2.31h-2.02v6.56c0,.51.06.83.19.95.13.13.52.19,1.18.19.1,0,.2,0,.31,0,.11,0,.22,0,.32-.02Z" style="fill:#fff;"/><path d="m429.12,210.41c-.08.74-.47,1.48-1.15,2.24-1.06,1.21-2.55,1.81-4.47,1.81-1.58,0-2.97-.51-4.18-1.53-1.21-1.02-1.81-2.67-1.81-4.97,0-2.15.54-3.8,1.63-4.95,1.09-1.15,2.5-1.72,4.24-1.72,1.03,0,1.96.19,2.79.58.83.39,1.51,1,2.05,1.83.49.74.8,1.59.95,2.56.08.57.12,1.39.1,2.46h-8.5c.05,1.25.44,2.12,1.17,2.62.45.31.99.47,1.62.47.67,0,1.21-.19,1.63-.57.23-.21.43-.49.6-.85h3.32Zm-3.21-3.81c-.05-.86-.31-1.51-.78-1.95-.47-.44-1.05-.67-1.74-.67-.75,0-1.33.24-1.75.71s-.67,1.11-.78,1.91h5.05Z" style="fill:#fff;"/><polyline points="551.32 112.57 551.32 27.92 1074.81 27.92" style="fill:none; stroke:#545454; stroke-miterlimit:10; stroke-width:.5px;"/><line x1="172.88" y1="239.43" x2="511.43" y2="239.43" style="fill:none; stroke:#39b54a; stroke-dasharray:0 0 6.3 6.3; stroke-miterlimit:10; stroke-width:4.41px;"/><line x1="82.37" y1="457.39" x2="235.1" y2="51.36" style="fill:none; stroke:#39b54a; stroke-dasharray:0 0 6.3 6.3; stroke-miterlimit:10; stroke-width:4.41px;"/><polyline points="1038.38 130.57 513.11 130.57 513.11 179.57 1038.38 179.57" style="fill:none; stroke:#39b54a; stroke-dasharray:0 0 6.3 6.3; stroke-miterlimit:10; stroke-width:4.41px;"/><polyline points="1038.38 308.22 513.11 308.22 513.11 185.87" style="fill:none; stroke:#39b54a; stroke-dasharray:0 0 6.3 6.3; stroke-miterlimit:10; stroke-width:4.41px;"/><rect x="459.74" y="381.95" width="44.18" height="44.18" rx="3.52" ry="3.52" style="fill:none; stroke:#0094e2; stroke-linecap:round; stroke-linejoin:round; stroke-width:3.52px;"/><rect x="458.69" y="380.9" width="44.18" height="44.18" rx="3.52" ry="3.52" style="fill:#fff;"/><rect x="458.69" y="380.9" width="44.18" height="44.18" rx="3.52" ry="3.52" style="fill:none; stroke:#0094e2; stroke-linecap:round; stroke-linejoin:round; stroke-width:1.76px;"/><g id="q15q3T"><path d="m470.48,407.91c-.58.24-.96.75-1.44,1.12-.65.5-1.25,1.07-1.89,1.58-.71.56-1.48.53-2.01-.04-.51-.54-.56-1.36-.01-1.97,1.56-1.74,3.16-3.45,4.75-5.16.38-.41.89-.51,1.43-.5,1.57,0,3.14-.02,4.7.01.58,0,.87-.12.87-.78,0-.69.09-1.39.22-2.07.12-.65-.17-.75-.7-.63-1.19.25-2.38.51-3.58.76-.27.06-.54.1-.81.11-.76.02-1.29-.37-1.43-1.03-.14-.67.14-1.3.82-1.58.71-.29,1.46-.51,2.19-.74,1.8-.58,3.59-1.2,5.4-1.72,2.25-.64,3.63.63,3.37,2.97-.29,2.57-.51,5.15-.79,7.72-.16,1.46-1.14,2.3-2.62,2.31-1.34.01-2.69.02-4.03,0-.51,0-.74.17-.86.69-.45,1.99-.94,3.97-1.43,5.95-.31,1.25-.99,1.77-2.03,1.55-.89-.19-1.31-1.03-1.11-2.19.34-1.94.67-3.87,1.01-5.81.03-.17.11-.33-.04-.54Z" style="fill:#0094e2;"/><path d="m489.37,401.41c-.07,1.04.13,1.89.21,2.74.04.39.34.43.67.43,1.02,0,2.04,0,3.06,0,1.18.01,1.81.51,2.02,1.67.5,2.71.99,5.43,1.45,8.15.18,1.07-.3,1.86-1.16,2.04-.98.21-1.72-.31-2-1.42-.49-2-.99-4.01-1.44-6.03-.13-.59-.4-.76-.97-.75-1.34.03-2.69.02-4.03,0-1.35-.01-2.38-.85-2.52-2.17-.3-2.77-.54-5.54-.8-8.32-.09-1.01.31-1.8,1.16-2.35.93-.61,2.08-.54,2.9.23,2.04,1.93,4.07,3.89,6.08,5.85.68.67.71,1.46.14,2.06-.54.57-1.29.6-2.02.04-.88-.68-1.75-1.39-2.76-2.2Z" style="fill:#0094e2;"/><path d="m483.1,409.07c2.34,0,4.67.02,7.01-.01.69,0,.9.24.89.91-.02,1.54,0,1.54-1.53,1.54-4.4,0-8.8,0-13.2,0-1.01,0-1.03-.03-1.04-1.05,0-.12,0-.25,0-.37,0-.98.02-1.01,1-1.01,2.29,0,4.58,0,6.86,0Z" style="fill:#0094e2;"/><path d="m480.08,389.48c1.39,0,2.48,1.09,2.46,2.46-.01,1.37-1.11,2.44-2.5,2.43-1.41-.01-2.45-1.06-2.44-2.47,0-1.4,1.05-2.42,2.48-2.42Z" style="fill:#0094e2;"/><path d="m486.22,389.48c1.39,0,2.47,1.1,2.45,2.46-.02,1.37-1.12,2.43-2.5,2.42-1.39-.01-2.45-1.09-2.43-2.48.01-1.39,1.07-2.42,2.48-2.41Z" style="fill:#0094e2;"/></g><line x1="550.65" y1="457.88" x2="1076.16" y2="457.88" style="fill:none; stroke:#545454; stroke-miterlimit:10; stroke-width:.5px;"/><rect x="189.9" y="280.93" width="58.45" height="25.77" style="fill:#e6e6e6; stroke:#545454; stroke-miterlimit:10; stroke-width:.5px;"/><rect x="197.08" y="272.78" width="44.18" height="44.18" rx="3.52" ry="3.52" style="fill:none; stroke:#f04d13; stroke-linecap:round; stroke-linejoin:round; stroke-width:3.52px;"/><rect x="196.03" y="271.73" width="44.18" height="44.18" rx="3.52" ry="3.52" style="fill:#f7931e;"/><rect x="196.03" y="271.73" width="44.18" height="44.18" rx="3.52" ry="3.52" style="fill:none; stroke:#f04d13; stroke-linecap:round; stroke-linejoin:round; stroke-width:1.76px;"/><path d="m222.4,303.09v-1.68h-1.63v-.75h1.63v-.67h-1.63v-.75h1.26l-1.72-2.98h1.72l.73,1.68c.18.42.31.78.44,1.14h.02c.14-.34.27-.74.45-1.15l.75-1.67h1.68l-1.79,2.98h1.25v.75h-1.65v.67h1.65v.75h-1.65v1.68h-1.5Z" style="fill:#fff;"/><path d="m214.55,302.44c-.36,0-.65.29-.65.65s.29.65.65.65.65-.29.65-.65-.29-.65-.65-.65" style="fill:#fff;"/><path d="m214.55,300c-.36,0-.65.29-.65.65s.29.65.65.65.65-.29.65-.65-.29-.65-.65-.65" style="fill:#fff;"/><path d="m231.65,292.18h-23.51v14.52h24.69v-14.52h-1.18Zm0,13.34h-16.45c0-.36-.29-.65-.65-.65s-.65.29-.65.65h-4.58v-12.15h4.58c0,.36.29.65.65.65s.65-.29.65-.65h16.45v12.15Z" style="fill:#fff;"/><path d="m214.55,297.57c-.36,0-.65.29-.65.65s.29.65.65.65.65-.29.65-.65-.29-.65-.65-.65" style="fill:#fff;"/><path d="m214.55,295.14c-.36,0-.65.29-.65.65s.29.65.65.65.65-.29.65-.65-.29-.65-.65-.65" style="fill:#fff;"/><polygon points="210.18 290.38 224.64 282.54 229.23 291 230.58 291 225.68 281.97 225.12 280.94 224.08 281.5 209.62 289.34 209.52 289.4 208.48 289.96 204.45 292.15 203.41 292.71 203.98 293.75 206.96 299.24 206.96 296.76 205.02 293.19 206.96 292.13 210.18 290.38" style="fill:#fff;"/><path d="m872.9,2.75h8.71v1.54h-7.01v3.81h6.16v1.5h-6.16v5.71h-1.7V2.75Z" style="fill:gray;"/><path d="m889.53,7.07c.81.79,1.21,1.94,1.21,3.47s-.36,2.69-1.07,3.65c-.71.96-1.82,1.44-3.32,1.44-1.25,0-2.24-.43-2.98-1.28s-1.1-1.99-1.1-3.43c0-1.54.39-2.76,1.16-3.67.77-.91,1.82-1.37,3.12-1.37,1.17,0,2.16.39,2.97,1.18Zm-.96,6.08c.38-.77.56-1.63.56-2.57,0-.85-.13-1.55-.41-2.08-.43-.84-1.17-1.26-2.21-1.26-.93,0-1.61.36-2.03,1.08-.42.72-.63,1.58-.63,2.59s.21,1.78.63,2.43c.42.65,1.09.97,2.01.97,1.01,0,1.7-.38,2.07-1.16Z" style="fill:gray;"/><path d="m892.54,6.15h1.46v1.58c.12-.31.41-.68.88-1.12s1.01-.66,1.62-.66c.03,0,.08,0,.15,0s.18.02.35.03v1.62c-.09-.02-.18-.03-.25-.03-.08,0-.16,0-.25,0-.77,0-1.37.25-1.79.75-.42.5-.62,1.07-.62,1.72v5.26h-1.54V6.15Z" style="fill:gray;"/><path d="m904.5,11.25c.04.71.2,1.29.49,1.73.54.83,1.5,1.25,2.87,1.25.62,0,1.17-.09,1.68-.27.98-.35,1.46-.99,1.46-1.9,0-.68-.21-1.17-.62-1.46-.42-.29-1.08-.53-1.97-.74l-1.65-.38c-1.08-.25-1.84-.53-2.28-.83-.77-.52-1.16-1.31-1.16-2.35,0-1.13.38-2.05,1.14-2.78.76-.72,1.83-1.08,3.23-1.08,1.28,0,2.37.32,3.26.95.9.64,1.34,1.65,1.34,3.05h-1.6c-.08-.67-.26-1.19-.52-1.55-.5-.66-1.34-.98-2.53-.98-.96,0-1.65.21-2.07.63-.42.42-.63.91-.63,1.47,0,.62.25,1.07.75,1.35.33.18,1.06.41,2.21.68l1.71.4c.82.19,1.46.46,1.9.79.77.59,1.16,1.44,1.16,2.55,0,1.39-.49,2.38-1.48,2.98-.99.6-2.13.9-3.44.9-1.52,0-2.71-.4-3.58-1.2-.86-.79-1.28-1.87-1.27-3.22h1.6Z" style="fill:gray;"/><path d="m914.67,2.71h1.54v4.68c.36-.46.69-.79.98-.97.5-.32,1.11-.49,1.85-.49,1.33,0,2.23.46,2.7,1.39.26.51.38,1.21.38,2.11v5.87h-1.58v-5.77c0-.67-.08-1.17-.26-1.48-.28-.5-.8-.75-1.57-.75-.64,0-1.22.22-1.73.66s-.78,1.27-.78,2.49v4.85h-1.54V2.71Z" style="fill:gray;"/><path d="m924.28,2.75h1.56v1.74h-1.56v-1.74Zm0,3.44h1.56v9.11h-1.56V6.2Z" style="fill:gray;"/><path d="m928.02,6.15h1.46v1.3c.43-.54.89-.92,1.38-1.15s1.02-.35,1.62-.35c1.3,0,2.18.45,2.63,1.36.25.5.38,1.21.38,2.13v5.87h-1.56v-5.77c0-.56-.08-1.01-.25-1.35-.27-.57-.77-.85-1.49-.85-.36,0-.66.04-.9.11-.42.13-.79.38-1.11.75-.26.3-.42.61-.5.94-.08.32-.12.78-.12,1.38v4.79h-1.54V6.15Z" style="fill:gray;"/><path d="m937.42,9.64h4.29v1.58h-4.29v-1.58Z" style="fill:gray;"/><path d="m944.96,11.25c.04.71.2,1.29.49,1.73.54.83,1.5,1.25,2.87,1.25.62,0,1.17-.09,1.68-.27.98-.35,1.46-.99,1.46-1.9,0-.68-.21-1.17-.62-1.46-.42-.29-1.08-.53-1.97-.74l-1.65-.38c-1.08-.25-1.84-.53-2.28-.83-.77-.52-1.16-1.31-1.16-2.35,0-1.13.38-2.05,1.14-2.78.76-.72,1.83-1.08,3.23-1.08,1.28,0,2.37.32,3.26.95.9.64,1.34,1.65,1.34,3.05h-1.6c-.08-.67-.26-1.19-.52-1.55-.5-.66-1.34-.98-2.53-.98-.96,0-1.65.21-2.07.63-.42.42-.63.91-.63,1.47,0,.62.25,1.07.75,1.35.33.18,1.06.41,2.21.68l1.71.4c.82.19,1.46.46,1.9.79.77.59,1.16,1.44,1.16,2.55,0,1.39-.49,2.38-1.48,2.98-.99.6-2.13.9-3.44.9-1.52,0-2.71-.4-3.58-1.2-.86-.79-1.28-1.87-1.27-3.22h1.6Z" style="fill:gray;"/><path d="m955.13,2.71h1.54v4.68c.36-.46.69-.79.98-.97.5-.32,1.11-.49,1.85-.49,1.33,0,2.23.46,2.7,1.39.26.51.38,1.21.38,2.11v5.87h-1.58v-5.77c0-.67-.08-1.17-.26-1.48-.28-.5-.8-.75-1.57-.75-.64,0-1.22.22-1.73.66s-.78,1.27-.78,2.49v4.85h-1.54V2.71Z" style="fill:gray;"/><path d="m964.73,2.75h1.56v1.74h-1.56v-1.74Zm0,3.44h1.56v9.11h-1.56V6.2Z" style="fill:gray;"/><path d="m968.48,6.15h1.52v1.3c.37-.45.7-.78.99-.98.51-.35,1.08-.52,1.73-.52.73,0,1.32.18,1.76.54.25.21.48.51.68.91.34-.49.74-.85,1.2-1.09.46-.24.98-.35,1.56-.35,1.23,0,2.07.44,2.51,1.33.24.48.36,1.12.36,1.93v6.09h-1.6v-6.36c0-.61-.15-1.03-.46-1.26s-.68-.34-1.11-.34c-.6,0-1.12.2-1.56.61-.44.41-.65,1.08-.65,2.03v5.32h-1.56v-5.97c0-.62-.07-1.07-.22-1.36-.23-.43-.67-.64-1.31-.64-.58,0-1.11.23-1.58.68-.48.45-.71,1.26-.71,2.44v4.85h-1.54V6.15Z" style="fill:gray;"/><path d="m982.94,2.75h1.56v1.74h-1.56v-1.74Zm0,3.44h1.56v9.11h-1.56V6.2Z" style="fill:gray;"/><path d="m985.92,14.09l5.43-6.56h-5.03v-1.38h7.1v1.26l-5.4,6.52h5.56v1.38h-7.67v-1.21Z" style="fill:gray;"/><path d="m996.54,6.15v6.08c0,.47.07.85.22,1.15.27.55.76.82,1.49.82,1.04,0,1.75-.48,2.13-1.44.21-.51.31-1.22.31-2.11v-4.49h1.54v9.15h-1.45l.02-1.35c-.2.35-.44.64-.73.88-.58.48-1.27.72-2.1.72-1.28,0-2.15-.44-2.62-1.31-.25-.47-.38-1.09-.38-1.87v-6.22h1.57Z" style="fill:gray;"/><path d="m227.96,25.23v1.24h-3.51v9.17h-1.42v-9.17h-3.51v-1.24h8.44Z" style="fill:gray;"/><path d="m231.75,31.05c.29-.04.49-.16.59-.37.06-.11.08-.28.08-.49,0-.44-.15-.75-.46-.95-.31-.2-.75-.3-1.33-.3-.67,0-1.14.18-1.42.54-.16.2-.26.5-.3.89h-1.19c.02-.94.33-1.59.91-1.96s1.26-.55,2.03-.55c.89,0,1.62.17,2.17.51.55.34.83.87.83,1.59v4.37c0,.13.03.24.08.32.05.08.17.12.34.12.06,0,.12,0,.19-.01.07,0,.15-.02.23-.03v.94c-.2.06-.35.09-.45.11-.1.01-.25.02-.43.02-.44,0-.76-.16-.96-.47-.1-.17-.18-.4-.22-.7-.26.34-.63.64-1.12.89-.49.25-1.02.38-1.61.38-.7,0-1.28-.21-1.73-.64-.45-.43-.67-.96-.67-1.6,0-.7.22-1.25.66-1.64.44-.39,1.02-.63,1.73-.72l2.04-.25Zm-2.69,3.45c.27.21.59.32.96.32.45,0,.88-.1,1.3-.31.71-.34,1.06-.91,1.06-1.69v-1.03c-.16.1-.36.18-.6.25-.25.07-.49.11-.72.14l-.77.1c-.46.06-.81.16-1.04.29-.39.22-.59.58-.59,1.06,0,.37.13.66.4.87Z" style="fill:gray;"/><path d="m235.67,25.23h1.23v6.05l3.27-3.23h1.63l-2.92,2.82,3.08,4.77h-1.63l-2.39-3.86-1.05,1.01v2.85h-1.23v-10.42Z" style="fill:gray;"/><path d="m246.89,31.05c.29-.04.49-.16.59-.37.06-.11.08-.28.08-.49,0-.44-.15-.75-.46-.95-.31-.2-.75-.3-1.33-.3-.67,0-1.14.18-1.42.54-.16.2-.26.5-.3.89h-1.19c.02-.94.33-1.59.91-1.96s1.26-.55,2.03-.55c.89,0,1.62.17,2.17.51.55.34.83.87.83,1.59v4.37c0,.13.03.24.08.32.05.08.17.12.34.12.06,0,.12,0,.19-.01.07,0,.15-.02.23-.03v.94c-.2.06-.35.09-.45.11-.1.01-.25.02-.43.02-.44,0-.76-.16-.96-.47-.1-.17-.18-.4-.22-.7-.26.34-.63.64-1.12.89-.49.25-1.02.38-1.61.38-.7,0-1.28-.21-1.73-.64-.45-.43-.67-.96-.67-1.6,0-.7.22-1.25.66-1.64.44-.39,1.02-.63,1.73-.72l2.04-.25Zm-2.69,3.45c.27.21.59.32.96.32.45,0,.88-.1,1.3-.31.71-.34,1.06-.91,1.06-1.69v-1.03c-.16.1-.36.18-.6.25-.25.07-.49.11-.72.14l-.77.1c-.46.06-.81.16-1.04.29-.39.22-.59.58-.59,1.06,0,.37.13.66.4.87Z" style="fill:gray;"/><path d="m249.59,37.57c.57-.02.92-.07,1.03-.15.12-.08.17-.34.17-.78v-8.55h1.28v8.68c0,.55-.09.97-.27,1.24-.3.46-.86.69-1.69.69-.06,0-.13,0-.19,0s-.18-.01-.32-.03v-1.11Zm2.48-10.86h-1.28v-1.47h1.28v1.47Z" style="fill:gray;"/><path d="m259.51,28.81c.67.65,1.01,1.61,1.01,2.88s-.3,2.23-.89,3.03c-.59.8-1.51,1.2-2.75,1.2-1.04,0-1.86-.35-2.47-1.06-.61-.71-.92-1.65-.92-2.84,0-1.28.32-2.29.96-3.05s1.51-1.13,2.59-1.13c.97,0,1.79.33,2.46.98Zm-.79,5.05c.31-.64.47-1.35.47-2.13,0-.71-.11-1.28-.34-1.73-.35-.7-.97-1.05-1.84-1.05-.77,0-1.33.3-1.68.89s-.53,1.31-.53,2.15.18,1.48.53,2.02.91.81,1.67.81c.84,0,1.41-.32,1.72-.96Z" style="fill:gray;"/><path d="m9.79,476.67c.03.59.17,1.07.4,1.44.45.69,1.25,1.04,2.38,1.04.51,0,.97-.08,1.39-.23.81-.29,1.22-.82,1.22-1.57,0-.57-.17-.97-.52-1.21-.35-.24-.89-.44-1.63-.62l-1.37-.32c-.89-.21-1.52-.44-1.9-.69-.64-.43-.96-1.08-.96-1.95,0-.94.31-1.7.95-2.3.63-.6,1.52-.9,2.68-.9,1.06,0,1.97.26,2.71.79.74.53,1.11,1.37,1.11,2.53h-1.33c-.07-.56-.21-.99-.44-1.28-.41-.54-1.11-.82-2.1-.82-.8,0-1.37.17-1.72.52s-.52.76-.52,1.22c0,.51.21.88.62,1.12.27.15.88.34,1.83.57l1.42.33c.68.16,1.21.38,1.58.66.64.49.96,1.19.96,2.12,0,1.15-.41,1.98-1.23,2.47s-1.77.74-2.85.74c-1.26,0-2.25-.33-2.97-.99-.71-.66-1.07-1.55-1.05-2.67h1.33Z" style="fill:gray;"/><path d="m18.24,469.58h1.28v3.88c.3-.38.57-.65.82-.81.41-.27.92-.4,1.54-.4,1.1,0,1.85.38,2.24,1.16.21.42.32,1,.32,1.75v4.87h-1.31v-4.79c0-.56-.07-.97-.21-1.23-.23-.42-.67-.62-1.3-.62-.53,0-1.01.18-1.44.55-.43.36-.65,1.05-.65,2.06v4.03h-1.28v-10.45Z" style="fill:gray;"/><path d="m26.23,469.62h1.3v1.45h-1.3v-1.45Zm0,2.86h1.3v7.56h-1.3v-7.56Z" style="fill:gray;"/><path d="m29.35,472.44h1.21v1.08c.36-.44.74-.76,1.14-.96.4-.19.85-.29,1.34-.29,1.08,0,1.81.38,2.18,1.13.21.41.31,1,.31,1.77v4.87h-1.3v-4.79c0-.46-.07-.84-.21-1.12-.23-.47-.64-.71-1.23-.71-.3,0-.55.03-.74.09-.35.1-.66.31-.92.62-.21.25-.35.51-.42.78-.06.27-.1.65-.1,1.14v3.98h-1.28v-7.59Z" style="fill:gray;"/><path d="m37.16,475.33h3.56v1.31h-3.56v-1.31Z" style="fill:gray;"/><path d="m43.43,476.67c.03.59.17,1.07.4,1.44.45.69,1.25,1.04,2.38,1.04.51,0,.97-.08,1.39-.23.81-.29,1.22-.82,1.22-1.57,0-.57-.17-.97-.52-1.21-.35-.24-.89-.44-1.63-.62l-1.37-.32c-.89-.21-1.52-.44-1.9-.69-.64-.43-.96-1.08-.96-1.95,0-.94.31-1.7.95-2.3.63-.6,1.52-.9,2.68-.9,1.06,0,1.97.26,2.71.79.74.53,1.11,1.37,1.11,2.53h-1.33c-.07-.56-.21-.99-.44-1.28-.41-.54-1.11-.82-2.1-.82-.8,0-1.37.17-1.72.52s-.52.76-.52,1.22c0,.51.21.88.62,1.12.27.15.88.34,1.83.57l1.42.33c.68.16,1.21.38,1.58.66.64.49.96,1.19.96,2.12,0,1.15-.41,1.98-1.23,2.47s-1.77.74-2.85.74c-1.26,0-2.25-.33-2.97-.99-.71-.66-1.07-1.55-1.05-2.67h1.33Z" style="fill:gray;"/><path d="m51.88,469.58h1.28v3.88c.3-.38.57-.65.82-.81.41-.27.92-.4,1.54-.4,1.1,0,1.85.38,2.24,1.16.21.42.32,1,.32,1.75v4.87h-1.31v-4.79c0-.56-.07-.97-.21-1.23-.23-.42-.67-.62-1.3-.62-.53,0-1.01.18-1.44.55-.43.36-.65,1.05-.65,2.06v4.03h-1.28v-10.45Z" style="fill:gray;"/><path d="m59.87,469.62h1.3v1.45h-1.3v-1.45Zm0,2.86h1.3v7.56h-1.3v-7.56Z" style="fill:gray;"/><path d="m62.35,479.03l4.51-5.45h-4.18v-1.14h5.89v1.04l-4.48,5.41h4.61v1.14h-6.36v-1.01Z" style="fill:gray;"/><path d="m71.18,472.44v5.04c0,.39.06.71.18.95.22.45.63.68,1.24.68.87,0,1.45-.4,1.77-1.19.17-.42.26-1.01.26-1.75v-3.73h1.28v7.59h-1.21v-1.12c-.15.29-.35.53-.59.73-.48.4-1.06.6-1.74.6-1.06,0-1.79-.36-2.17-1.08-.21-.39-.31-.91-.31-1.55v-5.16h1.3Z" style="fill:gray;"/><path d="m83.41,473.2c.67.65,1.01,1.61,1.01,2.88s-.3,2.23-.89,3.03c-.59.8-1.51,1.2-2.75,1.2-1.04,0-1.86-.35-2.47-1.06-.61-.71-.92-1.65-.92-2.84,0-1.28.32-2.29.96-3.05s1.51-1.13,2.59-1.13c.97,0,1.79.33,2.46.98Zm-.79,5.05c.31-.64.47-1.35.47-2.13,0-.71-.11-1.28-.34-1.73-.35-.7-.97-1.05-1.84-1.05-.77,0-1.33.3-1.68.89s-.53,1.31-.53,2.15.18,1.48.53,2.02.91.81,1.67.81c.84,0,1.41-.32,1.72-.96Z" style="fill:gray;"/><path d="m85.88,469.62h1.23v6.05l3.27-3.23h1.63l-2.92,2.82,3.08,4.77h-1.63l-2.39-3.86-1.05,1.01v2.85h-1.23v-10.42Z" style="fill:gray;"/><path d="m97.1,475.44c.29-.04.49-.16.59-.37.06-.11.08-.28.08-.49,0-.44-.15-.75-.46-.95-.31-.2-.75-.3-1.33-.3-.67,0-1.14.18-1.42.54-.16.2-.26.5-.3.89h-1.19c.02-.94.33-1.59.91-1.96s1.26-.55,2.03-.55c.89,0,1.62.17,2.17.51.55.34.83.87.83,1.59v4.37c0,.13.03.24.08.32.05.08.17.12.34.12.06,0,.12,0,.19-.01.07,0,.15-.02.23-.03v.94c-.2.06-.35.09-.45.11-.1.01-.25.02-.43.02-.44,0-.76-.16-.96-.47-.1-.17-.18-.4-.22-.7-.26.34-.63.64-1.12.89-.49.25-1.02.38-1.61.38-.7,0-1.28-.21-1.73-.64-.45-.43-.67-.96-.67-1.6,0-.7.22-1.25.66-1.64.44-.39,1.02-.63,1.73-.72l2.04-.25Zm-2.69,3.45c.27.21.59.32.96.32.45,0,.88-.1,1.3-.31.71-.34,1.06-.91,1.06-1.69v-1.03c-.16.1-.36.18-.6.25-.25.07-.49.11-.72.14l-.77.1c-.46.06-.81.16-1.04.29-.39.22-.59.58-.59,1.06,0,.37.13.66.4.87Z" style="fill:gray;"/><path d="m112.68,470.38c.72.69,1.12,1.48,1.2,2.37h-1.38c-.15-.67-.46-1.2-.92-1.6-.46-.39-1.1-.59-1.93-.59-1.01,0-1.82.36-2.44,1.08-.62.72-.93,1.83-.93,3.32,0,1.22.28,2.21.84,2.97.56.76,1.39,1.14,2.5,1.14,1.02,0,1.8-.4,2.33-1.2.28-.42.49-.97.63-1.66h1.38c-.12,1.1-.52,2.02-1.21,2.76-.82.89-1.92,1.34-3.31,1.34-1.2,0-2.2-.37-3.01-1.1-1.07-.97-1.6-2.47-1.6-4.49,0-1.54.4-2.8,1.21-3.78.87-1.07,2.07-1.6,3.6-1.6,1.3,0,2.31.35,3.03,1.04Z" style="fill:gray;"/><path d="m120.24,472.65c.5.25.89.58,1.15.98.25.38.42.83.51,1.34.08.35.11.91.11,1.67h-5.52c.02.77.2,1.39.54,1.86.34.47.86.7,1.57.7.66,0,1.19-.22,1.58-.66.22-.26.38-.55.47-.89h1.25c-.03.28-.14.59-.33.93-.19.34-.4.62-.62.84-.38.38-.86.63-1.43.77-.31.08-.65.11-1.03.11-.94,0-1.74-.34-2.39-1.03-.65-.69-.98-1.65-.98-2.89s.33-2.21.99-2.97,1.52-1.14,2.58-1.14c.54,0,1.05.13,1.56.38Zm.46,2.98c-.05-.55-.17-.99-.36-1.33-.35-.61-.93-.92-1.74-.92-.58,0-1.07.21-1.46.63s-.6.96-.63,1.61h4.18Z" style="fill:gray;"/><path d="m123.52,472.44h1.21v1.08c.36-.44.74-.76,1.14-.96.4-.19.85-.29,1.34-.29,1.08,0,1.81.38,2.18,1.13.21.41.31,1,.31,1.77v4.87h-1.3v-4.79c0-.46-.07-.84-.21-1.12-.23-.47-.64-.71-1.23-.71-.3,0-.55.03-.74.09-.35.1-.66.31-.92.62-.21.25-.35.51-.42.78-.06.27-.1.65-.1,1.14v3.98h-1.28v-7.59Z" style="fill:gray;"/><path d="m137.09,473.2c.67.65,1.01,1.61,1.01,2.88s-.3,2.23-.89,3.03c-.59.8-1.51,1.2-2.75,1.2-1.04,0-1.86-.35-2.47-1.06-.61-.71-.92-1.65-.92-2.84,0-1.28.32-2.29.96-3.05s1.51-1.13,2.59-1.13c.97,0,1.79.33,2.46.98Zm-.79,5.05c.31-.64.47-1.35.47-2.13,0-.71-.11-1.28-.34-1.73-.35-.7-.97-1.05-1.84-1.05-.77,0-1.33.3-1.68.89s-.53,1.31-.53,2.15.18,1.48.53,2.02.91.81,1.67.81c.84,0,1.41-.32,1.72-.96Z" style="fill:gray;"/><path d="m140.02,472.44l2.03,6.18,2.11-6.18h1.4l-2.86,7.59h-1.36l-2.8-7.59h1.48Z" style="fill:gray;"/><path d="m150.38,475.44c.29-.04.49-.16.59-.37.06-.11.08-.28.08-.49,0-.44-.15-.75-.46-.95-.31-.2-.75-.3-1.33-.3-.67,0-1.14.18-1.42.54-.16.2-.26.5-.3.89h-1.19c.02-.94.33-1.59.91-1.96s1.26-.55,2.03-.55c.89,0,1.62.17,2.17.51.55.34.83.87.83,1.59v4.37c0,.13.03.24.08.32.05.08.17.12.34.12.06,0,.12,0,.19-.01.07,0,.15-.02.23-.03v.94c-.2.06-.35.09-.45.11-.1.01-.25.02-.43.02-.44,0-.76-.16-.96-.47-.1-.17-.18-.4-.22-.7-.26.34-.63.64-1.12.89-.49.25-1.02.38-1.61.38-.7,0-1.28-.21-1.73-.64-.45-.43-.67-.96-.67-1.6,0-.7.22-1.25.66-1.64.44-.39,1.02-.63,1.73-.72l2.04-.25Zm-2.69,3.45c.27.21.59.32.96.32.45,0,.88-.1,1.3-.31.71-.34,1.06-.91,1.06-1.69v-1.03c-.16.1-.36.18-.6.25-.25.07-.49.11-.72.14l-.77.1c-.46.06-.81.16-1.04.29-.39.22-.59.58-.59,1.06,0,.37.13.66.4.87Z" style="fill:gray;"/><path d="m274.08,93.64c.63.74.98,1.59,1.05,2.53h-1.2c-.13-.72-.4-1.29-.8-1.71-.4-.42-.96-.63-1.68-.63-.88,0-1.59.39-2.13,1.16-.54.77-.81,1.95-.81,3.55,0,1.3.24,2.36.73,3.17s1.22,1.22,2.19,1.22c.89,0,1.57-.43,2.04-1.28.25-.45.43-1.04.55-1.77h1.2c-.11,1.17-.46,2.16-1.05,2.95-.71.96-1.68,1.43-2.89,1.43-1.05,0-1.92-.39-2.64-1.18-.94-1.04-1.4-2.64-1.4-4.8,0-1.64.35-2.99,1.05-4.04.76-1.14,1.81-1.71,3.14-1.71,1.14,0,2.02.37,2.65,1.11Z" style="fill:gray;"/><path d="m281.45,96.65c.59.7.88,1.72.88,3.08s-.26,2.39-.78,3.24c-.52.85-1.32,1.28-2.41,1.28-.91,0-1.63-.38-2.16-1.13s-.8-1.77-.8-3.04c0-1.36.28-2.45.84-3.26.56-.81,1.32-1.21,2.27-1.21.85,0,1.57.35,2.15,1.04Zm-.69,5.4c.27-.68.41-1.45.41-2.28,0-.76-.1-1.37-.29-1.85-.31-.75-.85-1.12-1.61-1.12-.67,0-1.16.32-1.47.95-.31.64-.46,1.4-.46,2.3s.15,1.58.46,2.16.79.86,1.46.86c.73,0,1.23-.34,1.51-1.03Z" style="fill:gray;"/><path d="m283.65,92.83h1.13v1.55h-1.13v-1.55Zm0,3.05h1.13v8.08h-1.13v-8.08Z" style="fill:gray;"/><path d="m286.38,95.84h1.06v1.15c.31-.48.65-.82,1-1.02.35-.21.74-.31,1.17-.31.94,0,1.58.4,1.91,1.21.18.44.27,1.07.27,1.89v5.21h-1.13v-5.12c0-.5-.06-.89-.18-1.2-.2-.5-.56-.76-1.08-.76-.26,0-.48.03-.65.1-.31.11-.57.33-.81.67-.19.27-.31.54-.36.83-.06.29-.08.69-.08,1.22v4.25h-1.12v-8.12Z" style="fill:gray;"/><path d="m297.12,92.83h1.23v9.81h4.57v1.33h-5.8v-11.13Z" style="fill:gray;"/><path d="m308.79,96.65c.59.7.88,1.72.88,3.08s-.26,2.39-.78,3.24c-.52.85-1.32,1.28-2.41,1.28-.91,0-1.63-.38-2.16-1.13s-.8-1.77-.8-3.04c0-1.36.28-2.45.84-3.26.56-.81,1.32-1.21,2.27-1.21.85,0,1.57.35,2.15,1.04Zm-.69,5.4c.27-.68.41-1.45.41-2.28,0-.76-.1-1.37-.29-1.85-.31-.75-.85-1.12-1.61-1.12-.67,0-1.16.32-1.47.95-.31.64-.46,1.4-.46,2.3s.15,1.58.46,2.16.79.86,1.46.86c.73,0,1.23-.34,1.51-1.03Z" style="fill:gray;"/><path d="m315.43,96.27c.47.45.75,1.21.85,2.3h-1.08c-.07-.5-.22-.92-.45-1.25-.24-.33-.61-.5-1.13-.5-.71,0-1.22.42-1.52,1.27-.2.55-.3,1.23-.3,2.04s.14,1.5.42,2.05c.28.55.72.83,1.33.83.46,0,.83-.17,1.1-.52.27-.34.46-.82.56-1.42h1.08c-.12,1.08-.43,1.86-.93,2.36-.5.5-1.13.75-1.9.75-.87,0-1.56-.39-2.08-1.16-.52-.78-.77-1.74-.77-2.91,0-1.42.28-2.53.85-3.33.57-.79,1.29-1.19,2.16-1.19.75,0,1.36.22,1.83.67Z" style="fill:gray;"/><path d="m317.42,92.83h1.07v6.46l2.86-3.45h1.43l-2.55,3.02,2.7,5.1h-1.43l-2.09-4.13-.92,1.08v3.05h-1.07v-11.13Z" style="fill:gray;"/><path d="m327.58,96.07c.44.27.77.62,1,1.05.22.41.37.89.44,1.43.07.37.1.97.1,1.79h-4.83c.02.83.18,1.49.47,1.99.29.5.75.75,1.37.75.58,0,1.04-.24,1.38-.71.19-.27.33-.59.41-.95h1.1c-.03.3-.13.63-.29,1s-.35.67-.55.9c-.34.4-.75.68-1.25.82-.27.08-.57.12-.9.12-.82,0-1.52-.37-2.09-1.1-.57-.74-.86-1.76-.86-3.09s.29-2.36.86-3.18,1.33-1.22,2.26-1.22c.47,0,.92.13,1.36.41Zm.4,3.19c-.05-.59-.15-1.06-.31-1.42-.3-.66-.81-.99-1.52-.99-.51,0-.93.23-1.28.68s-.53,1.03-.55,1.72h3.66Z" style="fill:gray;"/><path d="m330.47,95.84h1.06v1.4c.09-.27.3-.61.64-1s.73-.59,1.17-.59c.02,0,.06,0,.11,0,.05,0,.13.02.25.03v1.44c-.07-.02-.13-.03-.18-.03-.06,0-.12,0-.18,0-.56,0-.99.22-1.3.66-.3.44-.45.95-.45,1.53v4.67h-1.12v-8.12Z" style="fill:gray;"/><path d="m335.38,101.41c.03.46.13.8.28,1.05.29.44.78.66,1.49.66.42,0,.79-.11,1.11-.33.32-.22.48-.56.48-1.02,0-.35-.13-.61-.38-.8-.16-.11-.49-.24-.97-.39l-.9-.27c-.58-.17-1-.36-1.27-.58-.49-.37-.73-.88-.73-1.53,0-.77.23-1.39.69-1.86s1.08-.71,1.85-.71c1.01,0,1.74.36,2.19,1.08.28.45.42.94.41,1.47h-1.05c-.02-.31-.11-.58-.27-.84-.26-.36-.72-.54-1.36-.54-.43,0-.76.1-.98.29s-.33.46-.33.78c0,.35.15.63.44.85.17.13.42.24.75.33l.75.22c.82.24,1.36.47,1.64.69.43.35.65.9.65,1.64s-.23,1.35-.68,1.87-1.15.79-2.07.79c-1,0-1.71-.27-2.12-.82-.42-.55-.64-1.23-.67-2.04h1.07Z" style="fill:gray;"/><path d="m373.76,92.39h5.85c.96,0,1.76.14,2.38.43,1.19.55,1.78,1.56,1.78,3.04,0,.77-.16,1.4-.48,1.89-.32.49-.76.88-1.34,1.18.5.2.88.47,1.14.81.25.33.4.87.43,1.62l.06,1.73c.02.49.06.86.12,1.1.1.41.29.67.56.79v.29h-2.14c-.06-.11-.11-.25-.14-.43-.04-.17-.06-.51-.09-1.02l-.1-2.15c-.04-.84-.34-1.41-.91-1.69-.32-.16-.83-.24-1.52-.24h-3.86v5.52h-1.74v-12.88Zm5.67,5.9c.8,0,1.43-.16,1.89-.49.46-.33.69-.92.69-1.77,0-.92-.32-1.54-.97-1.88-.35-.17-.81-.26-1.39-.26h-4.14v4.4h3.92Z" style="fill:#fff;"/><path d="m391.86,96.14c.62.31,1.09.72,1.42,1.21.31.47.52,1.03.63,1.66.09.43.14,1.12.14,2.07h-6.83c.03.96.25,1.72.67,2.3s1.06.87,1.94.87c.82,0,1.47-.27,1.96-.82.27-.32.47-.68.58-1.1h1.55c-.04.34-.18.73-.41,1.15s-.49.77-.77,1.04c-.48.47-1.06.78-1.77.95-.38.09-.8.14-1.28.14-1.16,0-2.15-.42-2.95-1.28-.81-.85-1.21-2.04-1.21-3.57s.41-2.73,1.22-3.67c.81-.94,1.88-1.41,3.19-1.41.66,0,1.3.16,1.93.47Zm.57,3.69c-.06-.68-.21-1.23-.44-1.64-.43-.76-1.14-1.14-2.15-1.14-.72,0-1.32.26-1.81.78s-.74,1.19-.77,1.99h5.17Z" style="fill:#fff;"/><path d="m396.82,102.32c.05.53.18.93.4,1.21.41.51,1.11.76,2.11.76.6,0,1.12-.13,1.57-.38.45-.25.68-.65.68-1.18,0-.4-.18-.71-.54-.92-.23-.13-.69-.28-1.37-.45l-1.27-.32c-.81-.2-1.41-.42-1.8-.67-.69-.43-1.03-1.02-1.03-1.77,0-.89.32-1.61.97-2.16.65-.55,1.52-.82,2.62-.82,1.43,0,2.47.42,3.1,1.25.4.53.59,1.09.58,1.7h-1.49c-.03-.35-.16-.68-.39-.97-.37-.41-1.01-.62-1.93-.62-.61,0-1.07.11-1.39.34-.31.23-.47.53-.47.9,0,.41.21.73.62.98.24.15.59.27,1.05.38l1.06.25c1.15.28,1.93.54,2.32.8.61.4.92,1.04.92,1.9s-.32,1.56-.96,2.17c-.64.61-1.62.91-2.93.91-1.41,0-2.42-.32-3-.95s-.9-1.42-.95-2.35h1.52Z" style="fill:#fff;"/><path d="m405.12,93.26h1.6v2.62h1.5v1.29h-1.5v6.13c0,.33.11.55.33.66.12.06.33.1.61.1.08,0,.16,0,.25,0,.09,0,.19-.01.31-.03v1.25c-.18.05-.37.09-.57.11s-.41.04-.64.04c-.74,0-1.24-.19-1.5-.57-.26-.38-.39-.87-.39-1.47v-6.22h-1.27v-1.29h1.27v-2.62Z" style="fill:#fff;"/><path d="m409.72,95.88h1.5v1.62c.12-.32.42-.7.9-1.15s1.03-.68,1.66-.68c.03,0,.08,0,.15,0,.07,0,.19.02.36.04v1.67c-.09-.02-.18-.03-.26-.04-.08,0-.17,0-.26,0-.79,0-1.41.26-1.83.77-.43.51-.64,1.1-.64,1.77v5.4h-1.58v-9.39Z" style="fill:#fff;"/><path d="m422.36,96.82c.83.81,1.25,1.99,1.25,3.56s-.37,2.76-1.1,3.75c-.73.99-1.87,1.48-3.4,1.48-1.28,0-2.3-.44-3.06-1.31s-1.13-2.04-1.13-3.52c0-1.58.4-2.83,1.19-3.77.79-.93,1.86-1.4,3.2-1.4,1.2,0,2.22.4,3.05,1.21Zm-.98,6.24c.38-.79.58-1.67.58-2.64,0-.88-.14-1.59-.42-2.14-.44-.86-1.2-1.3-2.27-1.3-.95,0-1.65.37-2.08,1.1-.43.74-.65,1.62-.65,2.66s.22,1.83.65,2.5c.43.67,1.12,1,2.06,1,1.03,0,1.74-.4,2.13-1.19Z" style="fill:#fff;"/><path d="m432.31,96.82c.83.81,1.25,1.99,1.25,3.56s-.37,2.76-1.1,3.75c-.73.99-1.87,1.48-3.4,1.48-1.28,0-2.3-.44-3.06-1.31s-1.13-2.04-1.13-3.52c0-1.58.4-2.83,1.19-3.77.79-.93,1.86-1.4,3.2-1.4,1.2,0,2.22.4,3.05,1.21Zm-.98,6.24c.38-.79.58-1.67.58-2.64,0-.88-.14-1.59-.42-2.14-.44-.86-1.2-1.3-2.27-1.3-.95,0-1.65.37-2.08,1.1-.43.74-.65,1.62-.65,2.66s.22,1.83.65,2.5c.43.67,1.12,1,2.06,1,1.03,0,1.74-.4,2.13-1.19Z" style="fill:#fff;"/><path d="m435.37,95.88h1.56v1.33c.37-.46.71-.8,1.02-1.01.52-.36,1.11-.54,1.77-.54.75,0,1.35.18,1.81.55.26.21.49.52.7.93.35-.5.76-.88,1.24-1.12.47-.24,1.01-.36,1.6-.36,1.26,0,2.12.46,2.58,1.37.25.49.37,1.15.37,1.98v6.25h-1.64v-6.52c0-.62-.16-1.05-.47-1.29-.31-.23-.69-.35-1.14-.35-.62,0-1.15.21-1.6.62s-.67,1.11-.67,2.08v5.46h-1.6v-6.13c0-.64-.08-1.1-.23-1.39-.24-.44-.69-.66-1.34-.66-.6,0-1.14.23-1.63.69-.49.46-.73,1.3-.73,2.51v4.98h-1.58v-9.39Z" style="fill:#fff;"/><path d="m205.31,327.78v1.53h-4.34v11.34h-1.76v-11.34h-4.34v-1.53h10.44Z" style="fill:gray;"/><path d="m206.65,327.78h1.6v1.79h-1.6v-1.79Zm0,3.53h1.6v9.34h-1.6v-9.34Z" style="fill:gray;"/><path d="m216.8,331.77c.66.51,1.06,1.4,1.2,2.66h-1.53c-.09-.58-.31-1.06-.64-1.44-.33-.38-.87-.57-1.6-.57-1.01,0-1.72.49-2.16,1.47-.28.63-.42,1.42-.42,2.36s.2,1.73.6,2.37c.4.64,1.02.96,1.88.96.65,0,1.17-.2,1.56-.6.38-.4.65-.94.79-1.64h1.53c-.18,1.24-.61,2.16-1.31,2.73-.7.58-1.6.86-2.69.86-1.23,0-2.21-.45-2.94-1.35-.73-.9-1.1-2.02-1.1-3.36,0-1.65.4-2.93,1.2-3.85.8-.92,1.82-1.38,3.06-1.38,1.06,0,1.92.26,2.58.77Z" style="fill:gray;"/><path d="m219.59,327.78h1.52v7.48l4.05-3.99h2.02l-3.61,3.49,3.81,5.9h-2.02l-2.95-4.78-1.3,1.25v3.52h-1.52v-12.88Z" style="fill:gray;"/><path d="m233.93,331.53c.62.31,1.09.72,1.42,1.21.31.47.52,1.03.63,1.66.09.43.14,1.12.14,2.07h-6.83c.03.96.25,1.72.67,2.3.42.58,1.06.87,1.94.87.82,0,1.47-.27,1.96-.82.27-.32.47-.68.58-1.1h1.55c-.04.35-.18.73-.41,1.15s-.49.77-.77,1.04c-.48.47-1.06.78-1.77.95-.38.09-.8.14-1.28.14-1.16,0-2.15-.43-2.95-1.28-.81-.85-1.21-2.04-1.21-3.57s.41-2.73,1.22-3.67c.81-.94,1.88-1.41,3.19-1.41.66,0,1.3.16,1.93.47Zm.57,3.69c-.06-.68-.21-1.23-.44-1.64-.43-.76-1.14-1.14-2.15-1.14-.72,0-1.32.26-1.81.79s-.74,1.19-.77,1.99h5.17Z" style="fill:gray;"/><path d="m238.15,328.65h1.6v2.62h1.5v1.29h-1.5v6.13c0,.33.11.55.33.66.12.06.33.1.61.1.08,0,.16,0,.25,0,.09,0,.19-.01.31-.03v1.25c-.18.05-.37.09-.57.12s-.41.04-.64.04c-.74,0-1.24-.19-1.5-.57-.26-.38-.39-.87-.39-1.47v-6.21h-1.27v-1.29h1.27v-2.62Z" style="fill:gray;"/><path d="m188.32,346.33l3.7,10.97,3.66-10.97h1.96l-4.7,12.88h-1.85l-4.69-12.88h1.93Z" style="fill:gray;"/><path d="m203.83,350.07c.62.31,1.09.72,1.42,1.21.31.47.52,1.03.63,1.66.09.43.14,1.12.14,2.07h-6.83c.03.96.25,1.72.67,2.3.42.58,1.06.87,1.94.87.82,0,1.47-.27,1.96-.82.27-.32.47-.68.58-1.1h1.55c-.04.35-.18.73-.41,1.15s-.49.77-.77,1.04c-.48.47-1.06.78-1.77.95-.38.09-.8.14-1.28.14-1.16,0-2.15-.43-2.95-1.28-.81-.85-1.21-2.04-1.21-3.57s.41-2.73,1.22-3.67c.81-.94,1.88-1.41,3.19-1.41.66,0,1.3.16,1.93.47Zm.57,3.69c-.06-.68-.21-1.23-.44-1.64-.43-.76-1.14-1.14-2.15-1.14-.72,0-1.32.26-1.81.79s-.74,1.19-.77,1.99h5.17Z" style="fill:gray;"/><path d="m207.87,349.81h1.5v1.33c.44-.55.91-.94,1.41-1.18.5-.24,1.05-.36,1.66-.36,1.33,0,2.23.46,2.7,1.39.26.51.39,1.24.39,2.18v6.02h-1.6v-5.92c0-.57-.08-1.04-.25-1.39-.28-.58-.79-.88-1.53-.88-.37,0-.68.04-.92.12-.43.13-.81.38-1.14.77-.26.31-.43.63-.51.96s-.12.8-.12,1.42v4.92h-1.58v-9.39Z" style="fill:gray;"/><path d="m222.99,350.1c.28.18.6.48.95.92v-4.74h1.52v12.92h-1.42v-1.31c-.37.58-.8,1-1.3,1.25-.5.26-1.07.39-1.72.39-1.04,0-1.94-.44-2.71-1.32-.76-.88-1.14-2.05-1.14-3.51,0-1.37.35-2.55,1.04-3.55.7-1,1.69-1.5,2.98-1.5.72,0,1.32.15,1.8.46Zm-3.52,7.04c.42.68,1.1,1.02,2.04,1.02.73,0,1.32-.31,1.79-.94.47-.63.7-1.53.7-2.71s-.24-2.06-.72-2.63c-.48-.57-1.08-.86-1.79-.86-.79,0-1.43.3-1.92.91-.49.61-.74,1.5-.74,2.68,0,1,.21,1.85.64,2.52Z" style="fill:gray;"/><path d="m227.69,346.33h1.6v1.79h-1.6v-1.79Zm0,3.53h1.6v9.34h-1.6v-9.34Z" style="fill:gray;"/><path d="m231.53,349.81h1.5v1.33c.44-.55.91-.94,1.41-1.18.5-.24,1.05-.36,1.66-.36,1.33,0,2.23.46,2.7,1.39.26.51.39,1.24.39,2.18v6.02h-1.6v-5.92c0-.57-.08-1.04-.25-1.39-.28-.58-.79-.88-1.53-.88-.37,0-.68.04-.92.12-.43.13-.81.38-1.14.77-.26.31-.43.63-.51.96s-.12.8-.12,1.42v4.92h-1.58v-9.39Z" style="fill:gray;"/><path d="m246.7,350.19c.3.21.6.5.91.89v-1.18h1.46v8.54c0,1.19-.17,2.13-.52,2.82-.65,1.27-1.88,1.91-3.7,1.91-1.01,0-1.86-.23-2.54-.68-.69-.45-1.07-1.16-1.15-2.13h1.6c.08.42.23.75.45.97.35.35.91.53,1.67.53,1.2,0,1.99-.43,2.36-1.28.22-.5.32-1.4.31-2.69-.31.48-.69.84-1.14,1.07s-1.03.35-1.75.35c-1.01,0-1.9-.36-2.66-1.08-.76-.72-1.14-1.91-1.14-3.58,0-1.57.38-2.8,1.15-3.68.77-.88,1.69-1.32,2.77-1.32.73,0,1.37.18,1.92.54Zm.19,1.69c-.48-.56-1.08-.84-1.82-.84-1.1,0-1.86.52-2.27,1.56-.22.56-.32,1.28-.32,2.18,0,1.06.21,1.86.64,2.42.43.55,1,.83,1.72.83,1.13,0,1.92-.51,2.38-1.54.26-.58.38-1.25.38-2.03,0-1.16-.24-2.02-.72-2.59Z" style="fill:gray;"/><path d="m185.82,364.87h2.5l3.7,10.89,3.68-10.89h2.48v12.88h-1.67v-7.6c0-.26,0-.7.02-1.31.01-.61.02-1.26.02-1.96l-3.68,10.86h-1.73l-3.71-10.86v.39c0,.32,0,.8.03,1.44.02.65.03,1.12.03,1.42v7.6h-1.67v-12.88Z" style="fill:gray;"/><path d="m205.55,372.07c.36-.04.6-.2.73-.45.07-.14.1-.34.1-.61,0-.54-.19-.93-.57-1.18-.38-.24-.93-.37-1.64-.37-.82,0-1.41.22-1.75.67-.19.25-.32.61-.38,1.1h-1.47c.03-1.16.4-1.97,1.12-2.42.72-.46,1.56-.68,2.51-.68,1.1,0,2,.21,2.69.63.68.42,1.02,1.08,1.02,1.96v5.41c0,.16.03.29.1.39.07.1.21.15.42.15.07,0,.15,0,.24-.01.09,0,.18-.02.28-.04v1.17c-.25.07-.43.12-.56.13-.13.02-.3.03-.53.03-.54,0-.94-.19-1.18-.58-.13-.21-.22-.49-.27-.87-.32.42-.78.79-1.39,1.1-.6.31-1.27.46-1.99.46-.87,0-1.58-.26-2.13-.79-.55-.53-.83-1.19-.83-1.98,0-.87.27-1.54.82-2.02s1.26-.77,2.14-.88l2.52-.32Zm-3.32,4.26c.33.26.73.39,1.18.39.56,0,1.09-.13,1.61-.39.88-.43,1.31-1.12,1.31-2.09v-1.27c-.19.12-.44.22-.74.31s-.6.14-.89.18l-.95.12c-.57.08-1,.2-1.29.36-.49.27-.73.71-.73,1.31,0,.46.17.81.5,1.08Z" style="fill:gray;"/><path d="m216.55,368.86c.66.52,1.06,1.4,1.2,2.66h-1.53c-.09-.58-.31-1.06-.64-1.44-.33-.38-.87-.57-1.6-.57-1.01,0-1.72.49-2.16,1.47-.28.64-.42,1.42-.42,2.36s.2,1.73.6,2.37,1.02.96,1.88.96c.65,0,1.17-.2,1.56-.6s.65-.95.79-1.64h1.53c-.18,1.24-.61,2.15-1.31,2.73s-1.6.86-2.69.86c-1.23,0-2.21-.45-2.94-1.35-.73-.9-1.1-2.02-1.1-3.36,0-1.65.4-2.93,1.2-3.85s1.82-1.38,3.06-1.38c1.06,0,1.92.26,2.58.77Z" style="fill:gray;"/><path d="m219.35,364.83h1.58v4.8c.37-.47.71-.81,1.01-1,.51-.33,1.14-.5,1.9-.5,1.36,0,2.29.48,2.77,1.43.26.52.39,1.24.39,2.17v6.02h-1.62v-5.92c0-.69-.09-1.2-.26-1.52-.29-.51-.82-.77-1.61-.77-.65,0-1.25.22-1.78.67-.53.45-.8,1.3-.8,2.55v4.98h-1.58v-12.92Z" style="fill:gray;"/><path d="m229.21,364.87h1.6v1.79h-1.6v-1.79Zm0,3.53h1.6v9.35h-1.6v-9.35Z" style="fill:gray;"/><path d="m233.05,368.36h1.5v1.33c.44-.55.91-.94,1.41-1.18.5-.24,1.05-.36,1.66-.36,1.33,0,2.23.46,2.7,1.39.26.51.39,1.23.39,2.18v6.02h-1.6v-5.92c0-.57-.08-1.04-.25-1.38-.28-.58-.79-.88-1.53-.88-.37,0-.68.04-.92.11-.43.13-.81.39-1.14.77-.26.31-.43.63-.51.96s-.12.8-.12,1.42v4.92h-1.58v-9.39Z" style="fill:gray;"/><path d="m248.72,368.62c.62.31,1.09.72,1.42,1.21.31.47.52,1.03.63,1.66.09.43.14,1.12.14,2.07h-6.83c.03.96.25,1.72.67,2.3.42.58,1.06.87,1.94.87.82,0,1.47-.27,1.96-.82.27-.32.47-.68.58-1.1h1.55c-.04.34-.18.73-.41,1.15s-.49.77-.77,1.04c-.48.47-1.06.78-1.77.95-.38.09-.8.14-1.28.14-1.16,0-2.15-.42-2.95-1.28-.81-.85-1.21-2.04-1.21-3.57s.41-2.73,1.22-3.67c.81-.94,1.88-1.41,3.19-1.41.66,0,1.3.16,1.93.47Zm.57,3.69c-.06-.68-.21-1.23-.44-1.64-.43-.76-1.14-1.14-2.15-1.14-.72,0-1.32.26-1.81.78s-.74,1.19-.77,1.99h5.17Z" style="fill:gray;"/><path d="m46.15,211.24h1.74v11.34h6.46v1.53h-8.21v-12.88Z" style="fill:gray;"/><path d="m61,218.43c.36-.05.6-.2.73-.45.07-.14.1-.34.1-.61,0-.54-.19-.93-.57-1.17-.38-.24-.93-.37-1.64-.37-.82,0-1.41.22-1.75.67-.19.25-.32.61-.38,1.1h-1.47c.03-1.16.4-1.97,1.12-2.42s1.56-.68,2.51-.68c1.1,0,2,.21,2.69.63.68.42,1.02,1.08,1.02,1.96v5.41c0,.16.03.29.1.39.07.1.21.15.42.15.07,0,.15,0,.24-.01.09,0,.18-.02.28-.04v1.17c-.25.07-.43.11-.56.13-.13.02-.3.03-.53.03-.54,0-.94-.19-1.18-.58-.13-.2-.22-.49-.27-.87-.32.42-.78.79-1.39,1.1-.6.31-1.27.46-1.99.46-.87,0-1.58-.26-2.13-.79s-.83-1.19-.83-1.98c0-.87.27-1.54.82-2.02s1.26-.77,2.14-.88l2.52-.32Zm-3.32,4.26c.33.26.73.39,1.18.39.56,0,1.09-.13,1.61-.39.88-.43,1.31-1.12,1.31-2.09v-1.27c-.19.12-.44.23-.74.31s-.6.14-.89.18l-.95.12c-.57.08-1,.2-1.29.36-.49.27-.73.71-.73,1.31,0,.46.17.81.5,1.08Z" style="fill:gray;"/><path d="m66.35,214.72l1.81,7.4,1.83-7.4h1.77l1.84,7.35,1.92-7.35h1.58l-2.73,9.39h-1.64l-1.91-7.27-1.85,7.27h-1.64l-2.71-9.39h1.73Z" style="fill:gray;"/><path d="m79.28,221.17c.05.53.18.93.4,1.21.41.51,1.11.76,2.11.76.6,0,1.12-.13,1.57-.38.45-.25.68-.65.68-1.18,0-.4-.18-.71-.54-.92-.23-.13-.69-.28-1.37-.45l-1.27-.32c-.81-.2-1.41-.42-1.8-.67-.69-.43-1.03-1.02-1.03-1.77,0-.89.32-1.61.97-2.16.65-.55,1.52-.82,2.62-.82,1.43,0,2.47.42,3.1,1.25.4.53.59,1.09.58,1.7h-1.49c-.03-.35-.16-.68-.39-.97-.37-.41-1.01-.62-1.93-.62-.61,0-1.07.11-1.39.34-.31.23-.47.53-.47.9,0,.41.21.73.62.98.24.15.59.27,1.05.38l1.06.25c1.15.28,1.93.54,2.32.8.61.4.92,1.04.92,1.9s-.32,1.56-.96,2.17c-.64.61-1.62.91-2.93.91-1.41,0-2.42-.32-3-.95s-.9-1.42-.95-2.35h1.52Z" style="fill:gray;"/><path d="m94.15,215.66c.83.81,1.25,1.99,1.25,3.56s-.37,2.76-1.1,3.75c-.73.99-1.87,1.48-3.4,1.48-1.28,0-2.3-.44-3.06-1.31s-1.13-2.04-1.13-3.52c0-1.58.4-2.83,1.19-3.77.79-.93,1.86-1.4,3.2-1.4,1.2,0,2.22.4,3.05,1.21Zm-.98,6.24c.38-.79.58-1.67.58-2.64,0-.88-.14-1.59-.42-2.14-.44-.86-1.2-1.3-2.27-1.3-.95,0-1.65.37-2.08,1.1-.43.74-.65,1.62-.65,2.66s.22,1.83.65,2.5c.43.67,1.12,1,2.06,1,1.03,0,1.74-.4,2.13-1.19Z" style="fill:gray;"/><path d="m97.21,214.72h1.5v1.33c.44-.55.91-.94,1.41-1.18.5-.24,1.05-.36,1.66-.36,1.33,0,2.23.46,2.7,1.39.26.51.39,1.24.39,2.18v6.02h-1.6v-5.92c0-.57-.08-1.04-.25-1.39-.28-.58-.79-.88-1.53-.88-.37,0-.68.04-.92.11-.43.13-.81.39-1.14.77-.26.31-.43.63-.51.96s-.12.8-.12,1.42v4.92h-1.58v-9.39Z" style="fill:gray;"/><path d="m245.45,404.41c.04.73.21,1.32.5,1.78.56.85,1.54,1.28,2.95,1.28.63,0,1.2-.09,1.72-.28,1-.36,1.5-1.01,1.5-1.95,0-.7-.21-1.2-.64-1.5-.43-.29-1.1-.55-2.02-.76l-1.69-.39c-1.1-.26-1.89-.54-2.34-.85-.79-.54-1.19-1.34-1.19-2.41,0-1.16.39-2.11,1.17-2.85.78-.74,1.88-1.11,3.31-1.11,1.31,0,2.43.33,3.35.98.92.65,1.38,1.69,1.38,3.12h-1.64c-.08-.69-.26-1.22-.54-1.59-.51-.67-1.38-1.01-2.6-1.01-.99,0-1.7.22-2.13.65-.43.43-.65.94-.65,1.51,0,.63.25,1.09.76,1.38.33.19,1.09.42,2.27.7l1.75.41c.84.2,1.5.47,1.95.82.79.6,1.19,1.48,1.19,2.62,0,1.43-.51,2.45-1.52,3.06-1.01.61-2.19.92-3.53.92-1.56,0-2.78-.41-3.67-1.23-.88-.81-1.32-1.91-1.3-3.3h1.64Z" style="fill:gray;"/><path d="m256.19,396.55h1.6v2.62h1.5v1.29h-1.5v6.13c0,.33.11.55.33.66.12.06.33.1.61.1.08,0,.16,0,.25,0,.09,0,.19-.01.31-.03v1.25c-.18.05-.37.09-.57.11s-.41.04-.64.04c-.74,0-1.24-.19-1.5-.57-.26-.38-.39-.87-.39-1.47v-6.22h-1.27v-1.29h1.27v-2.62Z" style="fill:gray;"/><path d="m265.85,402.88c.36-.05.6-.2.73-.45.07-.14.1-.34.1-.61,0-.54-.19-.93-.57-1.17-.38-.24-.93-.37-1.64-.37-.82,0-1.41.22-1.75.67-.19.25-.32.61-.38,1.1h-1.47c.03-1.16.4-1.97,1.12-2.42s1.56-.68,2.51-.68c1.1,0,2,.21,2.69.63.68.42,1.02,1.08,1.02,1.96v5.41c0,.16.03.29.1.39.07.1.21.15.42.15.07,0,.15,0,.24-.01.09,0,.18-.02.28-.04v1.17c-.25.07-.43.11-.56.13-.13.02-.3.03-.53.03-.54,0-.94-.19-1.18-.58-.13-.2-.22-.49-.27-.87-.32.42-.78.79-1.39,1.1-.6.31-1.27.46-1.99.46-.87,0-1.58-.26-2.13-.79s-.83-1.19-.83-1.98c0-.87.27-1.54.82-2.02s1.26-.77,2.14-.88l2.52-.32Zm-3.32,4.26c.33.26.73.39,1.18.39.56,0,1.09-.13,1.61-.39.88-.43,1.31-1.12,1.31-2.09v-1.27c-.19.12-.44.23-.74.31s-.6.14-.89.18l-.95.12c-.57.08-1,.2-1.29.36-.49.27-.73.71-.73,1.31,0,.46.17.81.5,1.08Z" style="fill:gray;"/><path d="m270.84,396.55h1.6v2.62h1.5v1.29h-1.5v6.13c0,.33.11.55.33.66.12.06.33.1.61.1.08,0,.16,0,.25,0,.09,0,.19-.01.31-.03v1.25c-.18.05-.37.09-.57.11s-.41.04-.64.04c-.74,0-1.24-.19-1.5-.57-.26-.38-.39-.87-.39-1.47v-6.22h-1.27v-1.29h1.27v-2.62Z" style="fill:gray;"/><path d="m275.44,395.68h1.6v1.79h-1.6v-1.79Zm0,3.53h1.6v9.34h-1.6v-9.34Z" style="fill:gray;"/><path d="m286.2,400.11c.83.81,1.25,1.99,1.25,3.56s-.37,2.76-1.1,3.75c-.73.99-1.87,1.48-3.4,1.48-1.28,0-2.3-.44-3.06-1.31s-1.13-2.04-1.13-3.52c0-1.58.4-2.83,1.19-3.77.79-.93,1.86-1.4,3.2-1.4,1.2,0,2.22.4,3.05,1.21Zm-.98,6.24c.38-.79.58-1.67.58-2.64,0-.88-.14-1.59-.42-2.14-.44-.86-1.2-1.3-2.27-1.3-.95,0-1.65.37-2.08,1.1-.43.74-.65,1.62-.65,2.66s.22,1.83.65,2.5c.43.67,1.12,1,2.06,1,1.03,0,1.74-.4,2.13-1.19Z" style="fill:gray;"/><path d="m289.26,399.17h1.5v1.33c.44-.55.91-.94,1.41-1.18.5-.24,1.05-.36,1.66-.36,1.33,0,2.23.46,2.7,1.39.26.51.39,1.24.39,2.18v6.02h-1.6v-5.92c0-.57-.08-1.04-.25-1.39-.28-.58-.79-.88-1.53-.88-.37,0-.68.04-.92.11-.43.13-.81.39-1.14.77-.26.31-.43.63-.51.96s-.12.8-.12,1.42v4.92h-1.58v-9.39Z" style="fill:gray;"/><path d="m304.93,399.43c.62.31,1.09.72,1.42,1.21.31.47.52,1.03.63,1.66.09.43.14,1.12.14,2.07h-6.83c.03.96.25,1.72.67,2.3s1.06.87,1.94.87c.82,0,1.47-.27,1.96-.82.27-.32.47-.68.58-1.1h1.55c-.04.34-.18.73-.41,1.15s-.49.77-.77,1.04c-.48.47-1.06.78-1.77.95-.38.09-.8.14-1.28.14-1.16,0-2.15-.42-2.95-1.28-.81-.85-1.21-2.04-1.21-3.57s.41-2.73,1.22-3.67c.81-.94,1.88-1.41,3.19-1.41.66,0,1.3.16,1.93.47Zm.57,3.69c-.06-.68-.21-1.23-.44-1.64-.43-.76-1.14-1.14-2.15-1.14-.72,0-1.32.26-1.81.78s-.74,1.19-.77,1.99h5.17Z" style="fill:gray;"/><path d="m308.99,399.17h1.5v1.62c.12-.32.42-.7.9-1.15s1.03-.68,1.66-.68c.03,0,.08,0,.15,0,.07,0,.19.02.36.04v1.67c-.09-.02-.18-.03-.26-.04-.08,0-.17,0-.26,0-.79,0-1.41.26-1.83.77-.43.51-.64,1.1-.64,1.77v5.4h-1.58v-9.39Z" style="fill:gray;"/><path d="m321.22,399.17h1.74c-.22.6-.72,1.98-1.48,4.12-.57,1.61-1.05,2.93-1.44,3.95-.91,2.39-1.55,3.85-1.93,4.38-.37.53-1.02.79-1.93.79-.22,0-.39,0-.51-.03-.12-.02-.27-.05-.44-.1v-1.44c.27.08.47.12.59.14s.23.03.32.03c.29,0,.51-.05.64-.14.14-.1.25-.21.35-.35.03-.05.13-.29.31-.72s.31-.75.39-.96l-3.47-9.67h1.79l2.52,7.65,2.53-7.65Z" style="fill:gray;"/><path d="m271.38,416.07c.85,1.14,1.28,2.6,1.28,4.37,0,1.92-.49,3.52-1.46,4.8-1.15,1.5-2.78,2.24-4.9,2.24-1.98,0-3.54-.65-4.67-1.96-1.01-1.26-1.52-2.86-1.52-4.79,0-1.74.43-3.23,1.3-4.47,1.11-1.59,2.75-2.38,4.93-2.38s3.96.73,5.05,2.19Zm-1.54,8.21c.69-1.1,1.03-2.37,1.03-3.8,0-1.52-.4-2.73-1.19-3.66-.79-.92-1.87-1.39-3.25-1.39s-2.42.46-3.26,1.37c-.84.92-1.26,2.26-1.26,4.05,0,1.43.36,2.63,1.08,3.61s1.89,1.47,3.51,1.47,2.65-.55,3.34-1.65Z" style="fill:gray;"/><path d="m275.4,414.85c.37-.54,1.08-.81,2.13-.81.1,0,.2,0,.31,0,.11,0,.23.01.36.03v1.44c-.17-.01-.29-.02-.36-.02s-.14,0-.21,0c-.48,0-.77.12-.87.37s-.14.88-.14,1.9h1.58v1.24h-1.58v8.1h-1.56v-8.1h-1.31v-1.24h1.31v-1.47c.02-.65.14-1.13.34-1.44Z" style="fill:gray;"/><path d="m280.74,414.85c.37-.54,1.08-.81,2.13-.81.1,0,.2,0,.31,0,.11,0,.23.01.36.03v1.44c-.17-.01-.29-.02-.36-.02s-.14,0-.21,0c-.48,0-.77.12-.87.37s-.14.88-.14,1.9h1.58v1.24h-1.58v8.1h-1.56v-8.1h-1.31v-1.24h1.31v-1.47c.02-.65.14-1.13.34-1.44Z" style="fill:gray;"/><path d="m284.88,414.23h1.6v1.79h-1.6v-1.79Zm0,3.53h1.6v9.34h-1.6v-9.34Z" style="fill:gray;"/><path d="m295.04,418.22c.66.51,1.06,1.4,1.2,2.66h-1.53c-.09-.58-.31-1.06-.64-1.44-.33-.38-.87-.57-1.6-.57-1.01,0-1.72.49-2.16,1.47-.28.64-.42,1.42-.42,2.36s.2,1.73.6,2.37c.4.64,1.02.96,1.88.96.65,0,1.17-.2,1.56-.6.38-.4.65-.94.79-1.64h1.53c-.18,1.24-.61,2.16-1.31,2.73-.7.58-1.6.86-2.69.86-1.23,0-2.21-.45-2.94-1.35-.73-.9-1.1-2.02-1.1-3.36,0-1.65.4-2.93,1.2-3.85.8-.92,1.82-1.38,3.06-1.38,1.06,0,1.92.26,2.58.77Z" style="fill:gray;"/><path d="m303.68,417.98c.62.31,1.09.72,1.42,1.21.31.47.52,1.03.63,1.66.09.43.14,1.12.14,2.07h-6.83c.03.96.25,1.72.67,2.3s1.06.87,1.94.87c.82,0,1.47-.27,1.96-.82.27-.32.47-.68.58-1.1h1.55c-.04.34-.18.73-.41,1.15s-.49.77-.77,1.04c-.48.47-1.06.78-1.77.95-.38.09-.8.14-1.28.14-1.16,0-2.15-.42-2.95-1.28-.81-.85-1.21-2.04-1.21-3.57s.41-2.73,1.22-3.67c.81-.94,1.88-1.41,3.19-1.41.66,0,1.3.16,1.93.47Zm.57,3.69c-.06-.68-.21-1.23-.44-1.64-.43-.76-1.14-1.14-2.15-1.14-.72,0-1.32.26-1.81.78s-.74,1.19-.77,1.99h5.17Z" style="fill:gray;"/><path d="m426.73,436.3c.8.77,1.24,1.65,1.33,2.63h-1.53c-.17-.75-.51-1.34-1.02-1.77-.51-.44-1.22-.65-2.14-.65-1.12,0-2.02.4-2.71,1.2-.69.8-1.03,2.03-1.03,3.69,0,1.36.31,2.46.93,3.3.62.84,1.55,1.27,2.78,1.27,1.14,0,2-.44,2.59-1.33.31-.47.55-1.08.7-1.84h1.53c-.14,1.22-.58,2.24-1.34,3.07-.91.99-2.13,1.49-3.68,1.49-1.33,0-2.45-.41-3.35-1.22-1.19-1.08-1.78-2.74-1.78-4.99,0-1.71.45-3.11,1.34-4.2.97-1.19,2.3-1.78,4-1.78,1.45,0,2.57.39,3.37,1.16Z" style="fill:gray;"/><path d="m431.22,438.59v5.6c0,.43.07.78.2,1.06.25.5.7.76,1.37.76.96,0,1.62-.44,1.96-1.32.19-.47.28-1.12.28-1.95v-4.14h1.42v8.44h-1.34l.02-1.25c-.18.32-.4.59-.67.81-.53.44-1.18.66-1.93.66-1.18,0-1.98-.4-2.41-1.21-.23-.43-.35-1.01-.35-1.73v-5.74h1.45Z" style="fill:gray;"/><path d="m439.44,444.38c.04.47.16.83.36,1.09.36.46,1,.68,1.9.68.54,0,1.01-.11,1.42-.34.41-.23.61-.58.61-1.06,0-.36-.16-.64-.49-.83-.21-.12-.62-.25-1.23-.4l-1.15-.28c-.73-.18-1.27-.38-1.62-.6-.62-.38-.93-.91-.93-1.59,0-.8.29-1.45.87-1.94.58-.49,1.37-.74,2.35-.74,1.29,0,2.22.37,2.79,1.12.36.47.53.98.52,1.53h-1.34c-.03-.32-.14-.61-.35-.87-.33-.37-.91-.56-1.73-.56-.55,0-.96.1-1.25.31s-.42.47-.42.81c0,.37.19.66.56.88.21.13.53.25.95.35l.96.23c1.04.25,1.73.49,2.09.72.55.36.83.93.83,1.71s-.29,1.4-.87,1.95c-.58.55-1.46.82-2.64.82-1.27,0-2.17-.29-2.7-.86-.53-.57-.81-1.27-.85-2.12h1.36Z" style="fill:gray;"/><path d="m446.9,436.23h1.43v2.36h1.35v1.16h-1.35v5.51c0,.29.1.49.3.59.11.06.29.09.55.09.07,0,.14,0,.22,0,.08,0,.17-.01.28-.03v1.13c-.16.05-.33.08-.51.1-.18.02-.37.03-.57.03-.66,0-1.11-.17-1.35-.51s-.35-.78-.35-1.32v-5.59h-1.14v-1.16h1.14v-2.36Z" style="fill:gray;"/><path d="m457.02,439.43c.75.72,1.12,1.79,1.12,3.2s-.33,2.48-.99,3.37c-.66.89-1.68,1.33-3.06,1.33-1.15,0-2.07-.39-2.75-1.18-.68-.79-1.02-1.84-1.02-3.16,0-1.42.36-2.54,1.07-3.38s1.67-1.26,2.88-1.26c1.08,0,1.99.36,2.74,1.09Zm-.88,5.61c.35-.71.52-1.5.52-2.37,0-.79-.12-1.43-.37-1.92-.39-.78-1.08-1.17-2.04-1.17-.86,0-1.48.33-1.87.99-.39.66-.58,1.46-.58,2.39s.19,1.64.58,2.24c.39.6,1.01.9,1.85.9.93,0,1.57-.36,1.91-1.07Z" style="fill:gray;"/><path d="m459.78,438.59h1.4v1.2c.34-.42.64-.72.91-.91.47-.32,1-.48,1.59-.48.67,0,1.21.17,1.62.5.23.19.44.47.63.83.31-.45.69-.79,1.11-1,.43-.22.9-.33,1.43-.33,1.13,0,1.91.41,2.32,1.23.22.44.33,1.04.33,1.78v5.62h-1.47v-5.86c0-.56-.14-.95-.42-1.16-.28-.21-.62-.32-1.03-.32-.56,0-1.04.19-1.44.56s-.6,1-.6,1.87v4.91h-1.44v-5.51c0-.57-.07-.99-.2-1.25-.22-.39-.62-.59-1.21-.59-.54,0-1.02.21-1.46.62-.44.42-.66,1.17-.66,2.25v4.48h-1.42v-8.44Z" style="fill:gray;"/><path d="m478.35,438.82c.56.28.98.65,1.28,1.09.28.42.47.92.56,1.49.08.39.12,1.01.12,1.86h-6.14c.03.86.23,1.55.6,2.07.38.52.96.78,1.74.78.73,0,1.32-.25,1.76-.74.25-.28.42-.61.52-.99h1.39c-.04.31-.16.66-.37,1.04s-.44.69-.69.93c-.43.42-.96.7-1.59.85-.34.08-.72.13-1.15.13-1.04,0-1.93-.38-2.65-1.15-.73-.76-1.09-1.83-1.09-3.21s.37-2.46,1.1-3.3c.73-.85,1.69-1.27,2.87-1.27.6,0,1.17.14,1.73.42Zm.51,3.31c-.06-.61-.19-1.11-.4-1.47-.39-.68-1.03-1.02-1.93-1.02-.65,0-1.19.24-1.62.71-.44.47-.67,1.07-.7,1.79h4.65Z" style="fill:gray;"/><path d="m482.01,438.59h1.35v1.46c.11-.28.38-.63.81-1.04s.93-.61,1.49-.61c.03,0,.07,0,.13,0,.06,0,.17.02.32.03v1.5c-.08-.02-.16-.03-.23-.03-.07,0-.15,0-.23,0-.71,0-1.26.23-1.65.69-.38.46-.58.99-.58,1.59v4.85h-1.42v-8.44Z" style="fill:gray;"/><path d="m493.04,443.29c.04.66.18,1.19.45,1.6.5.77,1.38,1.15,2.65,1.15.57,0,1.08-.08,1.55-.25.9-.33,1.35-.91,1.35-1.75,0-.63-.19-1.08-.57-1.35-.39-.26-.99-.49-1.82-.69l-1.52-.35c-.99-.23-1.69-.49-2.11-.76-.71-.48-1.07-1.21-1.07-2.17,0-1.04.35-1.89,1.05-2.56.7-.67,1.69-1,2.98-1,1.18,0,2.18.29,3.01.88.83.59,1.24,1.52,1.24,2.81h-1.47c-.08-.62-.24-1.1-.48-1.43-.46-.6-1.24-.91-2.33-.91-.89,0-1.52.19-1.91.58s-.58.84-.58,1.35c0,.57.23.98.69,1.25.3.17.98.38,2.04.63l1.57.37c.76.18,1.34.42,1.76.73.71.54,1.07,1.33,1.07,2.36,0,1.28-.45,2.2-1.36,2.75s-1.97.83-3.17.83c-1.4,0-2.5-.37-3.3-1.1-.79-.73-1.18-1.72-1.17-2.97h1.47Z" style="fill:gray;"/><path d="m507.61,438.82c.56.28.98.65,1.28,1.09.28.42.47.92.56,1.49.08.39.12,1.01.12,1.86h-6.14c.03.86.23,1.55.6,2.07.38.52.96.78,1.74.78.73,0,1.32-.25,1.76-.74.25-.28.42-.61.52-.99h1.39c-.04.31-.16.66-.37,1.04s-.44.69-.69.93c-.43.42-.96.7-1.59.85-.34.08-.72.13-1.15.13-1.04,0-1.93-.38-2.65-1.15-.73-.76-1.09-1.83-1.09-3.21s.37-2.46,1.1-3.3c.73-.85,1.69-1.27,2.87-1.27.6,0,1.17.14,1.73.42Zm.51,3.31c-.06-.61-.19-1.11-.4-1.47-.39-.68-1.03-1.02-1.93-1.02-.65,0-1.19.24-1.62.71-.44.47-.67,1.07-.7,1.79h4.65Z" style="fill:gray;"/><path d="m515.69,441.92c.33-.04.54-.18.65-.41.06-.13.09-.31.09-.55,0-.48-.17-.84-.52-1.06s-.83-.33-1.47-.33c-.74,0-1.26.2-1.57.6-.17.22-.29.55-.34.99h-1.32c.03-1.04.36-1.77,1.01-2.18s1.4-.61,2.25-.61c.99,0,1.8.19,2.42.57.61.38.92.97.92,1.77v4.86c0,.15.03.27.09.35s.19.13.38.13c.06,0,.13,0,.21-.01.08,0,.16-.02.25-.04v1.05c-.22.06-.39.1-.5.12-.12.02-.27.02-.47.02-.49,0-.84-.17-1.06-.52-.12-.18-.2-.44-.24-.78-.29.38-.7.71-1.24.98s-1.14.42-1.79.42c-.78,0-1.42-.24-1.92-.71-.5-.47-.74-1.07-.74-1.78,0-.78.24-1.39.73-1.82.49-.43,1.13-.7,1.92-.79l2.26-.28Zm-2.99,3.83c.3.24.65.35,1.06.35.5,0,.98-.12,1.45-.35.79-.38,1.18-1.01,1.18-1.88v-1.14c-.17.11-.4.2-.67.28-.27.07-.54.13-.8.16l-.86.11c-.51.07-.9.18-1.16.32-.44.25-.66.64-.66,1.18,0,.41.15.73.45.97Z" style="fill:gray;"/><path d="m520.18,436.23h1.43v2.36h1.35v1.16h-1.35v5.51c0,.29.1.49.3.59.11.06.29.09.55.09.07,0,.14,0,.22,0,.08,0,.17-.01.28-.03v1.13c-.16.05-.33.08-.51.1-.18.02-.37.03-.57.03-.66,0-1.11-.17-1.35-.51s-.35-.78-.35-1.32v-5.59h-1.14v-1.16h1.14v-2.36Z" style="fill:gray;"/><path d="m524.33,435.45h1.44v1.61h-1.44v-1.61Zm0,3.18h1.44v8.4h-1.44v-8.4Z" style="fill:gray;"/><path d="m527.79,438.59h1.35v1.2c.4-.49.82-.85,1.27-1.06.45-.22.94-.32,1.49-.32,1.2,0,2.01.42,2.43,1.25.23.46.35,1.11.35,1.96v5.41h-1.44v-5.32c0-.51-.08-.93-.23-1.25-.25-.52-.71-.79-1.37-.79-.34,0-.61.03-.83.1-.39.12-.73.35-1.02.69-.24.28-.39.57-.46.86s-.11.72-.11,1.27v4.42h-1.42v-8.44Z" style="fill:gray;"/><path d="m541.43,438.93c.27.18.54.45.81.8v-1.06h1.31v7.67c0,1.07-.16,1.92-.47,2.54-.59,1.14-1.69,1.72-3.32,1.72-.91,0-1.67-.2-2.28-.61-.62-.41-.96-1.04-1.04-1.91h1.44c.07.38.2.67.41.88.32.31.82.47,1.5.47,1.08,0,1.79-.38,2.12-1.15.2-.45.29-1.26.27-2.42-.28.43-.62.75-1.02.96-.4.21-.92.32-1.58.32-.91,0-1.71-.32-2.39-.97-.68-.65-1.02-1.72-1.02-3.22,0-1.41.34-2.52,1.03-3.31.69-.79,1.52-1.19,2.49-1.19.66,0,1.24.16,1.73.49Zm.17,1.52c-.43-.5-.97-.76-1.64-.76-.99,0-1.67.47-2.04,1.4-.19.5-.29,1.15-.29,1.96,0,.95.19,1.67.58,2.17.38.5.9.74,1.55.74,1.01,0,1.73-.46,2.14-1.38.23-.52.34-1.13.34-1.82,0-1.04-.21-1.82-.64-2.32Z" style="fill:gray;"/></g></svg>