<?xml version="1.0" encoding="UTF-8"?><svg id="_レイヤー_2" xmlns="http://www.w3.org/2000/svg" width="1013.33" height="426.29" viewBox="0 0 1013.33 426.29"><g id="_レイヤー_2-2"><path d="m1004.53,209.62h-17.48V5.25h-79.09v19.95H206.57v36.51h553.07v65.18H206.57v138.34h-101.31v65.18h31.87v35.58h67.84v-35.58h466.89v44.56h69.83v-44.56h165.61v53.21h79.63v.12h-79.63v42.56h79.75v-42.2h26.29v-174.47h-8.8Zm-244.89,55.6H236.29v-65.18h523.35v65.18Z" style="fill:#f2f2f2;"/><line x1="201.33" y1="260.22" x2="1.8" y2="260.22" style="fill:none; stroke:#545454; stroke-miterlimit:10; stroke-width:.5px;"/><line x1="269.8" y1="121.89" x2="1.8" y2="121.89" style="fill:none; stroke:#545454; stroke-miterlimit:10; stroke-width:.5px;"/><polygon points="78.26 391.91 23.39 391.91 23.39 6.88 78.26 6.88 78.26 286.83 78.26 391.91" style="fill:#e6e6e6;"/><rect x="213.52" y="260.22" width="541.12" height="65.18" style="fill:#dbf1de;"/><rect x="100.26" y="260.22" width="87.07" height="65.18" style="fill:#f2f2f2;"/><rect x="188.58" y="260.22" width="32.59" height="65.18" style="fill:#e3f2f7;"/><rect x="201.57" y="121.89" width="553.07" height="73.16" style="fill:#dbf1de;"/><rect x="201.57" y="121.89" width="29.72" height="203.52" style="fill:#e3f2f7;"/><polygon points="754.64 121.89 754.64 195.05 754.64 260.22 754.64 325.4 868.37 325.4 868.37 121.89 754.64 121.89" style="fill:#e3f2f7;"/><polygon points="868.37 20.2 754.64 20.2 754.64 56.71 754.64 121.89 868.37 121.89 868.37 20.2" style="fill:#e6e6e6;"/><rect x="201.57" y="20.2" width="553.07" height="36.51" style="fill:#e6e6e6;"/><polygon points="902.96 .25 902.96 20.2 868.37 20.2 868.37 325.4 902.29 325.4 902.29 378.61 982.05 378.61 982.05 .25 902.96 .25" style="fill:#e6e6e6;"/><rect x="132.13" y="325.07" width="23.94" height="35.91" style="fill:#e6e6e6; stroke:#545454; stroke-miterlimit:10; stroke-width:.5px;"/><rect x="156.07" y="325.07" width="43.9" height="35.91" style="fill:#fff; stroke:#545454; stroke-miterlimit:10; stroke-width:.5px;"/><path d="m425.33,144.01c.37-2.22,1.84-3.4,3.8-3.4,2.08,0,3.55,1.23,3.55,3.31,0,1.4-.52,2.45-2.64,4.31-1.89,1.66-2.78,2.8-3.36,4.08h6.02v1.21h-7.47v-1.09c.72-1.7,1.84-3.2,3.75-4.97,1.8-1.68,2.21-2.42,2.21-3.54,0-1.29-.84-2.1-2.07-2.1s-2.12.84-2.35,2.52l-1.44-.33Z" style="fill:#0094e2;"/><path d="m443.47,144.9c1.96,1.52,3.83,2.24,6.84,3.12-.19.19-.33.4-.44.61-.17.33-.17.32-.51.21-2.78-.91-4.9-2.01-6.6-3.59,0,1.15.07,2.08.07,2.36,0,.12-.02.14-.14.14h-.82c-.12,0-.14-.02-.14-.14,0-.28.07-1.21.09-2.35-1.63,1.63-3.87,2.78-6.37,3.59q-.31.1-.49-.21c-.14-.21-.3-.38-.46-.54,2.73-.73,4.83-1.66,6.55-3.2h-3.57c-1.68,0-2.24.03-2.33.03-.14,0-.16-.02-.16-.14v-.65c0-.12.02-.14.16-.14.09,0,.65.03,2.33.03h1.16c-.23-.58-.46-1.02-.77-1.54-.07-.12-.07-.16.18-.25l.46-.16c.19-.07.21-.09.28.03.37.58.7,1.23.95,1.91h2.07v-2.66c-1.68.18-2.87.26-4.46.35q-.31.02-.47-.28c-.11-.23-.25-.44-.4-.58,2.31-.09,3.76-.19,5.71-.46,1.3-.18,2.49-.39,3.61-.67.54-.14.82-.25,1.14-.4.33.19.7.44.93.63.09.09.12.16.12.23,0,.1-.12.16-.33.16-.17,0-.47.07-1.03.21-1.05.26-2.31.49-3.78.68v2.78h2.21c.35-.65.65-1.31.88-1.92.1-.32.14-.47.17-.72.37.09.68.16.98.26.12.03.17.12.17.19,0,.1-.07.16-.16.23-.07.05-.14.16-.21.31-.24.54-.49,1.07-.8,1.65h1.29c1.68,0,2.24-.03,2.33-.03.12,0,.14.02.14.14v.65c0,.12-.02.14-.14.14-.09,0-.65-.03-2.33-.03h-3.87Zm4.03,6.91c0,2.56.03,2.96.03,3.05,0,.12-.02.14-.14.14h-.79c-.12,0-.14-.02-.14-.14v-.72h-8.07v.77c0,.12-.02.14-.14.14h-.77c-.12,0-.14-.02-.14-.14,0-.09.04-.51.04-3.06v-1.45c0-1.44-.04-1.89-.04-2,0-.12.02-.14.14-.14.09,0,.68.03,2.42.03h5.06c1.73,0,2.33-.03,2.43-.03.12,0,.14.02.14.14,0,.11-.03.54-.03,1.77v1.65Zm-5.71-2.68h-3.4v1.61h3.4v-1.61Zm0,2.42h-3.4v1.75h3.4v-1.75Zm4.67-2.42h-3.68v1.61h3.68v-1.61Zm0,2.42h-3.68v1.75h3.68v-1.75Z" style="fill:#0094e2;"/><path d="m455.63,147.69c.28.17.23.28.02.49-.12.12-.26.28-.47.68-.42.81-1.08,1.87-1.8,2.7-.16.18-.26.23-.47.1-.28-.17-.6-.31-.91-.38,1.03-1.03,1.63-1.98,2.06-2.87.19-.38.33-.8.4-1.28.44.16.82.33,1.17.56Zm3.05-4.8c0-.98-.05-1.84-.19-2.42.54.04,1.14.1,1.45.19.25.07.28.26.14.49-.14.23-.18.79-.18,1.82v1.07h2.28c1.26,0,2.56-.03,3.59-.09.16-.02.21.05.21.21,0,.25,0,.54-.02.79,0,.18-.04.25-.21.25-1.14-.05-2.5-.07-3.62-.07h-2.22v3.04c0,1.49.05,2.64.05,3.76,0,.75-.26,1.31-.88,1.61-.63.32-1.45.47-2.01.51-.14.02-.24-.05-.3-.21-.16-.39-.38-.7-.73-.98.89,0,1.68-.12,2.17-.32.37-.14.47-.37.47-1.02v-6.41h-2.8c-.98,0-2.07.05-2.99.12-.16.02-.21-.07-.23-.25-.02-.21-.07-.75-.07-1.09,1.24.11,2.29.12,3.26.12h2.84v-1.15Zm4.66,4.43c.12-.09.21-.05.33.05.93.82,1.73,1.92,2.45,3.17.1.19.07.26-.07.4-.17.16-.44.37-.67.51-.14.09-.23.09-.3-.07-.6-1.21-1.47-2.49-2.52-3.5.28-.21.53-.38.77-.56Z" style="fill:#0094e2;"/><path d="m471.38,147.96c-1.52,0-2.26.18-2.36.18-.16,0-.24-.07-.3-.25-.07-.3-.14-.86-.17-1.33,1.07.14,2.42.16,3.87.16h5.37c1.21,0,2.5-.02,3.83-.05.21-.02.26.02.26.21.02.26.02.63,0,.91,0,.19-.05.23-.26.21-1.31-.04-2.61-.04-3.78-.04h-6.46Z" style="fill:#0094e2;"/><path d="m490.91,141.1c.16.1.17.3-.02.52-.21.23-.42.63-.63,1.28-.86,2.56-2.05,5.74-3.27,8.51,2.36-.19,5.15-.44,7.46-.79-.58-1.03-1.29-2.1-2.12-3.06.28-.16.56-.35.82-.49.17-.1.25-.05.35.09,1.29,1.52,2.5,3.52,3.4,5.41.09.16.04.26-.09.35-.26.16-.52.3-.77.42-.14.07-.23.04-.31-.16-.23-.49-.47-1.02-.74-1.49-2.75.42-5.51.72-8.61,1.05-1.28.14-1.59.23-1.79.33-.25.16-.46.17-.56-.07-.1-.24-.26-.8-.42-1.45.63.05,1.21.04,2.06-.02,1.26-2.99,2.54-6.42,3.13-8.35.4-1.29.51-2.03.54-2.7.65.18,1.24.4,1.56.61Z" style="fill:#0094e2;"/><path d="m430.55,175.31h2.38v1.17h-6.32v-1.17h2.54v-10.12c-.67.46-1.54.89-2.52,1.26l-.25-1.28c1.07-.35,2.08-.89,2.98-1.51h1.19v11.64Z" style="fill:#0094e2;"/><path d="m442.91,167.87c1.96,1.52,3.83,2.24,6.84,3.12-.19.19-.33.4-.44.61-.17.33-.17.32-.51.21-2.78-.91-4.9-2.01-6.6-3.59,0,1.15.07,2.08.07,2.36,0,.12-.02.14-.14.14h-.82c-.12,0-.14-.02-.14-.14,0-.28.07-1.21.09-2.35-1.63,1.63-3.87,2.78-6.37,3.59q-.31.1-.49-.21c-.14-.21-.3-.38-.46-.54,2.73-.73,4.83-1.66,6.55-3.2h-3.57c-1.68,0-2.24.03-2.33.03-.14,0-.16-.02-.16-.14v-.65c0-.12.02-.14.16-.14.09,0,.65.03,2.33.03h1.16c-.23-.58-.46-1.02-.77-1.54-.07-.12-.07-.16.18-.25l.46-.16c.19-.07.21-.09.28.03.37.58.7,1.23.95,1.91h2.07v-2.66c-1.68.18-2.87.26-4.46.35q-.31.02-.47-.28c-.11-.23-.25-.44-.4-.58,2.31-.09,3.76-.19,5.71-.46,1.3-.18,2.49-.39,3.61-.67.54-.14.82-.25,1.14-.4.33.19.7.44.93.63.09.09.12.16.12.23,0,.1-.12.16-.33.16-.17,0-.47.07-1.03.21-1.05.26-2.31.49-3.78.68v2.78h2.21c.35-.65.65-1.31.88-1.92.1-.32.14-.47.17-.72.37.09.68.16.98.26.12.03.17.12.17.19,0,.1-.07.16-.16.23-.07.05-.14.16-.21.31-.24.54-.49,1.07-.8,1.65h1.29c1.68,0,2.24-.03,2.33-.03.12,0,.14.02.14.14v.65c0,.12-.02.14-.14.14-.09,0-.65-.03-2.33-.03h-3.87Zm4.03,6.91c0,2.56.03,2.96.03,3.05,0,.12-.02.14-.14.14h-.79c-.12,0-.14-.02-.14-.14v-.72h-8.07v.77c0,.12-.02.14-.14.14h-.77c-.12,0-.14-.02-.14-.14,0-.09.04-.51.04-3.06v-1.45c0-1.44-.04-1.89-.04-2,0-.12.02-.14.14-.14.09,0,.68.03,2.42.03h5.06c1.73,0,2.33-.03,2.43-.03.12,0,.14.02.14.14,0,.1-.03.54-.03,1.77v1.65Zm-5.71-2.68h-3.4v1.61h3.4v-1.61Zm0,2.42h-3.4v1.75h3.4v-1.75Zm4.67-2.42h-3.68v1.61h3.68v-1.61Zm0,2.42h-3.68v1.75h3.68v-1.75Z" style="fill:#0094e2;"/><path d="m455.07,170.66c.28.17.23.28.02.49-.12.12-.26.28-.47.68-.42.81-1.08,1.87-1.8,2.7-.16.18-.26.23-.47.1-.28-.17-.6-.31-.91-.38,1.03-1.03,1.63-1.98,2.06-2.87.19-.38.33-.8.4-1.28.44.16.82.33,1.17.56Zm3.05-4.8c0-.98-.05-1.84-.19-2.42.54.04,1.14.1,1.45.19.25.07.28.26.14.49-.14.23-.18.79-.18,1.82v1.07h2.28c1.26,0,2.56-.03,3.59-.09.16-.02.21.05.21.21,0,.25,0,.54-.02.79,0,.18-.04.25-.21.25-1.14-.05-2.5-.07-3.62-.07h-2.22v3.04c0,1.49.05,2.64.05,3.76,0,.75-.26,1.31-.88,1.61-.63.31-1.45.47-2.01.51-.14.02-.24-.05-.3-.21-.16-.39-.38-.7-.73-.98.89,0,1.68-.12,2.17-.32.37-.14.47-.37.47-1.02v-6.41h-2.8c-.98,0-2.07.05-2.99.12-.16.02-.21-.07-.23-.25-.02-.21-.07-.75-.07-1.09,1.24.1,2.29.12,3.26.12h2.84v-1.15Zm4.66,4.43c.12-.09.21-.05.33.05.93.82,1.73,1.92,2.45,3.17.1.19.07.26-.07.4-.17.16-.44.37-.67.51-.14.09-.23.09-.3-.07-.6-1.21-1.47-2.49-2.52-3.5.28-.21.53-.38.77-.56Z" style="fill:#0094e2;"/><path d="m470.82,170.94c-1.52,0-2.26.18-2.36.18-.16,0-.24-.07-.3-.25-.07-.3-.14-.86-.17-1.33,1.07.14,2.42.16,3.87.16h5.37c1.21,0,2.5-.02,3.83-.05.21-.02.26.02.26.21.02.26.02.63,0,.91,0,.19-.05.23-.26.21-1.31-.04-2.61-.04-3.78-.04h-6.46Z" style="fill:#0094e2;"/><path d="m490.35,164.08c.16.1.17.3-.02.52-.21.23-.42.63-.63,1.28-.86,2.56-2.05,5.74-3.27,8.51,2.36-.19,5.15-.44,7.46-.79-.58-1.03-1.29-2.1-2.12-3.06.28-.16.56-.35.82-.49.17-.1.25-.05.35.09,1.29,1.52,2.5,3.52,3.4,5.41.09.16.04.26-.09.35-.26.16-.52.3-.77.42-.14.07-.23.04-.31-.16-.23-.49-.47-1.02-.74-1.49-2.75.42-5.51.72-8.61,1.05-1.28.14-1.59.23-1.79.33-.25.16-.46.17-.56-.07-.1-.24-.26-.8-.42-1.45.63.05,1.21.04,2.06-.02,1.26-2.99,2.54-6.42,3.13-8.35.4-1.29.51-2.03.54-2.7.65.17,1.24.4,1.56.61Z" style="fill:#0094e2;"/><path d="m425.11,289.76c.21,0,.37-.02.42-.05.05-.03.1-.03.17-.03.1,0,.19.05.44.3.25.26.32.4.32.47,0,.09-.05.16-.14.23-.12.12-.21.3-.31.58-.51,1.29-.91,2.33-1.65,3.73,1.51,1.86,1.79,2.87,1.79,4.01,0,1.28-.52,2.21-2.29,2.31q-.35,0-.42-.35c-.05-.26-.12-.46-.26-.61,1.42.09,2-.37,2-1.44,0-1-.4-1.96-1.85-3.85.88-1.7,1.29-2.78,1.82-4.36h-2.45v10.33c0,2.43.04,3.52.04,3.62s-.02.12-.14.12h-.81c-.12,0-.14-.02-.14-.12s.03-1.12.03-3.59v-7.56c0-2.49-.03-3.54-.03-3.62,0-.12.02-.14.14-.14.1,0,.46.04,1.28.04h2.07Zm11.39,12.36c0,.12-.02.14-.14.14-.1,0-.7-.03-2.43-.03h-1.12v.26c0,1.45.04,2.05.04,2.14,0,.12-.02.14-.14.14h-.77c-.12,0-.14-.02-.14-.14,0-.09.04-.68.04-2.14v-.26h-3.29c-1.73,0-2.31.03-2.42.03-.12,0-.14-.02-.14-.14v-.7c0-.12.02-.14.14-.14.09,0,.65.04,2.17.04v-2.5c-.67,0-.96.02-1.02.02-.12,0-.14-.02-.14-.14v-.68c0-.12.02-.14.14-.14.09,0,.63.04,2.26.04h2.29v-.05c0-.91-.02-1.31-.1-1.8.44.02.72.05,1.07.11.12.02.19.07.19.16,0,.07-.02.12-.07.23-.07.16-.1.4-.1,1.22v.14h.6c1.65,0,2.17-.04,2.26-.04.12,0,.14.02.14.14v.68c0,.12-.02.14-.14.14-.09,0-.61-.04-2.26-.04h-.6v2.52h1.12c1.73,0,2.33-.04,2.43-.04.12,0,.14.02.14.14v.7Zm-2.45-11.46c.17,0,.33-.02.4-.05.04-.02.09-.03.12-.03.12,0,.21.03.46.28.23.21.3.32.3.42s-.03.18-.17.25c-.14.07-.21.18-.37.39-.73.96-1.49,1.73-2.27,2.38,1.21.75,2.62,1.28,4.34,1.75-.14.17-.25.35-.33.58-.12.33-.14.35-.46.25-1.68-.54-3.1-1.12-4.32-1.98-1.44,1.02-2.99,1.65-4.71,2.12-.33.1-.35.09-.51-.23-.1-.21-.23-.37-.39-.51,1.82-.47,3.4-1.07,4.8-2-.65-.54-1.23-1.19-1.75-1.94-.56.59-1.17,1.16-1.87,1.66-.14.09-.23.14-.3.14s-.12-.07-.23-.23c-.12-.19-.3-.37-.46-.47,1.58-.96,2.75-2.29,3.48-3.48.28-.46.37-.75.42-1.01.33.07.63.16.94.28.12.05.18.12.18.19,0,.09-.07.14-.18.23-.1.09-.21.21-.31.38l-.4.65h3.59Zm-2.22,8.14h-2.57v2.52h2.57v-2.52Zm-1.96-7.32c-.04.05-.07.11-.12.16.58.84,1.23,1.52,1.94,2.08.77-.61,1.49-1.35,2.19-2.24h-4.01Z" style="fill:#0094e2;"/><path d="m453.95,301.96c0,.12-.02.14-.14.14-.09,0-.63-.04-2.26-.04h-4.92c0,1.68.04,2.47.04,2.54,0,.12-.02.14-.14.14h-.82c-.12,0-.14-.02-.14-.14,0-.07.02-.88.03-2.54h-4.62c-1.63,0-2.17.04-2.26.04-.12,0-.14-.02-.14-.14v-.74c0-.12.02-.14.14-.14.09,0,.63.03,2.26.03h4.62v-1.56h-2.21c-1.75,0-2.38.04-2.49.04-.12,0-.14-.02-.14-.14,0-.09.04-.51.04-1.66v-2.52c0-1.16-.04-1.58-.04-1.66,0-.14.02-.16.14-.16.1,0,.74.04,2.49.04h2.21v-1.49h-4.13c-1.7,0-2.26.04-2.36.04-.12,0-.14-.02-.14-.16v-.72c0-.12.02-.14.14-.14.1,0,.67.03,2.36.03h4.13c0-1.01-.03-1.5-.14-2.06.44.02.82.05,1.17.09.1.02.19.07.19.16s-.02.18-.07.32c-.07.19-.12.59-.12,1.5h4.36c1.7,0,2.26-.03,2.36-.03.12,0,.14.02.14.14v.72c0,.14-.02.16-.14.16-.1,0-.67-.04-2.36-.04h-4.36v1.49h2.43c1.75,0,2.38-.04,2.47-.04.12,0,.14.02.14.16,0,.09-.04.51-.04,1.66v2.52c0,1.16.04,1.58.04,1.66,0,.12-.02.14-.14.14-.09,0-.72-.04-2.47-.04h-2.43v1.56h4.92c1.63,0,2.17-.03,2.26-.03.12,0,.14.02.14.14v.74Zm-8.35-7.61h-3.76v1.71h3.76v-1.71Zm0,2.55h-3.76v1.8h3.76v-1.8Zm5.01-2.55h-3.97v1.71h3.97v-1.71Zm0,2.55h-3.97v1.8h3.97v-1.8Z" style="fill:#0094e2;"/><path d="m459.91,297.37c.28.17.23.28.02.49-.12.12-.26.28-.47.68-.42.8-1.08,1.87-1.8,2.7-.16.17-.26.23-.47.1-.28-.17-.6-.31-.91-.38,1.03-1.03,1.63-1.98,2.06-2.87.19-.38.33-.8.4-1.28.44.16.82.33,1.17.56Zm3.05-4.79c0-.98-.05-1.84-.19-2.42.54.04,1.14.11,1.45.19.25.07.28.26.14.49-.14.23-.18.79-.18,1.82v1.07h2.28c1.26,0,2.56-.03,3.59-.09.16-.02.21.05.21.21,0,.25,0,.54-.02.79,0,.18-.04.25-.21.25-1.14-.05-2.5-.07-3.62-.07h-2.22v3.04c0,1.49.05,2.64.05,3.76,0,.75-.26,1.31-.88,1.61-.63.32-1.45.47-2.01.51-.14.02-.24-.05-.3-.21-.16-.39-.38-.7-.73-.98.89,0,1.68-.12,2.17-.32.37-.14.47-.37.47-1.01v-6.41h-2.8c-.98,0-2.07.05-2.99.12-.16.02-.21-.07-.23-.25-.02-.21-.07-.75-.07-1.08,1.24.1,2.29.12,3.26.12h2.84v-1.15Zm4.66,4.43c.12-.09.21-.05.33.05.93.82,1.73,1.92,2.45,3.17.1.19.07.26-.07.4-.17.16-.44.37-.67.51-.14.09-.23.09-.3-.07-.6-1.21-1.47-2.49-2.52-3.5.28-.21.53-.38.77-.56Z" style="fill:#0094e2;"/><path d="m475.66,297.65c-1.52,0-2.26.17-2.36.17-.16,0-.24-.07-.3-.25-.07-.3-.14-.86-.17-1.33,1.07.14,2.42.16,3.87.16h5.37c1.21,0,2.5-.02,3.83-.05.21-.02.26.02.26.21.02.26.02.63,0,.91,0,.19-.05.23-.26.21-1.31-.04-2.61-.04-3.78-.04h-6.46Z" style="fill:#0094e2;"/><path d="m495.19,290.79c.16.1.17.3-.02.52-.21.23-.42.63-.63,1.28-.86,2.56-2.05,5.74-3.27,8.51,2.36-.19,5.15-.44,7.46-.79-.58-1.03-1.29-2.1-2.12-3.06.28-.16.56-.35.82-.49.17-.11.25-.05.35.09,1.29,1.52,2.5,3.52,3.4,5.41.09.16.04.26-.09.35-.26.16-.52.3-.77.42-.14.07-.23.04-.31-.16-.23-.49-.47-1.02-.74-1.49-2.75.42-5.51.72-8.61,1.05-1.28.14-1.59.23-1.79.33-.25.16-.46.17-.56-.07-.1-.24-.26-.8-.42-1.45.63.05,1.21.04,2.06-.02,1.26-2.99,2.54-6.42,3.13-8.35.4-1.29.51-2.03.54-2.7.65.17,1.24.4,1.56.61Z" style="fill:#0094e2;"/><line x1="1.8" y1="89.93" x2="732.7" y2="89.93" style="fill:none; stroke:#4d4948; stroke-miterlimit:10; stroke-width:7.56px;"/><line x1="1.8" y1="89.93" x2="732.7" y2="89.93" style="fill:none; stroke:#fff; stroke-miterlimit:10; stroke-width:5.04px;"/><line x1="1.8" y1="89.93" x2="732.7" y2="89.93" style="fill:none; stroke:#4d4948; stroke-dasharray:0 0 25.2 25.2; stroke-miterlimit:10; stroke-width:5.04px;"/><rect x="902.29" y="410.65" width="79.75" height="10.64" style="fill:#fff; stroke:#545454; stroke-miterlimit:10; stroke-width:.5px;"/><rect x="902.29" y="378.73" width="79.75" height="10.64" style="fill:#fff; stroke:#545454; stroke-miterlimit:10; stroke-width:.5px;"/><rect x="902.29" y="389.37" width="79.75" height="10.64" style="fill:#fff; stroke:#545454; stroke-miterlimit:10; stroke-width:.5px;"/><rect x="902.29" y="400.01" width="79.75" height="10.64" style="fill:#fff; stroke:#545454; stroke-miterlimit:10; stroke-width:.5px;"/><rect x="999.53" y="204.62" width="8.8" height="174.47" style="fill:#fff; stroke:#545454; stroke-miterlimit:10; stroke-width:.5px;"/><rect x="981.93" y="204.62" width="8.8" height="174.47" style="fill:#fff; stroke:#545454; stroke-miterlimit:10; stroke-width:.5px;"/><rect x="990.73" y="204.62" width="8.8" height="174.47" style="fill:#fff; stroke:#545454; stroke-miterlimit:10; stroke-width:.5px;"/><rect x="849.8" y="260.59" width="37.6" height="10.54" style="fill:#ffffc8; stroke:#545454; stroke-miterlimit:10; stroke-width:.5px;"/><rect x="849.8" y="280.87" width="37.6" height="10.54" style="fill:#ffffc8; stroke:#545454; stroke-miterlimit:10; stroke-width:.5px;"/><rect x="849.8" y="301.15" width="37.6" height="10.54" style="fill:#ffffc8; stroke:#545454; stroke-miterlimit:10; stroke-width:.5px;"/><rect x="849.8" y="240.31" width="37.6" height="10.54" style="fill:#ffffc8; stroke:#545454; stroke-miterlimit:10; stroke-width:.5px;"/><rect x="849.8" y="220.04" width="37.6" height="10.54" style="fill:#ffffc8; stroke:#545454; stroke-miterlimit:10; stroke-width:.5px;"/><rect x="258.75" y="259.43" width="9.23" height="33.4" style="fill:#fff; stroke:#545454; stroke-miterlimit:10; stroke-width:.5px;"/><rect x="231.06" y="259.43" width="9.23" height="33.4" style="fill:#fff; stroke:#545454; stroke-miterlimit:10; stroke-width:.5px;"/><rect x="240.29" y="259.43" width="9.23" height="33.4" style="fill:#fff; stroke:#545454; stroke-miterlimit:10; stroke-width:.5px;"/><rect x="249.52" y="259.43" width="9.23" height="33.4" style="fill:#fff; stroke:#545454; stroke-miterlimit:10; stroke-width:.5px;"/><rect x="231.06" y="259.67" width="36.92" height="2.89" style="fill:#545454; stroke:#545454; stroke-miterlimit:10; stroke-width:.5px;"/><rect x="231.06" y="289.94" width="36.92" height="2.89" style="fill:#545454; stroke:#545454; stroke-miterlimit:10; stroke-width:.5px;"/><rect x="258.75" y="142.77" width="9.23" height="51.75" style="fill:#fff; stroke:#545454; stroke-miterlimit:10; stroke-width:.5px;"/><rect x="231.06" y="142.77" width="9.23" height="51.75" style="fill:#fff; stroke:#545454; stroke-miterlimit:10; stroke-width:.5px;"/><rect x="240.29" y="142.77" width="9.23" height="51.75" style="fill:#fff; stroke:#545454; stroke-miterlimit:10; stroke-width:.5px;"/><rect x="249.52" y="142.77" width="9.23" height="51.75" style="fill:#fff; stroke:#545454; stroke-miterlimit:10; stroke-width:.5px;"/><rect x="231.06" y="143" width="36.92" height="2.89" style="fill:#545454; stroke:#545454; stroke-miterlimit:10; stroke-width:.5px;"/><rect x="231.06" y="191.63" width="36.92" height="2.89" style="fill:#545454; stroke:#545454; stroke-miterlimit:10; stroke-width:.5px;"/><rect x="169.19" y="298.19" width="37.6" height="10.54" style="fill:#ffffc8; stroke:#545454; stroke-miterlimit:10; stroke-width:.5px;"/><rect x="169.19" y="278.9" width="37.6" height="10.54" style="fill:#ffffc8; stroke:#545454; stroke-miterlimit:10; stroke-width:.5px;"/><rect x="167.13" y="333.23" width="44.18" height="44.18" rx="3.52" ry="3.52" style="fill:none; stroke:#0094e2; stroke-linecap:round; stroke-linejoin:round; stroke-width:3.52px;"/><rect x="166.07" y="332.18" width="44.18" height="44.18" rx="3.52" ry="3.52" style="fill:#fff;"/><rect x="166.07" y="332.18" width="44.18" height="44.18" rx="3.52" ry="3.52" style="fill:none; stroke:#0094e2; stroke-linecap:round; stroke-linejoin:round; stroke-width:1.76px;"/><polygon points="195.39 344.26 179.58 344.26 176.26 337.5 196.43 340.31 195.39 344.26" style="fill:#0094e2;"/><path d="m179.27,346.24h15.71v4.99c0,2.5-2.08,6.55-7.18,6.55s-7.39-4.37-7.39-5.83v-2.39h-3.95l2.81-3.33Z" style="fill:#0094e2;"/><path d="m206.42,374.43c.52-4.06.1-8.01-1.98-10.19-2.08-2.18-5.83-3.74-11.86-3.74l-4.37,8.43-5.3-8.43s-5.1.52-7.07,1.35c-1.98.83-6.76,5.2-4.99,11.96.12.45.27,1.06.45,1.74h34.97c.05-.38.11-.75.15-1.11Z" style="fill:#0094e2;"/><path d="m164.25,393.95q.21.07.19.21c-.09,1.31-.25,2.5-.77,3.69-.05.12-.09.12-.25.02l-.42-.28c-.14-.09-.16-.11-.1-.23.44-.98.67-2.05.77-3.45.02-.14.04-.14.26-.07l.31.11Zm5.93-8.72c0,.12-.02.14-.14.14-.09,0-.51-.04-1.72-.04h-.73v1.68h.26c1.26,0,1.63-.04,1.71-.04.12,0,.14.02.14.14v.6c0,.12-.02.14-.14.14-.09,0-.46-.04-1.71-.04h-.26v1.68h.26c1.26,0,1.63-.04,1.71-.04.12,0,.14.02.14.14v.6c0,.12-.02.14-.14.14-.09,0-.46-.04-1.71-.04h-.26v1.75h.61c1.17,0,1.52-.03,1.63-.03s.16.03.14.16c-.02.33-.04.65-.05.98-.12,2.84-.44,4.2-.73,4.88-.3.61-.88.96-1.52.96-.3,0-.7-.02-1-.03-.21-.02-.25-.02-.3-.37-.05-.3-.12-.49-.23-.7.54.07,1.07.11,1.37.11.4,0,.65-.19.82-.51.28-.49.54-1.79.65-4.62h-3.17c-1.3,0-1.73.04-1.87.04-.12,0-.14-.02-.14-.16,0-.09.03-.68.03-1.87v-4.2c0-1.43-.03-2.01-.03-2.12,0-.12.02-.14.14-.14.14,0,.58.04,1.87.04h2.52c1.21,0,1.63-.04,1.72-.04.12,0,.14.02.14.14v.67Zm-3.5.1h-1.91v1.68h1.91v-1.68Zm0,2.49h-1.91v1.68h1.91v-1.68Zm0,2.49h-1.91v1.75h1.91v-1.75Zm-1.35,3.64c.16-.04.19-.04.21.07.19.93.3,1.79.35,2.8,0,.16-.02.17-.17.23l-.37.12c-.16.05-.19.05-.19-.11-.04-1.07-.12-1.92-.3-2.85-.03-.14,0-.14.14-.17l.33-.09Zm1.17-.12c.14-.05.17-.05.21.07.23.7.4,1.47.52,2.36.02.12,0,.14-.14.19l-.3.12c-.16.07-.19.05-.21-.07-.1-.91-.25-1.72-.47-2.42-.04-.12-.02-.12.12-.17l.26-.09Zm1.08-.19c.14-.05.17-.05.23.05.25.51.44,1.07.61,1.79.02.11,0,.12-.12.17l-.26.12c-.14.07-.18.05-.19-.05-.16-.72-.35-1.35-.58-1.82-.05-.1-.04-.12.1-.17l.21-.09Zm7.42-2.96c.35,3.13,1.44,5.95,3.76,7.75-.21.14-.42.32-.61.58-.11.14-.16.21-.21.21s-.1-.05-.23-.16c-2.27-2-3.29-4.85-3.69-8.38h-1.75c-.04,1.17-.1,2.19-.23,3.27-.23,1.77-.75,3.64-1.85,5.13-.09.12-.14.19-.19.19s-.1-.07-.23-.17c-.21-.21-.46-.37-.68-.47,1.26-1.38,1.73-3.13,1.98-5.08.23-1.75.23-3.52.23-6.21,0-1.63-.04-2.33-.04-2.42,0-.12.02-.14.14-.14.1,0,.54.04,1.96.04h2.33c1.38,0,1.85-.04,1.94-.04.12,0,.14.02.14.14,0,.09-.04.54-.04,1.75v2.96c0,1.23.04,1.61.04,1.72,0,.12-.02.14-.14.14h-.75c-.12,0-.14-.02-.14-.14v-.67h-1.73Zm1.73-4.94h-4.43v1.71c0,.88,0,1.63-.02,2.31h4.45v-4.03Z" style="fill:gray;"/><path d="m186.46,389.42c.16,0,.28-.04.33-.07.05-.04.09-.04.16-.04.09,0,.21.07.42.25.24.23.31.35.31.46s-.04.16-.18.26c-.14.11-.17.23-.28.46-.21.44-.49.95-.89,1.58-.1.18-.16.25-.25.25-.05,0-.1-.04-.21-.1-.19-.12-.46-.18-.63-.21.52-.75.86-1.31,1.14-1.94h-1.65v5.13c0,.86.02,1.51.02,2.36,0,.59-.1.91-.47,1.19-.25.19-.73.26-2.05.23-.31-.02-.33-.02-.4-.35-.07-.3-.19-.53-.35-.72.56.07,1.02.11,1.59.11.52,0,.67-.12.67-.6v-4.17c0-.72.02-1.47.04-2.13-.54,1.58-1.28,3.13-2.73,4.79-.1.12-.17.19-.25.19s-.14-.07-.23-.21c-.14-.21-.35-.38-.51-.47,1.54-1.35,2.64-3.57,3.29-5.36h-.7c-1.47,0-1.96.04-2.05.04-.12,0-.14-.02-.14-.14v-.67c0-.12.02-.14.14-.14.09,0,.58.04,2.05.04h1.71c-.75-.79-1.49-1.42-2.43-2.1-.12-.09-.12-.12.04-.26l.33-.3c.16-.14.17-.14.3-.05.42.3.82.58,1.19.88.74-.61,1.44-1.26,2.01-2.06h-2.91c-1.4,0-1.84.02-1.92.02-.12,0-.14,0-.14-.12v-.72c0-.12.02-.14.14-.14.09,0,.52.04,1.92.04h3.05c.18,0,.33-.04.4-.07.07-.04.12-.05.19-.05.1,0,.23.07.49.33.28.28.33.38.33.51s-.14.21-.25.28c-.16.11-.28.28-.47.51-.63.74-1.21,1.37-2.14,2.1l.77.75c.1.09.09.12-.09.28l-.23.19h1.49Zm8.38,5.06c-.14,1.82-.23,2.96-.68,3.73-.3.56-.82.88-1.58.88-.33,0-.72-.02-1.14-.04-.33-.02-.35-.04-.4-.42-.04-.25-.12-.47-.25-.68.54.11,1.02.17,1.49.17.44,0,.7-.05.93-.4.35-.49.49-1.68.61-3.34h-2.91c-.63,2.28-2.05,3.71-4.25,4.78-.12.07-.21.1-.26.1-.09,0-.14-.07-.26-.26-.14-.23-.33-.42-.56-.56,2-.72,3.62-1.96,4.32-4.06h-.91c-1.59,0-2.12.04-2.21.04-.14,0-.16-.02-.16-.14v-.67c0-.14.02-.16.16-.16.09,0,.61.04,2.21.04h1.14c.07-.37.1-.77.12-1.21.02-.23,0-.52-.04-.77.35.02.72.05,1.03.12.16.04.23.09.23.16,0,.1-.04.19-.1.28-.07.09-.1.32-.14.58-.04.3-.07.58-.12.84h1.42c1.61,0,2.14-.04,2.22-.04.12,0,.17.05.16.17l-.07.86Zm.89-8.09c0,.12-.02.14-.14.14-.09,0-.46-.02-1.49-.04-.37,1.23-.96,2.24-1.71,3.05,1.12.82,2.45,1.42,3.89,1.71-.17.21-.31.42-.42.68q-.14.33-.47.23c-1.28-.4-2.56-1.08-3.68-1.98-1.07.89-2.31,1.5-3.59,1.89-.3.09-.33.09-.44-.19-.1-.26-.28-.49-.42-.63,1.31-.28,2.62-.82,3.71-1.7-.7-.67-1.31-1.42-1.77-2.26-.33.42-.72.86-1.21,1.37-.09.1-.16.16-.21.16s-.1-.05-.21-.17c-.16-.19-.37-.35-.58-.44,1.4-1.19,2.12-2.28,2.71-3.45.23-.49.35-.84.4-1.21.37.09.77.21,1.02.32.1.04.16.11.16.17,0,.09-.05.16-.14.21-.1.07-.26.33-.39.54l-.46.82h3.38c1.38,0,1.82-.04,1.91-.04.12,0,.14.02.14.14v.67Zm-5.95.1c.46.91,1.1,1.72,1.87,2.43.61-.67,1.1-1.47,1.42-2.43h-3.29Z" style="fill:gray;"/><path d="m213.31,398.61c0,.12,0,.14-.12.14-.1,0-.65-.04-2.29-.04h-10.48c-1.63,0-2.19.04-2.27.04-.12,0-.14-.02-.14-.14v-.72c0-.12.02-.14.14-.14.09,0,.65.04,2.27.04h4.57v-2.26h-2.5c-1.77,0-2.36.04-2.47.04-.12,0-.14-.02-.14-.14v-.72c0-.12.02-.14.14-.14.1,0,.7.04,2.47.04h2.5v-.12c0-.84-.02-1.3-.1-1.7.4.02.8.05,1.12.09.12.02.21.09.21.14,0,.12-.05.21-.1.33-.07.16-.09.42-.09,1.16v.1h2.8c1.77,0,2.36-.04,2.47-.04.12,0,.14.02.14.14v.72c0,.12-.02.14-.14.14-.1,0-.7-.04-2.47-.04h-2.8v2.26h4.88c1.65,0,2.19-.04,2.29-.04.12,0,.12.02.12.14v.72Zm-.58-11.76c0,1.45.04,1.64.04,1.75,0,.12-.02.14-.14.14h-.8c-.12,0-.14-.02-.14-.14v-2.33h-12.13v2.33c0,.12-.02.14-.14.14h-.8c-.12,0-.14-.02-.14-.14,0-.11.03-.3.03-1.75v-.54c0-.53-.03-.77-.03-.86,0-.12.02-.14.14-.14.09,0,.7.03,2.42.03h3.94v-.3c0-.58-.04-1.03-.12-1.44.42.02.82.05,1.16.09.12.02.21.07.21.16,0,.12-.05.19-.1.32-.07.16-.09.42-.09.88v.3h4.22c1.68,0,2.29-.03,2.4-.03.12,0,.14.02.14.14,0,.09-.04.33-.04.77v.63Zm-4.55,2.62c.14-.11.18-.09.28,0,1.02.8,1.96,1.75,2.89,2.82.09.11.07.12-.09.26l-.46.4c-.12.11-.18.11-.28-.02-.31-.39-.6-.75-.91-1.09-2.96.33-5.76.54-8.93.7-.49.02-.65.05-.74.12-.07.05-.12.07-.19.07s-.12-.07-.16-.17c-.07-.25-.16-.63-.23-.98.54.03,1.15.03,1.77.02.35,0,.72-.02,1.07-.03.58-.91,1.07-1.84,1.44-2.68h-.72c-1.65,0-2.24.03-2.33.03-.12,0-.14-.02-.14-.14v-.7c0-.12.02-.14.14-.14.09,0,.68.04,2.33.04h5.37c1.65,0,2.24-.04,2.33-.04.12,0,.14.02.14.14v.7c0,.12-.02.14-.14.14-.09,0-.68-.03-2.33-.03h-3.5c-.47.98-.96,1.85-1.45,2.62,1.91-.11,3.76-.25,5.57-.42-.37-.37-.77-.72-1.19-1.08-.1-.09-.1-.14.09-.28l.37-.26Z" style="fill:gray;"/><rect x="902.96" y="20.65" width="30.59" height="173.07" style="fill:#e6e6e6; stroke:#545454; stroke-miterlimit:10; stroke-width:.5px;"/><polygon points="804.97 20.65 804.97 120.56 824.92 120.56 824.92 193.72 902.96 193.72 902.96 20.65 804.97 20.65" style="fill:#fff; stroke:#545454; stroke-miterlimit:10; stroke-width:.5px;"/><rect x="842.33" y="60.88" width="44.18" height="44.18" rx="3.52" ry="3.52" style="fill:none; stroke:#0094e2; stroke-linecap:round; stroke-linejoin:round; stroke-width:3.52px;"/><rect x="841.27" y="59.83" width="44.18" height="44.18" rx="3.52" ry="3.52" style="fill:#fff;"/><rect x="841.27" y="59.83" width="44.18" height="44.18" rx="3.52" ry="3.52" style="fill:none; stroke:#0094e2; stroke-linecap:round; stroke-linejoin:round; stroke-width:1.76px;"/><polygon points="870.59 71.92 854.78 71.92 851.45 65.16 871.63 67.96 870.59 71.92" style="fill:#0094e2;"/><path d="m854.47,73.89h15.71v4.99c0,2.5-2.08,6.55-7.18,6.55s-7.39-4.37-7.39-5.83v-2.39h-3.95l2.81-3.33Z" style="fill:#0094e2;"/><path d="m881.62,102.08c.52-4.06.1-8.01-1.98-10.19-2.08-2.18-5.83-3.74-11.86-3.74l-4.37,8.43-5.3-8.43s-5.1.52-7.07,1.35c-1.98.83-6.76,5.2-4.99,11.96.12.45.27,1.06.45,1.74h34.97c.05-.38.11-.75.15-1.11Z" style="fill:#0094e2;"/><path d="m839.45,121.77q.21.07.19.21c-.09,1.31-.25,2.5-.77,3.69-.05.12-.09.12-.25.02l-.42-.28c-.14-.09-.16-.11-.11-.23.44-.98.67-2.05.77-3.45.02-.14.04-.14.26-.07l.31.11Zm5.93-8.72c0,.12-.02.14-.14.14-.09,0-.51-.04-1.71-.04h-.74v1.68h.26c1.26,0,1.63-.04,1.71-.04.12,0,.14.02.14.14v.6c0,.12-.02.14-.14.14-.09,0-.46-.04-1.71-.04h-.26v1.68h.26c1.26,0,1.63-.04,1.71-.04.12,0,.14.02.14.14v.6c0,.12-.02.14-.14.14-.09,0-.46-.04-1.71-.04h-.26v1.75h.61c1.17,0,1.52-.03,1.63-.03s.16.03.14.16c-.02.33-.04.65-.05.98-.12,2.84-.44,4.2-.74,4.88-.3.61-.88.96-1.52.96-.3,0-.7-.02-1-.03-.21-.02-.25-.02-.3-.37-.05-.3-.12-.49-.23-.7.54.07,1.07.11,1.37.11.4,0,.65-.19.82-.51.28-.49.54-1.79.65-4.62h-3.17c-1.29,0-1.73.04-1.87.04-.12,0-.14-.02-.14-.16,0-.09.04-.68.04-1.87v-4.2c0-1.43-.04-2.01-.04-2.12,0-.12.02-.14.14-.14.14,0,.58.04,1.87.04h2.52c1.21,0,1.63-.04,1.71-.04.12,0,.14.02.14.14v.67Zm-3.5.1h-1.91v1.68h1.91v-1.68Zm0,2.49h-1.91v1.68h1.91v-1.68Zm0,2.49h-1.91v1.75h1.91v-1.75Zm-1.35,3.64c.16-.04.19-.04.21.07.19.93.3,1.79.35,2.8,0,.16-.02.17-.17.23l-.37.12c-.16.05-.19.05-.19-.11-.04-1.07-.12-1.92-.3-2.85-.03-.14,0-.14.14-.17l.33-.09Zm1.17-.12c.14-.05.17-.05.21.07.23.7.4,1.47.53,2.36.02.12,0,.14-.14.19l-.3.12c-.16.07-.19.05-.21-.07-.11-.91-.25-1.72-.47-2.42-.04-.12-.02-.12.12-.17l.26-.09Zm1.08-.19c.14-.05.17-.05.23.05.25.51.44,1.07.61,1.79.02.11,0,.12-.12.17l-.26.12c-.14.07-.17.05-.19-.05-.16-.72-.35-1.35-.58-1.82-.05-.1-.04-.12.1-.17l.21-.09Zm7.42-2.96c.35,3.13,1.44,5.95,3.76,7.75-.21.14-.42.32-.61.58-.11.14-.16.21-.21.21s-.11-.05-.23-.16c-2.28-2-3.29-4.85-3.69-8.38h-1.75c-.04,1.17-.1,2.19-.23,3.27-.23,1.77-.75,3.64-1.85,5.13-.09.12-.14.19-.19.19s-.1-.07-.23-.17c-.21-.21-.46-.37-.68-.47,1.26-1.38,1.73-3.13,1.98-5.08.23-1.75.23-3.52.23-6.21,0-1.63-.04-2.33-.04-2.42,0-.12.02-.14.14-.14.11,0,.54.04,1.96.04h2.33c1.38,0,1.86-.04,1.94-.04.12,0,.14.02.14.14,0,.09-.04.54-.04,1.75v2.96c0,1.23.04,1.61.04,1.72,0,.12-.02.14-.14.14h-.75c-.12,0-.14-.02-.14-.14v-.67h-1.73Zm1.73-4.94h-4.43v1.71c0,.88,0,1.63-.02,2.31h4.45v-4.03Z" style="fill:gray;"/><path d="m861.66,117.24c.16,0,.28-.04.33-.07.05-.04.09-.04.16-.04.09,0,.21.07.42.25.25.23.32.35.32.46s-.04.16-.18.26c-.14.11-.17.23-.28.46-.21.44-.49.95-.89,1.58-.11.18-.16.25-.25.25-.05,0-.11-.04-.21-.1-.19-.12-.46-.18-.63-.21.52-.75.86-1.31,1.14-1.94h-1.64v5.13c0,.86.02,1.51.02,2.36,0,.59-.11.91-.47,1.19-.25.19-.74.26-2.05.23-.32-.02-.33-.02-.4-.35-.07-.3-.19-.53-.35-.72.56.07,1.02.11,1.59.11.53,0,.67-.12.67-.6v-4.17c0-.72.02-1.47.04-2.13-.54,1.58-1.28,3.13-2.73,4.79-.1.12-.17.19-.25.19s-.14-.07-.23-.21c-.14-.21-.35-.38-.51-.47,1.54-1.35,2.64-3.57,3.29-5.36h-.7c-1.47,0-1.96.04-2.05.04-.12,0-.14-.02-.14-.14v-.67c0-.12.02-.14.14-.14.09,0,.58.04,2.05.04h1.71c-.75-.79-1.49-1.42-2.43-2.1-.12-.09-.12-.12.04-.26l.33-.3c.16-.14.17-.14.3-.05.42.3.82.58,1.19.88.74-.61,1.44-1.26,2.01-2.06h-2.91c-1.4,0-1.84.02-1.92.02-.12,0-.14,0-.14-.12v-.72c0-.12.02-.14.14-.14.09,0,.52.04,1.92.04h3.04c.18,0,.33-.04.4-.07.07-.04.12-.05.19-.05.1,0,.23.07.49.33.28.28.33.38.33.51s-.14.21-.25.28c-.16.11-.28.28-.47.51-.63.74-1.21,1.37-2.13,2.1l.77.75c.11.09.09.12-.09.28l-.23.19h1.49Zm8.38,5.06c-.14,1.82-.23,2.96-.68,3.73-.3.56-.82.88-1.58.88-.33,0-.72-.02-1.14-.04-.33-.02-.35-.04-.4-.42-.04-.25-.12-.47-.25-.68.54.11,1.01.17,1.49.17.44,0,.7-.05.93-.4.35-.49.49-1.68.61-3.34h-2.91c-.63,2.28-2.05,3.71-4.25,4.78-.12.07-.21.1-.26.1-.09,0-.14-.07-.26-.26-.14-.23-.33-.42-.56-.56,2-.72,3.62-1.96,4.32-4.06h-.91c-1.59,0-2.12.04-2.21.04-.14,0-.16-.02-.16-.14v-.67c0-.14.02-.16.16-.16.09,0,.61.04,2.21.04h1.14c.07-.37.1-.77.12-1.21.02-.23,0-.52-.04-.77.35.02.72.05,1.03.12.16.04.23.09.23.16,0,.1-.04.19-.11.28-.07.09-.1.32-.14.58-.04.3-.07.58-.12.84h1.42c1.61,0,2.13-.04,2.22-.04.12,0,.17.05.16.17l-.07.86Zm.89-8.09c0,.12-.02.14-.14.14-.09,0-.46-.02-1.49-.04-.37,1.23-.96,2.24-1.71,3.05,1.12.82,2.45,1.42,3.88,1.71-.17.21-.31.42-.42.68q-.14.33-.47.23c-1.28-.4-2.55-1.08-3.67-1.98-1.07.89-2.31,1.5-3.59,1.89-.3.09-.33.09-.44-.19-.11-.26-.28-.49-.42-.63,1.31-.28,2.62-.82,3.71-1.7-.7-.67-1.31-1.42-1.77-2.26-.33.42-.72.86-1.21,1.37-.09.1-.16.16-.21.16s-.1-.05-.21-.17c-.16-.19-.37-.35-.58-.44,1.4-1.19,2.12-2.28,2.71-3.45.23-.49.35-.84.4-1.21.37.09.77.21,1.01.32.11.04.16.11.16.17,0,.09-.05.16-.14.21-.1.07-.26.33-.38.54l-.46.82h3.38c1.38,0,1.82-.04,1.91-.04.12,0,.14.02.14.14v.67Zm-5.95.1c.46.91,1.1,1.72,1.87,2.43.61-.67,1.1-1.47,1.42-2.43h-3.29Z" style="fill:gray;"/><path d="m888.5,126.43c0,.12,0,.14-.12.14-.11,0-.65-.04-2.29-.04h-10.48c-1.63,0-2.19.04-2.28.04-.12,0-.14-.02-.14-.14v-.72c0-.12.02-.14.14-.14.09,0,.65.04,2.28.04h4.57v-2.26h-2.5c-1.77,0-2.36.04-2.47.04-.12,0-.14-.02-.14-.14v-.72c0-.12.02-.14.14-.14.1,0,.7.04,2.47.04h2.5v-.12c0-.84-.02-1.3-.11-1.7.4.02.8.05,1.12.09.12.02.21.09.21.14,0,.12-.05.21-.1.33-.07.16-.09.42-.09,1.16v.1h2.8c1.77,0,2.36-.04,2.47-.04.12,0,.14.02.14.14v.72c0,.12-.02.14-.14.14-.1,0-.7-.04-2.47-.04h-2.8v2.26h4.88c1.65,0,2.19-.04,2.29-.04.12,0,.12.02.12.14v.72Zm-.58-11.76c0,1.45.04,1.64.04,1.75,0,.12-.02.14-.14.14h-.8c-.12,0-.14-.02-.14-.14v-2.33h-12.13v2.33c0,.12-.02.14-.14.14h-.8c-.12,0-.14-.02-.14-.14,0-.11.03-.3.03-1.75v-.54c0-.53-.03-.77-.03-.86,0-.12.02-.14.14-.14.09,0,.7.03,2.42.03h3.94v-.3c0-.58-.04-1.03-.12-1.44.42.02.82.05,1.16.09.12.02.21.07.21.16,0,.12-.05.19-.1.32-.07.16-.09.42-.09.88v.3h4.22c1.68,0,2.29-.03,2.4-.03.12,0,.14.02.14.14,0,.09-.04.33-.04.77v.63Zm-4.55,2.62c.14-.11.18-.09.28,0,1.02.8,1.96,1.75,2.89,2.82.09.11.07.12-.09.26l-.46.4c-.12.11-.18.11-.28-.02-.32-.39-.6-.75-.91-1.09-2.96.33-5.76.54-8.93.7-.49.02-.65.05-.74.12-.07.05-.12.07-.19.07s-.12-.07-.16-.17c-.07-.25-.16-.63-.23-.98.54.03,1.15.03,1.77.02.35,0,.72-.02,1.07-.03.58-.91,1.07-1.84,1.44-2.68h-.72c-1.65,0-2.24.03-2.33.03-.12,0-.14-.02-.14-.14v-.7c0-.12.02-.14.14-.14.09,0,.68.04,2.33.04h5.37c1.64,0,2.24-.04,2.33-.04.12,0,.14.02.14.14v.7c0,.12-.02.14-.14.14-.09,0-.68-.03-2.33-.03h-3.5c-.47.98-.96,1.85-1.45,2.62,1.91-.11,3.76-.25,5.57-.42-.37-.37-.77-.72-1.19-1.08-.1-.09-.1-.14.09-.28l.37-.26Z" style="fill:gray;"/><rect x="105.03" y="333.23" width="44.18" height="44.18" rx="3.52" ry="3.52" style="fill:none; stroke:#f04d13; stroke-linecap:round; stroke-linejoin:round; stroke-width:3.52px;"/><rect x="103.97" y="332.18" width="44.18" height="44.18" rx="3.52" ry="3.52" style="fill:#f7931e;"/><rect x="103.97" y="332.18" width="44.18" height="44.18" rx="3.52" ry="3.52" style="fill:none; stroke:#f04d13; stroke-linecap:round; stroke-linejoin:round; stroke-width:1.76px;"/><path d="m130.34,363.54v-1.68h-1.63v-.75h1.63v-.67h-1.63v-.75h1.26l-1.72-2.98h1.72l.73,1.68c.18.42.31.78.44,1.14h.02c.14-.34.27-.74.45-1.15l.75-1.67h1.68l-1.79,2.98h1.25v.75h-1.65v.67h1.65v.75h-1.65v1.68h-1.5Z" style="fill:#fff;"/><path d="m122.49,362.89c-.36,0-.65.29-.65.65s.29.65.65.65.65-.29.65-.65-.29-.65-.65-.65" style="fill:#fff;"/><path d="m122.49,360.45c-.36,0-.65.29-.65.65s.29.65.65.65.65-.29.65-.65-.29-.65-.65-.65" style="fill:#fff;"/><path d="m139.59,352.63h-23.51v14.52h24.69v-14.52h-1.18Zm0,13.34h-16.45c0-.36-.29-.65-.65-.65s-.65.29-.65.65h-4.58v-12.15h4.58c0,.36.29.65.65.65s.65-.29.65-.65h16.45v12.15Z" style="fill:#fff;"/><path d="m122.49,358.02c-.36,0-.65.29-.65.65s.29.65.65.65.65-.29.65-.65-.29-.65-.65-.65" style="fill:#fff;"/><path d="m122.49,355.59c-.36,0-.65.29-.65.65s.29.65.65.65.65-.29.65-.65-.29-.65-.65-.65" style="fill:#fff;"/><polygon points="118.13 350.83 132.58 342.99 137.18 351.45 138.52 351.45 133.62 342.42 133.06 341.39 132.02 341.95 117.56 349.79 117.46 349.85 116.42 350.41 112.4 352.6 111.36 353.16 111.92 354.2 114.9 359.69 114.9 357.21 112.96 353.64 114.9 352.58 118.13 350.83" style="fill:#fff;"/><path d="m111.53,391.01c1.07,1.23,2.54,2.29,4.64,3.05-.16.12-.35.4-.49.68-.09.16-.14.23-.23.23-.07,0-.16-.03-.28-.09-2.24-1.12-3.75-2.36-4.87-3.87h-4.52c-1.12,1.5-2.64,2.83-4.8,3.97-.12.07-.19.11-.26.11-.09,0-.14-.07-.24-.25-.12-.21-.32-.42-.49-.54,1.96-.86,3.45-1.98,4.55-3.29h-1.45c-1.68,0-2.22.04-2.33.04-.12,0-.14-.02-.14-.14v-.68c0-.12.02-.14.14-.14.1,0,.65.04,2.33.04h2.14c.46-.67.82-1.37,1.14-2.1h-2.21c-1.77,0-2.35.04-2.43.04-.12,0-.14-.02-.14-.14v-.68c0-.12.02-.14.14-.14.09,0,.67.03,2.43.03h2.54c.17-.52.3-1.05.42-1.61.21-1,.25-1.38.21-1.86.53.05.79.09,1.12.16.14.04.23.11.23.21s-.07.21-.16.32c-.1.14-.19.46-.37,1.17-.12.56-.28,1.08-.44,1.61h2.17c.47-.59.89-1.26,1.29-1.94.17-.31.33-.63.4-.96.37.12.67.25.96.39.12.05.17.1.17.17,0,.1-.07.16-.16.23-.12.09-.21.21-.4.49-.33.49-.79,1.1-1.19,1.63h1.17c1.77,0,2.35-.03,2.43-.03.14,0,.16.02.16.14v.68c0,.12-.02.14-.16.14-.09,0-.67-.04-2.43-.04h-2.5c.31.7.7,1.42,1.19,2.1h2.24c1.68,0,2.22-.04,2.33-.04.12,0,.14.02.14.14v.68c0,.12-.02.14-.14.14-.1,0-.65-.04-2.33-.04h-1.54Zm-1.84,2.22c1.59,0,2.1-.04,2.21-.04s.17.04.16.19c-.03.49-.05.98-.07,1.31-.1,1.87-.31,3.18-.63,3.73-.28.47-.84.7-1.49.7-.47,0-.82-.02-1.26-.05q-.33-.02-.4-.38c-.05-.26-.16-.54-.28-.72.63.11,1.12.16,1.63.16.42,0,.72-.05.91-.38.28-.47.4-1.56.47-3.59h-3.41c-.54,2.75-2.1,4.36-5.39,5.32-.1.04-.18.05-.23.05-.12,0-.16-.09-.28-.3-.12-.23-.3-.42-.49-.56,3.22-.79,4.73-2.05,5.3-4.52h-.26c-1.59,0-2.12.04-2.22.04-.12,0-.14-.02-.14-.14v-.72c0-.12.02-.14.14-.14.1,0,.63.04,2.22.04h3.52Zm-5.92-8.93c.16-.07.18-.07.25.02.47.59.91,1.33,1.21,1.98.07.14.04.17-.17.26l-.49.23q-.25.1-.3-.04c-.31-.79-.67-1.35-1.1-1.98-.1-.12-.07-.16.12-.25l.49-.23Zm5.93,5.81c-.38-.65-.73-1.35-1.05-2.1h-1.26c-.28.74-.61,1.44-1.02,2.1h3.33Z" style="fill:gray;"/><path d="m124.2,393.08c-.04.1-.1.35-.16.95-.23,2.28-1.07,4.13-4.92,5.23-.12.04-.21.07-.28.07-.1,0-.14-.07-.25-.26-.14-.26-.35-.51-.58-.65,3.96-.82,4.83-2.47,4.94-4.45.04-.7.05-1.07-.04-1.52.42.02.79.05,1.12.1.16.04.26.09.26.17,0,.12-.05.21-.1.35Zm8.82-6.42c0,.12-.02.14-.14.14-.1,0-.67-.04-2.33-.04h-4.64v1.65h3.03c1.79,0,2.4-.04,2.49-.04.12,0,.14.02.14.14v.7c0,.12-.02.14-.14.14-.09,0-.7-.04-2.49-.04h-6.88c-1.79,0-2.38.04-2.47.04-.12,0-.14-.02-.14-.14v-.7c0-.12.02-.14.14-.14.09,0,.68.04,2.47.04h2.77v-1.65h-4.22c-1.68,0-2.24.04-2.33.04-.12,0-.14-.02-.14-.14v-.74c0-.12.02-.12.14-.12.09,0,.65.02,2.33.02h4.22v-.04c0-1.01-.02-1.5-.14-2.13.46.02.8.04,1.23.09.12.02.19.07.19.16s-.04.17-.09.31c-.07.18-.1.58-.1,1.4v.21h4.64c1.66,0,2.22-.02,2.33-.02.12,0,.14,0,.14.12v.74Zm-.38,5.53c0,1.33.03,1.5.03,1.59,0,.12-.02.14-.14.14h-.81c-.12,0-.14-.02-.14-.14v-2.03h-12.01v2.03c0,.12-.02.14-.14.14h-.81c-.12,0-.14-.02-.14-.14,0-.11.04-.28.04-1.59v-.49c0-.46-.04-.67-.04-.77,0-.12.02-.12.14-.12.09,0,.7.02,2.43.02h9.03c1.72,0,2.33-.02,2.43-.02.12,0,.14,0,.14.12,0,.11-.03.32-.03.68v.58Zm-5.08,5.06c0,.47.1.58.37.65.28.09.67.12,1.65.12s1.59-.07,1.89-.28c.39-.28.47-.84.49-1.86.23.16.46.28.72.37.3.1.3.12.26.44-.14,1.08-.31,1.5-.77,1.86-.4.31-1.17.47-2.64.47-1.26,0-1.8-.05-2.31-.21-.31-.09-.7-.33-.7-1.08v-3.5c0-.75-.05-1.45-.1-1.8.42.02.82.05,1.1.09.16.02.24.11.24.16,0,.12-.05.21-.1.33-.07.16-.09.32-.09,1.14v3.12Z" style="fill:gray;"/><path d="m139.81,388.39c0,.12-.02.14-.16.14-.09,0-.4-.04-1.44-.04.46,1.44.84,2.36,1.52,3.4-.14.19-.28.46-.4.72-.05.12-.1.17-.14.17-.05,0-.09-.05-.14-.17-.46-1.03-.74-1.84-1.05-3.19.02,5.29.17,9.66.17,9.91,0,.11-.02.12-.14.12h-.79c-.12,0-.14-.02-.14-.12,0-.25.14-4.64.17-9.75-.47,2.13-.91,3.73-1.8,5.48-.07.12-.12.19-.18.19s-.09-.05-.14-.17c-.1-.26-.28-.49-.44-.65,1.05-1.87,1.58-3.4,2.24-5.93h-.1c-1.14,0-1.45.04-1.54.04-.14,0-.16-.02-.16-.14v-.7c0-.12.02-.14.16-.14.09,0,.4.03,1.54.03h.3v-1.73c0-1.05-.02-1.56-.12-2.13.42.02.72.05,1.07.1.12.02.21.07.21.14,0,.14-.05.23-.1.35-.09.19-.09.51-.09,1.5v1.77c1.12,0,1.44-.03,1.52-.03.14,0,.16.02.16.14v.7Zm6.49,5.13c.09.38.19.75.31,1.1.14.46.3.88.49,1.26.4-.37.77-.75,1.05-1.12.23-.31.37-.54.47-.84.28.14.61.32.79.47.12.11.14.16.14.21,0,.09-.05.14-.16.19-.14.07-.31.25-.49.46-.37.46-.82.93-1.37,1.4.61.95,1.29,1.52,1.77,1.52s.7-.53.84-2.24c.14.16.37.3.56.4q.33.18.26.53c-.25,1.66-.65,2.35-1.58,2.35s-1.85-.72-2.62-1.93c-1.05.77-2.35,1.5-3.87,2-.33.11-.33.12-.49-.21-.1-.19-.25-.37-.44-.52,1.65-.39,3.17-1.17,4.36-2.05-.21-.42-.4-.89-.56-1.38-.18-.49-.33-1.03-.46-1.59h-3.15c-.21,2.29-.84,4.11-2.29,5.51-.12.12-.17.18-.25.18s-.14-.05-.26-.19c-.16-.17-.31-.28-.51-.38,1.58-1.26,2.21-2.91,2.35-5.11-1.07.02-1.47.04-1.54.04-.12,0-.14-.02-.14-.14v-.67c0-.12.02-.14.14-.14.09,0,.68.04,2.45.04h3.01c-.42-2.05-.65-4.36-.75-6.62-.04-1.21-.07-1.61-.19-2.24.42.02.72.05,1.07.11.12.02.26.09.26.16,0,.12-.05.21-.1.33-.05.14-.07.52-.05,1.59.05,2.34.32,4.69.74,6.67h2.19c1.79,0,2.36-.04,2.47-.04s.12.02.12.14v.67c0,.12-.02.14-.12.14s-.68-.04-2.47-.04h-1.98Zm-2.92-4.39c.12-.05.16-.05.21.05.33.56.67,1.35.89,2.01.05.12.02.16-.12.23l-.4.18c-.18.09-.21.1-.25-.04l-.19-.56c-.93.17-1.89.32-2.61.4-.38.04-.51.09-.6.16-.07.05-.14.09-.19.09-.09,0-.16-.07-.19-.19-.07-.25-.14-.58-.18-.86.21.02.39.02.56.02.44-.53.89-1.14,1.31-1.75-.61-.82-1.21-1.49-1.89-2.1-.09-.07-.11-.09.05-.26l.31-.33c.09-.11.1-.11.19-.04l.38.37c.44-.59.84-1.29,1.1-1.84.09-.19.18-.4.23-.65.3.11.63.26.84.4.12.07.16.1.16.19,0,.07-.07.14-.16.19-.1.07-.19.14-.28.31-.31.51-.79,1.33-1.29,1.96.3.33.59.67.88,1l.6-.98c.16-.26.28-.51.35-.79.31.14.63.33.84.49.09.07.14.14.14.19,0,.09-.07.14-.18.19-.16.09-.3.3-.61.74-.52.77-1.26,1.82-1.91,2.62.58-.05,1.19-.12,1.87-.23-.12-.26-.26-.54-.4-.79-.07-.12-.05-.16.12-.23l.4-.17Zm-.75,5.67c.09-.1.12-.12.25-.05.58.33,1.15.74,1.7,1.19.09.07.07.12-.02.25l-.26.37c-.14.19-.18.19-.28.09-.51-.49-1.08-.93-1.66-1.26-.12-.07-.1-.09.04-.26l.25-.32Zm7.04-6.04c.16-.09.17-.05.25.05.38.59.77,1.38,1.05,2.12.04.11,0,.16-.12.21l-.37.17c-.19.09-.21.07-.25-.05-.07-.23-.16-.44-.26-.67-1,.16-2.03.32-2.73.38-.39.05-.53.12-.61.17-.07.04-.14.07-.19.07-.09,0-.16-.07-.19-.19-.07-.23-.12-.54-.18-.82.18.02.33.02.51.02.37-.46.75-.95,1.12-1.47-.61-.84-1.17-1.52-1.86-2.13-.1-.09-.1-.11.05-.26l.31-.33c.12-.12.12-.1.21-.03.14.14.28.26.4.4.4-.58.77-1.21,1.02-1.72.1-.19.19-.44.25-.68.3.11.63.26.84.4.12.07.16.1.16.19,0,.07-.07.16-.16.19-.1.05-.19.14-.28.32-.3.49-.75,1.26-1.24,1.89.3.33.56.67.82,1,.28-.4.54-.82.77-1.23.16-.26.28-.51.35-.79.31.14.63.35.84.49.09.07.14.14.14.19,0,.09-.05.14-.17.19-.16.07-.3.3-.61.73-.52.75-1.26,1.8-1.91,2.57.63-.05,1.3-.12,2.03-.23-.14-.28-.3-.54-.46-.79-.07-.12-.05-.12.16-.23l.31-.16Zm-1.7,2.36c.12-.11.18-.11.3-.02.32.25.65.54.96.88.1.1.09.12-.04.23l-.28.25c-.16.14-.18.14-.28.02-.28-.35-.65-.68-.96-.91-.12-.09-.1-.11.07-.25l.23-.19Z" style="fill:gray;"/><rect x="911.64" y="57.18" width="44.18" height="44.18" rx="3.52" ry="3.52" style="fill:none; stroke:#f04d13; stroke-linecap:round; stroke-linejoin:round; stroke-width:3.52px;"/><rect x="910.59" y="56.12" width="44.18" height="44.18" rx="3.52" ry="3.52" style="fill:#f7931e;"/><rect x="910.59" y="56.12" width="44.18" height="44.18" rx="3.52" ry="3.52" style="fill:none; stroke:#f04d13; stroke-linecap:round; stroke-linejoin:round; stroke-width:1.76px;"/><path d="m936.95,87.48v-1.68h-1.63v-.75h1.63v-.67h-1.63v-.75h1.26l-1.72-2.98h1.72l.73,1.68c.18.42.31.78.44,1.14h.02c.14-.34.27-.74.45-1.15l.75-1.67h1.68l-1.79,2.98h1.25v.75h-1.65v.67h1.65v.75h-1.65v1.68h-1.5Z" style="fill:#fff;"/><path d="m929.11,86.83c-.36,0-.65.29-.65.65s.29.65.65.65.65-.29.65-.65-.29-.65-.65-.65" style="fill:#fff;"/><path d="m929.11,84.4c-.36,0-.65.29-.65.65s.29.65.65.65.65-.29.65-.65-.29-.65-.65-.65" style="fill:#fff;"/><path d="m946.21,76.58h-23.51v14.52h24.69v-14.52h-1.18Zm0,13.34h-16.45c0-.36-.29-.65-.65-.65s-.65.29-.65.65h-4.58v-12.15h4.58c0,.36.29.65.65.65s.65-.29.65-.65h16.45v12.15Z" style="fill:#fff;"/><path d="m929.11,81.97c-.36,0-.65.29-.65.65s.29.65.65.65.65-.29.65-.65-.29-.65-.65-.65" style="fill:#fff;"/><path d="m929.11,79.54c-.36,0-.65.29-.65.65s.29.65.65.65.65-.29.65-.65-.29-.65-.65-.65" style="fill:#fff;"/><polygon points="924.74 74.78 939.2 66.94 943.79 75.4 945.13 75.4 940.24 66.37 939.67 65.33 938.63 65.9 924.18 73.74 924.07 73.8 923.03 74.36 919.01 76.55 917.97 77.11 918.53 78.15 921.51 83.64 921.51 81.16 919.57 77.59 921.51 76.53 924.74 74.78" style="fill:#fff;"/><path d="m922.41,118.08c1.07,1.23,2.54,2.29,4.64,3.05-.16.12-.35.4-.49.68-.09.16-.14.23-.23.23-.07,0-.16-.03-.28-.09-2.24-1.12-3.75-2.36-4.87-3.87h-4.52c-1.12,1.5-2.64,2.83-4.8,3.97-.12.07-.19.11-.26.11-.09,0-.14-.07-.24-.25-.12-.21-.32-.42-.49-.54,1.96-.86,3.45-1.98,4.55-3.29h-1.45c-1.68,0-2.22.04-2.33.04-.12,0-.14-.02-.14-.14v-.68c0-.12.02-.14.14-.14.11,0,.65.04,2.33.04h2.13c.46-.67.82-1.37,1.14-2.1h-2.21c-1.77,0-2.34.04-2.43.04-.12,0-.14-.02-.14-.14v-.68c0-.12.02-.14.14-.14.09,0,.67.03,2.43.03h2.54c.17-.52.3-1.05.42-1.61.21-1,.25-1.38.21-1.86.53.05.79.09,1.12.16.14.04.23.11.23.21s-.07.21-.16.32c-.11.14-.19.46-.37,1.17-.12.56-.28,1.08-.44,1.61h2.17c.47-.59.89-1.26,1.29-1.94.17-.31.33-.63.4-.96.37.12.67.25.96.39.12.05.17.1.17.17,0,.1-.07.16-.16.23-.12.09-.21.21-.4.49-.33.49-.79,1.1-1.19,1.63h1.17c1.77,0,2.35-.03,2.43-.03.14,0,.16.02.16.14v.68c0,.12-.02.14-.16.14-.09,0-.67-.04-2.43-.04h-2.5c.31.7.7,1.42,1.19,2.1h2.24c1.68,0,2.22-.04,2.33-.04.12,0,.14.02.14.14v.68c0,.12-.02.14-.14.14-.11,0-.65-.04-2.33-.04h-1.54Zm-1.84,2.22c1.59,0,2.1-.04,2.21-.04s.17.04.16.19c-.04.49-.05.98-.07,1.31-.1,1.87-.31,3.18-.63,3.73-.28.47-.84.7-1.49.7-.47,0-.82-.02-1.26-.05q-.33-.02-.4-.38c-.05-.26-.16-.54-.28-.72.63.11,1.12.16,1.63.16.42,0,.72-.05.91-.38.28-.47.4-1.56.47-3.59h-3.41c-.54,2.75-2.1,4.36-5.39,5.32-.1.04-.17.05-.23.05-.12,0-.16-.09-.28-.3-.12-.23-.3-.42-.49-.56,3.22-.79,4.73-2.05,5.3-4.52h-.26c-1.59,0-2.12.04-2.22.04-.12,0-.14-.02-.14-.14v-.72c0-.12.02-.14.14-.14.11,0,.63.04,2.22.04h3.52Zm-5.92-8.93c.16-.07.17-.07.25.02.47.59.91,1.33,1.21,1.98.07.14.04.17-.17.26l-.49.23q-.25.1-.3-.04c-.32-.79-.67-1.35-1.1-1.98-.11-.12-.07-.16.12-.25l.49-.23Zm5.93,5.81c-.38-.65-.73-1.35-1.05-2.1h-1.26c-.28.74-.61,1.44-1.02,2.1h3.33Z" style="fill:gray;"/><path d="m917.58,137.65c-.04.1-.11.35-.16.95-.23,2.28-1.07,4.13-4.92,5.23-.12.04-.21.07-.28.07-.11,0-.14-.07-.25-.26-.14-.26-.35-.51-.58-.65,3.96-.82,4.83-2.47,4.94-4.45.04-.7.05-1.07-.04-1.52.42.02.79.05,1.12.1.16.04.26.09.26.17,0,.12-.05.21-.1.35Zm8.82-6.42c0,.12-.02.14-.14.14-.1,0-.67-.04-2.33-.04h-4.64v1.65h3.03c1.79,0,2.4-.04,2.49-.04.12,0,.14.02.14.14v.7c0,.12-.02.14-.14.14-.09,0-.7-.04-2.49-.04h-6.88c-1.79,0-2.38.04-2.47.04-.12,0-.14-.02-.14-.14v-.7c0-.12.02-.14.14-.14.09,0,.68.04,2.47.04h2.77v-1.65h-4.22c-1.68,0-2.24.04-2.33.04-.12,0-.14-.02-.14-.14v-.74c0-.12.02-.12.14-.12.09,0,.65.02,2.33.02h4.22v-.04c0-1.01-.02-1.5-.14-2.13.46.02.8.04,1.22.09.12.02.19.07.19.16s-.04.17-.09.31c-.07.18-.11.58-.11,1.4v.21h4.64c1.66,0,2.22-.02,2.33-.02.12,0,.14,0,.14.12v.74Zm-.38,5.53c0,1.33.04,1.5.04,1.59,0,.12-.02.14-.14.14h-.81c-.12,0-.14-.02-.14-.14v-2.03h-12.01v2.03c0,.12-.02.14-.14.14h-.8c-.12,0-.14-.02-.14-.14,0-.11.04-.28.04-1.59v-.49c0-.46-.04-.67-.04-.77,0-.12.02-.12.14-.12.09,0,.7.02,2.43.02h9.03c1.72,0,2.33-.02,2.43-.02.12,0,.14,0,.14.12,0,.11-.04.32-.04.68v.58Zm-5.08,5.06c0,.47.1.58.37.65.28.09.67.12,1.65.12s1.59-.07,1.89-.28c.39-.28.47-.84.49-1.86.23.16.46.28.72.37.3.1.3.12.26.44-.14,1.08-.32,1.5-.77,1.86-.4.31-1.17.47-2.64.47-1.26,0-1.8-.05-2.31-.21-.31-.09-.7-.33-.7-1.08v-3.5c0-.75-.05-1.45-.1-1.8.42.02.82.05,1.1.09.16.02.25.11.25.16,0,.12-.05.21-.11.33-.07.16-.09.32-.09,1.14v3.12Z" style="fill:gray;"/><path d="m915.69,150.46c0,.12-.02.14-.16.14-.09,0-.4-.04-1.44-.04.46,1.44.84,2.36,1.52,3.4-.14.19-.28.46-.4.72-.05.12-.1.17-.14.17-.05,0-.09-.05-.14-.17-.46-1.03-.74-1.84-1.05-3.19.02,5.29.17,9.66.17,9.91,0,.11-.02.12-.14.12h-.79c-.12,0-.14-.02-.14-.12,0-.25.14-4.64.17-9.75-.47,2.13-.91,3.73-1.8,5.48-.07.12-.12.19-.18.19s-.09-.05-.14-.17c-.11-.26-.28-.49-.44-.65,1.05-1.87,1.58-3.4,2.24-5.93h-.11c-1.14,0-1.45.04-1.54.04-.14,0-.16-.02-.16-.14v-.7c0-.12.02-.14.16-.14.09,0,.4.03,1.54.03h.3v-1.73c0-1.05-.02-1.56-.12-2.13.42.02.72.05,1.07.1.12.02.21.07.21.14,0,.14-.05.23-.11.35-.09.19-.09.51-.09,1.5v1.77c1.12,0,1.43-.03,1.52-.03.14,0,.16.02.16.14v.7Zm6.49,5.13c.09.38.19.75.32,1.1.14.46.3.88.49,1.26.4-.37.77-.75,1.05-1.12.23-.31.37-.54.47-.84.28.14.61.32.79.47.12.11.14.16.14.21,0,.09-.05.14-.16.19-.14.07-.31.25-.49.46-.37.46-.82.93-1.37,1.4.61.95,1.29,1.52,1.77,1.52s.7-.53.84-2.24c.14.16.37.3.56.4q.33.18.26.53c-.25,1.66-.65,2.35-1.58,2.35s-1.85-.72-2.62-1.93c-1.05.77-2.34,1.5-3.87,2-.33.11-.33.12-.49-.21-.11-.19-.25-.37-.44-.52,1.64-.39,3.17-1.17,4.36-2.05-.21-.42-.4-.89-.56-1.38-.18-.49-.33-1.03-.46-1.59h-3.15c-.21,2.29-.84,4.11-2.29,5.51-.12.12-.17.18-.25.18s-.14-.05-.26-.19c-.16-.17-.31-.28-.51-.38,1.58-1.26,2.21-2.91,2.35-5.11-1.07.02-1.47.04-1.54.04-.12,0-.14-.02-.14-.14v-.67c0-.12.02-.14.14-.14.09,0,.68.04,2.45.04h3.01c-.42-2.05-.65-4.36-.75-6.62-.04-1.21-.07-1.61-.19-2.24.42.02.72.05,1.07.11.12.02.26.09.26.16,0,.12-.05.21-.11.33-.05.14-.07.52-.05,1.59.05,2.34.32,4.69.74,6.67h2.19c1.79,0,2.36-.04,2.47-.04s.12.02.12.14v.67c0,.12-.02.14-.12.14s-.68-.04-2.47-.04h-1.98Zm-2.92-4.39c.12-.05.16-.05.21.05.33.56.67,1.35.89,2.01.05.12.02.16-.12.23l-.4.18c-.18.09-.21.1-.25-.04l-.19-.56c-.93.17-1.89.32-2.61.4-.38.04-.51.09-.59.16-.07.05-.14.09-.19.09-.09,0-.16-.07-.19-.19-.07-.25-.14-.58-.18-.86.21.02.39.02.56.02.44-.53.89-1.14,1.31-1.75-.61-.82-1.21-1.49-1.89-2.1-.09-.07-.11-.09.05-.26l.32-.33c.09-.11.1-.11.19-.04l.38.37c.44-.59.84-1.29,1.1-1.84.09-.19.18-.4.23-.65.3.11.63.26.84.4.12.07.16.1.16.19,0,.07-.07.14-.16.19-.11.07-.19.14-.28.31-.32.51-.79,1.33-1.29,1.96.3.33.59.67.88,1l.59-.98c.16-.26.28-.51.35-.79.31.14.63.33.84.49.09.07.14.14.14.19,0,.09-.07.14-.17.19-.16.09-.3.3-.61.74-.53.77-1.26,1.82-1.91,2.62.58-.05,1.19-.12,1.87-.23-.12-.26-.26-.54-.4-.79-.07-.12-.05-.16.12-.23l.4-.17Zm-.75,5.67c.09-.1.12-.12.25-.05.58.33,1.15.74,1.7,1.19.09.07.07.12-.02.25l-.26.37c-.14.19-.17.19-.28.09-.51-.49-1.08-.93-1.66-1.26-.12-.07-.11-.09.04-.26l.25-.32Zm7.04-6.04c.16-.09.17-.05.25.05.38.59.77,1.38,1.05,2.12.04.11,0,.16-.12.21l-.37.17c-.19.09-.21.07-.25-.05-.07-.23-.16-.44-.26-.67-1,.16-2.03.32-2.73.38-.38.05-.53.12-.61.17-.07.04-.14.07-.19.07-.09,0-.16-.07-.19-.19-.07-.23-.12-.54-.18-.82.18.02.33.02.51.02.37-.46.75-.95,1.12-1.47-.61-.84-1.17-1.52-1.86-2.13-.1-.09-.1-.11.05-.26l.32-.33c.12-.12.12-.1.21-.03.14.14.28.26.4.4.4-.58.77-1.21,1.01-1.72.11-.19.19-.44.25-.68.3.11.63.26.84.4.12.07.16.1.16.19,0,.07-.07.16-.16.19-.11.05-.19.14-.28.32-.3.49-.75,1.26-1.24,1.89.3.33.56.67.82,1,.28-.4.54-.82.77-1.23.16-.26.28-.51.35-.79.31.14.63.35.84.49.09.07.14.14.14.19,0,.09-.05.14-.17.19-.16.07-.3.3-.61.73-.53.75-1.26,1.8-1.91,2.57.63-.05,1.3-.12,2.03-.23-.14-.28-.3-.54-.46-.79-.07-.12-.05-.12.16-.23l.31-.16Zm-1.7,2.36c.12-.11.17-.11.3-.02.32.25.65.54.96.88.11.1.09.12-.04.23l-.28.25c-.16.14-.18.14-.28.02-.28-.35-.65-.68-.96-.91-.12-.09-.1-.11.07-.25l.23-.19Z" style="fill:gray;"/><rect x="666.85" y="325.07" width="69.83" height="44.89" style="fill:#67d4ff; stroke:#545454; stroke-miterlimit:10; stroke-width:.5px;"/><rect x="679.8" y="332.01" width="44.18" height="44.18" rx="3.52" ry="3.52" style="fill:none; stroke:#0094e2; stroke-linecap:round; stroke-linejoin:round; stroke-width:3.52px;"/><rect x="678.74" y="330.95" width="44.18" height="44.18" rx="3.52" ry="3.52" style="fill:#fff;"/><rect x="678.74" y="330.95" width="44.18" height="44.18" rx="3.52" ry="3.52" style="fill:none; stroke:#0094e2; stroke-linecap:round; stroke-linejoin:round; stroke-width:1.76px;"/><polygon points="696.32 369.19 691.51 369.19 688.67 346.06 699.16 346.06 696.32 369.19" style="fill:#0094e2;"/><polygon points="705.35 346.06 710.16 346.06 713 369.19 702.51 369.19 705.35 346.06" style="fill:#ec0e8d;"/><circle cx="693.92" cy="340.83" r="3.93" style="fill:#0094e2;"/><circle cx="707.76" cy="340.83" r="3.93" style="fill:#ec0e8d;"/><path d="m684.37,390.3c2.01.58,3.96,1.4,5.71,2.43.14.07.17.16.12.28-.12.32-.28.63-.42.86-.1.14-.17.17-.33.07-1.63-1.07-3.5-1.89-5.09-2.34v4.06c0,1.07.03,2.43.05,3.57.02.17-.03.23-.23.23-.26.02-.61.02-.89,0-.19,0-.25-.05-.25-.25.05-1.12.07-2.49.07-3.55v-7.79c0-1.31-.07-2.21-.19-2.8.61.05,1.14.12,1.45.23.28.07.21.26.12.53-.11.3-.12.82-.12,1.94v2.54Z" style="fill:gray;"/><path d="m704.25,395.94c0,1.05.02,2.05.05,3.17.02.16-.04.21-.18.21-.31.02-.7.02-1.01,0-.14,0-.17-.05-.17-.21.04-1.05.07-2.1.07-3.12v-5.18c-1.84,1.63-3.55,2.82-5.5,3.96-.16.09-.28.05-.4-.07-.23-.23-.54-.4-.88-.56,2.17-1.19,3.99-2.45,5.44-3.69,1.33-1.14,2.57-2.38,3.39-3.38.74-.89,1.05-1.42,1.21-1.98.47.25.95.52,1.21.79.17.18.14.39-.07.49-.21.11-.54.42-.98.93-.73.89-1.37,1.59-2.19,2.42v6.23Z" style="fill:gray;"/><path d="m716.94,396.5c1.68-.59,3.15-1.29,4.81-2.26,1.79-1.03,3.24-2.1,4.59-3.48.02.46.07.93.16,1.26.05.17.04.28-.1.4-1.3,1.17-2.85,2.21-4.38,3.08-1.35.79-2.7,1.38-4.29,2.12-.42.19-.77.33-.93.51-.16.16-.33.16-.49.03-.21-.17-.47-.44-.66-.7-.11-.14-.09-.26-.02-.42.07-.17.09-.38.09-.89l.04-5.65c.02-1.79.04-2.92-.17-3.97.54.05,1.22.18,1.49.28.21.07.23.21.12.49-.1.26-.17,1.19-.19,3.19l-.05,6.02Z" style="fill:gray;"/><polyline points="201.57 56.71 754.64 56.71 754.64 121.89 201.57 121.89 201.57 195.05 201.64 195.05" style="fill:none; stroke:#545454; stroke-miterlimit:10; stroke-width:.5px;"/><polyline points="100.26 325.4 902.29 325.4 902.29 378.61 982.05 378.61 982.05 .25 902.96 .25 902.96 20.2 201.57 20.2" style="fill:none; stroke:#545454; stroke-miterlimit:10; stroke-width:.5px;"/><polyline points="230.24 195.05 754.64 195.05 754.64 260.22 230.56 260.22" style="fill:none; stroke:#545454; stroke-miterlimit:10; stroke-width:.5px;"/><rect x="898.41" y="221.5" width="96.61" height="53.44" rx="3.86" ry="3.86" style="fill:#ed0030;"/><rect x="898.41" y="221.5" width="96.61" height="53.44" rx="3.86" ry="3.86" style="fill:none; stroke:#545454; stroke-linecap:round; stroke-linejoin:round; stroke-width:1.89px;"/><path d="m925.59,247.36c1.55-1.98,2.47-4.3,2.99-6.86.11-.67.24-1.25.26-1.87.75.11,1.42.26,2.04.43.28.06.43.17.43.3s-.04.21-.15.34c-.15.19-.3.62-.41,1.1-.17.58-.32,1.16-.52,1.72h3.63c2.02,0,2.71-.04,2.86-.04.22,0,.24.02.24.24v1.55c0,.21-.02.24-.24.24-.13,0-.56-.02-1.63-.04-.19,3.22-1.1,6.08-2.39,8.13,1.18,1.33,2.79,2.52,4.73,3.5-.37.39-.73.95-.99,1.5-.17.34-.26.5-.43.5-.13,0-.28-.06-.52-.21-1.72-1.1-3.03-2.34-4.08-3.59-1.25,1.38-2.92,2.73-5.2,3.76-.26.11-.43.17-.54.17-.15,0-.21-.11-.37-.37-.37-.65-.71-1.05-1.12-1.42,2.45-.86,4.54-2.32,5.91-3.89-.95-1.5-1.66-3.33-2.04-5.03-.28.47-.58.92-.9,1.38-.19.26-.3.37-.41.37s-.21-.13-.41-.41c-.24-.3-.49-.6-.73-.82,0,.32.02.52.02.58,0,.21-.02.24-.26.24h-1.68c-.21,0-.24-.02-.24-.24v-.84h-3.12v4.86c0,.49.02.82.19.95.28.21.9.26,1.44.26,1.14,0,1.78-.13,2.11-.5.32-.37.41-.95.47-2.58.41.26.9.47,1.42.6.67.19.69.19.62.84-.11,1.59-.43,2.34-1.05,2.9-.75.67-2,.82-3.91.82-1.38,0-2.43-.11-2.88-.54-.39-.34-.54-.77-.54-1.72v-5.42c0-1.42-.04-2.15-.04-2.28,0-.24.02-.26.26-.26.13,0,.71.04,1.94.04h3.1v-3.48h-3.22c-1.59,0-2.11.04-2.21.04-.21,0-.24-.02-.24-.26v-1.63c0-.21.02-.24.24-.24.11,0,.62.04,2.21.04h2.86c1.61,0,2.15-.04,2.28-.04.24,0,.26.02.26.24,0,.15-.04.71-.04,2.15v4.79Zm3.96-2.9c-.04.11-.06.21-.11.3.37,2.43.95,4.32,1.91,5.98.79-1.48,1.38-3.5,1.57-6.28h-3.38Z" style="fill:#fff;"/><path d="m943.09,241.72c0-1.4-.02-2.06-.17-3.05.8.02,1.59.09,2.3.15.21.02.32.11.32.21,0,.19-.06.32-.13.47-.13.26-.15.62-.15,2.17v1.27h.47c1.81,0,2.39-.04,2.52-.04.21,0,.24.02.24.24v1.61c0,.21-.02.24-.24.24-.13,0-.71-.04-2.52-.04h-.32c.71,1.61,1.98,3.33,3.31,4.54-.32.41-.6.97-.82,1.53-.09.24-.17.34-.26.34s-.17-.11-.34-.3c-.84-1.01-1.59-2.17-2.11-3.42.02,5.63.15,10.06.15,10.49,0,.21-.02.24-.24.24h-1.87c-.22,0-.24-.02-.24-.24,0-.45.11-4.77.15-10-.67,2-1.74,3.89-2.97,5.55-.15.19-.26.3-.34.3-.11,0-.17-.11-.26-.37-.19-.62-.49-1.33-.73-1.72,1.63-1.81,3.03-4.08,4.02-6.94h-.79c-1.81,0-2.41.04-2.54.04-.21,0-.24-.02-.24-.24v-1.61c0-.21.02-.24.24-.24.13,0,.73.04,2.54.04h1.01v-1.23Zm9.07,12.9c0,.6.06.8.34.92.19.09.69.15,1.38.15.88,0,1.44-.15,1.74-.45.34-.3.54-.9.62-3.33.43.3,1.12.6,1.68.75q.54.17.5.75c-.17,2.54-.52,3.2-1.16,3.76-.65.56-1.7.8-3.5.8-1.55,0-2.39-.09-2.92-.32-.56-.28-.97-.62-.97-2.04v-12.96c0-1.85-.04-2.88-.13-3.7.82.02,1.68.11,2.32.19.26.02.41.13.41.26,0,.17-.06.3-.13.45-.13.26-.17.73-.17,2.88v11.89Z" style="fill:#fff;"/><path d="m962.36,257.48c-.21,0-.24-.02-.24-.24,0-.15.04-1.27.04-7.07v-3.98c0-3.98-.04-5.16-.04-5.29,0-.24.02-.26.24-.26.15,0,.88.04,2.97.04h9.76c2.09,0,2.82-.04,2.95-.04.24,0,.26.02.26.26,0,.13-.04,1.29-.04,4.73v4.54c0,5.74.04,6.88.04,7.01,0,.21-.02.24-.26.24h-1.93c-.21,0-.24-.02-.24-.24v-1.61h-11.31v1.68c0,.21-.02.24-.26.24h-1.93Zm2.19-4.11h11.31v-10.49h-11.31v10.49Z" style="fill:#fff;"/><polyline points="899.23 249.57 887.2 255.7 902.91 257.67" style="fill:#ed0030; stroke:#545454; stroke-linecap:round; stroke-linejoin:round; stroke-width:1.89px;"/><line x1="201.64" y1="195.12" x2="201.64" y2="260.9" style="fill:none; stroke:#545454; stroke-dasharray:0 0 3 3; stroke-miterlimit:10; stroke-width:.5px;"/><line x1="230.88" y1="195.12" x2="230.88" y2="260.9" style="fill:none; stroke:#545454; stroke-dasharray:0 0 3 3; stroke-miterlimit:10; stroke-width:.5px;"/><line x1="197.97" y1="195.05" x2="1.8" y2="195.05" style="fill:none; stroke:#545454; stroke-miterlimit:10; stroke-width:.5px;"/><line x1="779.25" y1="163.12" x2="782.4" y2="163.12" style="fill:none; stroke:#39b54a; stroke-miterlimit:10; stroke-width:4.41px;"/><line x1="790.06" y1="163.12" x2="801.54" y2="163.12" style="fill:none; stroke:#39b54a; stroke-dasharray:0 0 7.65 7.65; stroke-miterlimit:10; stroke-width:4.41px;"/><polyline points="805.37 163.12 808.52 163.12 808.52 166.27" style="fill:none; stroke:#39b54a; stroke-miterlimit:10; stroke-width:4.41px;"/><line x1="808.52" y1="172.29" x2="808.52" y2="289.65" style="fill:none; stroke:#39b54a; stroke-dasharray:0 0 6.02 6.02; stroke-miterlimit:10; stroke-width:4.41px;"/><polyline points="808.52 292.66 808.52 295.81 811.67 295.81" style="fill:none; stroke:#39b54a; stroke-miterlimit:10; stroke-width:4.41px;"/><line x1="818.1" y1="295.81" x2="917.87" y2="295.81" style="fill:none; stroke:#39b54a; stroke-dasharray:0 0 6.44 6.44; stroke-miterlimit:10; stroke-width:4.41px;"/><line x1="921.09" y1="295.81" x2="924.24" y2="295.81" style="fill:none; stroke:#39b54a; stroke-miterlimit:10; stroke-width:4.41px;"/><line x1="219.25" y1="275.52" x2="222.4" y2="275.52" style="fill:none; stroke:#39b54a; stroke-miterlimit:10; stroke-width:4.41px;"/><line x1="228.71" y1="275.52" x2="793.22" y2="275.52" style="fill:none; stroke:#39b54a; stroke-dasharray:0 0 6.31 6.31; stroke-miterlimit:10; stroke-width:4.41px;"/><line x1="796.38" y1="275.52" x2="799.53" y2="275.52" style="fill:none; stroke:#39b54a; stroke-miterlimit:10; stroke-width:4.41px;"/><line y1="228.26" x2="730.9" y2="228.26" style="fill:none; stroke:#4d4948; stroke-miterlimit:10; stroke-width:7.56px;"/><line y1="228.26" x2="730.9" y2="228.26" style="fill:none; stroke:#fff; stroke-miterlimit:10; stroke-width:5.04px;"/><line y1="228.26" x2="730.9" y2="228.26" style="fill:none; stroke:#4d4948; stroke-dasharray:0 0 25.2 25.2; stroke-miterlimit:10; stroke-width:5.04px;"/><line x1="89.76" y1="293.81" x2="92.91" y2="293.81" style="fill:none; stroke:#39b54a; stroke-miterlimit:10; stroke-width:4.41px;"/><line x1="99.23" y1="293.81" x2="209.82" y2="293.81" style="fill:none; stroke:#39b54a; stroke-dasharray:0 0 6.32 6.32; stroke-miterlimit:10; stroke-width:4.41px;"/><polyline points="212.98 293.81 216.13 293.81 216.13 290.66" style="fill:none; stroke:#39b54a; stroke-miterlimit:10; stroke-width:4.41px;"/><line x1="216.13" y1="284.59" x2="216.13" y2="166.3" style="fill:none; stroke:#39b54a; stroke-dasharray:0 0 6.07 6.07; stroke-miterlimit:10; stroke-width:4.41px;"/><polyline points="216.13 163.27 216.13 160.12 219.28 160.12" style="fill:none; stroke:#39b54a; stroke-miterlimit:10; stroke-width:4.41px;"/><polyline points="225.61 160.12 347.81 160.12 378.41 132.53 738.88 132.53 772.51 159.2" style="fill:none; stroke:#39b54a; stroke-dasharray:0 0 6.33 6.33; stroke-miterlimit:10; stroke-width:4.41px;"/><polyline points="774.99 161.16 777.46 163.12 774.66 164.57" style="fill:none; stroke:#39b54a; stroke-miterlimit:10; stroke-width:4.41px;"/><polyline points="769.05 167.46 736.22 184.4 378.41 184.4 352.99 166.72" style="fill:none; stroke:#39b54a; stroke-dasharray:0 0 6.31 6.31; stroke-miterlimit:10; stroke-width:4.41px;"/><line x1="350.4" y1="164.92" x2="347.81" y2="163.12" style="fill:none; stroke:#39b54a; stroke-miterlimit:10; stroke-width:4.41px;"/><rect x="222.91" y="307.3" width="138.58" height="53.44" rx="3.86" ry="3.86" style="fill:#ed0030;"/><rect x="222.91" y="307.3" width="138.58" height="53.44" rx="3.86" ry="3.86" style="fill:none; stroke:#545454; stroke-linecap:round; stroke-linejoin:round; stroke-width:1.89px;"/><path d="m245.07,339.24c0,.99.09,1.42.67,1.66.67.3,2.34.41,5.22.41,3.78,0,5.65-.24,6.19-.69.62-.49.62-1.38.69-2.95.49.3,1.08.56,1.63.75q.67.21.6.9c-.17,1.66-.54,2.75-1.42,3.31-.73.49-2.75.88-7.63.88-4.06,0-6.02-.15-7.03-.73-.84-.45-1.18-1.16-1.18-2.92v-11.48c0-1.55-.04-2.24-.04-2.37,0-.24.02-.26.24-.26.15,0,.9.04,2.99.04h9.16c2.11,0,2.86-.04,2.99-.04.24,0,.26.02.26.26,0,.13-.04.82-.04,2.37v4.97c0,1.53.04,2.19.04,2.32,0,.19-.02.21-.26.21h-1.78c-.24,0-.26-.02-.26-.21v-1.05h-11.03v4.62Zm4.32-6.66v-4.73h-4.32v4.73h4.32Zm2.19-4.73v4.73h4.52v-4.73h-4.52Z" style="fill:#fff;"/><path d="m264.23,343.28c-.21,0-.24-.02-.24-.24,0-.15.04-1.27.04-7.07v-3.98c0-3.98-.04-5.16-.04-5.29,0-.24.02-.26.24-.26.15,0,.88.04,2.97.04h9.76c2.09,0,2.82-.04,2.95-.04.24,0,.26.02.26.26,0,.13-.04,1.29-.04,4.73v4.54c0,5.74.04,6.88.04,7.01,0,.21-.02.24-.26.24h-1.94c-.21,0-.24-.02-.24-.24v-1.61h-11.31v1.68c0,.21-.02.24-.26.24h-1.94Zm2.19-4.11h11.31v-10.49h-11.31v10.49Z" style="fill:#fff;"/><path d="m291.97,333.16c1.55-1.98,2.47-4.3,2.99-6.86.11-.67.24-1.25.26-1.87.75.11,1.42.26,2.04.43.28.06.43.17.43.3s-.04.21-.15.34c-.15.19-.3.62-.41,1.1-.17.58-.32,1.16-.52,1.72h3.63c2.02,0,2.71-.04,2.86-.04.22,0,.24.02.24.24v1.55c0,.21-.02.24-.24.24-.13,0-.56-.02-1.63-.04-.19,3.22-1.1,6.08-2.39,8.13,1.18,1.33,2.79,2.52,4.73,3.5-.37.39-.73.95-.99,1.5-.17.34-.26.5-.43.5-.13,0-.28-.06-.52-.21-1.72-1.1-3.03-2.34-4.08-3.59-1.25,1.38-2.92,2.73-5.2,3.76-.26.11-.43.17-.54.17-.15,0-.21-.11-.37-.37-.37-.65-.71-1.05-1.12-1.42,2.45-.86,4.54-2.32,5.91-3.89-.95-1.5-1.66-3.33-2.04-5.03-.28.47-.58.92-.9,1.38-.19.26-.3.37-.41.37s-.21-.13-.41-.41c-.24-.3-.49-.6-.73-.82,0,.32.02.52.02.58,0,.21-.02.24-.26.24h-1.68c-.22,0-.24-.02-.24-.24v-.84h-3.12v4.86c0,.49.02.82.19.95.28.21.9.26,1.44.26,1.14,0,1.78-.13,2.11-.5.32-.37.41-.95.47-2.58.41.26.9.47,1.42.6.67.19.69.19.62.84-.11,1.59-.43,2.34-1.05,2.9-.75.67-2,.82-3.91.82-1.38,0-2.43-.11-2.88-.54-.39-.34-.54-.77-.54-1.72v-5.42c0-1.42-.04-2.15-.04-2.28,0-.24.02-.26.26-.26.13,0,.71.04,1.94.04h3.1v-3.48h-3.22c-1.59,0-2.11.04-2.21.04-.21,0-.24-.02-.24-.26v-1.63c0-.21.02-.24.24-.24.11,0,.62.04,2.21.04h2.86c1.61,0,2.15-.04,2.28-.04.24,0,.26.02.26.24,0,.15-.04.71-.04,2.15v4.79Zm3.96-2.9c-.04.11-.06.21-.11.3.37,2.43.95,4.32,1.91,5.98.8-1.48,1.38-3.5,1.57-6.28h-3.38Z" style="fill:#fff;"/><path d="m309.47,327.52c0-1.4-.02-2.06-.17-3.05.8.02,1.59.09,2.3.15.21.02.32.11.32.21,0,.19-.06.32-.13.47-.13.26-.15.62-.15,2.17v1.27h.47c1.81,0,2.39-.04,2.52-.04.21,0,.24.02.24.24v1.61c0,.21-.02.24-.24.24-.13,0-.71-.04-2.52-.04h-.32c.71,1.61,1.98,3.33,3.31,4.54-.32.41-.6.97-.82,1.53-.09.24-.17.34-.26.34s-.17-.11-.34-.3c-.84-1.01-1.59-2.17-2.11-3.42.02,5.63.15,10.06.15,10.49,0,.21-.02.24-.24.24h-1.87c-.22,0-.24-.02-.24-.24,0-.45.11-4.77.15-10-.67,2-1.74,3.89-2.97,5.55-.15.19-.26.3-.34.3-.11,0-.17-.11-.26-.37-.19-.62-.49-1.33-.73-1.72,1.63-1.81,3.03-4.08,4.02-6.94h-.8c-1.81,0-2.41.04-2.54.04-.21,0-.24-.02-.24-.24v-1.61c0-.21.02-.24.24-.24.13,0,.73.04,2.54.04h1.01v-1.23Zm9.07,12.9c0,.6.06.8.34.92.19.09.69.15,1.38.15.88,0,1.44-.15,1.74-.45.34-.3.54-.9.62-3.33.43.3,1.12.6,1.68.75q.54.17.49.75c-.17,2.54-.52,3.2-1.16,3.76-.65.56-1.7.8-3.5.8-1.55,0-2.39-.09-2.92-.32-.56-.28-.97-.62-.97-2.04v-12.96c0-1.85-.04-2.88-.13-3.7.82.02,1.68.11,2.32.19.26.02.41.13.41.26,0,.17-.06.3-.13.45-.13.26-.17.73-.17,2.88v11.89Z" style="fill:#fff;"/><path d="m328.73,343.28c-.21,0-.24-.02-.24-.24,0-.15.04-1.27.04-7.07v-3.98c0-3.98-.04-5.16-.04-5.29,0-.24.02-.26.24-.26.15,0,.88.04,2.97.04h9.76c2.09,0,2.82-.04,2.95-.04.24,0,.26.02.26.26,0,.13-.04,1.29-.04,4.73v4.54c0,5.74.04,6.88.04,7.01,0,.21-.02.24-.26.24h-1.94c-.21,0-.24-.02-.24-.24v-1.61h-11.31v1.68c0,.21-.02.24-.26.24h-1.94Zm2.19-4.11h11.31v-10.49h-11.31v10.49Z" style="fill:#fff;"/><polyline points="227.9 320.08 208.95 311.1 225.9 333.05" style="fill:#ed0030; stroke:#545454; stroke-linecap:round; stroke-linejoin:round; stroke-width:1.89px;"/></g></svg>