<?xml version="1.0" encoding="UTF-8"?><svg id="_レイヤー_2" xmlns="http://www.w3.org/2000/svg" width="1032.74" height="385.65" viewBox="0 0 1032.74 385.65"><g id="_レイヤー_2-2"><polygon points="4.98 92.79 4.98 193.88 594.84 193.88 594.84 243.1 504.39 243.1 504.39 281.67 594.84 281.67 594.84 341.53 666.67 341.53 666.67 92.79 4.98 92.79" style="fill:#f2f2f2;"/><rect x=".98" y="87.79" width="487.04" height="101.09" style="fill:#dbf1de;"/><polygon points="662.67 87.79 488.02 87.79 488.02 188.88 590.84 188.88 590.84 238.1 500.39 238.1 500.39 276.67 590.84 276.67 590.84 286.59 662.67 286.59 662.67 87.79" style="fill:#e3f2f7;"/><rect x="590.84" y="286.59" width="71.83" height="49.94" style="fill:#e6e6e6;"/><line x1="205.3" y1="238.1" x2="1021.69" y2="238.1" style="fill:none; stroke:#545454; stroke-miterlimit:10; stroke-width:.49px;"/><rect x="791.7" width="89.12" height="343.18" style="fill:#e6e6e6;"/><rect x="445.85" y="306.6" width="78.48" height="29.93" style="fill:#e6e6e6; stroke:#545454; stroke-miterlimit:10; stroke-width:.5px;"/><line x1="1.62" y1="209.8" x2="1021.69" y2="209.8" style="fill:none; stroke:#4d4948; stroke-miterlimit:10; stroke-width:7.56px;"/><line x1="1.62" y1="209.8" x2="1021.69" y2="209.8" style="fill:none; stroke:#fff; stroke-miterlimit:10; stroke-width:5.04px;"/><line x1="1.62" y1="209.8" x2="1021.69" y2="209.8" style="fill:none; stroke:#4d4948; stroke-dasharray:0 0 25.2 25.2; stroke-miterlimit:10; stroke-width:5.04px;"/><line x1="1.62" y1="70.13" x2="1021.69" y2="70.13" style="fill:none; stroke:#4d4948; stroke-miterlimit:10; stroke-width:7.56px;"/><line x1="1.62" y1="70.13" x2="1021.69" y2="70.13" style="fill:none; stroke:#fff; stroke-miterlimit:10; stroke-width:5.04px;"/><line x1="1.62" y1="70.13" x2="1021.69" y2="70.13" style="fill:none; stroke:#4d4948; stroke-dasharray:0 0 25.2 25.2; stroke-miterlimit:10; stroke-width:5.04px;"/><line x1=".37" y1="28.73" x2="890.19" y2="28.73" style="fill:none; stroke:#545454; stroke-miterlimit:10; stroke-width:.5px;"/><path d="m857.58,40.75h8.71v1.54h-7.01v3.81h6.16v1.5h-6.16v5.71h-1.7v-12.55Z" style="fill:gray;"/><path d="m874.21,45.06c.81.79,1.21,1.94,1.21,3.47s-.36,2.69-1.07,3.65c-.71.96-1.82,1.44-3.32,1.44-1.25,0-2.24-.43-2.98-1.28s-1.1-1.99-1.1-3.43c0-1.54.39-2.76,1.16-3.67.77-.91,1.82-1.37,3.12-1.37,1.17,0,2.16.39,2.97,1.18Zm-.96,6.08c.38-.77.56-1.63.56-2.57,0-.85-.13-1.55-.41-2.08-.43-.84-1.17-1.26-2.21-1.26-.93,0-1.61.36-2.03,1.08-.42.72-.63,1.58-.63,2.59s.21,1.78.63,2.43c.42.65,1.09.97,2.01.97,1.01,0,1.7-.38,2.07-1.16Z" style="fill:gray;"/><path d="m877.22,44.15h1.46v1.58c.12-.31.41-.68.88-1.12s1.01-.66,1.62-.66c.03,0,.08,0,.15,0s.18.02.35.03v1.62c-.09-.02-.18-.03-.25-.03-.08,0-.16,0-.25,0-.77,0-1.37.25-1.79.75-.42.5-.62,1.07-.62,1.72v5.26h-1.54v-9.15Z" style="fill:gray;"/><path d="m889.18,49.25c.04.71.2,1.29.49,1.73.54.83,1.5,1.25,2.87,1.25.62,0,1.17-.09,1.68-.27.98-.35,1.46-.99,1.46-1.9,0-.68-.21-1.17-.62-1.46-.42-.29-1.08-.53-1.97-.74l-1.65-.38c-1.08-.25-1.84-.53-2.28-.83-.77-.52-1.16-1.31-1.16-2.35,0-1.13.38-2.05,1.14-2.78.76-.72,1.83-1.08,3.23-1.08,1.28,0,2.37.32,3.26.95.9.64,1.34,1.65,1.34,3.05h-1.6c-.08-.67-.26-1.19-.52-1.55-.5-.66-1.34-.98-2.53-.98-.96,0-1.65.21-2.07.63-.42.42-.63.91-.63,1.47,0,.62.25,1.07.75,1.35.33.18,1.06.41,2.21.68l1.71.4c.82.19,1.46.46,1.9.79.77.59,1.16,1.44,1.16,2.55,0,1.39-.49,2.38-1.48,2.98-.99.6-2.13.9-3.44.9-1.52,0-2.71-.4-3.58-1.2-.86-.79-1.28-1.87-1.27-3.22h1.6Z" style="fill:gray;"/><path d="m899.34,40.71h1.54v4.68c.36-.46.69-.79.98-.97.5-.32,1.11-.49,1.85-.49,1.33,0,2.23.46,2.7,1.39.26.51.38,1.21.38,2.11v5.87h-1.58v-5.77c0-.67-.08-1.17-.26-1.48-.28-.5-.8-.75-1.57-.75-.64,0-1.22.22-1.73.66s-.78,1.27-.78,2.49v4.85h-1.54v-12.59Z" style="fill:gray;"/><path d="m908.95,40.75h1.56v1.74h-1.56v-1.74Zm0,3.44h1.56v9.11h-1.56v-9.11Z" style="fill:gray;"/><path d="m912.7,44.15h1.46v1.3c.43-.54.89-.92,1.38-1.15s1.02-.35,1.62-.35c1.3,0,2.18.45,2.63,1.36.25.5.38,1.21.38,2.13v5.87h-1.56v-5.77c0-.56-.08-1.01-.25-1.35-.27-.57-.77-.85-1.49-.85-.36,0-.66.04-.9.11-.42.13-.79.38-1.11.75-.26.3-.42.61-.5.94-.08.32-.12.78-.12,1.38v4.79h-1.54v-9.15Z" style="fill:gray;"/><path d="m922.09,47.64h4.29v1.58h-4.29v-1.58Z" style="fill:gray;"/><path d="m929.64,49.25c.04.71.2,1.29.49,1.73.54.83,1.5,1.25,2.87,1.25.62,0,1.17-.09,1.68-.27.98-.35,1.46-.99,1.46-1.9,0-.68-.21-1.17-.62-1.46-.42-.29-1.08-.53-1.97-.74l-1.65-.38c-1.08-.25-1.84-.53-2.28-.83-.77-.52-1.16-1.31-1.16-2.35,0-1.13.38-2.05,1.14-2.78.76-.72,1.83-1.08,3.23-1.08,1.28,0,2.37.32,3.26.95.9.64,1.34,1.65,1.34,3.05h-1.6c-.08-.67-.26-1.19-.52-1.55-.5-.66-1.34-.98-2.53-.98-.96,0-1.65.21-2.07.63-.42.42-.63.91-.63,1.47,0,.62.25,1.07.75,1.35.33.18,1.06.41,2.21.68l1.71.4c.82.19,1.46.46,1.9.79.77.59,1.16,1.44,1.16,2.55,0,1.39-.49,2.38-1.48,2.98-.99.6-2.13.9-3.44.9-1.52,0-2.71-.4-3.58-1.2-.86-.79-1.28-1.87-1.27-3.22h1.6Z" style="fill:gray;"/><path d="m939.8,40.71h1.54v4.68c.36-.46.69-.79.98-.97.5-.32,1.11-.49,1.85-.49,1.33,0,2.23.46,2.7,1.39.26.51.38,1.21.38,2.11v5.87h-1.58v-5.77c0-.67-.08-1.17-.26-1.48-.28-.5-.8-.75-1.57-.75-.64,0-1.22.22-1.73.66s-.78,1.27-.78,2.49v4.85h-1.54v-12.59Z" style="fill:gray;"/><path d="m949.41,40.75h1.56v1.74h-1.56v-1.74Zm0,3.44h1.56v9.11h-1.56v-9.11Z" style="fill:gray;"/><path d="m953.15,44.15h1.52v1.3c.37-.45.7-.78.99-.98.51-.35,1.08-.52,1.73-.52.73,0,1.32.18,1.76.54.25.21.48.51.68.91.34-.49.74-.85,1.2-1.09.46-.24.98-.35,1.56-.35,1.23,0,2.07.44,2.51,1.33.24.48.36,1.12.36,1.93v6.09h-1.6v-6.36c0-.61-.15-1.03-.46-1.26s-.68-.34-1.11-.34c-.6,0-1.12.2-1.56.61-.44.41-.65,1.08-.65,2.03v5.32h-1.56v-5.97c0-.62-.07-1.07-.22-1.36-.23-.43-.67-.64-1.31-.64-.58,0-1.11.23-1.58.68-.48.45-.71,1.26-.71,2.44v4.85h-1.54v-9.15Z" style="fill:gray;"/><path d="m967.62,40.75h1.56v1.74h-1.56v-1.74Zm0,3.44h1.56v9.11h-1.56v-9.11Z" style="fill:gray;"/><path d="m970.59,52.09l5.43-6.56h-5.03v-1.38h7.1v1.26l-5.4,6.52h5.56v1.38h-7.67v-1.21Z" style="fill:gray;"/><path d="m981.22,44.15v6.08c0,.47.07.85.22,1.15.27.55.76.82,1.49.82,1.04,0,1.75-.48,2.13-1.44.21-.51.31-1.22.31-2.11v-4.49h1.54v9.15h-1.45l.02-1.35c-.2.35-.44.64-.73.88-.58.48-1.27.72-2.1.72-1.28,0-2.15-.44-2.62-1.31-.25-.47-.38-1.09-.38-1.87v-6.22h1.57Z" style="fill:gray;"/><polygon points="1032.74 47.65 1016.03 38 1016.03 43.88 996.51 43.88 996.51 51.41 1016.03 51.41 1016.03 57.29 1032.74 47.65" style="fill:gray;"/><path d="m53.39,229.75h8.71v1.54h-7.01v3.81h6.16v1.5h-6.16v5.71h-1.7v-12.55Z" style="fill:gray;"/><path d="m70.02,234.07c.81.79,1.21,1.94,1.21,3.47s-.36,2.69-1.07,3.65c-.71.96-1.82,1.44-3.32,1.44-1.25,0-2.24-.42-2.98-1.28-.74-.85-1.1-1.99-1.1-3.43,0-1.54.39-2.76,1.16-3.67.77-.91,1.82-1.37,3.12-1.37,1.17,0,2.16.39,2.97,1.18Zm-.96,6.08c.37-.77.56-1.63.56-2.57,0-.85-.14-1.55-.41-2.08-.43-.84-1.17-1.26-2.21-1.26-.93,0-1.61.36-2.03,1.08-.42.72-.63,1.58-.63,2.59s.21,1.78.63,2.43,1.09.97,2.01.97c1.01,0,1.7-.38,2.07-1.16Z" style="fill:gray;"/><path d="m73.03,233.16h1.46v1.58c.12-.31.41-.68.88-1.12.47-.44,1.01-.66,1.62-.66.03,0,.08,0,.15,0,.07,0,.18.02.35.03v1.62c-.09-.02-.18-.03-.25-.03-.08,0-.16,0-.25,0-.77,0-1.37.25-1.79.75-.42.5-.62,1.07-.62,1.72v5.26h-1.54v-9.15Z" style="fill:gray;"/><path d="m84.99,238.26c.04.71.2,1.29.49,1.74.54.83,1.5,1.25,2.87,1.25.61,0,1.17-.09,1.68-.27.98-.35,1.46-.99,1.46-1.9,0-.68-.21-1.17-.62-1.46-.42-.29-1.08-.53-1.97-.74l-1.65-.38c-1.08-.25-1.84-.53-2.28-.83-.77-.52-1.16-1.31-1.16-2.35,0-1.13.38-2.05,1.14-2.78s1.83-1.09,3.23-1.09c1.28,0,2.37.32,3.26.95.9.64,1.34,1.65,1.34,3.05h-1.6c-.08-.67-.26-1.19-.52-1.55-.5-.66-1.34-.98-2.53-.98-.96,0-1.65.21-2.07.63-.42.42-.63.91-.63,1.47,0,.62.25,1.07.75,1.35.33.18,1.06.41,2.21.68l1.71.4c.82.19,1.46.46,1.9.79.77.59,1.16,1.44,1.16,2.55,0,1.39-.49,2.38-1.48,2.98-.99.6-2.13.9-3.44.9-1.52,0-2.71-.4-3.57-1.2-.86-.79-1.28-1.87-1.27-3.22h1.6Z" style="fill:gray;"/><path d="m95.16,229.71h1.54v4.68c.36-.46.69-.79.98-.97.5-.32,1.11-.49,1.85-.49,1.33,0,2.23.46,2.7,1.39.26.51.38,1.21.38,2.11v5.87h-1.58v-5.77c0-.67-.09-1.17-.26-1.48-.28-.5-.8-.75-1.57-.75-.64,0-1.22.22-1.73.66-.52.44-.78,1.27-.78,2.49v4.85h-1.54v-12.6Z" style="fill:gray;"/><path d="m104.77,229.75h1.56v1.74h-1.56v-1.74Zm0,3.44h1.56v9.11h-1.56v-9.11Z" style="fill:gray;"/><path d="m108.51,233.16h1.46v1.3c.43-.54.89-.92,1.38-1.15.48-.23,1.02-.35,1.62-.35,1.3,0,2.18.45,2.63,1.36.25.5.38,1.21.38,2.13v5.87h-1.56v-5.77c0-.56-.08-1.01-.25-1.35-.27-.57-.77-.85-1.49-.85-.36,0-.66.04-.9.11-.42.12-.79.38-1.11.75-.26.3-.42.61-.5.94-.08.32-.12.78-.12,1.38v4.79h-1.54v-9.15Z" style="fill:gray;"/><path d="m117.91,236.64h4.29v1.58h-4.29v-1.58Z" style="fill:gray;"/><path d="m125.45,238.26c.04.71.2,1.29.49,1.74.54.83,1.5,1.25,2.87,1.25.61,0,1.17-.09,1.68-.27.98-.35,1.46-.99,1.46-1.9,0-.68-.21-1.17-.62-1.46-.42-.29-1.08-.53-1.97-.74l-1.65-.38c-1.08-.25-1.84-.53-2.28-.83-.77-.52-1.16-1.31-1.16-2.35,0-1.13.38-2.05,1.14-2.78s1.83-1.09,3.23-1.09c1.28,0,2.37.32,3.26.95.9.64,1.34,1.65,1.34,3.05h-1.6c-.08-.67-.26-1.19-.52-1.55-.5-.66-1.34-.98-2.53-.98-.96,0-1.65.21-2.07.63-.42.42-.63.91-.63,1.47,0,.62.25,1.07.75,1.35.33.18,1.06.41,2.21.68l1.71.4c.82.19,1.46.46,1.9.79.77.59,1.16,1.44,1.16,2.55,0,1.39-.49,2.38-1.48,2.98-.99.6-2.13.9-3.44.9-1.52,0-2.71-.4-3.57-1.2-.86-.79-1.28-1.87-1.27-3.22h1.6Z" style="fill:gray;"/><path d="m135.62,229.71h1.54v4.68c.36-.46.69-.79.98-.97.5-.32,1.11-.49,1.85-.49,1.33,0,2.23.46,2.7,1.39.26.51.38,1.21.38,2.11v5.87h-1.58v-5.77c0-.67-.09-1.17-.26-1.48-.28-.5-.8-.75-1.57-.75-.64,0-1.22.22-1.73.66-.52.44-.78,1.27-.78,2.49v4.85h-1.54v-12.6Z" style="fill:gray;"/><path d="m145.23,229.75h1.56v1.74h-1.56v-1.74Zm0,3.44h1.56v9.11h-1.56v-9.11Z" style="fill:gray;"/><path d="m148.2,241.09l5.43-6.56h-5.03v-1.38h7.1v1.26l-5.4,6.52h5.56v1.38h-7.67v-1.21Z" style="fill:gray;"/><path d="m158.83,233.16v6.08c0,.47.07.85.22,1.14.27.55.76.82,1.49.82,1.04,0,1.75-.48,2.13-1.44.21-.51.31-1.22.31-2.11v-4.49h1.54v9.15h-1.45l.02-1.35c-.2.35-.44.64-.73.88-.58.48-1.27.72-2.1.72-1.28,0-2.15-.44-2.62-1.31-.25-.47-.38-1.09-.38-1.87v-6.22h1.57Z" style="fill:gray;"/><path d="m173.54,234.07c.81.79,1.21,1.94,1.21,3.47s-.36,2.69-1.07,3.65c-.71.96-1.82,1.44-3.32,1.44-1.25,0-2.24-.42-2.98-1.28-.74-.85-1.1-1.99-1.1-3.43,0-1.54.39-2.76,1.16-3.67.77-.91,1.82-1.37,3.12-1.37,1.17,0,2.16.39,2.97,1.18Zm-.96,6.08c.37-.77.56-1.63.56-2.57,0-.85-.14-1.55-.41-2.08-.43-.84-1.17-1.26-2.21-1.26-.93,0-1.61.36-2.03,1.08-.42.72-.63,1.58-.63,2.59s.21,1.78.63,2.43,1.09.97,2.01.97c1.01,0,1.7-.38,2.07-1.16Z" style="fill:gray;"/><path d="m176.51,229.75h1.48v7.29l3.94-3.89h1.96l-3.52,3.4,3.71,5.75h-1.96l-2.88-4.66-1.26,1.22v3.44h-1.48v-12.55Z" style="fill:gray;"/><path d="m190.02,236.77c.35-.05.59-.19.71-.44.07-.14.1-.33.1-.59,0-.53-.19-.91-.56-1.14-.37-.24-.91-.36-1.6-.36-.8,0-1.37.22-1.71.65-.19.24-.31.6-.37,1.07h-1.44c.03-1.13.39-1.92,1.1-2.36.7-.44,1.52-.66,2.45-.66,1.08,0,1.95.21,2.62.62.67.41,1,1.05,1,1.91v5.27c0,.16.03.29.1.38s.2.14.41.14c.07,0,.15,0,.23-.01.09,0,.18-.02.27-.04v1.14c-.24.07-.42.11-.55.13-.12.02-.3.03-.51.03-.53,0-.91-.19-1.15-.56-.13-.2-.21-.48-.26-.85-.31.41-.76.77-1.35,1.07-.59.3-1.23.45-1.94.45-.85,0-1.54-.26-2.08-.77-.54-.51-.81-1.16-.81-1.93,0-.85.27-1.5.79-1.97.53-.47,1.23-.75,2.08-.86l2.45-.31Zm-3.24,4.15c.33.26.71.38,1.15.38.54,0,1.06-.12,1.57-.38.85-.42,1.28-1.09,1.28-2.04v-1.24c-.19.12-.43.22-.72.3-.3.08-.59.14-.87.17l-.93.12c-.56.07-.98.19-1.26.35-.48.27-.71.69-.71,1.28,0,.44.16.79.49,1.05Z" style="fill:gray;"/><polygon points="6.03 235.65 22.74 226 22.74 231.88 42.25 231.88 42.25 239.42 22.74 239.42 22.74 245.3 6.03 235.65" style="fill:gray;"/><rect x=".25" y="264.7" width="325.89" height="74.49" style="fill:#e6e6e6; stroke:#545454; stroke-miterlimit:10; stroke-width:.5px;"/><polyline points="662.67 336.53 662.67 87.79 .98 87.79 .98 188.88 590.84 188.88 590.84 238.1 500.39 238.1 500.39 276.67 590.84 276.67 590.84 336.53" style="fill:none; stroke:#545454; stroke-miterlimit:10; stroke-width:.5px;"/><rect x="445.85" y="238.1" width="65.18" height="69.85" style="fill:#67d4ff; stroke:#545454; stroke-miterlimit:10; stroke-width:.5px;"/><rect x="680.97" y="253.89" width="98.19" height="87.2" style="fill:#f2f2f2;"/><rect x="675.97" y="248.89" width="98.19" height="87.2" style="fill:#e6e6e6; stroke:#545454; stroke-miterlimit:10; stroke-width:.5px;"/><rect x="607.88" y="266.61" width="13.49" height="41.5" style="fill:#ffffc8; stroke:#545454; stroke-miterlimit:10; stroke-width:.5px;"/><rect x="632.57" y="266.61" width="13.49" height="41.5" style="fill:#ffffc8; stroke:#545454; stroke-miterlimit:10; stroke-width:.5px;"/><rect x="455.77" y="248.31" width="44.18" height="44.18" rx="3.52" ry="3.52" style="fill:none; stroke:#0094e2; stroke-linecap:round; stroke-linejoin:round; stroke-width:3.52px;"/><rect x="454.72" y="247.26" width="44.18" height="44.18" rx="3.52" ry="3.52" style="fill:#fff;"/><rect x="454.72" y="247.26" width="44.18" height="44.18" rx="3.52" ry="3.52" style="fill:none; stroke:#0094e2; stroke-linecap:round; stroke-linejoin:round; stroke-width:1.76px;"/><polygon points="472.3 285.49 467.49 285.49 464.65 262.37 475.14 262.37 472.3 285.49" style="fill:#0094e2;"/><polygon points="481.33 262.37 486.14 262.37 488.98 285.49 478.49 285.49 481.33 262.37" style="fill:#ec0e8d;"/><circle cx="469.89" cy="257.13" r="3.93" style="fill:#0094e2;"/><circle cx="483.73" cy="257.13" r="3.93" style="fill:#ec0e8d;"/><rect x="522.33" y="121.71" width="11.44" height="67.18" style="fill:#fff; stroke:#545454; stroke-miterlimit:10; stroke-width:.46px;"/><rect x="488.02" y="121.71" width="11.44" height="67.18" style="fill:#fff; stroke:#545454; stroke-miterlimit:10; stroke-width:.46px;"/><rect x="499.46" y="121.71" width="11.44" height="67.18" style="fill:#fff; stroke:#545454; stroke-miterlimit:10; stroke-width:.46px;"/><rect x="510.89" y="121.71" width="11.44" height="67.18" style="fill:#fff; stroke:#545454; stroke-miterlimit:10; stroke-width:.46px;"/><rect x="556.64" y="121.71" width="11.44" height="67.18" style="fill:#fff; stroke:#545454; stroke-miterlimit:10; stroke-width:.46px;"/><rect x="533.77" y="121.71" width="11.44" height="67.18" style="fill:#fff; stroke:#545454; stroke-miterlimit:10; stroke-width:.46px;"/><rect x="568.08" y="121.71" width="11.44" height="67.18" style="fill:#fff; stroke:#545454; stroke-miterlimit:10; stroke-width:.46px;"/><rect x="545.21" y="121.71" width="11.44" height="67.18" style="fill:#fff; stroke:#545454; stroke-miterlimit:10; stroke-width:.46px;"/><rect x="488.02" y="121.71" width="91.5" height="6.49" style="fill:#545454; stroke:#545454; stroke-miterlimit:10; stroke-width:.46px;"/><rect x="488.02" y="182.88" width="91.5" height="6" style="fill:#545454; stroke:#545454; stroke-miterlimit:10; stroke-width:.46px;"/><path d="m182.71,113.49h5.62c1.11,0,2.01.32,2.69.94.68.63,1.02,1.51,1.02,2.65,0,.98-.3,1.83-.91,2.56s-1.54,1.09-2.8,1.09h-3.92v5.31h-1.7v-12.55Zm6.6,1.73c-.37-.18-.89-.26-1.54-.26h-3.36v4.35h3.36c.76,0,1.37-.16,1.85-.49.47-.33.71-.9.71-1.72,0-.92-.34-1.55-1.02-1.88Z" style="fill:#0094e2;"/><path d="m193.68,113.49h1.54v12.55h-1.54v-12.55Z" style="fill:#0094e2;"/><path d="m202.27,120.5c.35-.05.59-.19.71-.44.07-.14.1-.33.1-.59,0-.53-.19-.91-.56-1.15-.37-.24-.91-.36-1.6-.36-.8,0-1.37.22-1.71.65-.19.24-.31.6-.37,1.07h-1.44c.03-1.13.39-1.92,1.1-2.36.7-.44,1.52-.67,2.45-.67,1.08,0,1.95.21,2.62.62.67.41,1,1.05,1,1.92v5.27c0,.16.03.29.1.38s.2.15.41.15c.07,0,.15,0,.23-.01.09,0,.18-.02.27-.04v1.14c-.24.07-.42.11-.55.13-.12.02-.3.03-.51.03-.53,0-.91-.19-1.15-.56-.13-.2-.21-.48-.26-.85-.31.41-.76.77-1.35,1.07-.59.3-1.23.45-1.94.45-.85,0-1.54-.26-2.08-.77-.54-.51-.81-1.16-.81-1.93,0-.85.27-1.5.79-1.97.53-.47,1.23-.75,2.08-.86l2.45-.31Zm-3.24,4.16c.33.26.71.38,1.15.38.54,0,1.06-.12,1.57-.38.85-.42,1.28-1.09,1.28-2.04v-1.24c-.19.12-.43.22-.72.3-.3.08-.59.14-.87.17l-.93.12c-.56.07-.98.19-1.26.35-.48.27-.71.69-.71,1.28,0,.44.16.79.49,1.05Z" style="fill:#0094e2;"/><path d="m207.14,114.34h1.56v2.55h1.46v1.26h-1.46v5.97c0,.32.11.53.32.64.12.06.32.09.6.09.07,0,.15,0,.24,0s.19-.01.3-.03v1.22c-.18.05-.36.09-.55.11-.19.02-.4.03-.62.03-.72,0-1.21-.18-1.46-.55-.26-.37-.38-.84-.38-1.43v-6.06h-1.24v-1.26h1.24v-2.55Z" style="fill:#0094e2;"/><path d="m212.69,114.1c.36-.52,1.05-.79,2.08-.79.1,0,.2,0,.3,0,.1,0,.22.01.35.03v1.4c-.16-.01-.28-.02-.35-.02-.07,0-.14,0-.2,0-.47,0-.75.12-.85.36-.09.24-.14.86-.14,1.85h1.54v1.21h-1.54v7.9h-1.52v-7.9h-1.27v-1.21h1.27v-1.44c.02-.64.13-1.11.33-1.4Z" style="fill:#0094e2;"/><path d="m223.23,117.8c.81.79,1.21,1.94,1.21,3.47s-.36,2.69-1.07,3.65c-.71.96-1.82,1.44-3.32,1.44-1.25,0-2.24-.43-2.98-1.28s-1.1-1.99-1.1-3.43c0-1.54.39-2.76,1.16-3.67.77-.91,1.82-1.37,3.12-1.37,1.17,0,2.16.39,2.97,1.18Zm-.96,6.08c.37-.77.56-1.63.56-2.57,0-.85-.14-1.55-.41-2.08-.43-.84-1.17-1.26-2.21-1.26-.93,0-1.61.36-2.03,1.08s-.63,1.58-.63,2.59.21,1.78.63,2.43,1.09.97,2.01.97c1.01,0,1.7-.38,2.07-1.16Z" style="fill:#0094e2;"/><path d="m226.23,116.89h1.46v1.58c.12-.31.41-.68.88-1.12.47-.44,1.01-.66,1.62-.66.03,0,.08,0,.15,0s.18.02.35.03v1.62c-.09-.02-.18-.03-.25-.03-.08,0-.16,0-.25,0-.77,0-1.37.25-1.79.75-.42.5-.62,1.07-.62,1.72v5.26h-1.54v-9.15Z" style="fill:#0094e2;"/><path d="m231.95,116.89h1.52v1.3c.36-.45.69-.78.99-.98.51-.35,1.08-.52,1.73-.52.73,0,1.32.18,1.76.54.25.21.48.51.68.91.34-.49.74-.85,1.2-1.09.46-.24.98-.35,1.56-.35,1.23,0,2.07.44,2.51,1.33.24.48.36,1.12.36,1.93v6.09h-1.6v-6.36c0-.61-.15-1.03-.46-1.26-.31-.23-.68-.34-1.12-.34-.6,0-1.12.2-1.56.61-.44.41-.65,1.08-.65,2.03v5.32h-1.56v-5.97c0-.62-.07-1.07-.22-1.36-.23-.43-.67-.64-1.31-.64-.58,0-1.11.23-1.59.68s-.71,1.26-.71,2.44v4.85h-1.54v-9.15Z" style="fill:#0094e2;"/><path d="m255.44,113.29c-.89,1.74-1.48,3.02-1.74,3.84-.4,1.25-.61,2.69-.61,4.32s.23,3.16.69,4.53c.28.84.85,2.06,1.68,3.64h-1.03c-.83-1.3-1.35-2.13-1.55-2.49-.2-.36-.42-.85-.65-1.46-.32-.84-.54-1.74-.67-2.7-.06-.5-.09-.97-.09-1.42,0-1.69.27-3.19.79-4.5.34-.84,1.04-2.09,2.1-3.76h1.07Z" style="fill:#0094e2;"/><path d="m267.09,115.29c.83,1.11,1.25,2.53,1.25,4.26,0,1.88-.48,3.43-1.43,4.67-1.12,1.46-2.71,2.19-4.78,2.19-1.93,0-3.45-.64-4.55-1.91-.99-1.23-1.48-2.79-1.48-4.67,0-1.7.42-3.15,1.26-4.36,1.08-1.55,2.68-2.32,4.8-2.32s3.86.71,4.92,2.14Zm-1.5,8c.67-1.07,1-2.31,1-3.71,0-1.48-.39-2.67-1.16-3.57-.77-.9-1.83-1.35-3.17-1.35s-2.36.45-3.18,1.34-1.23,2.21-1.23,3.95c0,1.39.35,2.56,1.06,3.52s1.84,1.43,3.42,1.43,2.58-.54,3.25-1.61Z" style="fill:#0094e2;"/><path d="m271.72,116.89v6.08c0,.47.07.85.22,1.15.27.55.76.82,1.49.82,1.04,0,1.75-.48,2.13-1.44.21-.51.31-1.22.31-2.11v-4.49h1.54v9.15h-1.45l.02-1.35c-.2.35-.44.64-.73.88-.58.48-1.27.72-2.1.72-1.28,0-2.15-.44-2.62-1.31-.25-.47-.38-1.09-.38-1.87v-6.22h1.57Z" style="fill:#0094e2;"/><path d="m280.03,114.34h1.56v2.55h1.46v1.26h-1.46v5.97c0,.32.11.53.32.64.12.06.32.09.6.09.07,0,.15,0,.24,0s.19-.01.3-.03v1.22c-.18.05-.36.09-.55.11-.19.02-.4.03-.62.03-.72,0-1.21-.18-1.46-.55-.26-.37-.38-.84-.38-1.43v-6.06h-1.24v-1.26h1.24v-2.55Z" style="fill:#0094e2;"/><path d="m284.42,113.45h1.5v4.55c.34-.44.74-.77,1.21-1,.47-.23.98-.35,1.53-.35,1.14,0,2.07.39,2.78,1.17s1.07,1.94,1.07,3.46c0,1.45-.35,2.65-1.05,3.61-.7.96-1.68,1.44-2.93,1.44-.7,0-1.29-.17-1.77-.5-.29-.2-.59-.52-.92-.96v1.17h-1.42v-12.59Zm5.88,10.54c.41-.66.62-1.53.62-2.61,0-.96-.21-1.76-.62-2.39-.41-.63-1.02-.95-1.83-.95-.7,0-1.32.26-1.85.78s-.79,1.37-.79,2.56c0,.86.11,1.56.33,2.09.41,1.01,1.16,1.51,2.27,1.51.83,0,1.46-.33,1.87-.99Z" style="fill:#0094e2;"/><path d="m300.94,117.8c.81.79,1.21,1.94,1.21,3.47s-.36,2.69-1.07,3.65c-.71.96-1.82,1.44-3.32,1.44-1.25,0-2.24-.43-2.98-1.28s-1.1-1.99-1.1-3.43c0-1.54.39-2.76,1.16-3.67.77-.91,1.82-1.37,3.12-1.37,1.17,0,2.16.39,2.97,1.18Zm-.96,6.08c.37-.77.56-1.63.56-2.57,0-.85-.14-1.55-.41-2.08-.43-.84-1.17-1.26-2.21-1.26-.93,0-1.61.36-2.03,1.08s-.63,1.58-.63,2.59.21,1.78.63,2.43,1.09.97,2.01.97c1.01,0,1.7-.38,2.07-1.16Z" style="fill:#0094e2;"/><path d="m305.45,116.89v6.08c0,.47.07.85.22,1.15.27.55.76.82,1.49.82,1.04,0,1.75-.48,2.13-1.44.21-.51.31-1.22.31-2.11v-4.49h1.54v9.15h-1.45l.02-1.35c-.2.35-.44.64-.73.88-.58.48-1.27.72-2.1.72-1.28,0-2.15-.44-2.62-1.31-.25-.47-.38-1.09-.38-1.87v-6.22h1.57Z" style="fill:#0094e2;"/><path d="m313.42,116.89h1.46v1.3c.43-.54.89-.92,1.38-1.15.48-.23,1.02-.35,1.62-.35,1.3,0,2.18.45,2.63,1.36.25.5.38,1.21.38,2.13v5.87h-1.56v-5.77c0-.56-.08-1.01-.25-1.35-.27-.57-.77-.85-1.49-.85-.36,0-.66.04-.9.11-.42.13-.79.38-1.11.75-.26.3-.42.61-.5.94-.08.32-.12.78-.12,1.38v4.79h-1.54v-9.15Z" style="fill:#0094e2;"/><path d="m328.16,117.17c.27.17.58.47.93.9v-4.62h1.48v12.59h-1.38v-1.27c-.36.56-.78.97-1.27,1.22-.49.25-1.05.38-1.68.38-1.02,0-1.9-.43-2.64-1.29-.74-.86-1.12-2-1.12-3.42,0-1.33.34-2.49,1.02-3.46.68-.98,1.65-1.46,2.91-1.46.7,0,1.28.15,1.75.44Zm-3.43,6.86c.41.66,1.08.99,1.99.99.71,0,1.29-.31,1.75-.92.46-.61.68-1.49.68-2.64s-.24-2.01-.71-2.57c-.47-.56-1.05-.83-1.74-.83-.77,0-1.4.3-1.87.89-.48.59-.72,1.46-.72,2.62,0,.98.21,1.8.62,2.46Z" style="fill:#0094e2;"/><path d="m337.93,113.49h1.7v11.06h6.3v1.5h-8v-12.55Z" style="fill:#0094e2;"/><path d="m347.33,113.49h1.56v1.74h-1.56v-1.74Zm0,3.44h1.56v9.11h-1.56v-9.11Z" style="fill:#0094e2;"/><path d="m351.07,116.89h1.46v1.3c.43-.54.89-.92,1.38-1.15.48-.23,1.02-.35,1.62-.35,1.3,0,2.18.45,2.63,1.36.25.5.38,1.21.38,2.13v5.87h-1.56v-5.77c0-.56-.08-1.01-.25-1.35-.27-.57-.77-.85-1.49-.85-.36,0-.66.04-.9.11-.42.13-.79.38-1.11.75-.26.3-.42.61-.5.94-.08.32-.12.78-.12,1.38v4.79h-1.54v-9.15Z" style="fill:#0094e2;"/><path d="m366.35,117.14c.61.3,1.07.7,1.38,1.18.31.46.51,1,.61,1.62.09.42.14,1.09.14,2.02h-6.66c.03.93.25,1.68.65,2.24.41.56,1.04.84,1.89.84.8,0,1.43-.27,1.91-.8.27-.31.45-.67.56-1.07h1.51c-.04.34-.17.71-.4,1.12s-.48.75-.75,1.01c-.46.46-1.04.76-1.72.92-.37.09-.78.14-1.25.14-1.13,0-2.09-.42-2.88-1.24-.79-.83-1.18-1.99-1.18-3.48s.4-2.66,1.19-3.58c.79-.92,1.83-1.38,3.11-1.38.65,0,1.27.15,1.88.46Zm.55,3.59c-.06-.67-.21-1.2-.43-1.6-.42-.74-1.12-1.11-2.09-1.11-.7,0-1.29.25-1.76.76-.47.51-.73,1.16-.75,1.94h5.04Z" style="fill:#0094e2;"/><path d="m368.92,129.62c.91-1.77,1.49-3.05,1.75-3.86.4-1.22.6-2.66.6-4.31s-.23-3.15-.69-4.52c-.29-.84-.85-2.06-1.68-3.64h1.03c.88,1.4,1.41,2.27,1.59,2.59.19.33.39.78.6,1.35.27.71.47,1.42.59,2.11.12.7.17,1.36.17,2.01,0,1.69-.27,3.19-.8,4.51-.34.85-1.03,2.1-2.09,3.75h-1.07Z" style="fill:#0094e2;"/><path d="m381.36,126.11v-12.69l13.74,6.35-13.74,6.34Z" style="fill:#0094e2;"/><path d="m202.32,146.39v12.69l-13.74-6.35,13.74-6.35Z" style="fill:#0094e2;"/><path d="m212.57,146.46h5.62c1.11,0,2.01.31,2.69.94s1.02,1.51,1.02,2.65c0,.98-.3,1.83-.91,2.56-.61.73-1.54,1.09-2.8,1.09h-3.92v5.31h-1.7v-12.55Zm6.6,1.73c-.37-.18-.89-.27-1.54-.27h-3.36v4.35h3.36c.76,0,1.37-.16,1.85-.49.47-.32.71-.9.71-1.72,0-.92-.34-1.55-1.02-1.88Z" style="fill:#0094e2;"/><path d="m223.53,146.46h1.54v12.55h-1.54v-12.55Z" style="fill:#0094e2;"/><path d="m232.13,153.48c.35-.04.59-.19.71-.44.07-.14.1-.33.1-.59,0-.53-.19-.91-.56-1.15-.37-.24-.91-.36-1.6-.36-.8,0-1.37.22-1.71.65-.19.24-.31.6-.37,1.07h-1.44c.03-1.13.39-1.92,1.1-2.36s1.52-.66,2.45-.66c1.08,0,1.95.21,2.62.62.67.41,1,1.05,1,1.91v5.27c0,.16.03.29.1.38s.2.14.41.14c.07,0,.15,0,.23-.01.09,0,.18-.02.27-.04v1.14c-.24.07-.42.11-.55.13-.12.02-.3.03-.51.03-.53,0-.91-.19-1.15-.56-.13-.2-.21-.48-.26-.85-.31.41-.76.77-1.35,1.07-.59.3-1.23.45-1.94.45-.85,0-1.54-.26-2.08-.77-.54-.51-.81-1.16-.81-1.93,0-.85.27-1.5.79-1.97.53-.47,1.23-.75,2.08-.86l2.45-.31Zm-3.24,4.16c.33.26.71.38,1.15.38.54,0,1.06-.12,1.57-.38.85-.42,1.28-1.09,1.28-2.04v-1.24c-.19.12-.43.22-.72.3-.3.08-.59.14-.87.17l-.93.12c-.56.07-.98.19-1.26.35-.48.27-.71.69-.71,1.28,0,.44.16.79.49,1.05Z" style="fill:#0094e2;"/><path d="m236.99,147.31h1.56v2.56h1.46v1.26h-1.46v5.97c0,.32.11.53.32.64.12.06.32.09.6.09.07,0,.15,0,.24,0s.19-.01.3-.03v1.22c-.18.05-.36.09-.55.11-.19.02-.4.03-.62.03-.72,0-1.21-.18-1.46-.55-.26-.37-.38-.84-.38-1.43v-6.06h-1.24v-1.26h1.24v-2.56Z" style="fill:#0094e2;"/><path d="m242.55,147.07c.36-.52,1.05-.79,2.08-.79.1,0,.2,0,.3,0s.22.01.35.03v1.4c-.16-.01-.28-.02-.35-.02-.07,0-.14,0-.2,0-.47,0-.75.12-.85.36-.09.24-.14.86-.14,1.85h1.54v1.21h-1.54v7.9h-1.52v-7.9h-1.27v-1.21h1.27v-1.44c.02-.64.13-1.1.33-1.4Z" style="fill:#0094e2;"/><path d="m253.08,150.78c.81.79,1.21,1.94,1.21,3.47s-.36,2.69-1.07,3.65c-.71.96-1.82,1.44-3.32,1.44-1.25,0-2.24-.42-2.98-1.28-.74-.85-1.1-1.99-1.1-3.43,0-1.54.39-2.76,1.16-3.67.77-.91,1.82-1.37,3.12-1.37,1.17,0,2.16.39,2.97,1.18Zm-.96,6.08c.37-.77.56-1.63.56-2.57,0-.85-.14-1.55-.41-2.08-.43-.84-1.17-1.26-2.21-1.26-.93,0-1.61.36-2.03,1.08s-.63,1.58-.63,2.59.21,1.78.63,2.43,1.09.97,2.01.97c1.01,0,1.7-.39,2.07-1.16Z" style="fill:#0094e2;"/><path d="m256.09,149.86h1.46v1.58c.12-.31.41-.68.88-1.12.47-.44,1.01-.66,1.62-.66.03,0,.08,0,.15,0,.07,0,.18.02.35.03v1.62c-.09-.02-.18-.03-.25-.03-.08,0-.16,0-.25,0-.77,0-1.37.25-1.79.75-.42.5-.62,1.07-.62,1.72v5.26h-1.54v-9.15Z" style="fill:#0094e2;"/><path d="m261.81,149.86h1.52v1.3c.36-.45.69-.78.99-.98.51-.35,1.08-.52,1.73-.52.73,0,1.32.18,1.76.54.25.21.48.51.68.91.34-.49.74-.85,1.2-1.09.46-.24.98-.35,1.56-.35,1.23,0,2.07.44,2.51,1.33.24.48.36,1.12.36,1.93v6.09h-1.6v-6.36c0-.61-.15-1.03-.46-1.26-.31-.23-.68-.34-1.12-.34-.6,0-1.12.2-1.56.61-.44.4-.65,1.08-.65,2.03v5.32h-1.56v-5.97c0-.62-.07-1.07-.22-1.36-.23-.43-.67-.64-1.31-.64-.58,0-1.11.23-1.59.67-.48.45-.71,1.26-.71,2.44v4.85h-1.54v-9.15Z" style="fill:#0094e2;"/><path d="m285.3,146.26c-.89,1.74-1.48,3.02-1.74,3.84-.4,1.25-.61,2.69-.61,4.32s.23,3.16.69,4.53c.28.84.85,2.06,1.68,3.64h-1.03c-.83-1.3-1.35-2.13-1.55-2.49-.2-.36-.42-.85-.65-1.46-.32-.84-.54-1.74-.67-2.7-.06-.5-.09-.97-.09-1.42,0-1.69.27-3.19.79-4.5.34-.84,1.04-2.09,2.1-3.76h1.07Z" style="fill:#0094e2;"/><path d="m287.1,146.46h1.72v12.55h-1.72v-12.55Z" style="fill:#0094e2;"/><path d="m291.22,149.86h1.46v1.3c.43-.54.89-.92,1.38-1.15.48-.23,1.02-.35,1.62-.35,1.3,0,2.18.45,2.63,1.36.25.5.38,1.21.38,2.13v5.87h-1.56v-5.77c0-.56-.08-1.01-.25-1.35-.27-.57-.77-.85-1.49-.85-.36,0-.66.04-.9.11-.42.12-.79.38-1.11.75-.26.3-.42.61-.5.94-.08.32-.12.78-.12,1.38v4.79h-1.54v-9.15Z" style="fill:#0094e2;"/><path d="m300.76,146.42h1.5v4.55c.34-.44.74-.77,1.21-1s.98-.35,1.53-.35c1.14,0,2.07.39,2.78,1.17s1.07,1.94,1.07,3.46c0,1.45-.35,2.65-1.05,3.61-.7.96-1.68,1.44-2.93,1.44-.7,0-1.29-.17-1.77-.5-.29-.2-.59-.52-.92-.96v1.17h-1.42v-12.6Zm5.88,10.54c.41-.66.62-1.53.62-2.61,0-.96-.21-1.76-.62-2.39-.41-.63-1.02-.95-1.83-.95-.7,0-1.32.26-1.85.78-.53.52-.79,1.37-.79,2.56,0,.86.11,1.56.33,2.09.41,1.01,1.16,1.51,2.27,1.51.83,0,1.46-.33,1.87-.99Z" style="fill:#0094e2;"/><path d="m317.28,150.78c.81.79,1.21,1.94,1.21,3.47s-.36,2.69-1.07,3.65c-.71.96-1.82,1.44-3.32,1.44-1.25,0-2.24-.42-2.98-1.28-.74-.85-1.1-1.99-1.1-3.43,0-1.54.39-2.76,1.16-3.67.77-.91,1.82-1.37,3.12-1.37,1.17,0,2.16.39,2.97,1.18Zm-.96,6.08c.37-.77.56-1.63.56-2.57,0-.85-.14-1.55-.41-2.08-.43-.84-1.17-1.26-2.21-1.26-.93,0-1.61.36-2.03,1.08s-.63,1.58-.63,2.59.21,1.78.63,2.43,1.09.97,2.01.97c1.01,0,1.7-.39,2.07-1.16Z" style="fill:#0094e2;"/><path d="m321.79,149.86v6.08c0,.47.07.85.22,1.14.27.55.76.82,1.49.82,1.04,0,1.75-.48,2.13-1.44.21-.51.31-1.22.31-2.11v-4.49h1.54v9.15h-1.45l.02-1.35c-.2.35-.44.64-.73.88-.58.48-1.27.72-2.1.72-1.28,0-2.15-.44-2.62-1.31-.25-.47-.38-1.09-.38-1.87v-6.22h1.57Z" style="fill:#0094e2;"/><path d="m329.76,149.86h1.46v1.3c.43-.54.89-.92,1.38-1.15.48-.23,1.02-.35,1.62-.35,1.3,0,2.18.45,2.63,1.36.25.5.38,1.21.38,2.13v5.87h-1.56v-5.77c0-.56-.08-1.01-.25-1.35-.27-.57-.77-.85-1.49-.85-.36,0-.66.04-.9.11-.42.12-.79.38-1.11.75-.26.3-.42.61-.5.94-.08.32-.12.78-.12,1.38v4.79h-1.54v-9.15Z" style="fill:#0094e2;"/><path d="m344.5,150.15c.27.17.58.47.93.9v-4.62h1.48v12.6h-1.38v-1.27c-.36.56-.78.97-1.27,1.22-.49.25-1.05.38-1.68.38-1.02,0-1.9-.43-2.64-1.29-.74-.86-1.12-2-1.12-3.42,0-1.33.34-2.49,1.02-3.46s1.65-1.47,2.91-1.47c.7,0,1.28.15,1.75.44Zm-3.43,6.86c.41.66,1.08.99,1.99.99.71,0,1.29-.31,1.75-.92.46-.61.68-1.49.68-2.64s-.24-2.01-.71-2.57c-.47-.56-1.05-.83-1.74-.83-.77,0-1.4.3-1.87.89s-.72,1.46-.72,2.62c0,.98.21,1.8.62,2.46Z" style="fill:#0094e2;"/><path d="m354.27,146.46h1.7v11.06h6.3v1.5h-8v-12.55Z" style="fill:#0094e2;"/><path d="m363.67,146.46h1.56v1.74h-1.56v-1.74Zm0,3.44h1.56v9.11h-1.56v-9.11Z" style="fill:#0094e2;"/><path d="m367.41,149.86h1.46v1.3c.43-.54.89-.92,1.38-1.15.48-.23,1.02-.35,1.62-.35,1.3,0,2.18.45,2.63,1.36.25.5.38,1.21.38,2.13v5.87h-1.56v-5.77c0-.56-.08-1.01-.25-1.35-.27-.57-.77-.85-1.49-.85-.36,0-.66.04-.9.11-.42.12-.79.38-1.11.75-.26.3-.42.61-.5.94-.08.32-.12.78-.12,1.38v4.79h-1.54v-9.15Z" style="fill:#0094e2;"/><path d="m382.69,150.12c.61.3,1.07.7,1.38,1.18.31.46.51,1,.61,1.61.09.42.14,1.09.14,2.02h-6.66c.03.93.25,1.68.65,2.24.41.56,1.04.84,1.89.84.8,0,1.43-.27,1.91-.8.27-.31.45-.67.56-1.07h1.51c-.04.34-.17.71-.4,1.12-.23.41-.48.75-.75,1.01-.46.46-1.04.76-1.72.92-.37.09-.78.14-1.25.14-1.13,0-2.09-.41-2.88-1.24-.79-.83-1.18-1.99-1.18-3.48s.4-2.66,1.19-3.58c.79-.92,1.83-1.38,3.11-1.38.65,0,1.27.15,1.88.46Zm.55,3.59c-.06-.67-.21-1.2-.43-1.6-.42-.74-1.12-1.11-2.09-1.11-.7,0-1.29.25-1.76.76-.47.51-.73,1.16-.75,1.94h5.04Z" style="fill:#0094e2;"/><path d="m385.26,162.59c.91-1.77,1.49-3.05,1.75-3.86.4-1.22.6-2.66.6-4.31s-.23-3.15-.69-4.52c-.29-.84-.85-2.06-1.68-3.64h1.03c.88,1.4,1.41,2.27,1.59,2.59.19.33.39.78.6,1.35.27.71.47,1.42.59,2.11.12.7.17,1.36.17,2.01,0,1.69-.27,3.19-.8,4.51-.34.85-1.03,2.1-2.09,3.75h-1.07Z" style="fill:#0094e2;"/><polyline points="15.56 101.09 443.19 101.09 467.14 163.95" style="fill:none; stroke:#39b54a; stroke-dasharray:0 0 6.3 6.3; stroke-miterlimit:10; stroke-width:4.41px;"/><polyline points="15.56 171.6 628.09 171.6 628.09 353.18" style="fill:none; stroke:#39b54a; stroke-dasharray:0 0 6.3 6.3; stroke-miterlimit:10; stroke-width:4.41px;"/><rect x="455.77" y="305.96" width="44.18" height="44.18" rx="3.52" ry="3.52" style="fill:none; stroke:#f04d13; stroke-linecap:round; stroke-linejoin:round; stroke-width:3.52px;"/><rect x="454.72" y="304.91" width="44.18" height="44.18" rx="3.52" ry="3.52" style="fill:#f7931e;"/><rect x="454.72" y="304.91" width="44.18" height="44.18" rx="3.52" ry="3.52" style="fill:none; stroke:#f04d13; stroke-linecap:round; stroke-linejoin:round; stroke-width:1.76px;"/><path d="m481.09,336.27v-1.68h-1.63v-.75h1.63v-.67h-1.63v-.75h1.26l-1.72-2.98h1.72l.73,1.68c.18.42.31.78.44,1.14h.02c.14-.34.27-.74.45-1.15l.75-1.67h1.68l-1.79,2.98h1.25v.75h-1.65v.67h1.65v.75h-1.65v1.68h-1.5Z" style="fill:#fff;"/><path d="m473.24,335.62c-.36,0-.65.29-.65.65s.29.65.65.65.65-.29.65-.65-.29-.65-.65-.65" style="fill:#fff;"/><path d="m473.24,333.18c-.36,0-.65.29-.65.65s.29.65.65.65.65-.29.65-.65-.29-.65-.65-.65" style="fill:#fff;"/><path d="m490.34,325.36h-23.51v14.52h24.69v-14.52h-1.18Zm0,13.34h-16.45c0-.36-.29-.65-.65-.65s-.65.29-.65.65h-4.58v-12.15h4.58c0,.36.29.65.65.65s.65-.29.65-.65h16.45v12.15Z" style="fill:#fff;"/><path d="m473.24,330.75c-.36,0-.65.29-.65.65s.29.65.65.65.65-.29.65-.65-.29-.65-.65-.65" style="fill:#fff;"/><path d="m473.24,328.32c-.36,0-.65.29-.65.65s.29.65.65.65.65-.29.65-.65-.29-.65-.65-.65" style="fill:#fff;"/><polygon points="468.87 323.56 483.33 315.72 487.92 324.18 489.27 324.18 484.37 315.15 483.81 314.12 482.77 314.68 468.31 322.52 468.21 322.58 467.17 323.14 463.14 325.33 462.1 325.89 462.67 326.93 465.65 332.42 465.65 329.94 463.71 326.37 465.65 325.31 468.87 323.56" style="fill:#fff;"/><rect x="511.03" y="268.69" width="79.81" height="67.84" style="fill:#fff; stroke:#545454; stroke-miterlimit:10; stroke-width:.5px;"/><rect x="529.83" y="282.33" width="44.18" height="44.18" rx="3.52" ry="3.52" style="fill:none; stroke:#0094e2; stroke-linecap:round; stroke-linejoin:round; stroke-width:3.52px;"/><rect x="528.78" y="281.27" width="44.18" height="44.18" rx="3.52" ry="3.52" style="fill:#fff;"/><rect x="528.78" y="281.27" width="44.18" height="44.18" rx="3.52" ry="3.52" style="fill:none; stroke:#0094e2; stroke-linecap:round; stroke-linejoin:round; stroke-width:1.76px;"/><polygon points="558.1 293.36 542.29 293.36 538.96 286.6 559.14 289.41 558.1 293.36" style="fill:#0094e2;"/><path d="m541.98,295.34h15.71v4.99c0,2.5-2.08,6.55-7.18,6.55s-7.39-4.37-7.39-5.83v-2.39h-3.95l2.81-3.33Z" style="fill:#0094e2;"/><path d="m569.13,323.53c.52-4.06.1-8.01-1.98-10.19-2.08-2.18-5.83-3.74-11.86-3.74l-4.37,8.43-5.3-8.43s-5.1.52-7.07,1.35c-1.98.83-6.76,5.2-4.99,11.96.12.45.27,1.06.45,1.74h34.97c.05-.38.11-.75.15-1.11Z" style="fill:#0094e2;"/><path d="m512.94,354.31c.04.73.21,1.32.5,1.78.56.85,1.54,1.28,2.95,1.28.63,0,1.2-.09,1.72-.28,1-.36,1.5-1.01,1.5-1.95,0-.7-.21-1.2-.64-1.5-.43-.29-1.1-.55-2.02-.76l-1.69-.39c-1.1-.26-1.89-.54-2.34-.85-.79-.54-1.19-1.34-1.19-2.41,0-1.16.39-2.11,1.17-2.85.78-.74,1.88-1.11,3.31-1.11,1.31,0,2.43.33,3.35.98.92.65,1.38,1.69,1.38,3.12h-1.64c-.08-.69-.26-1.22-.54-1.59-.51-.67-1.38-1.01-2.6-1.01-.99,0-1.7.22-2.13.65s-.65.94-.65,1.51c0,.63.25,1.09.76,1.38.33.19,1.09.42,2.27.7l1.75.41c.84.2,1.5.47,1.95.82.79.6,1.19,1.48,1.19,2.62,0,1.43-.51,2.45-1.52,3.06-1.01.61-2.19.92-3.53.92-1.56,0-2.78-.41-3.67-1.23-.88-.81-1.32-1.91-1.3-3.3h1.64Z" style="fill:gray;"/><path d="m523.68,346.46h1.6v2.62h1.5v1.29h-1.5v6.13c0,.33.11.55.33.66.12.06.33.1.61.1.08,0,.16,0,.25,0,.09,0,.19-.01.31-.03v1.25c-.18.05-.37.09-.57.11-.2.02-.41.04-.64.04-.74,0-1.24-.19-1.5-.57s-.39-.87-.39-1.47v-6.22h-1.27v-1.29h1.27v-2.62Z" style="fill:gray;"/><path d="m533.33,352.79c.36-.05.61-.2.73-.45.07-.14.11-.34.11-.61,0-.54-.19-.93-.57-1.17-.38-.24-.93-.37-1.64-.37-.82,0-1.41.22-1.75.67-.19.25-.32.61-.38,1.1h-1.47c.03-1.16.4-1.97,1.12-2.42s1.56-.68,2.51-.68c1.1,0,2,.21,2.69.63.68.42,1.02,1.08,1.02,1.96v5.41c0,.16.03.29.1.39.07.1.21.15.42.15.07,0,.15,0,.24-.01s.18-.02.28-.04v1.17c-.25.07-.43.11-.56.13-.13.02-.3.03-.53.03-.54,0-.94-.19-1.18-.58-.13-.2-.22-.49-.27-.87-.32.42-.78.79-1.39,1.1-.6.31-1.26.46-1.99.46-.87,0-1.58-.26-2.13-.79-.55-.53-.83-1.19-.83-1.98,0-.87.27-1.54.82-2.02.54-.48,1.26-.77,2.14-.88l2.52-.32Zm-3.32,4.26c.33.26.73.39,1.18.39.55,0,1.09-.13,1.61-.39.88-.43,1.32-1.12,1.32-2.09v-1.27c-.19.12-.44.23-.74.31-.3.08-.6.14-.89.18l-.95.12c-.57.08-1,.2-1.29.36-.49.27-.73.71-.73,1.31,0,.46.17.81.5,1.08Z" style="fill:gray;"/><path d="m538.33,346.46h1.6v2.62h1.5v1.29h-1.5v6.13c0,.33.11.55.33.66.12.06.33.1.61.1.08,0,.16,0,.25,0,.09,0,.19-.01.31-.03v1.25c-.18.05-.37.09-.57.11-.2.02-.41.04-.64.04-.74,0-1.24-.19-1.5-.57s-.39-.87-.39-1.47v-6.22h-1.27v-1.29h1.27v-2.62Z" style="fill:gray;"/><path d="m542.93,345.59h1.6v1.79h-1.6v-1.79Zm0,3.53h1.6v9.34h-1.6v-9.34Z" style="fill:gray;"/><path d="m553.69,350.02c.83.81,1.25,1.99,1.25,3.56s-.37,2.76-1.1,3.75c-.73.99-1.87,1.48-3.4,1.48-1.28,0-2.3-.44-3.06-1.31-.75-.87-1.13-2.04-1.13-3.52,0-1.58.4-2.83,1.19-3.77.79-.93,1.86-1.4,3.2-1.4,1.2,0,2.22.4,3.05,1.21Zm-.98,6.24c.38-.79.58-1.67.58-2.64,0-.88-.14-1.59-.42-2.14-.44-.86-1.2-1.3-2.27-1.3-.95,0-1.65.37-2.08,1.1-.43.74-.65,1.62-.65,2.66s.22,1.83.65,2.5c.43.67,1.12,1,2.06,1,1.03,0,1.74-.4,2.13-1.19Z" style="fill:gray;"/><path d="m556.75,349.08h1.5v1.33c.44-.55.91-.94,1.41-1.18.5-.24,1.05-.36,1.66-.36,1.33,0,2.23.46,2.7,1.39.26.51.39,1.24.39,2.18v6.02h-1.6v-5.92c0-.57-.08-1.04-.25-1.39-.28-.58-.79-.88-1.53-.88-.38,0-.68.04-.92.11-.43.13-.81.39-1.14.77-.26.31-.43.63-.51.96s-.12.8-.12,1.42v4.92h-1.58v-9.39Z" style="fill:gray;"/><path d="m572.42,349.34c.62.31,1.09.72,1.42,1.21.31.47.52,1.03.63,1.66.09.43.14,1.12.14,2.07h-6.83c.03.96.25,1.72.67,2.3.42.58,1.06.87,1.94.87.82,0,1.47-.27,1.96-.82.27-.32.47-.68.58-1.1h1.55c-.04.34-.18.73-.41,1.15-.23.42-.49.77-.77,1.04-.48.47-1.06.78-1.77.95-.38.09-.8.14-1.28.14-1.16,0-2.15-.42-2.95-1.28s-1.21-2.04-1.21-3.57.41-2.73,1.22-3.67c.81-.94,1.88-1.41,3.19-1.41.66,0,1.3.16,1.92.47Zm.57,3.69c-.06-.68-.21-1.23-.44-1.64-.43-.76-1.14-1.14-2.15-1.14-.72,0-1.32.26-1.81.78-.49.52-.75,1.19-.77,1.99h5.17Z" style="fill:gray;"/><path d="m576.48,349.08h1.5v1.62c.12-.32.42-.7.9-1.15.48-.45,1.03-.68,1.66-.68.03,0,.08,0,.15,0,.07,0,.19.02.36.04v1.67c-.09-.02-.18-.03-.26-.04s-.17,0-.26,0c-.79,0-1.41.26-1.83.77-.43.51-.64,1.1-.64,1.77v5.4h-1.58v-9.39Z" style="fill:gray;"/><path d="m588.71,349.08h1.74c-.22.6-.72,1.98-1.48,4.12-.57,1.61-1.05,2.93-1.44,3.95-.91,2.39-1.55,3.85-1.93,4.38-.37.53-1.02.79-1.93.79-.22,0-.39,0-.51-.03s-.27-.05-.44-.1v-1.44c.27.08.47.12.59.14.12.02.23.03.32.03.29,0,.51-.05.64-.14.14-.1.25-.21.35-.35.03-.05.13-.29.31-.72s.31-.75.39-.96l-3.47-9.67h1.79l2.52,7.65,2.53-7.65Z" style="fill:gray;"/><path d="m538.87,365.98c.85,1.14,1.28,2.6,1.28,4.37,0,1.92-.49,3.52-1.46,4.8-1.15,1.5-2.78,2.24-4.9,2.24-1.98,0-3.54-.65-4.67-1.96-1.01-1.26-1.52-2.86-1.52-4.79,0-1.74.43-3.23,1.3-4.47,1.11-1.59,2.75-2.38,4.93-2.38s3.96.73,5.05,2.19Zm-1.54,8.21c.69-1.1,1.03-2.37,1.03-3.8,0-1.52-.4-2.73-1.19-3.66-.79-.92-1.87-1.39-3.25-1.39s-2.42.46-3.26,1.37c-.84.92-1.26,2.26-1.26,4.05,0,1.43.36,2.63,1.08,3.61s1.89,1.47,3.51,1.47,2.65-.55,3.34-1.65Z" style="fill:gray;"/><path d="m542.88,364.76c.37-.54,1.08-.81,2.13-.81.1,0,.2,0,.31,0s.22.01.36.03v1.44c-.17-.01-.29-.02-.36-.02-.07,0-.14,0-.21,0-.48,0-.77.12-.87.37s-.14.88-.14,1.9h1.58v1.24h-1.58v8.1h-1.56v-8.1h-1.31v-1.24h1.31v-1.47c.02-.65.14-1.13.34-1.44Z" style="fill:gray;"/><path d="m548.22,364.76c.37-.54,1.08-.81,2.13-.81.1,0,.2,0,.31,0s.22.01.36.03v1.44c-.17-.01-.29-.02-.36-.02-.07,0-.14,0-.21,0-.48,0-.77.12-.87.37s-.14.88-.14,1.9h1.58v1.24h-1.58v8.1h-1.56v-8.1h-1.31v-1.24h1.31v-1.47c.02-.65.14-1.13.34-1.44Z" style="fill:gray;"/><path d="m552.37,364.14h1.6v1.79h-1.6v-1.79Zm0,3.53h1.6v9.34h-1.6v-9.34Z" style="fill:gray;"/><path d="m562.52,368.13c.66.51,1.06,1.4,1.2,2.66h-1.53c-.09-.58-.31-1.06-.64-1.44s-.87-.57-1.6-.57c-1,0-1.72.49-2.16,1.47-.28.64-.42,1.42-.42,2.36s.2,1.73.6,2.37c.4.64,1.02.96,1.88.96.66,0,1.17-.2,1.56-.6.38-.4.65-.94.79-1.64h1.53c-.17,1.24-.61,2.16-1.31,2.73-.7.58-1.6.86-2.69.86-1.23,0-2.21-.45-2.94-1.35-.73-.9-1.1-2.02-1.1-3.36,0-1.65.4-2.93,1.2-3.85.8-.92,1.82-1.38,3.06-1.38,1.06,0,1.92.26,2.58.77Z" style="fill:gray;"/><path d="m571.17,367.89c.62.31,1.09.72,1.42,1.21.31.47.52,1.03.63,1.66.09.43.14,1.12.14,2.07h-6.83c.03.96.25,1.72.67,2.3.42.58,1.06.87,1.94.87.82,0,1.47-.27,1.96-.82.27-.32.47-.68.58-1.1h1.55c-.04.34-.18.73-.41,1.15-.23.42-.49.77-.77,1.04-.48.47-1.06.78-1.77.95-.38.09-.8.14-1.28.14-1.16,0-2.15-.42-2.95-1.28-.81-.85-1.21-2.04-1.21-3.57s.41-2.73,1.22-3.67c.81-.94,1.88-1.41,3.19-1.41.66,0,1.3.16,1.93.47Zm.57,3.69c-.06-.68-.21-1.23-.44-1.64-.43-.76-1.14-1.14-2.15-1.14-.72,0-1.32.26-1.81.78-.49.52-.74,1.19-.77,1.99h5.17Z" style="fill:gray;"/><path d="m85.42,295.5h1.7v6.3l6.44-6.3h2.44l-5.5,5.2,5.62,7.68h-2.28l-4.61-6.47-2.1,1.98v4.49h-1.7v-12.88Z" style="fill:gray;"/><path d="m97.62,295.5h1.76v12.88h-1.76v-12.88Z" style="fill:gray;"/><path d="m111.37,295.5v1.53h-4.34v11.34h-1.76v-11.34h-4.34v-1.53h10.44Z" style="fill:gray;"/><path d="m112.92,295.5h9.35v1.58h-7.64v3.91h7.07v1.49h-7.07v4.37h7.78v1.53h-9.48v-12.88Z" style="fill:gray;"/><path d="m123.66,302.56h4.4v1.62h-4.4v-1.62Z" style="fill:gray;"/><path d="m139.14,295.87c1.26.67,2.03,1.85,2.32,3.53h-1.73c-.21-.94-.63-1.63-1.28-2.06-.65-.43-1.46-.64-2.45-.64-1.17,0-2.15.45-2.95,1.34s-1.2,2.23-1.2,4c0,1.53.33,2.78.99,3.74.66.96,1.73,1.44,3.22,1.44,1.14,0,2.08-.34,2.83-1.01s1.13-1.77,1.15-3.27h-4.03v-1.45h5.65v6.89h-1.12l-.42-1.66c-.58.65-1.1,1.1-1.54,1.35-.75.43-1.71.65-2.87.65-1.5,0-2.79-.49-3.87-1.48-1.18-1.24-1.77-2.94-1.77-5.1s.58-3.87,1.73-5.15c1.09-1.22,2.51-1.82,4.25-1.82,1.19,0,2.22.23,3.09.7Z" style="fill:gray;"/><path d="m154.88,297.34c.85,1.14,1.28,2.6,1.28,4.37,0,1.92-.49,3.52-1.46,4.8-1.15,1.5-2.78,2.24-4.9,2.24-1.98,0-3.54-.65-4.67-1.96-1.01-1.26-1.52-2.86-1.52-4.79,0-1.74.43-3.23,1.3-4.47,1.11-1.59,2.75-2.38,4.93-2.38s3.96.73,5.05,2.19Zm-1.54,8.21c.69-1.1,1.03-2.37,1.03-3.8,0-1.52-.4-2.73-1.19-3.66-.79-.92-1.87-1.39-3.25-1.39s-2.42.46-3.26,1.37c-.84.92-1.26,2.26-1.26,4.05,0,1.43.36,2.63,1.08,3.61s1.89,1.47,3.51,1.47,2.65-.55,3.34-1.65Z" style="fill:gray;"/><path d="m173.84,297.34c.85,1.14,1.28,2.6,1.28,4.37,0,1.92-.49,3.52-1.46,4.8-1.15,1.5-2.78,2.24-4.9,2.24-1.98,0-3.54-.65-4.67-1.96-1.01-1.26-1.52-2.86-1.52-4.79,0-1.74.43-3.23,1.3-4.47,1.11-1.59,2.75-2.38,4.93-2.38s3.96.73,5.05,2.19Zm-1.54,8.21c.69-1.1,1.03-2.37,1.03-3.8,0-1.52-.4-2.73-1.19-3.66-.79-.92-1.87-1.39-3.25-1.39s-2.42.46-3.26,1.37c-.84.92-1.26,2.26-1.26,4.05,0,1.43.36,2.63,1.08,3.61s1.89,1.47,3.51,1.47,2.65-.55,3.34-1.65Z" style="fill:gray;"/><path d="m177.45,296.36h1.6v2.62h1.5v1.29h-1.5v6.13c0,.33.11.55.33.66.12.06.33.1.61.1.08,0,.16,0,.25,0,.09,0,.19-.01.31-.03v1.25c-.18.05-.37.09-.57.11s-.41.04-.64.04c-.74,0-1.24-.19-1.5-.57-.26-.38-.39-.87-.39-1.47v-6.22h-1.27v-1.29h1.27v-2.62Z" style="fill:gray;"/><path d="m188.7,299.92c.83.81,1.25,1.99,1.25,3.56s-.37,2.76-1.1,3.75c-.73.99-1.87,1.48-3.4,1.48-1.28,0-2.3-.44-3.06-1.31s-1.13-2.04-1.13-3.52c0-1.58.4-2.83,1.19-3.77.79-.93,1.86-1.4,3.2-1.4,1.2,0,2.22.4,3.05,1.21Zm-.98,6.24c.38-.79.58-1.67.58-2.64,0-.88-.14-1.59-.42-2.14-.44-.86-1.2-1.3-2.27-1.3-.95,0-1.65.37-2.08,1.1-.43.74-.65,1.62-.65,2.66s.22,1.83.65,2.5c.43.67,1.12,1,2.06,1,1.03,0,1.74-.4,2.13-1.19Z" style="fill:gray;"/><path d="m192.32,298.99l1.81,7.4,1.83-7.4h1.77l1.84,7.35,1.92-7.35h1.58l-2.73,9.39h-1.64l-1.91-7.27-1.85,7.27h-1.64l-2.71-9.39h1.73Z" style="fill:gray;"/><path d="m209.19,302.69c.36-.05.6-.2.73-.45.07-.14.1-.34.1-.61,0-.54-.19-.93-.57-1.17-.38-.24-.93-.37-1.64-.37-.82,0-1.41.22-1.75.67-.19.25-.32.61-.38,1.1h-1.47c.03-1.16.4-1.97,1.12-2.42s1.56-.68,2.51-.68c1.1,0,2,.21,2.69.63.68.42,1.02,1.08,1.02,1.96v5.41c0,.16.03.29.1.39.07.1.21.15.42.15.07,0,.15,0,.24-.01.09,0,.18-.02.28-.04v1.17c-.25.07-.43.11-.56.13-.13.02-.3.03-.53.03-.54,0-.94-.19-1.18-.58-.13-.2-.22-.49-.27-.87-.32.42-.78.79-1.39,1.1-.6.31-1.27.46-1.99.46-.87,0-1.58-.26-2.13-.79s-.83-1.19-.83-1.98c0-.87.27-1.54.82-2.02s1.26-.77,2.14-.88l2.52-.32Zm-3.32,4.26c.33.26.73.39,1.18.39.56,0,1.09-.13,1.61-.39.88-.43,1.31-1.12,1.31-2.09v-1.27c-.19.12-.44.23-.74.31s-.6.14-.89.18l-.95.12c-.57.08-1,.2-1.29.36-.49.27-.73.71-.73,1.31,0,.46.17.81.5,1.08Z" style="fill:gray;"/><path d="m220.18,299.49c.66.51,1.06,1.4,1.2,2.66h-1.53c-.09-.58-.31-1.06-.64-1.44-.33-.38-.87-.57-1.6-.57-1.01,0-1.72.49-2.16,1.47-.28.64-.42,1.42-.42,2.36s.2,1.73.6,2.37c.4.64,1.02.96,1.88.96.65,0,1.17-.2,1.56-.6.38-.4.65-.94.79-1.64h1.53c-.18,1.24-.61,2.16-1.31,2.73-.7.58-1.6.86-2.69.86-1.23,0-2.21-.45-2.94-1.35-.73-.9-1.1-2.02-1.1-3.36,0-1.65.4-2.93,1.2-3.85.8-.92,1.82-1.38,3.06-1.38,1.06,0,1.92.26,2.58.77Z" style="fill:gray;"/><path d="m222.99,295.45h1.58v4.8c.37-.47.71-.81,1.01-1,.51-.33,1.14-.5,1.9-.5,1.36,0,2.29.48,2.77,1.43.26.52.39,1.24.39,2.17v6.02h-1.62v-5.92c0-.69-.09-1.2-.26-1.52-.29-.51-.82-.77-1.61-.77-.65,0-1.25.22-1.78.67s-.8,1.3-.8,2.55v4.98h-1.58v-12.92Z" style="fill:gray;"/><path d="m239.72,299.92c.83.81,1.25,1.99,1.25,3.56s-.37,2.76-1.1,3.75c-.73.99-1.87,1.48-3.4,1.48-1.28,0-2.3-.44-3.06-1.31s-1.13-2.04-1.13-3.52c0-1.58.4-2.83,1.19-3.77.79-.93,1.86-1.4,3.2-1.4,1.2,0,2.22.4,3.05,1.21Zm-.98,6.24c.38-.79.58-1.67.58-2.64,0-.88-.14-1.59-.42-2.14-.44-.86-1.2-1.3-2.27-1.3-.95,0-1.65.37-2.08,1.1-.43.74-.65,1.62-.65,2.66s.22,1.83.65,2.5c.43.67,1.12,1,2.06,1,1.03,0,1.74-.4,2.13-1.19Z" style="fill:gray;"/><path d="m698.08,275.79h5.57c1.52,0,2.6.45,3.24,1.35.38.53.56,1.15.56,1.84,0,.81-.23,1.48-.69,2-.24.28-.58.53-1.03.75.66.25,1.15.54,1.48.85.58.56.87,1.34.87,2.32,0,.83-.26,1.58-.79,2.25-.78,1-2.03,1.51-3.73,1.51h-5.48v-12.88Zm4.92,5.44c.74,0,1.32-.1,1.74-.31.65-.32.97-.9.97-1.74s-.35-1.41-1.04-1.7c-.39-.16-.97-.25-1.74-.25h-3.15v3.99h3.21Zm.59,5.94c1.08,0,1.85-.31,2.31-.93.29-.39.43-.86.43-1.42,0-.93-.42-1.57-1.27-1.91-.45-.18-1.04-.27-1.78-.27h-3.5v4.53h3.8Z" style="fill:gray;"/><path d="m709.88,275.79h1.6v1.79h-1.6v-1.79Zm0,3.53h1.6v9.34h-1.6v-9.34Z" style="fill:gray;"/><path d="m720.04,279.78c.66.51,1.06,1.4,1.2,2.66h-1.53c-.09-.58-.31-1.06-.64-1.44s-.87-.57-1.6-.57c-1,0-1.72.49-2.16,1.47-.28.64-.42,1.42-.42,2.36s.2,1.73.6,2.37c.4.64,1.02.96,1.88.96.66,0,1.17-.2,1.56-.6.38-.4.65-.94.79-1.64h1.53c-.17,1.24-.61,2.16-1.31,2.73-.7.58-1.6.86-2.69.86-1.23,0-2.21-.45-2.94-1.35-.73-.9-1.1-2.02-1.1-3.36,0-1.65.4-2.93,1.2-3.85.8-.92,1.82-1.38,3.06-1.38,1.06,0,1.92.26,2.58.77Z" style="fill:gray;"/><path d="m728.59,279.28h1.75c-.22.6-.72,1.98-1.48,4.12-.57,1.61-1.05,2.93-1.44,3.95-.91,2.39-1.55,3.85-1.93,4.38-.37.53-1.02.79-1.93.79-.22,0-.39,0-.51-.03-.12-.02-.27-.05-.44-.1v-1.44c.27.08.47.12.59.14.12.02.23.03.32.03.29,0,.51-.05.64-.14.14-.1.25-.21.35-.35.03-.05.13-.29.32-.72s.31-.75.39-.96l-3.47-9.67h1.79l2.52,7.65,2.53-7.65Z" style="fill:gray;"/><path d="m737.57,279.78c.66.51,1.06,1.4,1.2,2.66h-1.53c-.09-.58-.31-1.06-.64-1.44-.33-.38-.87-.57-1.6-.57-1.01,0-1.72.49-2.16,1.47-.28.64-.42,1.42-.42,2.36s.2,1.73.6,2.37c.4.64,1.02.96,1.88.96.65,0,1.17-.2,1.56-.6.38-.4.65-.94.79-1.64h1.53c-.18,1.24-.61,2.16-1.32,2.73-.7.58-1.6.86-2.69.86-1.23,0-2.21-.45-2.94-1.35-.73-.9-1.1-2.02-1.1-3.36,0-1.65.4-2.93,1.2-3.85.8-.92,1.82-1.38,3.06-1.38,1.06,0,1.92.26,2.58.77Z" style="fill:gray;"/><path d="m740.42,275.79h1.58v12.88h-1.58v-12.88Z" style="fill:gray;"/><path d="m750.08,279.54c.62.31,1.09.72,1.42,1.21.31.47.52,1.03.63,1.66.09.43.14,1.12.14,2.07h-6.83c.03.96.25,1.72.67,2.3.42.58,1.06.87,1.94.87.82,0,1.47-.27,1.96-.82.27-.32.47-.68.58-1.1h1.55c-.04.34-.18.73-.41,1.15-.23.42-.49.77-.77,1.04-.48.47-1.06.78-1.77.95-.38.09-.8.14-1.28.14-1.16,0-2.15-.42-2.95-1.28-.81-.85-1.21-2.04-1.21-3.57s.41-2.73,1.22-3.67c.81-.94,1.88-1.41,3.19-1.41.66,0,1.3.16,1.93.47Zm.57,3.69c-.06-.68-.21-1.23-.44-1.64-.43-.76-1.14-1.14-2.15-1.14-.72,0-1.32.26-1.81.78-.49.52-.74,1.19-.77,1.99h5.17Z" style="fill:gray;"/><path d="m696.5,294.34h5.76c1.14,0,2.06.32,2.76.97.7.65,1.05,1.55,1.05,2.72,0,1.01-.31,1.88-.94,2.63-.63.75-1.58,1.12-2.87,1.12h-4.02v5.44h-1.74v-12.88Zm6.77,1.77c-.38-.18-.91-.27-1.58-.27h-3.45v4.46h3.45c.78,0,1.41-.17,1.89-.5.48-.33.73-.92.73-1.76,0-.95-.35-1.59-1.04-1.93Z" style="fill:gray;"/><path d="m712.56,301.53c.36-.05.6-.2.73-.45.07-.14.1-.34.1-.61,0-.54-.19-.93-.57-1.17-.38-.24-.93-.37-1.64-.37-.82,0-1.41.22-1.75.67-.19.25-.32.61-.38,1.1h-1.47c.03-1.16.4-1.97,1.12-2.42s1.56-.68,2.51-.68c1.1,0,2,.21,2.69.63.68.42,1.02,1.08,1.02,1.96v5.41c0,.16.03.29.1.39.07.1.21.15.42.15.07,0,.15,0,.24-.01.09,0,.18-.02.28-.04v1.17c-.25.07-.43.11-.56.13-.13.02-.3.03-.53.03-.54,0-.94-.19-1.18-.58-.13-.2-.22-.49-.27-.87-.32.42-.78.79-1.38,1.1-.6.31-1.27.46-1.99.46-.87,0-1.58-.26-2.13-.79-.55-.53-.83-1.19-.83-1.98,0-.87.27-1.54.82-2.02.54-.48,1.26-.77,2.14-.88l2.52-.32Zm-3.32,4.26c.33.26.73.39,1.18.39.56,0,1.09-.13,1.61-.39.88-.43,1.31-1.12,1.31-2.09v-1.27c-.19.12-.44.23-.74.31-.3.08-.6.14-.89.18l-.95.12c-.57.08-1,.2-1.29.36-.49.27-.73.71-.73,1.31,0,.46.17.81.5,1.08Z" style="fill:gray;"/><path d="m717.42,297.83h1.5v1.62c.12-.32.42-.7.9-1.15.48-.45,1.03-.68,1.66-.68.03,0,.08,0,.15,0s.19.02.36.04v1.67c-.09-.02-.18-.03-.26-.04-.08,0-.17,0-.26,0-.79,0-1.41.26-1.83.77-.43.51-.64,1.1-.64,1.77v5.4h-1.58v-9.39Z" style="fill:gray;"/><path d="m723.27,294.34h1.52v7.48l4.05-3.99h2.02l-3.61,3.49,3.81,5.9h-2.02l-2.95-4.78-1.3,1.25v3.52h-1.52v-12.88Z" style="fill:gray;"/><path d="m732.28,294.34h1.6v1.79h-1.6v-1.79Zm0,3.53h1.6v9.34h-1.6v-9.34Z" style="fill:gray;"/><path d="m736.12,297.83h1.5v1.33c.44-.55.92-.94,1.41-1.18.5-.24,1.05-.36,1.66-.36,1.33,0,2.23.46,2.7,1.39.26.51.39,1.24.39,2.18v6.02h-1.6v-5.92c0-.57-.08-1.04-.25-1.39-.28-.58-.79-.88-1.53-.88-.37,0-.68.04-.92.11-.43.13-.81.39-1.14.77-.26.31-.43.63-.51.96s-.12.8-.12,1.42v4.92h-1.58v-9.39Z" style="fill:gray;"/><path d="m751.29,298.2c.3.2.6.5.91.89v-1.18h1.46v8.54c0,1.19-.17,2.13-.52,2.82-.65,1.27-1.88,1.91-3.7,1.91-1.01,0-1.86-.23-2.54-.68s-1.07-1.16-1.15-2.13h1.6c.08.42.23.75.45.97.35.35.91.53,1.67.53,1.2,0,1.99-.43,2.36-1.28.22-.5.32-1.4.31-2.69-.31.48-.69.84-1.14,1.07-.44.23-1.03.35-1.75.35-1.01,0-1.9-.36-2.66-1.08s-1.14-1.92-1.14-3.58c0-1.57.38-2.8,1.15-3.68.77-.88,1.69-1.32,2.77-1.32.73,0,1.37.18,1.92.54Zm.19,1.69c-.48-.56-1.08-.84-1.82-.84-1.11,0-1.86.52-2.27,1.56-.22.56-.32,1.28-.32,2.18,0,1.06.21,1.86.64,2.42.43.55,1,.83,1.72.83,1.13,0,1.92-.51,2.38-1.53.26-.58.38-1.25.38-2.03,0-1.16-.24-2.02-.72-2.59Z" style="fill:gray;"/><path d="m391.54,308.69v1.53h-4.34v11.34h-1.76v-11.34h-4.34v-1.53h10.44Z" style="fill:gray;"/><path d="m392.88,308.69h1.6v1.79h-1.6v-1.79Zm0,3.53h1.6v9.34h-1.6v-9.34Z" style="fill:gray;"/><path d="m403.04,312.67c.66.51,1.06,1.4,1.2,2.66h-1.53c-.09-.58-.31-1.06-.64-1.44-.33-.38-.87-.57-1.6-.57-1.01,0-1.72.49-2.16,1.47-.28.64-.42,1.42-.42,2.36s.2,1.73.6,2.37c.4.64,1.02.96,1.88.96.65,0,1.17-.2,1.56-.6.38-.4.65-.94.79-1.64h1.53c-.18,1.24-.61,2.16-1.31,2.73-.7.58-1.6.86-2.69.86-1.23,0-2.21-.45-2.94-1.35-.73-.9-1.1-2.02-1.1-3.36,0-1.65.4-2.93,1.2-3.85.8-.92,1.82-1.38,3.06-1.38,1.06,0,1.92.26,2.58.77Z" style="fill:gray;"/><path d="m405.82,308.69h1.52v7.48l4.05-3.99h2.02l-3.61,3.49,3.81,5.9h-2.02l-2.95-4.78-1.3,1.25v3.52h-1.52v-12.88Z" style="fill:gray;"/><path d="m420.17,312.43c.62.31,1.09.72,1.42,1.21.31.47.52,1.03.63,1.66.09.43.14,1.12.14,2.07h-6.83c.03.96.25,1.72.67,2.3s1.06.87,1.94.87c.82,0,1.47-.27,1.96-.82.27-.32.47-.68.58-1.1h1.55c-.04.34-.18.73-.41,1.15s-.49.77-.77,1.04c-.48.47-1.06.78-1.77.95-.38.09-.8.14-1.28.14-1.16,0-2.15-.42-2.95-1.28-.81-.85-1.21-2.04-1.21-3.57s.41-2.73,1.22-3.67c.81-.94,1.88-1.41,3.19-1.41.66,0,1.3.16,1.93.47Zm.57,3.69c-.06-.68-.21-1.23-.44-1.64-.43-.76-1.14-1.14-2.15-1.14-.72,0-1.32.26-1.81.78s-.74,1.19-.77,1.99h5.17Z" style="fill:gray;"/><path d="m424.38,309.55h1.6v2.62h1.5v1.29h-1.5v6.13c0,.33.11.55.33.66.12.06.33.1.61.1.08,0,.16,0,.25,0,.09,0,.19-.01.31-.03v1.25c-.18.05-.37.09-.57.11s-.41.04-.64.04c-.74,0-1.24-.19-1.5-.57-.26-.38-.39-.87-.39-1.47v-6.22h-1.27v-1.29h1.27v-2.62Z" style="fill:gray;"/><path d="m374.55,327.23l3.7,10.97,3.66-10.97h1.96l-4.7,12.88h-1.85l-4.69-12.88h1.93Z" style="fill:gray;"/><path d="m390.06,330.98c.62.31,1.09.72,1.42,1.21.31.47.52,1.03.63,1.66.09.43.14,1.12.14,2.07h-6.83c.03.96.25,1.72.67,2.3s1.06.87,1.94.87c.82,0,1.47-.27,1.96-.82.27-.32.47-.68.58-1.1h1.55c-.04.34-.18.73-.41,1.15s-.49.77-.77,1.04c-.48.47-1.06.78-1.77.95-.38.09-.8.14-1.28.14-1.16,0-2.15-.42-2.95-1.28-.81-.85-1.21-2.04-1.21-3.57s.41-2.73,1.22-3.67c.81-.94,1.88-1.41,3.19-1.41.66,0,1.3.16,1.93.47Zm.57,3.69c-.06-.68-.21-1.23-.44-1.64-.43-.76-1.14-1.14-2.15-1.14-.72,0-1.32.26-1.81.78s-.74,1.19-.77,1.99h5.17Z" style="fill:gray;"/><path d="m394.1,330.72h1.5v1.33c.44-.55.91-.94,1.41-1.18.5-.24,1.05-.36,1.66-.36,1.33,0,2.23.46,2.7,1.39.26.51.39,1.24.39,2.18v6.02h-1.6v-5.92c0-.57-.08-1.04-.25-1.39-.28-.58-.79-.88-1.53-.88-.37,0-.68.04-.92.11-.43.13-.81.39-1.14.77-.26.31-.43.63-.51.96s-.12.8-.12,1.42v4.92h-1.58v-9.39Z" style="fill:gray;"/><path d="m409.23,331.01c.28.17.6.48.95.92v-4.74h1.52v12.92h-1.42v-1.31c-.37.58-.8,1-1.3,1.25-.5.26-1.07.39-1.72.39-1.04,0-1.94-.44-2.71-1.32s-1.14-2.05-1.14-3.51c0-1.37.35-2.55,1.04-3.55.7-1,1.69-1.5,2.98-1.5.72,0,1.32.15,1.8.46Zm-3.52,7.04c.42.68,1.1,1.02,2.04,1.02.73,0,1.32-.31,1.79-.94.47-.63.7-1.53.7-2.71s-.24-2.06-.72-2.63c-.48-.57-1.08-.86-1.79-.86-.79,0-1.43.3-1.92.91-.49.61-.74,1.5-.74,2.68,0,1,.21,1.85.64,2.52Z" style="fill:gray;"/><path d="m413.92,327.23h1.6v1.79h-1.6v-1.79Zm0,3.53h1.6v9.34h-1.6v-9.34Z" style="fill:gray;"/><path d="m417.77,330.72h1.5v1.33c.44-.55.91-.94,1.41-1.18.5-.24,1.05-.36,1.66-.36,1.33,0,2.23.46,2.7,1.39.26.51.39,1.24.39,2.18v6.02h-1.6v-5.92c0-.57-.08-1.04-.25-1.39-.28-.58-.79-.88-1.53-.88-.37,0-.68.04-.92.11-.43.13-.81.39-1.14.77-.26.31-.43.63-.51.96s-.12.8-.12,1.42v4.92h-1.58v-9.39Z" style="fill:gray;"/><path d="m432.94,331.1c.3.2.6.5.91.89v-1.18h1.46v8.54c0,1.19-.17,2.13-.52,2.82-.65,1.27-1.88,1.91-3.7,1.91-1.01,0-1.86-.23-2.54-.68-.69-.45-1.07-1.16-1.15-2.13h1.6c.08.42.23.75.45.97.35.35.91.53,1.67.53,1.2,0,1.99-.43,2.36-1.28.22-.5.32-1.4.31-2.69-.31.48-.69.84-1.14,1.07-.44.23-1.03.35-1.75.35-1.01,0-1.9-.36-2.66-1.08s-1.14-1.92-1.14-3.58c0-1.57.38-2.8,1.15-3.68.77-.88,1.69-1.32,2.77-1.32.73,0,1.37.18,1.92.54Zm.19,1.69c-.48-.56-1.08-.84-1.82-.84-1.1,0-1.86.52-2.27,1.56-.22.56-.32,1.28-.32,2.18,0,1.06.21,1.86.64,2.42.43.55,1,.83,1.72.83,1.13,0,1.92-.51,2.38-1.53.26-.58.38-1.25.38-2.03,0-1.16-.24-2.02-.72-2.59Z" style="fill:gray;"/><path d="m372.05,345.78h2.5l3.7,10.89,3.68-10.89h2.48v12.88h-1.67v-7.6c0-.26,0-.7.02-1.31.01-.61.02-1.26.02-1.96l-3.68,10.86h-1.73l-3.71-10.86v.39c0,.32,0,.8.03,1.44.02.65.03,1.12.03,1.42v7.6h-1.67v-12.88Z" style="fill:gray;"/><path d="m391.78,352.98c.36-.05.6-.2.73-.45.07-.14.1-.34.1-.61,0-.54-.19-.93-.57-1.17-.38-.24-.93-.37-1.64-.37-.82,0-1.41.22-1.75.67-.19.25-.32.61-.38,1.1h-1.47c.03-1.16.4-1.97,1.12-2.42s1.56-.68,2.51-.68c1.1,0,2,.21,2.69.63.68.42,1.02,1.08,1.02,1.96v5.41c0,.16.03.29.1.39.07.1.21.15.42.15.07,0,.15,0,.24-.01.09,0,.18-.02.28-.04v1.17c-.25.07-.43.11-.56.13-.13.02-.3.03-.53.03-.54,0-.94-.19-1.18-.58-.13-.2-.22-.49-.27-.87-.32.42-.78.79-1.39,1.1-.6.31-1.27.46-1.99.46-.87,0-1.58-.26-2.13-.79s-.83-1.19-.83-1.98c0-.87.27-1.54.82-2.02s1.26-.77,2.14-.88l2.52-.32Zm-3.32,4.26c.33.26.73.39,1.18.39.56,0,1.09-.13,1.61-.39.88-.43,1.31-1.12,1.31-2.09v-1.27c-.19.12-.44.23-.74.31s-.6.14-.89.18l-.95.12c-.57.08-1,.2-1.29.36-.49.27-.73.71-.73,1.31,0,.46.17.81.5,1.08Z" style="fill:gray;"/><path d="m402.78,349.77c.66.51,1.06,1.4,1.2,2.66h-1.53c-.09-.58-.31-1.06-.64-1.44-.33-.38-.87-.57-1.6-.57-1.01,0-1.72.49-2.16,1.47-.28.64-.42,1.42-.42,2.36s.2,1.73.6,2.37c.4.64,1.02.96,1.88.96.65,0,1.17-.2,1.56-.6.38-.4.65-.94.79-1.64h1.53c-.18,1.24-.61,2.16-1.31,2.73-.7.58-1.6.86-2.69.86-1.23,0-2.21-.45-2.94-1.35-.73-.9-1.1-2.02-1.1-3.36,0-1.65.4-2.93,1.2-3.85.8-.92,1.82-1.38,3.06-1.38,1.06,0,1.92.26,2.58.77Z" style="fill:gray;"/><path d="m405.58,345.74h1.58v4.8c.37-.47.71-.81,1.01-1,.51-.33,1.14-.5,1.9-.5,1.36,0,2.29.48,2.77,1.43.26.52.39,1.24.39,2.17v6.02h-1.62v-5.92c0-.69-.09-1.2-.26-1.52-.29-.51-.82-.77-1.61-.77-.65,0-1.25.22-1.78.67s-.8,1.3-.8,2.55v4.98h-1.58v-12.92Z" style="fill:gray;"/><path d="m415.44,345.78h1.6v1.79h-1.6v-1.79Zm0,3.53h1.6v9.34h-1.6v-9.34Z" style="fill:gray;"/><path d="m419.28,349.27h1.5v1.33c.44-.55.91-.94,1.41-1.18.5-.24,1.05-.36,1.66-.36,1.33,0,2.23.46,2.7,1.39.26.51.39,1.24.39,2.18v6.02h-1.6v-5.92c0-.57-.08-1.04-.25-1.39-.28-.58-.79-.88-1.53-.88-.37,0-.68.04-.92.11-.43.13-.81.39-1.14.77-.26.31-.43.63-.51.96s-.12.8-.12,1.42v4.92h-1.58v-9.39Z" style="fill:gray;"/><path d="m434.96,349.53c.62.31,1.09.72,1.42,1.21.31.47.52,1.03.63,1.66.09.43.14,1.12.14,2.07h-6.83c.03.96.25,1.72.67,2.3s1.06.87,1.94.87c.82,0,1.47-.27,1.96-.82.27-.32.47-.68.58-1.1h1.55c-.04.34-.18.73-.41,1.15s-.49.77-.77,1.04c-.48.47-1.06.78-1.77.95-.38.09-.8.14-1.28.14-1.16,0-2.15-.42-2.95-1.28-.81-.85-1.21-2.04-1.21-3.57s.41-2.73,1.22-3.67c.81-.94,1.88-1.41,3.19-1.41.66,0,1.3.16,1.93.47Zm.57,3.69c-.06-.68-.21-1.23-.44-1.64-.43-.76-1.14-1.14-2.15-1.14-.72,0-1.32.26-1.81.78s-.74,1.19-.77,1.99h5.17Z" style="fill:gray;"/><path d="m361.94,262.05h5.85c.96,0,1.76.14,2.38.43,1.19.55,1.78,1.56,1.78,3.04,0,.77-.16,1.4-.48,1.89-.32.49-.76.88-1.34,1.18.5.2.88.47,1.14.81.25.33.4.87.43,1.62l.06,1.73c.02.49.06.86.12,1.1.1.41.29.67.56.79v.29h-2.14c-.06-.11-.11-.25-.14-.43-.04-.17-.06-.51-.09-1.02l-.1-2.15c-.04-.84-.34-1.41-.91-1.69-.32-.16-.83-.24-1.52-.24h-3.86v5.52h-1.74v-12.88Zm5.67,5.9c.8,0,1.43-.16,1.89-.49.46-.33.69-.92.69-1.77,0-.92-.32-1.54-.97-1.88-.35-.17-.81-.26-1.39-.26h-4.14v4.4h3.92Z" style="fill:gray;"/><path d="m380.05,265.8c.62.31,1.09.72,1.42,1.21.31.47.52,1.03.63,1.66.09.43.14,1.12.14,2.07h-6.83c.03.96.25,1.72.67,2.3s1.06.87,1.94.87c.82,0,1.47-.27,1.96-.82.27-.32.47-.68.58-1.1h1.55c-.04.34-.18.73-.41,1.15s-.49.77-.77,1.04c-.48.47-1.06.78-1.77.95-.38.09-.8.14-1.28.14-1.16,0-2.15-.42-2.95-1.28-.81-.85-1.21-2.04-1.21-3.57s.41-2.73,1.22-3.67c.81-.94,1.88-1.41,3.19-1.41.66,0,1.3.16,1.93.47Zm.57,3.69c-.06-.68-.21-1.23-.44-1.64-.43-.76-1.14-1.14-2.15-1.14-.72,0-1.32.26-1.81.78s-.74,1.19-.77,1.99h5.17Z" style="fill:gray;"/><path d="m385,271.98c.05.53.18.93.4,1.21.41.51,1.11.76,2.11.76.6,0,1.12-.13,1.57-.38.45-.25.68-.65.68-1.18,0-.4-.18-.71-.54-.92-.23-.13-.69-.28-1.37-.45l-1.27-.32c-.81-.2-1.41-.42-1.8-.67-.69-.43-1.03-1.02-1.03-1.77,0-.89.32-1.61.97-2.16.65-.55,1.52-.82,2.62-.82,1.43,0,2.47.42,3.1,1.25.4.53.59,1.09.58,1.7h-1.49c-.03-.35-.16-.68-.39-.97-.37-.41-1.01-.62-1.93-.62-.61,0-1.07.11-1.39.34-.31.23-.47.53-.47.9,0,.41.21.73.62.98.24.15.59.27,1.05.38l1.06.25c1.15.28,1.93.54,2.32.8.61.4.92,1.04.92,1.9s-.32,1.56-.96,2.17c-.64.61-1.62.91-2.93.91-1.41,0-2.42-.32-3-.95s-.9-1.42-.95-2.35h1.52Z" style="fill:gray;"/><path d="m393.3,262.92h1.6v2.62h1.5v1.29h-1.5v6.13c0,.33.11.55.33.66.12.06.33.1.61.1.08,0,.16,0,.25,0,.09,0,.19-.01.31-.03v1.25c-.18.05-.37.09-.57.11s-.41.04-.64.04c-.74,0-1.24-.19-1.5-.57-.26-.38-.39-.87-.39-1.47v-6.22h-1.27v-1.29h1.27v-2.62Z" style="fill:gray;"/><path d="m397.9,265.54h1.5v1.62c.12-.32.42-.7.9-1.15s1.03-.68,1.66-.68c.03,0,.08,0,.15,0,.07,0,.19.02.36.04v1.67c-.09-.02-.18-.03-.26-.04-.08,0-.17,0-.26,0-.79,0-1.41.26-1.83.77-.43.51-.64,1.1-.64,1.77v5.4h-1.58v-9.39Z" style="fill:gray;"/><path d="m410.54,266.48c.83.81,1.25,1.99,1.25,3.56s-.37,2.76-1.1,3.75c-.73.99-1.87,1.48-3.4,1.48-1.28,0-2.3-.44-3.06-1.31s-1.13-2.04-1.13-3.52c0-1.58.4-2.83,1.19-3.77.79-.93,1.86-1.4,3.2-1.4,1.2,0,2.22.4,3.05,1.21Zm-.98,6.24c.38-.79.58-1.67.58-2.64,0-.88-.14-1.59-.42-2.14-.44-.86-1.2-1.3-2.27-1.3-.95,0-1.65.37-2.08,1.1-.43.74-.65,1.62-.65,2.66s.22,1.83.65,2.5c.43.67,1.12,1,2.06,1,1.03,0,1.74-.4,2.13-1.19Z" style="fill:gray;"/><path d="m420.5,266.48c.83.81,1.25,1.99,1.25,3.56s-.37,2.76-1.1,3.75c-.73.99-1.87,1.48-3.4,1.48-1.28,0-2.3-.44-3.06-1.31s-1.13-2.04-1.13-3.52c0-1.58.4-2.83,1.19-3.77.79-.93,1.86-1.4,3.2-1.4,1.2,0,2.22.4,3.05,1.21Zm-.98,6.24c.38-.79.58-1.67.58-2.64,0-.88-.14-1.59-.42-2.14-.44-.86-1.2-1.3-2.27-1.3-.95,0-1.65.37-2.08,1.1-.43.74-.65,1.62-.65,2.66s.22,1.83.65,2.5c.43.67,1.12,1,2.06,1,1.03,0,1.74-.4,2.13-1.19Z" style="fill:gray;"/><path d="m423.55,265.54h1.56v1.33c.37-.46.71-.8,1.02-1.01.52-.36,1.11-.54,1.77-.54.75,0,1.35.18,1.81.55.26.21.49.52.7.93.35-.5.76-.88,1.24-1.12.47-.24,1.01-.36,1.6-.36,1.26,0,2.12.46,2.58,1.37.25.49.37,1.15.37,1.98v6.25h-1.64v-6.52c0-.62-.16-1.05-.47-1.29-.31-.23-.69-.35-1.14-.35-.62,0-1.15.21-1.6.62s-.67,1.11-.67,2.08v5.46h-1.6v-6.13c0-.64-.08-1.1-.23-1.39-.24-.44-.69-.66-1.34-.66-.6,0-1.14.23-1.63.69-.49.46-.73,1.3-.73,2.51v4.98h-1.58v-9.39Z" style="fill:gray;"/></g></svg>