<?xml version="1.0" encoding="UTF-8"?><svg id="_レイヤー_2" xmlns="http://www.w3.org/2000/svg" width="997.66" height="506.71" viewBox="0 0 997.66 506.71"><g id="_レイヤー_2-2"><polygon points="286.31 479.08 286.31 445.16 286.31 422.22 209.17 422.22 209.17 479.08 286.31 479.08" style="fill:#fff; stroke:#545454; stroke-miterlimit:10; stroke-width:.45px;"/><polygon points="209.17 479.08 209.17 445.16 209.17 422.22 161.82 422.22 161.82 479.08 209.17 479.08" style="fill:#e6e6e6; stroke:#545454; stroke-miterlimit:10; stroke-width:.5px;"/><polygon points="368.13 383.32 368.13 248.68 953.74 248.68 953.74 146.92 339.21 146.92 339.21 123.97 149.67 123.97 149.67 248.68 316.26 248.68 316.26 383.32 291.31 383.32 291.31 484.08 985.66 484.08 985.66 383.32 368.13 383.32" style="fill:#f2f2f2;"/><polygon points="996.51 265.77 979.8 256.12 979.8 262 960.28 262 960.28 269.54 979.8 269.54 979.8 275.42 996.51 265.77" style="fill:gray;"/><polygon points="380.89 354.89 397.6 345.24 397.6 351.12 417.12 351.12 417.12 358.66 397.6 358.66 397.6 364.54 380.89 354.89" style="fill:gray;"/><rect x="95.03" width="49.64" height="498.08" style="fill:#e6e6e6;"/><line y1="243.7" x2="95.03" y2="243.7" style="fill:none; stroke:#545454; stroke-miterlimit:10; stroke-width:.56px;"/><line y1="329.45" x2="997.66" y2="329.45" style="fill:none; stroke:#4d4948; stroke-miterlimit:10; stroke-width:7.56px;"/><line y1="329.45" x2="997.66" y2="329.45" style="fill:none; stroke:#fff; stroke-miterlimit:10; stroke-width:5.04px;"/><line y1="329.45" x2="997.66" y2="329.45" style="fill:none; stroke:#4d4948; stroke-dasharray:0 0 25.2 25.2; stroke-miterlimit:10; stroke-width:5.04px;"/><line y1="291.56" x2="997.66" y2="291.56" style="fill:none; stroke:#4d4948; stroke-miterlimit:10; stroke-width:7.56px;"/><line y1="291.56" x2="997.66" y2="291.56" style="fill:none; stroke:#fff; stroke-miterlimit:10; stroke-width:5.04px;"/><line y1="291.56" x2="997.66" y2="291.56" style="fill:none; stroke:#4d4948; stroke-dasharray:0 0 25.2 25.2; stroke-miterlimit:10; stroke-width:5.04px;"/><line y1="377.35" x2="95.03" y2="377.35" style="fill:none; stroke:#545454; stroke-miterlimit:10; stroke-width:.56px;"/><polygon points="209.83 175.84 209.83 118.97 144.67 118.97 144.67 243.68 238.43 243.68 238.43 175.84 209.83 175.84" style="fill:#e6e6e6;"/><polygon points="363.13 378.32 363.13 243.68 446.04 243.68 446.04 141.92 334.21 141.92 334.21 175.84 240.43 175.84 240.43 181.82 240.43 175.84 238.43 175.84 238.43 243.68 311.26 243.68 311.26 378.32 286.31 378.32 286.31 479.08 446.04 479.08 446.04 378.32 363.13 378.32" style="fill:#e3f2f7;"/><rect x="446.04" y="141.92" width="502.7" height="101.76" style="fill:#dbf1de;"/><rect x="446.04" y="378.32" width="534.63" height="100.76" style="fill:#dbf1de;"/><rect x="209.83" y="118.97" width="30.59" height="56.86" style="fill:#e6e6e6; stroke:#545454; stroke-miterlimit:10; stroke-width:.5px;"/><polyline points="363.13 378.32 980.66 378.32 980.66 479.08 286.31 479.08" style="fill:none; stroke:#545454; stroke-miterlimit:10; stroke-width:.56px;"/><polyline points="311.26 378.32 286.31 378.32 286.31 479.08 144.67 479.08" style="fill:none; stroke:#545454; stroke-miterlimit:10; stroke-width:.56px;"/><polyline points="144.67 232.37 144.67 243.68 311.26 243.68" style="fill:none; stroke:#545454; stroke-miterlimit:10; stroke-width:.56px;"/><polyline points="363.13 243.68 948.74 243.68 948.74 141.92 334.21 141.92 334.21 118.97 240.43 118.97 209.83 118.97 144.67 118.97 144.67 128.62" style="fill:none; stroke:#545454; stroke-miterlimit:10; stroke-width:.56px;"/><polyline points="311.26 243.68 311.26 304.86 311.26 378.32" style="fill:none; stroke:#545454; stroke-dasharray:0 0 3 3; stroke-miterlimit:10; stroke-width:.56px;"/><polyline points="363.13 378.32 363.13 301.54 363.13 243.68" style="fill:none; stroke:#545454; stroke-dasharray:0 0 3 3; stroke-miterlimit:10; stroke-width:.56px;"/><rect x="245.32" y="324.57" width="14.33" height="45.73" transform="translate(599.92 94.95) rotate(90)" style="fill:#ffffc8; stroke:#545454; stroke-miterlimit:10; stroke-width:.5px;"/><rect x="245.32" y="350.79" width="14.33" height="45.73" transform="translate(626.14 121.17) rotate(90)" style="fill:#ffffc8; stroke:#545454; stroke-miterlimit:10; stroke-width:.5px;"/><rect x="385.73" y="175.16" width="12.06" height="68.81" style="fill:#fff; stroke:#545454; stroke-miterlimit:10; stroke-width:.5px;"/><rect x="373.67" y="175.16" width="12.06" height="68.81" style="fill:#fff; stroke:#545454; stroke-miterlimit:10; stroke-width:.5px;"/><rect x="421.91" y="175.16" width="12.06" height="68.81" style="fill:#fff; stroke:#545454; stroke-miterlimit:10; stroke-width:.5px;"/><rect x="397.79" y="175.16" width="12.06" height="68.81" style="fill:#fff; stroke:#545454; stroke-miterlimit:10; stroke-width:.5px;"/><rect x="433.98" y="175.16" width="12.06" height="68.81" style="fill:#fff; stroke:#545454; stroke-miterlimit:10; stroke-width:.5px;"/><rect x="409.85" y="175.16" width="12.06" height="68.81" style="fill:#fff; stroke:#545454; stroke-miterlimit:10; stroke-width:.5px;"/><rect x="373.67" y="175.16" width="72.36" height="9.03" style="fill:#545454; stroke:#545454; stroke-miterlimit:10; stroke-width:.5px;"/><rect x="373.67" y="234.93" width="72.36" height="9.03" style="fill:#545454; stroke:#545454; stroke-miterlimit:10; stroke-width:.5px;"/><rect x="385.73" y="378.81" width="12.06" height="68.81" style="fill:#fff; stroke:#545454; stroke-miterlimit:10; stroke-width:.5px;"/><rect x="373.67" y="378.81" width="12.06" height="68.81" style="fill:#fff; stroke:#545454; stroke-miterlimit:10; stroke-width:.5px;"/><rect x="421.91" y="378.81" width="12.06" height="68.81" style="fill:#fff; stroke:#545454; stroke-miterlimit:10; stroke-width:.5px;"/><rect x="397.79" y="378.81" width="12.06" height="68.81" style="fill:#fff; stroke:#545454; stroke-miterlimit:10; stroke-width:.5px;"/><rect x="433.98" y="378.81" width="12.06" height="68.81" style="fill:#fff; stroke:#545454; stroke-miterlimit:10; stroke-width:.5px;"/><rect x="409.85" y="378.81" width="12.06" height="68.81" style="fill:#fff; stroke:#545454; stroke-miterlimit:10; stroke-width:.5px;"/><rect x="373.67" y="378.81" width="72.36" height="9.03" style="fill:#545454; stroke:#545454; stroke-miterlimit:10; stroke-width:.5px;"/><rect x="373.67" y="438.59" width="72.36" height="9.03" style="fill:#545454; stroke:#545454; stroke-miterlimit:10; stroke-width:.5px;"/><rect x="150.64" y="429.09" width="44.18" height="44.18" rx="3.52" ry="3.52" style="fill:none; stroke:#f04d13; stroke-linecap:round; stroke-linejoin:round; stroke-width:3.52px;"/><rect x="149.59" y="428.03" width="44.18" height="44.18" rx="3.52" ry="3.52" style="fill:#f7931e;"/><rect x="149.59" y="428.03" width="44.18" height="44.18" rx="3.52" ry="3.52" style="fill:none; stroke:#f04d13; stroke-linecap:round; stroke-linejoin:round; stroke-width:1.76px;"/><path d="m175.96,459.39v-1.68h-1.63v-.75h1.63v-.67h-1.63v-.75h1.26l-1.72-2.98h1.72l.73,1.68c.18.42.31.78.44,1.14h.02c.14-.34.27-.74.45-1.15l.75-1.67h1.68l-1.79,2.98h1.25v.75h-1.65v.67h1.65v.75h-1.65v1.68h-1.5Z" style="fill:#fff;"/><path d="m168.11,458.74c-.36,0-.65.29-.65.65s.29.65.65.65.65-.29.65-.65-.29-.65-.65-.65" style="fill:#fff;"/><path d="m168.11,456.31c-.36,0-.65.29-.65.65s.29.65.65.65.65-.29.65-.65-.29-.65-.65-.65" style="fill:#fff;"/><path d="m185.21,448.49h-23.51v14.52h24.69v-14.52h-1.18Zm0,13.34h-16.45c0-.36-.29-.65-.65-.65s-.65.29-.65.65h-4.58v-12.15h4.58c0,.36.29.65.65.65s.65-.29.65-.65h16.45v12.15Z" style="fill:#fff;"/><path d="m168.11,453.88c-.36,0-.65.29-.65.65s.29.65.65.65.65-.29.65-.65-.29-.65-.65-.65" style="fill:#fff;"/><path d="m168.11,451.45c-.36,0-.65.29-.65.65s.29.65.65.65.65-.29.65-.65-.29-.65-.65-.65" style="fill:#fff;"/><polygon points="163.74 446.69 178.2 438.85 182.79 447.31 184.14 447.31 179.24 438.28 178.68 437.24 177.64 437.81 163.18 445.65 163.08 445.71 162.04 446.27 158.01 448.46 156.97 449.02 157.54 450.06 160.52 455.55 160.52 453.07 158.57 449.49 160.52 448.44 163.74 446.69" style="fill:#fff;"/><rect x="225.86" y="429.09" width="44.18" height="44.18" rx="3.52" ry="3.52" style="fill:none; stroke:#0094e2; stroke-linecap:round; stroke-linejoin:round; stroke-width:3.52px;"/><rect x="224.81" y="428.03" width="44.18" height="44.18" rx="3.52" ry="3.52" style="fill:#fff;"/><rect x="224.81" y="428.03" width="44.18" height="44.18" rx="3.52" ry="3.52" style="fill:none; stroke:#0094e2; stroke-linecap:round; stroke-linejoin:round; stroke-width:1.76px;"/><polygon points="254.13 440.12 238.32 440.12 234.99 433.36 255.17 436.17 254.13 440.12" style="fill:#0094e2;"/><path d="m238.01,442.1h15.71v4.99c0,2.5-2.08,6.55-7.18,6.55s-7.39-4.37-7.39-5.83v-2.39h-3.95l2.81-3.33Z" style="fill:#0094e2;"/><path d="m265.16,470.29c.52-4.06.1-8.01-1.98-10.19-2.08-2.18-5.83-3.74-11.86-3.74l-4.37,8.43-5.3-8.43s-5.1.52-7.07,1.35c-1.98.83-6.76,5.2-4.99,11.96.12.45.27,1.06.45,1.74h34.97c.05-.38.11-.75.15-1.11Z" style="fill:#0094e2;"/><polyline points="914.82 208.73 337.14 208.73 337.14 360.55" style="fill:none; stroke:#39b54a; stroke-dasharray:0 0 6.3 6.3; stroke-miterlimit:10; stroke-width:4.41px;"/><polyline points="949.74 411.21 337.2 411.21 337.2 360.55 120.57 360.55" style="fill:none; stroke:#39b54a; stroke-dasharray:0 0 6.3 6.3; stroke-miterlimit:10; stroke-width:4.41px;"/><rect x="111.09" y="14.16" width="834.78" height="27.35" style="fill:#e6e6e6;"/><path d="m104.57,90.95c-3.3,0-3.7,3.09-6.29,3.84h12.58c-2.59-.75-3-3.84-6.29-3.84Z" style="fill:#fff;"/><path d="m134.59,90.95c-3.3,0-3.7,3.09-6.29,3.84h12.58c-2.59-.75-3-3.84-6.29-3.84Z" style="fill:#fff;"/><path d="m119.58,90.95c-3.3,0-3.7,3.09-6.29,3.84h12.58c-2.59-.75-3-3.84-6.29-3.84Z" style="fill:#fff;"/><path d="m149.6,90.95c-3.3,0-3.7,3.09-6.29,3.84h12.58c-2.59-.75-3-3.84-6.29-3.84Z" style="fill:#fff;"/><path d="m89.56,90.95c-3.3,0-3.7,3.09-6.29,3.84h12.59c-2.59-.75-3-3.84-6.29-3.84Z" style="fill:#fff;"/><path d="m82.04,110.35h75.07c-1.09,0-1.86.34-2.5.82h4.49v-16.37h-3.21c.36.1.76.16,1.21.16h-75.04" style="fill:#fff;"/><path d="m127.08,94.95c-.46,0-.85-.06-1.21-.16h-12.58c-.36.1-.76.16-1.21.16h15.01Z" style="fill:#fff;"/><path d="m157.1,94.95c-.46,0-.85-.06-1.21-.16h-12.58c-.36.1-.76.16-1.21.16h15.01Z" style="fill:#fff;"/><path d="m142.09,94.95c-.46,0-.85-.06-1.21-.16h-12.58c-.36.1-.76.16-1.21.16h15.01Z" style="fill:#fff;"/><path d="m82.06,94.95c-.46,0-.85-.06-1.21-.16" style="fill:#fff;"/><path d="m112.08,94.95c-.46,0-.85-.06-1.21-.16h-12.58c-.36.1-.76.16-1.21.16h15.01Z" style="fill:#fff;"/><path d="m97.07,94.95c-.46,0-.85-.06-1.21-.16h-12.59c-.36.1-.76.16-1.21.16h15.01Z" style="fill:#fff;"/><path d="m89.54,114.35c2.66,0,3.44-2.01,5.01-3.18h-10.02c1.57,1.17,2.35,3.18,5.01,3.18Z" style="fill:#fff;"/><path d="m104.55,114.35c2.67,0,3.44-2.01,5.01-3.18h-10.02c1.57,1.17,2.34,3.18,5.01,3.18Z" style="fill:#fff;"/><path d="m134.57,114.35c2.67,0,3.44-2.01,5.01-3.18h-10.02c1.57,1.17,2.35,3.18,5.01,3.18Z" style="fill:#fff;"/><path d="m149.59,114.35c2.67,0,3.45-2.01,5.01-3.18h-10.03c1.57,1.17,2.35,3.18,5.01,3.18Z" style="fill:#fff;"/><path d="m119.56,114.35c2.67,0,3.44-2.01,5.01-3.18h-10.02c1.57,1.17,2.34,3.18,5.01,3.18Z" style="fill:#fff;"/><path d="m112.05,110.35c1.09,0,1.85.34,2.49.82h10.02c.64-.48,1.41-.82,2.5-.82h-15.01Z" style="fill:#fff;"/><path d="m97.04,110.35c1.09,0,1.85.34,2.49.82h10.02c.64-.48,1.41-.82,2.49-.82h-15.01Z" style="fill:#fff;"/><path d="m142.08,110.35c1.09,0,1.86.34,2.5.82h10.03c.64-.48,1.41-.82,2.5-.82h-15.02Z" style="fill:#fff;"/><path d="m82.04,110.35c1.09,0,1.86.34,2.49.82h10.02c.64-.48,1.41-.82,2.49-.82h-15.01Z" style="fill:#fff;"/><path d="m127.06,110.35c1.09,0,1.86.34,2.5.82h10.02c.64-.48,1.41-.82,2.5-.82h-15.02Z" style="fill:#fff;"/><path d="m157.1,110.35c-3.76,0-3.76,4-7.51,4s-3.76-4-7.51-4-3.75,4-7.51,4-3.75-4-7.51-4-3.75,4-7.51,4-3.75-4-7.5-4-3.75,4-7.5,4-3.75-4-7.5-4-3.75,4-7.5,4-3.75-4-7.51-4" style="fill:none; stroke:#545454; stroke-miterlimit:10; stroke-width:.5px;"/><path d="m82.06,94.95c3.75,0,3.75-4,7.51-4s3.75,4,7.5,4,3.75-4,7.5-4,3.75,4,7.5,4,3.75-4,7.5-4,3.75,4,7.51,4,3.75-4,7.5-4,3.75,4,7.5,4,3.75-4,7.5-4,3.75,4,7.5,4" style="fill:none; stroke:#545454; stroke-miterlimit:10; stroke-width:.5px;"/><rect x="292.9" y="418.32" width="74.65" height="54.16" style="fill:#67d4ff; stroke:#545454; stroke-miterlimit:10; stroke-width:.5px;"/><rect x="314.85" y="424.09" width="32.3" height="32.3" rx="2.57" ry="2.57" style="fill:none; stroke:#0094e2; stroke-linecap:round; stroke-linejoin:round; stroke-width:2.57px;"/><rect x="314.08" y="423.32" width="32.3" height="32.3" rx="2.57" ry="2.57" style="fill:#fff;"/><rect x="314.08" y="423.32" width="32.3" height="32.3" rx="2.57" ry="2.57" style="fill:none; stroke:#0094e2; stroke-linecap:round; stroke-linejoin:round; stroke-width:1.28px;"/><polygon points="326.93 451.28 323.41 451.28 321.33 434.37 329 434.37 326.93 451.28" style="fill:#0094e2;"/><polygon points="333.53 434.37 337.05 434.37 339.12 451.28 331.45 451.28 333.53 434.37" style="fill:#ec0e8d;"/><circle cx="325.17" cy="430.54" r="2.87" style="fill:#0094e2;"/><circle cx="335.29" cy="430.54" r="2.87" style="fill:#ec0e8d;"/><rect x="102.67" y="356.61" width="96.61" height="53.44" rx="3.86" ry="3.86" style="fill:#ed0030;"/><rect x="102.67" y="356.61" width="96.61" height="53.44" rx="3.86" ry="3.86" style="fill:none; stroke:#545454; stroke-linecap:round; stroke-linejoin:round; stroke-width:1.89px;"/><polyline points="194.49 381.08 223.09 373.41 194.49 391.06" style="fill:#ed0030; stroke:#545454; stroke-linecap:round; stroke-linejoin:round; stroke-width:1.89px;"/><path d="m131.74,362.71v2.97h-5.02v13.82h-3.53v-13.82h-5.05v-2.97h13.6Z" style="fill:#fff;"/><path d="m136.78,362.61v3h-3.29v-3h3.29Zm0,4.48v12.42h-3.29v-12.42h3.29Z" style="fill:#fff;"/><path d="m150.53,371.54h-3.33c-.06-.46-.22-.88-.47-1.25-.37-.5-.93-.75-1.7-.75-1.09,0-1.84.54-2.24,1.63-.21.58-.32,1.34-.32,2.3s.11,1.64.32,2.2c.39,1.03,1.12,1.55,2.19,1.55.76,0,1.3-.21,1.62-.62.32-.41.51-.94.58-1.59h3.32c-.08.99-.43,1.92-1.07,2.8-1.02,1.42-2.53,2.13-4.52,2.13s-3.47-.59-4.41-1.78c-.94-1.18-1.41-2.72-1.41-4.61,0-2.13.52-3.79,1.56-4.98,1.04-1.19,2.48-1.78,4.31-1.78,1.56,0,2.83.35,3.82,1.05.99.7,1.58,1.93,1.76,3.7Z" style="fill:#fff;"/><path d="m164.04,379.5h-3.92l-2.97-5.31-1.34,1.4v3.91h-3.19v-16.74h3.19v9.05l4.04-4.67h4.02l-4.34,4.75,4.51,7.61Z" style="fill:#fff;"/><path d="m175.84,375.86c-.08.74-.47,1.48-1.15,2.24-1.06,1.21-2.55,1.81-4.47,1.81-1.58,0-2.97-.51-4.18-1.53-1.21-1.02-1.81-2.67-1.81-4.97,0-2.15.54-3.8,1.63-4.95,1.09-1.15,2.5-1.72,4.24-1.72,1.03,0,1.96.19,2.79.58.83.39,1.51,1,2.05,1.83.49.74.8,1.59.95,2.56.08.57.12,1.39.1,2.46h-8.5c.05,1.25.44,2.12,1.17,2.62.45.31.99.47,1.62.47.67,0,1.21-.19,1.63-.57.23-.21.43-.49.6-.85h3.32Zm-3.21-3.81c-.05-.86-.31-1.51-.78-1.95-.47-.44-1.05-.67-1.74-.67-.75,0-1.33.24-1.75.71s-.67,1.11-.78,1.91h5.05Z" style="fill:#fff;"/><path d="m183.8,377.19v2.43l-1.54.06c-1.54.05-2.58-.21-3.14-.8-.37-.37-.55-.95-.55-1.72v-7.65h-1.73v-2.31h1.73v-3.46h3.21v3.46h2.02v2.31h-2.02v6.56c0,.51.06.83.19.95.13.13.52.19,1.18.19.1,0,.2,0,.31,0s.22,0,.33-.02Z" style="fill:#fff;"/><path d="m137.3,403.2c-.93.57-2.07.85-3.42.85-2.23,0-4.05-.77-5.47-2.31-1.48-1.55-2.22-3.67-2.22-6.36s.75-4.9,2.25-6.54c1.5-1.64,3.47-2.46,5.94-2.46,2.13,0,3.85.54,5.14,1.62,1.29,1.08,2.04,2.43,2.23,4.05h-3.45c-.27-1.15-.92-1.95-1.95-2.4-.58-.25-1.22-.38-1.93-.38-1.35,0-2.46.51-3.33,1.53-.87,1.02-1.3,2.56-1.3,4.61s.47,3.53,1.41,4.39c.94.86,2.01,1.29,3.21,1.29s2.14-.34,2.89-1.02c.75-.68,1.21-1.57,1.39-2.67h-3.88v-2.8h7v9.01h-2.32l-.35-2.1c-.68.8-1.28,1.36-1.82,1.69Z" style="fill:#fff;"/><path d="m145.44,392.53c.86-1.09,2.33-1.64,4.42-1.64,1.36,0,2.57.27,3.62.81s1.58,1.56,1.58,3.05v5.7c0,.4,0,.87.02,1.44.02.43.09.71.19.87s.27.28.48.38v.48h-3.53c-.1-.25-.17-.49-.21-.71-.04-.22-.07-.47-.09-.75-.45.49-.96.9-1.55,1.24-.7.4-1.49.6-2.37.6-1.12,0-2.05-.32-2.79-.96-.73-.64-1.1-1.55-1.1-2.73,0-1.53.59-2.63,1.77-3.32.65-.37,1.59-.64,2.85-.8l1.1-.14c.6-.08,1.03-.17,1.29-.29.46-.2.69-.5.69-.92,0-.51-.18-.86-.53-1.05s-.87-.29-1.56-.29c-.77,0-1.31.19-1.63.57-.23.28-.38.66-.46,1.14h-3.13c.07-1.09.37-1.98.91-2.68Zm2.42,8.73c.3.25.68.38,1.12.38.7,0,1.34-.21,1.93-.62.59-.41.89-1.16.92-2.25v-1.21c-.21.13-.41.23-.62.31-.21.08-.5.15-.86.22l-.73.14c-.68.12-1.17.27-1.47.44-.5.3-.75.76-.75,1.38,0,.55.16.95.47,1.2Z" style="fill:#fff;"/><path d="m163.5,401.3v2.43l-1.54.06c-1.54.05-2.58-.21-3.14-.8-.37-.37-.55-.95-.55-1.72v-7.65h-1.73v-2.31h1.73v-3.46h3.21v3.46h2.02v2.31h-2.02v6.56c0,.51.06.83.19.95.13.13.52.19,1.18.19.1,0,.2,0,.31,0s.22,0,.33-.02Z" style="fill:#fff;"/><path d="m176.07,399.96c-.08.74-.47,1.48-1.15,2.24-1.06,1.21-2.55,1.81-4.47,1.81-1.58,0-2.97-.51-4.18-1.53-1.21-1.02-1.81-2.67-1.81-4.97,0-2.15.54-3.8,1.63-4.95,1.09-1.15,2.5-1.72,4.24-1.72,1.03,0,1.96.19,2.79.58.83.39,1.51,1,2.05,1.83.49.74.8,1.59.95,2.56.08.57.12,1.39.1,2.46h-8.5c.05,1.25.44,2.12,1.17,2.62.45.31.99.47,1.62.47.67,0,1.21-.19,1.63-.57.23-.21.43-.49.6-.85h3.32Zm-3.21-3.81c-.05-.86-.31-1.51-.78-1.95-.47-.44-1.05-.67-1.74-.67-.75,0-1.33.24-1.75.71s-.67,1.11-.78,1.91h5.05Z" style="fill:#fff;"/><rect x="70" y="102.98" width="258.04" height="156.38" style="fill:#444; opacity:.8; stroke:#000; stroke-linecap:round; stroke-linejoin:round; stroke-width:1.89px;"/><path d="m101.67,183.01v-10.32h3.57v10.32c0,1.79-.28,3.17-.83,4.17-1.03,1.82-3,2.73-5.91,2.73s-4.88-.91-5.92-2.73c-.55-1-.83-2.38-.83-4.17v-10.32h3.57v10.32c0,1.16.14,2,.41,2.53.43.94,1.35,1.41,2.78,1.41s2.34-.47,2.77-1.41c.27-.53.41-1.37.41-2.53Z" style="fill:#fff;"/><path d="m114.05,179.47c-1.1,0-1.86.47-2.27,1.4-.21.49-.32,1.12-.32,1.89v6.72h-3.24v-12.4h3.13v1.81c.42-.64.81-1.1,1.19-1.38.67-.5,1.51-.75,2.54-.75,1.28,0,2.33.34,3.15,1.01.82.67,1.22,1.79,1.22,3.34v8.36h-3.33v-7.55c0-.65-.09-1.15-.26-1.5-.32-.64-.93-.96-1.82-.96Z" style="fill:#fff;"/><path d="m133.69,172.71v16.77h-3.16v-1.72c-.46.74-.99,1.27-1.58,1.61-.59.33-1.33.5-2.21.5-1.45,0-2.67-.59-3.66-1.76s-1.49-2.68-1.49-4.52c0-2.12.49-3.79,1.46-5,.98-1.21,2.28-1.82,3.91-1.82.75,0,1.42.17,2,.5.58.33,1.06.79,1.42,1.37v-5.92h3.29Zm-8.75,10.64c0,1.15.23,2.06.68,2.75.45.69,1.13,1.04,2.05,1.04s1.62-.34,2.1-1.03.72-1.57.72-2.66c0-1.52-.38-2.61-1.15-3.26-.47-.39-1.02-.59-1.64-.59-.95,0-1.65.36-2.09,1.08s-.67,1.61-.67,2.67Z" style="fill:#fff;"/><path d="m147.35,185.84c-.08.74-.47,1.48-1.15,2.24-1.06,1.21-2.55,1.81-4.47,1.81-1.58,0-2.97-.51-4.18-1.53-1.21-1.02-1.81-2.67-1.81-4.97,0-2.15.54-3.8,1.63-4.95,1.09-1.15,2.5-1.72,4.24-1.72,1.03,0,1.96.19,2.79.58.83.39,1.51,1,2.05,1.83.49.74.8,1.59.95,2.56.08.57.12,1.39.1,2.46h-8.5c.05,1.25.44,2.12,1.17,2.62.45.31.99.47,1.62.47.67,0,1.21-.19,1.63-.57.23-.21.43-.49.6-.85h3.32Zm-3.21-3.81c-.05-.86-.31-1.51-.78-1.95s-1.05-.67-1.74-.67c-.75,0-1.33.24-1.75.71s-.67,1.11-.78,1.91h5.05Z" style="fill:#fff;"/><path d="m155.92,180.06c-1.31,0-2.18.43-2.63,1.28-.25.48-.38,1.22-.38,2.21v5.94h-3.27v-12.42h3.1v2.17c.5-.83.94-1.39,1.31-1.7.61-.51,1.4-.76,2.37-.76.06,0,.11,0,.15,0,.04,0,.13,0,.28.02v3.33c-.21-.02-.39-.04-.55-.05-.16,0-.29-.01-.39-.01Z" style="fill:#fff;"/><path d="m177.35,188.23c-1.25,1.15-2.86,1.72-4.81,1.72-2.42,0-4.31-.77-5.7-2.32-1.38-1.56-2.07-3.69-2.07-6.4,0-2.93.79-5.19,2.36-6.78,1.37-1.38,3.11-2.07,5.22-2.07,2.83,0,4.89.93,6.2,2.78.72,1.04,1.11,2.08,1.16,3.13h-3.51c-.23-.8-.52-1.41-.88-1.82-.64-.73-1.58-1.09-2.84-1.09s-2.28.51-3.02,1.54c-.74,1.03-1.11,2.49-1.11,4.37s.39,3.29,1.17,4.23c.78.94,1.77,1.41,2.97,1.41s2.17-.4,2.81-1.21c.36-.43.65-1.08.89-1.95h3.47c-.3,1.83-1.08,3.32-2.32,4.47Z" style="fill:#fff;"/><path d="m192.44,178.64c1.05,1.31,1.57,2.87,1.57,4.66s-.52,3.38-1.57,4.68c-1.05,1.29-2.64,1.94-4.77,1.94s-3.73-.65-4.77-1.94c-1.05-1.29-1.57-2.85-1.57-4.68s.52-3.35,1.57-4.66c1.05-1.31,2.64-1.97,4.77-1.97s3.73.66,4.77,1.97Zm-4.79.77c-.95,0-1.68.34-2.19,1.01s-.77,1.63-.77,2.88.26,2.21.77,2.88c.51.68,1.24,1.01,2.19,1.01s1.68-.34,2.19-1.01c.51-.68.76-1.64.76-2.88s-.25-2.21-.76-2.88c-.51-.67-1.24-1.01-2.19-1.01Z" style="fill:#fff;"/><path d="m202.03,179.47c-1.1,0-1.86.47-2.27,1.4-.21.49-.32,1.12-.32,1.89v6.72h-3.24v-12.4h3.13v1.81c.42-.64.81-1.1,1.19-1.38.67-.5,1.51-.75,2.54-.75,1.28,0,2.33.34,3.15,1.01.82.67,1.22,1.79,1.22,3.34v8.36h-3.33v-7.55c0-.65-.09-1.15-.26-1.5-.32-.64-.93-.96-1.82-.96Z" style="fill:#fff;"/><path d="m218.82,177.64c.97.62,1.53,1.69,1.67,3.21h-3.25c-.04-.42-.16-.75-.35-.99-.36-.44-.96-.66-1.82-.66-.71,0-1.21.11-1.51.33-.3.22-.45.48-.45.77,0,.37.16.64.48.81.32.17,1.45.47,3.38.9,1.29.3,2.26.76,2.91,1.38.64.62.96,1.4.96,2.34,0,1.23-.46,2.24-1.37,3.01-.92.78-2.33,1.17-4.24,1.17s-3.39-.41-4.32-1.24-1.4-1.87-1.4-3.15h3.29c.07.58.22.99.44,1.23.4.43,1.15.65,2.23.65.64,0,1.15-.09,1.52-.29.38-.19.56-.47.56-.85s-.15-.64-.46-.83c-.3-.19-1.43-.52-3.38-.98-1.41-.35-2.4-.79-2.97-1.31-.58-.52-.87-1.26-.87-2.23,0-1.15.45-2.13,1.35-2.96.9-.82,2.17-1.24,3.8-1.24s2.81.31,3.79.92Z" style="fill:#fff;"/><path d="m228.8,187.17v2.43l-1.54.06c-1.54.05-2.58-.21-3.14-.8-.37-.37-.55-.95-.55-1.72v-7.65h-1.73v-2.31h1.73v-3.46h3.21v3.46h2.02v2.31h-2.02v6.56c0,.51.06.83.19.95.13.13.52.19,1.18.19.1,0,.2,0,.31,0s.22,0,.33-.02Z" style="fill:#fff;"/><path d="m237.08,180.06c-1.31,0-2.18.43-2.63,1.28-.25.48-.38,1.22-.38,2.21v5.94h-3.27v-12.42h3.1v2.17c.5-.83.94-1.39,1.31-1.7.61-.51,1.4-.76,2.37-.76.06,0,.11,0,.15,0,.04,0,.13,0,.28.02v3.33c-.21-.02-.39-.04-.55-.05-.16,0-.29-.01-.39-.01Z" style="fill:#fff;"/><path d="m247.67,187.73s-.11.15-.23.34c-.12.19-.27.36-.43.5-.51.46-1,.77-1.47.93-.48.17-1.03.25-1.67.25-1.84,0-3.08-.66-3.71-1.98-.36-.73-.54-1.8-.54-3.22v-7.49h3.33v7.49c0,.71.08,1.24.25,1.6.3.63.88.95,1.74.95,1.11,0,1.87-.45,2.28-1.34.21-.49.32-1.13.32-1.92v-6.76h3.29v12.42h-3.16v-1.75Z" style="fill:#fff;"/><path d="m264.55,181.52h-3.33c-.06-.46-.22-.88-.47-1.25-.37-.5-.93-.75-1.7-.75-1.09,0-1.84.54-2.24,1.63-.21.58-.32,1.34-.32,2.3s.11,1.64.32,2.2c.39,1.03,1.12,1.55,2.19,1.55.76,0,1.3-.21,1.62-.62.32-.41.51-.94.58-1.59h3.32c-.08.99-.43,1.92-1.07,2.8-1.02,1.42-2.53,2.13-4.52,2.13s-3.47-.59-4.41-1.78c-.94-1.18-1.41-2.72-1.41-4.61,0-2.13.52-3.79,1.56-4.98,1.04-1.19,2.48-1.78,4.31-1.78,1.56,0,2.83.35,3.82,1.05.99.7,1.58,1.93,1.76,3.7Z" style="fill:#fff;"/><path d="m272.52,187.17v2.43l-1.54.06c-1.53.05-2.58-.21-3.14-.8-.36-.37-.55-.95-.55-1.72v-7.65h-1.73v-2.31h1.73v-3.46h3.21v3.46h2.02v2.31h-2.02v6.56c0,.51.06.83.19.95.13.13.52.19,1.18.19.1,0,.2,0,.31,0,.11,0,.22,0,.32-.02Z" style="fill:#fff;"/><path d="m277.93,172.59v3h-3.29v-3h3.29Zm0,4.48v12.42h-3.29v-12.42h3.29Z" style="fill:#fff;"/><path d="m291.28,178.64c1.05,1.31,1.57,2.87,1.57,4.66s-.52,3.38-1.57,4.68c-1.05,1.29-2.64,1.94-4.77,1.94s-3.73-.65-4.77-1.94c-1.05-1.29-1.57-2.85-1.57-4.68s.52-3.35,1.57-4.66c1.05-1.31,2.64-1.97,4.77-1.97s3.73.66,4.77,1.97Zm-4.79.77c-.95,0-1.68.34-2.19,1.01s-.77,1.63-.77,2.88.26,2.21.77,2.88c.51.68,1.24,1.01,2.19,1.01s1.68-.34,2.19-1.01c.51-.68.76-1.64.76-2.88s-.25-2.21-.76-2.88c-.51-.67-1.24-1.01-2.19-1.01Z" style="fill:#fff;"/><path d="m300.88,179.47c-1.1,0-1.86.47-2.27,1.4-.21.49-.32,1.12-.32,1.89v6.72h-3.24v-12.4h3.13v1.81c.42-.64.81-1.1,1.19-1.38.67-.5,1.51-.75,2.54-.75,1.28,0,2.33.34,3.15,1.01.82.67,1.22,1.79,1.22,3.34v8.36h-3.33v-7.55c0-.65-.09-1.15-.26-1.5-.32-.64-.93-.96-1.82-.96Z" style="fill:#fff;"/><path d="m822.35,259.46h8.71v1.54h-7.01v3.81h6.16v1.5h-6.16v5.71h-1.7v-12.55Z" style="fill:gray;"/><path d="m838.98,263.78c.81.79,1.21,1.94,1.21,3.47s-.36,2.69-1.07,3.65-1.82,1.44-3.32,1.44c-1.25,0-2.24-.42-2.98-1.28-.74-.85-1.1-1.99-1.1-3.43,0-1.54.39-2.76,1.16-3.67.78-.91,1.82-1.37,3.12-1.37,1.17,0,2.16.39,2.97,1.18Zm-.96,6.08c.38-.77.56-1.63.56-2.57,0-.85-.13-1.55-.41-2.08-.43-.84-1.17-1.26-2.21-1.26-.93,0-1.61.36-2.03,1.08-.42.72-.63,1.58-.63,2.59s.21,1.78.63,2.43c.42.65,1.09.97,2.01.97,1.01,0,1.7-.39,2.07-1.16Z" style="fill:gray;"/><path d="m841.99,262.86h1.46v1.58c.12-.31.41-.68.88-1.12s1.01-.66,1.62-.66c.03,0,.08,0,.15,0,.07,0,.18.02.35.03v1.62c-.09-.02-.18-.03-.25-.03s-.16,0-.25,0c-.78,0-1.37.25-1.79.75-.41.5-.62,1.07-.62,1.72v5.26h-1.54v-9.15Z" style="fill:gray;"/><path d="m853.95,267.97c.04.71.2,1.29.49,1.74.54.83,1.5,1.25,2.87,1.25.62,0,1.17-.09,1.68-.27.98-.35,1.46-.99,1.46-1.9,0-.68-.21-1.17-.62-1.46-.42-.28-1.08-.53-1.97-.74l-1.65-.38c-1.08-.25-1.84-.53-2.29-.83-.77-.52-1.16-1.31-1.16-2.35,0-1.13.38-2.05,1.14-2.78.76-.72,1.83-1.09,3.23-1.09,1.28,0,2.37.32,3.26.95s1.34,1.65,1.34,3.05h-1.6c-.08-.67-.26-1.19-.52-1.55-.5-.66-1.34-.98-2.53-.98-.96,0-1.65.21-2.07.63-.42.42-.63.91-.63,1.47,0,.62.25,1.07.74,1.35.33.18,1.06.41,2.21.68l1.71.4c.82.19,1.46.46,1.9.79.77.59,1.16,1.44,1.16,2.56,0,1.39-.49,2.38-1.48,2.98-.99.6-2.13.9-3.44.9-1.52,0-2.71-.4-3.57-1.2-.86-.79-1.28-1.87-1.27-3.22h1.6Z" style="fill:gray;"/><path d="m864.11,259.42h1.54v4.68c.36-.46.69-.79.98-.97.5-.33,1.11-.49,1.85-.49,1.33,0,2.23.46,2.7,1.39.26.51.38,1.21.38,2.11v5.87h-1.58v-5.77c0-.67-.08-1.17-.26-1.48-.28-.5-.8-.75-1.57-.75-.64,0-1.22.22-1.73.66-.52.44-.78,1.27-.78,2.49v4.85h-1.54v-12.6Z" style="fill:gray;"/><path d="m873.72,259.46h1.56v1.74h-1.56v-1.74Zm0,3.44h1.56v9.11h-1.56v-9.11Z" style="fill:gray;"/><path d="m877.47,262.86h1.46v1.3c.43-.54.89-.92,1.38-1.15.48-.23,1.02-.35,1.62-.35,1.3,0,2.18.45,2.63,1.36.25.5.38,1.21.38,2.13v5.87h-1.56v-5.77c0-.56-.08-1.01-.25-1.35-.27-.57-.77-.85-1.49-.85-.36,0-.66.04-.9.11-.42.12-.79.38-1.11.75-.26.3-.42.61-.5.94-.08.32-.12.78-.12,1.38v4.79h-1.54v-9.15Z" style="fill:gray;"/><path d="m886.86,266.35h4.29v1.58h-4.29v-1.58Z" style="fill:gray;"/><path d="m894.41,267.97c.04.71.2,1.29.49,1.74.54.83,1.5,1.25,2.87,1.25.62,0,1.17-.09,1.68-.27.98-.35,1.46-.99,1.46-1.9,0-.68-.21-1.17-.62-1.46-.42-.28-1.08-.53-1.97-.74l-1.65-.38c-1.08-.25-1.84-.53-2.29-.83-.77-.52-1.16-1.31-1.16-2.35,0-1.13.38-2.05,1.14-2.78.76-.72,1.83-1.09,3.23-1.09,1.28,0,2.37.32,3.26.95s1.34,1.65,1.34,3.05h-1.6c-.08-.67-.26-1.19-.52-1.55-.5-.66-1.34-.98-2.53-.98-.96,0-1.65.21-2.07.63-.42.42-.63.91-.63,1.47,0,.62.25,1.07.74,1.35.33.18,1.06.41,2.21.68l1.71.4c.82.19,1.46.46,1.9.79.77.59,1.16,1.44,1.16,2.56,0,1.39-.49,2.38-1.48,2.98-.99.6-2.13.9-3.44.9-1.52,0-2.71-.4-3.57-1.2-.86-.79-1.28-1.87-1.27-3.22h1.6Z" style="fill:gray;"/><path d="m904.57,259.42h1.54v4.68c.37-.46.69-.79.98-.97.5-.33,1.12-.49,1.86-.49,1.33,0,2.23.46,2.7,1.39.26.51.38,1.21.38,2.11v5.87h-1.58v-5.77c0-.67-.09-1.17-.26-1.48-.28-.5-.8-.75-1.57-.75-.64,0-1.21.22-1.73.66-.52.44-.78,1.27-.78,2.49v4.85h-1.54v-12.6Z" style="fill:gray;"/><path d="m914.18,259.46h1.56v1.74h-1.56v-1.74Zm0,3.44h1.56v9.11h-1.56v-9.11Z" style="fill:gray;"/><path d="m917.92,262.86h1.52v1.3c.37-.45.7-.78.99-.98.51-.35,1.08-.52,1.72-.52.73,0,1.32.18,1.76.54.25.21.48.51.68.91.34-.49.74-.85,1.2-1.09.46-.24.98-.35,1.56-.35,1.23,0,2.07.44,2.51,1.33.24.48.36,1.12.36,1.93v6.09h-1.6v-6.36c0-.61-.15-1.03-.46-1.26-.3-.23-.68-.34-1.11-.34-.61,0-1.12.2-1.56.61s-.65,1.08-.65,2.03v5.32h-1.56v-5.97c0-.62-.07-1.07-.22-1.36-.23-.43-.67-.64-1.31-.64-.58,0-1.11.23-1.59.67-.48.45-.71,1.26-.71,2.44v4.85h-1.54v-9.15Z" style="fill:gray;"/><path d="m932.39,259.46h1.56v1.74h-1.56v-1.74Zm0,3.44h1.56v9.11h-1.56v-9.11Z" style="fill:gray;"/><path d="m935.36,270.8l5.43-6.56h-5.03v-1.38h7.1v1.26l-5.4,6.52h5.56v1.38h-7.66v-1.21Z" style="fill:gray;"/><path d="m945.99,262.86v6.08c0,.47.07.85.22,1.14.27.55.76.82,1.49.82,1.04,0,1.75-.48,2.13-1.44.21-.51.31-1.22.31-2.11v-4.49h1.54v9.15h-1.45l.02-1.35c-.2.35-.44.64-.73.88-.57.48-1.27.72-2.1.72-1.28,0-2.15-.44-2.62-1.31-.25-.47-.38-1.09-.38-1.87v-6.22h1.57Z" style="fill:gray;"/><path d="m571.43,180.09h5.62c1.11,0,2.01.32,2.69.94.68.63,1.02,1.51,1.02,2.65,0,.98-.3,1.83-.91,2.56s-1.54,1.09-2.8,1.09h-3.92v5.31h-1.7v-12.55Zm6.6,1.73c-.37-.18-.88-.26-1.54-.26h-3.36v4.35h3.36c.76,0,1.37-.16,1.84-.49.47-.33.71-.9.71-1.72,0-.92-.34-1.55-1.02-1.88Z" style="fill:#0094e2;"/><path d="m582.4,180.09h1.54v12.55h-1.54v-12.55Z" style="fill:#0094e2;"/><path d="m591,187.1c.35-.05.59-.19.71-.44.07-.14.1-.33.1-.59,0-.53-.19-.91-.56-1.15-.37-.24-.91-.36-1.6-.36-.8,0-1.37.22-1.71.65-.19.24-.31.6-.37,1.07h-1.44c.03-1.13.39-1.92,1.1-2.36.7-.44,1.52-.67,2.45-.67,1.08,0,1.95.21,2.62.62.67.41,1,1.05,1,1.92v5.27c0,.16.03.29.1.38s.2.15.42.15c.07,0,.15,0,.23-.01.09,0,.18-.02.27-.04v1.14c-.24.07-.42.11-.55.13-.12.02-.3.03-.51.03-.53,0-.91-.19-1.15-.56-.13-.2-.21-.48-.26-.85-.31.41-.76.77-1.35,1.07s-1.23.45-1.94.45c-.85,0-1.54-.26-2.08-.77-.54-.51-.81-1.16-.81-1.93,0-.85.27-1.5.79-1.97.53-.47,1.22-.75,2.08-.86l2.45-.31Zm-3.24,4.16c.33.26.71.38,1.15.38.54,0,1.07-.12,1.57-.38.85-.42,1.28-1.09,1.28-2.04v-1.24c-.19.12-.43.22-.72.3-.3.08-.59.14-.87.17l-.93.12c-.56.07-.98.19-1.26.35-.48.27-.71.69-.71,1.28,0,.44.16.79.49,1.05Z" style="fill:#0094e2;"/><path d="m595.86,180.93h1.55v2.55h1.46v1.26h-1.46v5.97c0,.32.11.53.33.64.12.06.32.09.6.09.07,0,.15,0,.24,0,.09,0,.19-.01.3-.03v1.22c-.18.05-.36.09-.55.11s-.4.03-.62.03c-.72,0-1.21-.18-1.46-.55-.26-.37-.38-.84-.38-1.43v-6.06h-1.24v-1.26h1.24v-2.55Z" style="fill:#0094e2;"/><path d="m601.42,180.69c.36-.52,1.05-.79,2.08-.79.1,0,.2,0,.3,0,.1,0,.22.01.35.03v1.4c-.16-.01-.28-.02-.35-.02-.07,0-.14,0-.2,0-.47,0-.75.12-.85.36-.09.24-.14.86-.14,1.85h1.54v1.21h-1.54v7.9h-1.52v-7.9h-1.27v-1.21h1.27v-1.44c.02-.64.13-1.11.33-1.4Z" style="fill:#0094e2;"/><path d="m611.95,184.4c.81.79,1.21,1.94,1.21,3.47s-.36,2.69-1.07,3.65-1.82,1.44-3.32,1.44c-1.25,0-2.24-.43-2.98-1.28s-1.1-1.99-1.1-3.43c0-1.54.39-2.76,1.16-3.67.77-.91,1.82-1.37,3.12-1.37,1.17,0,2.16.39,2.97,1.18Zm-.96,6.08c.38-.77.56-1.63.56-2.57,0-.85-.14-1.55-.41-2.08-.43-.84-1.17-1.26-2.21-1.26-.93,0-1.61.36-2.03,1.08-.42.72-.63,1.58-.63,2.59s.21,1.78.63,2.43c.42.65,1.09.97,2.01.97,1.01,0,1.7-.38,2.07-1.16Z" style="fill:#0094e2;"/><path d="m614.96,183.49h1.46v1.58c.12-.31.41-.68.88-1.12.47-.44,1.01-.66,1.62-.66.03,0,.08,0,.15,0s.18.02.35.03v1.62c-.09-.02-.18-.03-.25-.03-.08,0-.16,0-.25,0-.77,0-1.37.25-1.79.75-.42.5-.62,1.07-.62,1.72v5.26h-1.54v-9.15Z" style="fill:#0094e2;"/><path d="m620.68,183.49h1.52v1.3c.36-.45.7-.78.99-.98.51-.35,1.08-.52,1.73-.52.73,0,1.32.18,1.76.54.25.21.48.51.68.91.34-.49.74-.85,1.21-1.09.46-.24.98-.35,1.56-.35,1.23,0,2.07.44,2.51,1.33.24.48.36,1.12.36,1.93v6.09h-1.6v-6.36c0-.61-.15-1.03-.46-1.26s-.68-.34-1.12-.34c-.6,0-1.12.2-1.56.61-.44.41-.65,1.08-.65,2.03v5.32h-1.56v-5.97c0-.62-.07-1.07-.22-1.36-.23-.43-.67-.64-1.31-.64-.58,0-1.11.23-1.59.68s-.71,1.26-.71,2.44v4.85h-1.54v-9.15Z" style="fill:#0094e2;"/><path d="m644.17,179.88c-.89,1.74-1.48,3.02-1.74,3.84-.41,1.25-.61,2.69-.61,4.32s.23,3.16.69,4.53c.29.84.85,2.06,1.68,3.64h-1.03c-.83-1.3-1.35-2.13-1.55-2.49-.2-.36-.42-.85-.65-1.46-.32-.84-.54-1.74-.67-2.7-.06-.5-.09-.97-.09-1.42,0-1.69.26-3.19.79-4.5.34-.84,1.04-2.09,2.1-3.76h1.07Z" style="fill:#0094e2;"/><path d="m645.82,180.09h5.02c1.7,0,3.02.61,3.96,1.84.84,1.11,1.26,2.52,1.26,4.25,0,1.33-.25,2.54-.74,3.62-.87,1.9-2.37,2.85-4.5,2.85h-5v-12.55Zm4.68,11.1c.56,0,1.03-.06,1.39-.18.65-.22,1.18-.65,1.59-1.28.33-.51.57-1.16.71-1.95.08-.47.12-.91.12-1.32,0-1.56-.3-2.76-.91-3.62s-1.58-1.29-2.92-1.29h-2.95v9.64h2.97Z" style="fill:#0094e2;"/><path d="m664.69,184.4c.81.79,1.21,1.94,1.21,3.47s-.36,2.69-1.07,3.65-1.82,1.44-3.32,1.44c-1.25,0-2.24-.43-2.98-1.28s-1.1-1.99-1.1-3.43c0-1.54.39-2.76,1.16-3.67.77-.91,1.82-1.37,3.12-1.37,1.17,0,2.16.39,2.97,1.18Zm-.96,6.08c.38-.77.56-1.63.56-2.57,0-.85-.14-1.55-.41-2.08-.43-.84-1.17-1.26-2.21-1.26-.93,0-1.61.36-2.03,1.08-.42.72-.63,1.58-.63,2.59s.21,1.78.63,2.43c.42.65,1.09.97,2.01.97,1.01,0,1.7-.38,2.07-1.16Z" style="fill:#0094e2;"/><path d="m668.22,183.49l1.76,7.21,1.79-7.21h1.73l1.79,7.17,1.87-7.17h1.54l-2.66,9.15h-1.6l-1.86-7.08-1.8,7.08h-1.6l-2.64-9.15h1.68Z" style="fill:#0094e2;"/><path d="m680.02,183.49h1.46v1.3c.43-.54.89-.92,1.38-1.15s1.02-.35,1.62-.35c1.3,0,2.18.45,2.63,1.36.25.5.38,1.21.38,2.13v5.87h-1.56v-5.77c0-.56-.08-1.01-.25-1.35-.27-.57-.77-.85-1.49-.85-.36,0-.66.04-.9.11-.42.13-.79.38-1.11.75-.26.3-.42.61-.5.94-.08.32-.12.78-.12,1.38v4.79h-1.54v-9.15Z" style="fill:#0094e2;"/><path d="m694.82,180.09h1.7v11.06h6.3v1.5h-8v-12.55Z" style="fill:#0094e2;"/><path d="m704.21,180.09h1.56v1.74h-1.56v-1.74Zm0,3.44h1.56v9.11h-1.56v-9.11Z" style="fill:#0094e2;"/><path d="m707.96,183.49h1.46v1.3c.43-.54.89-.92,1.38-1.15s1.02-.35,1.62-.35c1.3,0,2.18.45,2.63,1.36.25.5.38,1.21.38,2.13v5.87h-1.56v-5.77c0-.56-.08-1.01-.25-1.35-.27-.57-.77-.85-1.49-.85-.36,0-.66.04-.9.11-.42.13-.79.38-1.11.75-.26.3-.42.61-.5.94-.08.32-.12.78-.12,1.38v4.79h-1.54v-9.15Z" style="fill:#0094e2;"/><path d="m723.24,183.74c.61.3,1.07.7,1.38,1.18.31.46.51,1,.61,1.62.09.42.14,1.09.14,2.02h-6.66c.03.93.25,1.68.65,2.24.41.56,1.04.84,1.89.84.8,0,1.43-.27,1.91-.8.27-.31.45-.67.56-1.07h1.51c-.04.34-.17.71-.4,1.12-.23.41-.48.75-.75,1.01-.46.46-1.04.76-1.72.92-.37.09-.78.14-1.25.14-1.13,0-2.09-.42-2.88-1.24-.79-.83-1.18-1.99-1.18-3.48s.4-2.66,1.19-3.58c.79-.92,1.83-1.38,3.11-1.38.65,0,1.27.15,1.88.46Zm.55,3.59c-.06-.67-.21-1.2-.43-1.6-.42-.74-1.12-1.11-2.09-1.11-.7,0-1.29.25-1.76.76s-.73,1.16-.75,1.94h5.04Z" style="fill:#0094e2;"/><path d="m725.8,196.21c.91-1.77,1.49-3.05,1.75-3.86.4-1.22.6-2.66.6-4.31s-.23-3.15-.69-4.52c-.29-.84-.85-2.06-1.68-3.64h1.03c.88,1.4,1.41,2.27,1.59,2.59.18.33.39.78.6,1.35.27.71.47,1.42.58,2.11.12.7.17,1.36.17,2.01,0,1.69-.27,3.19-.8,4.51-.34.85-1.03,2.1-2.09,3.75h-1.07Z" style="fill:#0094e2;"/><path d="m738.25,192.7v-12.69l13.74,6.35-13.74,6.34Z" style="fill:#0094e2;"/><path d="m595.25,427.73v12.69l-13.74-6.35,13.74-6.35Z" style="fill:#0094e2;"/><path d="m605.5,427.81h5.62c1.11,0,2.01.31,2.69.94s1.02,1.51,1.02,2.65c0,.98-.3,1.83-.91,2.56-.61.73-1.54,1.09-2.8,1.09h-3.92v5.31h-1.7v-12.55Zm6.6,1.73c-.37-.18-.88-.27-1.54-.27h-3.36v4.35h3.36c.76,0,1.37-.16,1.85-.49.47-.32.71-.9.71-1.72,0-.92-.34-1.55-1.02-1.88Z" style="fill:#0094e2;"/><path d="m616.47,427.81h1.54v12.55h-1.54v-12.55Z" style="fill:#0094e2;"/><path d="m625.06,434.82c.35-.04.59-.19.71-.44.07-.14.1-.33.1-.59,0-.53-.19-.91-.56-1.15-.37-.24-.91-.36-1.6-.36-.8,0-1.37.22-1.71.65-.19.24-.31.6-.37,1.07h-1.44c.03-1.13.39-1.92,1.1-2.36s1.52-.66,2.45-.66c1.08,0,1.95.21,2.62.62.67.41,1,1.05,1,1.91v5.27c0,.16.03.29.1.38s.2.14.42.14c.07,0,.14,0,.23-.01s.18-.02.27-.04v1.14c-.24.07-.42.11-.55.13-.12.02-.3.03-.51.03-.53,0-.91-.19-1.15-.56-.13-.2-.21-.48-.27-.85-.31.41-.76.77-1.35,1.07-.59.3-1.23.45-1.94.45-.85,0-1.54-.26-2.08-.77s-.81-1.16-.81-1.93c0-.85.27-1.5.79-1.97.53-.47,1.22-.75,2.08-.86l2.45-.31Zm-3.24,4.16c.32.26.71.38,1.15.38.54,0,1.07-.12,1.57-.38.85-.42,1.28-1.09,1.28-2.04v-1.24c-.19.12-.43.22-.72.3-.3.08-.59.14-.87.17l-.93.12c-.56.07-.98.19-1.26.35-.48.27-.71.69-.71,1.28,0,.44.16.79.49,1.05Z" style="fill:#0094e2;"/><path d="m629.92,428.65h1.56v2.56h1.46v1.26h-1.46v5.97c0,.32.11.53.33.64.12.06.32.09.6.09.07,0,.15,0,.24,0s.18-.01.3-.03v1.22c-.18.05-.36.09-.55.11-.19.02-.4.03-.62.03-.72,0-1.21-.18-1.46-.55s-.38-.84-.38-1.43v-6.06h-1.24v-1.26h1.24v-2.56Z" style="fill:#0094e2;"/><path d="m635.48,428.41c.36-.52,1.05-.79,2.08-.79.1,0,.2,0,.3,0s.22.01.35.03v1.4c-.16-.01-.28-.02-.35-.02-.07,0-.14,0-.2,0-.47,0-.76.12-.85.36s-.14.86-.14,1.85h1.54v1.21h-1.54v7.9h-1.52v-7.9h-1.27v-1.21h1.27v-1.44c.02-.64.13-1.1.33-1.4Z" style="fill:#0094e2;"/><path d="m646.01,432.12c.81.79,1.21,1.94,1.21,3.47s-.36,2.69-1.07,3.65c-.71.96-1.82,1.44-3.32,1.44-1.25,0-2.24-.42-2.98-1.28-.74-.85-1.1-1.99-1.1-3.43,0-1.54.39-2.76,1.16-3.67.78-.91,1.82-1.37,3.12-1.37,1.17,0,2.16.39,2.97,1.18Zm-.96,6.08c.37-.77.56-1.63.56-2.57,0-.85-.13-1.55-.41-2.08-.43-.84-1.17-1.26-2.21-1.26-.93,0-1.61.36-2.03,1.08s-.63,1.58-.63,2.59.21,1.78.63,2.43,1.09.97,2.01.97c1.01,0,1.7-.39,2.07-1.16Z" style="fill:#0094e2;"/><path d="m649.02,431.21h1.46v1.58c.12-.31.41-.68.88-1.12s1.01-.66,1.62-.66c.03,0,.08,0,.15,0,.07,0,.18.02.35.03v1.62c-.09-.02-.18-.03-.25-.03-.08,0-.16,0-.25,0-.77,0-1.37.25-1.79.75-.42.5-.62,1.07-.62,1.72v5.26h-1.54v-9.15Z" style="fill:#0094e2;"/><path d="m654.74,431.21h1.52v1.3c.36-.45.7-.78.99-.98.51-.35,1.08-.52,1.73-.52.73,0,1.32.18,1.76.54.25.21.48.51.68.91.34-.49.74-.85,1.2-1.09.46-.24.98-.35,1.56-.35,1.23,0,2.07.44,2.51,1.33.24.48.36,1.12.36,1.93v6.09h-1.6v-6.36c0-.61-.15-1.03-.46-1.26-.31-.23-.68-.34-1.12-.34-.6,0-1.12.2-1.56.61s-.65,1.08-.65,2.03v5.32h-1.56v-5.97c0-.62-.07-1.07-.22-1.36-.23-.43-.67-.64-1.31-.64-.58,0-1.11.23-1.59.67-.48.45-.71,1.26-.71,2.44v4.85h-1.54v-9.15Z" style="fill:#0094e2;"/><path d="m678.23,427.6c-.89,1.74-1.47,3.02-1.74,3.84-.41,1.25-.61,2.69-.61,4.32s.23,3.16.69,4.53c.28.84.85,2.06,1.68,3.64h-1.03c-.83-1.3-1.35-2.13-1.55-2.49-.2-.36-.42-.85-.65-1.46-.32-.84-.54-1.74-.67-2.7-.06-.5-.09-.97-.09-1.42,0-1.69.27-3.19.79-4.5.34-.84,1.04-2.09,2.1-3.76h1.07Z" style="fill:#0094e2;"/><path d="m681.61,427.81v7.76c0,.91.17,1.67.52,2.27.51.91,1.37,1.37,2.58,1.37,1.45,0,2.44-.49,2.96-1.48.28-.54.42-1.26.42-2.16v-7.76h1.72v7.05c0,1.54-.21,2.73-.63,3.56-.77,1.51-2.21,2.27-4.34,2.27s-3.57-.76-4.33-2.27c-.42-.83-.63-2.02-.63-3.56v-7.05h1.72Z" style="fill:#0094e2;"/><path d="m692.02,431.25h1.5v1.21c.31-.42.64-.74,1.01-.97.52-.34,1.13-.51,1.83-.51,1.04,0,1.92.4,2.65,1.19.73.79,1.09,1.93,1.09,3.41,0,1.99-.52,3.42-1.57,4.27-.66.54-1.44.81-2.32.81-.69,0-1.27-.15-1.74-.45-.27-.17-.58-.46-.92-.88v4.67h-1.54v-12.76Zm5.79,7.17c.48-.6.72-1.5.72-2.7,0-.73-.11-1.36-.32-1.88-.4-1.01-1.13-1.51-2.19-1.51s-1.8.53-2.2,1.6c-.21.57-.32,1.29-.32,2.17,0,.71.11,1.31.32,1.8.4.95,1.13,1.42,2.2,1.42.72,0,1.32-.3,1.8-.9Z" style="fill:#0094e2;"/><path d="m706.95,427.81h1.7v11.06h6.3v1.5h-8v-12.55Z" style="fill:#0094e2;"/><path d="m716.35,427.81h1.56v1.74h-1.56v-1.74Zm0,3.44h1.56v9.11h-1.56v-9.11Z" style="fill:#0094e2;"/><path d="m720.09,431.21h1.46v1.3c.43-.54.89-.92,1.38-1.15.48-.23,1.02-.35,1.62-.35,1.3,0,2.18.45,2.63,1.36.25.5.38,1.21.38,2.13v5.87h-1.56v-5.77c0-.56-.08-1.01-.25-1.35-.27-.57-.77-.85-1.49-.85-.36,0-.66.04-.9.11-.42.12-.79.38-1.11.75-.26.3-.42.61-.5.94-.08.32-.12.78-.12,1.38v4.79h-1.54v-9.15Z" style="fill:#0094e2;"/><path d="m735.37,431.46c.61.3,1.07.7,1.38,1.18.31.46.51,1,.61,1.61.09.42.14,1.09.14,2.02h-6.66c.03.93.25,1.68.65,2.24.41.56,1.04.84,1.89.84.8,0,1.43-.27,1.91-.8.27-.31.45-.67.56-1.07h1.51c-.04.34-.17.71-.4,1.12-.23.41-.48.75-.75,1.01-.46.46-1.04.76-1.72.92-.37.09-.78.14-1.25.14-1.13,0-2.09-.41-2.88-1.24-.79-.83-1.18-1.99-1.18-3.48s.4-2.66,1.19-3.58c.79-.92,1.83-1.38,3.11-1.38.65,0,1.27.15,1.88.46Zm.55,3.59c-.06-.67-.21-1.2-.43-1.6-.42-.74-1.12-1.11-2.09-1.11-.7,0-1.29.25-1.76.76-.47.51-.73,1.16-.75,1.94h5.04Z" style="fill:#0094e2;"/><path d="m737.94,443.93c.91-1.77,1.49-3.05,1.75-3.86.4-1.22.6-2.66.6-4.31s-.23-3.15-.69-4.52c-.29-.84-.85-2.06-1.68-3.64h1.03c.88,1.4,1.41,2.27,1.59,2.59.19.33.39.78.6,1.35.27.71.47,1.42.58,2.11.12.7.17,1.36.17,2.01,0,1.69-.27,3.19-.8,4.51-.34.85-1.03,2.1-2.09,3.75h-1.07Z" style="fill:#0094e2;"/><path d="m429.44,347.99h8.71v1.54h-7.01v3.81h6.16v1.5h-6.16v5.71h-1.7v-12.55Z" style="fill:gray;"/><path d="m446.07,352.31c.81.79,1.21,1.94,1.21,3.47s-.36,2.69-1.07,3.65-1.82,1.44-3.32,1.44c-1.25,0-2.24-.42-2.98-1.28-.74-.85-1.1-1.99-1.1-3.43,0-1.54.39-2.76,1.16-3.67.78-.91,1.82-1.37,3.12-1.37,1.17,0,2.16.39,2.97,1.18Zm-.96,6.08c.38-.77.56-1.63.56-2.57,0-.85-.13-1.55-.41-2.08-.43-.84-1.17-1.26-2.21-1.26-.93,0-1.61.36-2.03,1.08-.42.72-.63,1.58-.63,2.59s.21,1.78.63,2.43c.42.65,1.09.97,2.01.97,1.01,0,1.7-.38,2.07-1.16Z" style="fill:gray;"/><path d="m449.08,351.39h1.46v1.58c.12-.31.41-.68.88-1.12s1-.66,1.62-.66c.03,0,.08,0,.14,0,.07,0,.19.02.35.03v1.62c-.09-.02-.17-.03-.25-.03s-.16,0-.25,0c-.77,0-1.37.25-1.79.75s-.62,1.07-.62,1.72v5.26h-1.54v-9.15Z" style="fill:gray;"/><path d="m461.04,356.49c.04.71.2,1.29.49,1.74.54.83,1.5,1.25,2.87,1.25.61,0,1.17-.09,1.68-.27.98-.35,1.46-.99,1.46-1.9,0-.68-.21-1.17-.62-1.46-.42-.29-1.08-.53-1.97-.74l-1.65-.38c-1.08-.25-1.84-.53-2.28-.83-.77-.52-1.16-1.31-1.16-2.35,0-1.13.38-2.05,1.14-2.78s1.83-1.09,3.23-1.09c1.28,0,2.37.32,3.26.95.9.64,1.34,1.65,1.34,3.05h-1.6c-.08-.67-.26-1.19-.52-1.55-.5-.66-1.34-.98-2.53-.98-.96,0-1.65.21-2.07.63-.42.42-.63.91-.63,1.47,0,.62.25,1.07.75,1.35.32.18,1.06.41,2.21.68l1.71.4c.82.19,1.46.46,1.9.79.77.59,1.16,1.44,1.16,2.55,0,1.39-.49,2.38-1.48,2.98-.99.6-2.13.9-3.44.9-1.52,0-2.71-.4-3.58-1.2-.86-.79-1.28-1.87-1.27-3.22h1.6Z" style="fill:gray;"/><path d="m471.21,347.95h1.54v4.68c.36-.46.69-.79.98-.97.5-.32,1.11-.49,1.85-.49,1.33,0,2.23.46,2.7,1.39.26.51.38,1.21.38,2.11v5.87h-1.58v-5.77c0-.67-.09-1.17-.26-1.48-.28-.5-.8-.75-1.57-.75-.64,0-1.22.22-1.74.66s-.78,1.27-.78,2.49v4.85h-1.54v-12.6Z" style="fill:gray;"/><path d="m480.81,347.99h1.56v1.74h-1.56v-1.74Zm0,3.44h1.56v9.11h-1.56v-9.11Z" style="fill:gray;"/><path d="m484.56,351.39h1.46v1.3c.43-.54.89-.92,1.38-1.15.48-.23,1.02-.35,1.62-.35,1.3,0,2.18.45,2.63,1.36.25.5.38,1.21.38,2.13v5.87h-1.56v-5.77c0-.56-.08-1.01-.25-1.35-.27-.57-.77-.85-1.49-.85-.36,0-.66.04-.9.11-.42.12-.79.38-1.11.75-.26.3-.42.61-.5.94-.08.32-.12.78-.12,1.38v4.79h-1.54v-9.15Z" style="fill:gray;"/><path d="m493.95,354.88h4.29v1.58h-4.29v-1.58Z" style="fill:gray;"/><path d="m501.5,356.49c.04.71.2,1.29.49,1.74.54.83,1.5,1.25,2.87,1.25.61,0,1.17-.09,1.68-.27.98-.35,1.46-.99,1.46-1.9,0-.68-.21-1.17-.62-1.46-.42-.29-1.08-.53-1.97-.74l-1.65-.38c-1.08-.25-1.84-.53-2.28-.83-.77-.52-1.16-1.31-1.16-2.35,0-1.13.38-2.05,1.14-2.78.76-.72,1.83-1.09,3.23-1.09,1.28,0,2.37.32,3.26.95.89.64,1.34,1.65,1.34,3.05h-1.6c-.08-.67-.26-1.19-.52-1.55-.5-.66-1.34-.98-2.53-.98-.96,0-1.65.21-2.07.63-.42.42-.63.91-.63,1.47,0,.62.25,1.07.75,1.35.33.18,1.06.41,2.21.68l1.71.4c.82.19,1.46.46,1.9.79.77.59,1.16,1.44,1.16,2.55,0,1.39-.49,2.38-1.48,2.98-.99.6-2.13.9-3.44.9-1.52,0-2.71-.4-3.57-1.2-.86-.79-1.28-1.87-1.27-3.22h1.6Z" style="fill:gray;"/><path d="m511.67,347.95h1.54v4.68c.36-.46.69-.79.98-.97.5-.32,1.11-.49,1.85-.49,1.33,0,2.23.46,2.7,1.39.26.51.38,1.21.38,2.11v5.87h-1.58v-5.77c0-.67-.09-1.17-.26-1.48-.28-.5-.8-.75-1.57-.75-.64,0-1.22.22-1.74.66s-.78,1.27-.78,2.49v4.85h-1.54v-12.6Z" style="fill:gray;"/><path d="m521.27,347.99h1.56v1.74h-1.56v-1.74Zm0,3.44h1.56v9.11h-1.56v-9.11Z" style="fill:gray;"/><path d="m524.25,359.33l5.43-6.56h-5.03v-1.38h7.1v1.26l-5.4,6.52h5.56v1.38h-7.67v-1.21Z" style="fill:gray;"/><path d="m534.88,351.39v6.08c0,.47.07.85.22,1.14.27.55.76.82,1.49.82,1.04,0,1.75-.48,2.13-1.44.21-.51.31-1.22.31-2.11v-4.49h1.54v9.15h-1.45l.02-1.35c-.2.35-.44.64-.73.88-.58.48-1.27.72-2.1.72-1.28,0-2.15-.44-2.62-1.31-.25-.47-.38-1.09-.38-1.87v-6.22h1.57Z" style="fill:gray;"/><path d="m549.59,352.31c.81.79,1.21,1.94,1.21,3.47s-.36,2.69-1.07,3.65c-.71.96-1.82,1.44-3.32,1.44-1.25,0-2.24-.42-2.98-1.28-.74-.85-1.1-1.99-1.1-3.43,0-1.54.39-2.76,1.16-3.67.78-.91,1.82-1.37,3.12-1.37,1.17,0,2.16.39,2.97,1.18Zm-.96,6.08c.37-.77.56-1.63.56-2.57,0-.85-.13-1.55-.41-2.08-.43-.84-1.17-1.26-2.21-1.26-.93,0-1.61.36-2.03,1.08-.42.72-.63,1.58-.63,2.59s.21,1.78.63,2.43,1.09.97,2.01.97c1.01,0,1.7-.38,2.07-1.16Z" style="fill:gray;"/><path d="m552.56,347.99h1.48v7.29l3.94-3.89h1.96l-3.52,3.4,3.71,5.75h-1.96l-2.88-4.66-1.26,1.22v3.44h-1.48v-12.55Z" style="fill:gray;"/><path d="m566.07,355.01c.35-.05.59-.19.71-.44.07-.14.1-.33.1-.59,0-.53-.19-.91-.56-1.14-.37-.24-.91-.36-1.6-.36-.8,0-1.37.22-1.71.65-.19.24-.31.6-.37,1.07h-1.44c.03-1.13.39-1.92,1.1-2.36.7-.44,1.52-.66,2.45-.66,1.08,0,1.95.21,2.62.62.67.41,1,1.05,1,1.91v5.27c0,.16.03.29.1.38s.2.14.41.14c.07,0,.15,0,.23-.01.09,0,.18-.02.27-.04v1.14c-.24.07-.42.11-.55.13-.12.02-.29.03-.51.03-.53,0-.91-.19-1.15-.56-.12-.2-.21-.48-.26-.85-.31.41-.76.77-1.35,1.07-.59.3-1.23.45-1.94.45-.85,0-1.54-.26-2.08-.77-.54-.51-.81-1.16-.81-1.93,0-.85.26-1.5.79-1.97.53-.47,1.23-.75,2.09-.86l2.45-.31Zm-3.24,4.15c.33.26.71.38,1.15.38.54,0,1.06-.12,1.57-.38.85-.42,1.28-1.09,1.28-2.04v-1.24c-.19.12-.43.22-.72.3-.29.08-.59.14-.87.17l-.93.12c-.56.07-.98.19-1.26.35-.47.27-.71.69-.71,1.28,0,.44.16.79.49,1.05Z" style="fill:gray;"/><rect x="155.56" y="52.8" width="133.42" height="37.52" style="fill:#f2f2f2;"/><rect x="150.47" y="47.97" width="133.42" height="38.62" style="fill:#e6e6e6;"/><rect x="150.47" y="47.97" width="133.42" height="38.62" style="fill:none; stroke:#545454; stroke-miterlimit:10; stroke-width:.65px;"/><path d="m157.46,60.86h5.57c1.52,0,2.6.45,3.24,1.35.38.53.56,1.15.56,1.84,0,.81-.23,1.48-.69,2-.24.28-.58.53-1.03.75.66.25,1.15.54,1.48.85.58.56.87,1.34.87,2.32,0,.83-.26,1.58-.79,2.25-.78,1-2.03,1.51-3.73,1.51h-5.48v-12.88Zm4.92,5.44c.74,0,1.32-.1,1.74-.31.65-.32.97-.9.97-1.74s-.35-1.41-1.04-1.7c-.39-.16-.97-.25-1.74-.25h-3.15v3.99h3.21Zm.59,5.94c1.08,0,1.85-.31,2.31-.93.29-.39.43-.86.43-1.42,0-.93-.42-1.57-1.27-1.91-.45-.18-1.04-.27-1.78-.27h-3.5v4.53h3.8Z" style="fill:gray;"/><path d="m169.26,60.86h1.6v1.79h-1.6v-1.79Zm0,3.53h1.6v9.34h-1.6v-9.34Z" style="fill:gray;"/><path d="m179.42,64.85c.66.51,1.06,1.4,1.2,2.66h-1.53c-.09-.58-.31-1.06-.64-1.44s-.87-.57-1.6-.57c-1,0-1.72.49-2.16,1.47-.28.64-.42,1.42-.42,2.36s.2,1.73.6,2.37c.4.64,1.02.96,1.88.96.66,0,1.17-.2,1.56-.6.38-.4.65-.94.79-1.64h1.53c-.17,1.24-.61,2.16-1.31,2.73-.7.58-1.6.86-2.69.86-1.23,0-2.21-.45-2.94-1.35-.73-.9-1.1-2.02-1.1-3.36,0-1.65.4-2.93,1.2-3.85.8-.92,1.82-1.38,3.06-1.38,1.06,0,1.92.26,2.58.77Z" style="fill:gray;"/><path d="m187.97,64.35h1.75c-.22.6-.72,1.98-1.48,4.12-.57,1.61-1.05,2.93-1.44,3.95-.91,2.39-1.55,3.85-1.93,4.38-.37.53-1.02.79-1.93.79-.22,0-.39,0-.51-.03-.12-.02-.27-.05-.44-.1v-1.44c.27.08.47.12.59.14.12.02.23.03.32.03.29,0,.51-.05.64-.14.14-.1.25-.21.35-.35.03-.05.13-.29.32-.72s.31-.75.39-.96l-3.47-9.67h1.79l2.52,7.65,2.53-7.65Z" style="fill:gray;"/><path d="m196.95,64.85c.66.51,1.06,1.4,1.2,2.66h-1.53c-.09-.58-.31-1.06-.64-1.44-.33-.38-.87-.57-1.6-.57-1.01,0-1.72.49-2.16,1.47-.28.64-.42,1.42-.42,2.36s.2,1.73.6,2.37c.4.64,1.02.96,1.88.96.65,0,1.17-.2,1.56-.6.38-.4.65-.94.79-1.64h1.53c-.18,1.24-.61,2.16-1.32,2.73-.7.58-1.6.86-2.69.86-1.23,0-2.21-.45-2.94-1.35-.73-.9-1.1-2.02-1.1-3.36,0-1.65.4-2.93,1.2-3.85.8-.92,1.82-1.38,3.06-1.38,1.06,0,1.92.26,2.58.77Z" style="fill:gray;"/><path d="m199.8,60.86h1.58v12.88h-1.58v-12.88Z" style="fill:gray;"/><path d="m209.47,64.61c.62.31,1.09.72,1.42,1.21.31.47.52,1.03.63,1.66.09.43.14,1.12.14,2.07h-6.83c.03.96.25,1.72.67,2.3.42.58,1.06.87,1.94.87.82,0,1.47-.27,1.96-.82.27-.32.47-.68.58-1.1h1.55c-.04.34-.18.73-.41,1.15-.23.42-.49.77-.77,1.04-.48.47-1.06.78-1.77.95-.38.09-.8.14-1.28.14-1.16,0-2.15-.42-2.95-1.28-.81-.85-1.21-2.04-1.21-3.57s.41-2.73,1.22-3.67c.81-.94,1.88-1.41,3.19-1.41.66,0,1.3.16,1.93.47Zm.57,3.69c-.06-.68-.21-1.23-.44-1.64-.43-.76-1.14-1.14-2.15-1.14-.72,0-1.32.26-1.81.78-.49.52-.74,1.19-.77,1.99h5.17Z" style="fill:gray;"/><path d="m219.02,60.86h5.76c1.14,0,2.06.32,2.76.97s1.05,1.55,1.05,2.72c0,1.01-.31,1.88-.94,2.63s-1.58,1.12-2.87,1.12h-4.02v5.44h-1.75v-12.88Zm6.77,1.77c-.38-.18-.91-.27-1.58-.27h-3.45v4.46h3.45c.78,0,1.41-.17,1.89-.5.49-.33.73-.92.73-1.76,0-.95-.35-1.59-1.04-1.93Z" style="fill:gray;"/><path d="m235.08,68.05c.36-.05.61-.2.73-.45.07-.14.11-.34.11-.61,0-.54-.19-.93-.57-1.17-.38-.24-.93-.37-1.64-.37-.82,0-1.41.22-1.75.67-.19.25-.32.61-.38,1.1h-1.47c.03-1.16.4-1.97,1.12-2.42s1.56-.68,2.51-.68c1.1,0,2,.21,2.69.63.68.42,1.02,1.08,1.02,1.96v5.41c0,.16.03.29.1.39.07.1.21.15.42.15.07,0,.15,0,.24-.01s.18-.02.28-.04v1.17c-.25.07-.43.11-.56.13-.13.02-.3.03-.53.03-.54,0-.94-.19-1.18-.58-.13-.2-.22-.49-.27-.87-.32.42-.78.79-1.39,1.1-.6.31-1.26.46-1.99.46-.87,0-1.58-.26-2.13-.79-.55-.53-.83-1.19-.83-1.98,0-.87.27-1.54.82-2.02.54-.48,1.26-.77,2.14-.88l2.52-.32Zm-3.32,4.26c.33.26.73.39,1.18.39.55,0,1.09-.13,1.61-.39.88-.43,1.32-1.12,1.32-2.09v-1.27c-.19.12-.44.23-.74.31-.3.08-.6.14-.89.18l-.95.12c-.57.08-1,.2-1.29.36-.49.27-.73.71-.73,1.31,0,.46.17.81.5,1.08Z" style="fill:gray;"/><path d="m239.93,64.35h1.5v1.62c.12-.32.42-.7.9-1.15.48-.45,1.03-.68,1.66-.68.03,0,.08,0,.15,0,.07,0,.19.02.36.04v1.67c-.09-.02-.18-.03-.26-.04s-.17,0-.26,0c-.79,0-1.41.26-1.83.77-.43.51-.64,1.1-.64,1.77v5.4h-1.58v-9.39Z" style="fill:gray;"/><path d="m245.78,60.86h1.52v7.48l4.05-3.99h2.02l-3.61,3.49,3.81,5.9h-2.02l-2.95-4.78-1.3,1.25v3.52h-1.52v-12.88Z" style="fill:gray;"/><path d="m254.8,60.86h1.6v1.79h-1.6v-1.79Zm0,3.53h1.6v9.34h-1.6v-9.34Z" style="fill:gray;"/><path d="m258.64,64.35h1.5v1.33c.44-.55.92-.94,1.41-1.18.5-.24,1.05-.36,1.66-.36,1.33,0,2.23.46,2.7,1.39.26.51.39,1.24.39,2.18v6.02h-1.6v-5.92c0-.57-.08-1.04-.25-1.39-.28-.58-.79-.88-1.53-.88-.37,0-.68.04-.92.11-.43.13-.81.39-1.14.77-.26.31-.43.63-.51.96s-.12.8-.12,1.42v4.92h-1.58v-9.39Z" style="fill:gray;"/><path d="m273.81,64.73c.3.2.6.5.91.89v-1.18h1.46v8.54c0,1.19-.17,2.13-.52,2.82-.65,1.27-1.88,1.91-3.7,1.91-1.01,0-1.86-.23-2.54-.68-.69-.45-1.07-1.16-1.15-2.13h1.6c.08.42.23.75.45.97.35.35.91.53,1.67.53,1.2,0,1.99-.43,2.36-1.28.22-.5.32-1.4.3-2.69-.31.48-.69.84-1.13,1.07-.44.23-1.03.35-1.75.35-1.01,0-1.9-.36-2.66-1.08s-1.14-1.92-1.14-3.58c0-1.57.38-2.8,1.15-3.68.77-.88,1.69-1.32,2.77-1.32.73,0,1.37.18,1.92.54Zm.19,1.69c-.48-.56-1.08-.84-1.82-.84-1.1,0-1.86.52-2.27,1.56-.21.56-.32,1.28-.32,2.18,0,1.06.21,1.86.64,2.42.43.55,1,.83,1.72.83,1.13,0,1.92-.51,2.38-1.53.26-.58.38-1.25.38-2.03,0-1.16-.24-2.02-.71-2.59Z" style="fill:gray;"/><path d="m299.85,458.32h4.81c.79,0,1.45.12,1.96.35.98.45,1.46,1.29,1.46,2.5,0,.63-.13,1.15-.39,1.56s-.63.73-1.1.97c.41.17.72.39.93.66s.33.72.35,1.33l.05,1.42c.01.4.05.7.1.9.09.34.24.55.46.65v.24h-1.76c-.05-.09-.09-.21-.12-.35-.03-.14-.05-.42-.07-.84l-.09-1.76c-.03-.69-.28-1.16-.75-1.39-.27-.13-.68-.19-1.25-.19h-3.17v4.54h-1.43v-10.58Zm4.66,4.85c.65,0,1.17-.13,1.55-.4s.57-.75.57-1.46c0-.75-.27-1.27-.8-1.54-.29-.14-.67-.22-1.14-.22h-3.4v3.62h3.22Z" style="fill:#fff;"/><path d="m314.74,461.4c.51.26.9.59,1.17,1,.26.39.43.84.52,1.36.08.36.11.92.11,1.7h-5.61c.02.79.21,1.41.55,1.89.34.47.87.71,1.59.71.67,0,1.21-.22,1.61-.67.22-.26.38-.56.48-.9h1.27c-.03.28-.15.6-.33.95s-.4.63-.63.85c-.39.38-.87.64-1.45.78-.31.08-.66.12-1.05.12-.95,0-1.76-.35-2.43-1.05-.66-.7-.99-1.68-.99-2.93s.33-2.24,1-3.02c.67-.77,1.54-1.16,2.62-1.16.54,0,1.07.13,1.58.39Zm.46,3.03c-.05-.56-.17-1.01-.36-1.35-.35-.62-.94-.94-1.76-.94-.59,0-1.08.21-1.49.64-.4.43-.61.98-.64,1.64h4.25Z" style="fill:#fff;"/><path d="m318.83,466.48c.04.43.15.76.33.99.33.42.91.63,1.73.63.49,0,.92-.1,1.29-.31s.56-.53.56-.97c0-.33-.15-.58-.45-.76-.19-.11-.57-.23-1.13-.37l-1.05-.26c-.67-.16-1.16-.35-1.48-.55-.57-.35-.85-.84-.85-1.46,0-.73.27-1.32.8-1.77.53-.45,1.25-.68,2.15-.68,1.18,0,2.03.34,2.55,1.02.33.43.48.9.47,1.4h-1.22c-.03-.29-.13-.56-.32-.79-.3-.34-.83-.51-1.58-.51-.5,0-.88.09-1.14.28-.26.19-.39.43-.39.74,0,.33.17.6.51.8.2.12.48.22.87.32l.87.21c.95.23,1.58.44,1.91.66.5.33.76.85.76,1.56s-.26,1.28-.79,1.78c-.53.5-1.33.75-2.41.75-1.16,0-1.98-.26-2.47-.78-.48-.52-.74-1.17-.78-1.93h1.25Z" style="fill:#fff;"/><path d="m325.66,459.03h1.31v2.15h1.23v1.06h-1.23v5.03c0,.27.09.45.27.54.1.05.27.08.5.08.06,0,.13,0,.2,0s.16-.01.25-.02v1.03c-.15.04-.3.07-.46.09-.16.02-.33.03-.52.03-.61,0-1.02-.15-1.23-.46s-.32-.71-.32-1.21v-5.11h-1.04v-1.06h1.04v-2.15Z" style="fill:#fff;"/><path d="m329.45,461.18h1.23v1.33c.1-.26.35-.57.74-.95s.85-.56,1.36-.56c.02,0,.06,0,.12,0,.06,0,.16.01.29.03v1.37c-.08-.01-.15-.02-.21-.03-.07,0-.14,0-.21,0-.65,0-1.15.21-1.5.63-.35.42-.53.9-.53,1.45v4.44h-1.3v-7.71Z" style="fill:#fff;"/><path d="m339.85,461.95c.68.66,1.02,1.64,1.02,2.92s-.3,2.27-.9,3.08-1.53,1.22-2.8,1.22c-1.05,0-1.89-.36-2.51-1.08-.62-.72-.93-1.68-.93-2.89,0-1.3.33-2.33.98-3.09.65-.77,1.53-1.15,2.63-1.15.99,0,1.82.33,2.5.99Zm-.8,5.13c.32-.65.47-1.37.47-2.17,0-.72-.11-1.3-.34-1.76-.36-.71-.98-1.06-1.87-1.06-.78,0-1.35.3-1.71.91-.36.6-.53,1.33-.53,2.19s.18,1.5.53,2.05c.36.55.92.82,1.7.82.85,0,1.43-.32,1.75-.97Z" style="fill:#fff;"/><path d="m348.04,461.95c.68.66,1.02,1.64,1.02,2.92s-.3,2.27-.9,3.08-1.53,1.22-2.8,1.22c-1.05,0-1.89-.36-2.51-1.08-.62-.72-.93-1.68-.93-2.89,0-1.3.33-2.33.98-3.09.65-.77,1.53-1.15,2.63-1.15.99,0,1.82.33,2.5.99Zm-.8,5.13c.32-.65.47-1.37.47-2.17,0-.72-.11-1.3-.34-1.76-.36-.71-.98-1.06-1.87-1.06-.78,0-1.35.3-1.71.91-.36.6-.53,1.33-.53,2.19s.18,1.5.53,2.05c.36.55.92.82,1.7.82.85,0,1.43-.32,1.75-.97Z" style="fill:#fff;"/><path d="m350.57,461.18h1.28v1.09c.31-.38.59-.66.83-.83.43-.29.91-.44,1.46-.44.61,0,1.11.15,1.48.45.21.17.4.43.58.76.29-.41.63-.72,1.02-.92s.83-.3,1.31-.3c1.04,0,1.74.38,2.12,1.12.2.4.3.95.3,1.63v5.13h-1.35v-5.36c0-.51-.13-.87-.39-1.06-.26-.19-.57-.29-.94-.29-.51,0-.95.17-1.31.51s-.55.91-.55,1.71v4.49h-1.32v-5.03c0-.52-.06-.9-.19-1.14-.2-.36-.56-.54-1.1-.54-.49,0-.93.19-1.33.57-.4.38-.6,1.07-.6,2.06v4.09h-1.3v-7.71Z" style="fill:#fff;"/><path d="m183.13,493.92c.04.73.21,1.32.5,1.78.56.85,1.54,1.28,2.95,1.28.63,0,1.21-.09,1.72-.28,1-.36,1.5-1.01,1.5-1.95,0-.7-.21-1.2-.64-1.5-.43-.29-1.1-.55-2.02-.76l-1.69-.39c-1.1-.26-1.89-.54-2.34-.85-.79-.54-1.19-1.34-1.19-2.41,0-1.16.39-2.11,1.17-2.85s1.88-1.11,3.31-1.11c1.31,0,2.43.33,3.35.98.92.65,1.38,1.69,1.38,3.12h-1.64c-.08-.69-.26-1.22-.54-1.59-.51-.67-1.38-1.01-2.6-1.01-.99,0-1.7.22-2.13.65-.43.43-.65.94-.65,1.51,0,.63.25,1.09.76,1.38.33.19,1.09.42,2.27.7l1.75.41c.84.2,1.5.47,1.95.82.79.6,1.19,1.48,1.19,2.62,0,1.43-.51,2.45-1.52,3.06-1.01.61-2.19.92-3.53.92-1.56,0-2.78-.41-3.67-1.23-.88-.81-1.32-1.91-1.3-3.3h1.64Z" style="fill:gray;"/><path d="m193.87,486.06h1.6v2.62h1.5v1.29h-1.5v6.13c0,.33.11.55.33.66.12.06.33.1.61.1.08,0,.16,0,.25,0s.19-.01.31-.03v1.25c-.18.05-.37.09-.57.11-.2.02-.41.04-.64.04-.74,0-1.24-.19-1.5-.57-.26-.38-.39-.87-.39-1.47v-6.22h-1.27v-1.29h1.27v-2.62Z" style="fill:gray;"/><path d="m203.53,492.39c.36-.05.6-.2.73-.45.07-.14.1-.34.1-.61,0-.54-.19-.93-.57-1.17-.38-.24-.93-.37-1.64-.37-.82,0-1.41.22-1.75.67-.19.25-.32.61-.38,1.1h-1.47c.03-1.16.4-1.97,1.12-2.42s1.56-.68,2.51-.68c1.1,0,2,.21,2.69.63.68.42,1.02,1.08,1.02,1.96v5.41c0,.16.03.29.1.39.07.1.21.15.42.15.07,0,.15,0,.24-.01.09,0,.18-.02.28-.04v1.17c-.25.07-.43.11-.56.13-.13.02-.3.03-.53.03-.54,0-.94-.19-1.18-.58-.13-.2-.22-.49-.27-.87-.32.42-.78.79-1.38,1.1-.6.31-1.27.46-1.99.46-.87,0-1.58-.26-2.13-.79-.55-.53-.83-1.19-.83-1.98,0-.87.27-1.54.82-2.02.54-.48,1.26-.77,2.14-.88l2.52-.32Zm-3.32,4.26c.33.26.73.39,1.18.39.56,0,1.09-.13,1.61-.39.88-.43,1.31-1.12,1.31-2.09v-1.27c-.19.12-.44.23-.74.31-.3.08-.6.14-.89.18l-.95.12c-.57.08-1,.2-1.29.36-.49.27-.73.71-.73,1.31,0,.46.17.81.5,1.08Z" style="fill:gray;"/><path d="m208.52,486.06h1.6v2.62h1.5v1.29h-1.5v6.13c0,.33.11.55.33.66.12.06.33.1.61.1.08,0,.16,0,.25,0s.19-.01.31-.03v1.25c-.18.05-.37.09-.57.11-.2.02-.41.04-.64.04-.74,0-1.24-.19-1.5-.57-.26-.38-.39-.87-.39-1.47v-6.22h-1.27v-1.29h1.27v-2.62Z" style="fill:gray;"/><path d="m213.12,485.2h1.6v1.79h-1.6v-1.79Zm0,3.53h1.6v9.34h-1.6v-9.34Z" style="fill:gray;"/><path d="m223.88,489.62c.83.81,1.25,1.99,1.25,3.56s-.37,2.76-1.1,3.75c-.73.99-1.87,1.48-3.4,1.48-1.28,0-2.3-.44-3.06-1.31-.75-.87-1.13-2.04-1.13-3.52,0-1.58.4-2.83,1.19-3.77.79-.93,1.86-1.4,3.2-1.4,1.2,0,2.22.4,3.05,1.21Zm-.98,6.24c.38-.79.58-1.67.58-2.64,0-.88-.14-1.59-.42-2.14-.44-.86-1.2-1.3-2.27-1.3-.95,0-1.65.37-2.08,1.1-.43.74-.65,1.62-.65,2.66s.22,1.83.65,2.5c.43.67,1.12,1,2.06,1,1.03,0,1.74-.4,2.13-1.19Z" style="fill:gray;"/><path d="m226.94,488.69h1.5v1.33c.44-.55.92-.94,1.41-1.18.5-.24,1.05-.36,1.66-.36,1.33,0,2.23.46,2.7,1.39.26.51.39,1.24.39,2.18v6.02h-1.6v-5.92c0-.57-.08-1.04-.25-1.39-.28-.58-.79-.88-1.53-.88-.37,0-.68.04-.92.11-.43.13-.81.39-1.14.77-.26.31-.43.63-.51.96s-.12.8-.12,1.42v4.92h-1.58v-9.39Z" style="fill:gray;"/><path d="m242.62,488.94c.62.31,1.09.72,1.42,1.21.31.47.52,1.03.63,1.66.09.43.14,1.12.14,2.07h-6.83c.03.96.25,1.72.67,2.3.42.58,1.06.87,1.94.87.82,0,1.47-.27,1.96-.82.27-.32.47-.68.58-1.1h1.55c-.04.34-.18.73-.41,1.15-.23.42-.49.77-.77,1.04-.48.47-1.06.78-1.77.95-.38.09-.8.14-1.28.14-1.16,0-2.15-.42-2.95-1.28-.81-.85-1.21-2.04-1.21-3.57s.41-2.73,1.22-3.67c.81-.94,1.88-1.41,3.19-1.41.66,0,1.3.16,1.93.47Zm.57,3.69c-.06-.68-.21-1.23-.44-1.64-.43-.76-1.14-1.14-2.15-1.14-.72,0-1.32.26-1.81.78-.49.52-.74,1.19-.77,1.99h5.17Z" style="fill:gray;"/><path d="m246.68,488.69h1.5v1.62c.12-.32.42-.7.9-1.15.48-.45,1.03-.68,1.66-.68.03,0,.08,0,.15,0s.19.02.36.04v1.67c-.09-.02-.18-.03-.26-.04-.08,0-.17,0-.26,0-.79,0-1.41.26-1.83.77-.43.51-.64,1.1-.64,1.77v5.4h-1.58v-9.39Z" style="fill:gray;"/><path d="m258.9,488.69h1.75c-.22.6-.72,1.98-1.48,4.12-.57,1.61-1.05,2.93-1.44,3.95-.91,2.39-1.55,3.85-1.93,4.38-.37.53-1.02.79-1.93.79-.22,0-.39,0-.51-.03-.12-.02-.27-.05-.44-.1v-1.44c.27.08.47.12.59.14.12.02.23.03.32.03.29,0,.51-.05.64-.14.14-.1.25-.21.35-.35.03-.05.13-.29.32-.72s.31-.75.39-.96l-3.47-9.67h1.79l2.52,7.65,2.53-7.65Z" style="fill:gray;"/><path d="m277.82,487.04c.85,1.14,1.28,2.6,1.28,4.37,0,1.92-.49,3.52-1.46,4.8-1.15,1.5-2.78,2.24-4.9,2.24-1.98,0-3.54-.65-4.67-1.96-1.01-1.26-1.52-2.86-1.52-4.79,0-1.74.43-3.23,1.3-4.47,1.11-1.59,2.75-2.38,4.93-2.38s3.96.73,5.05,2.19Zm-1.54,8.21c.69-1.1,1.03-2.37,1.03-3.8,0-1.52-.4-2.73-1.19-3.66-.79-.92-1.87-1.39-3.25-1.39s-2.42.46-3.26,1.37c-.84.92-1.26,2.26-1.26,4.05,0,1.43.36,2.63,1.08,3.61s1.89,1.47,3.51,1.47,2.65-.55,3.34-1.65Z" style="fill:gray;"/><path d="m281.83,485.82c.37-.54,1.08-.81,2.13-.81.1,0,.2,0,.31,0,.11,0,.23.01.36.03v1.44c-.17-.01-.29-.02-.36-.02-.07,0-.14,0-.21,0-.48,0-.77.12-.87.37s-.14.88-.14,1.9h1.58v1.24h-1.58v8.1h-1.56v-8.1h-1.31v-1.24h1.31v-1.47c.02-.65.14-1.13.34-1.44Z" style="fill:gray;"/><path d="m287.17,485.82c.37-.54,1.08-.81,2.13-.81.1,0,.2,0,.31,0s.22.01.36.03v1.44c-.17-.01-.29-.02-.36-.02-.07,0-.14,0-.21,0-.48,0-.77.12-.87.37s-.14.88-.14,1.9h1.58v1.24h-1.58v8.1h-1.56v-8.1h-1.31v-1.24h1.31v-1.47c.02-.65.14-1.13.34-1.44Z" style="fill:gray;"/><path d="m291.32,485.2h1.6v1.79h-1.6v-1.79Zm0,3.53h1.6v9.34h-1.6v-9.34Z" style="fill:gray;"/><path d="m301.47,489.18c.66.51,1.06,1.4,1.2,2.66h-1.53c-.09-.58-.31-1.06-.64-1.44s-.87-.57-1.6-.57c-1,0-1.72.49-2.16,1.47-.28.64-.42,1.42-.42,2.36s.2,1.73.6,2.37c.4.64,1.02.96,1.88.96.66,0,1.17-.2,1.56-.6.38-.4.65-.94.79-1.64h1.53c-.17,1.24-.61,2.16-1.31,2.73-.7.58-1.6.86-2.69.86-1.23,0-2.21-.45-2.94-1.35-.73-.9-1.1-2.02-1.1-3.36,0-1.65.4-2.93,1.2-3.85.8-.92,1.82-1.38,3.06-1.38,1.06,0,1.92.26,2.58.77Z" style="fill:gray;"/><path d="m310.12,488.94c.62.31,1.09.72,1.42,1.21.31.47.52,1.03.63,1.66.09.43.14,1.12.14,2.07h-6.83c.03.96.25,1.72.67,2.3.42.58,1.06.87,1.94.87.82,0,1.47-.27,1.96-.82.27-.32.47-.68.58-1.1h1.55c-.04.34-.18.73-.41,1.15-.23.42-.49.77-.77,1.04-.48.47-1.06.78-1.77.95-.38.09-.8.14-1.28.14-1.16,0-2.15-.42-2.95-1.28-.81-.85-1.21-2.04-1.21-3.57s.41-2.73,1.22-3.67c.81-.94,1.88-1.41,3.19-1.41.66,0,1.3.16,1.93.47Zm.57,3.69c-.06-.68-.21-1.23-.44-1.64-.43-.76-1.14-1.14-2.15-1.14-.72,0-1.32.26-1.81.78-.49.52-.74,1.19-.77,1.99h5.17Z" style="fill:gray;"/><path d="m102.72,433.52v1.54h-4.34v11.34h-1.76v-11.34h-4.34v-1.54h10.44Z" style="fill:gray;"/><path d="m104.05,433.52h1.6v1.79h-1.6v-1.79Zm0,3.53h1.6v9.35h-1.6v-9.35Z" style="fill:gray;"/><path d="m114.21,437.51c.66.52,1.06,1.4,1.2,2.66h-1.53c-.09-.58-.31-1.06-.64-1.44s-.87-.57-1.6-.57c-1,0-1.72.49-2.16,1.47-.28.64-.42,1.42-.42,2.36s.2,1.73.6,2.37,1.02.96,1.88.96c.66,0,1.17-.2,1.56-.6s.65-.95.79-1.64h1.53c-.17,1.24-.61,2.15-1.31,2.73s-1.6.86-2.69.86c-1.23,0-2.21-.45-2.94-1.35-.73-.9-1.1-2.02-1.1-3.36,0-1.65.4-2.93,1.2-3.85s1.82-1.38,3.06-1.38c1.06,0,1.92.26,2.58.77Z" style="fill:gray;"/><path d="m117,433.52h1.52v7.48l4.05-3.99h2.02l-3.61,3.49,3.81,5.9h-2.02l-2.95-4.78-1.3,1.25v3.53h-1.52v-12.88Z" style="fill:gray;"/><path d="m131.34,437.27c.62.31,1.09.72,1.42,1.21.31.47.52,1.03.63,1.66.09.43.14,1.12.14,2.07h-6.83c.03.96.25,1.72.67,2.3.42.58,1.06.87,1.94.87.82,0,1.47-.27,1.96-.82.27-.32.47-.68.58-1.1h1.55c-.04.34-.18.73-.41,1.15-.23.42-.49.77-.77,1.04-.48.47-1.06.78-1.77.95-.38.09-.8.14-1.28.14-1.16,0-2.15-.42-2.95-1.28-.81-.85-1.21-2.04-1.21-3.57s.41-2.73,1.22-3.67c.81-.94,1.88-1.41,3.19-1.41.66,0,1.3.16,1.92.47Zm.57,3.69c-.06-.68-.21-1.23-.44-1.64-.43-.76-1.14-1.14-2.15-1.14-.72,0-1.32.26-1.81.78-.49.52-.75,1.19-.77,1.99h5.17Z" style="fill:gray;"/><path d="m135.56,434.38h1.6v2.62h1.5v1.29h-1.5v6.13c0,.33.11.55.33.66.12.06.33.1.61.1.08,0,.16,0,.25,0s.19-.01.31-.03v1.25c-.18.05-.37.09-.57.11-.2.02-.41.04-.64.04-.74,0-1.24-.19-1.5-.56-.26-.38-.39-.87-.39-1.47v-6.22h-1.27v-1.29h1.27v-2.62Z" style="fill:gray;"/><path d="m4.84,452.06l3.7,10.97,3.66-10.97h1.96l-4.7,12.88h-1.85l-4.69-12.88h1.93Z" style="fill:gray;"/><path d="m20.35,455.81c.62.31,1.09.72,1.42,1.21.31.47.52,1.03.63,1.66.09.43.14,1.12.14,2.07h-6.83c.03.96.25,1.72.67,2.3.42.58,1.06.87,1.94.87.82,0,1.47-.27,1.96-.82.27-.32.47-.68.58-1.1h1.55c-.04.34-.18.73-.41,1.15-.23.42-.49.77-.77,1.04-.48.47-1.06.78-1.77.95-.38.09-.8.14-1.28.14-1.16,0-2.15-.42-2.95-1.28-.81-.85-1.21-2.04-1.21-3.57s.41-2.73,1.22-3.67c.81-.94,1.88-1.41,3.19-1.41.66,0,1.3.16,1.93.47Zm.57,3.69c-.06-.68-.21-1.23-.44-1.64-.43-.76-1.14-1.14-2.15-1.14-.72,0-1.32.26-1.81.78-.49.52-.74,1.19-.77,1.99h5.17Z" style="fill:gray;"/><path d="m24.39,455.55h1.5v1.33c.44-.55.91-.94,1.41-1.18s1.05-.36,1.66-.36c1.33,0,2.23.46,2.7,1.39.26.51.39,1.23.39,2.18v6.02h-1.6v-5.92c0-.57-.08-1.04-.25-1.38-.28-.58-.79-.88-1.53-.88-.38,0-.68.04-.92.11-.43.13-.81.39-1.14.77-.26.31-.43.63-.51.96s-.12.8-.12,1.42v4.92h-1.58v-9.39Z" style="fill:gray;"/><path d="m39.51,455.84c.28.17.6.48.95.92v-4.74h1.52v12.92h-1.42v-1.31c-.37.58-.8,1-1.3,1.25-.5.26-1.07.38-1.72.38-1.04,0-1.95-.44-2.71-1.32-.76-.88-1.14-2.05-1.14-3.51,0-1.37.35-2.55,1.04-3.55.7-1,1.69-1.5,2.98-1.5.72,0,1.32.15,1.8.46Zm-3.52,7.04c.42.68,1.1,1.02,2.04,1.02.73,0,1.32-.31,1.79-.94s.7-1.53.7-2.71-.24-2.06-.72-2.63c-.48-.57-1.08-.86-1.79-.86-.79,0-1.43.3-1.92.91s-.74,1.5-.74,2.68c0,1.01.21,1.85.64,2.53Z" style="fill:gray;"/><path d="m44.21,452.06h1.6v1.79h-1.6v-1.79Zm0,3.53h1.6v9.35h-1.6v-9.35Z" style="fill:gray;"/><path d="m48.05,455.55h1.5v1.33c.44-.55.91-.94,1.41-1.18s1.05-.36,1.66-.36c1.33,0,2.23.46,2.7,1.39.26.51.39,1.23.39,2.18v6.02h-1.6v-5.92c0-.57-.08-1.04-.25-1.38-.28-.58-.79-.88-1.53-.88-.38,0-.68.04-.92.11-.43.13-.81.39-1.14.77-.26.31-.43.63-.51.96s-.12.8-.12,1.42v4.92h-1.58v-9.39Z" style="fill:gray;"/><path d="m63.22,455.93c.3.2.6.5.91.89v-1.18h1.46v8.54c0,1.19-.17,2.13-.52,2.82-.65,1.27-1.88,1.91-3.7,1.91-1.01,0-1.86-.23-2.54-.68s-1.07-1.16-1.15-2.12h1.6c.08.42.23.74.45.97.35.35.91.53,1.67.53,1.2,0,1.99-.43,2.36-1.28.22-.5.32-1.4.31-2.69-.31.48-.69.84-1.14,1.07-.44.23-1.03.35-1.75.35-1.01,0-1.9-.36-2.66-1.08-.76-.72-1.14-1.92-1.14-3.58,0-1.57.38-2.8,1.15-3.68s1.69-1.32,2.77-1.32c.73,0,1.37.18,1.92.54Zm.19,1.69c-.48-.56-1.08-.84-1.82-.84-1.11,0-1.86.52-2.27,1.56-.22.55-.32,1.28-.32,2.18,0,1.06.21,1.86.64,2.41.43.55,1,.83,1.72.83,1.13,0,1.92-.51,2.38-1.53.26-.58.38-1.25.38-2.03,0-1.16-.24-2.03-.72-2.59Z" style="fill:gray;"/><path d="m73.14,452.06h2.5l3.7,10.89,3.68-10.89h2.48v12.88h-1.67v-7.6c0-.26,0-.7.02-1.31.01-.61.02-1.26.02-1.96l-3.68,10.86h-1.73l-3.71-10.86v.39c0,.32,0,.8.03,1.44s.03,1.12.03,1.42v7.6h-1.67v-12.88Z" style="fill:gray;"/><path d="m92.87,459.26c.36-.04.6-.2.73-.45.07-.14.1-.34.1-.61,0-.54-.19-.93-.57-1.18-.38-.24-.93-.37-1.64-.37-.82,0-1.41.22-1.75.67-.19.25-.32.61-.38,1.1h-1.47c.03-1.16.4-1.97,1.12-2.42.72-.46,1.56-.68,2.51-.68,1.1,0,2,.21,2.69.63.68.42,1.02,1.08,1.02,1.96v5.41c0,.16.03.29.1.39.07.1.21.15.42.15.07,0,.15,0,.24-.01.09,0,.18-.02.28-.04v1.17c-.25.07-.43.12-.56.13-.13.02-.3.03-.53.03-.54,0-.94-.19-1.18-.58-.13-.21-.22-.49-.27-.87-.32.42-.78.79-1.38,1.1-.6.31-1.27.46-1.99.46-.87,0-1.58-.26-2.13-.79-.55-.53-.83-1.19-.83-1.98,0-.87.27-1.54.82-2.02.54-.48,1.26-.77,2.14-.88l2.52-.32Zm-3.32,4.26c.33.26.73.39,1.18.39.56,0,1.09-.13,1.61-.39.88-.43,1.31-1.12,1.31-2.09v-1.27c-.19.12-.44.22-.74.31-.3.08-.6.14-.89.18l-.95.12c-.57.08-1,.2-1.29.36-.49.27-.73.71-.73,1.31,0,.46.17.81.5,1.08Z" style="fill:gray;"/><path d="m103.87,456.05c.66.52,1.06,1.4,1.2,2.66h-1.53c-.09-.58-.31-1.06-.64-1.44-.33-.38-.87-.57-1.6-.57-1.01,0-1.72.49-2.16,1.47-.28.64-.42,1.42-.42,2.36s.2,1.73.6,2.37,1.02.96,1.88.96c.65,0,1.17-.2,1.56-.6s.65-.95.79-1.64h1.53c-.18,1.24-.61,2.15-1.32,2.73s-1.6.86-2.69.86c-1.23,0-2.21-.45-2.94-1.35s-1.1-2.02-1.1-3.36c0-1.65.4-2.93,1.2-3.85s1.82-1.38,3.06-1.38c1.06,0,1.92.26,2.58.77Z" style="fill:gray;"/><path d="m106.68,452.02h1.58v4.8c.37-.47.71-.81,1.01-1,.51-.33,1.14-.5,1.9-.5,1.36,0,2.29.48,2.77,1.43.26.52.39,1.24.39,2.17v6.02h-1.62v-5.92c0-.69-.09-1.2-.26-1.52-.29-.51-.82-.77-1.61-.77-.66,0-1.25.22-1.78.67-.53.45-.8,1.3-.8,2.55v4.98h-1.58v-12.92Z" style="fill:gray;"/><path d="m116.53,452.06h1.6v1.79h-1.6v-1.79Zm0,3.53h1.6v9.35h-1.6v-9.35Z" style="fill:gray;"/><path d="m120.37,455.55h1.5v1.33c.44-.55.92-.94,1.41-1.18.5-.24,1.05-.36,1.66-.36,1.33,0,2.23.46,2.7,1.39.26.51.39,1.23.39,2.18v6.02h-1.6v-5.92c0-.57-.08-1.04-.25-1.38-.28-.58-.79-.88-1.53-.88-.37,0-.68.04-.92.11-.43.13-.81.39-1.14.77-.26.31-.43.63-.51.96s-.12.8-.12,1.42v4.92h-1.58v-9.39Z" style="fill:gray;"/><path d="m136.05,455.81c.62.31,1.09.72,1.42,1.21.31.47.52,1.03.63,1.66.09.43.14,1.12.14,2.07h-6.83c.03.96.25,1.72.67,2.3.42.58,1.06.87,1.94.87.82,0,1.47-.27,1.96-.82.27-.32.47-.68.58-1.1h1.55c-.04.34-.18.73-.41,1.15-.23.42-.49.77-.77,1.04-.48.47-1.06.78-1.77.95-.38.09-.8.14-1.28.14-1.16,0-2.15-.42-2.95-1.28-.81-.85-1.21-2.04-1.21-3.57s.41-2.73,1.22-3.67c.81-.94,1.88-1.41,3.19-1.41.66,0,1.3.16,1.93.47Zm.57,3.69c-.06-.68-.21-1.23-.44-1.64-.43-.76-1.14-1.14-2.15-1.14-.72,0-1.32.26-1.81.78-.49.52-.74,1.19-.77,1.99h5.17Z" style="fill:gray;"/></g></svg>