<?xml version="1.0" encoding="UTF-8"?><svg id="_レイヤー_2" xmlns="http://www.w3.org/2000/svg" width="986.85" height="521.71" viewBox="0 0 986.85 521.71"><g id="_レイヤー_2-2"><polygon points="576.28 421.96 157.29 421.96 108.39 475.83 12.65 475.83 12.65 369.12 522.41 369.12 522.41 102.72 489.5 102.72 489.5 49.86 576.28 49.86 576.28 421.96" style="fill:#f2f2f2;"/><polygon points="640.12 39.87 640.12 9.94 491.5 9.94 491.5 .17 399.95 0 399.95 491.78 161.28 491.78 161.28 521.71 986.26 521.71 986.26 491.78 491.5 491.78 491.5 39.87 640.12 39.87" style="fill:#e6e6e6;"/><path d="m445.6,349.17c-3.3,0-3.7,3.09-6.29,3.84h12.58c-2.59-.75-3-3.84-6.29-3.84Z" style="fill:#fff;"/><path d="m475.62,349.17c-3.3,0-3.7,3.09-6.29,3.84h12.58c-2.59-.75-3-3.84-6.29-3.84Z" style="fill:#fff;"/><path d="m460.61,349.17c-3.3,0-3.7,3.09-6.29,3.84h12.58c-2.59-.75-3-3.84-6.29-3.84Z" style="fill:#fff;"/><path d="m415.58,349.17c-3.3,0-3.7,3.09-6.29,3.84h12.59c-2.6-.75-3-3.84-6.3-3.84Z" style="fill:#fff;"/><path d="m490.62,349.17c-3.3,0-3.7,3.09-6.29,3.84h12.58c-2.59-.75-3-3.84-6.29-3.84Z" style="fill:#fff;"/><path d="m400.56,349.17c-3.3,0-3.7,3.09-6.3,3.84h12.6c-2.6-.75-3-3.84-6.3-3.84Z" style="fill:#fff;"/><path d="m430.59,349.17c-3.3,0-3.7,3.09-6.29,3.84h12.59c-2.59-.75-3-3.84-6.29-3.84Z" style="fill:#fff;"/><path d="m500.12,353h-3.21c.36.1.76.16,1.21.16h-105.08c.46,0,.85-.06,1.21-.16h-3.21v79.75h4.49c-.64-.48-1.41-.82-2.49-.82h105.08c-1.09,0-1.86.34-2.5.82h4.49v-79.75Z" style="fill:#fff;"/><path d="m468.11,353.17c-.46,0-.85-.06-1.21-.16h-12.58c-.36.1-.76.16-1.21.16h15.01Z" style="fill:#fff;"/><path d="m498.13,353.17c-.46,0-.85-.06-1.21-.16h-12.58c-.36.1-.76.16-1.21.16h15.01Z" style="fill:#fff;"/><path d="m483.12,353.17c-.46,0-.85-.06-1.21-.16h-12.58c-.36.1-.76.16-1.21.16h15.01Z" style="fill:#fff;"/><path d="m423.08,353.17c-.46,0-.85-.06-1.21-.16h-12.59c-.36.1-.76.16-1.21.16h15.02Z" style="fill:#fff;"/><path d="m453.1,353.17c-.46,0-.85-.06-1.21-.16h-12.58c-.36.1-.76.16-1.21.16h15.01Z" style="fill:#fff;"/><path d="m408.07,353.17c-.46,0-.85-.06-1.21-.16h-12.6c-.36.1-.76.16-1.21.16h15.02Z" style="fill:#fff;"/><path d="m438.1,353.17c-.46,0-.85-.06-1.21-.16h-12.59c-.36.1-.76.16-1.21.16h15.01Z" style="fill:#fff;"/><path d="m415.56,435.94c2.67,0,3.44-2.01,5.01-3.18h-10.02c1.57,1.17,2.34,3.18,5.01,3.18Z" style="fill:#fff;"/><path d="m430.57,435.94c2.66,0,3.44-2.01,5.01-3.18h-10.02c1.57,1.17,2.35,3.18,5.01,3.18Z" style="fill:#fff;"/><path d="m445.58,435.94c2.67,0,3.44-2.01,5.01-3.18h-10.02c1.57,1.17,2.34,3.18,5.01,3.18Z" style="fill:#fff;"/><path d="m475.6,435.94c2.67,0,3.44-2.01,5.01-3.18h-10.02c1.57,1.17,2.35,3.18,5.01,3.18Z" style="fill:#fff;"/><path d="m490.62,435.94c2.67,0,3.45-2.01,5.01-3.18h-10.03c1.57,1.17,2.35,3.18,5.01,3.18Z" style="fill:#fff;"/><path d="m460.58,435.94c2.67,0,3.44-2.01,5.01-3.18h-10.02c1.57,1.17,2.34,3.18,5.01,3.18Z" style="fill:#fff;"/><path d="m400.55,435.94c2.66,0,3.44-2.01,5.01-3.18h-10.02c1.57,1.17,2.34,3.18,5.01,3.18Z" style="fill:#fff;"/><path d="m393.05,431.94c1.09,0,1.85.34,2.49.82h10.02c.64-.48,1.41-.82,2.49-.82h-15.01Z" style="fill:#fff;"/><path d="m453.08,431.94c1.09,0,1.85.34,2.49.82h10.02c.64-.48,1.41-.82,2.5-.82h-15.01Z" style="fill:#fff;"/><path d="m438.07,431.94c1.09,0,1.85.34,2.49.82h10.02c.64-.48,1.41-.82,2.49-.82h-15.01Z" style="fill:#fff;"/><path d="m408.05,431.94c1.09,0,1.85.34,2.49.82h10.02c.64-.48,1.41-.82,2.49-.82h-15.01Z" style="fill:#fff;"/><path d="m483.11,431.94c1.09,0,1.86.34,2.5.82h10.03c.64-.48,1.41-.82,2.5-.82h-15.02Z" style="fill:#fff;"/><path d="m423.06,431.94c1.09,0,1.86.34,2.49.82h10.02c.64-.48,1.41-.82,2.49-.82h-15.01Z" style="fill:#fff;"/><path d="m468.09,431.94c1.09,0,1.86.34,2.5.82h10.02c.64-.48,1.41-.82,2.5-.82h-15.02Z" style="fill:#fff;"/><path d="m393.05,431.94c3.75,0,3.75,4,7.5,4s3.75-4,7.5-4,3.75,4,7.5,4,3.75-4,7.5-4,3.75,4,7.51,4,3.75-4,7.5-4,3.75,4,7.5,4,3.75-4,7.5-4,3.75,4,7.5,4,3.75-4,7.51-4,3.75,4,7.51,4,3.75-4,7.51-4,3.76,4,7.51,4,3.76-4,7.51-4" style="fill:none; stroke:#545454; stroke-miterlimit:10; stroke-width:.5px;"/><path d="m498.13,353.17c-3.75,0-3.75-4-7.5-4s-3.75,4-7.5,4-3.75-4-7.5-4-3.75,4-7.5,4-3.75-4-7.51-4-3.75,4-7.5,4-3.75-4-7.5-4-3.75,4-7.5,4-3.75-4-7.5-4-3.75,4-7.51,4-3.75-4-7.51-4-3.75,4-7.51,4-3.76-4-7.51-4-3.76,4-7.51,4" style="fill:none; stroke:#545454; stroke-miterlimit:10; stroke-width:.5px;"/><path d="m445.6,443.64c-3.3,0-3.7,3.09-6.29,3.84h12.58c-2.59-.75-3-3.84-6.29-3.84Z" style="fill:#fff;"/><path d="m475.62,443.64c-3.3,0-3.7,3.09-6.29,3.84h12.58c-2.59-.75-3-3.84-6.29-3.84Z" style="fill:#fff;"/><path d="m460.61,443.64c-3.3,0-3.7,3.09-6.29,3.84h12.58c-2.59-.75-3-3.84-6.29-3.84Z" style="fill:#fff;"/><path d="m415.58,443.64c-3.3,0-3.7,3.09-6.29,3.84h12.59c-2.6-.75-3-3.84-6.3-3.84Z" style="fill:#fff;"/><path d="m490.62,443.64c-3.3,0-3.7,3.09-6.29,3.84h12.58c-2.59-.75-3-3.84-6.29-3.84Z" style="fill:#fff;"/><path d="m400.56,443.64c-3.3,0-3.7,3.09-6.3,3.84h12.6c-2.6-.75-3-3.84-6.3-3.84Z" style="fill:#fff;"/><path d="m430.59,443.64c-3.3,0-3.7,3.09-6.29,3.84h12.59c-2.59-.75-3-3.84-6.29-3.84Z" style="fill:#fff;"/><path d="m500.12,447.47h-3.21c.36.1.76.16,1.21.16h-105.08c.46,0,.85-.06,1.21-.16h-3.21v27.38h4.49c-.64-.48-1.41-.82-2.49-.82h105.08c-1.09,0-1.86.34-2.5.82h4.49v-27.38Z" style="fill:#fff;"/><path d="m468.11,447.64c-.46,0-.85-.06-1.21-.16h-12.58c-.36.1-.76.16-1.21.16h15.01Z" style="fill:#fff;"/><path d="m498.13,447.64c-.46,0-.85-.06-1.21-.16h-12.58c-.36.1-.76.16-1.21.16h15.01Z" style="fill:#fff;"/><path d="m483.12,447.64c-.46,0-.85-.06-1.21-.16h-12.58c-.36.1-.76.16-1.21.16h15.01Z" style="fill:#fff;"/><path d="m423.08,447.64c-.46,0-.85-.06-1.21-.16h-12.59c-.36.1-.76.16-1.21.16h15.02Z" style="fill:#fff;"/><path d="m453.1,447.64c-.46,0-.85-.06-1.21-.16h-12.58c-.36.1-.76.16-1.21.16h15.01Z" style="fill:#fff;"/><path d="m408.07,447.64c-.46,0-.85-.06-1.21-.16h-12.6c-.36.1-.76.16-1.21.16h15.02Z" style="fill:#fff;"/><path d="m438.1,447.64c-.46,0-.85-.06-1.21-.16h-12.59c-.36.1-.76.16-1.21.16h15.01Z" style="fill:#fff;"/><path d="m415.56,478.03c2.67,0,3.44-2.01,5.01-3.18h-10.02c1.57,1.17,2.34,3.18,5.01,3.18Z" style="fill:#fff;"/><path d="m430.57,478.03c2.66,0,3.44-2.01,5.01-3.18h-10.02c1.57,1.17,2.35,3.18,5.01,3.18Z" style="fill:#fff;"/><path d="m445.58,478.03c2.67,0,3.44-2.01,5.01-3.18h-10.02c1.57,1.17,2.34,3.18,5.01,3.18Z" style="fill:#fff;"/><path d="m475.6,478.03c2.67,0,3.44-2.01,5.01-3.18h-10.02c1.57,1.17,2.35,3.18,5.01,3.18Z" style="fill:#fff;"/><path d="m490.62,478.03c2.67,0,3.45-2.01,5.01-3.18h-10.03c1.57,1.17,2.35,3.18,5.01,3.18Z" style="fill:#fff;"/><path d="m460.58,478.03c2.67,0,3.44-2.01,5.01-3.18h-10.02c1.57,1.17,2.34,3.18,5.01,3.18Z" style="fill:#fff;"/><path d="m400.55,478.03c2.66,0,3.44-2.01,5.01-3.18h-10.02c1.57,1.17,2.34,3.18,5.01,3.18Z" style="fill:#fff;"/><path d="m393.05,474.03c1.09,0,1.85.34,2.49.82h10.02c.64-.48,1.41-.82,2.49-.82h-15.01Z" style="fill:#fff;"/><path d="m453.08,474.03c1.09,0,1.85.34,2.49.82h10.02c.64-.48,1.41-.82,2.5-.82h-15.01Z" style="fill:#fff;"/><path d="m438.07,474.03c1.09,0,1.85.34,2.49.82h10.02c.64-.48,1.41-.82,2.49-.82h-15.01Z" style="fill:#fff;"/><path d="m408.05,474.03c1.09,0,1.85.34,2.49.82h10.02c.64-.48,1.41-.82,2.49-.82h-15.01Z" style="fill:#fff;"/><path d="m483.11,474.03c1.09,0,1.86.34,2.5.82h10.03c.64-.48,1.41-.82,2.5-.82h-15.02Z" style="fill:#fff;"/><path d="m423.06,474.03c1.09,0,1.86.34,2.49.82h10.02c.64-.48,1.41-.82,2.49-.82h-15.01Z" style="fill:#fff;"/><path d="m468.09,474.03c1.09,0,1.86.34,2.5.82h10.02c.64-.48,1.41-.82,2.5-.82h-15.02Z" style="fill:#fff;"/><path d="m393.05,474.03c3.75,0,3.75,4,7.5,4s3.75-4,7.5-4,3.75,4,7.5,4,3.75-4,7.5-4,3.75,4,7.51,4,3.75-4,7.5-4,3.75,4,7.5,4,3.75-4,7.5-4,3.75,4,7.5,4,3.75-4,7.51-4,3.75,4,7.51,4,3.75-4,7.51-4,3.76,4,7.51,4,3.76-4,7.51-4" style="fill:none; stroke:#545454; stroke-miterlimit:10; stroke-width:.5px;"/><path d="m498.13,447.64c-3.75,0-3.75-4-7.5-4s-3.75,4-7.5,4-3.75-4-7.5-4-3.75,4-7.5,4-3.75-4-7.51-4-3.75,4-7.5,4-3.75-4-7.5-4-3.75,4-7.5,4-3.75-4-7.5-4-3.75,4-7.51,4-3.75-4-7.51-4-3.75,4-7.51,4-3.76-4-7.51-4-3.76,4-7.51,4" style="fill:none; stroke:#545454; stroke-miterlimit:10; stroke-width:.5px;"/><rect x="642.73" y="131.53" width="337.93" height="57.28" style="fill:#f2f2f2;"/><rect x="642.73" y="282.5" width="337.93" height="57.28" style="fill:#f2f2f2;"/><rect x="639.73" y="128.53" width="337.93" height="57.28" style="fill:#dbf1de;"/><rect x="639.73" y="279.5" width="337.93" height="57.28" style="fill:#dbf1de;"/><path d="m861.86,85.35c0,.12-.02.14-.14.14-.09,0-.58-.04-2.12-.04h-.54c.7,1.02,1.42,1.56,2.59,2.24-.14.14-.3.33-.42.61-.07.14-.1.21-.16.21s-.12-.05-.25-.16c-.86-.63-1.52-1.33-2.14-2.35.04,2.82.12,4.48.12,5.22,0,.12-.02.14-.16.14h-.79c-.12,0-.14-.02-.14-.14,0-.72.05-2.29.1-5.01-.72,1.4-1.61,2.5-2.97,3.61-.12.09-.19.14-.26.14s-.11-.07-.17-.21c-.12-.26-.32-.51-.47-.65,1.54-1.03,2.64-2.14,3.5-3.66h-.89c-1.54,0-2.05.04-2.13.04-.12,0-.14-.02-.14-.14v-.7c0-.12.02-.14.14-.14.09,0,.59.03,2.13.03h1.23v-.03c0-.82-.02-1.24-.11-1.65.37.02.77.05,1.07.09.11.02.17.07.17.14,0,.1-.03.18-.07.25-.05.12-.09.33-.09,1.17v.03h.84c1.54,0,2.03-.03,2.12-.03.12,0,.14.02.14.14v.7Zm.3-2.94c0,.12-.02.14-.14.14-.11,0-.61-.03-2.17-.03h-3.38c-1.58,0-2.08.03-2.17.03-.12,0-.14-.02-.14-.14v-.72c0-.12.02-.14.14-.14.09,0,.59.04,2.17.04h2.31c.38-.77.61-1.4.8-2,.09-.26.14-.47.16-.75.38.09.67.16.95.25.16.05.21.12.21.21s-.05.14-.12.21c-.09.09-.17.19-.26.4-.23.58-.46,1.07-.77,1.68h.1c1.52,0,2.03-.04,2.17-.04.12,0,.14.02.14.14v.72Zm-.28-4.13c0,.12-.02.14-.14.14-.09,0-.58-.04-2.08-.04h-2.91c-1.5,0-2,.04-2.08.04-.12,0-.14-.02-.14-.14v-.68c0-.12.02-.14.14-.14.09,0,.58.03,2.08.03h1.02v-.54c0-.44-.02-.88-.12-1.26.46.02.79.03,1.14.09.14.02.23.07.23.14,0,.12-.05.21-.1.31-.09.16-.09.3-.09.72v.54h.84c1.5,0,2-.03,2.08-.03.12,0,.14.02.14.14v.68Zm-5.48.63c.14-.05.17-.04.25.07.33.56.58,1.16.75,1.73.04.12.02.17-.16.24l-.44.18c-.23.07-.28.07-.32-.09-.17-.63-.37-1.19-.67-1.75-.07-.12-.05-.16.17-.24l.4-.14Zm13.6,3.52c0,.12-.02.14-.14.14-.09,0-.58-.04-2.12-.04h-.09v6.18c0,1.89.04,2.52.04,2.61,0,.14-.02.14-.14.14h-.86c-.12,0-.14,0-.14-.14,0-.09.04-.72.04-2.61v-6.18h-2.61c0,1.86-.05,3.64-.44,5.13-.3,1.14-.68,2.14-1.79,3.47-.11.14-.17.19-.25.19s-.12-.04-.23-.14c-.17-.17-.4-.3-.67-.4,1.12-1.17,1.68-2.38,2-3.68.28-1.17.35-2.71.35-4.92v-2.15c0-.96-.03-1.72-.12-2.47.42.09.72.17,1.14.35,1.43-.39,2.61-.89,3.48-1.37.35-.19.63-.4.88-.63.28.23.56.52.77.79.07.09.11.16.11.25,0,.07-.09.14-.23.16-.19.02-.39.09-.65.21-1.17.58-2.68,1.14-4.36,1.58v2.7h3.76c1.54,0,2.03-.04,2.12-.04.12,0,.14.02.14.14v.73Z" style="fill:gray;"/><path d="m872.22,80.52c.11-.14.17-.14.28-.09.84.51,1.63,1.07,2.4,1.8.09.09.09.12-.02.25l-.42.49c-.17.21-.19.23-.3.12-.72-.75-1.54-1.4-2.33-1.89-.12-.07-.11-.1.02-.25l.37-.44Zm1.26,9.78c-.18.39-.3.65-.32.81-.02.1-.09.19-.14.19-.07,0-.16-.04-.28-.1-.3-.19-.51-.33-.81-.58.33-.42.56-.75.82-1.28.54-1.05,1.14-2.43,1.66-4.17.18.25.35.37.6.52.26.18.26.19.16.54-.53,1.44-1.12,2.85-1.7,4.06Zm-.46-14.09c.12-.14.17-.16.28-.09.82.52,1.61,1.15,2.29,1.87.09.1.09.17-.05.33l-.38.47c-.14.16-.17.17-.28.07-.7-.77-1.58-1.54-2.29-2-.11-.07-.11-.1.05-.26l.39-.4Zm14.26,6.14c0,.1-.02.12-.14.12-.09,0-.7-.04-2.49-.04h-6.48c-1.77,0-2.38.04-2.49.04-.12,0-.14-.02-.14-.12v-.65c0-.12.02-.14.14-.14.1,0,.72.04,2.49.04h2.59v-1.28h-1.44c-1.68,0-2.22.04-2.33.04-.12,0-.14-.02-.14-.14v-.58c0-.12.02-.14.14-.14.1,0,.65.04,2.33.04h1.44v-1.21h-1.79c-1.73,0-2.29.04-2.38.04-.12,0-.14-.02-.14-.14v-.61c0-.12.02-.14.14-.14.09,0,.65.03,2.38.03h1.79v-.12c0-.91-.02-1.35-.12-1.79.4.02.86.05,1.14.09.14.02.21.09.21.16,0,.12-.05.19-.11.31-.07.16-.09.42-.09,1.19v.16h2.15c1.73,0,2.31-.03,2.4-.03.12,0,.14.02.14.14v.61c0,.12-.02.14-.14.14-.09,0-.67-.04-2.4-.04h-2.15v1.21h1.72c1.68,0,2.21-.04,2.31-.04.12,0,.14.02.14.14v.58c0,.12-.02.14-.14.14-.1,0-.63-.04-2.31-.04h-1.72v1.28h2.85c1.79,0,2.4-.04,2.49-.04.12,0,.14.02.14.14v.65Zm-4.17,1.16c1.57,0,2.12-.04,2.21-.04.12,0,.14.02.14.14,0,.1-.04.7-.04,2.05v1.84c0,.93.02,1.86.02,2.33,0,.54-.07.93-.37,1.16-.32.23-.6.31-1.89.31-.35,0-.37,0-.46-.35-.05-.21-.14-.42-.3-.67.42.04.79.05,1.29.05.59,0,.7-.18.7-.65v-1.21h-6.09v.61c0,1.59.04,2.14.04,2.22,0,.1-.02.12-.14.12h-.79c-.12,0-.14-.02-.14-.12s.04-.58.04-2.19v-3.57c0-1.33-.04-1.84-.04-1.94,0-.12.02-.14.14-.14.09,0,.65.04,2.22.04h3.45Zm1.31.84h-6.09v1.24h6.09v-1.24Zm0,2.07h-6.09v1.24h6.09v-1.24Z" style="fill:gray;"/><path d="m894.13,80.63c.17,0,.24-.02.33-.05.07-.04.11-.05.17-.05.11,0,.23.05.47.32.28.28.35.4.35.51,0,.09-.05.16-.14.23-.1.09-.21.21-.31.52-1,2.87-2.54,5.09-5.01,7.02-.12.1-.19.16-.25.16-.07,0-.14-.07-.25-.23-.17-.25-.37-.44-.58-.56,2.52-1.73,4.15-3.99,5.11-6.88h-2.5c-1.29,0-1.7.03-1.79.03-.12,0-.14-.02-.14-.14v-.79c0-.1.02-.12.14-.12.09,0,.49.03,1.79.03h2.59Zm3.36-2c.31,1.45.91,2.89,1.68,4.18,1.03-.86,1.87-1.75,2.77-2.85.23-.28.37-.54.49-.84.39.23.65.4.95.65.12.09.16.16.16.25,0,.1-.09.16-.21.23-.16.09-.39.28-.81.73-.77.82-1.7,1.73-2.83,2.66,1.4,2.05,3.27,3.73,5.27,4.71-.21.16-.42.38-.61.68-.11.16-.14.23-.23.23-.05,0-.12-.05-.26-.12-2.82-1.65-5.44-4.85-6.44-8.33.05,3.05.14,6.63.14,8.82,0,.56-.17,1-.63,1.24-.33.21-.86.3-2.17.3q-.35,0-.46-.35c-.09-.32-.21-.6-.37-.81.44.03,1.03.05,1.51.05.72,0,1-.16,1-.65v-11.59c0-.96-.02-1.44-.12-1.92.4.02.84.05,1.17.09.14.02.23.09.23.16,0,.14-.07.25-.11.37-.07.19-.1.53-.1,1.3v.82Z" style="fill:gray;"/><path d="m922.15,79.84c0,.12-.02.14-.14.14-.09,0-.63-.03-2.28-.03h-6.23c-.04.98-.1,1.85-.21,2.68h4.41c1.49,0,1.96-.04,2.05-.04.12,0,.17.05.16.19-.04.4-.05.82-.09,1.23-.17,2.61-.38,4.27-.63,5.29-.33,1.35-.91,1.8-2.17,1.8-.33,0-1.03-.04-1.68-.1q-.33-.04-.37-.4c-.04-.3-.12-.63-.25-.82,1.01.17,1.82.21,2.22.21.67,0,.98-.37,1.16-1.07.26-1.03.47-2.94.59-5.25h-5.55c-.63,3.52-2.14,5.65-5.37,7.47-.12.07-.21.1-.26.1-.11,0-.16-.09-.28-.28-.16-.23-.38-.4-.63-.56,4.2-2.06,5.65-4.67,5.74-10.45h-3.08c-1.63,0-2.19.03-2.28.03-.12,0-.14-.02-.14-.14v-.8c0-.12.02-.14.14-.14.09,0,.65.04,2.28.04h4.52v-1.35c0-.89-.02-1.38-.12-1.8.42,0,.88.03,1.21.09.14.02.21.07.21.14,0,.12-.05.21-.1.33-.07.17-.09.44-.09,1.23v1.37h4.85c1.65,0,2.19-.04,2.28-.04.12,0,.14.02.14.14v.8Z" style="fill:gray;"/><path d="m939.56,77.49c0,.1-.02.12-.14.12-.11,0-.65-.03-2.29-.03h-4.85c-.26.88-.63,1.8-1.08,2.66h5.01c1.75,0,2.34-.04,2.45-.04.12,0,.14.02.14.14,0,.1-.03.77-.03,3.2v3.05c0,3.87.03,4.5.03,4.6,0,.12-.02.14-.14.14h-.82c-.12,0-.14-.02-.14-.14v-.86h-11.5v.88c0,.12-.02.14-.14.14h-.8c-.12,0-.14-.02-.14-.14,0-.1.04-.73.04-4.62v-2.73c0-2.75-.04-3.41-.04-3.52,0-.12.02-.14.14-.14.1,0,.7.04,2.45.04h2.38c.42-.79.81-1.79,1.07-2.66h-4.38c-1.65,0-2.21.03-2.29.03-.12,0-.14-.02-.14-.12v-.79c0-.12.02-.14.14-.14.09,0,.65.03,2.29.03h10.36c1.64,0,2.19-.03,2.29-.03.12,0,.14.02.14.14v.79Zm-10.43,3.68h-2.94v8.23h2.94v-8.23Zm4.58,0h-3.59v2.1h3.59v-2.1Zm0,2.98h-3.59v2.15h3.59v-2.15Zm0,3.03h-3.59v2.22h3.59v-2.22Zm3.97-6h-2.96v8.23h2.96v-8.23Z" style="fill:gray;"/><polygon points="986.85 84.54 970.14 74.9 970.14 80.78 950.62 80.78 950.62 88.31 970.14 88.31 970.14 94.19 986.85 84.54" style="fill:gray;"/><path d="m83.84,271.35c0,.12-.02.14-.14.14-.09,0-.58-.04-2.12-.04h-.54c.7,1.02,1.42,1.56,2.59,2.24-.14.14-.3.33-.42.61-.07.14-.1.21-.16.21s-.12-.05-.25-.16c-.86-.63-1.52-1.33-2.14-2.34.04,2.82.12,4.48.12,5.21,0,.12-.02.14-.16.14h-.79c-.12,0-.14-.02-.14-.14,0-.72.05-2.29.1-5-.72,1.4-1.61,2.5-2.98,3.61-.12.09-.19.14-.26.14s-.1-.07-.17-.21c-.12-.26-.31-.51-.47-.65,1.54-1.03,2.64-2.14,3.5-3.66h-.89c-1.54,0-2.05.04-2.14.04-.12,0-.14-.02-.14-.14v-.7c0-.12.02-.14.14-.14.09,0,.6.04,2.14.04h1.23v-.04c0-.82-.02-1.24-.1-1.64.37.02.77.05,1.07.09.11.02.18.07.18.14,0,.1-.04.17-.07.25-.05.12-.09.33-.09,1.17v.04h.84c1.54,0,2.03-.04,2.12-.04.12,0,.14.02.14.14v.7Zm.3-2.94c0,.12-.02.14-.14.14-.1,0-.61-.04-2.17-.04h-3.38c-1.58,0-2.08.04-2.17.04-.12,0-.14-.02-.14-.14v-.72c0-.12.02-.14.14-.14.09,0,.6.03,2.17.03h2.31c.39-.77.61-1.4.81-2,.09-.26.14-.47.16-.75.38.09.67.16.94.25.16.05.21.12.21.21s-.05.14-.12.21c-.09.09-.17.19-.26.4-.23.58-.46,1.07-.77,1.68h.1c1.52,0,2.03-.03,2.17-.03.12,0,.14.02.14.14v.72Zm-.28-4.13c0,.12-.02.14-.14.14-.09,0-.58-.04-2.08-.04h-2.91c-1.5,0-2,.04-2.08.04-.12,0-.14-.02-.14-.14v-.68c0-.12.02-.14.14-.14.09,0,.58.04,2.08.04h1.02v-.54c0-.44-.02-.88-.12-1.26.46.02.79.04,1.14.09.14.02.23.07.23.14,0,.12-.05.21-.1.31-.09.16-.09.3-.09.72v.54h.84c1.51,0,2-.04,2.08-.04.12,0,.14.02.14.14v.68Zm-5.48.63c.14-.05.18-.03.25.07.33.56.58,1.16.75,1.73.03.12.02.18-.16.25l-.44.17c-.23.07-.28.07-.31-.09-.18-.63-.37-1.19-.67-1.75-.07-.12-.05-.16.17-.25l.4-.14Zm13.6,3.52c0,.12-.02.14-.14.14-.09,0-.58-.04-2.12-.04h-.09v6.18c0,1.89.04,2.52.04,2.61,0,.14-.02.14-.14.14h-.86c-.12,0-.14,0-.14-.14,0-.09.03-.72.03-2.61v-6.18h-2.61c0,1.86-.05,3.64-.44,5.13-.3,1.14-.68,2.14-1.79,3.47-.1.14-.18.19-.25.19s-.12-.04-.23-.14c-.18-.18-.4-.3-.67-.4,1.12-1.17,1.68-2.38,2-3.67.28-1.17.35-2.71.35-4.92v-2.15c0-.96-.04-1.71-.12-2.47.42.09.72.18,1.14.35,1.44-.38,2.61-.89,3.48-1.36.35-.19.63-.4.88-.63.28.23.56.52.77.79.07.09.1.16.1.25,0,.07-.09.14-.23.16-.19.02-.38.09-.65.21-1.17.58-2.68,1.14-4.36,1.57v2.7h3.76c1.54,0,2.03-.03,2.12-.03.12,0,.14.02.14.14v.74Z" style="fill:gray;"/><path d="m101.08,268.22c0,.12-.02.14-.14.14-.09,0-.56-.04-2.06-.04h-2.98c-1.49,0-2,.04-2.08.04-.1,0-.12-.02-.12-.14v-.61c0-.12.02-.14.12-.14.09,0,.6.04,2.08.04h1.17v-1.23h-.53c-1.26,0-1.66.04-1.75.04-.12,0-.14-.02-.14-.14v-.6c0-.1.02-.12.14-.12.09,0,.49.04,1.75.04h.53v-1.16h-.77c-1.42,0-1.86.04-1.96.04-.12,0-.14-.02-.14-.14v-.61c0-.12.02-.14.14-.14.1,0,.54.04,1.96.04h.77v-.05c0-.93-.02-1.4-.12-1.87.42.02.73.05,1.07.11.14.02.23.09.23.14,0,.14-.07.21-.12.33-.07.19-.09.49-.09,1.29v.05h.77c1.42,0,1.86-.04,1.96-.04s.12.02.12.14v.61c0,.12-.02.14-.12.14s-.54-.04-1.96-.04h-.77v1.16h.47c1.28,0,1.66-.04,1.77-.04.12,0,.14.02.14.12v.6c0,.12-.02.14-.14.14-.1,0-.49-.04-1.77-.04h-.47v1.23h.84c1.5,0,1.98-.04,2.06-.04.12,0,.14.02.14.14v.61Zm-2.59,1.19c1.24,0,1.65-.04,1.73-.04.12,0,.14.02.14.14,0,.09-.03.7-.03,2.05v2.13c0,.89.02,1.84.02,2.21,0,.46-.07.84-.37,1.07-.31.21-.56.3-1.68.3-.35,0-.37.02-.46-.35-.05-.23-.16-.46-.26-.65.39.04.7.07,1.12.07.58,0,.68-.17.68-.65v-1.31h-3.62v.96c0,1.31.02,1.87.02,1.96,0,.11,0,.12-.12.12h-.73c-.12,0-.14-.02-.14-.12s.04-.58.04-1.92v-3.9c0-1.35-.04-1.86-.04-1.96,0-.12.02-.14.14-.14.1,0,.51.04,1.73.04h1.84Zm.89.84h-3.62v1.24h3.62v-1.24Zm0,2.06h-3.62v1.24h3.62v-1.24Zm10.17-2.49c0,.12-.02.14-.12.14-.07,0-.38-.02-1.14-.04v1.71c0,1.28.03,1.72.03,1.82s-.02.12-.14.12h-.7c-.12,0-.14-.02-.14-.12v-.68h-2.08v.37c0,.75.02,1.77.02,2.38,0,.79-.09,1.12-.44,1.4-.26.23-.79.31-1.92.3-.35,0-.35.02-.44-.35-.07-.26-.18-.49-.33-.7.37.05.75.07,1.28.07.65,0,.86-.14.86-.84v-2.63h-.44c-1.47,0-1.94.04-2.03.04-.12,0-.14-.02-.14-.14v-.65c0-.12.02-.14.14-.14.09,0,.56.04,2.03.04h.44v-2h-.8c-1.61,0-2.15.04-2.24.04-.12,0-.14-.02-.14-.14v-.67c0-.12.02-.14.14-.14.09,0,.63.04,2.24.04h.8v-1.93h-.28c-1.38,0-1.79.04-1.87.04-.12,0-.14-.02-.14-.12v-.67c0-.12.02-.14.14-.14.09,0,.49.04,1.87.04h.65c.46-.63.86-1.35,1.19-2.1h-2.26c-.51.79-1.07,1.49-1.87,2.28-.12.12-.17.17-.24.17-.05,0-.1-.05-.23-.17-.18-.18-.33-.28-.54-.39,1.19-1.01,2-2.1,2.61-3.34.21-.44.35-.82.39-1.1.37.09.67.16.94.26.12.04.19.09.19.17s-.05.16-.16.25c-.09.07-.21.28-.4.67l-.21.38h1.98c.17,0,.16-.02.23-.05.07-.04.1-.05.16-.05.12,0,.23.05.49.28s.31.33.31.42c0,.1-.05.19-.17.26-.12.07-.25.24-.33.4-.3.59-.65,1.14-1,1.66h.54c1.38,0,1.84-.04,1.93-.04.12,0,.14.02.14.14,0,.09-.03.52-.03,1.82v.86c.75,0,1.07-.04,1.14-.04.11,0,.12.02.12.14v.67Zm-2.21-2.7h-2.08v1.93h2.08v-1.93Zm0,2.8h-2.08v2h2.08v-2Z" style="fill:gray;"/><path d="m123.23,262.65c1.75,0,2.35-.03,2.45-.03.12,0,.14.02.14.14,0,.09-.03,1.19-.03,3.55v6.69c0,1.4.02,2.24.02,2.8,0,.51-.09.88-.42,1.16-.26.21-.75.33-2.1.33-.33,0-.35,0-.42-.33-.07-.28-.21-.61-.35-.82.51.05,1.07.07,1.56.07.46,0,.65-.19.65-.7v-11.87h-11.5v10.41c0,2.19.04,3.17.04,3.25,0,.12-.02.14-.14.14h-.86c-.12,0-.14-.02-.14-.14,0-.1.03-1.1.03-3.5v-7.51c0-2.42-.03-3.45-.03-3.53,0-.12.02-.14.14-.14.1,0,.7.03,2.45.03h8.52Zm.61,5.74c0,.12-.02.14-.16.14-.09,0-.65-.04-2.31-.04h-1.98v4.9h2.4v-1.49c0-.82,0-1.29-.12-1.77.42.02.84.05,1.09.09.12.02.19.07.19.16s-.02.16-.07.25c-.07.12-.11.33-.11,1.29v1.73c0,.82.04,1.17.04,1.26,0,.12-.02.14-.14.14h-.73c-.12,0-.14-.02-.14-.14v-.65h-5.65v1.08c0,.12-.02.14-.14.14h-.73c-.12,0-.14-.02-.14-.14,0-.11.03-.46.03-1.37v-2.03c0-.93-.02-1.33-.1-1.79.37.02.79.05,1.07.1.14.02.21.07.21.12,0,.12-.05.21-.1.33-.07.16-.09.4-.09,1.23v1.43h2.27v-4.9h-1.84c-1.7,0-2.24.04-2.35.04-.12,0-.14-.02-.14-.14v-.68c0-.12.02-.14.14-.14.1,0,.65.03,2.35.03h2.98c.53-.91.89-1.63,1.23-2.4.1-.25.19-.53.28-.89.33.11.68.25.96.4.12.07.18.11.18.21,0,.09-.09.16-.16.21-.09.07-.17.18-.3.42-.28.56-.68,1.31-1.14,2.05h.77c1.66,0,2.22-.03,2.31-.03.14,0,.16.02.16.14v.68Zm-7.46-3.92c.17-.09.19-.1.28,0,.46.61.84,1.3,1.17,2.01.05.12.02.16-.19.26l-.42.21c-.23.12-.26.12-.31,0-.3-.7-.63-1.37-1.08-2.01-.07-.1-.05-.14.14-.25l.42-.23Z" style="fill:gray;"/><path d="m144.13,265.84c0,.12-.02.14-.14.14-.09,0-.63-.04-2.27-.04h-6.23c-.03.98-.1,1.86-.21,2.68h4.41c1.49,0,1.96-.04,2.05-.04.12,0,.17.05.16.19-.04.4-.05.82-.09,1.23-.18,2.61-.39,4.27-.63,5.29-.33,1.35-.91,1.8-2.17,1.8-.33,0-1.03-.04-1.68-.11q-.33-.03-.37-.4c-.04-.3-.12-.63-.25-.82,1.02.17,1.82.21,2.22.21.67,0,.98-.37,1.15-1.07.26-1.03.47-2.94.6-5.25h-5.55c-.63,3.52-2.13,5.65-5.37,7.47-.12.07-.21.1-.26.1-.1,0-.16-.09-.28-.28-.16-.23-.38-.4-.63-.56,4.2-2.07,5.65-4.67,5.74-10.45h-3.08c-1.63,0-2.19.04-2.28.04-.12,0-.14-.02-.14-.14v-.8c0-.12.02-.14.14-.14.09,0,.65.04,2.28.04h4.52v-1.35c0-.89-.02-1.38-.12-1.8.42,0,.88.04,1.21.09.14.02.21.07.21.14,0,.12-.05.21-.1.33-.07.17-.09.44-.09,1.22v1.36h4.85c1.65,0,2.19-.04,2.27-.04.12,0,.14.02.14.14v.8Z" style="fill:gray;"/><path d="m161.54,263.49c0,.1-.02.12-.14.12-.1,0-.65-.04-2.29-.04h-4.85c-.26.87-.63,1.8-1.08,2.66h5.01c1.75,0,2.35-.03,2.45-.03.12,0,.14.02.14.14,0,.11-.04.77-.04,3.2v3.04c0,3.87.04,4.5.04,4.6,0,.12-.02.14-.14.14h-.82c-.12,0-.14-.02-.14-.14v-.86h-11.5v.88c0,.12-.02.14-.14.14h-.81c-.12,0-.14-.02-.14-.14,0-.1.04-.73.04-4.62v-2.73c0-2.75-.04-3.41-.04-3.52,0-.12.02-.14.14-.14.1,0,.7.03,2.45.03h2.38c.42-.79.8-1.79,1.07-2.66h-4.38c-1.65,0-2.21.04-2.29.04-.12,0-.14-.02-.14-.12v-.79c0-.12.02-.14.14-.14.09,0,.65.04,2.29.04h10.36c1.65,0,2.19-.04,2.29-.04.12,0,.14.02.14.14v.79Zm-10.43,3.67h-2.94v8.23h2.94v-8.23Zm4.59,0h-3.59v2.1h3.59v-2.1Zm0,2.98h-3.59v2.15h3.59v-2.15Zm0,3.03h-3.59v2.22h3.59v-2.22Zm3.97-6h-2.96v8.23h2.96v-8.23Z" style="fill:gray;"/><polygon points="29.3 270.54 46.02 260.89 46.02 266.78 65.53 266.78 65.53 274.31 46.02 274.31 46.02 280.19 29.3 270.54" style="fill:gray;"/><polygon points="573.28 418.96 154.29 418.96 105.39 472.83 9.65 472.83 9.65 366.12 519.41 366.12 519.41 99.72 491.5 99.72 491.5 46.86 573.28 46.86 573.28 418.96" style="fill:#e6e6e6;"/><polygon points="9.65 366.12 9.65 472.83 105.39 472.83 154.28 418.97 154.28 366.12 9.65 366.12" style="fill:#e6e6e6;"/><polygon points="573.28 46.86 491.5 46.86 491.5 99.72 519.41 99.72 519.41 116.69 573.28 116.69 573.28 46.86" style="fill:#e6e6e6;"/><polygon points="519.41 116.35 519.41 365.78 154.28 365.78 154.28 418.63 154.29 418.62 573.28 418.62 573.28 116.35 519.41 116.35" style="fill:#b3b3b3;"/><polyline points="491.5 46.86 573.28 46.86 573.28 418.96 154.29 418.96 105.39 472.83" style="fill:none; stroke:#545454; stroke-miterlimit:10; stroke-width:.5px;"/><polyline points="9.65 472.83 9.65 366.12 519.41 366.12 519.41 99.72 491.5 99.72" style="fill:none; stroke:#545454; stroke-miterlimit:10; stroke-width:.5px;"/><rect x="550.48" y="101.98" width="10.62" height="33.91" transform="translate(1111.59 237.86) rotate(180)" style="fill:#ffffc8; stroke:#545454; stroke-miterlimit:10; stroke-width:.5px;"/><rect x="531.04" y="101.98" width="10.62" height="33.91" transform="translate(1072.7 237.86) rotate(180)" style="fill:#ffffc8; stroke:#545454; stroke-miterlimit:10; stroke-width:.5px;"/><line x1="10.64" y1="216.5" x2="986.26" y2="216.5" style="fill:none; stroke:#4d4948; stroke-miterlimit:10; stroke-width:7.21px;"/><line x1="10.64" y1="216.5" x2="986.26" y2="216.5" style="fill:none; stroke:#fff; stroke-miterlimit:10; stroke-width:4.81px;"/><line x1="10.64" y1="216.5" x2="986.26" y2="216.5" style="fill:none; stroke:#4d4948; stroke-dasharray:0 0 24.04 24.04; stroke-miterlimit:10; stroke-width:4.81px;"/><line x1="639.13" y1="105.43" x2="986.26" y2="105.43" style="fill:none; stroke:#4d4948; stroke-miterlimit:10; stroke-width:7.21px;"/><line x1="639.13" y1="105.43" x2="986.26" y2="105.43" style="fill:none; stroke:#fff; stroke-miterlimit:10; stroke-width:4.81px;"/><line x1="639.13" y1="105.43" x2="986.26" y2="105.43" style="fill:none; stroke:#4d4948; stroke-dasharray:0 0 24.04 24.04; stroke-miterlimit:10; stroke-width:4.81px;"/><line x1="10.64" y1="248.42" x2="986.26" y2="248.42" style="fill:none; stroke:#4d4948; stroke-miterlimit:10; stroke-width:7.21px;"/><line x1="10.64" y1="248.42" x2="986.26" y2="248.42" style="fill:none; stroke:#fff; stroke-miterlimit:10; stroke-width:4.81px;"/><line x1="10.64" y1="248.42" x2="986.26" y2="248.42" style="fill:none; stroke:#4d4948; stroke-dasharray:0 0 24.04 24.04; stroke-miterlimit:10; stroke-width:4.81px;"/><rect x="581.43" y="136.4" width="8.33" height="41.54" style="fill:#fff; stroke:#545454; stroke-miterlimit:10; stroke-width:.5px;"/><rect x="573.1" y="136.4" width="8.33" height="41.54" style="fill:#fff; stroke:#545454; stroke-miterlimit:10; stroke-width:.5px;"/><rect x="606.41" y="136.4" width="8.33" height="41.54" style="fill:#fff; stroke:#545454; stroke-miterlimit:10; stroke-width:.5px;"/><rect x="589.76" y="136.4" width="8.33" height="41.54" style="fill:#fff; stroke:#545454; stroke-miterlimit:10; stroke-width:.5px;"/><rect x="614.74" y="136.4" width="8.33" height="41.54" style="fill:#fff; stroke:#545454; stroke-miterlimit:10; stroke-width:.5px;"/><rect x="623.07" y="136.4" width="8.33" height="41.54" style="fill:#fff; stroke:#545454; stroke-miterlimit:10; stroke-width:.5px;"/><rect x="631.4" y="136.4" width="8.33" height="41.54" style="fill:#fff; stroke:#545454; stroke-miterlimit:10; stroke-width:.5px;"/><rect x="598.08" y="136.4" width="8.33" height="41.54" style="fill:#fff; stroke:#545454; stroke-miterlimit:10; stroke-width:.5px;"/><rect x="573.1" y="136.4" width="66.63" height="6.08" style="fill:#545454; stroke:#545454; stroke-miterlimit:10; stroke-width:.5px;"/><rect x="573.1" y="171.86" width="66.63" height="6.08" style="fill:#545454; stroke:#545454; stroke-miterlimit:10; stroke-width:.5px;"/><rect x="581.43" y="287.38" width="8.33" height="41.54" style="fill:#fff; stroke:#545454; stroke-miterlimit:10; stroke-width:.5px;"/><rect x="573.1" y="287.38" width="8.33" height="41.54" style="fill:#fff; stroke:#545454; stroke-miterlimit:10; stroke-width:.5px;"/><rect x="606.41" y="287.38" width="8.33" height="41.54" style="fill:#fff; stroke:#545454; stroke-miterlimit:10; stroke-width:.5px;"/><rect x="589.76" y="287.38" width="8.33" height="41.54" style="fill:#fff; stroke:#545454; stroke-miterlimit:10; stroke-width:.5px;"/><rect x="614.74" y="287.38" width="8.33" height="41.54" style="fill:#fff; stroke:#545454; stroke-miterlimit:10; stroke-width:.5px;"/><rect x="623.07" y="287.38" width="8.33" height="41.54" style="fill:#fff; stroke:#545454; stroke-miterlimit:10; stroke-width:.5px;"/><rect x="631.4" y="287.38" width="8.33" height="41.54" style="fill:#fff; stroke:#545454; stroke-miterlimit:10; stroke-width:.5px;"/><rect x="598.08" y="287.38" width="8.33" height="41.54" style="fill:#fff; stroke:#545454; stroke-miterlimit:10; stroke-width:.5px;"/><rect x="573.1" y="287.38" width="66.63" height="6.08" style="fill:#545454; stroke:#545454; stroke-miterlimit:10; stroke-width:.5px;"/><rect x="573.1" y="322.84" width="66.63" height="6.08" style="fill:#545454; stroke:#545454; stroke-miterlimit:10; stroke-width:.5px;"/><rect x="639.73" y="128.53" width="337.93" height="57.28" style="fill:none; stroke:#545454; stroke-miterlimit:10; stroke-width:.5px;"/><rect x="639.73" y="279.5" width="337.93" height="57.28" style="fill:none; stroke:#545454; stroke-miterlimit:10; stroke-width:.5px;"/><rect x="148.31" y="384.8" width="10.62" height="33.91" transform="translate(-248.14 555.37) rotate(-90)" style="fill:#ffffc8; stroke:#545454; stroke-miterlimit:10; stroke-width:.5px;"/><rect x="148.31" y="365.36" width="10.62" height="33.91" transform="translate(-228.7 535.93) rotate(-90)" style="fill:#ffffc8; stroke:#545454; stroke-miterlimit:10; stroke-width:.5px;"/><rect x="407.99" y="109.26" width="96.61" height="53.44" rx="3.86" ry="3.86" style="fill:#ed0030;"/><rect x="407.99" y="109.26" width="96.61" height="53.44" rx="3.86" ry="3.86" style="fill:none; stroke:#545454; stroke-linecap:round; stroke-linejoin:round; stroke-width:1.89px;"/><path d="m435.17,135.12c1.55-1.98,2.47-4.3,2.99-6.86.11-.67.24-1.25.26-1.87.75.11,1.42.26,2.04.43.28.06.43.17.43.3s-.04.21-.15.34c-.15.19-.3.62-.41,1.1-.17.58-.32,1.16-.52,1.72h3.63c2.02,0,2.71-.04,2.86-.04.22,0,.24.02.24.24v1.55c0,.21-.02.24-.24.24-.13,0-.56-.02-1.63-.04-.19,3.23-1.1,6.08-2.39,8.13,1.18,1.33,2.79,2.52,4.73,3.5-.37.39-.73.95-.99,1.5-.17.34-.26.49-.43.49-.13,0-.28-.06-.52-.21-1.72-1.1-3.03-2.34-4.08-3.59-1.25,1.38-2.92,2.73-5.2,3.76-.26.11-.43.17-.54.17-.15,0-.21-.11-.37-.37-.37-.65-.71-1.05-1.12-1.42,2.45-.86,4.54-2.32,5.91-3.89-.95-1.5-1.66-3.33-2.04-5.03-.28.47-.58.92-.9,1.38-.19.26-.3.37-.41.37s-.21-.13-.41-.41c-.24-.3-.49-.6-.73-.82,0,.32.02.52.02.58,0,.22-.02.24-.26.24h-1.68c-.22,0-.24-.02-.24-.24v-.84h-3.12v4.86c0,.49.02.82.19.95.28.21.9.26,1.44.26,1.14,0,1.78-.13,2.11-.49.32-.37.41-.95.47-2.58.41.26.9.47,1.42.6.67.19.69.19.62.84-.11,1.59-.43,2.34-1.05,2.9-.75.67-2,.82-3.91.82-1.38,0-2.43-.11-2.88-.54-.39-.34-.54-.77-.54-1.72v-5.42c0-1.42-.04-2.15-.04-2.28,0-.24.02-.26.26-.26.13,0,.71.04,1.94.04h3.1v-3.48h-3.22c-1.59,0-2.11.04-2.21.04-.21,0-.24-.02-.24-.26v-1.63c0-.21.02-.24.24-.24.11,0,.62.04,2.21.04h2.86c1.61,0,2.15-.04,2.28-.04.24,0,.26.02.26.24,0,.15-.04.71-.04,2.15v4.79Zm3.96-2.9c-.04.11-.06.22-.11.3.37,2.43.95,4.32,1.91,5.98.8-1.48,1.38-3.5,1.57-6.28h-3.38Z" style="fill:#fff;"/><path d="m452.68,129.48c0-1.4-.02-2.06-.17-3.05.8.02,1.59.09,2.3.15.21.02.32.11.32.21,0,.19-.06.32-.13.47-.13.26-.15.62-.15,2.17v1.27h.47c1.81,0,2.39-.04,2.52-.04.21,0,.24.02.24.24v1.61c0,.21-.02.24-.24.24-.13,0-.71-.04-2.52-.04h-.32c.71,1.61,1.98,3.33,3.31,4.54-.32.41-.6.97-.82,1.53-.09.24-.17.34-.26.34s-.17-.11-.34-.3c-.84-1.01-1.59-2.17-2.11-3.42.02,5.63.15,10.06.15,10.49,0,.21-.02.24-.24.24h-1.87c-.22,0-.24-.02-.24-.24,0-.45.11-4.77.15-10-.67,2-1.74,3.89-2.97,5.55-.15.19-.26.3-.34.3-.11,0-.17-.11-.26-.37-.19-.62-.49-1.33-.73-1.72,1.63-1.81,3.03-4.08,4.02-6.94h-.8c-1.81,0-2.41.04-2.54.04-.21,0-.24-.02-.24-.24v-1.61c0-.21.02-.24.24-.24.13,0,.73.04,2.54.04h1.01v-1.23Zm9.07,12.9c0,.6.06.8.34.92.19.09.69.15,1.38.15.88,0,1.44-.15,1.74-.45.34-.3.54-.9.62-3.33.43.3,1.12.6,1.68.75q.54.17.49.75c-.17,2.54-.52,3.2-1.16,3.76s-1.7.8-3.5.8c-1.55,0-2.39-.09-2.92-.32-.56-.28-.97-.62-.97-2.04v-12.96c0-1.85-.04-2.88-.13-3.7.82.02,1.68.11,2.32.19.26.02.41.13.41.26,0,.17-.06.3-.13.45-.13.26-.17.73-.17,2.88v11.89Z" style="fill:#fff;"/><path d="m471.94,145.24c-.21,0-.24-.02-.24-.24,0-.15.04-1.27.04-7.07v-3.98c0-3.98-.04-5.16-.04-5.29,0-.24.02-.26.24-.26.15,0,.88.04,2.97.04h9.76c2.09,0,2.82-.04,2.95-.04.24,0,.26.02.26.26,0,.13-.04,1.29-.04,4.73v4.54c0,5.74.04,6.88.04,7.01,0,.21-.02.24-.26.24h-1.94c-.21,0-.24-.02-.24-.24v-1.61h-11.31v1.68c0,.21-.02.24-.26.24h-1.94Zm2.19-4.11h11.31v-10.49h-11.31v10.49Z" style="fill:#fff;"/><polyline points="499.81 133.73 528.41 126.06 499.81 143.71" style="fill:#ed0030; stroke:#545454; stroke-linecap:round; stroke-linejoin:round; stroke-width:1.89px;"/><rect x="163.24" y="412.54" width="96.61" height="53.44" rx="3.86" ry="3.86" style="fill:#ed0030;"/><rect x="163.24" y="412.54" width="96.61" height="53.44" rx="3.86" ry="3.86" style="fill:none; stroke:#545454; stroke-linecap:round; stroke-linejoin:round; stroke-width:1.89px;"/><path d="m190.43,438.4c1.55-1.98,2.47-4.3,2.99-6.86.11-.67.24-1.25.26-1.87.75.11,1.42.26,2.04.43.28.06.43.17.43.3s-.04.21-.15.34c-.15.19-.3.62-.41,1.1-.17.58-.32,1.16-.52,1.72h3.63c2.02,0,2.71-.04,2.86-.04.22,0,.24.02.24.24v1.55c0,.21-.02.24-.24.24-.13,0-.56-.02-1.63-.04-.19,3.22-1.1,6.08-2.39,8.13,1.18,1.33,2.79,2.52,4.73,3.5-.37.39-.73.95-.99,1.5-.17.34-.26.5-.43.5-.13,0-.28-.06-.52-.21-1.72-1.1-3.03-2.34-4.08-3.59-1.25,1.38-2.92,2.73-5.2,3.76-.26.11-.43.17-.54.17-.15,0-.21-.11-.37-.37-.37-.65-.71-1.05-1.12-1.42,2.45-.86,4.54-2.32,5.91-3.89-.95-1.5-1.66-3.33-2.04-5.03-.28.47-.58.92-.9,1.38-.19.26-.3.37-.41.37s-.21-.13-.41-.41c-.24-.3-.49-.6-.73-.82,0,.32.02.52.02.58,0,.21-.02.24-.26.24h-1.68c-.22,0-.24-.02-.24-.24v-.84h-3.12v4.86c0,.49.02.82.19.95.28.21.9.26,1.44.26,1.14,0,1.78-.13,2.11-.5.32-.37.41-.95.47-2.58.41.26.9.47,1.42.6.67.19.69.19.62.84-.11,1.59-.43,2.34-1.05,2.9-.75.67-2,.82-3.91.82-1.38,0-2.43-.11-2.88-.54-.39-.34-.54-.77-.54-1.72v-5.42c0-1.42-.04-2.15-.04-2.28,0-.24.02-.26.26-.26.13,0,.71.04,1.94.04h3.1v-3.48h-3.22c-1.59,0-2.11.04-2.21.04-.21,0-.24-.02-.24-.26v-1.63c0-.21.02-.24.24-.24.11,0,.62.04,2.21.04h2.86c1.61,0,2.15-.04,2.28-.04.24,0,.26.02.26.24,0,.15-.04.71-.04,2.15v4.79Zm3.96-2.9c-.04.11-.06.21-.11.3.37,2.43.95,4.32,1.91,5.98.8-1.48,1.38-3.5,1.57-6.28h-3.38Z" style="fill:#fff;"/><path d="m207.93,432.77c0-1.4-.02-2.06-.17-3.05.8.02,1.59.09,2.3.15.21.02.32.11.32.21,0,.19-.06.32-.13.47-.13.26-.15.62-.15,2.17v1.27h.47c1.81,0,2.39-.04,2.52-.04.21,0,.24.02.24.24v1.61c0,.21-.02.24-.24.24-.13,0-.71-.04-2.52-.04h-.32c.71,1.61,1.98,3.33,3.31,4.54-.32.41-.6.97-.82,1.53-.09.24-.17.34-.26.34s-.17-.11-.34-.3c-.84-1.01-1.59-2.17-2.11-3.42.02,5.63.15,10.06.15,10.49,0,.21-.02.24-.24.24h-1.87c-.22,0-.24-.02-.24-.24,0-.45.11-4.77.15-10-.67,2-1.74,3.89-2.97,5.55-.15.19-.26.3-.34.3-.11,0-.17-.11-.26-.37-.19-.62-.49-1.33-.73-1.72,1.63-1.81,3.03-4.08,4.02-6.94h-.8c-1.81,0-2.41.04-2.54.04-.21,0-.24-.02-.24-.24v-1.61c0-.21.02-.24.24-.24.13,0,.73.04,2.54.04h1.01v-1.23Zm9.07,12.9c0,.6.06.8.34.92.19.09.69.15,1.38.15.88,0,1.44-.15,1.74-.45.34-.3.54-.9.62-3.33.43.3,1.12.6,1.68.75q.54.17.49.75c-.17,2.54-.52,3.2-1.16,3.76-.65.56-1.7.8-3.5.8-1.55,0-2.39-.09-2.92-.32-.56-.28-.97-.62-.97-2.04v-12.96c0-1.85-.04-2.88-.13-3.7.82.02,1.68.11,2.32.19.26.02.41.13.41.26,0,.17-.06.3-.13.45-.13.26-.17.73-.17,2.88v11.89Z" style="fill:#fff;"/><path d="m227.19,448.53c-.21,0-.24-.02-.24-.24,0-.15.04-1.27.04-7.07v-3.98c0-3.98-.04-5.16-.04-5.29,0-.24.02-.26.24-.26.15,0,.88.04,2.97.04h9.76c2.09,0,2.82-.04,2.95-.04.24,0,.26.02.26.26,0,.13-.04,1.29-.04,4.73v4.54c0,5.74.04,6.88.04,7.01,0,.21-.02.24-.26.24h-1.94c-.21,0-.24-.02-.24-.24v-1.61h-11.31v1.68c0,.21-.02.24-.26.24h-1.94Zm2.19-4.11h11.31v-10.49h-11.31v10.49Z" style="fill:#fff;"/><polyline points="186.21 417.98 177.16 400.33 196.19 417.31" style="fill:#ed0030; stroke:#545454; stroke-linecap:round; stroke-linejoin:round; stroke-width:1.89px;"/><rect x="9.29" y="325.53" width="25.94" height="39.9" style="fill:#67d4ff; stroke:#545454; stroke-miterlimit:10; stroke-width:.5px;"/><rect x="121.69" y="325.87" width="39.9" height="39.9" style="fill:#e6e6e6; stroke:#545454; stroke-miterlimit:10; stroke-width:.5px;"/><path d="m7.89,293.05c2.01.58,3.96,1.4,5.71,2.43.14.07.17.16.12.28-.12.32-.28.63-.42.86-.1.14-.17.17-.33.07-1.63-1.07-3.5-1.89-5.09-2.34v4.06c0,1.07.03,2.43.05,3.57.02.17-.03.23-.23.23-.26.02-.61.02-.89,0-.19,0-.25-.05-.25-.25.05-1.12.07-2.49.07-3.55v-7.79c0-1.31-.07-2.21-.19-2.8.61.05,1.14.12,1.45.23.28.07.21.26.12.53-.1.3-.12.82-.12,1.94v2.54Z" style="fill:gray;"/><path d="m27.07,298.68c0,1.05.02,2.05.05,3.17.02.16-.04.21-.18.21-.31.02-.7.02-1.02,0-.14,0-.17-.05-.17-.21.04-1.05.07-2.1.07-3.12v-5.18c-1.84,1.63-3.55,2.82-5.5,3.96-.16.09-.28.05-.4-.07-.23-.23-.54-.4-.88-.56,2.17-1.19,3.99-2.45,5.44-3.69,1.33-1.14,2.57-2.38,3.4-3.38.73-.89,1.05-1.42,1.21-1.98.47.25.95.52,1.21.79.18.18.14.39-.07.49-.21.11-.54.42-.98.93-.74.89-1.37,1.59-2.19,2.42v6.23Z" style="fill:gray;"/><path d="m39.06,299.25c1.68-.59,3.15-1.29,4.81-2.26,1.79-1.03,3.24-2.1,4.59-3.48.02.46.07.93.16,1.26.05.17.04.28-.1.4-1.3,1.17-2.85,2.21-4.38,3.08-1.35.79-2.7,1.38-4.29,2.12-.42.19-.77.33-.93.51-.16.16-.33.16-.49.03-.21-.17-.47-.44-.67-.7-.1-.14-.09-.26-.02-.42.07-.17.09-.38.09-.89l.04-5.65c.02-1.79.04-2.92-.18-3.97.54.05,1.23.18,1.49.28.21.07.23.21.12.49-.1.26-.17,1.19-.19,3.19l-.05,6.02Z" style="fill:gray;"/><rect x="4.39" y="308.3" width="44.18" height="44.18" rx="3.52" ry="3.52" style="fill:none; stroke:#0094e2; stroke-linecap:round; stroke-linejoin:round; stroke-width:3.52px;"/><rect x="3.34" y="307.24" width="44.18" height="44.18" rx="3.52" ry="3.52" style="fill:#fff;"/><rect x="3.34" y="307.24" width="44.18" height="44.18" rx="3.52" ry="3.52" style="fill:none; stroke:#0094e2; stroke-linecap:round; stroke-linejoin:round; stroke-width:1.76px;"/><polygon points="20.91 345.48 16.11 345.48 13.26 322.35 23.76 322.35 20.91 345.48" style="fill:#0094e2;"/><polygon points="29.95 322.35 34.76 322.35 37.6 345.48 27.11 345.48 29.95 322.35" style="fill:#ec0e8d;"/><circle cx="18.51" cy="317.12" r="3.93" style="fill:#0094e2;"/><circle cx="32.35" cy="317.12" r="3.93" style="fill:#ec0e8d;"/><rect x="81.79" y="347.82" width="39.9" height="17.96" style="fill:#e6e6e6; stroke:#545454; stroke-miterlimit:10; stroke-width:.5px;"/><rect x="68.43" y="313.37" width="44.18" height="44.18" rx="3.52" ry="3.52" style="fill:none; stroke:#f04d13; stroke-linecap:round; stroke-linejoin:round; stroke-width:3.52px;"/><rect x="67.37" y="312.32" width="44.18" height="44.18" rx="3.52" ry="3.52" style="fill:#f7931e;"/><rect x="67.37" y="312.32" width="44.18" height="44.18" rx="3.52" ry="3.52" style="fill:none; stroke:#f04d13; stroke-linecap:round; stroke-linejoin:round; stroke-width:1.76px;"/><path d="m93.74,343.68v-1.68h-1.63v-.75h1.63v-.67h-1.63v-.75h1.26l-1.72-2.98h1.72l.73,1.68c.18.42.31.78.44,1.14h.02c.14-.34.27-.74.45-1.15l.75-1.67h1.68l-1.79,2.98h1.25v.75h-1.65v.67h1.65v.75h-1.65v1.68h-1.5Z" style="fill:#fff;"/><path d="m85.9,343.03c-.36,0-.65.29-.65.65s.29.65.65.65.65-.29.65-.65-.29-.65-.65-.65" style="fill:#fff;"/><path d="m85.9,340.6c-.36,0-.65.29-.65.65s.29.65.65.65.65-.29.65-.65-.29-.65-.65-.65" style="fill:#fff;"/><path d="m102.99,332.77h-23.51v14.52h24.69v-14.52h-1.18Zm0,13.34h-16.45c0-.36-.29-.65-.65-.65s-.65.29-.65.65h-4.58v-12.15h4.58c0,.36.29.65.65.65s.65-.29.65-.65h16.45v12.15Z" style="fill:#fff;"/><path d="m85.9,338.17c-.36,0-.65.29-.65.65s.29.65.65.65.65-.29.65-.65-.29-.65-.65-.65" style="fill:#fff;"/><path d="m85.9,335.74c-.36,0-.65.29-.65.65s.29.65.65.65.65-.29.65-.65-.29-.65-.65-.65" style="fill:#fff;"/><polygon points="81.53 330.98 95.99 323.13 100.58 331.59 101.92 331.59 97.02 322.57 96.46 321.53 95.42 322.09 80.97 329.94 80.86 329.99 79.82 330.56 75.8 332.74 74.76 333.31 75.32 334.34 78.3 339.84 78.3 337.36 76.36 333.78 78.3 332.73 81.53 330.98" style="fill:#fff;"/><path d="m132.81,300.57q.21.07.19.21c-.09,1.31-.25,2.5-.77,3.69-.05.12-.09.12-.25.02l-.42-.28c-.14-.09-.16-.11-.1-.23.44-.98.67-2.05.77-3.45.02-.14.04-.14.26-.07l.31.11Zm5.93-8.72c0,.12-.02.14-.14.14-.09,0-.51-.04-1.72-.04h-.73v1.68h.26c1.26,0,1.63-.04,1.71-.04.12,0,.14.02.14.14v.6c0,.12-.02.14-.14.14-.09,0-.46-.04-1.71-.04h-.26v1.68h.26c1.26,0,1.63-.04,1.71-.04.12,0,.14.02.14.14v.6c0,.12-.02.14-.14.14-.09,0-.46-.04-1.71-.04h-.26v1.75h.61c1.17,0,1.52-.03,1.63-.03s.16.03.14.16c-.02.33-.04.65-.05.98-.12,2.84-.44,4.2-.73,4.88-.3.61-.88.96-1.52.96-.3,0-.7-.02-1-.03-.21-.02-.25-.02-.3-.37-.05-.3-.12-.49-.23-.7.54.07,1.07.11,1.37.11.4,0,.65-.19.82-.51.28-.49.54-1.79.65-4.62h-3.17c-1.3,0-1.73.04-1.87.04-.12,0-.14-.02-.14-.16,0-.09.03-.68.03-1.87v-4.2c0-1.43-.03-2.01-.03-2.12,0-.12.02-.14.14-.14.14,0,.58.04,1.87.04h2.52c1.21,0,1.63-.04,1.72-.04.12,0,.14.02.14.14v.67Zm-3.5.1h-1.91v1.68h1.91v-1.68Zm0,2.49h-1.91v1.68h1.91v-1.68Zm0,2.49h-1.91v1.75h1.91v-1.75Zm-1.35,3.64c.16-.04.19-.04.21.07.19.93.3,1.79.35,2.8,0,.16-.02.17-.17.23l-.37.12c-.16.05-.19.05-.19-.11-.04-1.07-.12-1.92-.3-2.85-.03-.14,0-.14.14-.17l.33-.09Zm1.17-.12c.14-.05.17-.05.21.07.23.7.4,1.47.52,2.36.02.12,0,.14-.14.19l-.3.12c-.16.07-.19.05-.21-.07-.1-.91-.25-1.72-.47-2.42-.04-.12-.02-.12.12-.17l.26-.09Zm1.08-.19c.14-.05.17-.05.23.05.25.51.44,1.07.61,1.79.02.11,0,.12-.12.17l-.26.12c-.14.07-.18.05-.19-.05-.16-.72-.35-1.35-.58-1.82-.05-.1-.04-.12.1-.17l.21-.09Zm7.42-2.96c.35,3.13,1.44,5.95,3.76,7.75-.21.14-.42.32-.61.58-.11.14-.16.21-.21.21s-.1-.05-.23-.16c-2.27-2-3.29-4.85-3.69-8.38h-1.75c-.04,1.17-.1,2.19-.23,3.27-.23,1.77-.75,3.64-1.85,5.13-.09.12-.14.19-.19.19s-.1-.07-.23-.17c-.21-.21-.46-.37-.68-.47,1.26-1.38,1.73-3.13,1.98-5.08.23-1.75.23-3.52.23-6.21,0-1.63-.04-2.33-.04-2.42,0-.12.02-.14.14-.14.1,0,.54.04,1.96.04h2.33c1.38,0,1.85-.04,1.94-.04.12,0,.14.02.14.14,0,.09-.04.54-.04,1.75v2.96c0,1.23.04,1.61.04,1.72,0,.12-.02.14-.14.14h-.75c-.12,0-.14-.02-.14-.14v-.67h-1.73Zm1.73-4.94h-4.43v1.71c0,.88,0,1.63-.02,2.31h4.45v-4.03Z" style="fill:gray;"/><path d="m155.02,296.04c.16,0,.28-.04.33-.07.05-.04.09-.04.16-.04.09,0,.21.07.42.25.24.23.31.35.31.46s-.04.16-.18.26c-.14.11-.17.23-.28.46-.21.44-.49.95-.89,1.58-.1.18-.16.25-.25.25-.05,0-.1-.04-.21-.1-.19-.12-.46-.18-.63-.21.52-.75.86-1.31,1.14-1.94h-1.65v5.13c0,.86.02,1.51.02,2.36,0,.59-.1.91-.47,1.19-.25.19-.73.26-2.05.23-.31-.02-.33-.02-.4-.35-.07-.3-.19-.53-.35-.72.56.07,1.02.11,1.59.11.52,0,.67-.12.67-.6v-4.17c0-.72.02-1.47.04-2.13-.54,1.58-1.28,3.13-2.73,4.79-.1.12-.17.19-.25.19s-.14-.07-.23-.21c-.14-.21-.35-.38-.51-.47,1.54-1.35,2.64-3.57,3.29-5.36h-.7c-1.47,0-1.96.04-2.05.04-.12,0-.14-.02-.14-.14v-.67c0-.12.02-.14.14-.14.09,0,.58.04,2.05.04h1.71c-.75-.79-1.49-1.42-2.43-2.1-.12-.09-.12-.12.04-.26l.33-.3c.16-.14.17-.14.3-.05.42.3.82.58,1.19.88.74-.61,1.44-1.26,2.01-2.06h-2.91c-1.4,0-1.84.02-1.92.02-.12,0-.14,0-.14-.12v-.72c0-.12.02-.14.14-.14.09,0,.52.04,1.92.04h3.05c.18,0,.33-.04.4-.07.07-.04.12-.05.19-.05.1,0,.23.07.49.33.28.28.33.38.33.51s-.14.21-.25.28c-.16.11-.28.28-.47.51-.63.74-1.21,1.37-2.14,2.1l.77.75c.1.09.09.12-.09.28l-.23.19h1.49Zm8.38,5.06c-.14,1.82-.23,2.96-.68,3.73-.3.56-.82.88-1.58.88-.33,0-.72-.02-1.14-.04-.33-.02-.35-.04-.4-.42-.04-.25-.12-.47-.25-.68.54.11,1.02.17,1.49.17.44,0,.7-.05.93-.4.35-.49.49-1.68.61-3.34h-2.91c-.63,2.28-2.05,3.71-4.25,4.78-.12.07-.21.1-.26.1-.09,0-.14-.07-.26-.26-.14-.23-.33-.42-.56-.56,2-.72,3.62-1.96,4.32-4.06h-.91c-1.59,0-2.12.04-2.21.04-.14,0-.16-.02-.16-.14v-.67c0-.14.02-.16.16-.16.09,0,.61.04,2.21.04h1.14c.07-.37.1-.77.12-1.21.02-.23,0-.52-.04-.77.35.02.72.05,1.03.12.16.04.23.09.23.16,0,.1-.04.19-.1.28-.07.09-.1.32-.14.58-.04.3-.07.58-.12.84h1.42c1.61,0,2.14-.04,2.22-.04.12,0,.17.05.16.17l-.07.86Zm.89-8.09c0,.12-.02.14-.14.14-.09,0-.46-.02-1.49-.04-.37,1.23-.96,2.24-1.71,3.05,1.12.82,2.45,1.42,3.89,1.71-.17.21-.31.42-.42.68q-.14.33-.47.23c-1.28-.4-2.56-1.08-3.68-1.98-1.07.89-2.31,1.5-3.59,1.89-.3.09-.33.09-.44-.19-.1-.26-.28-.49-.42-.63,1.31-.28,2.62-.82,3.71-1.7-.7-.67-1.31-1.42-1.77-2.26-.33.42-.72.86-1.21,1.37-.09.1-.16.16-.21.16s-.1-.05-.21-.17c-.16-.19-.37-.35-.58-.44,1.4-1.19,2.12-2.28,2.71-3.45.23-.49.35-.84.4-1.21.37.09.77.21,1.02.32.1.04.16.11.16.17,0,.09-.05.16-.14.21-.1.07-.26.33-.39.54l-.46.82h3.38c1.38,0,1.82-.04,1.91-.04.12,0,.14.02.14.14v.67Zm-5.95.1c.46.91,1.1,1.72,1.87,2.43.61-.67,1.1-1.47,1.42-2.43h-3.29Z" style="fill:gray;"/><path d="m181.87,305.22c0,.12,0,.14-.12.14-.1,0-.65-.04-2.29-.04h-10.48c-1.63,0-2.19.04-2.27.04-.12,0-.14-.02-.14-.14v-.72c0-.12.02-.14.14-.14.09,0,.65.04,2.27.04h4.57v-2.26h-2.5c-1.77,0-2.36.04-2.47.04-.12,0-.14-.02-.14-.14v-.72c0-.12.02-.14.14-.14.1,0,.7.04,2.47.04h2.5v-.12c0-.84-.02-1.3-.1-1.7.4.02.8.05,1.12.09.12.02.21.09.21.14,0,.12-.05.21-.1.33-.07.16-.09.42-.09,1.16v.1h2.8c1.77,0,2.36-.04,2.47-.04.12,0,.14.02.14.14v.72c0,.12-.02.14-.14.14-.1,0-.7-.04-2.47-.04h-2.8v2.26h4.88c1.65,0,2.19-.04,2.29-.04.12,0,.12.02.12.14v.72Zm-.58-11.76c0,1.45.04,1.64.04,1.75,0,.12-.02.14-.14.14h-.8c-.12,0-.14-.02-.14-.14v-2.33h-12.13v2.33c0,.12-.02.14-.14.14h-.8c-.12,0-.14-.02-.14-.14,0-.11.03-.3.03-1.75v-.54c0-.53-.03-.77-.03-.86,0-.12.02-.14.14-.14.09,0,.7.03,2.42.03h3.94v-.3c0-.58-.04-1.03-.12-1.44.42.02.82.05,1.16.09.12.02.21.07.21.16,0,.12-.05.19-.1.32-.07.16-.09.42-.09.88v.3h4.22c1.68,0,2.29-.03,2.4-.03.12,0,.14.02.14.14,0,.09-.04.33-.04.77v.63Zm-4.55,2.62c.14-.11.18-.09.28,0,1.02.8,1.96,1.75,2.89,2.82.09.11.07.12-.09.26l-.46.4c-.12.11-.18.11-.28-.02-.31-.39-.6-.75-.91-1.09-2.96.33-5.76.54-8.93.7-.49.02-.65.05-.74.12-.07.05-.12.07-.19.07s-.12-.07-.16-.17c-.07-.25-.16-.63-.23-.98.54.03,1.15.03,1.77.02.35,0,.72-.02,1.07-.03.58-.91,1.07-1.84,1.44-2.68h-.72c-1.65,0-2.24.03-2.33.03-.12,0-.14-.02-.14-.14v-.7c0-.12.02-.14.14-.14.09,0,.68.04,2.33.04h5.37c1.65,0,2.24-.04,2.33-.04.12,0,.14.02.14.14v.7c0,.12-.02.14-.14.14-.09,0-.68-.03-2.33-.03h-3.5c-.47.98-.96,1.85-1.45,2.62,1.91-.11,3.76-.25,5.57-.42-.37-.37-.77-.72-1.19-1.08-.1-.09-.1-.14.09-.28l.37-.26Z" style="fill:gray;"/><rect x="134.07" y="313.37" width="44.18" height="44.18" rx="3.52" ry="3.52" style="fill:none; stroke:#0094e2; stroke-linecap:round; stroke-linejoin:round; stroke-width:3.52px;"/><rect x="133.01" y="312.32" width="44.18" height="44.18" rx="3.52" ry="3.52" style="fill:#fff;"/><rect x="133.01" y="312.32" width="44.18" height="44.18" rx="3.52" ry="3.52" style="fill:none; stroke:#0094e2; stroke-linecap:round; stroke-linejoin:round; stroke-width:1.76px;"/><polygon points="162.33 324.41 146.52 324.41 143.19 317.65 163.37 320.45 162.33 324.41" style="fill:#0094e2;"/><path d="m146.21,326.38h15.71v4.99c0,2.5-2.08,6.55-7.18,6.55s-7.39-4.37-7.39-5.83v-2.39h-3.95l2.81-3.33Z" style="fill:#0094e2;"/><path d="m173.36,354.57c.52-4.06.1-8.01-1.98-10.19-2.08-2.18-5.83-3.74-11.86-3.74l-4.37,8.43-5.3-8.43s-5.1.52-7.07,1.35c-1.98.83-6.76,5.2-4.99,11.96.12.45.27,1.06.45,1.74h34.97c.05-.38.11-.75.15-1.11Z" style="fill:#0094e2;"/><rect x="555.99" y="46.86" width="17.29" height="39.9" style="fill:#e6e6e6; stroke:#545454; stroke-miterlimit:10; stroke-width:.5px;"/><rect x="561.36" y="37.43" width="44.18" height="44.18" rx="3.52" ry="3.52" style="fill:none; stroke:#f04d13; stroke-linecap:round; stroke-linejoin:round; stroke-width:3.52px;"/><rect x="560.3" y="36.37" width="44.18" height="44.18" rx="3.52" ry="3.52" style="fill:#f7931e;"/><rect x="560.3" y="36.37" width="44.18" height="44.18" rx="3.52" ry="3.52" style="fill:none; stroke:#f04d13; stroke-linecap:round; stroke-linejoin:round; stroke-width:1.76px;"/><path d="m586.67,67.73v-1.68h-1.63v-.75h1.63v-.67h-1.63v-.75h1.26l-1.72-2.98h1.72l.73,1.68c.18.42.31.78.44,1.14h.02c.14-.34.27-.74.45-1.15l.75-1.67h1.68l-1.79,2.98h1.25v.75h-1.65v.67h1.65v.75h-1.65v1.68h-1.5Z" style="fill:#fff;"/><path d="m578.82,67.08c-.36,0-.65.29-.65.65s.29.65.65.65.65-.29.65-.65-.29-.65-.65-.65" style="fill:#fff;"/><path d="m578.82,64.65c-.36,0-.65.29-.65.65s.29.65.65.65.65-.29.65-.65-.29-.65-.65-.65" style="fill:#fff;"/><path d="m595.92,56.83h-23.51v14.52h24.69v-14.52h-1.18Zm0,13.34h-16.45c0-.36-.29-.65-.65-.65s-.65.29-.65.65h-4.58v-12.15h4.58c0,.36.29.65.65.65s.65-.29.65-.65h16.45v12.15Z" style="fill:#fff;"/><path d="m578.82,62.22c-.36,0-.65.29-.65.65s.29.65.65.65.65-.29.65-.65-.29-.65-.65-.65" style="fill:#fff;"/><path d="m578.82,59.79c-.36,0-.65.29-.65.65s.29.65.65.65.65-.29.65-.65-.29-.65-.65-.65" style="fill:#fff;"/><polygon points="574.46 55.03 588.92 47.19 593.51 55.65 594.85 55.65 589.95 46.62 589.39 45.58 588.35 46.15 573.89 53.99 573.79 54.05 572.75 54.61 568.73 56.8 567.69 57.36 568.25 58.4 571.23 63.89 571.23 61.41 569.29 57.84 571.23 56.78 574.46 55.03" style="fill:#fff;"/><path d="m512.43,60.19c1.07,1.23,2.54,2.29,4.64,3.05-.16.12-.35.4-.49.68-.09.16-.14.23-.23.23-.07,0-.16-.03-.28-.09-2.24-1.12-3.75-2.36-4.87-3.87h-4.52c-1.12,1.5-2.64,2.83-4.8,3.97-.12.07-.19.11-.26.11-.09,0-.14-.07-.24-.25-.12-.21-.32-.42-.49-.54,1.96-.86,3.45-1.98,4.55-3.29h-1.45c-1.68,0-2.22.04-2.33.04-.12,0-.14-.02-.14-.14v-.68c0-.12.02-.14.14-.14.1,0,.65.04,2.33.04h2.14c.46-.67.82-1.37,1.14-2.1h-2.21c-1.77,0-2.35.04-2.43.04-.12,0-.14-.02-.14-.14v-.68c0-.12.02-.14.14-.14.09,0,.67.03,2.43.03h2.54c.17-.52.3-1.05.42-1.61.21-1,.25-1.38.21-1.86.53.05.79.09,1.12.16.14.04.23.11.23.21s-.07.21-.16.32c-.1.14-.19.46-.37,1.17-.12.56-.28,1.08-.44,1.61h2.17c.47-.59.89-1.26,1.29-1.94.17-.31.33-.63.4-.96.37.12.67.25.96.39.12.05.17.1.17.17,0,.1-.07.16-.16.23-.12.09-.21.21-.4.49-.33.49-.79,1.1-1.19,1.63h1.17c1.77,0,2.35-.03,2.43-.03.14,0,.16.02.16.14v.68c0,.12-.02.14-.16.14-.09,0-.67-.04-2.43-.04h-2.5c.31.7.7,1.42,1.19,2.1h2.24c1.68,0,2.22-.04,2.33-.04.12,0,.14.02.14.14v.68c0,.12-.02.14-.14.14-.11,0-.65-.04-2.33-.04h-1.54Zm-1.84,2.22c1.59,0,2.1-.04,2.21-.04s.17.04.16.19c-.03.49-.05.98-.07,1.31-.1,1.87-.31,3.18-.63,3.73-.28.47-.84.7-1.49.7-.47,0-.82-.02-1.26-.05q-.33-.02-.4-.38c-.05-.26-.16-.54-.28-.72.63.11,1.12.16,1.63.16.42,0,.72-.05.91-.38.28-.47.4-1.56.47-3.59h-3.41c-.54,2.75-2.1,4.36-5.39,5.32-.1.04-.18.05-.23.05-.12,0-.16-.09-.28-.3-.12-.23-.3-.42-.49-.56,3.22-.79,4.73-2.05,5.3-4.52h-.26c-1.59,0-2.12.04-2.22.04-.12,0-.14-.02-.14-.14v-.72c0-.12.02-.14.14-.14.1,0,.63.04,2.22.04h3.52Zm-5.92-8.93c.16-.07.18-.07.25.02.47.59.91,1.33,1.21,1.98.07.14.04.17-.17.26l-.49.23q-.25.1-.3-.04c-.31-.79-.67-1.35-1.1-1.98-.1-.12-.07-.16.12-.25l.49-.23Zm5.93,5.81c-.38-.65-.73-1.35-1.05-2.1h-1.26c-.28.74-.61,1.44-1.02,2.1h3.33Z" style="fill:gray;"/><path d="m525.1,62.26c-.04.1-.11.35-.16.95-.23,2.28-1.07,4.13-4.92,5.23-.12.04-.21.07-.28.07-.11,0-.14-.07-.25-.26-.14-.26-.35-.51-.58-.65,3.96-.82,4.83-2.47,4.94-4.45.04-.7.05-1.07-.04-1.52.42.02.79.05,1.12.1.16.04.26.09.26.17,0,.12-.05.21-.1.35Zm8.82-6.42c0,.12-.02.14-.14.14-.1,0-.67-.04-2.33-.04h-4.64v1.65h3.03c1.79,0,2.4-.04,2.49-.04.12,0,.14.02.14.14v.7c0,.12-.02.14-.14.14-.09,0-.7-.04-2.49-.04h-6.88c-1.79,0-2.38.04-2.47.04-.12,0-.14-.02-.14-.14v-.7c0-.12.02-.14.14-.14.09,0,.68.04,2.47.04h2.77v-1.65h-4.22c-1.68,0-2.24.04-2.33.04-.12,0-.14-.02-.14-.14v-.74c0-.12.02-.12.14-.12.09,0,.65.02,2.33.02h4.22v-.04c0-1.01-.02-1.5-.14-2.13.46.02.8.04,1.22.09.12.02.19.07.19.16s-.04.17-.09.31c-.07.18-.11.58-.11,1.4v.21h4.64c1.66,0,2.22-.02,2.33-.02.12,0,.14,0,.14.12v.74Zm-.38,5.53c0,1.33.04,1.5.04,1.59,0,.12-.02.14-.14.14h-.81c-.12,0-.14-.02-.14-.14v-2.03h-12.01v2.03c0,.12-.02.14-.14.14h-.8c-.12,0-.14-.02-.14-.14,0-.11.04-.28.04-1.59v-.49c0-.46-.04-.67-.04-.77,0-.12.02-.12.14-.12.09,0,.7.02,2.43.02h9.03c1.72,0,2.33-.02,2.43-.02.12,0,.14,0,.14.12,0,.11-.04.32-.04.68v.58Zm-5.08,5.06c0,.47.1.58.37.65.28.09.67.12,1.65.12s1.59-.07,1.89-.28c.39-.28.47-.84.49-1.86.23.16.46.28.72.37.3.1.3.12.26.44-.14,1.08-.32,1.5-.77,1.86-.4.31-1.17.47-2.64.47-1.26,0-1.8-.05-2.31-.21-.31-.09-.7-.33-.7-1.08v-3.5c0-.75-.05-1.45-.1-1.8.42.02.82.05,1.1.09.16.02.25.11.25.16,0,.12-.05.21-.11.33-.07.16-.09.32-.09,1.14v3.12Z" style="fill:gray;"/><path d="m540.71,57.57c0,.12-.02.14-.16.14-.09,0-.4-.04-1.44-.04.46,1.44.84,2.36,1.52,3.4-.14.19-.28.46-.4.72-.05.12-.1.17-.14.17-.05,0-.09-.05-.14-.17-.46-1.03-.74-1.84-1.05-3.19.02,5.29.17,9.66.17,9.91,0,.11-.02.12-.14.12h-.79c-.12,0-.14-.02-.14-.12,0-.25.14-4.64.17-9.75-.47,2.13-.91,3.73-1.8,5.48-.07.12-.12.19-.18.19s-.09-.05-.14-.17c-.11-.26-.28-.49-.44-.65,1.05-1.87,1.58-3.4,2.24-5.93h-.11c-1.14,0-1.45.04-1.54.04-.14,0-.16-.02-.16-.14v-.7c0-.12.02-.14.16-.14.09,0,.4.03,1.54.03h.3v-1.73c0-1.05-.02-1.56-.12-2.13.42.02.72.05,1.07.1.12.02.21.07.21.14,0,.14-.05.23-.11.35-.09.19-.09.51-.09,1.5v1.77c1.12,0,1.43-.03,1.52-.03.14,0,.16.02.16.14v.7Zm6.49,5.13c.09.38.19.75.32,1.1.14.46.3.88.49,1.26.4-.37.77-.75,1.05-1.12.23-.31.37-.54.47-.84.28.14.61.32.79.47.12.11.14.16.14.21,0,.09-.05.14-.16.19-.14.07-.31.25-.49.46-.37.46-.82.93-1.37,1.4.61.95,1.29,1.52,1.77,1.52s.7-.53.84-2.24c.14.16.37.3.56.4q.33.18.26.53c-.25,1.66-.65,2.35-1.58,2.35s-1.85-.72-2.62-1.93c-1.05.77-2.34,1.5-3.87,2-.33.11-.33.12-.49-.21-.11-.19-.25-.37-.44-.52,1.64-.39,3.17-1.17,4.36-2.05-.21-.42-.4-.89-.56-1.38-.18-.49-.33-1.03-.46-1.59h-3.15c-.21,2.29-.84,4.11-2.29,5.51-.12.12-.17.18-.25.18s-.14-.05-.26-.19c-.16-.17-.31-.28-.51-.38,1.58-1.26,2.21-2.91,2.35-5.11-1.07.02-1.47.04-1.54.04-.12,0-.14-.02-.14-.14v-.67c0-.12.02-.14.14-.14.09,0,.68.04,2.45.04h3.01c-.42-2.05-.65-4.36-.75-6.62-.04-1.21-.07-1.61-.19-2.24.42.02.72.05,1.07.11.12.02.26.09.26.16,0,.12-.05.21-.11.33-.05.14-.07.52-.05,1.59.05,2.34.32,4.69.74,6.67h2.19c1.79,0,2.36-.04,2.47-.04s.12.02.12.14v.67c0,.12-.02.14-.12.14s-.68-.04-2.47-.04h-1.98Zm-2.92-4.39c.12-.05.16-.05.21.05.33.56.67,1.35.89,2.01.05.12.02.16-.12.23l-.4.18c-.18.09-.21.1-.25-.04l-.19-.56c-.93.17-1.89.32-2.61.4-.38.04-.51.09-.59.16-.07.05-.14.09-.19.09-.09,0-.16-.07-.19-.19-.07-.25-.14-.58-.18-.86.21.02.39.02.56.02.44-.53.89-1.14,1.31-1.75-.61-.82-1.21-1.49-1.89-2.1-.09-.07-.11-.09.05-.26l.32-.33c.09-.11.1-.11.19-.04l.38.37c.44-.59.84-1.29,1.1-1.84.09-.19.18-.4.23-.65.3.11.63.26.84.4.12.07.16.1.16.19,0,.07-.07.14-.16.19-.11.07-.19.14-.28.31-.32.51-.79,1.33-1.29,1.96.3.33.59.67.88,1l.59-.98c.16-.26.28-.51.35-.79.31.14.63.33.84.49.09.07.14.14.14.19,0,.09-.07.14-.17.19-.16.09-.3.3-.61.74-.53.77-1.26,1.82-1.91,2.62.58-.05,1.19-.12,1.87-.23-.12-.26-.26-.54-.4-.79-.07-.12-.05-.16.12-.23l.4-.17Zm-.75,5.67c.09-.1.12-.12.25-.05.58.33,1.15.74,1.7,1.19.09.07.07.12-.02.25l-.26.37c-.14.19-.17.19-.28.09-.51-.49-1.08-.93-1.66-1.26-.12-.07-.11-.09.04-.26l.25-.32Zm7.04-6.04c.16-.09.17-.05.25.05.38.59.77,1.38,1.05,2.12.04.11,0,.16-.12.21l-.37.17c-.19.09-.21.07-.25-.05-.07-.23-.16-.44-.26-.67-1,.16-2.03.32-2.73.38-.38.05-.53.12-.61.17-.07.04-.14.07-.19.07-.09,0-.16-.07-.19-.19-.07-.23-.12-.54-.18-.82.18.02.33.02.51.02.37-.46.75-.95,1.12-1.47-.61-.84-1.17-1.52-1.86-2.13-.1-.09-.1-.11.05-.26l.32-.33c.12-.12.12-.1.21-.03.14.14.28.26.4.4.4-.58.77-1.21,1.01-1.72.11-.19.19-.44.25-.68.3.11.63.26.84.4.12.07.16.1.16.19,0,.07-.07.16-.16.19-.11.05-.19.14-.28.32-.3.49-.75,1.26-1.24,1.89.3.33.56.67.82,1,.28-.4.54-.82.77-1.23.16-.26.28-.51.35-.79.31.14.63.35.84.49.09.07.14.14.14.19,0,.09-.05.14-.17.19-.16.07-.3.3-.61.73-.53.75-1.26,1.8-1.91,2.57.63-.05,1.3-.12,2.03-.23-.14-.28-.3-.54-.46-.79-.07-.12-.05-.12.16-.23l.31-.16Zm-1.7,2.36c.12-.11.17-.11.3-.02.32.25.65.54.96.88.11.1.09.12-.04.23l-.28.25c-.16.14-.18.14-.28.02-.28-.35-.65-.68-.96-.91-.12-.09-.1-.11.07-.25l.23-.19Z" style="fill:gray;"/><path d="m78.13,297.63c1.07,1.23,2.54,2.29,4.64,3.05-.16.12-.35.4-.49.68-.09.16-.14.23-.23.23-.07,0-.16-.03-.28-.09-2.24-1.12-3.75-2.36-4.87-3.87h-4.52c-1.12,1.5-2.64,2.83-4.8,3.97-.12.07-.19.11-.26.11-.09,0-.14-.07-.24-.25-.12-.21-.32-.42-.49-.54,1.96-.86,3.45-1.98,4.55-3.29h-1.45c-1.68,0-2.22.04-2.33.04-.12,0-.14-.02-.14-.14v-.68c0-.12.02-.14.14-.14.1,0,.65.04,2.33.04h2.14c.46-.67.82-1.37,1.14-2.1h-2.21c-1.77,0-2.35.04-2.43.04-.12,0-.14-.02-.14-.14v-.68c0-.12.02-.14.14-.14.09,0,.67.03,2.43.03h2.54c.17-.52.3-1.05.42-1.61.21-1,.25-1.38.21-1.86.53.05.79.09,1.12.16.14.04.23.11.23.21s-.07.21-.16.32c-.1.14-.19.46-.37,1.17-.12.56-.28,1.08-.44,1.61h2.17c.47-.59.89-1.26,1.29-1.94.17-.31.33-.63.4-.96.37.12.67.25.96.39.12.05.17.1.17.17,0,.1-.07.16-.16.23-.12.09-.21.21-.4.49-.33.49-.79,1.1-1.19,1.63h1.17c1.77,0,2.35-.03,2.43-.03.14,0,.16.02.16.14v.68c0,.12-.02.14-.16.14-.09,0-.67-.04-2.43-.04h-2.5c.31.7.7,1.42,1.19,2.1h2.24c1.68,0,2.22-.04,2.33-.04.12,0,.14.02.14.14v.68c0,.12-.02.14-.14.14-.1,0-.65-.04-2.33-.04h-1.54Zm-1.84,2.22c1.59,0,2.1-.04,2.21-.04s.17.04.16.19c-.03.49-.05.98-.07,1.31-.1,1.87-.31,3.18-.63,3.73-.28.47-.84.7-1.49.7-.47,0-.82-.02-1.26-.05q-.33-.02-.4-.38c-.05-.26-.16-.54-.28-.72.63.11,1.12.16,1.63.16.42,0,.72-.05.91-.38.28-.47.4-1.56.47-3.59h-3.41c-.54,2.75-2.1,4.36-5.39,5.32-.1.04-.18.05-.23.05-.12,0-.16-.09-.28-.3-.12-.23-.3-.42-.49-.56,3.22-.79,4.73-2.05,5.3-4.52h-.26c-1.59,0-2.12.04-2.22.04-.12,0-.14-.02-.14-.14v-.72c0-.12.02-.14.14-.14.1,0,.63.04,2.22.04h3.52Zm-5.92-8.93c.16-.07.18-.07.25.02.47.59.91,1.33,1.21,1.98.07.14.04.17-.17.26l-.49.23q-.25.1-.3-.04c-.31-.79-.67-1.35-1.1-1.98-.1-.12-.07-.16.12-.25l.49-.23Zm5.93,5.81c-.38-.65-.73-1.35-1.05-2.1h-1.26c-.28.74-.61,1.44-1.02,2.1h3.33Z" style="fill:gray;"/><path d="m90.8,299.69c-.04.1-.1.35-.16.95-.23,2.28-1.07,4.13-4.92,5.23-.12.04-.21.07-.28.07-.1,0-.14-.07-.25-.26-.14-.26-.35-.51-.58-.65,3.96-.82,4.83-2.47,4.94-4.45.04-.7.05-1.07-.04-1.52.42.02.79.05,1.12.1.16.04.26.09.26.17,0,.12-.05.21-.1.35Zm8.82-6.42c0,.12-.02.14-.14.14-.1,0-.67-.04-2.33-.04h-4.64v1.65h3.03c1.79,0,2.4-.04,2.49-.04.12,0,.14.02.14.14v.7c0,.12-.02.14-.14.14-.09,0-.7-.04-2.49-.04h-6.88c-1.79,0-2.38.04-2.47.04-.12,0-.14-.02-.14-.14v-.7c0-.12.02-.14.14-.14.09,0,.68.04,2.47.04h2.77v-1.65h-4.22c-1.68,0-2.24.04-2.33.04-.12,0-.14-.02-.14-.14v-.74c0-.12.02-.12.14-.12.09,0,.65.02,2.33.02h4.22v-.04c0-1.01-.02-1.5-.14-2.13.46.02.8.04,1.23.09.12.02.19.07.19.16s-.04.17-.09.31c-.07.18-.1.58-.1,1.4v.21h4.64c1.66,0,2.22-.02,2.33-.02.12,0,.14,0,.14.12v.74Zm-.38,5.53c0,1.33.03,1.5.03,1.59,0,.12-.02.14-.14.14h-.81c-.12,0-.14-.02-.14-.14v-2.03h-12.01v2.03c0,.12-.02.14-.14.14h-.81c-.12,0-.14-.02-.14-.14,0-.11.04-.28.04-1.59v-.49c0-.46-.04-.67-.04-.77,0-.12.02-.12.14-.12.09,0,.7.02,2.43.02h9.03c1.72,0,2.33-.02,2.43-.02.12,0,.14,0,.14.12,0,.11-.03.32-.03.68v.58Zm-5.08,5.06c0,.47.1.58.37.65.28.09.67.12,1.65.12s1.59-.07,1.89-.28c.39-.28.47-.84.49-1.86.23.16.46.28.72.37.3.1.3.12.26.44-.14,1.08-.31,1.5-.77,1.86-.4.31-1.17.47-2.64.47-1.26,0-1.8-.05-2.31-.21-.31-.09-.7-.33-.7-1.08v-3.5c0-.75-.05-1.45-.1-1.8.42.02.82.05,1.1.09.16.02.24.11.24.16,0,.12-.05.21-.1.33-.07.16-.09.32-.09,1.14v3.12Z" style="fill:gray;"/><path d="m106.41,295c0,.12-.02.14-.16.14-.09,0-.4-.04-1.44-.04.46,1.44.84,2.36,1.52,3.4-.14.19-.28.46-.4.72-.05.12-.1.17-.14.17-.05,0-.09-.05-.14-.17-.46-1.03-.74-1.84-1.05-3.19.02,5.29.17,9.66.17,9.91,0,.11-.02.12-.14.12h-.79c-.12,0-.14-.02-.14-.12,0-.25.14-4.64.17-9.75-.47,2.13-.91,3.73-1.8,5.48-.07.12-.12.19-.18.19s-.09-.05-.14-.17c-.1-.26-.28-.49-.44-.65,1.05-1.87,1.58-3.4,2.24-5.93h-.1c-1.14,0-1.45.04-1.54.04-.14,0-.16-.02-.16-.14v-.7c0-.12.02-.14.16-.14.09,0,.4.03,1.54.03h.3v-1.73c0-1.05-.02-1.56-.12-2.13.42.02.72.05,1.07.1.12.02.21.07.21.14,0,.14-.05.23-.1.35-.09.19-.09.51-.09,1.5v1.77c1.12,0,1.44-.03,1.52-.03.14,0,.16.02.16.14v.7Zm6.49,5.13c.09.38.19.75.31,1.1.14.46.3.88.49,1.26.4-.37.77-.75,1.05-1.12.23-.31.37-.54.47-.84.28.14.61.32.79.47.12.11.14.16.14.21,0,.09-.05.14-.16.19-.14.07-.31.25-.49.46-.37.46-.82.93-1.37,1.4.61.95,1.29,1.52,1.77,1.52s.7-.53.84-2.24c.14.16.37.3.56.4q.33.18.26.53c-.25,1.66-.65,2.35-1.58,2.35s-1.85-.72-2.62-1.93c-1.05.77-2.35,1.5-3.87,2-.33.11-.33.12-.49-.21-.1-.19-.25-.37-.44-.52,1.65-.39,3.17-1.17,4.36-2.05-.21-.42-.4-.89-.56-1.38-.18-.49-.33-1.03-.46-1.59h-3.15c-.21,2.29-.84,4.11-2.29,5.51-.12.12-.17.18-.25.18s-.14-.05-.26-.19c-.16-.17-.31-.28-.51-.38,1.58-1.26,2.21-2.91,2.35-5.11-1.07.02-1.47.04-1.54.04-.12,0-.14-.02-.14-.14v-.67c0-.12.02-.14.14-.14.09,0,.68.04,2.45.04h3.01c-.42-2.05-.65-4.36-.75-6.62-.04-1.21-.07-1.61-.19-2.24.42.02.72.05,1.07.11.12.02.26.09.26.16,0,.12-.05.21-.1.33-.05.14-.07.52-.05,1.59.05,2.34.32,4.69.74,6.67h2.19c1.79,0,2.36-.04,2.47-.04s.12.02.12.14v.67c0,.12-.02.14-.12.14s-.68-.04-2.47-.04h-1.98Zm-2.92-4.39c.12-.05.16-.05.21.05.33.56.67,1.35.89,2.01.05.12.02.16-.12.23l-.4.18c-.18.09-.21.1-.25-.04l-.19-.56c-.93.17-1.89.32-2.61.4-.38.04-.51.09-.6.16-.07.05-.14.09-.19.09-.09,0-.16-.07-.19-.19-.07-.25-.14-.58-.18-.86.21.02.39.02.56.02.44-.53.89-1.14,1.31-1.75-.61-.82-1.21-1.49-1.89-2.1-.09-.07-.11-.09.05-.26l.31-.33c.09-.11.1-.11.19-.04l.38.37c.44-.59.84-1.29,1.1-1.84.09-.19.18-.4.23-.65.3.11.63.26.84.4.12.07.16.1.16.19,0,.07-.07.14-.16.19-.1.07-.19.14-.28.31-.31.51-.79,1.33-1.29,1.96.3.33.59.67.88,1l.6-.98c.16-.26.28-.51.35-.79.31.14.63.33.84.49.09.07.14.14.14.19,0,.09-.07.14-.18.19-.16.09-.3.3-.61.74-.52.77-1.26,1.82-1.91,2.62.58-.05,1.19-.12,1.87-.23-.12-.26-.26-.54-.4-.79-.07-.12-.05-.16.12-.23l.4-.17Zm-.75,5.67c.09-.1.12-.12.25-.05.58.33,1.15.74,1.7,1.19.09.07.07.12-.02.25l-.26.37c-.14.19-.18.19-.28.09-.51-.49-1.08-.93-1.66-1.26-.12-.07-.1-.09.04-.26l.25-.32Zm7.04-6.04c.16-.09.17-.05.25.05.38.59.77,1.38,1.05,2.12.04.11,0,.16-.12.21l-.37.17c-.19.09-.21.07-.25-.05-.07-.23-.16-.44-.26-.67-1,.16-2.03.32-2.73.38-.39.05-.53.12-.61.17-.07.04-.14.07-.19.07-.09,0-.16-.07-.19-.19-.07-.23-.12-.54-.18-.82.18.02.33.02.51.02.37-.46.75-.95,1.12-1.47-.61-.84-1.17-1.52-1.86-2.13-.1-.09-.1-.11.05-.26l.31-.33c.12-.12.12-.1.21-.03.14.14.28.26.4.4.4-.58.77-1.21,1.02-1.72.1-.19.19-.44.25-.68.3.11.63.26.84.4.12.07.16.1.16.19,0,.07-.07.16-.16.19-.1.05-.19.14-.28.32-.3.49-.75,1.26-1.24,1.89.3.33.56.67.82,1,.28-.4.54-.82.77-1.23.16-.26.28-.51.35-.79.31.14.63.35.84.49.09.07.14.14.14.19,0,.09-.05.14-.17.19-.16.07-.3.3-.61.73-.52.75-1.26,1.8-1.91,2.57.63-.05,1.3-.12,2.03-.23-.14-.28-.3-.54-.46-.79-.07-.12-.05-.12.16-.23l.31-.16Zm-1.7,2.36c.12-.11.18-.11.3-.02.32.25.65.54.96.88.1.1.09.12-.04.23l-.28.25c-.16.14-.18.14-.28.02-.28-.35-.65-.68-.96-.91-.12-.09-.1-.11.07-.25l.23-.19Z" style="fill:gray;"/><path d="m770.26,161.48c0,.12-.02.14-.14.14-.09,0-.63-.04-2.29-.04h-4.94v2.63c1.8.68,3.66,1.65,5.48,2.85.11.07.14.1,0,.3l-.37.51c-.16.23-.19.23-.31.14-1.7-1.17-3.1-1.98-4.8-2.71v6.42c0,1.91.04,2.71.04,2.8,0,.12-.02.14-.14.14h-.93c-.12,0-.14-.02-.14-.14,0-.1.04-.89.04-2.8v-10.13h-4.18c-1.65,0-2.21.04-2.29.04-.12,0-.14-.02-.14-.14v-.84c0-.12.02-.14.14-.14.09,0,.65.04,2.29.04h10.26c1.66,0,2.21-.04,2.29-.04.12,0,.14.02.14.14v.84Z" style="fill:#0094e2;"/><path d="m778,160.38c.16.09.23.16.23.26,0,.09-.04.17-.07.23-.14.19-.25.37-.32.68-.33,1.63-.49,3.08-.52,4.03-.02.67-.02,1.38.07,1.98.37-.74.89-1.73,1.3-2.52.1.33.23.54.35.72.12.19.09.3-.02.47-.46.81-.86,1.66-1.1,2.31-.11.28-.12.4-.12.56.02.16-.02.21-.12.25-.16.04-.54.09-.84.12-.09,0-.14-.07-.17-.18-.26-.72-.44-1.92-.44-3.27,0-1.07.19-2.7.4-4.11.1-.73.19-1.29.16-1.94.49.1.93.26,1.23.42Zm5.53-.17c.26.05.3.17.26.35-.05.19-.05.49-.04.82.14,1.94.21,3.4.21,4.64,0,2.5-.44,4.39-1.44,5.74-.7.96-1.63,1.82-2.89,2.54-.17.1-.3.1-.46-.04-.23-.19-.58-.4-.89-.49,1.42-.75,2.29-1.38,3.05-2.4.98-1.31,1.43-2.8,1.43-5.3,0-1.21-.07-2.87-.17-4.17-.07-.84-.17-1.29-.35-1.84.49.02.96.05,1.28.14Z" style="fill:#0094e2;"/><path d="m794.1,167.45c.28.17.23.28.02.49-.12.12-.26.28-.47.68-.42.81-1.08,1.87-1.8,2.7-.16.18-.26.23-.47.1-.28-.17-.59-.31-.91-.38,1.03-1.03,1.63-1.98,2.07-2.87.19-.38.33-.8.4-1.28.44.16.82.33,1.17.56Zm3.04-4.8c0-.98-.05-1.84-.19-2.42.54.04,1.14.1,1.45.19.25.07.28.26.14.49s-.17.79-.17,1.82v1.07h2.28c1.26,0,2.55-.03,3.59-.09.16-.02.21.05.21.21,0,.25,0,.54-.02.79,0,.18-.04.25-.21.25-1.14-.05-2.5-.07-3.62-.07h-2.22v3.04c0,1.49.05,2.64.05,3.76,0,.75-.26,1.31-.88,1.61-.63.32-1.45.47-2.01.51-.14.02-.24-.05-.3-.21-.16-.39-.38-.7-.74-.98.89,0,1.68-.12,2.17-.32.37-.14.47-.37.47-1.02v-6.41h-2.8c-.98,0-2.07.05-2.99.12-.16.02-.21-.07-.23-.25-.02-.21-.07-.75-.07-1.09,1.24.11,2.29.12,3.26.12h2.83v-1.15Zm4.66,4.43c.12-.09.21-.05.33.05.93.82,1.73,1.92,2.45,3.17.11.19.07.26-.07.4-.17.16-.44.37-.67.51-.14.09-.23.09-.3-.07-.6-1.21-1.47-2.49-2.52-3.5.28-.21.53-.38.77-.56Z" style="fill:#0094e2;"/><path d="m811.37,167.73c-1.52,0-2.26.18-2.36.18-.16,0-.24-.07-.3-.25-.07-.3-.14-.86-.17-1.33,1.07.14,2.42.16,3.87.16h5.37c1.21,0,2.5-.02,3.83-.05.21-.02.26.02.26.21.02.26.02.63,0,.91,0,.19-.05.23-.26.21-1.31-.04-2.61-.04-3.78-.04h-6.46Z" style="fill:#0094e2;"/><path d="m833.3,160.87c.16.1.17.3-.02.52-.21.23-.42.63-.63,1.28-.86,2.56-2.05,5.74-3.27,8.51,2.36-.19,5.15-.44,7.46-.79-.58-1.03-1.29-2.1-2.12-3.06.28-.16.56-.35.82-.49.17-.1.25-.05.35.09,1.29,1.52,2.5,3.52,3.39,5.41.09.16.04.26-.09.35-.26.16-.53.3-.77.42-.14.07-.23.04-.31-.16-.23-.49-.47-1.02-.74-1.49-2.75.42-5.51.72-8.61,1.05-1.28.14-1.59.23-1.79.33-.25.16-.46.17-.56-.07-.11-.24-.26-.8-.42-1.45.63.05,1.21.04,2.06-.02,1.26-2.99,2.54-6.42,3.13-8.35.4-1.29.51-2.03.54-2.7.65.18,1.24.4,1.56.61Z" style="fill:#0094e2;"/><path d="m844.88,173.29v-12.69l13.74,6.35-13.74,6.35Z" style="fill:#0094e2;"/><path d="m768.93,314.59v12.69l-13.74-6.34,13.74-6.35Z" style="fill:#0094e2;"/><path d="m788.93,327.69c0,.12-.02.14-.14.14-.09,0-.65-.04-2.31-.04h-10.06c-1.66,0-2.22.04-2.31.04-.12,0-.14-.02-.14-.14v-.89c0-.12.02-.14.14-.14.09,0,.65.04,2.31.04h3.96v-10.71c0-1.31-.02-1.87-.11-2.52.44.02.89.05,1.23.11.12.02.23.07.23.16,0,.11-.04.19-.09.33-.07.19-.12.61-.12,1.7v3.31h3.48c1.66,0,2.22-.04,2.31-.04.12,0,.14.02.14.14v.89c0,.12-.02.14-.14.14-.09,0-.65-.04-2.31-.04h-3.48v6.53h4.97c1.66,0,2.22-.04,2.31-.04.12,0,.14.02.14.14v.89Z" style="fill:#0094e2;"/><path d="m796.72,314.37c.16.09.23.16.23.26,0,.09-.04.17-.07.23-.14.19-.24.37-.31.68-.33,1.63-.49,3.08-.53,4.03-.02.67-.02,1.38.07,1.98.37-.74.89-1.73,1.29-2.52.11.33.23.54.35.72.12.19.09.3-.02.47-.46.81-.86,1.66-1.1,2.31-.11.28-.12.4-.12.56.02.16-.02.21-.12.25-.16.04-.54.09-.84.12-.09,0-.14-.07-.17-.18-.26-.72-.44-1.92-.44-3.27,0-1.07.19-2.7.4-4.11.11-.73.19-1.29.16-1.94.49.11.93.26,1.22.42Zm5.53-.17c.26.05.3.17.26.35-.05.19-.05.49-.04.82.14,1.94.21,3.4.21,4.64,0,2.5-.44,4.39-1.43,5.74-.7.96-1.63,1.82-2.89,2.54-.17.11-.3.11-.46-.04-.23-.19-.58-.4-.89-.49,1.42-.75,2.29-1.38,3.04-2.4.98-1.31,1.44-2.8,1.44-5.3,0-1.21-.07-2.87-.17-4.17-.07-.84-.18-1.29-.35-1.84.49.02.96.05,1.28.14Z" style="fill:#0094e2;"/><path d="m812.82,321.44c.28.17.23.28.02.49-.12.12-.26.28-.47.68-.42.81-1.08,1.87-1.8,2.7-.16.18-.26.23-.47.11-.28-.17-.6-.32-.91-.38,1.03-1.03,1.63-1.98,2.06-2.87.19-.38.33-.8.4-1.28.44.16.82.33,1.17.56Zm3.05-4.8c0-.98-.05-1.84-.19-2.42.54.04,1.14.1,1.45.19.25.07.28.26.14.49-.14.23-.18.79-.18,1.82v1.07h2.28c1.26,0,2.56-.04,3.59-.09.16-.02.21.05.21.21,0,.25,0,.54-.02.79,0,.17-.04.25-.21.25-1.14-.05-2.5-.07-3.62-.07h-2.22v3.04c0,1.49.05,2.64.05,3.76,0,.75-.26,1.31-.88,1.61-.63.31-1.45.47-2.01.51-.14.02-.25-.05-.3-.21-.16-.38-.38-.7-.73-.98.89,0,1.68-.12,2.17-.32.37-.14.47-.37.47-1.02v-6.41h-2.8c-.98,0-2.07.05-2.99.12-.16.02-.21-.07-.23-.25-.02-.21-.07-.75-.07-1.09,1.24.11,2.29.12,3.25.12h2.84v-1.16Zm4.66,4.43c.12-.09.21-.05.33.05.93.82,1.73,1.92,2.45,3.17.1.19.07.26-.07.4-.17.16-.44.37-.67.51-.14.09-.23.09-.3-.07-.59-1.21-1.47-2.49-2.52-3.5.28-.21.53-.38.77-.56Z" style="fill:#0094e2;"/><path d="m830.09,321.72c-1.52,0-2.26.18-2.36.18-.16,0-.25-.07-.3-.25-.07-.3-.14-.86-.17-1.33,1.07.14,2.42.16,3.87.16h5.37c1.21,0,2.5-.02,3.83-.05.21-.02.26.02.26.21.02.26.02.63,0,.91,0,.19-.05.23-.26.21-1.31-.04-2.61-.04-3.78-.04h-6.46Z" style="fill:#0094e2;"/><path d="m852.02,314.86c.16.11.17.3-.02.53-.21.23-.42.63-.63,1.28-.86,2.56-2.05,5.74-3.27,8.51,2.36-.19,5.15-.44,7.46-.79-.58-1.03-1.29-2.1-2.12-3.06.28-.16.56-.35.82-.49.17-.1.25-.05.35.09,1.29,1.52,2.5,3.52,3.4,5.41.09.16.04.26-.09.35-.26.16-.52.3-.77.42-.14.07-.23.04-.32-.16-.23-.49-.47-1.01-.74-1.49-2.75.42-5.51.72-8.61,1.05-1.28.14-1.59.23-1.79.33-.25.16-.46.17-.56-.07-.1-.25-.26-.8-.42-1.45.63.05,1.21.04,2.07-.02,1.26-2.99,2.54-6.42,3.13-8.35.4-1.29.51-2.03.54-2.7.65.17,1.24.4,1.56.61Z" style="fill:#0094e2;"/><path d="m435.6,511.79c0,.53.02,1.07.02,1.5,0,.51-.07.79-.38,1.05-.28.26-.67.37-2.28.37-.35,0-.37,0-.44-.35-.07-.26-.17-.52-.33-.72.58.03,1.16.05,1.58.05.54,0,.75-.17.75-.73v-8.16h-10.8v7.54c0,1.59.03,2.28.03,2.36,0,.12-.02.14-.14.14h-.86c-.12,0-.14-.02-.14-.14,0-.11.03-.72.03-2.38v-5.93c0-1.66-.03-2.33-.03-2.43,0-.12.02-.14.14-.14.09,0,.72.04,2.49.04h3.13v-1.85h-4.52c-1.65,0-2.21.03-2.29.03-.12,0-.14-.02-.14-.14v-.75c0-.12.02-.14.14-.14.09,0,.65.04,2.29.04h4.52v-.07c0-1.03-.02-1.31-.14-1.91.44.02.86.05,1.19.1.14.02.23.09.23.16,0,.12-.05.21-.1.35-.05.17-.1.42-.1,1.29v.07h4.88c1.65,0,2.21-.04,2.29-.04.12,0,.14.02.14.14v.75c0,.12-.02.14-.14.14-.09,0-.65-.03-2.29-.03h-4.88v1.85h3.55c1.79,0,2.42-.04,2.5-.04.12,0,.14.02.14.14,0,.1-.03.86-.03,2.52v5.3Zm-6.2.65c0,1.21.04,1.7.04,1.8,0,.12-.02.14-.14.14h-.79c-.12,0-.14-.02-.14-.14,0-.11.04-.59.04-1.8v-1.24h-1.31c-1.61,0-2.14.03-2.22.03-.12,0-.14-.02-.14-.14v-.68c0-.12.02-.14.14-.14.09,0,.61.04,2.22.04h1.31v-1.82h-1.05c-1.58,0-2.12.04-2.21.04-.12,0-.14-.02-.14-.14v-.67c0-.12.02-.14.14-.14.09,0,.58.04,2,.04h2.54c.33-.56.67-1.23.88-1.79.09-.25.16-.51.17-.68.37.07.6.12.89.23.12.03.21.1.21.19,0,.07-.05.14-.12.19-.1.07-.17.21-.25.35-.21.44-.51,1-.82,1.51h.25c1.49,0,2-.04,2.08-.04.14,0,.16.02.16.14v.67c0,.12-.02.14-.16.14-.09,0-.63-.04-2.21-.04h-1.37v1.82h1.68c1.61,0,2.14-.04,2.24-.04.12,0,.14.02.14.14v.68c0,.12-.02.14-.14.14-.1,0-.63-.03-2.24-.03h-1.68v1.24Zm-2.75-7.21c.16-.07.19-.07.26.04.35.46.68,1.02.91,1.58.04.11.02.14-.16.23l-.47.21c-.21.09-.23.07-.28-.07-.17-.51-.46-1.07-.84-1.56-.07-.1-.05-.16.1-.23l.47-.19Z" style="fill:gray;"/><path d="m446.02,512.05c0,.12-.02.14-.14.14-.09,0-.58-.04-2.07-.04h-.86v.81c0,1.35.04,1.92.04,2.01,0,.1-.02.12-.14.12h-.77c-.12,0-.14-.02-.14-.12s.04-.67.04-2.01v-.81h-1c-1.51,0-2.01.04-2.1.04-.12,0-.12-.02-.12-.14v-.68c0-.11,0-.12.12-.12.09,0,.6.04,2.1.04h1v-1.63h-.39c-1.26,0-1.68.04-1.79.04-.12,0-.14-.02-.14-.14,0-.09.04-.49.04-1.61v-2.26c0-1.12-.04-1.49-.04-1.59,0-.12.02-.14.14-.14.1,0,.51.04,1.79.04h.39v-1.7h-.82c-1.49,0-1.96.04-2.06.04-.12,0-.14-.02-.14-.14v-.67c0-.12.02-.14.14-.14.1,0,.58.04,2.06.04h.82v-.16c0-1.1-.05-1.5-.12-1.96.44.02.72.04,1.08.09.12.02.19.07.19.16,0,.07-.03.16-.07.28-.07.19-.1.46-.1,1.23v.37h.82c1.49,0,1.96-.04,2.05-.04.14,0,.16.02.16.14v.67c0,.12-.02.14-.16.14-.09,0-.56-.04-2.05-.04h-.82v1.7h.42c1.28,0,1.7-.04,1.8-.04s.12.02.12.14c0,.09-.02.47-.02,1.59v2.26c0,1.12.02,1.52.02,1.61,0,.12-.02.14-.12.14s-.52-.04-1.8-.04h-.42v1.63h.86c1.49,0,1.98-.04,2.07-.04.12,0,.14.02.14.12v.68Zm-1.66-7.26h-3.71v1.58h3.71v-1.58Zm0,2.36h-3.71v1.7h3.71v-1.7Zm6.09-7.18c1.05,1.77,2.49,3.12,4.41,4.17-.21.19-.35.38-.51.63-.1.16-.14.23-.21.23-.05,0-.12-.04-.25-.1-1.89-1.28-2.96-2.47-3.94-4.08-.96,1.68-2.17,3.13-3.55,4.24-.12.09-.19.14-.25.14-.07,0-.12-.07-.21-.23-.14-.23-.3-.4-.51-.56,1.72-1.19,2.96-2.71,3.68-4.08.18-.35.3-.67.35-1,.38.03.67.09,1,.16.17.05.23.1.23.17,0,.09-.04.14-.12.21l-.12.11Zm3.69,9.49c0,.12-.02.14-.14.14-.09,0-.61-.04-2.19-.04h-1.28v2.83c0,1.82.04,2.47.04,2.56,0,.12-.02.14-.14.14h-.82c-.12,0-.14-.02-.14-.14,0-.09.04-.74.04-2.56v-2.83h-1c-1.58,0-2.08.04-2.17.04-.14,0-.16-.02-.16-.14v-.72c0-.12.02-.14.16-.14.09,0,.6.04,2.17.04h1v-2.89h-.44c-1.33,0-1.75.04-1.84.04-.12,0-.14-.02-.14-.14v-.72c0-.12.02-.14.14-.14.09,0,.51.04,1.84.04h2.12c1.33,0,1.73-.04,1.82-.04.14,0,.16.02.16.14v.72c0,.12-.02.14-.16.14-.09,0-.49-.04-1.82-.04h-.65v2.89h1.28c1.58,0,2.1-.04,2.19-.04.12,0,.14.02.14.14v.72Z" style="fill:gray;"/><path d="m461.41,504.93c.16-.07.21-.05.26.05.54,1.02.86,1.86,1.16,2.84.04.1.02.17-.17.23l-.4.12c-.23.07-.26.05-.31-.1l-.16-.56c-.54.07-1.05.12-1.56.17v4.69c0,1.91.04,2.45.04,2.54,0,.12-.02.14-.14.14h-.79c-.12,0-.14-.02-.14-.14,0-.09.04-.63.04-2.54v-4.6c-.61.05-1.21.1-1.79.14-.38.04-.52.09-.67.14-.09.03-.14.07-.21.07-.09,0-.16-.09-.18-.21-.05-.26-.09-.54-.14-.96.38.03.68.05,1.12.03h.17c.46-.59.89-1.19,1.3-1.79-.81-1-1.65-1.91-2.56-2.75-.1-.11-.09-.14.05-.32l.28-.37c.12-.16.18-.16.26-.07.25.23.47.44.68.67.44-.67.82-1.33,1.17-2.03.28-.58.38-.84.45-1.12.33.12.67.28.93.44.12.07.18.12.18.21s-.05.14-.14.19c-.12.09-.19.18-.3.37-.61,1.01-1.07,1.75-1.65,2.59.4.42.79.86,1.19,1.33.47-.72.89-1.45,1.33-2.21.25-.44.4-.77.51-1.16.33.14.68.3.95.44.1.05.16.12.16.21,0,.11-.05.16-.16.23-.18.14-.31.33-.6.79-.98,1.56-1.96,3.01-2.92,4.29.91-.04,1.84-.11,2.85-.19-.18-.49-.37-.94-.63-1.43-.05-.11-.03-.14.18-.23l.35-.14Zm-3.19,4.78c-.05.11-.1.35-.16.67-.14.96-.37,1.96-.77,3.15-.05.19-.09.26-.16.26-.05,0-.12-.05-.26-.14-.14-.11-.44-.23-.6-.26.51-1.17.74-2.22.86-3.17.05-.44.07-.74.05-1.07.37.05.72.12.88.17.16.05.25.1.25.17,0,.09-.03.12-.09.21Zm3.27-.7c.17-.05.19-.05.25.07.31.75.54,1.77.72,2.68.02.12.02.14-.23.23l-.37.14c-.25.09-.26.09-.28-.07-.12-.96-.35-1.94-.63-2.71-.04-.12-.04-.16.19-.23l.35-.11Zm3.34-.67c.17,0,.3-.04.33-.05.07-.04.1-.05.14-.05.1,0,.17.04.44.3.28.25.33.35.33.44,0,.11-.04.16-.14.23-.1.07-.19.18-.31.47-.51,1.45-1.37,2.85-3.03,4.22-.12.1-.19.16-.26.16s-.14-.09-.26-.25c-.14-.17-.32-.32-.51-.42,1.75-1.16,2.78-2.71,3.29-4.15h-.89c-.74,0-1.1.04-1.19.04-.12,0-.14-.02-.14-.14v-.68c0-.12.02-.14.14-.14.09,0,.42.04,1.28.04h.79Zm2.66-1.59c.37,1.09.77,2.05,1.28,2.91.63-.56,1.16-1.12,1.56-1.61.17-.23.33-.44.46-.68.28.16.52.33.72.51.11.09.18.14.18.25s-.09.16-.19.21c-.19.11-.35.23-.67.58-.42.46-.93.93-1.58,1.47.73,1.02,1.66,1.89,2.94,2.71-.21.16-.37.37-.51.61-.1.18-.16.25-.23.25s-.14-.05-.25-.14c-1.77-1.49-2.85-2.87-3.78-5.32.05,1.92.12,3.22.12,4.88,0,.51-.1.89-.54,1.17-.32.17-.65.25-1.73.23-.33,0-.31.02-.42-.35-.07-.26-.18-.47-.33-.67.44.04,1.03.05,1.26.05.61,0,.77-.17.77-.65v-6.41h-.89c-1.49,0-2,.04-2.1.04-.12,0-.14-.02-.14-.14,0-.11.03-.49.03-1.63v-2.33c0-1.14-.03-1.54-.03-1.63,0-.12.02-.14.14-.14.1,0,.61.04,2.1.04h.44c.14-.33.25-.61.33-.91.1-.35.17-.59.21-1,.35.05.72.12.98.17.18.04.23.11.23.19s-.05.14-.14.23c-.1.11-.17.21-.23.35-.14.38-.26.68-.38.96h1.45c1.49,0,1.98-.04,2.08-.04.12,0,.14.02.14.14,0,.09-.04.49-.04,1.63v2.33c0,1.14.04,1.54.04,1.63,0,.12-.02.14-.14.14-.1,0-.59-.04-2.08-.04h-1.05Zm2.24-4.97h-5.3v1.59h5.3v-1.59Zm0,2.42h-5.3v1.71h5.3v-1.71Z" style="fill:gray;"/><path d="m329.41,406.61c.44-.19.9-.4,1.37-.58l.18.79c-1.27.6-2.63,1.19-3.68,1.66l-.35-.89c.44-.16,1.02-.38,1.64-.65v-3.8h-1.54v-.85h1.54v-2.72h.84v2.72h1.4v.85h-1.4v3.47Zm6.91,2.7c.7,0,.82-.32.9-1.7.22.16.55.3.8.35-.14,1.63-.42,2.16-1.68,2.16h-2.94c-1.36,0-1.76-.32-1.76-1.61v-3.78l-.95.4-.35-.77,1.29-.55v-3.26h.85v2.9l1.61-.68v-3.33h.85v2.99l1.58-.67.19-.17.17-.13.62.24-.05.17c0,2.24-.02,4.03-.12,4.49-.06.49-.3.71-.64.79s-.79.08-1.13.08c-.04-.24-.11-.58-.22-.77.29.01.67.01.8.01.18,0,.3-.05.36-.31.06-.29.08-1.62.08-3.53l-1.67.71v4.4h-.85v-4.04l-1.61.68v4.15c0,.64.16.79.94.79h2.89Z" style="fill:#fff;"/><path d="m347.32,401.2v2.13l.16-.18c1.43.68,3.31,1.76,4.26,2.48l-.62.8c-.82-.67-2.42-1.66-3.79-2.39v6.31h-.95v-9.16h-4.58v-.89h10.59v.89h-5.06Z" style="fill:#fff;"/><path d="m364.39,409.57c.01-.13.01-.38.02-.67h-5.86c-.49,0-1.03.02-1.36.05v-1.08c.31.02.83.06,1.33.06h5.89v-5.66h-5.74c-.44,0-1.03.02-1.32.04v-1.07c.4.05.92.07,1.31.07h5.91c.29,0,.65-.01.89-.02-.01.28-.04.65-.04.94v6.19c0,.43.04.97.05,1.16h-1.08Z" style="fill:#fff;"/><path d="m374.15,406.96c1.85-1.16,3.31-2.94,4.01-4.41l.58,1.02c-.83,1.5-2.22,3.13-4.03,4.26-1.2.77-2.71,1.5-4.71,1.87l-.64-.98c2.1-.31,3.66-1.04,4.8-1.75Zm-.71-3.8l-.76.76c-.6-.62-2.1-1.91-2.99-2.51l.68-.73c.85.56,2.39,1.81,3.06,2.48Z" style="fill:#fff;"/><path d="m389.07,409.57c.01-.13.01-.38.02-.67h-5.86c-.49,0-1.03.02-1.36.05v-1.08c.31.02.83.06,1.33.06h5.89v-5.66h-5.74c-.44,0-1.03.02-1.32.04v-1.07c.4.05.92.07,1.31.07h5.91c.29,0,.65-.01.89-.02-.01.28-.04.65-.04.94v6.19c0,.43.04.97.05,1.16h-1.08Z" style="fill:#fff;"/><path d="m393.96,404.27c.36.02,1,.06,1.67.06h6.57c.6,0,1.03-.04,1.3-.06v1.18c-.24-.01-.74-.06-1.28-.06h-6.58c-.66,0-1.3.02-1.67.06v-1.18Z" style="fill:#fff;"/><path d="m413.48,401.44c-.07.1-.23.36-.3.53-.41,1.03-1.16,2.43-2.01,3.51,1.26,1.08,2.72,2.64,3.5,3.57l-.84.73c-.8-1.06-2.07-2.47-3.3-3.56-1.28,1.38-2.9,2.7-4.68,3.5l-.77-.8c1.93-.75,3.71-2.18,4.94-3.56.82-.92,1.69-2.35,1.99-3.33h-4.68c-.42,0-1.08.05-1.21.06v-1.09c.17.02.85.08,1.21.08h4.63c.4,0,.71-.05.9-.11l.61.47Z" style="fill:#fff;"/><path d="m528.24,275.45c.44-.19.9-.4,1.37-.58l.18.79c-1.27.6-2.63,1.19-3.68,1.66l-.35-.89c.44-.16,1.02-.38,1.64-.65v-3.8h-1.54v-.85h1.54v-2.72h.84v2.72h1.4v.85h-1.4v3.47Zm6.91,2.7c.7,0,.82-.32.9-1.7.22.16.55.3.8.35-.14,1.63-.42,2.16-1.68,2.16h-2.94c-1.36,0-1.76-.32-1.76-1.61v-3.78l-.95.4-.35-.77,1.29-.55v-3.26h.85v2.9l1.61-.68v-3.33h.85v2.99l1.58-.67.19-.17.17-.13.62.24-.05.17c0,2.24-.02,4.03-.12,4.49-.06.49-.3.71-.64.79s-.79.08-1.13.08c-.04-.24-.11-.58-.22-.77.29.01.67.01.8.01.18,0,.3-.05.36-.31.06-.29.08-1.62.08-3.53l-1.67.71v4.4h-.85v-4.04l-1.61.68v4.15c0,.64.16.79.94.79h2.89Z" style="fill:#fff;"/><path d="m531.56,284.92v2.13l.16-.18c1.43.68,3.31,1.76,4.26,2.48l-.62.8c-.82-.67-2.42-1.66-3.79-2.39v6.31h-.95v-9.16h-4.58v-.89h10.59v.89h-5.06Z" style="fill:#fff;"/><path d="m534.33,308.09c.01-.12.01-.37.02-.66h-5.77c-.48,0-1.01.02-1.33.05v-1.06c.3.02.82.06,1.31.06h5.79v-5.57h-5.66c-.43,0-1.02.02-1.28.04v-1.04c.38.04.9.06,1.28.06h5.8c.29,0,.64,0,.88-.01-.01.25-.04.62-.04.9v6.09c0,.43.04.96.05,1.14h-1.06Z" style="fill:#fff;"/><path d="m531.8,318.96c1.82-1.14,3.25-2.89,3.93-4.34l.58,1.01c-.8,1.46-2.18,3.07-3.97,4.19-1.18.74-2.66,1.48-4.63,1.83l-.62-.96c2.06-.31,3.6-1.03,4.71-1.73Zm-.79-3.65l-.72.74c-.6-.6-2.05-1.8-2.93-2.39l.66-.72c.79.52,2.36,1.74,2.99,2.36Z" style="fill:#fff;"/><path d="m534.33,334.97c.01-.12.01-.37.02-.66h-5.77c-.48,0-1.01.02-1.33.05v-1.06c.3.02.82.06,1.31.06h5.79v-5.57h-5.66c-.43,0-1.02.02-1.28.04v-1.04c.38.04.9.06,1.28.06h5.8c.29,0,.64,0,.88-.01-.01.25-.04.62-.04.9v6.09c0,.43.04.96.05,1.14h-1.06Z" style="fill:#fff;"/><path d="m530.64,340.33c0-.34,0-.94-.07-1.33h1.22c-.08.4-.08,1-.08,1.32v6.45c0,.36,0,1.1.07,1.64h-1.21c.07-.54.07-1.22.07-1.64v-6.44Z" style="fill:#fff;"/><path d="m534.86,353.86c-.07.1-.23.36-.29.52-.41,1.02-1.15,2.4-1.99,3.47,1.25,1.05,2.69,2.58,3.44,3.5l-.82.72c-.79-1.04-2.04-2.42-3.25-3.5-1.27,1.35-2.85,2.65-4.61,3.44l-.74-.79c1.9-.73,3.63-2.15,4.86-3.5.79-.91,1.66-2.3,1.96-3.27h-4.59c-.42,0-1.05.05-1.19.06v-1.07c.16.01.83.07,1.19.07h4.55c.38,0,.7-.05.89-.1l.6.46Z" style="fill:#fff;"/><line x1="45.21" y1="481.16" x2="46.89" y2="478.49" style="fill:none; stroke:#39b54a; stroke-miterlimit:10; stroke-width:4.41px;"/><line x1="50.39" y1="472.95" x2="97.64" y2="398.12" style="fill:none; stroke:#39b54a; stroke-dasharray:0 0 6.56 6.56; stroke-miterlimit:10; stroke-width:4.41px;"/><polyline points="99.39 395.35 101.07 392.68 104.22 392.68" style="fill:none; stroke:#39b54a; stroke-miterlimit:10; stroke-width:4.41px;"/><line x1="110.58" y1="392.68" x2="539.36" y2="392.68" style="fill:none; stroke:#39b54a; stroke-dasharray:0 0 6.35 6.35; stroke-miterlimit:10; stroke-width:4.41px;"/><polyline points="542.54 392.68 545.69 392.68 545.69 389.53" style="fill:none; stroke:#39b54a; stroke-miterlimit:10; stroke-width:4.41px;"/><line x1="545.69" y1="383.11" x2="545.69" y2="154.98" style="fill:none; stroke:#39b54a; stroke-dasharray:0 0 6.43 6.43; stroke-miterlimit:10; stroke-width:4.41px;"/><polyline points="545.69 151.76 545.69 148.61 548.84 148.61" style="fill:none; stroke:#39b54a; stroke-miterlimit:10; stroke-width:4.41px;"/><line x1="555.1" y1="148.61" x2="952.75" y2="148.61" style="fill:none; stroke:#39b54a; stroke-dasharray:0 0 6.26 6.26; stroke-miterlimit:10; stroke-width:4.41px;"/><line x1="955.88" y1="148.61" x2="959.03" y2="148.61" style="fill:none; stroke:#39b54a; stroke-miterlimit:10; stroke-width:4.41px;"/><line x1="468.2" y1="79.45" x2="471.35" y2="79.45" style="fill:none; stroke:#39b54a; stroke-miterlimit:10; stroke-width:4.41px;"/><line x1="477.82" y1="79.45" x2="539.3" y2="79.45" style="fill:none; stroke:#39b54a; stroke-dasharray:0 0 6.47 6.47; stroke-miterlimit:10; stroke-width:4.41px;"/><polyline points="542.54 79.45 545.69 79.45 545.69 82.6" style="fill:none; stroke:#39b54a; stroke-miterlimit:10; stroke-width:4.41px;"/><line x1="545.69" y1="88.31" x2="545.69" y2="142.61" style="fill:none; stroke:#39b54a; stroke-dasharray:0 0 5.72 5.72; stroke-miterlimit:10; stroke-width:4.41px;"/><line x1="545.69" y1="145.46" x2="545.69" y2="148.61" style="fill:none; stroke:#39b54a; stroke-miterlimit:10; stroke-width:4.41px;"/><line x1="550.35" y1="302.91" x2="553.5" y2="302.91" style="fill:none; stroke:#39b54a; stroke-miterlimit:10; stroke-width:4.41px;"/><line x1="559.89" y1="302.91" x2="952.69" y2="302.91" style="fill:none; stroke:#39b54a; stroke-dasharray:0 0 6.39 6.39; stroke-miterlimit:10; stroke-width:4.41px;"/><line x1="955.88" y1="302.91" x2="959.03" y2="302.91" style="fill:none; stroke:#39b54a; stroke-miterlimit:10; stroke-width:4.41px;"/></g></svg>