<?xml version="1.0" encoding="UTF-8"?><svg id="_レイヤー_2" xmlns="http://www.w3.org/2000/svg" width="1032.6" height="455.58" viewBox="0 0 1032.6 455.58"><g id="_レイヤー_2-2"><rect x="542.71" y="22.01" width="184.46" height="69.38" style="fill:#f2f2f2;"/><rect x="275.52" y="246.81" width="452.38" height="83.93" style="fill:#f2f2f2;"/><polygon points="242.53 383.81 242.53 180.55 424.74 180.55 424.74 191.15 844.92 191.15 844.92 98.39 473.91 98.39 452.23 98.39 424.16 98.39 424.16 20.92 242.53 20.92 241.75 20.92 204.05 20.92 204.05 383.81 12.53 383.81 12.53 455.58 1032.6 455.58 1032.6 383.81 242.53 383.81" style="fill:#f2f2f2;"/><rect x="272.52" y="243.81" width="452.38" height="83.93" style="fill:#dbf1de;"/><rect x="272.52" y="243.81" width="452.38" height="83.93" style="fill:none; stroke:#545454; stroke-miterlimit:10; stroke-width:.5px;"/><path d="m59.65,322.07h8.71v1.54h-7.01v3.81h6.16v1.5h-6.16v5.71h-1.7v-12.55Z" style="fill:gray;"/><path d="m76.28,326.39c.81.79,1.21,1.94,1.21,3.47s-.36,2.69-1.07,3.65c-.71.96-1.82,1.44-3.32,1.44-1.25,0-2.24-.42-2.98-1.28-.74-.85-1.1-1.99-1.1-3.43,0-1.54.39-2.76,1.16-3.67.77-.91,1.82-1.37,3.12-1.37,1.17,0,2.16.39,2.97,1.18Zm-.96,6.08c.37-.77.56-1.63.56-2.57,0-.85-.14-1.55-.41-2.08-.43-.84-1.17-1.26-2.21-1.26-.93,0-1.61.36-2.03,1.08-.42.72-.63,1.58-.63,2.59s.21,1.78.63,2.43,1.09.97,2.01.97c1.01,0,1.7-.38,2.07-1.16Z" style="fill:gray;"/><path d="m79.29,325.47h1.46v1.58c.12-.31.41-.68.88-1.12.47-.44,1.01-.66,1.62-.66.03,0,.08,0,.15,0,.07,0,.18.02.35.03v1.62c-.09-.02-.18-.03-.25-.03-.08,0-.16,0-.25,0-.77,0-1.37.25-1.79.75-.42.5-.62,1.07-.62,1.72v5.26h-1.54v-9.15Z" style="fill:gray;"/><path d="m91.25,330.57c.04.71.2,1.29.49,1.74.54.83,1.5,1.25,2.87,1.25.61,0,1.17-.09,1.68-.27.98-.35,1.46-.99,1.46-1.9,0-.68-.21-1.17-.62-1.46-.42-.29-1.08-.53-1.97-.74l-1.65-.38c-1.08-.25-1.84-.53-2.28-.83-.77-.52-1.16-1.31-1.16-2.35,0-1.13.38-2.05,1.14-2.78s1.83-1.09,3.23-1.09c1.28,0,2.37.32,3.26.95.9.64,1.34,1.65,1.34,3.05h-1.6c-.08-.67-.26-1.19-.52-1.55-.5-.66-1.34-.98-2.53-.98-.96,0-1.65.21-2.07.63-.42.42-.63.91-.63,1.47,0,.62.25,1.07.75,1.35.33.18,1.06.41,2.21.68l1.71.4c.82.19,1.46.46,1.9.79.77.59,1.16,1.44,1.16,2.55,0,1.39-.49,2.38-1.48,2.98-.99.6-2.13.9-3.44.9-1.52,0-2.71-.4-3.57-1.2-.86-.79-1.28-1.87-1.27-3.22h1.6Z" style="fill:gray;"/><path d="m101.42,322.03h1.54v4.68c.36-.46.69-.79.98-.97.5-.32,1.11-.49,1.85-.49,1.33,0,2.23.46,2.7,1.39.26.51.38,1.21.38,2.11v5.87h-1.58v-5.77c0-.67-.09-1.17-.26-1.48-.28-.5-.8-.75-1.57-.75-.64,0-1.22.22-1.73.66-.52.44-.78,1.27-.78,2.49v4.85h-1.54v-12.6Z" style="fill:gray;"/><path d="m111.03,322.07h1.56v1.74h-1.56v-1.74Zm0,3.44h1.56v9.11h-1.56v-9.11Z" style="fill:gray;"/><path d="m114.77,325.47h1.46v1.3c.43-.54.89-.92,1.38-1.15.48-.23,1.02-.35,1.62-.35,1.3,0,2.18.45,2.63,1.36.25.5.38,1.21.38,2.13v5.87h-1.56v-5.77c0-.56-.08-1.01-.25-1.35-.27-.57-.77-.85-1.49-.85-.36,0-.66.04-.9.11-.42.12-.79.38-1.11.75-.26.3-.42.61-.5.94-.08.32-.12.78-.12,1.38v4.79h-1.54v-9.15Z" style="fill:gray;"/><path d="m124.17,328.96h4.29v1.58h-4.29v-1.58Z" style="fill:gray;"/><path d="m131.71,330.57c.04.71.2,1.29.49,1.74.54.83,1.5,1.25,2.87,1.25.61,0,1.17-.09,1.68-.27.98-.35,1.46-.99,1.46-1.9,0-.68-.21-1.17-.62-1.46-.42-.29-1.08-.53-1.97-.74l-1.65-.38c-1.08-.25-1.84-.53-2.28-.83-.77-.52-1.16-1.31-1.16-2.35,0-1.13.38-2.05,1.14-2.78s1.83-1.09,3.23-1.09c1.28,0,2.37.32,3.26.95.9.64,1.34,1.65,1.34,3.05h-1.6c-.08-.67-.26-1.19-.52-1.55-.5-.66-1.34-.98-2.53-.98-.96,0-1.65.21-2.07.63-.42.42-.63.91-.63,1.47,0,.62.25,1.07.75,1.35.33.18,1.06.41,2.21.68l1.71.4c.82.19,1.46.46,1.9.79.77.59,1.16,1.44,1.16,2.55,0,1.39-.49,2.38-1.48,2.98-.99.6-2.13.9-3.44.9-1.52,0-2.71-.4-3.57-1.2-.86-.79-1.28-1.87-1.27-3.22h1.6Z" style="fill:gray;"/><path d="m141.88,322.03h1.54v4.68c.36-.46.69-.79.98-.97.5-.32,1.11-.49,1.85-.49,1.33,0,2.23.46,2.7,1.39.26.51.38,1.21.38,2.11v5.87h-1.58v-5.77c0-.67-.09-1.17-.26-1.48-.28-.5-.8-.75-1.57-.75-.64,0-1.22.22-1.73.66-.52.44-.78,1.27-.78,2.49v4.85h-1.54v-12.6Z" style="fill:gray;"/><path d="m151.49,322.07h1.56v1.74h-1.56v-1.74Zm0,3.44h1.56v9.11h-1.56v-9.11Z" style="fill:gray;"/><path d="m154.47,333.41l5.43-6.56h-5.03v-1.38h7.1v1.26l-5.4,6.52h5.56v1.38h-7.67v-1.21Z" style="fill:gray;"/><path d="m165.09,325.47v6.08c0,.47.07.85.22,1.14.27.55.76.82,1.49.82,1.04,0,1.75-.48,2.13-1.44.21-.51.31-1.22.31-2.11v-4.49h1.54v9.15h-1.45l.02-1.35c-.2.35-.44.64-.73.88-.58.48-1.27.72-2.1.72-1.28,0-2.15-.44-2.62-1.31-.25-.47-.38-1.09-.38-1.87v-6.22h1.57Z" style="fill:gray;"/><path d="m179.81,326.39c.81.79,1.21,1.94,1.21,3.47s-.36,2.69-1.07,3.65c-.71.96-1.82,1.44-3.32,1.44-1.25,0-2.24-.42-2.98-1.28-.74-.85-1.1-1.99-1.1-3.43,0-1.54.39-2.76,1.16-3.67.77-.91,1.82-1.37,3.12-1.37,1.17,0,2.16.39,2.97,1.18Zm-.96,6.08c.37-.77.56-1.63.56-2.57,0-.85-.14-1.55-.41-2.08-.43-.84-1.17-1.26-2.21-1.26-.93,0-1.61.36-2.03,1.08-.42.72-.63,1.58-.63,2.59s.21,1.78.63,2.43,1.09.97,2.01.97c1.01,0,1.7-.38,2.07-1.16Z" style="fill:gray;"/><path d="m182.77,322.07h1.48v7.29l3.94-3.89h1.96l-3.52,3.4,3.71,5.75h-1.96l-2.88-4.66-1.26,1.22v3.44h-1.48v-12.55Z" style="fill:gray;"/><path d="m196.28,329.09c.35-.05.59-.19.71-.44.07-.14.1-.33.1-.59,0-.53-.19-.91-.56-1.14-.37-.24-.91-.36-1.6-.36-.8,0-1.37.22-1.71.65-.19.24-.31.6-.37,1.07h-1.44c.03-1.13.39-1.92,1.1-2.36.7-.44,1.52-.66,2.45-.66,1.08,0,1.95.21,2.62.62.67.41,1,1.05,1,1.91v5.27c0,.16.03.29.1.38s.2.14.41.14c.07,0,.15,0,.23-.01.09,0,.18-.02.27-.04v1.14c-.24.07-.42.11-.55.13-.12.02-.3.03-.51.03-.53,0-.91-.19-1.15-.56-.13-.2-.21-.48-.26-.85-.31.41-.76.77-1.35,1.07-.59.3-1.23.45-1.94.45-.85,0-1.54-.26-2.08-.77-.54-.51-.81-1.16-.81-1.93,0-.85.27-1.5.79-1.97.53-.47,1.23-.75,2.08-.86l2.45-.31Zm-3.24,4.15c.33.26.71.38,1.15.38.54,0,1.06-.12,1.57-.38.85-.42,1.28-1.09,1.28-2.04v-1.24c-.19.12-.43.22-.72.3-.3.08-.59.14-.87.17l-.93.12c-.56.07-.98.19-1.26.35-.48.27-.71.69-.71,1.28,0,.44.16.79.49,1.05Z" style="fill:gray;"/><polygon points="13.29 328.97 30 319.32 30 325.2 49.52 325.2 49.52 332.74 30 332.74 30 338.62 13.29 328.97" style="fill:gray;"/><rect x="9.53" y="380.81" width="1020.07" height="71.77" style="fill:#e6e6e6;"/><path d="m456.11,408.81h2.06l6.42,10.41v-10.41h1.67v12.88h-1.96l-6.52-10.39v10.39h-1.67v-12.88Z" style="fill:gray;"/><path d="m473.71,416c.36-.05.6-.2.73-.45.07-.14.1-.34.1-.61,0-.54-.19-.93-.57-1.17-.38-.24-.93-.37-1.64-.37-.82,0-1.41.22-1.75.67-.19.25-.32.61-.38,1.1h-1.47c.03-1.16.4-1.97,1.12-2.42s1.56-.68,2.51-.68c1.1,0,2,.21,2.69.63.68.42,1.02,1.08,1.02,1.96v5.41c0,.16.03.29.1.39.07.1.21.15.42.15.07,0,.15,0,.24-.01.09,0,.18-.02.28-.04v1.17c-.25.07-.43.11-.56.13-.13.02-.3.03-.53.03-.54,0-.94-.19-1.18-.58-.13-.2-.22-.49-.27-.87-.32.42-.78.79-1.39,1.1-.6.31-1.27.46-1.99.46-.87,0-1.58-.26-2.13-.79s-.83-1.19-.83-1.98c0-.87.27-1.54.82-2.02s1.26-.77,2.14-.88l2.52-.32Zm-3.32,4.26c.33.26.73.39,1.18.39.56,0,1.09-.13,1.61-.39.88-.43,1.31-1.12,1.31-2.09v-1.27c-.19.12-.44.23-.74.31s-.6.14-.89.18l-.95.12c-.57.08-1,.2-1.29.36-.49.27-.73.71-.73,1.31,0,.46.17.81.5,1.08Z" style="fill:gray;"/><path d="m478.7,409.67h1.6v2.62h1.5v1.29h-1.5v6.13c0,.33.11.55.33.66.12.06.33.1.61.1.08,0,.16,0,.25,0,.09,0,.19-.01.31-.03v1.25c-.18.05-.37.09-.57.11s-.41.04-.64.04c-.74,0-1.24-.19-1.5-.57-.26-.38-.39-.87-.39-1.47v-6.22h-1.27v-1.29h1.27v-2.62Z" style="fill:gray;"/><path d="m483.3,408.81h1.6v1.79h-1.6v-1.79Zm0,3.53h1.6v9.34h-1.6v-9.34Z" style="fill:gray;"/><path d="m494.06,413.23c.83.81,1.25,1.99,1.25,3.56s-.37,2.76-1.1,3.75c-.73.99-1.87,1.48-3.4,1.48-1.28,0-2.3-.44-3.06-1.31s-1.13-2.04-1.13-3.52c0-1.58.4-2.83,1.19-3.77.79-.93,1.86-1.4,3.2-1.4,1.2,0,2.22.4,3.05,1.21Zm-.98,6.24c.38-.79.58-1.67.58-2.64,0-.88-.14-1.59-.42-2.14-.44-.86-1.2-1.3-2.27-1.3-.95,0-1.65.37-2.08,1.1-.43.74-.65,1.62-.65,2.66s.22,1.83.65,2.5c.43.67,1.12,1,2.06,1,1.03,0,1.74-.4,2.13-1.19Z" style="fill:gray;"/><path d="m497.12,412.3h1.5v1.33c.44-.55.91-.94,1.41-1.18.5-.24,1.05-.36,1.66-.36,1.33,0,2.23.46,2.7,1.39.26.51.39,1.24.39,2.18v6.02h-1.6v-5.92c0-.57-.08-1.04-.25-1.39-.28-.58-.79-.88-1.53-.88-.37,0-.68.04-.92.11-.43.13-.81.39-1.14.77-.26.31-.43.63-.51.96s-.12.8-.12,1.42v4.92h-1.58v-9.39Z" style="fill:gray;"/><path d="m511.94,416c.36-.05.6-.2.73-.45.07-.14.1-.34.1-.61,0-.54-.19-.93-.57-1.17-.38-.24-.93-.37-1.64-.37-.82,0-1.41.22-1.75.67-.19.25-.32.61-.38,1.1h-1.47c.03-1.16.4-1.97,1.12-2.42s1.56-.68,2.51-.68c1.1,0,2,.21,2.69.63.68.42,1.02,1.08,1.02,1.96v5.41c0,.16.03.29.1.39.07.1.21.15.42.15.07,0,.15,0,.24-.01.09,0,.18-.02.28-.04v1.17c-.25.07-.43.11-.56.13-.13.02-.3.03-.53.03-.54,0-.94-.19-1.18-.58-.13-.2-.22-.49-.27-.87-.32.42-.78.79-1.39,1.1-.6.31-1.27.46-1.99.46-.87,0-1.58-.26-2.13-.79s-.83-1.19-.83-1.98c0-.87.27-1.54.82-2.02s1.26-.77,2.14-.88l2.52-.32Zm-3.32,4.26c.33.26.73.39,1.18.39.56,0,1.09-.13,1.61-.39.88-.43,1.31-1.12,1.31-2.09v-1.27c-.19.12-.44.23-.74.31s-.6.14-.89.18l-.95.12c-.57.08-1,.2-1.29.36-.49.27-.73.71-.73,1.31,0,.46.17.81.5,1.08Z" style="fill:gray;"/><path d="m516.79,408.81h1.58v12.88h-1.58v-12.88Z" style="fill:gray;"/><path d="m526.15,408.81h5.85c.96,0,1.76.14,2.38.43,1.19.55,1.78,1.56,1.78,3.04,0,.77-.16,1.4-.48,1.89-.32.49-.76.88-1.34,1.18.5.2.88.47,1.13.81.25.33.4.87.43,1.62l.06,1.73c.02.49.06.86.12,1.1.11.41.29.67.56.79v.29h-2.14c-.06-.11-.11-.25-.14-.43-.04-.17-.06-.51-.09-1.02l-.11-2.15c-.04-.84-.34-1.41-.91-1.69-.32-.16-.83-.24-1.52-.24h-3.86v5.52h-1.75v-12.88Zm5.67,5.9c.8,0,1.43-.16,1.89-.49.46-.33.69-.92.69-1.77,0-.92-.32-1.54-.97-1.88-.35-.17-.81-.26-1.39-.26h-4.14v4.4h3.92Z" style="fill:gray;"/><path d="m545.31,413.23c.83.81,1.25,1.99,1.25,3.56s-.37,2.76-1.1,3.75c-.73.99-1.87,1.48-3.4,1.48-1.28,0-2.3-.44-3.06-1.31-.75-.87-1.13-2.04-1.13-3.52,0-1.58.4-2.83,1.19-3.77.79-.93,1.86-1.4,3.2-1.4,1.2,0,2.22.4,3.05,1.21Zm-.98,6.24c.38-.79.58-1.67.58-2.64,0-.88-.14-1.59-.42-2.14-.44-.86-1.2-1.3-2.27-1.3-.95,0-1.65.37-2.08,1.1-.43.74-.65,1.62-.65,2.66s.22,1.83.65,2.5c.43.67,1.12,1,2.06,1,1.03,0,1.74-.4,2.13-1.19Z" style="fill:gray;"/><path d="m549.94,412.3v6.23c0,.48.07.87.22,1.17.27.56.78.84,1.53.84,1.07,0,1.8-.49,2.19-1.47.21-.53.32-1.25.32-2.17v-4.61h1.58v9.39h-1.49l.02-1.38c-.2.36-.45.66-.75.9-.59.49-1.31.74-2.15.74-1.31,0-2.21-.45-2.68-1.34-.26-.48-.39-1.12-.39-1.92v-6.38h1.61Z" style="fill:gray;"/><path d="m558.46,409.67h1.6v2.62h1.5v1.29h-1.5v6.13c0,.33.11.55.33.66.12.06.33.1.61.1.08,0,.16,0,.25,0,.09,0,.19-.01.31-.03v1.25c-.18.05-.37.09-.57.11-.2.02-.41.04-.64.04-.74,0-1.24-.19-1.5-.57s-.39-.87-.39-1.47v-6.22h-1.27v-1.29h1.27v-2.62Z" style="fill:gray;"/><path d="m568.65,412.55c.62.31,1.09.72,1.42,1.21.31.47.52,1.03.63,1.66.09.43.14,1.12.14,2.07h-6.83c.03.96.25,1.72.67,2.3.42.58,1.06.87,1.94.87.82,0,1.47-.27,1.96-.82.27-.32.47-.68.58-1.1h1.55c-.04.34-.18.73-.41,1.15-.23.42-.49.77-.77,1.04-.48.47-1.06.78-1.77.95-.38.09-.8.14-1.28.14-1.16,0-2.15-.42-2.95-1.28-.81-.85-1.21-2.04-1.21-3.57s.41-2.73,1.22-3.67c.81-.94,1.88-1.41,3.19-1.41.66,0,1.3.16,1.93.47Zm.57,3.69c-.06-.68-.21-1.23-.44-1.64-.43-.76-1.14-1.14-2.15-1.14-.72,0-1.32.26-1.81.78-.49.52-.74,1.19-.77,1.99h5.17Z" style="fill:gray;"/><path d="m578.39,412.8v-1.21c1.14-.11,1.93-.3,2.38-.56.45-.26.79-.88,1.01-1.84h1.25v12.5h-1.68v-8.89h-2.95Z" style="fill:gray;"/><line x1="9.53" y1="380.81" x2="1029.6" y2="380.81" style="fill:none; stroke:#545454; stroke-miterlimit:10; stroke-width:.56px;"/><rect y="68.89" width="129.59" height="88.34" style="fill:#e6e6e6;"/><rect x="539.71" y="17.92" width="184.46" height="70.48" style="fill:#e6e6e6;"/><rect x="539.71" y="17.92" width="184.46" height="70.48" style="fill:none; stroke:#545454; stroke-miterlimit:10; stroke-width:.5px;"/><path d="m569.63,47.35h5.57c1.52,0,2.6.45,3.24,1.35.38.53.57,1.15.57,1.84,0,.81-.23,1.48-.69,2-.24.28-.58.53-1.04.75.66.25,1.15.54,1.48.85.58.56.87,1.34.87,2.32,0,.83-.26,1.58-.79,2.25-.78,1-2.03,1.51-3.73,1.51h-5.48v-12.88Zm4.92,5.44c.74,0,1.32-.1,1.74-.31.65-.32.97-.9.97-1.74s-.34-1.41-1.04-1.7c-.39-.16-.97-.25-1.74-.25h-3.14v3.99h3.21Zm.59,5.94c1.08,0,1.85-.31,2.31-.93.29-.39.43-.86.43-1.42,0-.93-.42-1.57-1.27-1.91-.45-.18-1.04-.27-1.78-.27h-3.5v4.53h3.8Z" style="fill:gray;"/><path d="m581.43,47.35h1.6v1.79h-1.6v-1.79Zm0,3.53h1.6v9.34h-1.6v-9.34Z" style="fill:gray;"/><path d="m591.59,51.34c.66.51,1.06,1.4,1.2,2.66h-1.53c-.09-.58-.31-1.06-.64-1.44-.33-.38-.87-.57-1.6-.57-1.01,0-1.72.49-2.16,1.47-.28.64-.42,1.42-.42,2.36s.2,1.73.6,2.37c.4.64,1.02.96,1.88.96.65,0,1.17-.2,1.56-.6.38-.4.65-.94.79-1.64h1.53c-.18,1.24-.61,2.16-1.32,2.73-.7.58-1.6.86-2.69.86-1.23,0-2.21-.45-2.94-1.35-.73-.9-1.1-2.02-1.1-3.36,0-1.65.4-2.93,1.2-3.85.8-.92,1.82-1.38,3.06-1.38,1.06,0,1.92.26,2.58.77Z" style="fill:gray;"/><path d="m600.14,50.84h1.74c-.22.6-.72,1.98-1.48,4.12-.57,1.61-1.05,2.93-1.44,3.95-.91,2.39-1.55,3.85-1.93,4.38-.37.53-1.02.79-1.93.79-.22,0-.39,0-.51-.03s-.27-.05-.44-.1v-1.44c.27.08.47.12.59.14.12.02.23.03.32.03.29,0,.51-.05.64-.14.14-.1.25-.21.35-.35.03-.05.13-.29.31-.72s.31-.75.39-.96l-3.47-9.67h1.79l2.52,7.65,2.53-7.65Z" style="fill:gray;"/><path d="m609.12,51.34c.66.51,1.06,1.4,1.2,2.66h-1.53c-.09-.58-.31-1.06-.64-1.44s-.87-.57-1.6-.57c-1,0-1.72.49-2.16,1.47-.28.64-.42,1.42-.42,2.36s.2,1.73.6,2.37c.4.64,1.02.96,1.88.96.66,0,1.17-.2,1.56-.6.38-.4.65-.94.79-1.64h1.53c-.17,1.24-.61,2.16-1.31,2.73-.7.58-1.6.86-2.69.86-1.23,0-2.21-.45-2.94-1.35-.73-.9-1.1-2.02-1.1-3.36,0-1.65.4-2.93,1.2-3.85.8-.92,1.82-1.38,3.06-1.38,1.06,0,1.92.26,2.58.77Z" style="fill:gray;"/><path d="m611.97,47.35h1.58v12.88h-1.58v-12.88Z" style="fill:gray;"/><path d="m621.63,51.1c.62.31,1.09.72,1.42,1.21.31.47.52,1.03.63,1.66.09.43.14,1.12.14,2.07h-6.83c.03.96.25,1.72.67,2.3.42.58,1.06.87,1.94.87.82,0,1.47-.27,1.96-.82.27-.32.47-.68.58-1.1h1.55c-.04.34-.18.73-.41,1.15-.23.42-.49.77-.77,1.04-.48.47-1.06.78-1.77.95-.38.09-.8.14-1.28.14-1.16,0-2.15-.42-2.95-1.28s-1.21-2.04-1.21-3.57.41-2.73,1.22-3.67c.81-.94,1.88-1.41,3.19-1.41.66,0,1.3.16,1.92.47Zm.57,3.69c-.06-.68-.21-1.23-.44-1.64-.43-.76-1.14-1.14-2.15-1.14-.72,0-1.32.26-1.81.78-.49.52-.75,1.19-.77,1.99h5.17Z" style="fill:gray;"/><path d="m631.18,47.35h5.76c1.14,0,2.06.32,2.76.97.7.65,1.05,1.55,1.05,2.72,0,1.01-.31,1.88-.94,2.63-.63.75-1.58,1.12-2.87,1.12h-4.02v5.44h-1.74v-12.88Zm6.77,1.77c-.38-.18-.91-.27-1.58-.27h-3.45v4.46h3.45c.78,0,1.41-.17,1.89-.5.48-.33.73-.92.73-1.76,0-.95-.35-1.59-1.04-1.93Z" style="fill:gray;"/><path d="m647.24,54.54c.36-.05.6-.2.73-.45.07-.14.1-.34.1-.61,0-.54-.19-.93-.57-1.17-.38-.24-.93-.37-1.64-.37-.82,0-1.41.22-1.75.67-.19.25-.32.61-.38,1.1h-1.47c.03-1.16.4-1.97,1.12-2.42s1.56-.68,2.51-.68c1.1,0,2,.21,2.69.63.68.42,1.02,1.08,1.02,1.96v5.41c0,.16.03.29.1.39.07.1.21.15.42.15.07,0,.15,0,.24-.01.09,0,.18-.02.28-.04v1.17c-.25.07-.43.11-.56.13-.13.02-.3.03-.53.03-.54,0-.94-.19-1.18-.58-.13-.2-.22-.49-.27-.87-.32.42-.78.79-1.38,1.1-.6.31-1.27.46-1.99.46-.87,0-1.58-.26-2.13-.79-.55-.53-.83-1.19-.83-1.98,0-.87.27-1.54.82-2.02.54-.48,1.26-.77,2.14-.88l2.52-.32Zm-3.32,4.26c.33.26.73.39,1.18.39.56,0,1.09-.13,1.61-.39.88-.43,1.31-1.12,1.31-2.09v-1.27c-.19.12-.44.23-.74.31-.3.08-.6.14-.89.18l-.95.12c-.57.08-1,.2-1.29.36-.49.27-.73.71-.73,1.31,0,.46.17.81.5,1.08Z" style="fill:gray;"/><path d="m652.1,50.84h1.5v1.62c.12-.32.42-.7.9-1.15.48-.45,1.03-.68,1.66-.68.03,0,.08,0,.15,0s.19.02.36.04v1.67c-.09-.02-.18-.03-.26-.04-.08,0-.17,0-.26,0-.79,0-1.41.26-1.83.77-.43.51-.64,1.1-.64,1.77v5.4h-1.58v-9.39Z" style="fill:gray;"/><path d="m657.95,47.35h1.52v7.48l4.05-3.99h2.02l-3.61,3.49,3.81,5.9h-2.02l-2.95-4.78-1.3,1.25v3.52h-1.52v-12.88Z" style="fill:gray;"/><path d="m666.96,47.35h1.6v1.79h-1.6v-1.79Zm0,3.53h1.6v9.34h-1.6v-9.34Z" style="fill:gray;"/><path d="m670.8,50.84h1.5v1.33c.44-.55.91-.94,1.41-1.18.5-.24,1.05-.36,1.66-.36,1.33,0,2.23.46,2.7,1.39.26.51.39,1.24.39,2.18v6.02h-1.6v-5.92c0-.57-.08-1.04-.25-1.39-.28-.58-.79-.88-1.53-.88-.38,0-.68.04-.92.11-.43.13-.81.39-1.14.77-.26.31-.43.63-.51.96s-.12.8-.12,1.42v4.92h-1.58v-9.39Z" style="fill:gray;"/><path d="m685.97,51.22c.3.2.6.5.91.89v-1.18h1.46v8.54c0,1.19-.17,2.13-.52,2.82-.65,1.27-1.88,1.91-3.7,1.91-1.01,0-1.86-.23-2.54-.68s-1.07-1.16-1.15-2.13h1.6c.08.42.23.75.45.97.35.35.91.53,1.67.53,1.2,0,1.99-.43,2.36-1.28.22-.5.32-1.4.31-2.69-.31.48-.69.84-1.14,1.07-.44.23-1.03.35-1.75.35-1.01,0-1.9-.36-2.66-1.08s-1.14-1.92-1.14-3.58c0-1.57.38-2.8,1.15-3.68.77-.88,1.69-1.32,2.77-1.32.73,0,1.37.18,1.92.54Zm.19,1.69c-.48-.56-1.08-.84-1.82-.84-1.11,0-1.86.52-2.27,1.56-.22.56-.32,1.28-.32,2.18,0,1.06.21,1.86.64,2.42.43.55,1,.83,1.72.83,1.13,0,1.92-.51,2.38-1.53.26-.58.38-1.25.38-2.03,0-1.16-.24-2.02-.72-2.59Z" style="fill:gray;"/><path d="m851.88,234.51h8.71v1.54h-7.01v3.81h6.16v1.5h-6.16v5.71h-1.7v-12.55Z" style="fill:gray;"/><path d="m868.51,238.82c.81.79,1.21,1.94,1.21,3.47s-.36,2.69-1.07,3.65c-.71.96-1.82,1.44-3.32,1.44-1.25,0-2.24-.42-2.98-1.28-.74-.85-1.1-1.99-1.1-3.43,0-1.54.39-2.76,1.16-3.67.77-.91,1.82-1.37,3.12-1.37,1.17,0,2.16.39,2.97,1.18Zm-.96,6.08c.38-.77.56-1.63.56-2.57,0-.85-.13-1.55-.41-2.08-.43-.84-1.17-1.26-2.21-1.26-.93,0-1.61.36-2.03,1.08-.42.72-.63,1.58-.63,2.59s.21,1.78.63,2.43c.42.65,1.09.97,2.01.97,1.01,0,1.7-.39,2.07-1.16Z" style="fill:gray;"/><path d="m871.52,237.91h1.46v1.58c.12-.31.41-.68.88-1.12s1.01-.66,1.62-.66c.03,0,.08,0,.15,0,.07,0,.18.02.35.03v1.62c-.09-.02-.18-.03-.25-.03-.08,0-.16,0-.25,0-.77,0-1.37.25-1.79.75-.42.5-.62,1.07-.62,1.72v5.26h-1.54v-9.15Z" style="fill:gray;"/><path d="m883.48,243.01c.04.71.2,1.29.49,1.74.54.83,1.5,1.25,2.87,1.25.62,0,1.17-.09,1.68-.27.98-.35,1.46-.99,1.46-1.9,0-.68-.21-1.17-.62-1.46-.42-.28-1.08-.53-1.97-.74l-1.65-.38c-1.08-.25-1.84-.53-2.28-.83-.77-.52-1.16-1.31-1.16-2.35,0-1.13.38-2.05,1.14-2.78.76-.72,1.83-1.09,3.23-1.09,1.28,0,2.37.32,3.26.95.9.63,1.34,1.65,1.34,3.05h-1.6c-.08-.67-.26-1.19-.52-1.55-.5-.66-1.34-.98-2.53-.98-.96,0-1.65.21-2.07.63-.42.42-.63.91-.63,1.47,0,.62.25,1.07.75,1.35.33.18,1.06.41,2.21.68l1.71.4c.82.19,1.46.46,1.9.79.77.59,1.16,1.44,1.16,2.56,0,1.39-.49,2.38-1.48,2.98-.99.6-2.13.9-3.44.9-1.52,0-2.71-.4-3.58-1.2-.86-.79-1.28-1.87-1.27-3.22h1.6Z" style="fill:gray;"/><path d="m893.65,234.47h1.54v4.68c.36-.46.69-.79.98-.97.5-.33,1.11-.49,1.85-.49,1.33,0,2.23.46,2.7,1.39.26.51.38,1.21.38,2.11v5.87h-1.58v-5.77c0-.67-.08-1.17-.26-1.48-.28-.5-.8-.75-1.57-.75-.64,0-1.22.22-1.73.66-.52.44-.78,1.27-.78,2.49v4.85h-1.54v-12.6Z" style="fill:gray;"/><path d="m903.26,234.51h1.56v1.74h-1.56v-1.74Zm0,3.44h1.56v9.11h-1.56v-9.11Z" style="fill:gray;"/><path d="m907,237.91h1.46v1.3c.43-.54.89-.92,1.38-1.15.48-.23,1.02-.35,1.62-.35,1.3,0,2.18.45,2.63,1.36.25.5.38,1.21.38,2.13v5.87h-1.56v-5.77c0-.56-.08-1.01-.25-1.35-.27-.57-.77-.85-1.49-.85-.36,0-.66.04-.9.11-.42.12-.79.38-1.11.75-.26.3-.42.61-.5.94s-.12.78-.12,1.38v4.79h-1.54v-9.15Z" style="fill:gray;"/><path d="m916.4,241.4h4.29v1.58h-4.29v-1.58Z" style="fill:gray;"/><path d="m923.94,243.01c.04.71.2,1.29.49,1.74.54.83,1.5,1.25,2.87,1.25.62,0,1.17-.09,1.68-.27.98-.35,1.46-.99,1.46-1.9,0-.68-.21-1.17-.62-1.46-.42-.28-1.08-.53-1.97-.74l-1.65-.38c-1.08-.25-1.84-.53-2.28-.83-.77-.52-1.16-1.31-1.16-2.35,0-1.13.38-2.05,1.14-2.78.76-.72,1.83-1.09,3.23-1.09,1.28,0,2.37.32,3.26.95.9.63,1.34,1.65,1.34,3.05h-1.6c-.08-.67-.26-1.19-.52-1.55-.5-.66-1.34-.98-2.53-.98-.96,0-1.65.21-2.07.63-.42.42-.63.91-.63,1.47,0,.62.25,1.07.75,1.35.33.18,1.06.41,2.21.68l1.71.4c.82.19,1.46.46,1.9.79.77.59,1.16,1.44,1.16,2.56,0,1.39-.49,2.38-1.48,2.98-.99.6-2.13.9-3.44.9-1.52,0-2.71-.4-3.58-1.2-.86-.79-1.28-1.87-1.27-3.22h1.6Z" style="fill:gray;"/><path d="m934.11,234.47h1.54v4.68c.36-.46.69-.79.98-.97.5-.33,1.11-.49,1.85-.49,1.33,0,2.23.46,2.7,1.39.26.51.38,1.21.38,2.11v5.87h-1.58v-5.77c0-.67-.08-1.17-.26-1.48-.28-.5-.8-.75-1.57-.75-.64,0-1.22.22-1.73.66-.52.44-.78,1.27-.78,2.49v4.85h-1.54v-12.6Z" style="fill:gray;"/><path d="m943.72,234.51h1.56v1.74h-1.56v-1.74Zm0,3.44h1.56v9.11h-1.56v-9.11Z" style="fill:gray;"/><path d="m947.46,237.91h1.52v1.3c.37-.45.7-.78.99-.98.51-.35,1.08-.52,1.73-.52.73,0,1.32.18,1.76.54.25.21.48.51.68.91.34-.49.74-.85,1.2-1.09.46-.24.98-.35,1.56-.35,1.23,0,2.07.44,2.51,1.33.24.48.36,1.12.36,1.93v6.09h-1.6v-6.36c0-.61-.15-1.03-.46-1.26-.3-.23-.68-.34-1.11-.34-.6,0-1.12.2-1.56.61-.44.4-.65,1.08-.65,2.03v5.32h-1.56v-5.97c0-.62-.07-1.07-.22-1.36-.23-.43-.67-.64-1.31-.64-.58,0-1.11.23-1.58.67-.48.45-.71,1.26-.71,2.44v4.85h-1.54v-9.15Z" style="fill:gray;"/><path d="m961.92,234.51h1.56v1.74h-1.56v-1.74Zm0,3.44h1.56v9.11h-1.56v-9.11Z" style="fill:gray;"/><path d="m964.9,245.85l5.43-6.56h-5.03v-1.38h7.1v1.26l-5.4,6.52h5.56v1.38h-7.67v-1.21Z" style="fill:gray;"/><path d="m975.53,237.91v6.08c0,.47.07.85.22,1.14.27.55.76.82,1.49.82,1.04,0,1.75-.48,2.13-1.44.21-.51.31-1.22.31-2.11v-4.49h1.54v9.15h-1.45l.02-1.35c-.2.35-.44.64-.73.88-.58.48-1.27.72-2.1.72-1.28,0-2.15-.44-2.62-1.31-.25-.47-.38-1.09-.38-1.87v-6.22h1.57Z" style="fill:gray;"/><polygon points="1026.05 242.01 1009.34 232.36 1009.34 238.24 989.82 238.24 989.82 245.78 1009.34 245.78 1009.34 251.66 1026.05 242.01" style="fill:gray;"/><rect x="201.05" y="17.92" width="38.48" height="380.49" style="fill:#e6e6e6;"/><line x1="239.53" y1="17.92" x2="239.53" y2="327.73" style="fill:none; stroke:#545454; stroke-miterlimit:10; stroke-width:.56px;"/><rect x="301.34" y="254.32" width="9.61" height="64.14" style="fill:#fff; stroke:#545454; stroke-miterlimit:10; stroke-width:.48px;"/><rect x="272.52" y="254.32" width="9.61" height="64.14" style="fill:#fff; stroke:#545454; stroke-miterlimit:10; stroke-width:.48px;"/><rect x="282.12" y="254.32" width="9.61" height="64.14" style="fill:#fff; stroke:#545454; stroke-miterlimit:10; stroke-width:.48px;"/><rect x="291.73" y="254.32" width="9.61" height="64.14" style="fill:#fff; stroke:#545454; stroke-miterlimit:10; stroke-width:.48px;"/><rect x="330.16" y="254.32" width="9.61" height="64.14" style="fill:#fff; stroke:#545454; stroke-miterlimit:10; stroke-width:.48px;"/><rect x="310.94" y="254.32" width="9.61" height="64.14" style="fill:#fff; stroke:#545454; stroke-miterlimit:10; stroke-width:.48px;"/><rect x="339.76" y="254.32" width="9.61" height="64.14" style="fill:#fff; stroke:#545454; stroke-miterlimit:10; stroke-width:.48px;"/><rect x="320.55" y="254.32" width="9.61" height="64.14" style="fill:#fff; stroke:#545454; stroke-miterlimit:10; stroke-width:.48px;"/><rect x="272.52" y="254.96" width="76.85" height="7.75" style="fill:#545454; stroke:#545454; stroke-miterlimit:10; stroke-width:.48px;"/><rect x="272.52" y="310.72" width="76.85" height="7.75" style="fill:#545454; stroke:#545454; stroke-miterlimit:10; stroke-width:.48px;"/><polygon points="359.33 75.82 421.16 75.82 421.16 17.92 238.75 17.92 238.75 95.68 359.33 95.68 359.33 75.82" style="fill:#f2f2f2;"/><polygon points="470.91 95.39 449.23 95.39 421.16 95.39 421.16 75.82 359.33 75.82 359.33 95.68 238.75 95.68 238.75 177.55 421.74 177.55 421.74 188.15 841.92 188.15 841.92 95.39 470.91 95.39" style="fill:#dbf1de;"/><rect x="421.16" y="17.92" width="28.07" height="77.47" style="fill:#67d4ff; stroke:#545454; stroke-miterlimit:10; stroke-width:.5px;"/><polyline points="238.75 17.92 238.75 177.55 421.74 177.55 421.74 188.15 841.92 188.15 841.92 95.39 470.91 95.39 449.23 95.39 449.23 17.92 421.16 17.92 267.61 17.92" style="fill:none; stroke:#545454; stroke-miterlimit:10; stroke-width:.5px;"/><rect x="301.34" y="104.14" width="9.61" height="64.14" style="fill:#fff; stroke:#545454; stroke-miterlimit:10; stroke-width:.48px;"/><rect x="272.52" y="104.14" width="9.61" height="64.14" style="fill:#fff; stroke:#545454; stroke-miterlimit:10; stroke-width:.48px;"/><rect x="282.12" y="104.14" width="9.61" height="64.14" style="fill:#fff; stroke:#545454; stroke-miterlimit:10; stroke-width:.48px;"/><rect x="291.73" y="104.14" width="9.61" height="64.14" style="fill:#fff; stroke:#545454; stroke-miterlimit:10; stroke-width:.48px;"/><rect x="330.16" y="104.14" width="9.61" height="64.14" style="fill:#fff; stroke:#545454; stroke-miterlimit:10; stroke-width:.48px;"/><rect x="310.94" y="104.14" width="9.61" height="64.14" style="fill:#fff; stroke:#545454; stroke-miterlimit:10; stroke-width:.48px;"/><rect x="339.76" y="104.14" width="9.61" height="64.14" style="fill:#fff; stroke:#545454; stroke-miterlimit:10; stroke-width:.48px;"/><rect x="320.55" y="104.14" width="9.61" height="64.14" style="fill:#fff; stroke:#545454; stroke-miterlimit:10; stroke-width:.48px;"/><rect x="272.52" y="104.77" width="76.85" height="7.75" style="fill:#545454; stroke:#545454; stroke-miterlimit:10; stroke-width:.48px;"/><rect x="272.52" y="160.53" width="76.85" height="7.75" style="fill:#545454; stroke:#545454; stroke-miterlimit:10; stroke-width:.48px;"/><rect x="371.38" y="52.9" width="13.67" height="42.05" style="fill:#ffffc8; stroke:#545454; stroke-miterlimit:10; stroke-width:.5px;"/><rect x="396.39" y="52.9" width="13.67" height="42.05" style="fill:#ffffc8; stroke:#545454; stroke-miterlimit:10; stroke-width:.5px;"/><rect x="238.75" y="95.68" width="34.93" height="232.05" style="fill:#b3b3b3;"/><rect x="238.75" y="95.68" width="34.93" height="232.05" style="fill:none; stroke:#545454; stroke-miterlimit:10; stroke-width:.5px;"/><line x1="9.53" y1="187.76" x2="201.05" y2="187.76" style="fill:none; stroke:#545454; stroke-miterlimit:10; stroke-width:.56px;"/><line x1="841.92" y1="187.76" x2="1029.6" y2="187.76" style="fill:none; stroke:#545454; stroke-miterlimit:10; stroke-width:.56px;"/><rect x="307.36" y="43.71" width="51.97" height="51.97" style="fill:#fff; stroke:#545454; stroke-miterlimit:10; stroke-width:.5px;"/><rect x="311.31" y="47.66" width="44.18" height="44.18" rx="3.52" ry="3.52" style="fill:none; stroke:#0094e2; stroke-linecap:round; stroke-linejoin:round; stroke-width:3.52px;"/><rect x="310.26" y="46.61" width="44.18" height="44.18" rx="3.52" ry="3.52" style="fill:#fff;"/><rect x="310.26" y="46.61" width="44.18" height="44.18" rx="3.52" ry="3.52" style="fill:none; stroke:#0094e2; stroke-linecap:round; stroke-linejoin:round; stroke-width:1.76px;"/><polygon points="339.58 58.69 323.77 58.69 320.44 51.93 340.62 54.74 339.58 58.69" style="fill:#0094e2;"/><path d="m323.45,60.67h15.71v4.99c0,2.5-2.08,6.55-7.18,6.55s-7.39-4.37-7.39-5.83v-2.39h-3.95l2.81-3.33Z" style="fill:#0094e2;"/><path d="m350.6,88.86c.52-4.06.1-8.01-1.98-10.19-2.08-2.18-5.83-3.74-11.86-3.74l-4.37,8.43-5.3-8.43s-5.1.52-7.07,1.35c-1.98.83-6.76,5.2-4.99,11.96.12.45.27,1.06.45,1.74h34.97c.05-.38.11-.75.15-1.11Z" style="fill:#0094e2;"/><rect x="431.54" y="25.74" width="44.18" height="44.18" rx="3.52" ry="3.52" style="fill:none; stroke:#0094e2; stroke-linecap:round; stroke-linejoin:round; stroke-width:3.52px;"/><rect x="430.49" y="24.69" width="44.18" height="44.18" rx="3.52" ry="3.52" style="fill:#fff;"/><rect x="430.49" y="24.69" width="44.18" height="44.18" rx="3.52" ry="3.52" style="fill:none; stroke:#0094e2; stroke-linecap:round; stroke-linejoin:round; stroke-width:1.76px;"/><polygon points="448.06 62.93 443.26 62.93 440.42 39.8 450.91 39.8 448.06 62.93" style="fill:#0094e2;"/><polygon points="457.1 39.8 461.91 39.8 464.75 62.93 454.26 62.93 457.1 39.8" style="fill:#ec0e8d;"/><circle cx="445.66" cy="34.56" r="3.93" style="fill:#0094e2;"/><circle cx="459.5" cy="34.56" r="3.93" style="fill:#ec0e8d;"/><line x1="238.75" y1="95.68" x2="359.33" y2="95.68" style="fill:none; stroke:#545454; stroke-miterlimit:10; stroke-width:.56px;"/><line x1="9.53" y1="215.3" x2="1029.6" y2="215.3" style="fill:none; stroke:#4d4948; stroke-miterlimit:10; stroke-width:7.56px;"/><line x1="9.53" y1="215.3" x2="1029.6" y2="215.3" style="fill:none; stroke:#fff; stroke-miterlimit:10; stroke-width:5.04px;"/><line x1="9.53" y1="215.3" x2="1029.6" y2="215.3" style="fill:none; stroke:#4d4948; stroke-dasharray:0 0 25.2 25.2; stroke-miterlimit:10; stroke-width:5.04px;"/><line x1="9.53" y1="353.92" x2="1029.6" y2="353.92" style="fill:none; stroke:#4d4948; stroke-miterlimit:10; stroke-width:7.56px;"/><line x1="9.53" y1="353.92" x2="1029.6" y2="353.92" style="fill:none; stroke:#fff; stroke-miterlimit:10; stroke-width:5.04px;"/><line x1="9.53" y1="353.92" x2="1029.6" y2="353.92" style="fill:none; stroke:#4d4948; stroke-dasharray:0 0 25.2 25.2; stroke-miterlimit:10; stroke-width:5.04px;"/><path d="m526.39,126.96h5.62c1.11,0,2.01.32,2.69.94.68.63,1.02,1.51,1.02,2.65,0,.98-.3,1.83-.91,2.56s-1.54,1.09-2.8,1.09h-3.92v5.31h-1.7v-12.55Zm6.6,1.73c-.37-.18-.88-.26-1.54-.26h-3.36v4.35h3.36c.76,0,1.37-.16,1.84-.49.47-.33.71-.9.71-1.72,0-.92-.34-1.55-1.02-1.88Z" style="fill:#0094e2;"/><path d="m537.36,126.96h1.54v12.55h-1.54v-12.55Z" style="fill:#0094e2;"/><path d="m545.95,133.98c.35-.05.59-.19.71-.44.07-.14.1-.33.1-.59,0-.53-.19-.91-.56-1.15-.37-.24-.91-.36-1.6-.36-.8,0-1.37.22-1.71.65-.19.24-.31.6-.37,1.07h-1.44c.03-1.13.39-1.92,1.1-2.36.7-.44,1.52-.67,2.45-.67,1.08,0,1.95.21,2.62.62.67.41,1,1.05,1,1.92v5.27c0,.16.03.29.1.38s.2.15.42.15c.07,0,.15,0,.23-.01.09,0,.18-.02.27-.04v1.14c-.24.07-.42.11-.55.13-.12.02-.3.03-.51.03-.53,0-.91-.19-1.15-.56-.13-.2-.21-.48-.26-.85-.31.41-.76.77-1.35,1.07s-1.23.45-1.94.45c-.85,0-1.54-.26-2.08-.77-.54-.51-.81-1.16-.81-1.93,0-.85.27-1.5.79-1.97.53-.47,1.22-.75,2.08-.86l2.45-.31Zm-3.24,4.16c.33.26.71.38,1.15.38.54,0,1.07-.12,1.57-.38.85-.42,1.28-1.09,1.28-2.04v-1.24c-.19.12-.43.22-.72.3-.3.08-.59.14-.87.17l-.93.12c-.56.07-.98.19-1.26.35-.48.27-.71.69-.71,1.28,0,.44.16.79.49,1.05Z" style="fill:#0094e2;"/><path d="m550.82,127.81h1.55v2.55h1.46v1.26h-1.46v5.97c0,.32.11.53.33.64.12.06.32.09.6.09.07,0,.15,0,.24,0,.09,0,.19-.01.3-.03v1.22c-.18.05-.36.09-.55.11s-.4.03-.62.03c-.72,0-1.21-.18-1.46-.55-.26-.37-.38-.84-.38-1.43v-6.06h-1.24v-1.26h1.24v-2.55Z" style="fill:#0094e2;"/><path d="m556.37,127.57c.36-.52,1.05-.79,2.08-.79.1,0,.2,0,.3,0,.1,0,.22.01.35.03v1.4c-.16-.01-.28-.02-.35-.02-.07,0-.14,0-.2,0-.47,0-.75.12-.85.36-.09.24-.14.86-.14,1.85h1.54v1.21h-1.54v7.9h-1.52v-7.9h-1.27v-1.21h1.27v-1.44c.02-.64.13-1.11.33-1.4Z" style="fill:#0094e2;"/><path d="m566.91,131.27c.81.79,1.21,1.94,1.21,3.47s-.36,2.69-1.07,3.65-1.82,1.44-3.32,1.44c-1.25,0-2.24-.43-2.98-1.28s-1.1-1.99-1.1-3.43c0-1.54.39-2.76,1.16-3.67.77-.91,1.82-1.37,3.12-1.37,1.17,0,2.16.39,2.97,1.18Zm-.96,6.08c.38-.77.56-1.63.56-2.57,0-.85-.14-1.55-.41-2.08-.43-.84-1.17-1.26-2.21-1.26-.93,0-1.61.36-2.03,1.08-.42.72-.63,1.58-.63,2.59s.21,1.78.63,2.43c.42.65,1.09.97,2.01.97,1.01,0,1.7-.38,2.07-1.16Z" style="fill:#0094e2;"/><path d="m569.92,130.36h1.46v1.58c.12-.31.41-.68.88-1.12.47-.44,1.01-.66,1.62-.66.03,0,.08,0,.15,0s.18.02.35.03v1.62c-.09-.02-.18-.03-.25-.03-.08,0-.16,0-.25,0-.77,0-1.37.25-1.79.75-.42.5-.62,1.07-.62,1.72v5.26h-1.54v-9.15Z" style="fill:#0094e2;"/><path d="m575.64,130.36h1.52v1.3c.36-.45.7-.78.99-.98.51-.35,1.08-.52,1.73-.52.73,0,1.32.18,1.76.54.25.21.48.51.68.91.34-.49.74-.85,1.21-1.09.46-.24.98-.35,1.56-.35,1.23,0,2.07.44,2.51,1.33.24.48.36,1.12.36,1.93v6.09h-1.6v-6.36c0-.61-.15-1.03-.46-1.26s-.68-.34-1.12-.34c-.6,0-1.12.2-1.56.61-.44.41-.65,1.08-.65,2.03v5.32h-1.56v-5.97c0-.62-.07-1.07-.22-1.36-.23-.43-.67-.64-1.31-.64-.58,0-1.11.23-1.59.68s-.71,1.26-.71,2.44v4.85h-1.54v-9.15Z" style="fill:#0094e2;"/><path d="m599.13,126.76c-.89,1.74-1.48,3.02-1.74,3.84-.41,1.25-.61,2.69-.61,4.32s.23,3.16.69,4.53c.29.84.85,2.06,1.68,3.64h-1.03c-.83-1.3-1.35-2.13-1.55-2.49-.2-.36-.42-.85-.65-1.46-.32-.84-.54-1.74-.67-2.7-.06-.5-.09-.97-.09-1.42,0-1.69.26-3.19.79-4.5.34-.84,1.04-2.09,2.1-3.76h1.07Z" style="fill:#0094e2;"/><path d="m610.77,128.76c.83,1.11,1.25,2.53,1.25,4.26,0,1.88-.48,3.43-1.43,4.67-1.12,1.46-2.71,2.19-4.78,2.19-1.93,0-3.45-.64-4.55-1.91-.99-1.23-1.48-2.79-1.48-4.67,0-1.7.42-3.15,1.26-4.36,1.08-1.55,2.68-2.32,4.8-2.32s3.86.71,4.92,2.14Zm-1.5,8c.67-1.07,1-2.31,1-3.71,0-1.48-.39-2.67-1.16-3.57s-1.83-1.35-3.17-1.35-2.36.45-3.18,1.34-1.23,2.21-1.23,3.95c0,1.39.35,2.56,1.06,3.52.7.96,1.84,1.43,3.42,1.43s2.58-.54,3.25-1.61Z" style="fill:#0094e2;"/><path d="m615.4,130.36v6.08c0,.47.07.85.22,1.15.27.55.76.82,1.49.82,1.04,0,1.75-.48,2.13-1.44.21-.51.31-1.22.31-2.11v-4.49h1.54v9.15h-1.45l.02-1.35c-.2.35-.44.64-.73.88-.58.48-1.27.72-2.1.72-1.28,0-2.15-.44-2.62-1.31-.25-.47-.38-1.09-.38-1.87v-6.22h1.57Z" style="fill:#0094e2;"/><path d="m623.71,127.81h1.55v2.55h1.46v1.26h-1.46v5.97c0,.32.11.53.33.64.12.06.32.09.6.09.07,0,.15,0,.24,0,.09,0,.19-.01.3-.03v1.22c-.18.05-.36.09-.55.11s-.4.03-.62.03c-.72,0-1.21-.18-1.46-.55-.26-.37-.38-.84-.38-1.43v-6.06h-1.24v-1.26h1.24v-2.55Z" style="fill:#0094e2;"/><path d="m628.1,126.92h1.5v4.55c.34-.44.74-.77,1.21-1,.47-.23.98-.35,1.53-.35,1.14,0,2.07.39,2.78,1.17s1.07,1.94,1.07,3.46c0,1.45-.35,2.65-1.05,3.61-.7.96-1.68,1.44-2.93,1.44-.7,0-1.29-.17-1.77-.5-.29-.2-.59-.52-.92-.96v1.17h-1.42v-12.59Zm5.88,10.54c.41-.66.62-1.53.62-2.61,0-.96-.21-1.76-.62-2.39-.42-.63-1.02-.95-1.83-.95-.7,0-1.32.26-1.85.78-.53.52-.79,1.37-.79,2.56,0,.86.11,1.56.33,2.09.41,1.01,1.16,1.51,2.27,1.51.83,0,1.46-.33,1.87-.99Z" style="fill:#0094e2;"/><path d="m644.62,131.27c.81.79,1.21,1.94,1.21,3.47s-.36,2.69-1.07,3.65c-.71.96-1.82,1.44-3.32,1.44-1.25,0-2.24-.43-2.98-1.28s-1.1-1.99-1.1-3.43c0-1.54.39-2.76,1.16-3.67.78-.91,1.82-1.37,3.12-1.37,1.17,0,2.16.39,2.97,1.18Zm-.96,6.08c.37-.77.56-1.63.56-2.57,0-.85-.13-1.55-.41-2.08-.43-.84-1.17-1.26-2.21-1.26-.93,0-1.61.36-2.03,1.08-.42.72-.63,1.58-.63,2.59s.21,1.78.63,2.43c.42.65,1.09.97,2.01.97,1.01,0,1.7-.38,2.07-1.16Z" style="fill:#0094e2;"/><path d="m649.13,130.36v6.08c0,.47.07.85.22,1.15.27.55.76.82,1.49.82,1.04,0,1.75-.48,2.13-1.44.21-.51.31-1.22.31-2.11v-4.49h1.54v9.15h-1.45l.02-1.35c-.2.35-.44.64-.73.88-.58.48-1.27.72-2.1.72-1.28,0-2.15-.44-2.62-1.31-.25-.47-.38-1.09-.38-1.87v-6.22h1.57Z" style="fill:#0094e2;"/><path d="m657.1,130.36h1.46v1.3c.43-.54.89-.92,1.38-1.15.48-.23,1.02-.35,1.62-.35,1.3,0,2.18.45,2.63,1.36.25.5.38,1.21.38,2.13v5.87h-1.56v-5.77c0-.56-.08-1.01-.25-1.35-.27-.57-.77-.85-1.49-.85-.36,0-.66.04-.9.11-.42.13-.79.38-1.11.75-.26.3-.42.61-.5.94-.08.32-.12.78-.12,1.38v4.79h-1.54v-9.15Z" style="fill:#0094e2;"/><path d="m671.84,130.64c.27.17.58.47.93.9v-4.62h1.48v12.59h-1.38v-1.27c-.36.56-.78.97-1.27,1.22-.49.25-1.05.38-1.68.38-1.02,0-1.9-.43-2.64-1.29-.74-.86-1.12-2-1.12-3.42,0-1.33.34-2.49,1.02-3.46.68-.98,1.65-1.46,2.91-1.46.7,0,1.28.15,1.75.44Zm-3.43,6.86c.41.66,1.08.99,1.99.99.71,0,1.29-.31,1.75-.92.46-.61.68-1.49.68-2.64s-.24-2.01-.71-2.57c-.47-.56-1.05-.83-1.74-.83-.77,0-1.4.3-1.87.89-.48.59-.72,1.46-.72,2.62,0,.98.21,1.8.62,2.46Z" style="fill:#0094e2;"/><path d="m681.61,126.96h1.7v11.06h6.3v1.5h-8v-12.55Z" style="fill:#0094e2;"/><path d="m691.01,126.96h1.56v1.74h-1.56v-1.74Zm0,3.44h1.56v9.11h-1.56v-9.11Z" style="fill:#0094e2;"/><path d="m694.75,130.36h1.46v1.3c.43-.54.89-.92,1.38-1.15.48-.23,1.02-.35,1.62-.35,1.3,0,2.18.45,2.63,1.36.25.5.38,1.21.38,2.13v5.87h-1.56v-5.77c0-.56-.08-1.01-.25-1.35-.27-.57-.77-.85-1.49-.85-.36,0-.66.04-.9.11-.42.13-.79.38-1.11.75-.26.3-.42.61-.5.94-.08.32-.12.78-.12,1.38v4.79h-1.54v-9.15Z" style="fill:#0094e2;"/><path d="m710.03,130.61c.61.3,1.07.7,1.38,1.18.31.46.51,1,.61,1.62.09.42.14,1.09.14,2.02h-6.66c.03.93.25,1.68.65,2.24s1.04.84,1.89.84c.8,0,1.43-.27,1.91-.8.27-.31.45-.67.56-1.07h1.51c-.04.34-.17.71-.4,1.12-.22.41-.48.75-.75,1.01-.46.46-1.04.76-1.72.92-.37.09-.78.14-1.25.14-1.13,0-2.09-.42-2.88-1.24-.79-.83-1.18-1.99-1.18-3.48s.4-2.66,1.19-3.58,1.83-1.38,3.11-1.38c.65,0,1.27.15,1.88.46Zm.55,3.59c-.06-.67-.21-1.2-.43-1.6-.42-.74-1.12-1.11-2.09-1.11-.7,0-1.29.25-1.76.76-.47.51-.73,1.16-.75,1.94h5.04Z" style="fill:#0094e2;"/><path d="m712.6,143.09c.91-1.77,1.49-3.05,1.75-3.86.4-1.22.6-2.66.6-4.31s-.23-3.15-.69-4.52c-.29-.84-.85-2.06-1.68-3.64h1.03c.88,1.4,1.41,2.27,1.59,2.59.19.33.39.78.6,1.35.27.71.47,1.42.59,2.11.12.7.17,1.36.17,2.01,0,1.69-.27,3.19-.8,4.51-.34.85-1.03,2.1-2.09,3.75h-1.07Z" style="fill:#0094e2;"/><path d="m725.05,139.58v-12.69l13.74,6.35-13.74,6.34Z" style="fill:#0094e2;"/><path d="m433.27,265.93v12.69l-13.74-6.35,13.74-6.35Z" style="fill:#0094e2;"/><path d="m443.52,266.01h5.62c1.11,0,2.01.31,2.69.94s1.02,1.51,1.02,2.65c0,.98-.3,1.83-.91,2.56-.61.73-1.54,1.09-2.8,1.09h-3.92v5.31h-1.7v-12.55Zm6.6,1.73c-.37-.18-.89-.27-1.54-.27h-3.36v4.35h3.36c.76,0,1.37-.16,1.85-.49.47-.33.71-.9.71-1.72,0-.92-.34-1.55-1.02-1.88Z" style="fill:#0094e2;"/><path d="m454.49,266.01h1.54v12.55h-1.54v-12.55Z" style="fill:#0094e2;"/><path d="m463.08,273.02c.35-.04.59-.19.71-.44.07-.14.1-.33.1-.59,0-.53-.19-.91-.56-1.14-.37-.24-.91-.36-1.6-.36-.8,0-1.37.22-1.71.65-.19.24-.31.6-.37,1.07h-1.44c.03-1.13.39-1.92,1.1-2.36.7-.44,1.52-.67,2.45-.67,1.08,0,1.95.21,2.62.62.67.41,1,1.05,1,1.92v5.27c0,.16.03.29.1.38s.2.14.41.14c.07,0,.15,0,.23-.01.09,0,.18-.02.27-.04v1.14c-.24.07-.42.11-.55.13-.12.02-.3.03-.51.03-.53,0-.91-.19-1.15-.56-.13-.2-.21-.48-.26-.85-.31.41-.76.77-1.35,1.07-.59.3-1.23.45-1.94.45-.85,0-1.54-.26-2.08-.77-.54-.51-.81-1.16-.81-1.93,0-.85.27-1.5.79-1.97.53-.47,1.23-.75,2.08-.86l2.45-.31Zm-3.24,4.16c.33.26.71.38,1.15.38.54,0,1.06-.12,1.57-.38.85-.42,1.28-1.09,1.28-2.04v-1.24c-.19.12-.43.22-.72.3-.3.08-.59.14-.87.17l-.93.12c-.56.07-.98.19-1.26.35-.48.27-.71.69-.71,1.28,0,.44.16.79.49,1.05Z" style="fill:#0094e2;"/><path d="m467.94,266.85h1.56v2.56h1.46v1.26h-1.46v5.97c0,.32.11.53.32.64.12.06.32.09.6.09.07,0,.15,0,.24,0s.19-.01.3-.03v1.22c-.18.05-.36.09-.55.11-.19.02-.4.03-.62.03-.72,0-1.21-.18-1.46-.55-.26-.37-.38-.84-.38-1.43v-6.06h-1.24v-1.26h1.24v-2.56Z" style="fill:#0094e2;"/><path d="m473.5,266.61c.36-.52,1.05-.79,2.08-.79.1,0,.2,0,.3,0,.1,0,.22.01.35.03v1.4c-.16-.01-.28-.02-.35-.02-.07,0-.14,0-.2,0-.47,0-.75.12-.85.36-.09.24-.14.86-.14,1.85h1.54v1.21h-1.54v7.9h-1.52v-7.9h-1.27v-1.21h1.27v-1.44c.02-.64.13-1.1.33-1.4Z" style="fill:#0094e2;"/><path d="m484.03,270.32c.81.79,1.21,1.94,1.21,3.47s-.36,2.69-1.07,3.65c-.71.96-1.82,1.44-3.32,1.44-1.25,0-2.24-.42-2.98-1.28-.74-.85-1.1-1.99-1.1-3.43,0-1.54.39-2.76,1.16-3.67.77-.91,1.82-1.37,3.12-1.37,1.17,0,2.16.39,2.97,1.18Zm-.96,6.08c.37-.77.56-1.63.56-2.57,0-.85-.14-1.55-.41-2.08-.43-.84-1.17-1.26-2.21-1.26-.93,0-1.61.36-2.03,1.08s-.63,1.58-.63,2.59.21,1.78.63,2.43,1.09.97,2.01.97c1.01,0,1.7-.38,2.07-1.16Z" style="fill:#0094e2;"/><path d="m487.04,269.41h1.46v1.58c.12-.31.41-.68.88-1.12.47-.44,1.01-.66,1.62-.66.03,0,.08,0,.15,0s.18.02.35.03v1.62c-.09-.02-.18-.03-.25-.03-.08,0-.16,0-.25,0-.77,0-1.37.25-1.79.75-.42.5-.62,1.07-.62,1.72v5.26h-1.54v-9.15Z" style="fill:#0094e2;"/><path d="m492.76,269.41h1.52v1.3c.36-.45.69-.78.99-.98.51-.35,1.08-.52,1.73-.52.73,0,1.32.18,1.76.54.25.21.48.51.68.91.34-.49.74-.85,1.2-1.09.46-.24.98-.35,1.56-.35,1.23,0,2.07.44,2.51,1.33.24.48.36,1.12.36,1.93v6.09h-1.6v-6.36c0-.61-.15-1.03-.46-1.26-.31-.23-.68-.34-1.12-.34-.6,0-1.12.2-1.56.61-.44.41-.65,1.08-.65,2.03v5.32h-1.56v-5.97c0-.62-.07-1.07-.22-1.36-.23-.43-.67-.64-1.31-.64-.58,0-1.11.23-1.59.68-.48.45-.71,1.26-.71,2.44v4.85h-1.54v-9.15Z" style="fill:#0094e2;"/><path d="m516.25,265.8c-.89,1.74-1.48,3.02-1.74,3.84-.4,1.25-.61,2.69-.61,4.32s.23,3.16.69,4.53c.28.84.85,2.06,1.68,3.64h-1.03c-.83-1.3-1.35-2.13-1.55-2.49-.2-.36-.42-.85-.65-1.46-.32-.84-.54-1.74-.67-2.7-.06-.5-.09-.97-.09-1.42,0-1.69.27-3.19.79-4.5.34-.84,1.04-2.09,2.1-3.76h1.07Z" style="fill:#0094e2;"/><path d="m518.05,266.01h1.72v12.55h-1.72v-12.55Z" style="fill:#0094e2;"/><path d="m522.17,269.41h1.46v1.3c.43-.54.89-.92,1.38-1.15.48-.23,1.02-.35,1.62-.35,1.3,0,2.18.45,2.63,1.36.25.5.38,1.21.38,2.13v5.87h-1.56v-5.77c0-.56-.08-1.01-.25-1.35-.27-.57-.77-.85-1.49-.85-.36,0-.66.04-.9.11-.42.12-.79.38-1.11.75-.26.3-.42.61-.5.94-.08.32-.12.78-.12,1.38v4.79h-1.54v-9.15Z" style="fill:#0094e2;"/><path d="m531.71,265.96h1.5v4.55c.34-.44.74-.77,1.21-1s.98-.35,1.53-.35c1.14,0,2.07.39,2.78,1.17s1.07,1.94,1.07,3.46c0,1.45-.35,2.65-1.05,3.61s-1.68,1.44-2.92,1.44c-.7,0-1.29-.17-1.77-.5-.29-.2-.59-.52-.92-.96v1.17h-1.42v-12.6Zm5.88,10.54c.42-.66.62-1.53.62-2.61,0-.96-.21-1.76-.62-2.39-.41-.63-1.02-.95-1.83-.95-.7,0-1.32.26-1.85.78-.53.52-.79,1.37-.79,2.56,0,.86.11,1.56.33,2.09.41,1.01,1.16,1.51,2.27,1.51.83,0,1.46-.33,1.87-.99Z" style="fill:#0094e2;"/><path d="m548.23,270.32c.81.79,1.21,1.94,1.21,3.47s-.36,2.69-1.07,3.65c-.71.96-1.82,1.44-3.32,1.44-1.25,0-2.24-.42-2.98-1.28-.74-.85-1.1-1.99-1.1-3.43,0-1.54.39-2.76,1.16-3.67.78-.91,1.82-1.37,3.12-1.37,1.17,0,2.16.39,2.97,1.18Zm-.96,6.08c.37-.77.56-1.63.56-2.57,0-.85-.13-1.55-.41-2.08-.43-.84-1.17-1.26-2.21-1.26-.93,0-1.61.36-2.03,1.08-.42.72-.63,1.58-.63,2.59s.21,1.78.63,2.43c.42.65,1.09.97,2.01.97,1.01,0,1.7-.38,2.07-1.16Z" style="fill:#0094e2;"/><path d="m552.74,269.41v6.08c0,.47.07.85.22,1.14.27.55.76.82,1.49.82,1.04,0,1.75-.48,2.13-1.44.21-.51.31-1.22.31-2.11v-4.49h1.54v9.15h-1.45l.02-1.35c-.2.35-.44.64-.73.88-.58.48-1.27.72-2.1.72-1.28,0-2.15-.44-2.62-1.31-.25-.47-.38-1.09-.38-1.87v-6.22h1.57Z" style="fill:#0094e2;"/><path d="m560.71,269.41h1.46v1.3c.43-.54.89-.92,1.38-1.15.48-.23,1.02-.35,1.62-.35,1.3,0,2.18.45,2.63,1.36.25.5.38,1.21.38,2.13v5.87h-1.56v-5.77c0-.56-.08-1.01-.25-1.35-.27-.57-.77-.85-1.49-.85-.36,0-.66.04-.9.11-.42.12-.79.38-1.11.75-.26.3-.42.61-.5.94-.08.32-.12.78-.12,1.38v4.79h-1.54v-9.15Z" style="fill:#0094e2;"/><path d="m575.45,269.69c.27.17.58.47.93.9v-4.62h1.48v12.6h-1.38v-1.27c-.36.56-.78.97-1.27,1.22-.49.25-1.05.38-1.68.38-1.02,0-1.9-.43-2.64-1.29s-1.12-2-1.12-3.42c0-1.33.34-2.49,1.02-3.46.68-.98,1.65-1.47,2.91-1.47.7,0,1.28.15,1.75.45Zm-3.43,6.86c.41.66,1.08.99,1.99.99.71,0,1.29-.31,1.75-.92.46-.61.68-1.49.68-2.64s-.24-2.01-.71-2.57c-.47-.56-1.05-.83-1.74-.83-.77,0-1.4.3-1.88.89-.48.59-.72,1.46-.72,2.62,0,.98.21,1.8.62,2.46Z" style="fill:#0094e2;"/><path d="m585.22,266.01h1.7v11.06h6.3v1.5h-8v-12.55Z" style="fill:#0094e2;"/><path d="m594.62,266.01h1.56v1.74h-1.56v-1.74Zm0,3.44h1.56v9.11h-1.56v-9.11Z" style="fill:#0094e2;"/><path d="m598.36,269.41h1.46v1.3c.43-.54.89-.92,1.38-1.15.48-.23,1.02-.35,1.62-.35,1.3,0,2.18.45,2.63,1.36.25.5.38,1.21.38,2.13v5.87h-1.56v-5.77c0-.56-.08-1.01-.25-1.35-.27-.57-.77-.85-1.49-.85-.36,0-.66.04-.9.11-.42.12-.79.38-1.11.75-.26.3-.42.61-.5.94-.08.32-.12.78-.12,1.38v4.79h-1.54v-9.15Z" style="fill:#0094e2;"/><path d="m613.64,269.66c.61.3,1.07.7,1.38,1.18.31.46.51,1,.61,1.61.09.42.14,1.09.14,2.02h-6.66c.03.93.25,1.68.65,2.24.41.56,1.04.84,1.89.84.8,0,1.43-.27,1.91-.8.27-.31.45-.67.56-1.07h1.51c-.04.34-.17.71-.4,1.12-.23.41-.48.75-.75,1.01-.46.46-1.04.76-1.72.92-.37.09-.78.14-1.25.14-1.13,0-2.09-.41-2.88-1.24-.79-.83-1.18-1.99-1.18-3.48s.4-2.66,1.19-3.58c.79-.92,1.83-1.38,3.11-1.38.65,0,1.27.15,1.88.46Zm.55,3.59c-.06-.67-.21-1.2-.43-1.6-.42-.74-1.12-1.11-2.09-1.11-.7,0-1.29.26-1.76.77s-.73,1.16-.75,1.94h5.04Z" style="fill:#0094e2;"/><path d="m616.21,282.13c.91-1.77,1.49-3.05,1.75-3.86.4-1.22.6-2.66.6-4.31s-.23-3.15-.69-4.52c-.29-.84-.85-2.06-1.68-3.64h1.03c.88,1.4,1.41,2.27,1.59,2.59.18.33.39.78.6,1.35.27.71.47,1.42.58,2.11s.17,1.36.17,2.01c0,1.69-.27,3.19-.8,4.51-.34.85-1.03,2.1-2.09,3.75h-1.07Z" style="fill:#0094e2;"/><line x1="255.64" x2="255.64" y2="3.15" style="fill:none; stroke:#39b54a; stroke-miterlimit:10; stroke-width:4.41px;"/><line x1="255.64" y1="8.08" x2="255.64" y2="25.31" style="fill:none; stroke:#39b54a; stroke-dasharray:0 0 4.93 4.93; stroke-miterlimit:10; stroke-width:4.41px;"/><polyline points="255.64 27.78 255.64 30.93 258.79 30.93" style="fill:none; stroke:#39b54a; stroke-miterlimit:10; stroke-width:4.41px;"/><line x1="264.87" y1="30.93" x2="359.18" y2="30.93" style="fill:none; stroke:#39b54a; stroke-dasharray:0 0 6.08 6.08; stroke-miterlimit:10; stroke-width:4.41px;"/><polyline points="362.23 30.93 365.38 30.93 365.38 34.08" style="fill:none; stroke:#39b54a; stroke-miterlimit:10; stroke-width:4.41px;"/><line x1="365.38" y1="40.28" x2="365.38" y2="161.35" style="fill:none; stroke:#39b54a; stroke-dasharray:0 0 6.21 6.21; stroke-miterlimit:10; stroke-width:4.41px;"/><polyline points="365.38 164.45 365.38 167.6 368.53 167.6" style="fill:none; stroke:#39b54a; stroke-miterlimit:10; stroke-width:4.41px;"/><line x1="374.83" y1="167.6" x2="788.05" y2="167.6" style="fill:none; stroke:#39b54a; stroke-dasharray:0 0 6.31 6.31; stroke-miterlimit:10; stroke-width:4.41px;"/><line x1="791.2" y1="167.6" x2="794.35" y2="167.6" style="fill:none; stroke:#39b54a; stroke-miterlimit:10; stroke-width:4.41px;"/><rect x="398.92" y="106.21" width="96.61" height="53.44" rx="3.86" ry="3.86" style="fill:#ed0030;"/><rect x="398.92" y="106.21" width="96.61" height="53.44" rx="3.86" ry="3.86" style="fill:none; stroke:#545454; stroke-linecap:round; stroke-linejoin:round; stroke-width:1.89px;"/><polyline points="400.96 121.38 385 104.75 400.96 130.02" style="fill:#ed0030; stroke:#545454; stroke-linecap:round; stroke-linejoin:round; stroke-width:1.89px;"/><line x1="364.38" y1="144.66" x2="361.23" y2="144.66" style="fill:none; stroke:#39b54a; stroke-miterlimit:10; stroke-width:4.41px;"/><line x1="355.2" y1="144.66" x2="261.8" y2="144.66" style="fill:none; stroke:#39b54a; stroke-dasharray:0 0 6.03 6.03; stroke-miterlimit:10; stroke-width:4.41px;"/><polyline points="258.79 144.66 255.64 144.66 255.64 147.81" style="fill:none; stroke:#39b54a; stroke-miterlimit:10; stroke-width:4.41px;"/><line x1="255.64" y1="154.25" x2="255.64" y2="292.91" style="fill:none; stroke:#39b54a; stroke-dasharray:0 0 6.45 6.45; stroke-miterlimit:10; stroke-width:4.41px;"/><polyline points="255.64 296.14 255.64 299.29 258.79 299.29" style="fill:none; stroke:#39b54a; stroke-miterlimit:10; stroke-width:4.41px;"/><line x1="265.13" y1="299.29" x2="680.29" y2="299.29" style="fill:none; stroke:#39b54a; stroke-dasharray:0 0 6.34 6.34; stroke-miterlimit:10; stroke-width:4.41px;"/><line x1="683.46" y1="299.29" x2="686.61" y2="299.29" style="fill:none; stroke:#39b54a; stroke-miterlimit:10; stroke-width:4.41px;"/><path d="m427.99,112.31v2.97h-5.02v13.82h-3.53v-13.82h-5.05v-2.97h13.6Z" style="fill:#fff;"/><path d="m433.03,112.21v3h-3.29v-3h3.29Zm0,4.48v12.42h-3.29v-12.42h3.29Z" style="fill:#fff;"/><path d="m446.78,121.14h-3.33c-.06-.46-.22-.88-.47-1.25-.36-.5-.93-.75-1.7-.75-1.09,0-1.84.54-2.24,1.63-.21.58-.32,1.34-.32,2.3s.11,1.64.32,2.2c.39,1.03,1.12,1.55,2.19,1.55.76,0,1.3-.21,1.62-.62s.51-.94.58-1.59h3.32c-.08.99-.43,1.92-1.07,2.8-1.02,1.42-2.53,2.13-4.52,2.13s-3.47-.59-4.41-1.78c-.94-1.18-1.41-2.72-1.41-4.61,0-2.13.52-3.79,1.56-4.98,1.04-1.19,2.48-1.78,4.31-1.78,1.56,0,2.83.35,3.82,1.05.99.7,1.58,1.93,1.76,3.7Z" style="fill:#fff;"/><path d="m460.29,129.11h-3.92l-2.97-5.31-1.34,1.4v3.91h-3.19v-16.74h3.19v9.05l4.04-4.67h4.02l-4.34,4.75,4.51,7.61Z" style="fill:#fff;"/><path d="m472.09,125.46c-.08.74-.47,1.48-1.15,2.24-1.06,1.21-2.55,1.81-4.47,1.81-1.58,0-2.97-.51-4.18-1.53-1.21-1.02-1.81-2.67-1.81-4.97,0-2.15.54-3.8,1.63-4.95,1.09-1.15,2.5-1.72,4.24-1.72,1.03,0,1.96.19,2.79.58.83.39,1.51,1,2.05,1.83.49.74.8,1.59.95,2.56.08.57.12,1.39.1,2.46h-8.5c.05,1.25.44,2.12,1.17,2.62.45.31.99.47,1.62.47.67,0,1.21-.19,1.63-.57.23-.21.43-.49.6-.85h3.32Zm-3.21-3.81c-.05-.86-.31-1.51-.78-1.95-.47-.44-1.05-.67-1.74-.67-.75,0-1.33.24-1.75.71s-.67,1.11-.78,1.91h5.05Z" style="fill:#fff;"/><path d="m480.05,126.8v2.43l-1.54.06c-1.53.05-2.58-.21-3.14-.8-.36-.37-.55-.95-.55-1.72v-7.65h-1.73v-2.31h1.73v-3.46h3.21v3.46h2.02v2.31h-2.02v6.56c0,.51.06.83.19.95.13.13.52.19,1.18.19.1,0,.2,0,.31,0,.11,0,.22,0,.32-.02Z" style="fill:#fff;"/><path d="m433.55,152.8c-.93.57-2.07.85-3.42.85-2.23,0-4.05-.77-5.47-2.31-1.48-1.55-2.22-3.67-2.22-6.36s.75-4.9,2.24-6.54,3.48-2.46,5.94-2.46c2.13,0,3.85.54,5.14,1.62,1.29,1.08,2.04,2.43,2.23,4.05h-3.45c-.27-1.15-.92-1.95-1.95-2.4-.58-.25-1.22-.38-1.93-.38-1.35,0-2.46.51-3.33,1.53s-1.3,2.56-1.3,4.61.47,3.53,1.41,4.39,2.01,1.29,3.21,1.29,2.14-.34,2.89-1.02c.75-.68,1.22-1.57,1.39-2.67h-3.89v-2.8h7v9.01h-2.32l-.35-2.1c-.68.8-1.28,1.36-1.82,1.69Z" style="fill:#fff;"/><path d="m441.69,142.14c.86-1.09,2.33-1.64,4.42-1.64,1.36,0,2.57.27,3.62.81,1.06.54,1.58,1.56,1.58,3.05v5.7c0,.4,0,.87.02,1.44.02.43.09.71.19.87s.27.28.48.38v.48h-3.53c-.1-.25-.17-.49-.21-.71-.04-.22-.07-.47-.09-.75-.45.49-.96.9-1.55,1.24-.7.4-1.49.6-2.37.6-1.12,0-2.05-.32-2.79-.96s-1.1-1.55-1.1-2.73c0-1.53.59-2.63,1.77-3.32.65-.37,1.6-.64,2.85-.8l1.1-.14c.6-.08,1.03-.17,1.29-.29.46-.2.69-.5.69-.92,0-.51-.18-.86-.53-1.05-.35-.19-.87-.29-1.56-.29-.77,0-1.31.19-1.63.57-.23.28-.38.66-.46,1.14h-3.13c.07-1.09.37-1.98.91-2.68Zm2.42,8.73c.3.25.68.38,1.12.38.7,0,1.34-.21,1.93-.62.59-.41.89-1.16.92-2.25v-1.21c-.21.13-.41.23-.62.31-.21.08-.5.15-.86.22l-.73.14c-.68.12-1.17.27-1.47.44-.5.3-.75.76-.75,1.38,0,.55.16.95.47,1.2Z" style="fill:#fff;"/><path d="m459.75,150.9v2.43l-1.54.06c-1.53.05-2.58-.21-3.14-.8-.36-.37-.55-.95-.55-1.72v-7.65h-1.73v-2.31h1.73v-3.46h3.21v3.46h2.02v2.31h-2.02v6.56c0,.51.06.83.19.95.13.13.52.19,1.18.19.1,0,.2,0,.31,0,.11,0,.22,0,.32-.02Z" style="fill:#fff;"/><path d="m472.32,149.57c-.08.74-.47,1.48-1.15,2.24-1.06,1.21-2.55,1.81-4.47,1.81-1.58,0-2.97-.51-4.18-1.53-1.21-1.02-1.81-2.67-1.81-4.97,0-2.15.54-3.8,1.63-4.95,1.09-1.15,2.5-1.72,4.24-1.72,1.03,0,1.96.19,2.79.58.83.39,1.51,1,2.05,1.83.49.74.8,1.59.95,2.56.08.57.12,1.39.1,2.46h-8.5c.05,1.25.44,2.12,1.17,2.62.45.31.99.47,1.62.47.67,0,1.21-.19,1.63-.57.23-.21.43-.49.6-.85h3.32Zm-3.21-3.81c-.05-.86-.31-1.51-.78-1.95-.47-.44-1.05-.67-1.74-.67-.75,0-1.33.24-1.75.71s-.67,1.11-.78,1.91h5.05Z" style="fill:#fff;"/><path d="m245.08,64.1c.03.6.15,1.08.37,1.46.41.7,1.14,1.05,2.18,1.05.47,0,.89-.08,1.27-.23.74-.3,1.11-.83,1.11-1.6,0-.58-.16-.98-.47-1.23-.32-.24-.82-.45-1.49-.62l-1.25-.32c-.81-.21-1.39-.44-1.73-.7-.59-.44-.88-1.1-.88-1.98,0-.95.29-1.73.86-2.34s1.39-.91,2.44-.91c.97,0,1.79.27,2.47.8s1.02,1.39,1.02,2.56h-1.21c-.06-.57-.19-1-.4-1.3-.38-.55-1.02-.83-1.92-.83-.73,0-1.25.18-1.57.53-.32.35-.48.77-.48,1.24,0,.52.19.9.56,1.13.25.15.8.35,1.67.58l1.29.34c.62.16,1.1.39,1.44.67.59.49.88,1.21.88,2.15,0,1.17-.37,2-1.12,2.51-.75.5-1.62.75-2.6.75-1.15,0-2.06-.33-2.71-1.01-.65-.67-.97-1.57-.96-2.71h1.21Z" style="fill:gray;"/><path d="m253.03,57.66h1.18v2.15h1.11v1.06h-1.11v5.02c0,.27.08.45.25.54.09.05.24.08.45.08.06,0,.12,0,.18,0,.06,0,.14-.01.23-.02v1.03c-.13.04-.27.07-.42.09-.14.02-.3.03-.47.03-.54,0-.91-.15-1.11-.46-.19-.31-.29-.71-.29-1.2v-5.09h-.94v-1.06h.94v-2.15Z" style="fill:gray;"/><path d="m260.18,62.85c.27-.04.45-.16.54-.37.05-.12.08-.28.08-.5,0-.44-.14-.76-.42-.96-.28-.2-.69-.3-1.21-.3-.61,0-1.04.18-1.29.55-.14.2-.23.5-.28.9h-1.09c.02-.95.3-1.61.83-1.99.53-.37,1.15-.56,1.85-.56.81,0,1.48.17,1.98.52.5.35.76.88.76,1.61v4.43c0,.13.02.24.07.32.05.08.15.12.31.12.05,0,.11,0,.17-.01.06,0,.13-.02.21-.03v.96c-.18.06-.32.09-.41.11-.1.01-.22.02-.39.02-.4,0-.69-.16-.87-.47-.1-.17-.16-.41-.2-.71-.24.35-.58.64-1.02.9-.44.25-.93.38-1.47.38-.64,0-1.17-.22-1.58-.65-.41-.43-.61-.97-.61-1.63,0-.71.2-1.27.6-1.66.4-.39.93-.63,1.58-.72l1.86-.26Zm-2.45,3.5c.25.21.54.32.87.32.41,0,.81-.11,1.19-.32.65-.35.97-.92.97-1.71v-1.04c-.14.1-.33.18-.55.25-.22.07-.44.12-.66.14l-.7.1c-.42.06-.74.16-.95.29-.36.22-.54.58-.54,1.08,0,.37.12.67.37.88Z" style="fill:gray;"/><path d="m263.88,57.66h1.18v2.15h1.11v1.06h-1.11v5.02c0,.27.08.45.25.54.09.05.24.08.45.08.06,0,.12,0,.18,0,.06,0,.14-.01.23-.02v1.03c-.13.04-.27.07-.42.09-.14.02-.3.03-.47.03-.54,0-.91-.15-1.11-.46-.19-.31-.29-.71-.29-1.2v-5.09h-.94v-1.06h.94v-2.15Z" style="fill:gray;"/><path d="m267.3,56.95h1.18v1.47h-1.18v-1.47Zm0,2.9h1.18v7.66h-1.18v-7.66Z" style="fill:gray;"/><path d="m275.26,60.58c.61.66.92,1.63.92,2.92s-.27,2.26-.81,3.07-1.38,1.21-2.51,1.21c-.95,0-1.7-.36-2.26-1.07-.56-.72-.84-1.68-.84-2.88,0-1.29.29-2.32.88-3.09s1.38-1.15,2.37-1.15c.89,0,1.64.33,2.25.99Zm-.72,5.12c.28-.65.43-1.37.43-2.16,0-.72-.1-1.3-.31-1.75-.32-.71-.88-1.06-1.68-1.06-.7,0-1.22.3-1.54.9-.32.6-.48,1.33-.48,2.18s.16,1.5.48,2.05c.32.55.83.82,1.52.82.76,0,1.29-.32,1.57-.97Z" style="fill:gray;"/><path d="m277.54,59.81h1.11v1.09c.33-.45.68-.77,1.04-.97.37-.2.77-.29,1.22-.29.98,0,1.65.38,1.99,1.14.19.42.28,1.01.28,1.79v4.94h-1.18v-4.85c0-.47-.06-.85-.19-1.14-.21-.48-.58-.72-1.13-.72-.28,0-.5.03-.68.09-.32.11-.6.32-.84.63-.19.25-.32.52-.38.79-.06.27-.09.66-.09,1.16v4.03h-1.17v-7.7Z" style="fill:gray;"/><path d="m289.13,60.02c.46.26.81.59,1.05,1,.23.39.39.84.46,1.36.07.35.1.92.1,1.7h-5.04c.02.78.19,1.41.49,1.88.31.47.79.71,1.43.71.6,0,1.09-.22,1.45-.67.2-.26.34-.56.43-.9h1.15c-.03.28-.13.6-.3.95-.17.35-.36.63-.57.85-.35.38-.79.64-1.3.78-.28.08-.59.12-.94.12-.86,0-1.58-.35-2.18-1.05s-.89-1.67-.89-2.93.3-2.24.9-3.01c.6-.77,1.38-1.16,2.35-1.16.49,0,.96.13,1.42.38Zm.42,3.02c-.05-.56-.16-1.01-.33-1.34-.32-.62-.85-.93-1.59-.93-.53,0-.98.21-1.33.64s-.55.97-.57,1.63h3.82Z" style="fill:gray;"/><path d="m292.15,59.81h1.11v1.33c.09-.26.31-.57.67-.94.35-.37.76-.56,1.22-.56.02,0,.06,0,.11,0s.14.01.27.03v1.37c-.07-.01-.13-.02-.19-.03-.06,0-.12,0-.19,0-.59,0-1.04.21-1.35.63-.31.42-.47.9-.47,1.45v4.43h-1.17v-7.7Z" style="fill:gray;"/><path d="m301.19,59.81h1.29c-.16.49-.53,1.62-1.09,3.38-.42,1.32-.78,2.4-1.06,3.24-.67,1.96-1.15,3.16-1.42,3.59-.28.43-.75.65-1.42.65-.16,0-.29,0-.38-.02-.09-.01-.2-.04-.33-.08v-1.18c.2.06.35.1.44.11.09.01.17.02.24.02.22,0,.37-.04.47-.12.1-.08.19-.18.26-.29.02-.04.1-.23.23-.59.13-.35.23-.62.29-.79l-2.56-7.92h1.32l1.86,6.27,1.87-6.27Z" style="fill:gray;"/><path d="m264.27,73.66c.63.93.95,2.13.95,3.59,0,1.58-.36,2.89-1.08,3.93-.85,1.23-2.05,1.84-3.62,1.84-1.46,0-2.61-.54-3.45-1.61-.75-1.04-1.12-2.34-1.12-3.92,0-1.43.32-2.65.96-3.67.82-1.3,2.03-1.95,3.64-1.95s2.92.6,3.73,1.8Zm-1.14,6.73c.51-.9.76-1.94.76-3.12,0-1.24-.29-2.24-.88-3-.58-.76-1.38-1.14-2.4-1.14s-1.79.38-2.41,1.13-.93,1.86-.93,3.32c0,1.17.27,2.16.8,2.96.53.8,1.4,1.21,2.59,1.21s1.96-.45,2.46-1.36Z" style="fill:gray;"/><path d="m267.25,72.66c.27-.44.8-.66,1.57-.66.07,0,.15,0,.23,0s.17.01.27.02v1.18c-.12,0-.21-.02-.27-.02-.05,0-.11,0-.15,0-.36,0-.57.1-.64.31-.07.2-.1.72-.1,1.56h1.17v1.02h-1.17v6.64h-1.15v-6.64h-.96v-1.02h.96v-1.21c.02-.54.1-.93.25-1.18Z" style="fill:gray;"/><path d="m271.21,72.66c.27-.44.8-.66,1.57-.66.07,0,.15,0,.23,0s.17.01.27.02v1.18c-.12,0-.21-.02-.27-.02-.05,0-.11,0-.15,0-.36,0-.57.1-.64.31-.07.2-.1.72-.1,1.56h1.17v1.02h-1.17v6.64h-1.15v-6.64h-.96v-1.02h.96v-1.21c.02-.54.1-.93.25-1.18Z" style="fill:gray;"/><path d="m274.29,72.15h1.18v1.47h-1.18v-1.47Zm0,2.9h1.18v7.66h-1.18v-7.66Z" style="fill:gray;"/><path d="m281.81,75.42c.49.42.78,1.15.88,2.18h-1.13c-.07-.47-.23-.87-.47-1.18-.25-.31-.64-.47-1.18-.47-.74,0-1.27.4-1.59,1.21-.21.52-.31,1.17-.31,1.93s.15,1.42.44,1.95c.29.53.75.79,1.38.79.48,0,.87-.16,1.15-.49.28-.33.48-.77.59-1.34h1.13c-.13,1.02-.45,1.77-.97,2.24-.52.47-1.18.71-1.99.71-.91,0-1.63-.37-2.17-1.1s-.81-1.65-.81-2.76c0-1.35.3-2.4.89-3.16s1.34-1.13,2.26-1.13c.78,0,1.42.21,1.91.63Z" style="fill:gray;"/><path d="m288.21,75.22c.46.26.81.59,1.05,1,.23.39.39.84.46,1.36.07.35.1.92.1,1.7h-5.04c.02.78.19,1.41.49,1.88.31.47.79.71,1.43.71.6,0,1.09-.22,1.45-.67.2-.26.34-.56.43-.9h1.15c-.03.28-.13.6-.3.95-.17.35-.36.63-.57.85-.35.38-.79.64-1.3.78-.28.08-.59.12-.94.12-.86,0-1.58-.35-2.18-1.05s-.89-1.67-.89-2.93.3-2.24.9-3.01c.6-.77,1.38-1.16,2.35-1.16.49,0,.96.13,1.42.38Zm.42,3.02c-.05-.56-.16-1.01-.33-1.34-.32-.62-.85-.93-1.59-.93-.53,0-.98.21-1.33.64s-.55.97-.57,1.63h3.82Z" style="fill:gray;"/><path d="m32.89,107.31c.03.6.17,1.08.41,1.46.46.7,1.26,1.05,2.42,1.05.52,0,.99-.08,1.41-.23.82-.3,1.23-.83,1.23-1.6,0-.58-.17-.98-.52-1.23-.35-.24-.91-.45-1.66-.62l-1.39-.32c-.9-.21-1.55-.44-1.92-.7-.65-.44-.97-1.1-.97-1.98,0-.95.32-1.73.96-2.34s1.54-.91,2.71-.91c1.08,0,1.99.27,2.74.8s1.13,1.39,1.13,2.56h-1.34c-.07-.57-.22-1-.44-1.3-.42-.55-1.13-.83-2.13-.83-.81,0-1.39.18-1.74.53s-.53.77-.53,1.24c0,.52.21.9.63,1.13.27.15.89.35,1.86.58l1.43.34c.69.16,1.23.39,1.6.67.65.49.97,1.21.97,2.15,0,1.17-.41,2-1.24,2.51-.83.5-1.79.75-2.89.75-1.28,0-2.28-.33-3.01-1.01-.72-.67-1.08-1.57-1.07-2.71h1.34Z" style="fill:gray;"/><path d="m41.46,100.12h1.29v3.94c.31-.39.58-.66.83-.82.42-.27.94-.41,1.56-.41,1.12,0,1.87.39,2.27,1.17.22.43.32,1.02.32,1.78v4.94h-1.33v-4.85c0-.57-.07-.98-.22-1.24-.23-.42-.68-.63-1.32-.63-.54,0-1.02.18-1.46.55s-.65,1.07-.65,2.09v4.08h-1.29v-10.59Z" style="fill:gray;"/><path d="m49.55,100.16h1.31v1.47h-1.31v-1.47Zm0,2.9h1.31v7.66h-1.31v-7.66Z" style="fill:gray;"/><path d="m52.07,109.69l4.57-5.52h-4.23v-1.16h5.97v1.06l-4.54,5.48h4.68v1.16h-6.45v-1.02Z" style="fill:gray;"/><path d="m61.02,103.02v5.11c0,.39.06.71.18.96.22.46.64.69,1.25.69.88,0,1.47-.4,1.79-1.21.17-.43.26-1.02.26-1.77v-3.78h1.29v7.7h-1.22v-1.14c-.15.29-.35.54-.6.74-.48.4-1.07.6-1.76.6-1.08,0-1.81-.37-2.2-1.1-.21-.39-.32-.92-.32-1.57v-5.23h1.32Z" style="fill:gray;"/><path d="m68.03,100.87h1.31v2.15h1.23v1.06h-1.23v5.02c0,.27.09.45.27.54.1.05.27.08.5.08.06,0,.13,0,.2,0,.07,0,.16-.01.25-.02v1.03c-.15.04-.3.07-.46.09-.16.02-.33.03-.52.03-.6,0-1.01-.15-1.23-.46-.22-.31-.32-.71-.32-1.2v-5.09h-1.04v-1.06h1.04v-2.15Z" style="fill:gray;"/><path d="m76.4,103.23c.51.26.9.59,1.16,1,.26.39.43.84.51,1.36.08.35.11.92.11,1.7h-5.6c.02.78.21,1.41.55,1.88.34.47.87.71,1.59.71.67,0,1.21-.22,1.6-.67.22-.26.38-.56.47-.9h1.27c-.03.28-.14.6-.33.95-.19.35-.4.63-.63.85-.39.38-.87.64-1.45.78-.31.08-.66.12-1.05.12-.95,0-1.76-.35-2.42-1.05-.66-.7-.99-1.67-.99-2.93s.33-2.24,1-3.01c.67-.77,1.54-1.16,2.61-1.16.54,0,1.07.13,1.58.38Zm.46,3.02c-.05-.56-.17-1.01-.36-1.34-.35-.62-.94-.93-1.76-.93-.59,0-1.08.21-1.48.64s-.61.97-.63,1.63h4.24Z" style="fill:gray;"/><path d="m79.88,100.87h1.31v2.15h1.23v1.06h-1.23v5.02c0,.27.09.45.27.54.1.05.27.08.5.08.06,0,.13,0,.2,0,.07,0,.16-.01.25-.02v1.03c-.15.04-.3.07-.46.09-.16.02-.33.03-.52.03-.6,0-1.01-.15-1.23-.46-.22-.31-.32-.71-.32-1.2v-5.09h-1.04v-1.06h1.04v-2.15Z" style="fill:gray;"/><path d="m84.44,108.3c.04.43.15.76.33.99.33.42.91.62,1.73.62.49,0,.92-.1,1.29-.31s.56-.53.56-.97c0-.33-.15-.58-.45-.75-.19-.11-.56-.23-1.12-.37l-1.04-.26c-.67-.16-1.16-.34-1.48-.55-.56-.35-.85-.83-.85-1.45,0-.73.27-1.32.8-1.77.53-.45,1.25-.68,2.14-.68,1.18,0,2.02.34,2.54,1.02.33.43.48.9.47,1.39h-1.22c-.02-.29-.13-.55-.32-.79-.3-.34-.83-.51-1.58-.51-.5,0-.88.09-1.14.28-.26.19-.39.43-.39.74,0,.33.17.6.51.8.19.12.48.22.86.32l.87.21c.95.23,1.58.44,1.9.65.5.33.75.85.75,1.56s-.26,1.28-.79,1.77c-.53.5-1.33.75-2.4.75-1.16,0-1.98-.26-2.46-.78-.48-.52-.74-1.16-.77-1.93h1.24Z" style="fill:gray;"/><path d="m92.27,103.02v5.11c0,.39.06.71.18.96.22.46.64.69,1.25.69.88,0,1.47-.4,1.79-1.21.17-.43.26-1.02.26-1.77v-3.78h1.29v7.7h-1.22v-1.14c-.15.29-.35.54-.6.74-.48.4-1.07.6-1.76.6-1.08,0-1.81-.37-2.2-1.1-.21-.39-.32-.92-.32-1.57v-5.23h1.32Z" style="fill:gray;"/><path d="m53.01,115.36h4.56c1.24,0,2.13.37,2.65,1.11.31.44.46.94.46,1.51,0,.67-.19,1.21-.57,1.64-.2.23-.48.43-.85.62.54.21.95.44,1.21.7.47.46.71,1.09.71,1.9,0,.68-.21,1.3-.64,1.85-.64.82-1.66,1.24-3.06,1.24h-4.49v-10.56Zm4.03,4.46c.61,0,1.08-.08,1.42-.25.53-.26.8-.74.8-1.42s-.28-1.15-.85-1.39c-.32-.13-.79-.2-1.42-.2h-2.58v3.27h2.63Zm.48,4.87c.88,0,1.52-.25,1.89-.76.24-.32.36-.71.36-1.16,0-.77-.35-1.29-1.04-1.57-.37-.15-.85-.22-1.46-.22h-2.87v3.71h3.11Z" style="fill:gray;"/><path d="m63.98,118.22v5.11c0,.39.06.71.18.96.22.46.64.69,1.25.69.88,0,1.47-.4,1.79-1.21.17-.43.26-1.02.26-1.77v-3.78h1.29v7.7h-1.22v-1.14c-.15.29-.35.54-.6.74-.48.4-1.07.6-1.76.6-1.08,0-1.81-.37-2.2-1.1-.21-.39-.32-.92-.32-1.57v-5.23h1.32Z" style="fill:gray;"/><path d="m71.49,123.5c.04.43.15.76.33.99.33.42.91.62,1.73.62.49,0,.92-.1,1.29-.31s.56-.53.56-.97c0-.33-.15-.58-.45-.75-.19-.11-.56-.23-1.12-.37l-1.04-.26c-.67-.16-1.16-.34-1.48-.55-.56-.35-.85-.83-.85-1.45,0-.73.27-1.32.8-1.77.53-.45,1.25-.68,2.14-.68,1.18,0,2.02.34,2.54,1.02.33.43.48.9.47,1.39h-1.22c-.02-.29-.13-.55-.32-.79-.3-.34-.83-.51-1.58-.51-.5,0-.88.09-1.14.28-.26.19-.39.43-.39.74,0,.33.17.6.51.8.19.12.48.22.86.32l.87.21c.95.23,1.58.44,1.9.65.5.33.75.85.75,1.56s-.26,1.28-.79,1.77c-.53.5-1.33.75-2.4.75-1.16,0-1.98-.26-2.46-.78-.48-.52-.74-1.16-.77-1.93h1.24Z" style="fill:gray;"/><path d="m250.2,104.31h-5.11c-.39,0-.71.06-.96.18-.46.22-.69.64-.69,1.25,0,.88.4,1.47,1.21,1.79.43.17,1.02.26,1.77.26h3.78v1.29h-7.7v-1.22h1.14c-.29-.15-.54-.35-.74-.6-.4-.48-.6-1.07-.6-1.76,0-1.08.37-1.81,1.1-2.2.39-.21.92-.32,1.57-.32h5.23v1.32Z" style="fill:#fff;"/><path d="m250.2,111.02v1.23h-1.09c.45.36.77.75.97,1.16s.29.86.29,1.36c0,1.09-.38,1.83-1.14,2.21-.42.21-1.01.32-1.79.32h-4.94v-1.32h4.85c.47,0,.85-.07,1.14-.21.48-.23.72-.65.72-1.25,0-.31-.03-.56-.09-.75-.11-.36-.32-.67-.63-.93-.25-.22-.52-.36-.79-.42-.27-.06-.66-.1-1.16-.1h-4.03v-1.29h7.7Z" style="fill:#fff;"/><path d="m249.97,123.43c-.14.23-.39.49-.75.78h3.89v1.24h-10.59v-1.16h1.07c-.47-.3-.82-.66-1.03-1.07s-.32-.88-.32-1.41c0-.85.36-1.59,1.08-2.22.72-.63,1.68-.94,2.88-.94,1.12,0,2.09.29,2.91.86s1.23,1.39,1.23,2.44c0,.59-.12,1.08-.37,1.47Zm-5.77-2.89c-.56.35-.83.91-.83,1.67,0,.6.26,1.08.77,1.47.51.38,1.25.58,2.22.58s1.69-.2,2.16-.59.7-.88.7-1.47c0-.65-.25-1.17-.75-1.58s-1.23-.6-2.2-.6c-.82,0-1.51.17-2.07.52Z" style="fill:#fff;"/><path d="m249.99,132.08c-.26.51-.59.9-1,1.16-.39.26-.84.43-1.36.51-.35.08-.92.11-1.7.11v-5.6c-.78.02-1.41.21-1.88.55-.47.34-.71.87-.71,1.59,0,.67.22,1.21.67,1.6.26.22.56.38.9.47v1.27c-.28-.03-.6-.14-.95-.33-.35-.19-.63-.4-.85-.63-.38-.39-.64-.87-.78-1.45-.08-.31-.12-.66-.12-1.05,0-.95.35-1.76,1.05-2.42.7-.66,1.67-.99,2.93-.99s2.24.33,3.01,1c.77.67,1.16,1.54,1.16,2.61,0,.54-.13,1.07-.38,1.58Zm-3.02.46c.56-.05,1.01-.17,1.34-.36.62-.35.93-.94.93-1.76,0-.59-.21-1.08-.64-1.48-.43-.4-.97-.61-1.63-.63v4.24Z" style="fill:#fff;"/><path d="m250.2,135.43v1.23h-1.33c.26.1.57.35.94.74.37.39.56.84.56,1.36,0,.02,0,.06,0,.12,0,.06-.01.15-.03.29h-1.37c.01-.08.02-.15.03-.21s0-.13,0-.21c0-.65-.21-1.15-.63-1.5-.42-.35-.9-.52-1.45-.52h-4.43v-1.29h7.7Z" style="fill:#fff;"/><path d="m250.17,140.19v1.26h-1.02c.35.26.62.54.81.85.29.44.43.95.43,1.54,0,.87-.33,1.62-1,2.23-.67.61-1.62.91-2.86.91-1.68,0-2.87-.44-3.59-1.32-.46-.56-.68-1.21-.68-1.95,0-.58.13-1.07.38-1.46.14-.23.39-.49.74-.77h-3.93v-1.29h10.73Zm-6.03,4.87c.5.4,1.26.6,2.27.6.61,0,1.14-.09,1.58-.27.85-.34,1.27-.95,1.27-1.85s-.45-1.51-1.34-1.85c-.48-.18-1.09-.27-1.83-.27-.59,0-1.1.09-1.52.27-.79.34-1.19.95-1.19,1.85,0,.61.25,1.11.76,1.51Z" style="fill:#fff;"/><path d="m247.17,152.5c.04.3.16.5.37.6.12.06.28.09.5.09.44,0,.76-.16.96-.47.2-.31.3-.76.3-1.34,0-.67-.18-1.15-.55-1.43-.2-.16-.5-.26-.9-.31v-1.21c.95.02,1.61.33,1.99.92.37.59.56,1.28.56,2.06,0,.9-.17,1.64-.52,2.2-.35.56-.88.84-1.61.84h-4.43c-.13,0-.24.03-.32.08-.08.06-.12.17-.12.35,0,.06,0,.12.01.19,0,.07.02.15.03.23h-.96c-.06-.2-.09-.36-.11-.46-.01-.11-.02-.25-.02-.43,0-.45.16-.77.47-.97.17-.11.41-.18.71-.22-.35-.26-.64-.64-.9-1.14s-.38-1.04-.38-1.63c0-.71.22-1.3.65-1.75.43-.45.97-.68,1.63-.68.71,0,1.27.22,1.66.67.39.45.63,1.03.72,1.75l.26,2.06Zm-3.5-2.72c-.21.27-.32.6-.32.97,0,.46.11.9.32,1.32.35.72.92,1.08,1.71,1.08h1.04c-.1-.16-.18-.36-.25-.61-.07-.25-.12-.49-.14-.73l-.1-.78c-.06-.47-.16-.82-.29-1.06-.22-.4-.58-.6-1.08-.6-.37,0-.67.14-.88.41Z" style="fill:#fff;"/><path d="m244.92,157.3c-.43.04-.76.15-.99.33-.42.33-.62.91-.62,1.73,0,.49.1.92.31,1.29s.53.56.97.56c.33,0,.58-.15.75-.45.11-.19.23-.57.37-1.12l.26-1.04c.16-.67.34-1.16.55-1.47.35-.56.83-.85,1.45-.85.73,0,1.32.27,1.77.8.45.53.68,1.25.68,2.14,0,1.17-.34,2.02-1.02,2.54-.43.33-.9.48-1.39.47v-1.22c.29-.03.55-.13.79-.32.34-.3.51-.83.51-1.58,0-.5-.09-.88-.28-1.14-.19-.26-.43-.39-.74-.39-.33,0-.6.17-.8.51-.12.19-.22.48-.32.86l-.21.87c-.23.95-.44,1.58-.65,1.9-.33.5-.85.75-1.56.75s-1.28-.26-1.77-.79c-.5-.53-.75-1.33-.75-2.41,0-1.16.26-1.98.78-2.46.52-.48,1.16-.74,1.93-.77v1.24Z" style="fill:#fff;"/><path d="m244.92,164.72c-.43.04-.76.15-.99.33-.42.33-.62.91-.62,1.73,0,.49.1.92.31,1.29s.53.56.97.56c.33,0,.58-.15.75-.45.11-.19.23-.56.37-1.12l.26-1.04c.16-.67.34-1.16.55-1.48.35-.57.83-.85,1.45-.85.73,0,1.32.27,1.77.8.45.53.68,1.25.68,2.14,0,1.18-.34,2.02-1.02,2.54-.43.33-.9.48-1.39.47v-1.22c.29-.02.55-.13.79-.32.34-.3.51-.83.51-1.58,0-.5-.09-.88-.28-1.14-.19-.26-.43-.39-.74-.39-.33,0-.6.17-.8.51-.12.2-.22.48-.32.86l-.21.87c-.23.95-.44,1.58-.65,1.9-.33.5-.85.75-1.56.75s-1.28-.26-1.77-.79c-.5-.53-.75-1.33-.75-2.4,0-1.16.26-1.98.78-2.46.52-.48,1.16-.74,1.93-.78v1.24Z" style="fill:#fff;"/><path d="m453.23,75.52h5.85c.96,0,1.76.14,2.38.43,1.19.55,1.78,1.56,1.78,3.04,0,.77-.16,1.4-.48,1.89-.32.49-.76.88-1.34,1.18.5.2.88.47,1.14.81.25.33.4.87.43,1.62l.06,1.73c.02.49.06.86.12,1.1.1.41.29.67.56.79v.29h-2.14c-.06-.11-.11-.25-.14-.43-.04-.17-.06-.51-.09-1.02l-.1-2.15c-.04-.84-.34-1.41-.91-1.69-.32-.16-.83-.24-1.52-.24h-3.86v5.52h-1.74v-12.88Zm5.67,5.9c.8,0,1.43-.16,1.89-.49.46-.33.69-.92.69-1.77,0-.92-.32-1.54-.97-1.88-.35-.17-.81-.26-1.39-.26h-4.14v4.4h3.92Z" style="fill:gray;"/><path d="m471.33,79.26c.62.31,1.09.72,1.42,1.21.31.47.52,1.03.63,1.66.09.43.14,1.12.14,2.07h-6.83c.03.96.25,1.72.67,2.3s1.06.87,1.94.87c.82,0,1.47-.27,1.96-.82.27-.32.47-.68.58-1.1h1.55c-.04.34-.18.73-.41,1.15s-.49.77-.77,1.04c-.48.47-1.06.78-1.77.95-.38.09-.8.14-1.28.14-1.16,0-2.15-.42-2.95-1.28-.81-.85-1.21-2.04-1.21-3.57s.41-2.73,1.22-3.67c.81-.94,1.88-1.41,3.19-1.41.66,0,1.3.16,1.93.47Zm.57,3.69c-.06-.68-.21-1.23-.44-1.64-.43-.76-1.14-1.14-2.15-1.14-.72,0-1.32.26-1.81.78s-.74,1.19-.77,1.99h5.17Z" style="fill:gray;"/><path d="m476.29,85.45c.05.53.18.93.4,1.21.41.51,1.11.76,2.11.76.6,0,1.12-.13,1.57-.38.45-.25.68-.65.68-1.18,0-.4-.18-.71-.54-.92-.23-.13-.69-.28-1.37-.45l-1.27-.32c-.81-.2-1.41-.42-1.8-.67-.69-.43-1.03-1.02-1.03-1.77,0-.89.32-1.61.97-2.16.65-.55,1.52-.82,2.62-.82,1.43,0,2.47.42,3.1,1.25.4.53.59,1.09.58,1.7h-1.49c-.03-.35-.16-.68-.39-.97-.37-.41-1.01-.62-1.93-.62-.61,0-1.07.11-1.39.34-.31.23-.47.53-.47.9,0,.41.21.73.62.98.24.15.59.27,1.05.38l1.06.25c1.15.28,1.93.54,2.32.8.61.4.92,1.04.92,1.9s-.32,1.56-.96,2.17c-.64.61-1.62.91-2.93.91-1.41,0-2.42-.32-3-.95s-.9-1.42-.95-2.35h1.52Z" style="fill:gray;"/><path d="m484.59,76.38h1.6v2.62h1.5v1.29h-1.5v6.13c0,.33.11.55.33.66.12.06.33.1.61.1.08,0,.16,0,.25,0,.09,0,.19-.01.31-.03v1.25c-.18.05-.37.09-.57.11s-.41.04-.64.04c-.74,0-1.24-.19-1.5-.57-.26-.38-.39-.87-.39-1.47v-6.22h-1.27v-1.29h1.27v-2.62Z" style="fill:gray;"/><path d="m489.19,79.01h1.5v1.62c.12-.32.42-.7.9-1.15s1.03-.68,1.66-.68c.03,0,.08,0,.15,0,.07,0,.19.02.36.04v1.67c-.09-.02-.18-.03-.26-.04-.08,0-.17,0-.26,0-.79,0-1.41.26-1.83.77-.43.51-.64,1.1-.64,1.77v5.4h-1.58v-9.39Z" style="fill:gray;"/><path d="m501.83,79.94c.83.81,1.25,1.99,1.25,3.56s-.37,2.76-1.1,3.75c-.73.99-1.87,1.48-3.4,1.48-1.28,0-2.3-.44-3.06-1.31s-1.13-2.04-1.13-3.52c0-1.58.4-2.83,1.19-3.77.79-.93,1.86-1.4,3.2-1.4,1.2,0,2.22.4,3.05,1.21Zm-.98,6.24c.38-.79.58-1.67.58-2.64,0-.88-.14-1.59-.42-2.14-.44-.86-1.2-1.3-2.27-1.3-.95,0-1.65.37-2.08,1.1-.43.74-.65,1.62-.65,2.66s.22,1.83.65,2.5c.43.67,1.12,1,2.06,1,1.03,0,1.74-.4,2.13-1.19Z" style="fill:gray;"/><path d="m511.78,79.94c.83.81,1.25,1.99,1.25,3.56s-.37,2.76-1.1,3.75c-.73.99-1.87,1.48-3.4,1.48-1.28,0-2.3-.44-3.06-1.31s-1.13-2.04-1.13-3.52c0-1.58.4-2.83,1.19-3.77.79-.93,1.86-1.4,3.2-1.4,1.2,0,2.22.4,3.05,1.21Zm-.98,6.24c.38-.79.58-1.67.58-2.64,0-.88-.14-1.59-.42-2.14-.44-.86-1.2-1.3-2.27-1.3-.95,0-1.65.37-2.08,1.1-.43.74-.65,1.62-.65,2.66s.22,1.83.65,2.5c.43.67,1.12,1,2.06,1,1.03,0,1.74-.4,2.13-1.19Z" style="fill:gray;"/><path d="m514.84,79.01h1.56v1.33c.37-.46.71-.8,1.02-1.01.52-.36,1.11-.54,1.77-.54.75,0,1.35.18,1.81.55.26.21.49.52.7.93.35-.5.76-.88,1.24-1.12.47-.24,1-.36,1.6-.36,1.26,0,2.12.46,2.58,1.37.25.49.37,1.15.37,1.98v6.25h-1.64v-6.52c0-.62-.16-1.05-.47-1.29-.31-.23-.69-.35-1.14-.35-.62,0-1.15.21-1.6.62s-.67,1.11-.67,2.08v5.46h-1.6v-6.13c0-.64-.08-1.1-.23-1.39-.24-.44-.69-.66-1.34-.66-.6,0-1.14.23-1.63.69-.49.46-.73,1.3-.73,2.51v4.98h-1.58v-9.39Z" style="fill:gray;"/></g></svg>