<?xml version="1.0" encoding="UTF-8"?><svg id="_レイヤー_2" xmlns="http://www.w3.org/2000/svg" width="1067.46" height="485.13" viewBox="0 0 1067.46 485.13"><g id="_レイヤー_2-2"><polygon points="693.35 138.21 911.1 138.21 911.1 26.77 526.15 26.77 477.89 26.77 382.67 58.72 4.25 58.72 4.25 138.21 632.05 138.21 632.05 327.15 4.25 327.15 4.25 441.28 526.15 441.28 767.71 441.28 767.71 331.15 1067.46 331.15 1067.46 327.15 693.35 327.15 693.35 138.21" style="fill:#f2f2f2;"/><rect x="767.71" y="331.15" width="68.9" height="62.1" style="fill:#f2f2f2;"/><rect x="911.1" y="78.59" width="70.24" height="59.62" style="fill:#f2f2f2;"/><polygon points="522.15 22.77 473.89 22.77 378.67 54.72 .25 54.72 .25 134.21 522.15 134.21 522.15 22.77" style="fill:#dbf1de;"/><rect x=".25" y="328.48" width="521.9" height="108.8" style="fill:#dbf1de;"/><polygon points="522.15 22.77 522.15 134.21 632.05 134.21 632.05 327.15 522.15 327.15 522.15 437.28 763.71 437.28 763.71 327.15 688.35 327.15 688.35 134.21 715.37 134.21 715.37 22.77 522.15 22.77" style="fill:#e3f2f7;"/><rect x="715.37" y="22.77" width="191.73" height="111.44" style="fill:#f2f2f2;"/><line x1="24.18" y1="194.51" x2="1044.25" y2="194.51" style="fill:none; stroke:#4d4948; stroke-miterlimit:10; stroke-width:7.56px;"/><line x1="24.18" y1="194.51" x2="1044.25" y2="194.51" style="fill:none; stroke:#fff; stroke-miterlimit:10; stroke-width:5.04px;"/><line x1="24.18" y1="194.51" x2="1044.25" y2="194.51" style="fill:none; stroke:#4d4948; stroke-dasharray:0 0 25.2 25.2; stroke-miterlimit:10; stroke-width:5.04px;"/><line x1="24.18" y1="262.4" x2="1044.25" y2="262.4" style="fill:none; stroke:#4d4948; stroke-miterlimit:10; stroke-width:7.56px;"/><line x1="24.18" y1="262.4" x2="1044.25" y2="262.4" style="fill:none; stroke:#fff; stroke-miterlimit:10; stroke-width:5.04px;"/><line x1="24.18" y1="262.4" x2="1044.25" y2="262.4" style="fill:none; stroke:#4d4948; stroke-dasharray:0 0 25.2 25.2; stroke-miterlimit:10; stroke-width:5.04px;"/><path d="m909.77,174.46c0,.12-.02.14-.14.14-.09,0-.58-.04-2.12-.04h-.54c.7,1.02,1.42,1.56,2.59,2.24-.14.14-.3.33-.42.61-.07.14-.1.21-.16.21s-.12-.05-.25-.16c-.86-.63-1.52-1.33-2.14-2.35.04,2.82.12,4.48.12,5.22,0,.12-.02.14-.16.14h-.79c-.12,0-.14-.02-.14-.14,0-.72.05-2.29.1-5.01-.72,1.4-1.61,2.5-2.97,3.61-.12.09-.19.14-.26.14s-.11-.07-.17-.21c-.12-.26-.32-.51-.47-.65,1.54-1.03,2.64-2.14,3.5-3.66h-.89c-1.54,0-2.05.04-2.13.04-.12,0-.14-.02-.14-.14v-.7c0-.12.02-.14.14-.14.09,0,.59.03,2.13.03h1.23v-.03c0-.82-.02-1.24-.11-1.65.37.02.77.05,1.07.09.11.02.17.07.17.14,0,.1-.03.18-.07.25-.05.12-.09.33-.09,1.17v.03h.84c1.54,0,2.03-.03,2.12-.03.12,0,.14.02.14.14v.7Zm.3-2.94c0,.12-.02.14-.14.14-.11,0-.61-.03-2.17-.03h-3.38c-1.58,0-2.08.03-2.17.03-.12,0-.14-.02-.14-.14v-.72c0-.12.02-.14.14-.14.09,0,.59.04,2.17.04h2.31c.38-.77.61-1.4.8-2,.09-.26.14-.47.16-.75.38.09.67.16.95.25.16.05.21.12.21.21s-.05.14-.12.21c-.09.09-.17.19-.26.4-.23.58-.46,1.07-.77,1.68h.1c1.52,0,2.03-.04,2.17-.04.12,0,.14.02.14.14v.72Zm-.28-4.13c0,.12-.02.14-.14.14-.09,0-.58-.04-2.08-.04h-2.91c-1.5,0-2,.04-2.08.04-.12,0-.14-.02-.14-.14v-.68c0-.12.02-.14.14-.14.09,0,.58.03,2.08.03h1.02v-.54c0-.44-.02-.88-.12-1.26.46.02.79.03,1.14.09.14.02.23.07.23.14,0,.12-.05.21-.1.31-.09.16-.09.3-.09.72v.54h.84c1.5,0,2-.03,2.08-.03.12,0,.14.02.14.14v.68Zm-5.48.63c.14-.05.17-.04.25.07.33.56.58,1.16.75,1.73.04.12.02.17-.16.24l-.44.18c-.23.07-.28.07-.32-.09-.17-.63-.37-1.19-.67-1.75-.07-.12-.05-.16.17-.24l.4-.14Zm13.6,3.52c0,.12-.02.14-.14.14-.09,0-.58-.04-2.12-.04h-.09v6.18c0,1.89.04,2.52.04,2.61,0,.14-.02.14-.14.14h-.86c-.12,0-.14,0-.14-.14,0-.09.04-.72.04-2.61v-6.18h-2.61c0,1.86-.05,3.64-.44,5.13-.3,1.14-.68,2.14-1.79,3.47-.11.14-.17.19-.25.19s-.12-.04-.23-.14c-.17-.17-.4-.3-.67-.4,1.12-1.17,1.68-2.38,2-3.68.28-1.17.35-2.71.35-4.92v-2.15c0-.96-.03-1.72-.12-2.47.42.09.72.17,1.14.35,1.43-.39,2.61-.89,3.48-1.37.35-.19.63-.4.88-.63.28.23.56.52.77.79.07.09.11.16.11.25,0,.07-.09.14-.23.16-.19.02-.39.09-.65.21-1.17.58-2.68,1.14-4.36,1.58v2.7h3.76c1.54,0,2.03-.04,2.12-.04.12,0,.14.02.14.14v.73Z" style="fill:gray;"/><path d="m920.13,169.63c.11-.14.17-.14.28-.09.84.51,1.63,1.07,2.4,1.8.09.09.09.12-.02.25l-.42.49c-.17.21-.19.23-.3.12-.72-.75-1.54-1.4-2.33-1.89-.12-.07-.11-.1.02-.25l.37-.44Zm1.26,9.78c-.18.39-.3.65-.32.81-.02.1-.09.19-.14.19-.07,0-.16-.04-.28-.1-.3-.19-.51-.33-.81-.58.33-.42.56-.75.82-1.28.54-1.05,1.14-2.43,1.66-4.17.18.25.35.37.6.52.26.18.26.19.16.54-.53,1.44-1.12,2.85-1.7,4.06Zm-.46-14.09c.12-.14.17-.16.28-.09.82.52,1.61,1.15,2.29,1.87.09.1.09.17-.05.33l-.38.47c-.14.16-.17.17-.28.07-.7-.77-1.58-1.54-2.29-2-.11-.07-.11-.1.05-.26l.39-.4Zm14.26,6.14c0,.1-.02.12-.14.12-.09,0-.7-.04-2.49-.04h-6.48c-1.77,0-2.38.04-2.49.04-.12,0-.14-.02-.14-.12v-.65c0-.12.02-.14.14-.14.1,0,.72.04,2.49.04h2.59v-1.28h-1.44c-1.68,0-2.22.04-2.33.04-.12,0-.14-.02-.14-.14v-.58c0-.12.02-.14.14-.14.1,0,.65.04,2.33.04h1.44v-1.21h-1.79c-1.73,0-2.29.04-2.38.04-.12,0-.14-.02-.14-.14v-.61c0-.12.02-.14.14-.14.09,0,.65.03,2.38.03h1.79v-.12c0-.91-.02-1.35-.12-1.79.4.02.86.05,1.14.09.14.02.21.09.21.16,0,.12-.05.19-.11.31-.07.16-.09.42-.09,1.19v.16h2.15c1.73,0,2.31-.03,2.4-.03.12,0,.14.02.14.14v.61c0,.12-.02.14-.14.14-.09,0-.67-.04-2.4-.04h-2.15v1.21h1.72c1.68,0,2.21-.04,2.31-.04.12,0,.14.02.14.14v.58c0,.12-.02.14-.14.14-.1,0-.63-.04-2.31-.04h-1.72v1.28h2.85c1.79,0,2.4-.04,2.49-.04.12,0,.14.02.14.14v.65Zm-4.17,1.16c1.57,0,2.12-.04,2.21-.04.12,0,.14.02.14.14,0,.1-.04.7-.04,2.05v1.84c0,.93.02,1.86.02,2.33,0,.54-.07.93-.37,1.16-.32.23-.6.31-1.89.31-.35,0-.37,0-.46-.35-.05-.21-.14-.42-.3-.67.42.04.79.05,1.29.05.59,0,.7-.18.7-.65v-1.21h-6.09v.61c0,1.59.04,2.14.04,2.22,0,.1-.02.12-.14.12h-.79c-.12,0-.14-.02-.14-.12s.04-.58.04-2.19v-3.57c0-1.33-.04-1.84-.04-1.94,0-.12.02-.14.14-.14.09,0,.65.04,2.22.04h3.45Zm1.31.84h-6.09v1.24h6.09v-1.24Zm0,2.07h-6.09v1.24h6.09v-1.24Z" style="fill:gray;"/><path d="m942.05,169.73c.17,0,.24-.02.33-.05.07-.04.11-.05.17-.05.11,0,.23.05.47.32.28.28.35.4.35.51,0,.09-.05.16-.14.23-.1.09-.21.21-.31.52-1,2.87-2.54,5.09-5.01,7.02-.12.1-.19.16-.25.16-.07,0-.14-.07-.25-.23-.17-.25-.37-.44-.58-.56,2.52-1.73,4.15-3.99,5.11-6.88h-2.5c-1.29,0-1.7.03-1.79.03-.12,0-.14-.02-.14-.14v-.79c0-.1.02-.12.14-.12.09,0,.49.03,1.79.03h2.59Zm3.36-2c.31,1.45.91,2.89,1.68,4.18,1.03-.86,1.87-1.75,2.77-2.85.23-.28.37-.54.49-.84.39.23.65.4.95.65.12.09.16.16.16.25,0,.1-.09.16-.21.23-.16.09-.39.28-.81.73-.77.82-1.7,1.73-2.83,2.66,1.4,2.05,3.27,3.73,5.27,4.71-.21.16-.42.38-.61.68-.11.16-.14.23-.23.23-.05,0-.12-.05-.26-.12-2.82-1.65-5.44-4.85-6.44-8.33.05,3.05.14,6.63.14,8.82,0,.56-.17,1-.63,1.24-.33.21-.86.3-2.17.3q-.35,0-.46-.35c-.09-.32-.21-.6-.37-.81.44.03,1.03.05,1.51.05.72,0,1-.16,1-.65v-11.59c0-.96-.02-1.44-.12-1.92.4.02.84.05,1.17.09.14.02.23.09.23.16,0,.14-.07.25-.11.37-.07.19-.1.53-.1,1.3v.82Z" style="fill:gray;"/><path d="m970.06,168.94c0,.12-.02.14-.14.14-.09,0-.63-.03-2.28-.03h-6.23c-.04.98-.1,1.85-.21,2.68h4.41c1.49,0,1.96-.04,2.05-.04.12,0,.17.05.16.19-.04.4-.05.82-.09,1.23-.17,2.61-.38,4.27-.63,5.29-.33,1.35-.91,1.8-2.17,1.8-.33,0-1.03-.04-1.68-.1q-.33-.04-.37-.4c-.04-.3-.12-.63-.25-.82,1.01.17,1.82.21,2.22.21.67,0,.98-.37,1.16-1.07.26-1.03.47-2.94.59-5.25h-5.55c-.63,3.52-2.14,5.65-5.37,7.47-.12.07-.21.1-.26.1-.11,0-.16-.09-.28-.28-.16-.23-.38-.4-.63-.56,4.2-2.06,5.65-4.67,5.74-10.45h-3.08c-1.63,0-2.19.03-2.28.03-.12,0-.14-.02-.14-.14v-.8c0-.12.02-.14.14-.14.09,0,.65.04,2.28.04h4.52v-1.35c0-.89-.02-1.38-.12-1.8.42,0,.88.03,1.21.09.14.02.21.07.21.14,0,.12-.05.21-.1.33-.07.17-.09.44-.09,1.23v1.37h4.85c1.65,0,2.19-.04,2.28-.04.12,0,.14.02.14.14v.8Z" style="fill:gray;"/><path d="m987.48,166.6c0,.1-.02.12-.14.12-.11,0-.65-.03-2.29-.03h-4.85c-.26.88-.63,1.8-1.08,2.66h5.01c1.75,0,2.34-.04,2.45-.04.12,0,.14.02.14.14,0,.1-.03.77-.03,3.2v3.05c0,3.87.03,4.5.03,4.6,0,.12-.02.14-.14.14h-.82c-.12,0-.14-.02-.14-.14v-.86h-11.5v.88c0,.12-.02.14-.14.14h-.8c-.12,0-.14-.02-.14-.14,0-.1.04-.73.04-4.62v-2.73c0-2.75-.04-3.41-.04-3.52,0-.12.02-.14.14-.14.1,0,.7.04,2.45.04h2.38c.42-.79.81-1.79,1.07-2.66h-4.38c-1.65,0-2.21.03-2.29.03-.12,0-.14-.02-.14-.12v-.79c0-.12.02-.14.14-.14.09,0,.65.03,2.29.03h10.36c1.64,0,2.19-.03,2.29-.03.12,0,.14.02.14.14v.79Zm-10.43,3.68h-2.94v8.23h2.94v-8.23Zm4.58,0h-3.59v2.1h3.59v-2.1Zm0,2.98h-3.59v2.15h3.59v-2.15Zm0,3.03h-3.59v2.22h3.59v-2.22Zm3.97-6h-2.96v8.23h2.96v-8.23Z" style="fill:gray;"/><polygon points="1034.77 173.65 1018.06 164 1018.06 169.88 998.54 169.88 998.54 177.42 1018.06 177.42 1018.06 183.3 1034.77 173.65" style="fill:gray;"/><path d="m78.33,292.46c0,.12-.02.14-.14.14-.09,0-.58-.04-2.12-.04h-.54c.7,1.02,1.42,1.56,2.59,2.24-.14.14-.3.33-.42.61-.07.14-.1.21-.16.21s-.12-.05-.25-.16c-.86-.63-1.52-1.33-2.14-2.34.04,2.82.12,4.48.12,5.21,0,.12-.02.14-.16.14h-.79c-.12,0-.14-.02-.14-.14,0-.72.05-2.29.1-5-.72,1.4-1.61,2.5-2.98,3.61-.12.09-.19.14-.26.14s-.1-.07-.17-.21c-.12-.26-.31-.51-.47-.65,1.54-1.03,2.64-2.14,3.5-3.66h-.89c-1.54,0-2.05.04-2.14.04-.12,0-.14-.02-.14-.14v-.7c0-.12.02-.14.14-.14.09,0,.6.04,2.14.04h1.23v-.04c0-.82-.02-1.24-.1-1.64.37.02.77.05,1.07.09.11.02.18.07.18.14,0,.1-.04.17-.07.25-.05.12-.09.33-.09,1.17v.04h.84c1.54,0,2.03-.04,2.12-.04.12,0,.14.02.14.14v.7Zm.3-2.94c0,.12-.02.14-.14.14-.1,0-.61-.04-2.17-.04h-3.38c-1.58,0-2.08.04-2.17.04-.12,0-.14-.02-.14-.14v-.72c0-.12.02-.14.14-.14.09,0,.6.03,2.17.03h2.31c.39-.77.61-1.4.81-2,.09-.26.14-.47.16-.75.38.09.67.16.94.25.16.05.21.12.21.21s-.05.14-.12.21c-.09.09-.17.19-.26.4-.23.58-.46,1.07-.77,1.68h.1c1.52,0,2.03-.03,2.17-.03.12,0,.14.02.14.14v.72Zm-.28-4.13c0,.12-.02.14-.14.14-.09,0-.58-.04-2.08-.04h-2.91c-1.5,0-2,.04-2.08.04-.12,0-.14-.02-.14-.14v-.68c0-.12.02-.14.14-.14.09,0,.58.04,2.08.04h1.02v-.54c0-.44-.02-.88-.12-1.26.46.02.79.04,1.14.09.14.02.23.07.23.14,0,.12-.05.21-.1.31-.09.16-.09.3-.09.72v.54h.84c1.51,0,2-.04,2.08-.04.12,0,.14.02.14.14v.68Zm-5.48.63c.14-.05.18-.03.25.07.33.56.58,1.16.75,1.73.03.12.02.18-.16.25l-.44.17c-.23.07-.28.07-.31-.09-.18-.63-.37-1.19-.67-1.75-.07-.12-.05-.16.17-.25l.4-.14Zm13.6,3.52c0,.12-.02.14-.14.14-.09,0-.58-.04-2.12-.04h-.09v6.18c0,1.89.04,2.52.04,2.61,0,.14-.02.14-.14.14h-.86c-.12,0-.14,0-.14-.14,0-.09.03-.72.03-2.61v-6.18h-2.61c0,1.86-.05,3.64-.44,5.13-.3,1.14-.68,2.14-1.79,3.47-.1.14-.18.19-.25.19s-.12-.04-.23-.14c-.18-.18-.4-.3-.67-.4,1.12-1.17,1.68-2.38,2-3.67.28-1.17.35-2.71.35-4.92v-2.15c0-.96-.04-1.71-.12-2.47.42.09.72.18,1.14.35,1.44-.38,2.61-.89,3.48-1.37.35-.19.63-.4.88-.63.28.23.56.52.77.79.07.09.1.16.1.25,0,.07-.09.14-.23.16-.19.02-.38.09-.65.21-1.17.58-2.68,1.14-4.36,1.57v2.7h3.76c1.54,0,2.03-.03,2.12-.03.12,0,.14.02.14.14v.74Z" style="fill:gray;"/><path d="m95.56,289.33c0,.12-.02.14-.14.14-.09,0-.56-.04-2.06-.04h-2.98c-1.49,0-2,.04-2.08.04-.1,0-.12-.02-.12-.14v-.61c0-.12.02-.14.12-.14.09,0,.6.04,2.08.04h1.17v-1.23h-.53c-1.26,0-1.66.04-1.75.04-.12,0-.14-.02-.14-.14v-.6c0-.1.02-.12.14-.12.09,0,.49.04,1.75.04h.53v-1.16h-.77c-1.42,0-1.86.04-1.96.04-.12,0-.14-.02-.14-.14v-.61c0-.12.02-.14.14-.14.1,0,.54.04,1.96.04h.77v-.05c0-.93-.02-1.4-.12-1.87.42.02.73.05,1.07.11.14.02.23.09.23.14,0,.14-.07.21-.12.33-.07.19-.09.49-.09,1.29v.05h.77c1.42,0,1.86-.04,1.96-.04s.12.02.12.14v.61c0,.12-.02.14-.12.14s-.54-.04-1.96-.04h-.77v1.16h.47c1.28,0,1.66-.04,1.77-.04.12,0,.14.02.14.12v.6c0,.12-.02.14-.14.14-.1,0-.49-.04-1.77-.04h-.47v1.23h.84c1.5,0,1.98-.04,2.06-.04.12,0,.14.02.14.14v.61Zm-2.59,1.19c1.24,0,1.65-.04,1.73-.04.12,0,.14.02.14.14,0,.09-.03.7-.03,2.05v2.13c0,.89.02,1.84.02,2.21,0,.46-.07.84-.37,1.07-.31.21-.56.3-1.68.3-.35,0-.37.02-.46-.35-.05-.23-.16-.46-.26-.65.39.04.7.07,1.12.07.58,0,.68-.17.68-.65v-1.31h-3.62v.96c0,1.31.02,1.87.02,1.96,0,.11,0,.12-.12.12h-.73c-.12,0-.14-.02-.14-.12s.04-.58.04-1.92v-3.9c0-1.35-.04-1.86-.04-1.96,0-.12.02-.14.14-.14.1,0,.51.04,1.73.04h1.84Zm.89.84h-3.62v1.24h3.62v-1.24Zm0,2.06h-3.62v1.24h3.62v-1.24Zm10.17-2.49c0,.12-.02.14-.12.14-.07,0-.38-.02-1.14-.04v1.71c0,1.28.03,1.72.03,1.82s-.02.12-.14.12h-.7c-.12,0-.14-.02-.14-.12v-.68h-2.08v.37c0,.75.02,1.77.02,2.38,0,.79-.09,1.12-.44,1.4-.26.23-.79.31-1.92.3-.35,0-.35.02-.44-.35-.07-.26-.18-.49-.33-.7.37.05.75.07,1.28.07.65,0,.86-.14.86-.84v-2.63h-.44c-1.47,0-1.94.04-2.03.04-.12,0-.14-.02-.14-.14v-.65c0-.12.02-.14.14-.14.09,0,.56.04,2.03.04h.44v-2h-.8c-1.61,0-2.15.04-2.24.04-.12,0-.14-.02-.14-.14v-.67c0-.12.02-.14.14-.14.09,0,.63.04,2.24.04h.8v-1.93h-.28c-1.38,0-1.79.04-1.87.04-.12,0-.14-.02-.14-.12v-.67c0-.12.02-.14.14-.14.09,0,.49.04,1.87.04h.65c.46-.63.86-1.35,1.19-2.1h-2.26c-.51.79-1.07,1.49-1.87,2.28-.12.12-.17.17-.24.17-.05,0-.1-.05-.23-.17-.18-.18-.33-.28-.54-.39,1.19-1.01,2-2.1,2.61-3.34.21-.44.35-.82.39-1.1.37.09.67.16.94.26.12.04.19.09.19.17s-.05.16-.16.25c-.09.07-.21.28-.4.67l-.21.38h1.98c.17,0,.16-.02.23-.05.07-.04.1-.05.16-.05.12,0,.23.05.49.28s.31.33.31.42c0,.1-.05.19-.17.26-.12.07-.25.24-.33.4-.3.59-.65,1.14-1,1.66h.54c1.38,0,1.84-.04,1.93-.04.12,0,.14.02.14.14,0,.09-.03.52-.03,1.82v.86c.75,0,1.07-.04,1.14-.04.11,0,.12.02.12.14v.67Zm-2.21-2.7h-2.08v1.93h2.08v-1.93Zm0,2.8h-2.08v2h2.08v-2Z" style="fill:gray;"/><path d="m117.72,283.76c1.75,0,2.35-.03,2.45-.03.12,0,.14.02.14.14,0,.09-.03,1.19-.03,3.55v6.69c0,1.4.02,2.24.02,2.8,0,.51-.09.88-.42,1.16-.26.21-.75.33-2.1.33-.33,0-.35,0-.42-.33-.07-.28-.21-.61-.35-.82.51.05,1.07.07,1.56.07.46,0,.65-.19.65-.7v-11.87h-11.5v10.41c0,2.19.04,3.17.04,3.25,0,.12-.02.14-.14.14h-.86c-.12,0-.14-.02-.14-.14,0-.1.03-1.1.03-3.5v-7.51c0-2.42-.03-3.45-.03-3.54,0-.12.02-.14.14-.14.1,0,.7.03,2.45.03h8.52Zm.61,5.74c0,.12-.02.14-.16.14-.09,0-.65-.04-2.31-.04h-1.98v4.9h2.4v-1.49c0-.82,0-1.29-.12-1.77.42.02.84.05,1.09.09.12.02.19.07.19.16s-.02.16-.07.25c-.07.12-.11.33-.11,1.29v1.73c0,.82.04,1.17.04,1.26,0,.12-.02.14-.14.14h-.73c-.12,0-.14-.02-.14-.14v-.65h-5.65v1.08c0,.12-.02.14-.14.14h-.73c-.12,0-.14-.02-.14-.14,0-.11.03-.46.03-1.37v-2.03c0-.93-.02-1.33-.1-1.79.37.02.79.05,1.07.1.14.02.21.07.21.12,0,.12-.05.21-.1.33-.07.16-.09.4-.09,1.23v1.43h2.27v-4.9h-1.84c-1.7,0-2.24.04-2.35.04-.12,0-.14-.02-.14-.14v-.68c0-.12.02-.14.14-.14.1,0,.65.03,2.35.03h2.98c.53-.91.89-1.63,1.23-2.4.1-.25.19-.53.28-.89.33.11.68.25.96.4.12.07.18.11.18.21,0,.09-.09.16-.16.21-.09.07-.17.18-.3.42-.28.56-.68,1.31-1.14,2.05h.77c1.66,0,2.22-.03,2.31-.03.14,0,.16.02.16.14v.68Zm-7.46-3.92c.17-.09.19-.1.28,0,.46.61.84,1.3,1.17,2.01.05.12.02.16-.19.26l-.42.21c-.23.12-.26.12-.31,0-.3-.7-.63-1.37-1.08-2.01-.07-.1-.05-.14.14-.25l.42-.23Z" style="fill:gray;"/><path d="m138.61,286.95c0,.12-.02.14-.14.14-.09,0-.63-.04-2.27-.04h-6.23c-.03.98-.1,1.86-.21,2.68h4.41c1.49,0,1.96-.04,2.05-.04.12,0,.17.05.16.19-.04.4-.05.82-.09,1.23-.18,2.61-.39,4.27-.63,5.29-.33,1.35-.91,1.8-2.17,1.8-.33,0-1.03-.04-1.68-.11q-.33-.03-.37-.4c-.04-.3-.12-.63-.25-.82,1.02.17,1.82.21,2.22.21.67,0,.98-.37,1.15-1.07.26-1.03.47-2.94.6-5.25h-5.55c-.63,3.52-2.13,5.65-5.37,7.47-.12.07-.21.1-.26.1-.1,0-.16-.09-.28-.28-.16-.23-.38-.4-.63-.56,4.2-2.07,5.65-4.67,5.74-10.45h-3.08c-1.63,0-2.19.04-2.28.04-.12,0-.14-.02-.14-.14v-.8c0-.12.02-.14.14-.14.09,0,.65.04,2.28.04h4.52v-1.35c0-.89-.02-1.38-.12-1.8.42,0,.88.04,1.21.09.14.02.21.07.21.14,0,.12-.05.21-.1.33-.07.17-.09.44-.09,1.22v1.37h4.85c1.65,0,2.19-.04,2.27-.04.12,0,.14.02.14.14v.8Z" style="fill:gray;"/><path d="m156.03,284.6c0,.1-.02.12-.14.12-.1,0-.65-.04-2.29-.04h-4.85c-.26.88-.63,1.8-1.08,2.66h5.01c1.75,0,2.35-.03,2.45-.03.12,0,.14.02.14.14,0,.11-.04.77-.04,3.2v3.04c0,3.87.04,4.5.04,4.6,0,.12-.02.14-.14.14h-.82c-.12,0-.14-.02-.14-.14v-.86h-11.5v.88c0,.12-.02.14-.14.14h-.81c-.12,0-.14-.02-.14-.14,0-.1.04-.73.04-4.62v-2.73c0-2.75-.04-3.41-.04-3.52,0-.12.02-.14.14-.14.1,0,.7.03,2.45.03h2.38c.42-.79.8-1.79,1.07-2.66h-4.38c-1.65,0-2.21.04-2.29.04-.12,0-.14-.02-.14-.12v-.79c0-.12.02-.14.14-.14.09,0,.65.04,2.29.04h10.36c1.65,0,2.19-.04,2.29-.04.12,0,.14.02.14.14v.79Zm-10.43,3.67h-2.94v8.23h2.94v-8.23Zm4.59,0h-3.59v2.1h3.59v-2.1Zm0,2.98h-3.59v2.15h3.59v-2.15Zm0,3.03h-3.59v2.22h3.59v-2.22Zm3.97-6h-2.96v8.23h2.96v-8.23Z" style="fill:gray;"/><polygon points="23.79 291.65 40.5 282 40.5 287.88 60.02 287.88 60.02 295.42 40.5 295.42 40.5 301.3 23.79 291.65" style="fill:gray;"/><rect x="559.38" y="326.2" width="12.41" height="72.91" style="fill:#fff; stroke:#545454; stroke-miterlimit:10; stroke-width:.5px;"/><rect x="522.15" y="326.2" width="12.41" height="72.91" style="fill:#fff; stroke:#545454; stroke-miterlimit:10; stroke-width:.5px;"/><rect x="534.56" y="326.2" width="12.41" height="72.91" style="fill:#fff; stroke:#545454; stroke-miterlimit:10; stroke-width:.5px;"/><rect x="546.97" y="326.2" width="12.41" height="72.91" style="fill:#fff; stroke:#545454; stroke-miterlimit:10; stroke-width:.5px;"/><rect x="596.62" y="326.2" width="12.41" height="72.91" style="fill:#fff; stroke:#545454; stroke-miterlimit:10; stroke-width:.5px;"/><rect x="571.8" y="326.2" width="12.41" height="72.91" style="fill:#fff; stroke:#545454; stroke-miterlimit:10; stroke-width:.5px;"/><rect x="609.04" y="326.2" width="12.41" height="72.91" style="fill:#fff; stroke:#545454; stroke-miterlimit:10; stroke-width:.5px;"/><rect x="584.21" y="326.2" width="12.41" height="72.91" style="fill:#fff; stroke:#545454; stroke-miterlimit:10; stroke-width:.5px;"/><rect x="522.15" y="326.73" width="99.3" height="6.51" style="fill:#545454; stroke:#545454; stroke-miterlimit:10; stroke-width:.5px;"/><rect x="522.15" y="392.6" width="99.3" height="6.51" style="fill:#545454; stroke:#545454; stroke-miterlimit:10; stroke-width:.5px;"/><rect x="559.38" y="60.4" width="12.41" height="72.91" style="fill:#fff; stroke:#545454; stroke-miterlimit:10; stroke-width:.5px;"/><rect x="522.15" y="60.4" width="12.41" height="72.91" style="fill:#fff; stroke:#545454; stroke-miterlimit:10; stroke-width:.5px;"/><rect x="534.56" y="60.4" width="12.41" height="72.91" style="fill:#fff; stroke:#545454; stroke-miterlimit:10; stroke-width:.5px;"/><rect x="546.97" y="60.4" width="12.41" height="72.91" style="fill:#fff; stroke:#545454; stroke-miterlimit:10; stroke-width:.5px;"/><rect x="596.62" y="60.4" width="12.41" height="72.91" style="fill:#fff; stroke:#545454; stroke-miterlimit:10; stroke-width:.5px;"/><rect x="571.8" y="60.4" width="12.41" height="72.91" style="fill:#fff; stroke:#545454; stroke-miterlimit:10; stroke-width:.5px;"/><rect x="609.04" y="60.4" width="12.41" height="72.91" style="fill:#fff; stroke:#545454; stroke-miterlimit:10; stroke-width:.5px;"/><rect x="584.21" y="60.4" width="12.41" height="72.91" style="fill:#fff; stroke:#545454; stroke-miterlimit:10; stroke-width:.5px;"/><rect x="522.15" y="60.93" width="99.3" height="6.51" style="fill:#545454; stroke:#545454; stroke-miterlimit:10; stroke-width:.5px;"/><rect x="522.15" y="126.79" width="99.3" height="6.51" style="fill:#545454; stroke:#545454; stroke-miterlimit:10; stroke-width:.5px;"/><rect x="763.71" y="327.15" width="68.9" height="62.1" style="fill:#67d4ff; stroke:#545454; stroke-miterlimit:10; stroke-width:.5px;"/><rect x="907.1" y="74.59" width="70.24" height="59.62" style="fill:#e6e6e6; stroke:#545454; stroke-miterlimit:10; stroke-width:.5px;"/><rect x="706.68" y="48.23" width="16.34" height="50.28" transform="translate(788.22 -641.48) rotate(90)" style="fill:#ffffc8; stroke:#545454; stroke-miterlimit:10; stroke-width:.5px;"/><rect x="706.68" y="78.14" width="16.34" height="50.28" transform="translate(818.13 -611.57) rotate(90)" style="fill:#ffffc8; stroke:#545454; stroke-miterlimit:10; stroke-width:.5px;"/><rect x="706.68" y="395.53" width="16.34" height="50.28" transform="translate(1135.52 -294.18) rotate(90)" style="fill:#ffffc8; stroke:#545454; stroke-miterlimit:10; stroke-width:.5px;"/><path d="m786.27,11.15q.21.07.19.21c-.09,1.31-.25,2.5-.77,3.69-.05.12-.09.12-.25.02l-.42-.28c-.14-.09-.16-.11-.11-.23.44-.98.67-2.05.77-3.45.02-.14.04-.14.26-.07l.31.11Zm5.93-8.72c0,.12-.02.14-.14.14-.09,0-.51-.04-1.71-.04h-.74v1.68h.26c1.26,0,1.63-.04,1.71-.04.12,0,.14.02.14.14v.6c0,.12-.02.14-.14.14-.09,0-.46-.04-1.71-.04h-.26v1.68h.26c1.26,0,1.63-.04,1.71-.04.12,0,.14.02.14.14v.6c0,.12-.02.14-.14.14-.09,0-.46-.04-1.71-.04h-.26v1.75h.61c1.17,0,1.52-.03,1.63-.03s.16.03.14.16c-.02.33-.04.65-.05.98-.12,2.84-.44,4.2-.74,4.88-.3.61-.88.96-1.52.96-.3,0-.7-.02-1-.03-.21-.02-.25-.02-.3-.37-.05-.3-.12-.49-.23-.7.54.07,1.07.11,1.37.11.4,0,.65-.19.82-.51.28-.49.54-1.79.65-4.62h-3.17c-1.29,0-1.73.04-1.87.04-.12,0-.14-.02-.14-.16,0-.09.04-.68.04-1.87V3.88c0-1.43-.04-2.01-.04-2.12,0-.12.02-.14.14-.14.14,0,.58.04,1.87.04h2.52c1.21,0,1.63-.04,1.71-.04.12,0,.14.02.14.14v.67Zm-3.5.1h-1.91v1.68h1.91v-1.68Zm0,2.49h-1.91v1.68h1.91v-1.68Zm0,2.49h-1.91v1.75h1.91v-1.75Zm-1.35,3.64c.16-.04.19-.04.21.07.19.93.3,1.79.35,2.8,0,.16-.02.17-.17.23l-.37.12c-.16.05-.19.05-.19-.11-.04-1.07-.12-1.92-.3-2.85-.03-.14,0-.14.14-.17l.33-.09Zm1.17-.12c.14-.05.17-.05.21.07.23.7.4,1.47.53,2.36.02.12,0,.14-.14.19l-.3.12c-.16.07-.19.05-.21-.07-.11-.91-.25-1.72-.47-2.42-.04-.12-.02-.12.12-.17l.26-.09Zm1.08-.19c.14-.05.17-.05.23.05.25.51.44,1.07.61,1.79.02.11,0,.12-.12.17l-.26.12c-.14.07-.17.05-.19-.05-.16-.72-.35-1.35-.58-1.82-.05-.1-.04-.12.1-.17l.21-.09Zm7.42-2.96c.35,3.13,1.44,5.95,3.76,7.75-.21.14-.42.32-.61.58-.11.14-.16.21-.21.21s-.11-.05-.23-.16c-2.28-2-3.29-4.85-3.69-8.38h-1.75c-.04,1.17-.1,2.19-.23,3.27-.23,1.77-.75,3.64-1.85,5.13-.09.12-.14.19-.19.19s-.1-.07-.23-.17c-.21-.21-.46-.37-.68-.47,1.26-1.38,1.73-3.13,1.98-5.08.23-1.75.23-3.52.23-6.21,0-1.63-.04-2.33-.04-2.42,0-.12.02-.14.14-.14.11,0,.54.04,1.96.04h2.33c1.38,0,1.86-.04,1.94-.04.12,0,.14.02.14.14,0,.09-.04.54-.04,1.75v2.96c0,1.23.04,1.61.04,1.72,0,.12-.02.14-.14.14h-.75c-.12,0-.14-.02-.14-.14v-.67h-1.73Zm1.73-4.94h-4.43v1.71c0,.88,0,1.63-.02,2.31h4.45V2.94Z" style="fill:gray;"/><path d="m808.48,6.61c.16,0,.28-.04.33-.07.05-.04.09-.04.16-.04.09,0,.21.07.42.25.25.23.32.35.32.46s-.04.16-.18.26c-.14.11-.17.23-.28.46-.21.44-.49.95-.89,1.58-.11.18-.16.25-.25.25-.05,0-.11-.04-.21-.1-.19-.12-.46-.18-.63-.21.52-.75.86-1.31,1.14-1.94h-1.64v5.13c0,.86.02,1.51.02,2.36,0,.59-.11.91-.47,1.19-.25.19-.74.26-2.05.23-.32-.02-.33-.02-.4-.35-.07-.3-.19-.53-.35-.72.56.07,1.02.11,1.59.11.53,0,.67-.12.67-.6v-4.17c0-.72.02-1.47.04-2.13-.54,1.58-1.28,3.13-2.73,4.79-.1.12-.17.19-.25.19s-.14-.07-.23-.21c-.14-.21-.35-.38-.51-.47,1.54-1.35,2.64-3.57,3.29-5.36h-.7c-1.47,0-1.96.04-2.05.04-.12,0-.14-.02-.14-.14v-.67c0-.12.02-.14.14-.14.09,0,.58.04,2.05.04h1.71c-.75-.79-1.49-1.42-2.43-2.1-.12-.09-.12-.12.04-.26l.33-.3c.16-.14.17-.14.3-.05.42.3.82.58,1.19.88.74-.61,1.44-1.26,2.01-2.06h-2.91c-1.4,0-1.84.02-1.92.02-.12,0-.14,0-.14-.12v-.72c0-.12.02-.14.14-.14.09,0,.52.04,1.92.04h3.04c.18,0,.33-.04.4-.07.07-.04.12-.05.19-.05.1,0,.23.07.49.33.28.28.33.38.33.51s-.14.21-.25.28c-.16.11-.28.28-.47.51-.63.74-1.21,1.37-2.13,2.1l.77.75c.11.09.09.12-.09.28l-.23.19h1.49Zm8.38,5.06c-.14,1.82-.23,2.96-.68,3.73-.3.56-.82.88-1.58.88-.33,0-.72-.02-1.14-.04-.33-.02-.35-.04-.4-.42-.04-.25-.12-.47-.25-.68.54.11,1.01.17,1.49.17.44,0,.7-.05.93-.4.35-.49.49-1.68.61-3.34h-2.91c-.63,2.28-2.05,3.71-4.25,4.78-.12.07-.21.1-.26.1-.09,0-.14-.07-.26-.26-.14-.23-.33-.42-.56-.56,2-.72,3.62-1.96,4.32-4.06h-.91c-1.59,0-2.12.04-2.21.04-.14,0-.16-.02-.16-.14v-.67c0-.14.02-.16.16-.16.09,0,.61.04,2.21.04h1.14c.07-.37.1-.77.12-1.21.02-.23,0-.52-.04-.77.35.02.72.05,1.03.12.16.04.23.09.23.16,0,.1-.04.19-.11.28-.07.09-.1.32-.14.58-.04.3-.07.58-.12.84h1.42c1.61,0,2.13-.04,2.22-.04.12,0,.17.05.16.17l-.07.86Zm.89-8.09c0,.12-.02.14-.14.14-.09,0-.46-.02-1.49-.04-.37,1.23-.96,2.24-1.71,3.05,1.12.82,2.45,1.42,3.88,1.71-.17.21-.31.42-.42.68q-.14.33-.47.23c-1.28-.4-2.55-1.08-3.67-1.98-1.07.89-2.31,1.5-3.59,1.89-.3.09-.33.09-.44-.19-.11-.26-.28-.49-.42-.63,1.31-.28,2.62-.82,3.71-1.7-.7-.67-1.31-1.42-1.77-2.26-.33.42-.72.86-1.21,1.37-.09.1-.16.16-.21.16s-.1-.05-.21-.17c-.16-.19-.37-.35-.58-.44,1.4-1.19,2.12-2.28,2.71-3.45.23-.49.35-.84.4-1.21.37.09.77.21,1.01.32.11.04.16.11.16.17,0,.09-.05.16-.14.21-.1.07-.26.33-.38.54l-.46.82h3.38c1.38,0,1.82-.04,1.91-.04.12,0,.14.02.14.14v.67Zm-5.95.1c.46.91,1.1,1.72,1.87,2.43.61-.67,1.1-1.47,1.42-2.43h-3.29Z" style="fill:gray;"/><path d="m835.33,15.8c0,.12,0,.14-.12.14-.11,0-.65-.04-2.29-.04h-10.48c-1.63,0-2.19.04-2.28.04-.12,0-.14-.02-.14-.14v-.72c0-.12.02-.14.14-.14.09,0,.65.04,2.28.04h4.57v-2.26h-2.5c-1.77,0-2.36.04-2.47.04-.12,0-.14-.02-.14-.14v-.72c0-.12.02-.14.14-.14.1,0,.7.04,2.47.04h2.5v-.12c0-.84-.02-1.3-.11-1.7.4.02.8.05,1.12.09.12.02.21.09.21.14,0,.12-.05.21-.1.33-.07.16-.09.42-.09,1.16v.1h2.8c1.77,0,2.36-.04,2.47-.04.12,0,.14.02.14.14v.72c0,.12-.02.14-.14.14-.1,0-.7-.04-2.47-.04h-2.8v2.26h4.88c1.65,0,2.19-.04,2.29-.04.12,0,.12.02.12.14v.72Zm-.58-11.76c0,1.45.04,1.64.04,1.75,0,.12-.02.14-.14.14h-.8c-.12,0-.14-.02-.14-.14v-2.33h-12.13v2.33c0,.12-.02.14-.14.14h-.8c-.12,0-.14-.02-.14-.14,0-.11.03-.3.03-1.75v-.54c0-.53-.03-.77-.03-.86,0-.12.02-.14.14-.14.09,0,.7.03,2.42.03h3.94v-.3c0-.58-.04-1.03-.12-1.44.42.02.82.05,1.16.09.12.02.21.07.21.16,0,.12-.05.19-.1.32-.07.16-.09.42-.09.88v.3h4.22c1.68,0,2.29-.03,2.4-.03.12,0,.14.02.14.14,0,.09-.04.33-.04.77v.63Zm-4.55,2.62c.14-.11.18-.09.28,0,1.02.8,1.96,1.75,2.89,2.82.09.11.07.12-.09.26l-.46.4c-.12.11-.18.11-.28-.02-.32-.39-.6-.75-.91-1.09-2.96.33-5.76.54-8.93.7-.49.02-.65.05-.74.12-.07.05-.12.07-.19.07s-.12-.07-.16-.17c-.07-.25-.16-.63-.23-.98.54.03,1.15.03,1.77.02.35,0,.72-.02,1.07-.03.58-.91,1.07-1.84,1.44-2.68h-.72c-1.65,0-2.24.03-2.33.03-.12,0-.14-.02-.14-.14v-.7c0-.12.02-.14.14-.14.09,0,.68.04,2.33.04h5.37c1.64,0,2.24-.04,2.33-.04.12,0,.14.02.14.14v.7c0,.12-.02.14-.14.14-.09,0-.68-.03-2.33-.03h-3.5c-.47.98-.96,1.85-1.45,2.62,1.91-.11,3.76-.25,5.57-.42-.37-.37-.77-.72-1.19-1.08-.1-.09-.1-.14.09-.28l.37-.26Z" style="fill:gray;"/><path d="m791.8,401.17c2.01.58,3.96,1.4,5.71,2.43.14.07.17.16.12.28-.12.32-.28.63-.42.86-.11.14-.17.17-.33.07-1.63-1.07-3.5-1.89-5.09-2.34v4.06c0,1.07.04,2.43.05,3.57.02.17-.04.23-.23.23-.26.02-.61.02-.89,0-.19,0-.25-.05-.25-.25.05-1.12.07-2.49.07-3.55v-7.79c0-1.31-.07-2.21-.19-2.8.61.05,1.14.12,1.45.23.28.07.21.26.12.53-.1.3-.12.82-.12,1.94v2.54Z" style="fill:gray;"/><path d="m811.68,406.8c0,1.05.02,2.05.05,3.17.02.16-.04.21-.17.21-.32.02-.7.02-1.02,0-.14,0-.17-.05-.17-.21.04-1.05.07-2.1.07-3.12v-5.18c-1.84,1.63-3.55,2.82-5.5,3.96-.16.09-.28.05-.4-.07-.23-.23-.54-.4-.88-.56,2.17-1.19,3.99-2.45,5.44-3.69,1.33-1.14,2.57-2.38,3.4-3.38.73-.89,1.05-1.42,1.21-1.98.47.25.95.52,1.21.79.17.18.14.39-.07.49-.21.11-.54.42-.98.93-.74.89-1.37,1.59-2.19,2.42v6.23Z" style="fill:gray;"/><path d="m824.37,407.36c1.68-.59,3.15-1.29,4.81-2.26,1.79-1.03,3.24-2.1,4.59-3.48.02.46.07.93.16,1.26.05.17.04.28-.1.4-1.3,1.17-2.85,2.21-4.38,3.08-1.35.79-2.7,1.38-4.29,2.12-.42.19-.77.33-.93.51-.16.16-.33.16-.49.03-.21-.17-.47-.44-.67-.7-.11-.14-.09-.26-.02-.42.07-.17.09-.38.09-.89l.04-5.65c.02-1.79.04-2.92-.17-3.97.54.05,1.22.18,1.49.28.21.07.23.21.12.49-.11.26-.17,1.19-.19,3.19l-.05,6.02Z" style="fill:gray;"/><path d="m162.18,80.9c0,.12-.02.14-.14.14-.09,0-.63-.04-2.29-.04h-4.94v2.63c1.8.68,3.66,1.65,5.48,2.85.1.07.14.1,0,.3l-.37.51c-.16.23-.19.23-.31.14-1.7-1.17-3.1-1.98-4.8-2.71v6.42c0,1.91.04,2.71.04,2.8,0,.12-.02.14-.14.14h-.93c-.12,0-.14-.02-.14-.14,0-.1.03-.89.03-2.8v-10.13h-4.18c-1.65,0-2.21.04-2.29.04-.12,0-.14-.02-.14-.14v-.84c0-.12.02-.14.14-.14.09,0,.65.04,2.29.04h10.26c1.66,0,2.21-.04,2.29-.04.12,0,.14.02.14.14v.84Z" style="fill:#0094e2;"/><path d="m169.92,79.8c.16.09.23.16.23.26,0,.09-.04.17-.07.23-.14.19-.25.37-.31.68-.33,1.63-.49,3.08-.52,4.03-.02.67-.02,1.38.07,1.98.37-.74.89-1.73,1.3-2.52.1.33.23.54.35.72.12.19.09.3-.02.47-.46.81-.86,1.66-1.1,2.31-.1.28-.12.4-.12.56.02.16-.02.21-.12.25-.16.04-.54.09-.84.12-.09,0-.14-.07-.17-.18-.26-.72-.44-1.92-.44-3.27,0-1.07.19-2.7.4-4.11.1-.73.19-1.29.16-1.94.49.1.93.26,1.23.42Zm5.53-.17c.26.05.3.17.26.35-.05.19-.05.49-.04.82.14,1.94.21,3.4.21,4.64,0,2.5-.44,4.39-1.44,5.74-.7.96-1.63,1.82-2.89,2.54-.17.1-.3.1-.46-.04-.23-.19-.58-.4-.89-.49,1.42-.75,2.29-1.38,3.05-2.4.98-1.31,1.44-2.8,1.44-5.3,0-1.21-.07-2.87-.17-4.17-.07-.84-.18-1.29-.35-1.84.49.02.96.05,1.28.14Z" style="fill:#0094e2;"/><path d="m186.01,86.87c.28.17.23.28.02.49-.12.12-.26.28-.47.68-.42.81-1.08,1.87-1.8,2.7-.16.18-.26.23-.47.1-.28-.17-.6-.31-.91-.38,1.03-1.03,1.63-1.98,2.06-2.87.19-.38.33-.8.4-1.28.44.16.82.33,1.17.56Zm3.05-4.8c0-.98-.05-1.84-.19-2.42.54.04,1.14.1,1.45.19.25.07.28.26.14.49-.14.23-.18.79-.18,1.82v1.07h2.28c1.26,0,2.56-.03,3.59-.09.16-.02.21.05.21.21,0,.25,0,.54-.02.79,0,.18-.04.25-.21.25-1.14-.05-2.5-.07-3.62-.07h-2.22v3.04c0,1.49.05,2.64.05,3.76,0,.75-.26,1.31-.88,1.61-.63.32-1.45.47-2.01.51-.14.02-.24-.05-.3-.21-.16-.39-.38-.7-.73-.98.89,0,1.68-.12,2.17-.32.37-.14.47-.37.47-1.02v-6.41h-2.8c-.98,0-2.07.05-2.99.12-.16.02-.21-.07-.23-.25-.02-.21-.07-.75-.07-1.09,1.24.11,2.29.12,3.26.12h2.84v-1.15Zm4.66,4.43c.12-.09.21-.05.33.05.93.82,1.73,1.92,2.45,3.17.1.19.07.26-.07.4-.17.16-.44.37-.67.51-.14.09-.23.09-.3-.07-.6-1.21-1.47-2.49-2.52-3.5.28-.21.53-.38.77-.56Z" style="fill:#0094e2;"/><path d="m203.29,87.15c-1.52,0-2.26.18-2.36.18-.16,0-.24-.07-.3-.25-.07-.3-.14-.86-.17-1.33,1.07.14,2.42.16,3.87.16h5.37c1.21,0,2.5-.02,3.83-.05.21-.02.26.02.26.21.02.26.02.63,0,.91,0,.19-.05.23-.26.21-1.31-.04-2.61-.04-3.78-.04h-6.46Z" style="fill:#0094e2;"/><path d="m225.22,80.29c.16.1.17.3-.02.52-.21.23-.42.63-.63,1.28-.86,2.56-2.05,5.74-3.27,8.51,2.36-.19,5.15-.44,7.46-.79-.58-1.03-1.29-2.1-2.12-3.06.28-.16.56-.35.82-.49.17-.1.25-.05.35.09,1.29,1.52,2.5,3.52,3.4,5.41.09.16.04.26-.09.35-.26.16-.52.3-.77.42-.14.07-.23.04-.31-.16-.23-.49-.47-1.02-.74-1.49-2.75.42-5.51.72-8.61,1.05-1.28.14-1.59.23-1.79.33-.25.16-.46.17-.56-.07-.1-.24-.26-.8-.42-1.45.63.05,1.21.04,2.06-.02,1.26-2.99,2.54-6.42,3.13-8.35.4-1.29.51-2.03.54-2.7.65.18,1.24.4,1.56.61Z" style="fill:#0094e2;"/><path d="m236.8,92.7v-12.69l13.74,6.35-13.74,6.35Z" style="fill:#0094e2;"/><path d="m161.03,373.14v12.69l-13.74-6.34,13.74-6.35Z" style="fill:#0094e2;"/><path d="m181.03,386.24c0,.12-.02.14-.14.14-.09,0-.65-.04-2.31-.04h-10.06c-1.66,0-2.22.04-2.31.04-.12,0-.14-.02-.14-.14v-.89c0-.12.02-.14.14-.14.09,0,.65.04,2.31.04h3.96v-10.71c0-1.31-.02-1.87-.1-2.52.44.02.89.05,1.23.11.12.02.23.07.23.16,0,.11-.03.19-.09.33-.07.19-.12.61-.12,1.7v3.31h3.48c1.66,0,2.22-.04,2.31-.04.12,0,.14.02.14.14v.89c0,.12-.02.14-.14.14-.09,0-.65-.04-2.31-.04h-3.48v6.53h4.97c1.66,0,2.22-.04,2.31-.04.12,0,.14.02.14.14v.89Z" style="fill:#0094e2;"/><path d="m188.81,372.92c.16.09.23.16.23.26,0,.09-.04.17-.07.23-.14.19-.24.37-.31.68-.33,1.63-.49,3.08-.52,4.03-.02.67-.02,1.38.07,1.98.37-.74.89-1.73,1.3-2.52.1.33.23.54.35.72.12.19.09.3-.02.47-.46.81-.86,1.66-1.1,2.31-.11.28-.12.4-.12.56.02.16-.02.21-.12.25-.16.04-.54.09-.84.12-.09,0-.14-.07-.17-.18-.26-.72-.44-1.92-.44-3.27,0-1.07.19-2.7.4-4.11.1-.73.19-1.29.16-1.94.49.11.93.26,1.23.42Zm5.53-.17c.26.05.3.17.26.35-.05.19-.05.49-.04.82.14,1.94.21,3.4.21,4.64,0,2.5-.44,4.39-1.44,5.74-.7.96-1.63,1.82-2.89,2.54-.17.11-.3.11-.46-.04-.23-.19-.58-.4-.89-.49,1.42-.75,2.29-1.38,3.05-2.4.98-1.31,1.44-2.8,1.44-5.3,0-1.21-.07-2.87-.17-4.17-.07-.84-.18-1.29-.35-1.84.49.02.96.05,1.28.14Z" style="fill:#0094e2;"/><path d="m204.91,379.99c.28.17.23.28.02.49-.12.12-.26.28-.47.68-.42.81-1.08,1.87-1.8,2.7-.16.18-.26.23-.47.11-.28-.17-.6-.32-.91-.38,1.03-1.03,1.63-1.98,2.06-2.87.19-.38.33-.8.4-1.28.44.16.82.33,1.17.56Zm3.05-4.8c0-.98-.05-1.84-.19-2.42.54.04,1.14.1,1.45.19.25.07.28.26.14.49-.14.23-.18.79-.18,1.82v1.07h2.28c1.26,0,2.56-.04,3.59-.09.16-.02.21.05.21.21,0,.25,0,.54-.02.79,0,.17-.04.25-.21.25-1.14-.05-2.5-.07-3.62-.07h-2.22v3.04c0,1.49.05,2.64.05,3.76,0,.75-.26,1.31-.88,1.61-.63.31-1.45.47-2.01.51-.14.02-.24-.05-.3-.21-.16-.38-.39-.7-.73-.98.89,0,1.68-.12,2.17-.32.37-.14.47-.37.47-1.02v-6.41h-2.8c-.98,0-2.07.05-2.99.12-.16.02-.21-.07-.23-.25-.02-.21-.07-.75-.07-1.09,1.24.11,2.29.12,3.26.12h2.84v-1.16Zm4.66,4.43c.12-.09.21-.05.33.05.93.82,1.73,1.92,2.45,3.17.1.19.07.26-.07.4-.17.16-.44.37-.67.51-.14.09-.23.09-.3-.07-.6-1.21-1.47-2.49-2.52-3.5.28-.21.53-.38.77-.56Z" style="fill:#0094e2;"/><path d="m222.19,380.27c-1.52,0-2.26.18-2.36.18-.16,0-.24-.07-.3-.25-.07-.3-.14-.86-.17-1.33,1.07.14,2.42.16,3.87.16h5.37c1.21,0,2.5-.02,3.83-.05.21-.02.26.02.26.21.02.26.02.63,0,.91,0,.19-.05.23-.26.21-1.31-.04-2.61-.04-3.78-.04h-6.46Z" style="fill:#0094e2;"/><path d="m244.12,373.41c.16.11.17.3-.02.53-.21.23-.42.63-.63,1.28-.86,2.56-2.05,5.74-3.27,8.51,2.36-.19,5.15-.44,7.46-.79-.58-1.03-1.29-2.1-2.12-3.06.28-.16.56-.35.82-.49.17-.1.25-.05.35.09,1.29,1.52,2.5,3.52,3.4,5.41.09.16.04.26-.09.35-.26.16-.52.3-.77.42-.14.07-.23.04-.31-.16-.23-.49-.47-1.01-.74-1.49-2.75.42-5.51.72-8.61,1.05-1.28.14-1.59.23-1.79.33-.25.16-.46.17-.56-.07s-.26-.8-.42-1.45c.63.05,1.21.04,2.06-.02,1.26-2.99,2.54-6.42,3.13-8.35.4-1.29.51-2.03.54-2.7.65.17,1.24.4,1.56.61Z" style="fill:#0094e2;"/><polyline points="843.64 22.77 473.89 22.77 378.67 54.72 .25 54.72 .25 132.95 632.05 132.95 632.05 327.15 .25 328.48 .25 437.28 763.71 437.28 763.71 327.15 1063.46 327.15" style="fill:none; stroke:#545454; stroke-miterlimit:10; stroke-width:.5px;"/><polyline points="1063.46 134.21 907.1 134.21 907.1 22.77" style="fill:none; stroke:#545454; stroke-miterlimit:10; stroke-width:.5px;"/><rect x="781.09" y="22.77" width="62.34" height="60.54" style="fill:#fff; stroke:#545454; stroke-miterlimit:10; stroke-width:.5px;"/><rect x="788.98" y="31.08" width="44.18" height="44.18" rx="3.52" ry="3.52" style="fill:none; stroke:#0094e2; stroke-linecap:round; stroke-linejoin:round; stroke-width:3.52px;"/><rect x="787.93" y="30.03" width="44.18" height="44.18" rx="3.52" ry="3.52" style="fill:#fff;"/><rect x="787.93" y="30.03" width="44.18" height="44.18" rx="3.52" ry="3.52" style="fill:none; stroke:#0094e2; stroke-linecap:round; stroke-linejoin:round; stroke-width:1.76px;"/><polygon points="817.25 42.12 801.44 42.12 798.11 35.36 818.29 38.17 817.25 42.12" style="fill:#0094e2;"/><path d="m801.13,44.09h15.71v4.99c0,2.5-2.08,6.55-7.18,6.55s-7.39-4.37-7.39-5.83v-2.39h-3.95l2.81-3.33Z" style="fill:#0094e2;"/><path d="m828.27,72.28c.52-4.06.1-8.01-1.98-10.19-2.08-2.18-5.83-3.74-11.86-3.74l-4.37,8.43-5.3-8.43s-5.1.52-7.07,1.35c-1.98.83-6.76,5.2-4.99,11.96.12.45.27,1.06.45,1.74h34.97c.05-.38.11-.75.15-1.11Z" style="fill:#0094e2;"/><rect x="776.05" y="335.79" width="44.18" height="44.18" rx="3.52" ry="3.52" style="fill:none; stroke:#0094e2; stroke-linecap:round; stroke-linejoin:round; stroke-width:3.52px;"/><rect x="775" y="334.73" width="44.18" height="44.18" rx="3.52" ry="3.52" style="fill:#fff;"/><rect x="775" y="334.73" width="44.18" height="44.18" rx="3.52" ry="3.52" style="fill:none; stroke:#0094e2; stroke-linecap:round; stroke-linejoin:round; stroke-width:1.76px;"/><polygon points="792.57 372.97 787.77 372.97 784.92 349.84 795.42 349.84 792.57 372.97" style="fill:#0094e2;"/><polygon points="801.61 349.84 806.42 349.84 809.26 372.97 798.77 372.97 801.61 349.84" style="fill:#ec0e8d;"/><circle cx="790.17" cy="344.61" r="3.93" style="fill:#0094e2;"/><circle cx="804.01" cy="344.61" r="3.93" style="fill:#ec0e8d;"/><path d="m918.54,107.18c.21.05.21.07.19.21-.09,1.31-.21,2.49-.75,3.68-.05.12-.09.1-.28,0l-.33-.19c-.21-.12-.21-.18-.16-.3.44-.96.65-2.08.75-3.41.02-.16.04-.14.26-.07l.31.09Zm5.74-8.86c0,.12-.02.14-.14.14-.09,0-.51-.04-1.71-.04h-.63v1.7h.05c1.26,0,1.63-.04,1.71-.04.12,0,.14.02.14.14v.59c0,.12-.02.14-.14.14-.09,0-.46-.04-1.71-.04h-.05v1.7h.05c1.26,0,1.63-.03,1.71-.03.12,0,.14.02.14.14v.59c0,.12-.02.14-.14.14-.09,0-.46-.04-1.71-.04h-.05v1.84h.63c1.17,0,1.52-.04,1.63-.04s.16.04.14.16c-.02.33-.04.67-.05,1-.07,2.83-.37,4.43-.67,5.11-.3.61-.88.96-1.52.96-.3,0-.61-.02-.91-.03-.23-.02-.21-.02-.3-.37-.03-.25-.12-.49-.23-.7.54.07.98.11,1.28.11.4,0,.65-.19.82-.51.28-.49.51-2.03.58-4.87h-3.13c-1.3,0-1.73.04-1.87.04-.12,0-.14-.02-.14-.16,0-.09.03-.67.03-2.1v-4.1c0-1.43-.03-2.01-.03-2.12,0-.12.02-.14.14-.14.14,0,.58.04,1.87.04h2.36c1.21,0,1.63-.04,1.71-.04.12,0,.14.02.14.14v.67Zm-3.4.1h-1.86v1.7h1.86v-1.7Zm0,2.5h-1.86v1.7h1.86v-1.7Zm0,2.5h-1.86v1.84h1.86v-1.84Zm-1.28,3.75c.17-.04.21-.05.23.07.19,1,.28,1.82.33,2.76.02.18,0,.21-.17.26l-.33.11q-.23.07-.23-.09c0-1.07-.09-1.91-.28-2.87-.02-.14,0-.14.21-.19l.25-.05Zm1.17-.14c.18-.07.19-.05.23.07.23.67.4,1.52.53,2.33.02.12,0,.17-.19.25l-.21.07c-.23.07-.23.1-.25-.05-.09-.86-.25-1.7-.47-2.4-.04-.12,0-.12.17-.19l.19-.07Zm1.07-.19c.16-.05.17-.05.23.05.28.56.52,1.24.61,1.75.02.1.02.14-.12.19l-.21.09c-.19.09-.23.09-.25-.04-.14-.63-.28-1.17-.59-1.79-.05-.12-.04-.12.14-.19l.19-.07Zm11.39,5c0,.14-.02.16-.14.16-.09,0-.63-.03-2.28-.03h-4.08c-1.66,0-2.21.03-2.29.03-.12,0-.14-.02-.14-.16v-.75c0-.12.02-.14.14-.14.09,0,.63.04,2.29.04h1.29v-4.71h-.59c-1.44,0-1.89.04-1.98.04-.12,0-.14-.02-.14-.14v-.77c0-.11.02-.12.14-.12.09,0,.54.04,1.98.04h.59v-3.83h-.93c-1.58,0-2.08.04-2.17.04-.12,0-.14-.02-.14-.14v-.75c0-.12.02-.14.14-.14.09,0,.59.04,2.17.04h3.33c1.58,0,2.08-.04,2.19-.04.12,0,.14.02.14.14v.75c0,.12-.02.14-.14.14-.1,0-.61-.04-2.19-.04h-1.33v3.83h.95c1.44,0,1.89-.04,2-.04.12,0,.14.02.14.12v.77c0,.12-.02.14-.14.14-.11,0-.56-.04-2-.04h-.95v4.71h1.71c1.65,0,2.19-.04,2.28-.04.12,0,.14.02.14.14v.75Zm-5.99-14.82q.16-.14.28-.07c.84.54,1.68,1.28,2.42,2.03.11.1.11.14-.07.31l-.47.47c-.14.14-.17.16-.26.05-.7-.86-1.56-1.56-2.42-2.14-.09-.07-.11-.09.07-.24l.46-.42Z" style="fill:gray;"/><path d="m941.19,99.74c0,.12-.02.14-.14.14-.11,0-.58-.04-2.12-.04h-.44v1.49h.16c1.33,0,1.79-.04,1.87-.04.12,0,.14.02.14.14,0,.09-.04.51-.04,1.64v2.38c0,1.14.04,1.56.04,1.64,0,.12-.02.14-.14.14-.09,0-.54-.04-1.87-.04h-.16v1.52h.4c1.54,0,2.03-.04,2.12-.04.12,0,.14.02.14.14v.67c0,.12-.02.14-.14.14-.09,0-.58-.04-2.12-.04h-.4c0,1.94.04,2.84.04,2.92,0,.12-.02.14-.14.14h-.72c-.12,0-.14-.02-.14-.14,0-.09.04-.98.04-2.92h-.61c-1.52,0-2.03.04-2.12.04-.12,0-.14-.02-.14-.14v-.67c0-.12.02-.14.14-.14.09,0,.59.04,2.12.04h.61v-1.52h-.11c-1.33,0-1.82.04-1.91.04-.12,0-.14-.02-.14-.14,0-.1.04-.51.04-1.64v-2.38c0-1.14-.04-1.56-.04-1.64,0-.12.02-.14.14-.14.09,0,.58.04,1.91.04h.11v-1.49h-.51c-1.5,0-2.01.04-2.1.04-.12,0-.14-.02-.14-.14v-.67c0-.12.02-.14.14-.14.09,0,.6.04,2.1.04h.51c0-1.02-.02-1.49-.12-2.05.42.02.7.04,1.03.09.14.02.21.07.21.16,0,.07-.05.17-.09.28-.05.17-.11.54-.11,1.49v.04h.44c1.54,0,2.01-.04,2.12-.04.12,0,.14.02.14.14v.67Zm-3.61,2.38h-1.28v1.7h1.28v-1.7Zm0,2.47h-1.28v1.84h1.28v-1.84Zm2.21-2.47h-1.31v1.7h1.31v-1.7Zm0,2.47h-1.31v1.84h1.31v-1.84Zm6.44-7.14c1.29,2.05,2.64,3.33,4.83,4.51-.23.21-.37.39-.49.63-.09.17-.14.26-.21.26s-.14-.05-.26-.14c-1.94-1.28-3.13-2.5-4.39-4.53-1.14,2.05-2.45,3.54-3.99,4.76-.12.09-.19.14-.25.14s-.1-.07-.21-.23c-.16-.21-.33-.37-.53-.49,1.75-1.24,3.19-2.84,4.13-4.64.17-.35.28-.61.37-.93.37.05.67.12,1.02.21.14.04.23.11.23.19,0,.07-.05.16-.16.21l-.09.04Zm1.33,6.81c1.59,0,2.13-.04,2.24-.04.12,0,.14.02.14.14,0,.09-.04.72-.04,2.08v2.28c0,.96.02,1.8.02,2.28,0,.58-.07.91-.37,1.14-.25.21-.61.28-1.28.28q-.33,0-.42-.32c-.07-.3-.16-.47-.26-.65.31.02.49.04.84.04.42,0,.56-.09.56-.54v-2.66h-1.63v1.7c0,1.31.04,1.85.04,1.94,0,.12-.02.14-.14.14h-.65c-.12,0-.14-.02-.14-.14,0-.11.04-.63.04-1.94v-1.7h-1.47v1.71c0,1.31.04,1.86.04,1.94,0,.12-.02.14-.14.14h-.65c-.12,0-.14-.02-.14-.14,0-.11.04-.63.04-1.94v-1.71h-1.44v2.17c0,1.35.04,1.89.04,1.98,0,.12-.02.14-.14.14h-.68c-.14,0-.16-.02-.16-.14,0-.09.03-.58.03-1.94v-4.13c0-1.38-.03-1.91-.03-2,0-.12.02-.14.16-.14.09,0,.61.04,2.21.04h3.4Zm-3.38.84h-1.44v2.35h1.44v-2.35Zm4.11-2.62c0,.12-.02.14-.14.14-.1,0-.42-.03-1.56-.03h-1.47c-1.14,0-1.45.03-1.54.03-.14,0-.16-.02-.16-.14v-.67c0-.12.02-.14.16-.14.09,0,.4.04,1.54.04h1.47c1.14,0,1.45-.04,1.56-.04.12,0,.14.02.14.14v.67Zm-1.79,2.62h-1.47v2.35h1.47v-2.35Zm2.49,0h-1.63v2.35h1.63v-2.35Z" style="fill:gray;"/><path d="m955.66,106.97c.65-.3,1.28-.63,1.91-1-.03.18-.03.42-.05.67q0,.37-.3.53c-1.08.61-2.43,1.24-3.59,1.71-.37.16-.58.25-.63.3-.07.07-.14.11-.23.11-.07,0-.12-.05-.19-.18-.14-.26-.26-.61-.35-.96.49-.09,1.02-.23,1.66-.46.25-.09.49-.17.73-.28v-4.8h-.47c-1.19,0-1.54.04-1.63.04-.12,0-.14-.02-.14-.14v-.74c0-.12.02-.14.14-.14.09,0,.44.04,1.63.04h.47v-2.05c0-1.24-.02-1.72-.12-2.4.46.02.82.05,1.14.09.12.02.21.07.21.16s-.05.18-.09.32c-.07.19-.1.63-.1,1.8v2.08h.12c1.19,0,1.54-.04,1.63-.04.11,0,.12.02.12.14v.74c0,.12-.02.14-.12.14-.09,0-.44-.04-1.63-.04h-.12v4.36Zm12.37-2.35c0,.12-.02.14-.14.14-.09,0-.68-.04-2.43-.04h-5.27c.26.07.47.16.65.21.12.05.17.12.17.19,0,.09-.05.14-.12.19-.1.07-.19.16-.31.35l-.26.38h4.81c1.54,0,2.06-.04,2.15-.04.14,0,.17.04.17.17l-.16,1.75c-.11,1.19-.23,2.17-.46,3.03-.26,1-.75,1.4-1.71,1.4-.4,0-.7,0-1.1-.04-.28-.02-.28-.04-.37-.38-.07-.26-.17-.51-.3-.72.68.12,1.19.14,1.68.14.4,0,.68-.14.84-.84.16-.67.35-1.8.47-3.62h-1.22c-.95,2.35-2.36,4.04-4.52,5.39-.12.09-.19.12-.26.12s-.14-.05-.28-.21c-.14-.16-.33-.32-.52-.4,2.21-1.24,3.69-2.75,4.55-4.9h-1.56c-1.16,1.91-2.49,3.17-4.31,4.29-.14.07-.21.12-.28.12s-.14-.07-.26-.21c-.14-.16-.33-.31-.51-.38,1.84-1.03,3.26-2.21,4.25-3.82h-1.75c-.77.95-1.73,1.82-2.77,2.49-.14.09-.21.14-.28.14s-.12-.07-.24-.21c-.16-.16-.37-.31-.56-.42,1.59-.88,2.78-2.03,3.62-3.24.21-.3.35-.63.44-.95h-.07c-1.75,0-2.33.04-2.43.04-.12,0-.14-.02-.14-.14v-.68c0-.12.02-.14.14-.14.11,0,.68.04,2.43.04h5.64c1.75,0,2.35-.04,2.43-.04.12,0,.14.02.14.14v.68Zm-1.87-3.48c0,1.05.04,1.42.04,1.5,0,.12-.02.14-.14.14-.1,0-.59-.04-2.08-.04h-2.85c-1.5,0-2,.04-2.08.04-.12,0-.14-.02-.14-.14,0-.1.04-.46.04-1.5v-1.89c0-1.05-.04-1.42-.04-1.52,0-.12.02-.14.14-.14.09,0,.58.04,2.08.04h2.85c1.49,0,1.98-.04,2.08-.04.12,0,.14.02.14.14,0,.11-.04.47-.04,1.52v1.89Zm-.98-2.7h-5.27v1.33h5.27v-1.33Zm0,2.12h-5.27v1.37h5.27v-1.37Z" style="fill:gray;"/><path d="m859.74,363.12c.21.05.21.07.19.21-.09,1.31-.21,2.49-.75,3.68-.05.12-.09.1-.28,0l-.33-.19c-.21-.12-.21-.18-.16-.3.44-.96.65-2.08.75-3.41.02-.16.04-.14.26-.07l.31.09Zm5.74-8.86c0,.12-.02.14-.14.14-.09,0-.51-.04-1.71-.04h-.63v1.7h.05c1.26,0,1.63-.04,1.71-.04.12,0,.14.02.14.14v.59c0,.12-.02.14-.14.14-.09,0-.46-.04-1.71-.04h-.05v1.7h.05c1.26,0,1.63-.03,1.71-.03.12,0,.14.02.14.14v.59c0,.12-.02.14-.14.14-.09,0-.46-.04-1.71-.04h-.05v1.84h.63c1.17,0,1.52-.04,1.63-.04s.16.04.14.16c-.02.33-.04.67-.05,1-.07,2.83-.37,4.43-.67,5.11-.3.61-.88.96-1.52.96-.3,0-.61-.02-.91-.03-.23-.02-.21-.02-.3-.37-.03-.25-.12-.49-.23-.7.54.07.98.11,1.28.11.4,0,.65-.19.82-.51.28-.49.51-2.03.58-4.87h-3.13c-1.3,0-1.73.04-1.87.04-.12,0-.14-.02-.14-.16,0-.09.03-.67.03-2.1v-4.1c0-1.43-.03-2.01-.03-2.12,0-.12.02-.14.14-.14.14,0,.58.04,1.87.04h2.36c1.21,0,1.63-.04,1.71-.04.12,0,.14.02.14.14v.67Zm-3.4.1h-1.86v1.7h1.86v-1.7Zm0,2.5h-1.86v1.7h1.86v-1.7Zm0,2.5h-1.86v1.84h1.86v-1.84Zm-1.28,3.75c.17-.04.21-.05.23.07.19,1,.28,1.82.33,2.76.02.18,0,.21-.17.26l-.33.11q-.23.07-.23-.09c0-1.07-.09-1.91-.28-2.87-.02-.14,0-.14.21-.19l.25-.05Zm1.17-.14c.18-.07.19-.05.23.07.23.67.4,1.52.53,2.33.02.12,0,.17-.19.25l-.21.07c-.23.07-.23.1-.25-.05-.09-.86-.25-1.7-.47-2.4-.04-.12,0-.12.17-.19l.19-.07Zm1.07-.19c.16-.05.17-.05.23.05.28.56.52,1.24.61,1.75.02.1.02.14-.12.19l-.21.09c-.19.09-.23.09-.25-.04-.14-.63-.28-1.17-.59-1.79-.05-.12-.04-.12.14-.19l.19-.07Zm11.39,5c0,.14-.02.16-.14.16-.09,0-.63-.03-2.28-.03h-4.08c-1.66,0-2.21.03-2.29.03-.12,0-.14-.02-.14-.16v-.75c0-.12.02-.14.14-.14.09,0,.63.04,2.29.04h1.29v-4.71h-.59c-1.44,0-1.89.04-1.98.04-.12,0-.14-.02-.14-.14v-.77c0-.11.02-.12.14-.12.09,0,.54.04,1.98.04h.59v-3.83h-.93c-1.58,0-2.08.04-2.17.04-.12,0-.14-.02-.14-.14v-.75c0-.12.02-.14.14-.14.09,0,.59.04,2.17.04h3.33c1.58,0,2.08-.04,2.19-.04.12,0,.14.02.14.14v.75c0,.12-.02.14-.14.14-.1,0-.61-.04-2.19-.04h-1.33v3.83h.95c1.44,0,1.89-.04,2-.04.12,0,.14.02.14.12v.77c0,.12-.02.14-.14.14-.11,0-.56-.04-2-.04h-.95v4.71h1.71c1.65,0,2.19-.04,2.28-.04.12,0,.14.02.14.14v.75Zm-5.99-14.82q.16-.14.28-.07c.84.54,1.68,1.28,2.42,2.03.11.1.11.14-.07.31l-.47.47c-.14.14-.17.16-.26.05-.7-.86-1.56-1.56-2.42-2.14-.09-.07-.11-.09.07-.24l.46-.42Z" style="fill:gray;"/><path d="m882.39,355.68c0,.12-.02.14-.14.14-.11,0-.58-.04-2.12-.04h-.44v1.49h.16c1.33,0,1.79-.04,1.87-.04.12,0,.14.02.14.14,0,.09-.04.51-.04,1.64v2.38c0,1.14.04,1.56.04,1.64,0,.12-.02.14-.14.14-.09,0-.54-.04-1.87-.04h-.16v1.52h.4c1.54,0,2.03-.04,2.12-.04.12,0,.14.02.14.14v.67c0,.12-.02.14-.14.14-.09,0-.58-.04-2.12-.04h-.4c0,1.94.04,2.84.04,2.92,0,.12-.02.14-.14.14h-.72c-.12,0-.14-.02-.14-.14,0-.09.04-.98.04-2.92h-.61c-1.52,0-2.03.04-2.12.04-.12,0-.14-.02-.14-.14v-.67c0-.12.02-.14.14-.14.09,0,.59.04,2.12.04h.61v-1.52h-.11c-1.33,0-1.82.04-1.91.04-.12,0-.14-.02-.14-.14,0-.1.04-.51.04-1.64v-2.38c0-1.14-.04-1.56-.04-1.64,0-.12.02-.14.14-.14.09,0,.58.04,1.91.04h.11v-1.49h-.51c-1.5,0-2.01.04-2.1.04-.12,0-.14-.02-.14-.14v-.67c0-.12.02-.14.14-.14.09,0,.6.04,2.1.04h.51c0-1.02-.02-1.49-.12-2.05.42.02.7.04,1.03.09.14.02.21.07.21.16,0,.07-.05.17-.09.28-.05.17-.11.54-.11,1.49v.04h.44c1.54,0,2.01-.04,2.12-.04.12,0,.14.02.14.14v.67Zm-3.61,2.38h-1.28v1.7h1.28v-1.7Zm0,2.47h-1.28v1.84h1.28v-1.84Zm2.21-2.47h-1.31v1.7h1.31v-1.7Zm0,2.47h-1.31v1.84h1.31v-1.84Zm6.44-7.14c1.29,2.05,2.64,3.33,4.83,4.51-.23.21-.37.39-.49.63-.09.17-.14.26-.21.26s-.14-.05-.26-.14c-1.94-1.28-3.13-2.5-4.39-4.53-1.14,2.05-2.45,3.54-3.99,4.76-.12.09-.19.14-.25.14s-.1-.07-.21-.23c-.16-.21-.33-.37-.53-.49,1.75-1.24,3.19-2.84,4.13-4.64.17-.35.28-.61.37-.93.37.05.67.12,1.02.21.14.04.23.11.23.19,0,.07-.05.16-.16.21l-.09.04Zm1.33,6.81c1.59,0,2.13-.04,2.24-.04.12,0,.14.02.14.14,0,.09-.04.72-.04,2.08v2.28c0,.96.02,1.8.02,2.28,0,.58-.07.91-.37,1.14-.25.21-.61.28-1.28.28q-.33,0-.42-.32c-.07-.3-.16-.47-.26-.65.31.02.49.04.84.04.42,0,.56-.09.56-.54v-2.66h-1.63v1.7c0,1.31.04,1.85.04,1.94,0,.12-.02.14-.14.14h-.65c-.12,0-.14-.02-.14-.14,0-.11.04-.63.04-1.94v-1.7h-1.47v1.71c0,1.31.04,1.86.04,1.94,0,.12-.02.14-.14.14h-.65c-.12,0-.14-.02-.14-.14,0-.11.04-.63.04-1.94v-1.71h-1.44v2.17c0,1.35.04,1.89.04,1.98,0,.12-.02.14-.14.14h-.68c-.14,0-.16-.02-.16-.14,0-.09.03-.58.03-1.94v-4.13c0-1.38-.03-1.91-.03-2,0-.12.02-.14.16-.14.09,0,.61.04,2.21.04h3.4Zm-3.38.84h-1.44v2.35h1.44v-2.35Zm4.11-2.62c0,.12-.02.14-.14.14-.1,0-.42-.03-1.56-.03h-1.47c-1.14,0-1.45.03-1.54.03-.14,0-.16-.02-.16-.14v-.67c0-.12.02-.14.16-.14.09,0,.4.04,1.54.04h1.47c1.14,0,1.45-.04,1.56-.04.12,0,.14.02.14.14v.67Zm-1.79,2.62h-1.47v2.35h1.47v-2.35Zm2.49,0h-1.63v2.35h1.63v-2.35Z" style="fill:gray;"/><path d="m896.86,362.91c.65-.3,1.28-.63,1.91-1-.03.18-.03.42-.05.67q0,.37-.3.53c-1.08.61-2.43,1.24-3.59,1.71-.37.16-.58.25-.63.3-.07.07-.14.11-.23.11-.07,0-.12-.05-.19-.18-.14-.26-.26-.61-.35-.96.49-.09,1.02-.23,1.66-.46.25-.09.49-.17.73-.28v-4.8h-.47c-1.19,0-1.54.04-1.63.04-.12,0-.14-.02-.14-.14v-.74c0-.12.02-.14.14-.14.09,0,.44.04,1.63.04h.47v-2.05c0-1.24-.02-1.72-.12-2.4.46.02.82.05,1.14.09.12.02.21.07.21.16s-.05.18-.09.32c-.07.19-.1.63-.1,1.8v2.08h.12c1.19,0,1.54-.04,1.63-.04.11,0,.12.02.12.14v.74c0,.12-.02.14-.12.14-.09,0-.44-.04-1.63-.04h-.12v4.36Zm12.37-2.35c0,.12-.02.14-.14.14-.09,0-.68-.04-2.43-.04h-5.27c.26.07.47.16.65.21.12.05.17.12.17.19,0,.09-.05.14-.12.19-.1.07-.19.16-.31.35l-.26.38h4.81c1.54,0,2.06-.04,2.15-.04.14,0,.17.04.17.17l-.16,1.75c-.11,1.19-.23,2.17-.46,3.03-.26,1-.75,1.4-1.71,1.4-.4,0-.7,0-1.1-.04-.28-.02-.28-.04-.37-.38-.07-.26-.17-.51-.3-.72.68.12,1.19.14,1.68.14.4,0,.68-.14.84-.84.16-.67.35-1.8.47-3.62h-1.22c-.95,2.35-2.36,4.04-4.52,5.39-.12.09-.19.12-.26.12s-.14-.05-.28-.21c-.14-.16-.33-.32-.52-.4,2.21-1.24,3.69-2.75,4.55-4.9h-1.56c-1.16,1.91-2.49,3.17-4.31,4.29-.14.07-.21.12-.28.12s-.14-.07-.26-.21c-.14-.16-.33-.31-.51-.38,1.84-1.03,3.26-2.21,4.25-3.82h-1.75c-.77.95-1.73,1.82-2.77,2.49-.14.09-.21.14-.28.14s-.12-.07-.24-.21c-.16-.16-.37-.31-.56-.42,1.59-.88,2.78-2.03,3.62-3.24.21-.3.35-.63.44-.95h-.07c-1.75,0-2.33.04-2.43.04-.12,0-.14-.02-.14-.14v-.68c0-.12.02-.14.14-.14.11,0,.68.04,2.43.04h5.64c1.75,0,2.35-.04,2.43-.04.12,0,.14.02.14.14v.68Zm-1.87-3.48c0,1.05.04,1.42.04,1.5,0,.12-.02.14-.14.14-.1,0-.59-.04-2.08-.04h-2.85c-1.5,0-2,.04-2.08.04-.12,0-.14-.02-.14-.14,0-.1.04-.46.04-1.5v-1.89c0-1.05-.04-1.42-.04-1.52,0-.12.02-.14.14-.14.09,0,.58.04,2.08.04h2.85c1.49,0,1.98-.04,2.08-.04.12,0,.14.02.14.14,0,.11-.04.47-.04,1.52v1.89Zm-.98-2.7h-5.27v1.33h5.27v-1.33Zm0,2.12h-5.27v1.37h5.27v-1.37Z" style="fill:gray;"/><line x1="35.84" y1="353.42" x2="38.99" y2="353.42" style="fill:none; stroke:#39b54a; stroke-miterlimit:10; stroke-width:4.41px;"/><polyline points="45.26 353.42 480.78 353.42 656.09 353.42" style="fill:none; stroke:#39b54a; stroke-dasharray:0 0 6.26 6.26; stroke-miterlimit:10; stroke-width:4.41px;"/><polyline points="659.22 353.42 662.37 353.42 662.37 350.27" style="fill:none; stroke:#39b54a; stroke-miterlimit:10; stroke-width:4.41px;"/><line x1="662.37" y1="344.12" x2="662.37" y2="113.24" style="fill:none; stroke:#39b54a; stroke-dasharray:0 0 6.16 6.16; stroke-miterlimit:10; stroke-width:4.41px;"/><polyline points="662.37 110.17 662.37 107.02 659.22 107.02" style="fill:none; stroke:#39b54a; stroke-miterlimit:10; stroke-width:4.41px;"/><polyline points="652.96 107.02 480.78 107.02 42.13 107.02" style="fill:none; stroke:#39b54a; stroke-dasharray:0 0 6.26 6.26; stroke-miterlimit:10; stroke-width:4.41px;"/><line x1="38.99" y1="107.02" x2="35.84" y2="107.02" style="fill:none; stroke:#39b54a; stroke-miterlimit:10; stroke-width:4.41px;"/><line x1="662.37" y1="107.02" x2="662.37" y2="103.87" style="fill:none; stroke:#39b54a; stroke-miterlimit:10; stroke-width:4.41px;"/><line x1="662.37" y1="99.77" x2="662.37" y2="93.62" style="fill:none; stroke:#39b54a; stroke-dasharray:0 0 4.1 4.1; stroke-miterlimit:10; stroke-width:4.41px;"/><polyline points="662.37 91.57 662.37 88.42 665.52 88.42" style="fill:none; stroke:#39b54a; stroke-miterlimit:10; stroke-width:4.41px;"/><line x1="671.79" y1="88.42" x2="869.42" y2="88.42" style="fill:none; stroke:#39b54a; stroke-dasharray:0 0 6.27 6.27; stroke-miterlimit:10; stroke-width:4.41px;"/><polyline points="872.56 88.42 875.71 88.42 875.71 85.27" style="fill:none; stroke:#39b54a; stroke-miterlimit:10; stroke-width:4.41px;"/><line x1="875.71" y1="79.43" x2="875.71" y2="12.32" style="fill:none; stroke:#39b54a; stroke-dasharray:0 0 5.84 5.84; stroke-miterlimit:10; stroke-width:4.41px;"/><line x1="875.71" y1="9.4" x2="875.71" y2="6.25" style="fill:none; stroke:#39b54a; stroke-miterlimit:10; stroke-width:4.41px;"/><polyline points="763.71 327.15 688.35 327.15 688.35 134.21 907.1 134.21" style="fill:none; stroke:#545454; stroke-miterlimit:10; stroke-width:.5px;"/><rect x="764.94" y="104.51" width="96.61" height="53.44" rx="3.86" ry="3.86" style="fill:#ed0030;"/><rect x="764.94" y="104.51" width="96.61" height="53.44" rx="3.86" ry="3.86" style="fill:none; stroke:#545454; stroke-linecap:round; stroke-linejoin:round; stroke-width:1.89px;"/><path d="m792.13,130.37c1.55-1.98,2.47-4.3,2.99-6.86.11-.67.24-1.25.26-1.87.75.11,1.42.26,2.04.43.28.06.43.17.43.3s-.04.21-.15.34c-.15.19-.3.62-.41,1.1-.17.58-.32,1.16-.52,1.72h3.63c2.02,0,2.71-.04,2.86-.04.21,0,.24.02.24.24v1.55c0,.21-.02.24-.24.24-.13,0-.56-.02-1.63-.04-.19,3.23-1.1,6.08-2.39,8.13,1.18,1.33,2.79,2.52,4.73,3.5-.37.39-.73.95-.99,1.5-.17.34-.26.49-.43.49-.13,0-.28-.06-.52-.21-1.72-1.1-3.03-2.34-4.08-3.59-1.25,1.38-2.92,2.73-5.2,3.76-.26.11-.43.17-.54.17-.15,0-.21-.11-.37-.37-.37-.65-.71-1.05-1.12-1.42,2.45-.86,4.54-2.32,5.91-3.89-.95-1.5-1.66-3.33-2.04-5.03-.28.47-.58.92-.9,1.38-.19.26-.3.37-.41.37s-.21-.13-.41-.41c-.24-.3-.49-.6-.73-.82,0,.32.02.52.02.58,0,.22-.02.24-.26.24h-1.68c-.22,0-.24-.02-.24-.24v-.84h-3.12v4.86c0,.49.02.82.19.95.28.21.9.26,1.44.26,1.14,0,1.79-.13,2.11-.49.32-.37.41-.95.47-2.58.41.26.9.47,1.42.6.67.19.69.19.62.84-.11,1.59-.43,2.34-1.05,2.9-.75.67-2,.82-3.91.82-1.38,0-2.43-.11-2.88-.54-.39-.34-.54-.77-.54-1.72v-5.42c0-1.42-.04-2.15-.04-2.28,0-.24.02-.26.26-.26.13,0,.71.04,1.93.04h3.1v-3.48h-3.22c-1.59,0-2.11.04-2.21.04-.21,0-.24-.02-.24-.26v-1.63c0-.21.02-.24.24-.24.11,0,.62.04,2.21.04h2.86c1.61,0,2.15-.04,2.28-.04.24,0,.26.02.26.24,0,.15-.04.71-.04,2.15v4.79Zm3.96-2.9c-.04.11-.06.22-.11.3.37,2.43.95,4.32,1.91,5.98.8-1.48,1.38-3.5,1.57-6.28h-3.38Z" style="fill:#fff;"/><path d="m809.63,124.73c0-1.4-.02-2.06-.17-3.05.79.02,1.59.09,2.3.15.21.02.32.11.32.21,0,.19-.06.32-.13.47-.13.26-.15.62-.15,2.17v1.27h.47c1.81,0,2.39-.04,2.52-.04.21,0,.24.02.24.24v1.61c0,.21-.02.24-.24.24-.13,0-.71-.04-2.52-.04h-.32c.71,1.61,1.98,3.33,3.31,4.54-.32.41-.6.97-.82,1.53-.09.24-.17.34-.26.34s-.17-.11-.34-.3c-.84-1.01-1.59-2.17-2.11-3.42.02,5.63.15,10.06.15,10.49,0,.21-.02.24-.24.24h-1.87c-.21,0-.24-.02-.24-.24,0-.45.11-4.77.15-10-.67,2-1.74,3.89-2.97,5.55-.15.19-.26.3-.34.3-.11,0-.17-.11-.26-.37-.19-.62-.49-1.33-.73-1.72,1.63-1.81,3.03-4.08,4.02-6.94h-.8c-1.81,0-2.41.04-2.54.04-.21,0-.24-.02-.24-.24v-1.61c0-.21.02-.24.24-.24.13,0,.73.04,2.54.04h1.01v-1.23Zm9.07,12.9c0,.6.06.8.34.92.19.09.69.15,1.38.15.88,0,1.44-.15,1.74-.45.34-.3.54-.9.62-3.33.43.3,1.12.6,1.68.75q.54.17.49.75c-.17,2.54-.52,3.2-1.16,3.76-.64.56-1.7.8-3.5.8-1.55,0-2.39-.09-2.92-.32-.56-.28-.97-.62-.97-2.04v-12.96c0-1.85-.04-2.88-.13-3.7.82.02,1.68.11,2.32.19.26.02.41.13.41.26,0,.17-.06.3-.13.45-.13.26-.17.73-.17,2.88v11.89Z" style="fill:#fff;"/><path d="m828.9,140.49c-.21,0-.24-.02-.24-.24,0-.15.04-1.27.04-7.07v-3.98c0-3.98-.04-5.16-.04-5.29,0-.24.02-.26.24-.26.15,0,.88.04,2.97.04h9.76c2.08,0,2.82-.04,2.95-.04.24,0,.26.02.26.26,0,.13-.04,1.29-.04,4.73v4.54c0,5.74.04,6.88.04,7.01,0,.21-.02.24-.26.24h-1.94c-.21,0-.24-.02-.24-.24v-1.61h-11.31v1.68c0,.21-.02.24-.26.24h-1.94Zm2.19-4.11h11.31v-10.49h-11.31v10.49Z" style="fill:#fff;"/><polyline points="766.98 129.57 748.66 114.71 766.98 138.22" style="fill:#ed0030; stroke:#545454; stroke-linecap:round; stroke-linejoin:round; stroke-width:1.89px;"/><rect x="784.9" y="421.74" width="165.46" height="62.44" rx="3.86" ry="3.86" style="fill:#ed0030;"/><rect x="784.9" y="421.74" width="165.46" height="62.44" rx="3.86" ry="3.86" style="fill:none; stroke:#545454; stroke-linecap:round; stroke-linejoin:round; stroke-width:1.89px;"/><path d="m819.34,450.96h-2.92v-16.68h2.92v16.68Z" style="fill:#fff;"/><path d="m832.94,439.74c-.41-2.32-1.61-3.53-3.5-3.53-2.47,0-4.19,2.15-4.19,6.41s1.76,6.41,4.19,6.41c2,0,3.2-1.14,3.68-3.57l2.73.84c-.88,3.44-3.03,4.97-6.43,4.97-4.32,0-7.25-3.12-7.25-8.62s2.95-8.67,7.25-8.67c3.42,0,5.65,1.91,6.34,5.07l-2.82.69Z" style="fill:#fff;"/><path d="m850.01,446.08c-.02-.34-.06-.6-.13-.97.79.02,1.61.04,2.26.15.19.02.3.13.3.24s-.04.19-.11.32c-.04.09-.06.15-.09.26h1.78c1.91,0,2.56-.04,2.69-.04.21,0,.21.02.21.24v1.42c0,.24,0,.26-.21.26-.13,0-.77-.04-2.69-.04h-1.78v.3c0,.86.02,1.53.02,2.28,0,.82-.26,1.31-.8,1.59-.45.24-1.14.39-2.9.39-.65,0-.67,0-.8-.49-.15-.69-.39-1.29-.6-1.61.77.06,1.53.09,1.96.09.62,0,.88-.19.88-.69v-1.85h-9.33c-1.91,0-2.56.04-2.69.04-.21,0-.21-.02-.21-.26v-1.42c0-.21,0-.24.21-.24.13,0,.77.04,2.69.04h9.33Zm-6.45-1.31c-2.11,0-2.86.04-2.99.04-.24,0-.26-.02-.26-.24,0-.15.04-.69.04-1.93v-2.84c0-1.31-.04-1.85-.04-2,0-.21.02-.24.26-.24.13,0,.88.04,2.99.04h2.54v-1.12h-5.1c-1.93,0-2.6.04-2.73.04-.21,0-.24-.02-.24-.24v-1.4c0-.24.02-.26.24-.26.13,0,.8.04,2.73.04h5.1c-.02-.77-.04-1.29-.13-1.83.75.02,1.48.06,2.21.15.19.02.28.09.28.21,0,.17-.06.28-.11.43-.06.15-.11.41-.11,1.03h5.46c1.96,0,2.62-.04,2.75-.04.21,0,.24.02.24.26v1.4c0,.21-.02.24-.24.24-.13,0-.8-.04-2.75-.04h-5.46v1.12h2.88c2.11,0,2.86-.04,3.01-.04.21,0,.24.02.24.24,0,.13-.04.69-.04,1.94v2.9c0,1.25.04,1.81.04,1.93,0,.21-.02.24-.24.24-.15,0-.9-.04-3.01-.04h-7.57Zm-.06,3.38c.26-.13.3-.11.47.04.71.69,1.44,1.53,2,2.36.13.19.09.26-.17.39l-1.5.79c-.26.15-.3.17-.43-.04-.56-.95-1.23-1.78-1.91-2.47-.17-.19-.13-.26.11-.39l1.44-.69Zm2.6-7.72v-1.25h-3.63v1.25h3.63Zm0,2.79v-1.29h-3.63v1.29h3.63Zm2.15-4.04v1.25h3.96v-1.25h-3.96Zm3.96,2.75h-3.96v1.29h3.96v-1.29Z" style="fill:#fff;"/><path d="m876.75,447.16c0,.99.04,2.09.04,2.97,0,.8-.21,1.33-.71,1.74-.41.37-1.05.56-2.84.56q-.67,0-.79-.62c-.15-.69-.34-1.18-.6-1.63.88.06,1.29.09,2,.09.49,0,.69-.21.69-.71v-3.57h-5.05v2.56c0,2.09.04,3.05.04,3.18,0,.21-.02.24-.24.24h-1.85c-.21,0-.24-.02-.24-.24,0-.15.04-1.1.04-3.18v-2.56h-4.9c-.3,2.67-.88,4.32-1.87,5.96-.17.3-.28.43-.39.43s-.22-.11-.45-.34c-.52-.52-1.01-.84-1.53-1.1,1.57-2.02,2.21-4.58,2.21-9.76v-3.53c0-2.24-.04-3.4-.04-3.53,0-.24.02-.26.26-.26.13,0,.88.04,2.95.04h10.1c2.09,0,2.82-.04,2.97-.04.21,0,.24.02.24.26,0,.13-.04,1.29-.04,3.53v9.52Zm-9.5-3.18v-3.03h-4.69v.24c0,1.03-.02,1.96-.06,2.79h4.75Zm0-5.03v-2.99h-4.69v2.99h4.69Zm2.24-2.99v2.99h5.05v-2.99h-5.05Zm5.05,8.02v-3.03h-5.05v3.03h5.05Z" style="fill:#fff;"/><path d="m894.21,438.04c0-1.22-.02-1.89-.11-2.73.8.02,1.48.06,2.24.15.21.02.34.11.34.24,0,.15-.06.3-.11.43-.11.28-.15.69-.15,2.11v3.03c0,1.29.04,1.91.04,2.04,0,.24-.02.26-.22.26h-1.78c-.24,0-.26-.02-.26-.26v-.79h-4.41v6.62h5.1v-1.63c0-1.25-.02-1.89-.13-2.73.82.02,1.53.06,2.26.15.19.02.32.13.32.24,0,.15-.06.3-.11.43-.11.28-.15.69-.15,2.11v2.6c0,1.2.04,1.76.04,1.89,0,.19-.02.21-.24.21h-1.76c-.21,0-.24-.02-.24-.21v-.99h-12.23v1.1c0,.19-.02.21-.24.21h-1.76c-.24,0-.26-.02-.26-.21,0-.15.04-.69.04-1.89v-2.84c0-1.23-.02-1.87-.13-2.71.82.02,1.53.06,2.26.15.21.02.37.11.37.24,0,.15-.09.3-.13.43-.11.26-.15.69-.15,1.87v1.59h4.84v-6.62h-4.15v.88c0,.21-.02.24-.24.24h-1.78c-.22,0-.24-.02-.24-.24,0-.15.04-.75.04-2.04v-3.23c0-1.25-.02-1.89-.13-2.75.82.02,1.53.07,2.26.15.21.02.32.13.32.26,0,.15-.06.26-.11.43-.11.26-.13.69-.13,1.89v2.34h4.15v-4.71c0-1.27-.04-1.94-.15-2.77.82.02,1.61.09,2.37.17.19.02.32.09.32.21,0,.15-.06.26-.13.43-.09.28-.11.58-.11,1.98v4.69h4.41v-2.41Z" style="fill:#fff;"/><path d="m901.24,451.74c-.21,0-.24-.02-.24-.24,0-.15.04-1.27.04-7.07v-3.98c0-3.98-.04-5.16-.04-5.29,0-.24.02-.26.24-.26.15,0,.88.04,2.97.04h9.76c2.09,0,2.82-.04,2.95-.04.24,0,.26.02.26.26,0,.13-.04,1.29-.04,4.73v4.54c0,5.74.04,6.88.04,7.01,0,.21-.02.24-.26.24h-1.93c-.21,0-.24-.02-.24-.24v-1.61h-11.31v1.68c0,.21-.02.24-.26.24h-1.93Zm2.19-4.11h11.31v-10.49h-11.31v10.49Z" style="fill:#fff;"/><path d="m797.96,468.96c-1.54,0-2.08.04-2.19.04-.18,0-.19-.02-.19-.19v-1.44c0-.17.02-.19.19-.19.1,0,.65.04,2.19.04h4.39v-5.85h-3.45c-1.66,0-2.24.03-2.35.03-.17,0-.19-.02-.19-.21v-1.4c0-.19.02-.21.19-.21.11,0,.68.04,2.35.04h9.03c1.66,0,2.24-.04,2.35-.04.17,0,.19.02.19.21v1.4c0,.19-.02.21-.19.21-.11,0-.68-.03-2.35-.03h-3.67v5.85h4.53c1.56,0,2.08-.04,2.21-.04.17,0,.19.02.19.19v1.44c0,.17-.02.19-.19.19-.12,0-.65-.04-2.21-.04h-4.53v3.78c0,1.17.02,1.73.02,1.84,0,.17-.02.19-.18.19h-1.59c-.18,0-.19-.02-.19-.19,0-.12.04-.67.04-1.84v-3.78h-4.39Zm.68-6.95c.19-.11.23-.07.33.09.74,1.05,1.44,2.38,1.91,3.66.05.16.05.19-.14.3l-1.19.52c-.23.11-.26.11-.33-.09-.46-1.28-1-2.42-1.79-3.66-.1-.14-.07-.16.16-.28l1.05-.54Zm8.72.89c.14-.28.26-.63.33-.98.54.17,1.14.44,1.59.7.16.09.21.16.21.25s-.03.16-.16.26c-.14.1-.28.3-.4.56-.47.93-1,1.8-1.61,2.68-.17.25-.25.35-.37.35-.09,0-.21-.07-.42-.21-.37-.23-.65-.4-1.03-.53.77-1,1.35-2,1.86-3.08Z" style="fill:#fff;"/><path d="m814.24,474.5c-.17,0-.19-.02-.19-.19,0-.12.04-1.16.04-6.23v-3.38c0-3.4-.04-4.46-.04-4.57,0-.19.02-.21.19-.21.12,0,.72.04,2.42.04h6c1.7,0,2.31-.04,2.42-.04.17,0,.19.02.19.21,0,.11-.04,1.17-.04,4.04v3.89c0,5.02.04,6.06.04,6.16,0,.18-.02.19-.19.19h-1.56c-.17,0-.19-.02-.19-.19v-.86h-7.33v.95c0,.17-.02.19-.19.19h-1.56Zm1.75-8.82h7.33v-3.99h-7.33v3.99Zm7.33,5.95v-4.24h-7.33v4.24h7.33Z" style="fill:#fff;"/><path d="m831.5,470.72v-1.28h-.49c-1.3,0-1.72.04-1.84.04-.17,0-.19-.02-.19-.18,0-.12.03-.58.03-1.63v-2.54c0-1.03-.03-1.49-.03-1.61,0-.17.02-.19.19-.19.12,0,.52.04,1.82.04h.51v-1.26h-.91c-1.47,0-1.96.04-2.06.04-.19,0-.21-.02-.21-.19v-1.12c0-.17.02-.19.21-.19.1,0,.59.04,2.06.04h.91c0-.86-.03-1.35-.1-1.93.67.02,1.24.05,1.75.12.16.03.25.09.25.19,0,.09-.04.17-.09.3-.07.14-.1.37-.1,1v.32h.86c1.47,0,1.96-.04,2.07-.04.19,0,.21.02.21.19v1.12c0,.17-.02.19-.21.19-.11,0-.6-.04-2.07-.04h-.86v1.26h.44c1.28,0,1.71-.04,1.84-.04.17,0,.19.02.19.19,0,.11-.04.58-.04,1.61v2.54c0,1.05.04,1.5.04,1.63,0,.16-.02.18-.19.18-.12,0-.56-.04-1.84-.04h-.44v1.28h.42c1.47,0,1.98-.04,2.08-.04.17,0,.19.02.19.19v1.12c0,.19-.02.21-.19.21-.11,0-.61-.04-2.08-.04h-.42v.04c0,1.58.04,2.35.04,2.43,0,.18-.02.19-.18.19h-1.38c-.19,0-.21-.02-.21-.19,0-.12.03-.88.03-2.47h-1.07c-1.47,0-1.98.04-2.08.04-.17,0-.19-.02-.19-.21v-1.12c0-.17.02-.19.19-.19.11,0,.61.04,2.08.04h1.07Zm-.91-4.95h3.48v-1.07h-3.48v1.07Zm3.48,1.28h-3.48v1.07h3.48v-1.07Zm9.21,3.33c0,.79.04,1.7.04,2.42,0,.67-.14,1.12-.49,1.42-.37.32-.82.46-2.17.46q-.54,0-.65-.52c-.1-.47-.3-.95-.49-1.26.54.04.89.05,1.43.05.44,0,.61-.14.61-.56v-3.15h-2.89c-.3,2.45-.94,3.85-2.19,5.27-.19.21-.28.32-.38.32-.09,0-.19-.09-.38-.28-.33-.33-.7-.58-1.07-.75,2.07-2.06,2.5-3.59,2.5-8.84v-2.54c0-1.7-.04-2.57-.04-2.7,0-.17.02-.19.19-.19.11,0,.54.04,1.82.04h2.17c1.28,0,1.7-.04,1.82-.04.17,0,.19.02.19.19,0,.1-.04,1-.04,2.7v7.98Zm-1.72-2.73v-2.49h-2.7c0,.93-.03,1.75-.07,2.49h2.76Zm-2.7-6.48v2.42h2.7v-2.42h-2.7Z" style="fill:#fff;"/><path d="m853.51,461.64c-2.22,3.59-3.31,7.09-3.62,11.8h-2.47c.38-4.67,1.84-8.14,3.97-11.57h-6v-1.79h8.12v1.56Z" style="fill:#fff;"/><path d="m860.38,463.08c0,.86-.67,1.5-1.5,1.5s-1.49-.65-1.49-1.5c0-.81.63-1.49,1.49-1.49s1.5.68,1.5,1.49Zm0,7.4c0,.86-.67,1.5-1.5,1.5s-1.49-.65-1.49-1.5c0-.8.63-1.49,1.49-1.49s1.5.68,1.5,1.49Z" style="fill:#fff;"/><path d="m864.13,462.74c.51-1.89,2.01-2.89,4.04-2.89,2.43,0,4.01,1.42,4.01,3.36,0,1.58-.95,2.73-2.56,3.01v.12c1.8.39,2.82,1.59,2.82,3.36,0,2.36-1.72,3.97-4.27,3.97-2.21,0-3.66-.89-4.25-2.96l2.15-.63c.3,1.35.93,1.89,2.08,1.89,1.26,0,2.05-.84,2.05-2.26,0-1.52-.72-2.42-2.59-2.42h-1.01v-1.79h.93c1.75,0,2.45-.75,2.45-2.1,0-1.23-.72-1.87-1.84-1.87-.93,0-1.68.58-1.86,1.84l-2.15-.65Z" style="fill:#fff;"/><path d="m882.56,466.72c0,4.95-1.5,6.97-4.24,6.97s-4.18-1.98-4.18-6.93,1.52-6.9,4.22-6.9,4.2,1.93,4.2,6.86Zm-6.16.02c0,3.94.54,5.21,1.92,5.21s1.98-1.29,1.98-5.21-.54-5.15-1.94-5.15-1.96,1.19-1.96,5.15Z" style="fill:#fff;"/><path d="m884.32,467.28c1.42-1.63,2.68-2.42,4.13-2.42,1.05,0,2.05.3,3.55,1.1,1.82.96,2.73,1.33,3.69,1.33,1.1,0,1.96-.31,3.26-1.68l.7.73c-1.36,1.73-2.7,2.49-4.17,2.49-1,0-2-.28-3.55-1.14-1.77-.96-2.68-1.33-3.69-1.33-1.07,0-1.87.32-3.2,1.63l-.72-.72Z" style="fill:#fff;"/><path d="m903.78,470.72c.25.89.67,1.28,1.4,1.28,1.49,0,2.35-1.26,2.43-4.76-.58,1.08-1.5,1.59-2.73,1.59-2.03,0-3.55-1.66-3.55-4.3,0-2.89,1.58-4.67,4.03-4.67,2.64,0,4.34,1.91,4.34,6.41,0,5.34-1.68,7.42-4.55,7.42-1.82,0-2.98-.72-3.52-2.15l2.15-.8Zm1.66-9.19c-1.29,0-1.89,1.12-1.89,2.94,0,1.7.72,2.68,1.84,2.68.96,0,1.65-.59,2.12-1.68-.02-2.61-.63-3.94-2.07-3.94Z" style="fill:#fff;"/><path d="m916.44,463.08c0,.86-.67,1.5-1.5,1.5s-1.49-.65-1.49-1.5c0-.81.63-1.49,1.49-1.49s1.5.68,1.5,1.49Zm0,7.4c0,.86-.67,1.5-1.5,1.5s-1.49-.65-1.49-1.5c0-.8.63-1.49,1.49-1.49s1.5.68,1.5,1.49Z" style="fill:#fff;"/><path d="m928.55,466.72c0,4.95-1.51,6.97-4.24,6.97s-4.18-1.98-4.18-6.93,1.52-6.9,4.22-6.9,4.2,1.93,4.2,6.86Zm-6.16.02c0,3.94.54,5.21,1.92,5.21s1.98-1.29,1.98-5.21-.54-5.15-1.94-5.15-1.96,1.19-1.96,5.15Z" style="fill:#fff;"/><path d="m938.82,466.72c0,4.95-1.51,6.97-4.24,6.97s-4.18-1.98-4.18-6.93,1.52-6.9,4.22-6.9,4.2,1.93,4.2,6.86Zm-6.16.02c0,3.94.54,5.21,1.92,5.21s1.98-1.29,1.98-5.21-.54-5.15-1.94-5.15-1.96,1.19-1.96,5.15Z" style="fill:#fff;"/><polyline points="786.94 446.8 745.15 429.23 786.94 455.45" style="fill:#ed0030; stroke:#545454; stroke-linecap:round; stroke-linejoin:round; stroke-width:1.89px;"/><polyline points="662.37 353.42 662.37 402.84 772.57 402.84" style="fill:none; stroke:#39b54a; stroke-dasharray:0 0 6.3 6.3; stroke-miterlimit:10; stroke-width:4.41px;"/></g></svg>