<?xml version="1.0" encoding="UTF-8"?><svg id="_レイヤー_2" xmlns="http://www.w3.org/2000/svg" width="1079.05" height="526.33" xmlns:xlink="http://www.w3.org/1999/xlink" viewBox="0 0 1079.05 526.33"><defs><pattern id="_新規パターンスウォッチ_2" x="0" y="0" width="72" height="72" patternTransform="translate(-10170.97 -13367.23) rotate(-161) scale(.63)" patternUnits="userSpaceOnUse" viewBox="0 0 72 72"><rect width="72" height="72" style="fill:none;"/><line x1="71.75" y1="66" x2="144.25" y2="66" style="fill:none; stroke:#4d4948; stroke-width:1.5px;"/><line x1="71.75" y1="42" x2="144.25" y2="42" style="fill:none; stroke:#4d4948; stroke-width:1.5px;"/><line x1="71.75" y1="18" x2="144.25" y2="18" style="fill:none; stroke:#4d4948; stroke-width:1.5px;"/><line x1="71.75" y1="54" x2="144.25" y2="54" style="fill:none; stroke:#4d4948; stroke-width:1.5px;"/><line x1="71.75" y1="30" x2="144.25" y2="30" style="fill:none; stroke:#4d4948; stroke-width:1.5px;"/><line x1="71.75" y1="6" x2="144.25" y2="6" style="fill:none; stroke:#4d4948; stroke-width:1.5px;"/><line x1="-.25" y1="66" x2="72.25" y2="66" style="fill:none; stroke:#4d4948; stroke-width:1.5px;"/><line x1="-.25" y1="42" x2="72.25" y2="42" style="fill:none; stroke:#4d4948; stroke-width:1.5px;"/><line x1="-.25" y1="18" x2="72.25" y2="18" style="fill:none; stroke:#4d4948; stroke-width:1.5px;"/><line x1="-.25" y1="54" x2="72.25" y2="54" style="fill:none; stroke:#4d4948; stroke-width:1.5px;"/><line x1="-.25" y1="30" x2="72.25" y2="30" style="fill:none; stroke:#4d4948; stroke-width:1.5px;"/><line x1="-.25" y1="6" x2="72.25" y2="6" style="fill:none; stroke:#4d4948; stroke-width:1.5px;"/><line x1="-72.25" y1="66" x2=".25" y2="66" style="fill:none; stroke:#4d4948; stroke-width:1.5px;"/><line x1="-72.25" y1="42" x2=".25" y2="42" style="fill:none; stroke:#4d4948; stroke-width:1.5px;"/><line x1="-72.25" y1="18" x2=".25" y2="18" style="fill:none; stroke:#4d4948; stroke-width:1.5px;"/><line x1="-72.25" y1="54" x2=".25" y2="54" style="fill:none; stroke:#4d4948; stroke-width:1.5px;"/><line x1="-72.25" y1="30" x2=".25" y2="30" style="fill:none; stroke:#4d4948; stroke-width:1.5px;"/><line x1="-72.25" y1="6" x2=".25" y2="6" style="fill:none; stroke:#4d4948; stroke-width:1.5px;"/></pattern></defs><g id="_レイヤー_2-2"><path d="m554.21,289.88v-86.66h523.49v-86.66c0,.67-819.09,0-819.09,0l-75.75-26.36,21.4-58.72H3.14v431.15h44l92.58-254.05-84.78,227.18,71.25,26.11h427.34v-85.18h525.51v-86.8h-524.83Z" style="fill:#f2f2f2;"/><polygon points="485.96 114.55 485.96 29.91 345.62 29.91 288.52 29.91 257.81 114.55 345.62 114.55 485.96 114.55" style="fill:#f2f2f2;"/><path d="m1074.81,112.7v86.63h-523.49v86.66h524.83v86.8H259.08l-126.85,85.18-76.91-29.63L179.97,86.31l75.75,26.36s819.09.71,819.09.04Z" style="fill:#fff; stroke:#545454; stroke-miterlimit:10; stroke-width:.5px;"/><polygon points=".25 27.59 201.37 27.59 44.25 458.74 .25 458.74 .25 27.59" style="fill:#e6e6e6; stroke:#545454; stroke-miterlimit:10; stroke-width:.5px;"/><rect x="306.54" y="112.7" width="167.51" height="260.09" style="fill:#e3f2f7;"/><polygon points="1076.16 285.99 551.32 285.99 551.32 199.33 1074.81 199.33 1074.81 112.7 484.41 112.7 474.05 112.7 474.05 372.79 1076.16 372.79 1076.16 285.99" style="fill:#dbf1de;"/><polygon points="1076.16 285.99 551.32 285.99 551.32 199.33 1074.81 199.33 1074.81 112.7 484.41 112.7 306.54 112.7 306.54 372.79 1076.16 372.79 1076.16 285.99" style="fill:none; stroke:#545454; stroke-miterlimit:10; stroke-width:.5px;"/><path d="m255.72,112.66l-75.75-26.36L55.32,428.35l76.91,29.63,126.85-85.18h47.71V112.7c-32.31-.02-51.07-.04-51.07-.04Z" style="fill:#e6e6e6;"/><path d="m306.54,112.7c-32.05-.02-50.82-.04-50.82-.04l-75.75-26.36L55.32,428.35l76.91,29.63,126.85-85.18h47.46" style="fill:none; stroke:#545454; stroke-miterlimit:10; stroke-width:.5px;"/><rect x="410.91" y="372.79" width="139.74" height="85.18" style="fill:#fff; stroke:#545454; stroke-miterlimit:10; stroke-width:.5px;"/><polygon points=".25 271.88 .25 371.98 75.86 371.98 179.97 86.28 87.77 49.51 .25 271.88" style="fill:#e6e6e6; stroke:#545454; stroke-miterlimit:10; stroke-width:.5px;"/><polygon points="188.98 61.61 180.02 86.32 255.72 112.66 264.96 87.71 188.98 61.61" style="fill:url(#_新規パターンスウォッチ_2);"/><polygon points="189.05 61.61 179.97 86.31 186.94 88.83 195.69 64 189.05 61.61" style="fill:#4d4948;"/><polygon points="258.38 85.39 249.35 110.42 255.92 112.68 264.96 87.71 258.38 85.39" style="fill:#4d4948;"/><polygon points="286.63 28.02 255.92 112.66 343.73 112.66 343.73 28.02 286.63 28.02" style="fill:#e6e6e6; stroke:#545454; stroke-miterlimit:10; stroke-width:.5px;"/><rect x="343.73" y="28.02" width="138.39" height="84.65" style="fill:#67d4ff; stroke:#545454; stroke-miterlimit:10; stroke-width:.5px;"/><line x1="578.28" y1="413.05" x2="1073.55" y2="413.05" style="fill:none; stroke:#4d4948; stroke-miterlimit:10; stroke-width:7.56px;"/><line x1="578.28" y1="413.05" x2="1073.55" y2="413.05" style="fill:none; stroke:#fff; stroke-miterlimit:10; stroke-width:5.04px;"/><line x1="578.28" y1="413.05" x2="1073.55" y2="413.05" style="fill:none; stroke:#4d4948; stroke-dasharray:0 0 25.2 25.2; stroke-miterlimit:10; stroke-width:5.04px;"/><line x1="578.28" y1="241.06" x2="1073.55" y2="241.06" style="fill:none; stroke:#4d4948; stroke-miterlimit:10; stroke-width:7.56px;"/><line x1="578.28" y1="241.06" x2="1073.55" y2="241.06" style="fill:none; stroke:#fff; stroke-miterlimit:10; stroke-width:5.04px;"/><line x1="578.28" y1="241.06" x2="1073.55" y2="241.06" style="fill:none; stroke:#4d4948; stroke-dasharray:0 0 25.2 25.2; stroke-miterlimit:10; stroke-width:5.04px;"/><line x1="578.28" y1="69.08" x2="1073.55" y2="69.08" style="fill:none; stroke:#4d4948; stroke-miterlimit:10; stroke-width:7.56px;"/><line x1="578.28" y1="69.08" x2="1073.55" y2="69.08" style="fill:none; stroke:#fff; stroke-miterlimit:10; stroke-width:5.04px;"/><line x1="578.28" y1="69.08" x2="1073.55" y2="69.08" style="fill:none; stroke:#4d4948; stroke-dasharray:0 0 25.2 25.2; stroke-miterlimit:10; stroke-width:5.04px;"/><rect x="276.63" y="151.71" width="55.09" height="16.8" style="fill:#ffffc8; stroke:#545454; stroke-miterlimit:10; stroke-width:.5px;"/><rect x="276.63" y="183.96" width="55.09" height="16.8" style="fill:#ffffc8; stroke:#545454; stroke-miterlimit:10; stroke-width:.5px;"/><rect x="276.63" y="216.21" width="55.09" height="16.8" style="fill:#ffffc8; stroke:#545454; stroke-miterlimit:10; stroke-width:.5px;"/><rect x="276.63" y="248.45" width="55.09" height="16.8" style="fill:#ffffc8; stroke:#545454; stroke-miterlimit:10; stroke-width:.5px;"/><rect x="389.64" y="40.01" width="44.18" height="44.18" rx="3.52" ry="3.52" style="fill:none; stroke:#0094e2; stroke-linecap:round; stroke-linejoin:round; stroke-width:3.52px;"/><rect x="388.58" y="38.96" width="44.18" height="44.18" rx="3.52" ry="3.52" style="fill:#fff;"/><rect x="388.58" y="38.96" width="44.18" height="44.18" rx="3.52" ry="3.52" style="fill:none; stroke:#0094e2; stroke-linecap:round; stroke-linejoin:round; stroke-width:1.76px;"/><polygon points="406.16 77.19 401.35 77.19 398.51 54.07 409 54.07 406.16 77.19" style="fill:#0094e2;"/><polygon points="415.19 54.07 420 54.07 422.84 77.19 412.35 77.19 415.19 54.07" style="fill:#ec0e8d;"/><circle cx="403.75" cy="48.83" r="3.93" style="fill:#0094e2;"/><circle cx="417.6" cy="48.83" r="3.93" style="fill:#ec0e8d;"/><rect x="288.54" y="40.01" width="44.18" height="44.18" rx="3.52" ry="3.52" style="fill:none; stroke:#0094e2; stroke-linecap:round; stroke-linejoin:round; stroke-width:3.52px;"/><rect x="287.48" y="38.96" width="44.18" height="44.18" rx="3.52" ry="3.52" style="fill:#fff;"/><rect x="287.48" y="38.96" width="44.18" height="44.18" rx="3.52" ry="3.52" style="fill:none; stroke:#0094e2; stroke-linecap:round; stroke-linejoin:round; stroke-width:1.76px;"/><path d="m303.86,50.02c0,.64-.52,1.16-1.16,1.16s-1.16-.52-1.16-1.16.52-1.16,1.16-1.16,1.16.52,1.16,1.16Zm15.11.09c-.26-.26-.97-.71-1.7-1.36s-.97-.22-1.34.09-.45.28-.97-.17c-.52-.45-.84-.17-1.25.19-.41.37-.54.35-.82.11-.23-.2-.34-.31-.65-.65-.39-.43-.94-.48-1.38-.48h-1.05c-.82-1.76-2.61-2.98-4.67-2.98-2.85,0-5.16,2.31-5.16,5.16s2.31,5.16,5.16,5.16c2.32,0,4.29-1.54,4.94-3.65h8.13c.41,0,.56-.37.82-.65.26-.28.22-.52-.04-.78Z" style="fill:#0094e2;"/><rect x="295.89" y="57.53" width="27.37" height="19.71" rx="1.22" ry="1.22" style="fill:#0094e2;"/><rect x="306.84" y="64.37" width="5.87" height="9.94" style="fill:#fff;"/><path d="m302.88,64.37c-.38,0-.68.31-.68.68v8.57c0,.38.31.68.68.68h2.58v-9.94h-2.58Z" style="fill:#fff;"/><path d="m316.28,64.37h-2.18v9.94h2.18c.38,0,.68-.31.68-.68v-8.57c0-.38-.31-.68-.68-.68Z" style="fill:#fff;"/><path d="m306.93,63.47h.49c.25,0,.46-.2.46-.46v-.68c0-.28.37-.55.75-.55h1.77c.37,0,.75.19.75.55v.68c0,.25.2.46.46.46h.49c.25,0,.46-.2.46-.44v-.74c0-.92-.93-1.83-1.87-1.83h-2.33c-.95,0-1.87.9-1.87,1.83v.74c0,.25.2.44.46.44Z" style="fill:#fff;"/><polygon points="132.24 457.98 410.91 457.98 410.91 292.82 190.06 292.82 132.24 457.98" style="fill:#fff; stroke:#545454; stroke-miterlimit:10; stroke-width:.5px;"/><path d="m924.02,14.21c-.37-.44-1.26-1.3-2-1.96v4.45h-1.26v-4.6c-.86,1.35-1.94,2.61-2.92,3.38-.21-.3-.6-.72-.88-.94,1.26-.82,2.64-2.4,3.52-3.94h-3.13v-1.1h3.41v-1.84h-3.47v-1.1h8.12v1.1h-3.4v1.84h3.25v1.1h-3.25v.42c.67.49,2.36,1.87,2.77,2.24l-.77.96Zm1.19-10.54h-7.67v-1.09h3.22V.82h1.26v1.77h3.19v1.09Zm-5.93,2.85c-.07-.68-.35-1.73-.68-2.52l1.02-.26c.37.79.67,1.82.75,2.49l-1.08.3Zm2.87-.28c.32-.7.72-1.79.88-2.54l1.19.28c-.33.88-.68,1.85-1.01,2.49l-1.05-.23Zm10.99,1.59h-1.96v8.79h-1.28V7.84h-2.61v.44c0,2.61-.33,6.11-2.78,8.54-.16-.28-.63-.73-.93-.91,2.22-2.17,2.47-5.2,2.47-7.65V2.17l.95.3c1.79-.38,3.75-.94,4.87-1.5l1.05.96c-1.49.67-3.67,1.19-5.62,1.58v3.12h5.85v1.23Z" style="fill:gray;"/><path d="m937.81,8.42c-.68-.59-2.05-1.38-3.19-1.85l.72-.98c1.1.44,2.5,1.17,3.2,1.75l-.73,1.08Zm-2.66,7.25c.88-1.37,2.15-3.66,3.1-5.65l.98.81c-.86,1.85-2.01,4.04-2.97,5.67l-1.1-.82Zm3.45-11.85c-.65-.63-2-1.45-3.1-1.96l.72-.95c1.08.47,2.47,1.24,3.13,1.87l-.75,1.03Zm12.08,2.29v1.02h-11.32v-1.02h4.9v-1.21h-3.9v-.95h3.9v-1.1h-4.32v-.96h4.32V.75h1.29v1.14h4.55v.96h-4.55v1.1h4.13v.95h-4.13v1.21h5.13Zm-1.35,9.17c0,.67-.14,1.02-.61,1.19-.49.18-1.28.19-2.52.19-.04-.31-.21-.81-.38-1.1.89.02,1.71.02,1.96,0,.25,0,.33-.07.33-.3v-1.68h-5.93v3.12h-1.21v-8.59h8.37v7.18Zm-7.16-6.16v1.28h5.93v-1.28h-5.93Zm5.93,3.52v-1.31h-5.93v1.31h5.93Z" style="fill:gray;"/><path d="m958.58,5.49c-.88,4.59-2.99,7.82-5.55,9.56-.21-.31-.74-.82-1.03-1.03,2.28-1.42,4.13-4.03,4.97-7.51h-4.55v-1.29h5.04l.26-.05.86.33Zm9.07-1.07c-1.38,1.52-3.27,3.36-4.78,4.53,1.35,2.36,3.17,4.27,5.48,5.27-.31.26-.77.79-.98,1.17-3.03-1.49-5.13-4.43-6.51-8.02v7.51c0,.93-.25,1.35-.82,1.59-.58.23-1.59.26-3.2.26-.05-.39-.32-1.03-.53-1.42,1.26.05,2.38.03,2.73.03.35-.02.47-.12.47-.47V.8h1.35v3.17c.37,1.38.86,2.71,1.47,3.96,1.4-1.23,3.12-2.98,4.15-4.34l1.17.84Z" style="fill:gray;"/><path d="m976.66,5c-.05.94-.12,1.91-.26,2.87h6.96s-.02.42-.03.63c-.35,4.99-.7,6.91-1.38,7.61-.4.42-.82.54-1.49.58-.61.04-1.75.02-2.92-.05-.03-.37-.21-.91-.45-1.26,1.24.12,2.48.12,2.92.12.4,0,.65-.02.82-.19.52-.46.86-2.17,1.16-6.21h-5.78c-.61,3.1-2.01,5.99-5.57,7.7-.19-.33-.59-.8-.93-1.07,4.83-2.17,5.34-6.7,5.55-10.73h-5.37v-1.24h7.05V.72h1.31v3.05h7.18v1.24h-8.77Z" style="fill:gray;"/><path d="m995.7,3.17c-.21.74-.46,1.52-.68,2.19h7.02v11.39h-1.31v-.93h-11.18v.93h-1.26V5.35h5.41c.19-.67.37-1.47.51-2.19h-6.7v-1.24h15.38v1.24h-7.17Zm-6.16,11.45h2.49V6.56h-2.49v8.05Zm7.37-8.05h-3.69v1.93h3.69v-1.93Zm0,2.99h-3.69v1.96h3.69v-1.96Zm-3.69,5.06h3.69v-2.03h-3.69v2.03Zm7.51-8.05h-2.62v8.05h2.62V6.56Z" style="fill:gray;"/><path d="m225.31,33.87v.46h8.58s0,.23-.03.36c-.13,1.17-.3,1.68-.58,1.93-.21.18-.45.24-.75.26-.24.01-.75.01-1.24-.03-.02-.17-.09-.42-.18-.61l-.6.3c-.17-.36-.55-.87-.91-1.23l.69-.28c.39.33.78.81.96,1.14l-.06.03c.39.04.72.04.87.04.17,0,.24-.02.35-.1.13-.12.25-.47.38-1.2h-8.47v-4.69h3.28c.08-.19.18-.4.24-.6h-.87v-2.16c-.24.25-.46.48-.71.67-.18-.15-.54-.45-.73-.58.79-.61,1.56-1.48,2.07-2.38h-1.89l.6.19c-.25.39-.57.77-.9,1.14v3.28h-.92v-2.37c-.39.36-.79.67-1.18.94-.09-.12-.27-.29-.44-.44v.85c0,2.35-.18,5.79-1.46,8.1-.17-.18-.61-.51-.85-.63,1.19-2.17,1.29-5.25,1.29-7.47v-4.51h5.55v-1.08h1.14v1.08h5.67v.9h-3.94l.84.21-.39.58h2.95v.54h-3.03v.52h2.65v.5h-2.65v.51h2.65v.51h-2.65v.51h3.18v.57h-4.86c-.12.21-.24.42-.35.6h4.21v2.6h-7.5v.46h9.01v.57h-9.01Zm-2.82,2.62c.54-.39.99-1.06,1.26-1.62l.81.36c-.29.6-.69,1.27-1.25,1.69l-.82-.44Zm.36-8.92c.94-.63,1.89-1.5,2.5-2.38h-2.5v2.38Zm2.46,3.21v.5h6.48v-.5h-6.48Zm6.48,1.52v-.51h-6.48v.51h6.48Zm-5.61,2.85c.23.44.39,1.04.45,1.44l-.85.21c-.04-.4-.19-1-.39-1.48l.79-.17Zm2.08-.03c.3.4.58.96.69,1.36l-.79.27c-.1-.39-.38-.98-.66-1.41l.76-.23Zm1.41-8.59h-1.8v.52h1.8v-.52Zm0,1.02h-1.8v.51h1.8v-.51Zm0,1.02h-1.8v.51h1.8v-.51Zm-1.48-3.38l.38.1c-.14.23-.27.46-.42.69h1.6c.15-.27.3-.57.36-.79h-1.92Z" style="fill:gray;"/><path d="m249.29,36.12h-11.73v.79h-1.11v-12.93h12.46v1.05h-11.35v10.03h11.73v1.05Zm-5.28-1.77v-4.24h-3.4c-.1,1.4-.46,3.01-1.51,4.27-.15-.24-.54-.6-.8-.74,1.12-1.39,1.27-3.19,1.27-4.59v-2.67l1.19.28c2.06-.21,4.31-.54,5.55-.96l.89.77c-1.7.55-4.29.88-6.55,1.08v1.56h7.72v.99h-3.29v4.24h-1.06Z" style="fill:gray;"/><path d="m263.11,24.75v11.7h-1.18v-1.2h-8.82v1.27h-1.12v-11.77h11.13Zm-1.18,9.37v-8.26h-8.82v8.26h8.82Z" style="fill:gray;"/><path d="m64.61,221.69c0,.38.01,1.31.02,1.44h-1.03c0-.08.01-.36.01-.68h-6.55c.01.31.01.6.02.68h-1.03c.01-.14.04-1.03.04-1.45v-5.9c0-.28,0-.65-.02-.94.47.01.79.02,1.07.02h6.44c.26,0,.7,0,1.06-.02-.02.3-.02.64-.02.94v5.91Zm-7.54-5.88v5.7h6.56v-5.7h-6.56Z" style="fill:gray;"/><path d="m67.55,217.86c.36.02,1,.06,1.67.06h6.57c.6,0,1.03-.04,1.3-.06v1.18c-.24-.01-.74-.06-1.28-.06h-6.58c-.66,0-1.3.02-1.67.06v-1.18Z" style="fill:gray;"/><path d="m80.76,214.43c.53.78,1.58,2.63,2.02,3.41l-.96.54c-.44-.9-1.43-2.66-2-3.45l.95-.49Zm4.97,4.75c.92-1.37,1.31-2.79,1.5-3.91.06-.31.11-.77.1-.98l1.2.17c-.1.31-.19.73-.24.95-.29,1.43-.77,2.93-1.64,4.28-.94,1.44-2.29,2.79-4.25,3.69l-.9-.76c1.99-.82,3.35-2.11,4.23-3.44Z" style="fill:gray;"/><path d="m96.81,220.55c1.85-1.16,3.31-2.94,4.01-4.41l.58,1.02c-.83,1.5-2.22,3.13-4.03,4.26-1.2.77-2.71,1.5-4.71,1.87l-.64-.98c2.1-.31,3.66-1.04,4.8-1.75Zm-.71-3.8l-.76.76c-.6-.62-2.1-1.91-2.99-2.51l.68-.73c.85.56,2.39,1.81,3.06,2.48Z" style="fill:gray;"/><path d="m43.2,482.11c-.31-.38-1.08-1.11-1.71-1.68v3.81h-1.08v-3.95c-.73,1.16-1.67,2.24-2.5,2.89-.18-.25-.51-.61-.75-.81,1.08-.71,2.27-2.05,3.01-3.38h-2.68v-.94h2.92v-1.58h-2.97v-.95h6.96v.95h-2.91v1.58h2.79v.94h-2.79v.36c.57.42,2.02,1.6,2.37,1.92l-.66.83Zm1.02-9.03h-6.57v-.93h2.76v-1.51h1.08v1.51h2.73v.93Zm-5.08,2.45c-.06-.58-.3-1.49-.58-2.16l.87-.22c.31.67.57,1.56.64,2.13l-.93.25Zm2.46-.24c.27-.6.61-1.53.75-2.17l1.02.24c-.29.75-.58,1.59-.87,2.13l-.9-.2Zm9.42,1.37h-1.68v7.53h-1.1v-7.53h-2.23v.38c0,2.23-.29,5.23-2.38,7.32-.14-.24-.54-.63-.79-.78,1.9-1.86,2.11-4.45,2.11-6.55v-5.22l.81.25c1.53-.33,3.21-.81,4.17-1.29l.9.82c-1.27.57-3.15,1.02-4.81,1.35v2.67h5.01v1.05Z" style="fill:gray;"/><path d="m58.93,476.26h-6.6v-.85h2.8v-.95h-2.23v-.81h2.23v-.9h-2.52v-.84h2.52v-1.33h1.05v1.33h2.58v.84h-2.58v.9h2.29v.81h-2.29v.95h2.75v.85Zm-.73,6.9c0,.5-.1.78-.45.94-.38.15-.9.17-1.81.17-.04-.25-.19-.66-.33-.9h1.37c.18,0,.24-.04.24-.23v-1.44h-3v2.56h-.99v-7.14h4.98v6.03Zm-3.99-5.17v1.04h3v-1.04h-3Zm3,2.92v-1.09h-3v1.09h3Zm8.94-2.85h-.93v3.18h-1.02v-.58h-1.72v2.34c0,.58-.14.9-.54,1.08-.39.17-1.04.18-2.06.18-.06-.27-.21-.72-.36-1.02.75.03,1.44.03,1.63.03.21-.01.27-.08.27-.29v-2.32h-2.07v-.93h2.07v-1.66h-2.71v-.95h2.71v-1.62h-1.98v-.55l-.12.12c-.18-.18-.58-.5-.83-.65,1.02-.94,1.92-2.38,2.46-3.84l.98.24c-.15.39-.31.78-.5,1.16h2.15l.17-.04.67.43c-.35.72-.87,1.53-1.38,2.21h2.17v2.55h.93v.95Zm-5.19-5.21c-.36.63-.77,1.21-1.19,1.71h2.17c.39-.5.78-1.14,1.1-1.71h-2.08Zm1.52,4.26h1.72v-1.62h-1.72v1.62Zm1.72.95h-1.72v1.66h1.72v-1.66Z" style="fill:gray;"/><path d="m80.38,482.93c0,.66-.17.99-.62,1.17-.43.17-1.15.2-2.38.18-.06-.27-.23-.75-.39-1.02.89.04,1.71.03,1.95.02.25-.02.34-.09.34-.36v-10.51h-10.15v11.86h-1.08v-12.9h12.33v11.56Zm-3.73-.6v-.79h-5.02v1.02h-.94v-5.04h.94v3.06h2v-4.17h-3.77v-.96h8.82v.96h-4.05v4.17h2.02v-3.06h.98v4.81h-.98Zm-4.83-9.61c.54.69,1,1.65,1.17,2.29l-.95.34c-.15-.65-.6-1.61-1.11-2.33l.89-.31Zm5.67.22c-.44.85-.93,1.81-1.36,2.45l-.85-.29c.4-.66.88-1.74,1.12-2.46l1.09.3Z" style="fill:gray;"/><path d="m90.48,478.84c1.12-1.02,2.22-2.67,2.67-3.57-.25.06-3.02.61-5.67,1.15v4.46c0,1.04.38,1.37,2.17,1.37s3.18-.15,4.68-.44l-.06,1.29c-1.33.18-2.83.3-4.71.3-2.79,0-3.3-.72-3.3-2.2v-4.53c-1.52.3-2.85.58-3.45.72l-.24-1.26c.67-.09,2.1-.34,3.69-.64v-2.57c0-.45-.03-.94-.1-1.38h1.42c-.07.44-.1.95-.1,1.38v2.34c2.55-.5,5.17-1.03,5.8-1.17.33-.08.62-.17.79-.27l.89.69c-.1.15-.27.41-.38.6-.69,1.25-1.86,3.12-3.06,4.36l-1.05-.63Z" style="fill:gray;"/><path d="m108.22,473.65c-.58,1.63-1.48,3.84-2.74,5.46-1.37,1.72-3.51,3.38-5.65,4.27l-1.05-1.09c2.23-.78,4.3-2.28,5.67-3.97,1.4-1.74,2.4-4.2,2.82-6.36l1.44.39c-.18.4-.36.93-.48,1.3Z" style="fill:gray;"/><path d="m116.41,473.06l1.33.27c-.09.33-.21.77-.27,1.1-.21.93-.73,3.15-1.36,4.68-.56,1.38-1.37,2.92-2.21,4.12l-1.27-.54c.94-1.25,1.79-2.82,2.31-4.08.65-1.54,1.27-3.83,1.47-5.55Zm3.73.24l1.21-.41c.6,1.08,1.56,3.15,2.19,4.74.62,1.49,1.41,3.78,1.8,5.13l-1.33.44c-.38-1.53-1.07-3.55-1.7-5.16-.6-1.54-1.51-3.63-2.17-4.74Zm4.23.19l-.81.36c-.3-.62-.81-1.51-1.21-2.08l.79-.33c.38.53.93,1.44,1.23,2.05Zm1.68-.61l-.81.36c-.33-.66-.81-1.5-1.24-2.07l.79-.33c.4.54.98,1.48,1.26,2.04Z" style="fill:gray;"/><polygon points="1050.06 9.74 1033.35 .09 1033.35 5.98 1013.83 5.98 1013.83 13.51 1033.35 13.51 1033.35 19.39 1050.06 9.74" style="fill:gray;"/><polygon points="65.76 524.13 79.41 510.48 73.73 508.96 77.47 494.98 70.2 493.03 66.45 507.01 60.77 505.49 65.76 524.13" style="fill:none; stroke:gray; stroke-linecap:round; stroke-linejoin:round; stroke-width:4.41px;"/><polygon points="65.76 524.13 79.41 510.48 73.73 508.96 77.47 494.98 70.2 493.03 66.45 507.01 60.77 505.49 65.76 524.13" style="fill:#fff;"/><rect x="262.02" y="342.2" width="44.18" height="44.18" rx="3.52" ry="3.52" style="fill:none; stroke:#0094e2; stroke-linecap:round; stroke-linejoin:round; stroke-width:3.52px;"/><rect x="260.96" y="341.14" width="44.18" height="44.18" rx="3.52" ry="3.52" style="fill:#fff;"/><rect x="260.96" y="341.14" width="44.18" height="44.18" rx="3.52" ry="3.52" style="fill:none; stroke:#0094e2; stroke-linecap:round; stroke-linejoin:round; stroke-width:1.76px;"/><polygon points="290.28 353.23 274.47 353.23 271.14 346.47 291.32 349.28 290.28 353.23" style="fill:#0094e2;"/><path d="m274.16,355.21h15.71v4.99c0,2.5-2.08,6.55-7.18,6.55s-7.39-4.37-7.39-5.83v-2.39h-3.95l2.81-3.33Z" style="fill:#0094e2;"/><path d="m301.31,383.4c.52-4.06.1-8.01-1.98-10.19-2.08-2.18-5.83-3.74-11.86-3.74l-4.37,8.43-5.3-8.43s-5.1.52-7.07,1.35c-1.98.83-6.76,5.2-4.99,11.96.12.45.27,1.06.45,1.74h34.97c.05-.38.11-.75.15-1.11Z" style="fill:#0094e2;"/><rect x="355.72" y="166.94" width="96.61" height="53.44" rx="3.86" ry="3.86" style="fill:#ed0030;"/><rect x="355.72" y="166.94" width="96.61" height="53.44" rx="3.86" ry="3.86" style="fill:none; stroke:#545454; stroke-linecap:round; stroke-linejoin:round; stroke-width:1.89px;"/><path d="m380.91,192.8c1.55-1.98,2.47-4.3,2.99-6.86.11-.67.24-1.25.26-1.87.75.11,1.42.26,2.04.43.28.06.43.17.43.3s-.04.21-.15.34c-.15.19-.3.62-.41,1.1-.17.58-.32,1.16-.52,1.72h3.63c2.02,0,2.71-.04,2.86-.04.22,0,.24.02.24.24v1.55c0,.21-.02.24-.24.24-.13,0-.56-.02-1.63-.04-.19,3.23-1.1,6.08-2.39,8.13,1.18,1.33,2.79,2.52,4.73,3.5-.37.39-.73.95-.99,1.5-.17.34-.26.49-.43.49-.13,0-.28-.06-.52-.21-1.72-1.1-3.03-2.34-4.08-3.59-1.25,1.38-2.92,2.73-5.2,3.76-.26.11-.43.17-.54.17-.15,0-.21-.11-.37-.37-.37-.65-.71-1.05-1.12-1.42,2.45-.86,4.54-2.32,5.91-3.89-.95-1.5-1.66-3.33-2.04-5.03-.28.47-.58.92-.9,1.38-.19.26-.3.37-.41.37s-.21-.13-.41-.41c-.24-.3-.49-.6-.73-.82,0,.32.02.52.02.58,0,.22-.02.24-.26.24h-1.68c-.22,0-.24-.02-.24-.24v-.84h-3.12v4.86c0,.49.02.82.19.95.28.21.9.26,1.44.26,1.14,0,1.78-.13,2.11-.49.32-.37.41-.95.47-2.58.41.26.9.47,1.42.6.67.19.69.19.62.84-.11,1.59-.43,2.34-1.05,2.9-.75.67-2,.82-3.91.82-1.38,0-2.43-.11-2.88-.54-.39-.34-.54-.77-.54-1.72v-5.42c0-1.42-.04-2.15-.04-2.28,0-.24.02-.26.26-.26.13,0,.71.04,1.94.04h3.1v-3.48h-3.22c-1.59,0-2.11.04-2.21.04-.21,0-.24-.02-.24-.26v-1.63c0-.21.02-.24.24-.24.11,0,.62.04,2.21.04h2.86c1.61,0,2.15-.04,2.28-.04.24,0,.26.02.26.24,0,.15-.04.71-.04,2.15v4.79Zm3.96-2.9c-.04.11-.06.22-.11.3.37,2.43.95,4.32,1.91,5.98.8-1.48,1.38-3.5,1.57-6.28h-3.38Z" style="fill:#fff;"/><path d="m398.41,187.17c0-1.4-.02-2.06-.17-3.05.8.02,1.59.09,2.3.15.21.02.32.11.32.21,0,.19-.06.32-.13.47-.13.26-.15.62-.15,2.17v1.27h.47c1.81,0,2.39-.04,2.52-.04.21,0,.24.02.24.24v1.61c0,.21-.02.24-.24.24-.13,0-.71-.04-2.52-.04h-.32c.71,1.61,1.98,3.33,3.31,4.54-.32.41-.6.97-.82,1.53-.09.24-.17.34-.26.34s-.17-.11-.34-.3c-.84-1.01-1.59-2.17-2.11-3.42.02,5.63.15,10.06.15,10.49,0,.21-.02.24-.24.24h-1.87c-.22,0-.24-.02-.24-.24,0-.45.11-4.77.15-10-.67,2-1.74,3.89-2.97,5.55-.15.19-.26.3-.34.3-.11,0-.17-.11-.26-.37-.19-.62-.49-1.33-.73-1.72,1.63-1.81,3.03-4.08,4.02-6.94h-.8c-1.81,0-2.41.04-2.54.04-.21,0-.24-.02-.24-.24v-1.61c0-.21.02-.24.24-.24.13,0,.73.04,2.54.04h1.01v-1.23Zm9.07,12.9c0,.6.06.8.34.92.19.09.69.15,1.38.15.88,0,1.44-.15,1.74-.45.34-.3.54-.9.62-3.33.43.3,1.12.6,1.68.75q.54.17.49.75c-.17,2.54-.52,3.2-1.16,3.76s-1.7.8-3.5.8c-1.55,0-2.39-.09-2.92-.32-.56-.28-.97-.62-.97-2.04v-12.96c0-1.85-.04-2.88-.13-3.7.82.02,1.68.11,2.32.19.26.02.41.13.41.26,0,.17-.06.3-.13.45-.13.26-.17.73-.17,2.88v11.89Z" style="fill:#fff;"/><path d="m417.68,202.93c-.21,0-.24-.02-.24-.24,0-.15.04-1.27.04-7.07v-3.98c0-3.98-.04-5.16-.04-5.29,0-.24.02-.26.24-.26.15,0,.88.04,2.97.04h9.76c2.09,0,2.82-.04,2.95-.04.24,0,.26.02.26.26,0,.13-.04,1.29-.04,4.73v4.54c0,5.74.04,6.88.04,7.01,0,.21-.02.24-.26.24h-1.94c-.21,0-.24-.02-.24-.24v-1.61h-11.31v1.68c0,.21-.02.24-.26.24h-1.94Zm2.19-4.11h11.31v-10.49h-11.31v10.49Z" style="fill:#fff;"/><polyline points="357.73 195.15 337.51 207.59 359.28 207.59" style="fill:#ed0030; stroke:#545454; stroke-linecap:round; stroke-linejoin:round; stroke-width:1.89px;"/><polyline points="551.32 112.66 551.32 28.02 1074.81 28.02" style="fill:none; stroke:#545454; stroke-miterlimit:10; stroke-width:.5px;"/><line x1="172.88" y1="239.53" x2="511.43" y2="239.53" style="fill:none; stroke:#39b54a; stroke-dasharray:0 0 6.3 6.3; stroke-miterlimit:10; stroke-width:4.41px;"/><line x1="82.37" y1="457.48" x2="235.1" y2="51.46" style="fill:none; stroke:#39b54a; stroke-dasharray:0 0 6.3 6.3; stroke-miterlimit:10; stroke-width:4.41px;"/><polyline points="1038.38 130.66 513.11 130.66 513.11 179.67 1038.38 179.67" style="fill:none; stroke:#39b54a; stroke-dasharray:0 0 6.3 6.3; stroke-miterlimit:10; stroke-width:4.41px;"/><polyline points="1038.38 308.32 513.11 308.32 513.11 185.97" style="fill:none; stroke:#39b54a; stroke-dasharray:0 0 6.3 6.3; stroke-miterlimit:10; stroke-width:4.41px;"/><path d="m258.45,409.57c.63-.89.84-2.45.89-3.99l.81.16c-.09,1.59-.28,3.27-.96,4.25l-.73-.42Zm7.6-6.04s0,.35-.02.53c-.23,4.3-.42,5.85-.86,6.37-.26.32-.54.42-.96.46-.35.04-.96.04-1.59,0-.04-.31-.14-.77-.3-1.05.61.04,1.17.05,1.4.05s.37-.04.51-.18c.18-.23.33-.86.46-2.21l-.56.25c-.17-.63-.59-1.58-1.02-2.28l.61-.23c.38.61.77,1.44.98,2.03.07-.7.12-1.58.19-2.68h-5.44v-8.96h6.44v1.1h-2.52v1.54h2.17v1.03h-2.17v1.58h2.17v1.05h-2.17v1.59h2.68Zm-5.48-6.79v1.54h1.7v-1.54h-1.7Zm1.7,2.57h-1.7v1.58h1.7v-1.58Zm-1.7,4.22h1.7v-1.59h-1.7v1.59Zm.68,2.33c.19,1.01.31,2.31.3,3.17l-.73.12c.05-.88-.07-2.17-.25-3.2l.68-.09Zm1.31,2.71c-.07-.75-.37-1.92-.68-2.82l.63-.14c.37.88.67,2.03.73,2.78l-.68.17Zm8.66-5.81c.51,3.2,1.58,5.88,3.55,7.14-.28.26-.68.73-.88,1.07-2.21-1.58-3.29-4.5-3.85-8.21h-1.59c-.03,2.61-.35,5.97-1.96,8.17-.21-.23-.75-.54-1.03-.67,1.63-2.26,1.77-5.51,1.77-8.03v-6.6h6.77v7.12h-2.78Zm-2.77-5.92v4.71h4.36v-4.71h-4.36Z" style="fill:gray;"/><path d="m281.27,405.01c.33-.72.68-1.8.95-2.82h-1.68v7.21c0,.67-.14,1.01-.58,1.24-.46.17-1.14.19-2.19.19-.05-.31-.23-.86-.4-1.19.75.02,1.44.02,1.66.02.21-.02.28-.07.28-.26v-5.62c-.68,1.68-1.59,3.33-2.56,4.31-.14-.37-.46-.88-.68-1.21,1.08-1.03,2.17-2.91,2.82-4.69h-2.64v-1.14h4.69c-.91-.77-2.52-1.75-3.89-2.34l.81-.84c.54.23,1.14.51,1.7.81.65-.49,1.31-1.12,1.84-1.73h-4.95v-1.14h5.88l.23-.05.84.52c-.68,1.05-1.8,2.17-2.85,2.98.58.35,1.1.72,1.47,1.05l-.67.75h1.29l.19-.07.79.28c-.09.3-.17.61-.26.93,1.17-.33,2.24-.77,3.13-1.35-.7-.63-1.31-1.35-1.8-2.13-.42.45-.84.89-1.26,1.24-.25-.21-.75-.58-1.07-.75,1.36-1.01,2.62-2.61,3.33-4.27l1.24.33c-.23.51-.51,1.01-.81,1.5h5.81v1.1h-1.35c-.49,1.19-1.21,2.17-2.1,2.98,1.1.7,2.4,1.23,3.8,1.52-.26.28-.65.77-.82,1.12-1.47-.4-2.82-1.03-3.97-1.86-1.1.77-2.4,1.35-3.82,1.79-.09-.17-.28-.44-.47-.68-.3,1.01-.65,2.01-1.03,2.73l-.89-.46Zm10.27-.31s-.02.35-.04.56c-.31,3.26-.65,4.59-1.16,5.09-.3.31-.63.4-1.08.46-.42.02-1.16.03-1.94-.02-.03-.35-.16-.88-.35-1.21.75.07,1.45.09,1.73.09s.42-.02.6-.18c.33-.33.59-1.31.86-3.71h-2.94c-.61,2.22-1.84,4.04-4.64,5.13-.16-.3-.51-.77-.77-1,2.42-.88,3.52-2.35,4.06-4.13h-2.73v-1.08h3.01c.1-.56.17-1.14.23-1.73h1.31c-.05.59-.14,1.17-.25,1.73h4.1Zm-6.06-6.83c.47.84,1.15,1.61,1.98,2.26.72-.63,1.29-1.37,1.7-2.26h-3.68Z" style="fill:gray;"/><path d="m309.36,409.24v1.17h-15.4v-1.17h6.97v-2.19h-5.37v-1.16h5.37v-1.96c-2.12.07-4.08.12-5.62.17l-.07-1.19c.72-.02,1.54-.02,2.43-.04.51-.75,1.07-1.72,1.49-2.54h-3.22v-1.16h11.5v1.16h-6.79c-.49.82-1.07,1.73-1.61,2.5,1.96-.05,4.17-.11,6.35-.17-.58-.47-1.19-.93-1.75-1.31l.93-.65c1.47.93,3.24,2.34,4.06,3.36l-.98.73c-.26-.31-.61-.68-1.03-1.07-1.45.05-2.94.11-4.38.14v2.01h5.6v1.16h-5.6v2.19h7.12Zm-13.95-9.78h-1.24v-3.22h6.76v-1.3h1.31v1.3h6.9v3.22h-1.3v-2.01h-12.43v2.01Z" style="fill:gray;"/><path d="m204.95,333.72c1.07,1.21,2.35,2.17,3.76,2.78-.3.25-.7.74-.86,1.07-.96-.46-1.85-1.07-2.66-1.8,0,.12-.02.3-.04.4-.23,3.5-.49,4.88-.96,5.39-.31.33-.63.46-1.17.49-.45.04-1.38.04-2.33-.02-.03-.37-.17-.89-.4-1.21.93.09,1.84.09,2.17.09.32,0,.47-.02.65-.17.31-.32.51-1.37.7-3.96h-3.59c-.49,2.57-1.71,4.36-5.36,5.34-.14-.3-.51-.84-.75-1.08,3.27-.75,4.32-2.22,4.76-4.25h-2.99v-.84c-.75.63-1.59,1.21-2.54,1.68-.18-.28-.54-.77-.82-1.01,1.54-.75,2.78-1.73,3.78-2.89h-3.43v-1.21h4.36c.42-.63.81-1.29,1.12-1.98h-4.36v-1.16h2.57c-.3-.74-.89-1.77-1.49-2.52l1.1-.4c.65.79,1.33,1.89,1.61,2.61l-.73.32h1.79c.4-1.05.7-2.15.93-3.29l1.35.25c-.25,1.05-.53,2.07-.89,3.05h3.43l-.63-.25c.56-.74,1.28-1.91,1.65-2.75l1.28.44c-.52.91-1.15,1.86-1.7,2.56h3.1v1.16h-4.43c.32.68.68,1.35,1.1,1.98h4.34v1.21h-3.41Zm.09,1.89c-.61-.56-1.15-1.21-1.65-1.89h-5.43c-.51.68-1.07,1.31-1.7,1.89h8.77Zm-5.27-5.08c-.3.68-.63,1.35-1.02,1.98h3.85c-.37-.63-.68-1.29-.96-1.98h-1.87Z" style="fill:gray;"/><path d="m216.48,335.41c-.3,3.55-1.21,5.62-5.55,6.69-.1-.33-.46-.84-.73-1.1,4.01-.86,4.71-2.56,4.95-5.58h1.33Zm.93-6.37h-6.84v-1.21h6.84v-1.72h1.33v1.72h6.98v1.21h-6.98v1.73h5.43v1.15h-11.97v-1.15h5.22v-1.73Zm6.53,7.63v-2.15h-11.66v2.15h-1.26v-3.34h14.23v3.34h-1.31Zm-.09,3.9c.65,0,.75-.3.81-2.26.3.21.82.4,1.19.51-.16,2.34-.51,2.94-1.87,2.94h-2.56c-1.57,0-1.98-.38-1.98-1.73v-4.64h1.3v4.62c0,.47.12.56.8.56h2.31Z" style="fill:gray;"/><path d="m242.4,336.74c-.49,1.05-1.19,2-2.03,2.82.49.93,1.07,1.44,1.73,1.44.51,0,.7-.42.79-2,.23.25.63.47.89.58-.21,1.96-.6,2.54-1.75,2.54-1.05,0-1.87-.65-2.54-1.8-.89.7-1.92,1.29-3.04,1.75-.16-.21-.47-.61-.7-.82,1.24-.49,2.36-1.14,3.27-1.93-.37-.91-.67-2.01-.89-3.27h-2.73c-.02.35-.07.68-.1,1.01.86.53,1.87,1.23,2.42,1.72l-.73.89c-.42-.4-1.16-.98-1.89-1.49-.37,1.58-1.02,2.94-2.29,3.87-.17-.26-.51-.67-.79-.86,1.59-1.1,2.07-3.06,2.24-5.15h-1.24v-.98l-.54.77c-.23-.56-.77-1.63-1.24-2.5v8.73h-1.17v-8.09c-.53,1.86-1.21,3.64-1.93,4.76-.14-.32-.44-.8-.65-1.08,1-1.45,1.98-4.22,2.45-6.58h-2.08v-1.19h2.21v-3.78h1.17v3.78h1.89v1.19h-1.89v.79c.46.63,1.65,2.54,1.91,3.03l-.07.11h4.9c-.38-2.54-.54-5.58-.56-8.87h1.17c-.04,3.41.16,6.44.52,8.87h2.38c-.42-.35-.98-.75-1.47-1.02l.61-.63c.67.35,1.45.86,1.86,1.26l-.37.39h1.44v1.05h-4.27c.18.93.39,1.73.63,2.42.58-.65,1.05-1.37,1.38-2.13l1.12.42Zm-8.94-4.13c.37-.49.77-1.08,1.17-1.7-.46-.56-1.21-1.28-1.86-1.79l.54-.72c.14.11.28.21.42.32.38-.75.81-1.73,1.05-2.45l1.02.4c-.46.86-.98,1.89-1.42,2.61.3.26.56.53.75.77.42-.72.81-1.44,1.09-2.05l.94.46c-.75,1.29-1.73,2.89-2.62,4.08l1.71-.11c-.14-.38-.3-.75-.47-1.08l.81-.3c.46.79.86,1.86.98,2.52l-.86.37c-.04-.17-.07-.38-.14-.59-1.26.11-2.47.23-3.54.33l-.19-1.03.61-.04Zm5.99-.17c.33-.44.7-.96,1.05-1.54-.44-.56-1.17-1.26-1.84-1.77l.54-.72c.12.11.26.19.4.32.39-.75.82-1.73,1.07-2.45l1.02.4c-.44.88-1,1.89-1.44,2.59.28.28.56.54.77.79.42-.72.81-1.44,1.08-2.05l.95.46c-.74,1.24-1.66,2.75-2.5,3.9l1.85-.12c-.16-.35-.33-.7-.51-1l.81-.33c.47.8.96,1.86,1.08,2.52l-.84.4c-.04-.21-.1-.46-.21-.72-1.31.14-2.56.23-3.66.33l-.19-.98.56-.04Z" style="fill:gray;"/><rect x="458.67" y="382.05" width="44.18" height="44.18" rx="3.52" ry="3.52" style="fill:none; stroke:#0094e2; stroke-linecap:round; stroke-linejoin:round; stroke-width:3.52px;"/><rect x="457.61" y="380.99" width="44.18" height="44.18" rx="3.52" ry="3.52" style="fill:#fff;"/><rect x="457.61" y="380.99" width="44.18" height="44.18" rx="3.52" ry="3.52" style="fill:none; stroke:#0094e2; stroke-linecap:round; stroke-linejoin:round; stroke-width:1.76px;"/><g id="q15q3T"><path d="m469.4,408.01c-.58.24-.96.75-1.44,1.12-.65.5-1.25,1.07-1.89,1.58-.71.56-1.48.53-2.01-.04-.51-.54-.56-1.36-.01-1.97,1.56-1.74,3.16-3.45,4.75-5.16.38-.41.89-.51,1.43-.5,1.57,0,3.14-.02,4.7.01.58,0,.87-.12.87-.78,0-.69.09-1.39.22-2.07.12-.65-.17-.75-.7-.63-1.19.25-2.38.51-3.58.76-.27.06-.54.1-.81.11-.76.02-1.29-.37-1.43-1.03-.14-.67.14-1.3.82-1.58.71-.29,1.46-.51,2.19-.74,1.8-.58,3.59-1.2,5.4-1.72,2.25-.64,3.63.63,3.37,2.97-.29,2.57-.51,5.15-.79,7.72-.16,1.46-1.14,2.3-2.62,2.31-1.34.01-2.69.02-4.03,0-.51,0-.74.17-.86.69-.45,1.99-.94,3.97-1.43,5.95-.31,1.25-.99,1.77-2.03,1.55-.89-.19-1.31-1.03-1.11-2.19.34-1.94.67-3.87,1.01-5.81.03-.17.11-.33-.04-.54Z" style="fill:#0094e2;"/><path d="m488.29,401.5c-.07,1.04.13,1.89.21,2.74.04.39.34.43.67.43,1.02,0,2.04,0,3.06,0,1.18.01,1.81.51,2.02,1.67.5,2.71.99,5.43,1.45,8.15.18,1.07-.3,1.86-1.16,2.04-.98.21-1.72-.31-2-1.42-.49-2-.99-4.01-1.44-6.03-.13-.59-.4-.76-.97-.75-1.34.03-2.69.02-4.03,0-1.35-.01-2.38-.85-2.52-2.17-.3-2.77-.54-5.54-.8-8.32-.09-1.01.31-1.8,1.16-2.35.93-.61,2.08-.54,2.9.23,2.04,1.93,4.07,3.89,6.08,5.85.68.67.71,1.46.14,2.06-.54.57-1.29.6-2.02.04-.88-.68-1.75-1.39-2.76-2.2Z" style="fill:#0094e2;"/><path d="m482.02,409.16c2.34,0,4.67.02,7.01-.01.69,0,.9.24.89.91-.02,1.54,0,1.54-1.53,1.54-4.4,0-8.8,0-13.2,0-1.01,0-1.03-.03-1.04-1.05,0-.12,0-.25,0-.37,0-.98.02-1.01,1-1.01,2.29,0,4.58,0,6.86,0Z" style="fill:#0094e2;"/><path d="m479.01,389.57c1.39,0,2.48,1.09,2.46,2.46-.01,1.37-1.11,2.44-2.5,2.43-1.41-.01-2.45-1.06-2.44-2.47,0-1.4,1.05-2.42,2.48-2.42Z" style="fill:#0094e2;"/><path d="m485.14,389.57c1.39,0,2.47,1.1,2.45,2.46-.02,1.37-1.12,2.43-2.5,2.42-1.39-.01-2.45-1.09-2.43-2.48.01-1.39,1.07-2.42,2.48-2.41Z" style="fill:#0094e2;"/></g><path d="m462.17,437.49c-.39.74-.88,1.45-1.4,2.13v9.5h-1.26v-8.02c-.65.72-1.33,1.38-2.01,1.92-.12-.3-.47-.96-.7-1.28,1.56-1.14,3.24-2.92,4.24-4.73l1.14.46Zm-.21-3.82c-1.02,1.49-2.7,3.13-4.24,4.17-.14-.3-.46-.79-.67-1.05,1.36-.89,2.92-2.36,3.68-3.59l1.23.47Zm8.59,6.35v1.92h2.35v1.19h-2.35v4.41c0,.79-.16,1.14-.7,1.35-.54.21-1.45.21-2.8.21-.05-.37-.24-.88-.42-1.24,1.05.04,2.01.04,2.28.02.3-.02.37-.09.37-.33v-4.41h-7.09v-1.19h7.09v-1.92h-7.28v-1.21h4.85v-2.22h-3.83v-1.19h3.83v-2.17h1.28v2.17h3.99v1.19h-3.99v2.22h4.9v1.21h-2.47Zm-5.97,3.61c.81.91,1.72,2.17,2.1,3.01l-1.1.65c-.37-.84-1.24-2.15-2.05-3.06l1.05-.59Z" style="fill:gray;"/><path d="m483.03,433.2c1.85,2.57,4.94,5.01,7.68,6.25-.31.3-.63.75-.86,1.12-2.71-1.42-5.78-3.87-7.4-6.11-1.44,2.13-4.27,4.62-7.26,6.21-.16-.3-.51-.75-.81-1.03,3.05-1.54,5.97-4.2,7.33-6.44h1.31Zm-5.83,8.98h10.64v6.97h-1.33v-.72h-8.03v.72h-1.28v-6.97Zm9.68-3.34v1.16h-8.77v-1.16h8.77Zm-8.4,4.52v3.9h8.03v-3.9h-8.03Z" style="fill:gray;"/><path d="m507.73,447.47v1.17h-15.4v-1.17h6.97v-2.19h-5.37v-1.16h5.37v-1.96c-2.12.07-4.08.12-5.62.17l-.07-1.19c.72-.02,1.54-.02,2.43-.04.51-.75,1.07-1.71,1.49-2.54h-3.22v-1.16h11.5v1.16h-6.79c-.49.82-1.07,1.73-1.61,2.5,1.96-.05,4.17-.11,6.35-.17-.58-.47-1.19-.93-1.75-1.31l.93-.65c1.47.93,3.24,2.34,4.06,3.36l-.98.73c-.26-.31-.61-.68-1.03-1.07-1.45.05-2.94.11-4.38.14v2.01h5.6v1.16h-5.6v2.19h7.12Zm-13.95-9.78h-1.24v-3.22h6.76v-1.3h1.31v1.3h6.9v3.22h-1.3v-2.01h-12.43v2.01Z" style="fill:gray;"/><path d="m399.1,101.63c-1.91-1.03-4.94-2.21-6.88-2.82l.02,5.78c0,.56.04,1.49.1,2.07h-1.68c.07-.56.1-1.42.1-2.07v-10.19c0-.49-.03-1.28-.14-1.82h1.71c-.05.54-.12,1.3-.12,1.82v2.85c2.31.7,5.62,1.96,7.47,2.89l-.6,1.49Z" style="fill:#fff;"/><path d="m417.44,93.51c-1.21,1.23-2.89,2.66-4.69,3.8v7.49c0,.67.04,1.52.1,1.87h-1.71c.05-.33.1-1.21.1-1.87v-6.62c-1.87,1.03-4.29,2.05-6.58,2.73l-.81-1.37c2.92-.68,5.9-2.01,7.82-3.22,1.79-1.1,3.62-2.63,4.6-3.87l1.15,1.05Z" style="fill:#fff;"/><path d="m423.76,105.57c.12-.28.18-.51.18-.86v-10.01c0-.47-.09-1.24-.14-1.59h1.72c-.07.44-.12,1.08-.12,1.59v9.92c3.34-.84,7.4-3.15,9.57-5.97l.79,1.23c-2.27,2.82-5.88,4.97-10.24,6.25-.19.05-.47.14-.74.32l-1.02-.88Z" style="fill:#fff;"/><path d="m288.82,104.14c0,.56.02,1.91.04,2.1h-1.51c0-.12.02-.53.02-1h-9.56c.02.46.02.88.04,1h-1.51c.02-.21.05-1.51.05-2.12v-8.61c0-.4,0-.94-.04-1.36.68.02,1.16.03,1.56.03h9.4c.39,0,1.02,0,1.54-.03-.04.44-.04.93-.04,1.36v8.63Zm-11.01-8.58v8.31h9.57v-8.31h-9.57Z" style="fill:gray;"/><path d="m295.54,100.88l-1.33.49c-.26-.91-1.21-3.33-1.56-3.94l1.3-.51c.35.75,1.26,3.05,1.59,3.96Zm8.8-3.85c-.12.37-.19.65-.26.88-.47,1.92-1.23,3.8-2.49,5.37-1.61,2.05-3.75,3.41-5.71,4.17l-1.15-1.19c2.03-.58,4.25-1.91,5.69-3.71,1.24-1.52,2.15-3.75,2.42-5.99l1.51.47Zm-4.95,2.8l-1.29.46c-.19-.79-1-3.01-1.37-3.8l1.28-.44c.3.7,1.15,3.01,1.38,3.78Z" style="fill:gray;"/><path d="m320.27,96c-.05.3-.09.63-.09.86-.07,1.68-.28,6.77-1.07,8.45-.35.73-.91,1.05-1.87,1.05-.89,0-1.91-.05-2.82-.11l-.18-1.45c.95.12,1.87.19,2.61.19.51,0,.82-.14,1.02-.58.67-1.33.89-5.64.89-7.51h-4.9c-.63,5.02-2.45,7.68-5.37,9.7l-1.26-1.03c.54-.3,1.26-.79,1.79-1.29,1.73-1.58,2.99-3.76,3.47-7.37h-2.94c-.7,0-1.4,0-2.01.07v-1.49c.61.07,1.33.1,2,.1h3.08c.04-.56.07-1.16.07-1.79,0-.38-.05-1.03-.12-1.45h1.65c-.05.4-.09,1.02-.1,1.44-.02.63-.05,1.23-.09,1.8h4.17c.47,0,.82-.04,1.12-.09l.98.49Z" style="fill:gray;"/><path d="m322.84,98.55c.52.04,1.45.09,2.43.09h9.59c.88,0,1.5-.05,1.89-.09v1.71c-.35-.02-1.08-.09-1.87-.09h-9.61c-.96,0-1.89.03-2.43.09v-1.71Z" style="fill:gray;"/><line x1="550.65" y1="457.98" x2="1076.16" y2="457.98" style="fill:none; stroke:#545454; stroke-miterlimit:10; stroke-width:.5px;"/><rect x="189.9" y="281.03" width="58.45" height="25.77" style="fill:#e6e6e6; stroke:#545454; stroke-miterlimit:10; stroke-width:.5px;"/><rect x="197.08" y="272.87" width="44.18" height="44.18" rx="3.52" ry="3.52" style="fill:none; stroke:#f04d13; stroke-linecap:round; stroke-linejoin:round; stroke-width:3.52px;"/><rect x="196.03" y="271.82" width="44.18" height="44.18" rx="3.52" ry="3.52" style="fill:#f7931e;"/><rect x="196.03" y="271.82" width="44.18" height="44.18" rx="3.52" ry="3.52" style="fill:none; stroke:#f04d13; stroke-linecap:round; stroke-linejoin:round; stroke-width:1.76px;"/><path d="m222.4,303.18v-1.68h-1.63v-.75h1.63v-.67h-1.63v-.75h1.26l-1.72-2.98h1.72l.73,1.68c.18.42.31.78.44,1.14h.02c.14-.34.27-.74.45-1.15l.75-1.67h1.68l-1.79,2.98h1.25v.75h-1.65v.67h1.65v.75h-1.65v1.68h-1.5Z" style="fill:#fff;"/><path d="m214.55,302.53c-.36,0-.65.29-.65.65s.29.65.65.65.65-.29.65-.65-.29-.65-.65-.65" style="fill:#fff;"/><path d="m214.55,300.1c-.36,0-.65.29-.65.65s.29.65.65.65.65-.29.65-.65-.29-.65-.65-.65" style="fill:#fff;"/><path d="m231.65,292.27h-23.51v14.52h24.69v-14.52h-1.18Zm0,13.34h-16.45c0-.36-.29-.65-.65-.65s-.65.29-.65.65h-4.58v-12.15h4.58c0,.36.29.65.65.65s.65-.29.65-.65h16.45v12.15Z" style="fill:#fff;"/><path d="m214.55,297.67c-.36,0-.65.29-.65.65s.29.65.65.65.65-.29.65-.65-.29-.65-.65-.65" style="fill:#fff;"/><path d="m214.55,295.24c-.36,0-.65.29-.65.65s.29.65.65.65.65-.29.65-.65-.29-.65-.65-.65" style="fill:#fff;"/><polygon points="210.18 290.48 224.64 282.63 229.23 291.09 230.58 291.09 225.68 282.07 225.12 281.03 224.08 281.59 209.62 289.44 209.52 289.5 208.48 290.06 204.45 292.24 203.41 292.81 203.98 293.85 206.96 299.34 206.96 296.86 205.02 293.28 206.96 292.23 210.18 290.48" style="fill:#fff;"/></g></svg>