<?xml version="1.0" encoding="UTF-8"?><svg id="_レイヤー_2" xmlns="http://www.w3.org/2000/svg" width="1049.98" height="427.19" viewBox="0 0 1049.98 427.19"><g id="_レイヤー_2-2"><path d="m1025.51,209.62h-17.48V5.25h-79.09v19.95H227.54v36.51h553.07v65.18H227.54v138.34h-101.31v65.18h31.87v35.58h67.84v-35.58h466.89v44.56h69.83v-44.56h165.61v53.21h79.63v.12h-79.63v42.56h79.75v-42.2h26.29v-174.47h-8.8Zm-244.89,55.6H257.27v-65.18h523.35v65.18Z" style="fill:#f2f2f2;"/><line x1="222.3" y1="260.22" x2="22.77" y2="260.22" style="fill:none; stroke:#545454; stroke-miterlimit:10; stroke-width:.5px;"/><line x1="290.78" y1="121.89" x2="22.77" y2="121.89" style="fill:none; stroke:#545454; stroke-miterlimit:10; stroke-width:.5px;"/><polygon points="99.23 391.91 44.36 391.91 44.36 6.88 99.23 6.88 99.23 286.83 99.23 391.91" style="fill:#e6e6e6;"/><rect x="234.5" y="260.22" width="541.12" height="65.18" style="fill:#dbf1de;"/><rect x="121.24" y="260.22" width="87.07" height="65.18" style="fill:#f2f2f2;"/><rect x="209.56" y="260.22" width="32.59" height="65.18" style="fill:#e3f2f7;"/><rect x="222.54" y="121.89" width="553.07" height="73.16" style="fill:#dbf1de;"/><rect x="222.54" y="121.89" width="29.72" height="203.52" style="fill:#e3f2f7;"/><polygon points="775.62 121.89 775.62 195.05 775.62 260.22 775.62 325.4 889.35 325.4 889.35 121.89 775.62 121.89" style="fill:#e3f2f7;"/><polygon points="889.35 20.2 775.62 20.2 775.62 56.71 775.62 121.89 889.35 121.89 889.35 20.2" style="fill:#e6e6e6;"/><rect x="222.54" y="20.2" width="553.07" height="36.51" style="fill:#e6e6e6;"/><polygon points="923.94 .25 923.94 20.2 889.35 20.2 889.35 325.4 923.27 325.4 923.27 378.61 1003.02 378.61 1003.02 .25 923.94 .25" style="fill:#e6e6e6;"/><rect x="153.11" y="325.07" width="23.94" height="35.91" style="fill:#e6e6e6; stroke:#545454; stroke-miterlimit:10; stroke-width:.5px;"/><rect x="177.05" y="325.07" width="43.9" height="35.91" style="fill:#fff; stroke:#545454; stroke-miterlimit:10; stroke-width:.5px;"/><path d="m507.28,141.28h5.62c1.11,0,2.01.32,2.69.94.68.63,1.02,1.51,1.02,2.65,0,.98-.3,1.83-.91,2.56s-1.54,1.09-2.8,1.09h-3.92v5.31h-1.7v-12.55Zm6.6,1.73c-.37-.18-.89-.26-1.54-.26h-3.36v4.35h3.36c.76,0,1.37-.16,1.85-.49.47-.33.71-.9.71-1.72,0-.92-.34-1.55-1.02-1.88Z" style="fill:#0094e2;"/><path d="m518.25,141.28h1.54v12.55h-1.54v-12.55Z" style="fill:#0094e2;"/><path d="m526.84,148.29c.35-.05.59-.19.71-.44.07-.14.1-.33.1-.59,0-.53-.19-.91-.56-1.15-.37-.24-.91-.36-1.6-.36-.8,0-1.37.22-1.71.65-.19.24-.31.6-.37,1.07h-1.44c.03-1.13.39-1.92,1.1-2.36.7-.44,1.52-.67,2.45-.67,1.08,0,1.95.21,2.62.62.67.41,1,1.05,1,1.92v5.27c0,.16.03.29.1.38s.2.15.41.15c.07,0,.15,0,.23-.01.09,0,.18-.02.27-.04v1.14c-.24.07-.42.11-.55.13-.12.02-.3.03-.51.03-.53,0-.91-.19-1.15-.56-.13-.2-.21-.48-.26-.85-.31.41-.76.77-1.35,1.07-.59.3-1.23.45-1.94.45-.85,0-1.54-.26-2.08-.77-.54-.51-.81-1.16-.81-1.93,0-.85.27-1.5.79-1.97.53-.47,1.23-.75,2.08-.86l2.45-.31Zm-3.24,4.16c.33.26.71.38,1.15.38.54,0,1.06-.12,1.57-.38.85-.42,1.28-1.09,1.28-2.04v-1.24c-.19.12-.43.22-.72.3-.3.08-.59.14-.87.17l-.93.12c-.56.07-.98.19-1.26.35-.48.27-.71.69-.71,1.28,0,.44.16.79.49,1.05Z" style="fill:#0094e2;"/><path d="m531.71,142.12h1.56v2.55h1.46v1.26h-1.46v5.97c0,.32.11.53.32.64.12.06.32.09.6.09.07,0,.15,0,.24,0,.08,0,.18-.01.3-.03v1.22c-.18.05-.36.09-.55.11-.19.02-.4.03-.62.03-.72,0-1.21-.18-1.46-.55-.26-.37-.38-.84-.38-1.43v-6.06h-1.24v-1.26h1.24v-2.55Z" style="fill:#0094e2;"/><path d="m537.26,141.88c.36-.52,1.05-.79,2.08-.79.1,0,.2,0,.3,0,.1,0,.22.01.35.03v1.4c-.16-.01-.28-.02-.35-.02s-.14,0-.2,0c-.47,0-.75.12-.85.36-.09.24-.14.86-.14,1.85h1.54v1.21h-1.54v7.9h-1.52v-7.9h-1.27v-1.21h1.27v-1.44c.02-.64.13-1.11.33-1.4Z" style="fill:#0094e2;"/><path d="m547.8,145.59c.81.79,1.21,1.94,1.21,3.47s-.36,2.69-1.07,3.65c-.71.96-1.82,1.44-3.32,1.44-1.25,0-2.24-.43-2.98-1.28s-1.1-1.99-1.1-3.43c0-1.54.39-2.76,1.16-3.67.78-.91,1.82-1.37,3.12-1.37,1.17,0,2.16.39,2.97,1.18Zm-.96,6.08c.37-.77.56-1.63.56-2.57,0-.85-.13-1.55-.41-2.08-.43-.84-1.17-1.26-2.21-1.26-.93,0-1.61.36-2.03,1.08-.42.72-.63,1.58-.63,2.59s.21,1.78.63,2.43c.42.65,1.09.97,2.01.97,1.01,0,1.7-.38,2.07-1.16Z" style="fill:#0094e2;"/><path d="m550.8,144.68h1.46v1.58c.12-.31.41-.68.88-1.12s1-.66,1.62-.66c.03,0,.08,0,.15,0s.18.02.35.03v1.62c-.09-.02-.17-.03-.25-.03-.08,0-.16,0-.25,0-.77,0-1.37.25-1.79.75-.42.5-.62,1.07-.62,1.72v5.26h-1.54v-9.15Z" style="fill:#0094e2;"/><path d="m556.52,144.68h1.52v1.3c.36-.45.69-.78.99-.98.51-.35,1.08-.52,1.73-.52.73,0,1.32.18,1.76.54.25.21.48.51.68.91.34-.49.74-.85,1.2-1.09.46-.24.98-.35,1.56-.35,1.23,0,2.07.44,2.51,1.33.24.48.36,1.12.36,1.93v6.09h-1.6v-6.36c0-.61-.15-1.03-.46-1.26-.31-.23-.68-.34-1.12-.34-.6,0-1.12.2-1.56.61-.44.41-.65,1.08-.65,2.03v5.32h-1.56v-5.97c0-.62-.07-1.07-.22-1.36-.23-.43-.67-.64-1.31-.64-.58,0-1.11.23-1.58.68s-.71,1.26-.71,2.44v4.85h-1.54v-9.15Z" style="fill:#0094e2;"/><path d="m576.04,151.08c.38-.78,1.12-1.49,2.22-2.13l1.64-.95c.73-.43,1.25-.79,1.55-1.09.47-.47.7-1.02.7-1.63,0-.71-.21-1.28-.64-1.7-.43-.42-1-.63-1.71-.63-1.05,0-1.78.4-2.19,1.2-.22.43-.34,1.02-.36,1.78h-1.56c.02-1.06.21-1.93.59-2.61.67-1.18,1.84-1.78,3.53-1.78,1.4,0,2.42.38,3.07,1.14.65.76.97,1.6.97,2.53,0,.98-.34,1.82-1.03,2.51-.4.4-1.11.89-2.15,1.47l-1.17.65c-.56.31-1,.6-1.32.88-.57.5-.93,1.05-1.08,1.65h6.68v1.45h-8.4c.06-1.05.27-1.97.65-2.75Z" style="fill:#0094e2;"/><path d="m507.84,164.25h5.62c1.11,0,2.01.32,2.69.94.68.63,1.02,1.51,1.02,2.65,0,.98-.3,1.83-.91,2.56s-1.54,1.09-2.8,1.09h-3.92v5.31h-1.7v-12.55Zm6.6,1.73c-.37-.18-.89-.26-1.54-.26h-3.36v4.35h3.36c.76,0,1.37-.16,1.85-.49.47-.33.71-.9.71-1.72,0-.92-.34-1.55-1.02-1.88Z" style="fill:#0094e2;"/><path d="m518.81,164.25h1.54v12.55h-1.54v-12.55Z" style="fill:#0094e2;"/><path d="m527.4,171.26c.35-.05.59-.19.71-.44.07-.14.1-.33.1-.59,0-.53-.19-.91-.56-1.15-.37-.24-.91-.36-1.6-.36-.8,0-1.37.22-1.71.65-.19.24-.31.6-.37,1.07h-1.44c.03-1.13.39-1.92,1.1-2.36.7-.44,1.52-.67,2.45-.67,1.08,0,1.95.21,2.62.62.67.41,1,1.05,1,1.92v5.27c0,.16.03.29.1.38s.2.15.42.15c.07,0,.15,0,.23-.01.09,0,.18-.02.27-.04v1.14c-.24.07-.42.11-.55.13-.12.02-.3.03-.51.03-.53,0-.91-.19-1.15-.56-.13-.2-.21-.48-.26-.85-.31.41-.76.77-1.35,1.07-.59.3-1.23.45-1.94.45-.85,0-1.54-.26-2.08-.77-.54-.51-.81-1.16-.81-1.93,0-.85.27-1.5.79-1.97.53-.47,1.23-.75,2.08-.86l2.45-.31Zm-3.24,4.16c.33.26.71.38,1.15.38.54,0,1.06-.12,1.57-.38.85-.42,1.28-1.09,1.28-2.04v-1.24c-.19.12-.43.22-.72.3-.3.08-.59.14-.87.17l-.93.12c-.56.07-.98.19-1.26.35-.48.27-.71.69-.71,1.28,0,.44.16.79.49,1.05Z" style="fill:#0094e2;"/><path d="m532.27,165.09h1.55v2.55h1.46v1.26h-1.46v5.97c0,.32.11.53.33.64.12.06.32.09.6.09.07,0,.15,0,.24,0,.09,0,.19-.01.3-.03v1.22c-.18.05-.36.09-.55.11s-.4.03-.62.03c-.72,0-1.21-.18-1.46-.55-.26-.37-.38-.84-.38-1.43v-6.06h-1.24v-1.26h1.24v-2.55Z" style="fill:#0094e2;"/><path d="m537.82,164.85c.36-.52,1.05-.79,2.08-.79.1,0,.2,0,.3,0,.1,0,.22.01.35.03v1.4c-.16-.01-.28-.02-.35-.02-.07,0-.14,0-.2,0-.47,0-.75.12-.85.36-.09.24-.14.86-.14,1.85h1.54v1.21h-1.54v7.9h-1.52v-7.9h-1.27v-1.21h1.27v-1.44c.02-.64.13-1.11.33-1.4Z" style="fill:#0094e2;"/><path d="m548.36,168.56c.81.79,1.21,1.94,1.21,3.47s-.36,2.69-1.07,3.65-1.82,1.44-3.32,1.44c-1.25,0-2.24-.43-2.98-1.28s-1.1-1.99-1.1-3.43c0-1.54.39-2.76,1.16-3.67.77-.91,1.82-1.37,3.12-1.37,1.17,0,2.16.39,2.97,1.18Zm-.96,6.08c.38-.77.56-1.63.56-2.57,0-.85-.14-1.55-.41-2.08-.43-.84-1.17-1.26-2.21-1.26-.93,0-1.61.36-2.03,1.08-.42.72-.63,1.58-.63,2.59s.21,1.78.63,2.43c.42.65,1.09.97,2.01.97,1.01,0,1.7-.38,2.07-1.16Z" style="fill:#0094e2;"/><path d="m551.36,167.65h1.46v1.58c.12-.31.41-.68.88-1.12.47-.44,1.01-.66,1.62-.66.03,0,.08,0,.15,0s.18.02.35.03v1.62c-.09-.02-.18-.03-.25-.03-.08,0-.16,0-.25,0-.77,0-1.37.25-1.79.75-.42.5-.62,1.07-.62,1.72v5.26h-1.54v-9.15Z" style="fill:#0094e2;"/><path d="m557.08,167.65h1.52v1.3c.36-.45.7-.78.99-.98.51-.35,1.08-.52,1.73-.52.73,0,1.32.18,1.76.54.25.21.48.51.68.91.34-.49.74-.85,1.21-1.09.46-.24.98-.35,1.56-.35,1.23,0,2.07.44,2.51,1.33.24.48.36,1.12.36,1.93v6.09h-1.6v-6.36c0-.61-.15-1.03-.46-1.26s-.68-.34-1.12-.34c-.6,0-1.12.2-1.56.61-.44.41-.65,1.08-.65,2.03v5.32h-1.56v-5.97c0-.62-.07-1.07-.22-1.36-.23-.43-.67-.64-1.31-.64-.58,0-1.11.23-1.59.68s-.71,1.26-.71,2.44v4.85h-1.54v-9.15Z" style="fill:#0094e2;"/><path d="m577.07,168.14v-1.18c1.11-.11,1.89-.29,2.32-.54.44-.25.77-.85.98-1.8h1.21v12.18h-1.64v-8.66h-2.88Z" style="fill:#0094e2;"/><path d="m463.66,290.96h5.62c1.11,0,2.01.32,2.69.94.68.63,1.02,1.51,1.02,2.65,0,.98-.3,1.83-.91,2.56s-1.54,1.09-2.8,1.09h-3.92v5.31h-1.7v-12.55Zm6.6,1.73c-.37-.18-.89-.26-1.54-.26h-3.36v4.35h3.36c.76,0,1.37-.16,1.85-.49.47-.33.71-.9.71-1.72,0-.92-.34-1.55-1.02-1.88Z" style="fill:#0094e2;"/><path d="m474.62,290.96h1.54v12.55h-1.54v-12.55Z" style="fill:#0094e2;"/><path d="m483.22,297.98c.35-.05.59-.19.71-.44.07-.14.1-.33.1-.59,0-.53-.19-.91-.56-1.15-.37-.24-.91-.36-1.6-.36-.8,0-1.37.22-1.71.65-.19.24-.31.6-.37,1.07h-1.44c.03-1.13.39-1.92,1.1-2.36.7-.44,1.52-.67,2.45-.67,1.08,0,1.95.21,2.62.62.67.41,1,1.05,1,1.92v5.27c0,.16.03.29.1.38s.2.15.41.15c.07,0,.15,0,.23-.01.09,0,.18-.02.27-.04v1.14c-.24.07-.42.11-.55.13-.12.02-.3.03-.51.03-.53,0-.91-.19-1.15-.56-.13-.2-.21-.48-.26-.85-.31.41-.76.77-1.35,1.07-.59.3-1.23.45-1.94.45-.85,0-1.54-.26-2.08-.77-.54-.51-.81-1.16-.81-1.93,0-.85.27-1.5.79-1.97.53-.47,1.23-.75,2.08-.86l2.45-.31Zm-3.24,4.16c.33.26.71.38,1.15.38.54,0,1.06-.12,1.57-.38.85-.42,1.28-1.09,1.28-2.04v-1.24c-.19.12-.43.22-.72.3-.3.08-.59.14-.87.17l-.93.12c-.56.07-.98.19-1.26.35-.48.27-.71.69-.71,1.28,0,.44.16.79.49,1.05Z" style="fill:#0094e2;"/><path d="m488.08,291.81h1.56v2.55h1.46v1.26h-1.46v5.97c0,.32.11.53.32.64.12.06.32.09.6.09.07,0,.15,0,.24,0s.19-.01.3-.03v1.22c-.18.05-.36.09-.55.11-.19.02-.4.03-.62.03-.72,0-1.21-.18-1.46-.55-.26-.37-.38-.84-.38-1.43v-6.06h-1.24v-1.26h1.24v-2.55Z" style="fill:#0094e2;"/><path d="m493.64,291.57c.36-.52,1.05-.79,2.08-.79.1,0,.2,0,.3,0,.1,0,.22.01.35.03v1.4c-.16-.01-.28-.02-.35-.02-.07,0-.14,0-.2,0-.47,0-.75.12-.85.36-.09.24-.14.86-.14,1.85h1.54v1.21h-1.54v7.9h-1.52v-7.9h-1.27v-1.21h1.27v-1.44c.02-.64.13-1.11.33-1.4Z" style="fill:#0094e2;"/><path d="m504.17,295.28c.81.79,1.21,1.94,1.21,3.47s-.36,2.69-1.07,3.65c-.71.96-1.82,1.44-3.32,1.44-1.25,0-2.24-.43-2.98-1.28s-1.1-1.99-1.1-3.43c0-1.54.39-2.76,1.16-3.67.77-.91,1.82-1.37,3.12-1.37,1.17,0,2.16.39,2.97,1.18Zm-.96,6.08c.37-.77.56-1.63.56-2.57,0-.85-.14-1.55-.41-2.08-.43-.84-1.17-1.26-2.21-1.26-.93,0-1.61.36-2.03,1.08s-.63,1.58-.63,2.59.21,1.78.63,2.43,1.09.97,2.01.97c1.01,0,1.7-.38,2.07-1.16Z" style="fill:#0094e2;"/><path d="m507.18,294.36h1.46v1.58c.12-.31.41-.68.88-1.12.47-.44,1.01-.66,1.62-.66.03,0,.08,0,.15,0s.18.02.35.03v1.62c-.09-.02-.18-.03-.25-.03-.08,0-.16,0-.25,0-.77,0-1.37.25-1.79.75-.42.5-.62,1.07-.62,1.72v5.26h-1.54v-9.15Z" style="fill:#0094e2;"/><path d="m512.9,294.36h1.52v1.3c.36-.45.69-.78.99-.98.51-.35,1.08-.52,1.73-.52.73,0,1.32.18,1.76.54.25.21.48.51.68.91.34-.49.74-.85,1.2-1.09.46-.24.98-.35,1.56-.35,1.23,0,2.07.44,2.51,1.33.24.48.36,1.12.36,1.93v6.09h-1.6v-6.36c0-.61-.15-1.03-.46-1.26-.31-.23-.68-.34-1.12-.34-.6,0-1.12.2-1.56.61-.44.41-.65,1.08-.65,2.03v5.32h-1.56v-5.97c0-.62-.07-1.07-.22-1.36-.23-.43-.67-.64-1.31-.64-.58,0-1.11.23-1.59.68s-.71,1.26-.71,2.44v4.85h-1.54v-9.15Z" style="fill:#0094e2;"/><path d="m536.39,290.76c-.89,1.74-1.48,3.02-1.74,3.84-.41,1.25-.61,2.69-.61,4.32s.23,3.16.69,4.53c.29.84.85,2.06,1.68,3.64h-1.03c-.83-1.3-1.35-2.13-1.55-2.49-.2-.36-.42-.85-.65-1.46-.32-.84-.54-1.74-.67-2.7-.06-.5-.09-.97-.09-1.42,0-1.69.26-3.19.79-4.5.34-.84,1.04-2.09,2.1-3.76h1.07Z" style="fill:#0094e2;"/><path d="m545.97,291.32c1.23.66,1.98,1.8,2.26,3.44h-1.68c-.2-.92-.62-1.58-1.25-2-.63-.42-1.42-.63-2.38-.63-1.14,0-2.1.44-2.87,1.31-.78.87-1.17,2.17-1.17,3.9,0,1.49.32,2.71.96,3.64.64.94,1.69,1.41,3.14,1.41,1.11,0,2.03-.33,2.76-.99.73-.66,1.1-1.72,1.12-3.19h-3.93v-1.41h5.51v6.72h-1.09l-.41-1.62c-.57.63-1.07,1.07-1.5,1.32-.73.42-1.67.63-2.8.63-1.46,0-2.72-.48-3.77-1.44-1.15-1.21-1.72-2.87-1.72-4.97s.56-3.77,1.68-5.02c1.07-1.18,2.45-1.78,4.14-1.78,1.16,0,2.17.23,3.02.68Z" style="fill:#0094e2;"/><path d="m556.53,294.62c.61.3,1.07.7,1.38,1.18.31.46.51,1,.61,1.62.09.42.14,1.09.14,2.02h-6.66c.03.93.25,1.68.65,2.24s1.04.84,1.89.84c.8,0,1.43-.27,1.91-.8.27-.31.45-.67.56-1.07h1.51c-.04.34-.17.71-.4,1.12-.22.41-.48.75-.75,1.01-.46.46-1.04.76-1.72.92-.37.09-.78.14-1.25.14-1.13,0-2.09-.42-2.88-1.24-.79-.83-1.18-1.99-1.18-3.48s.4-2.66,1.19-3.58,1.83-1.38,3.11-1.38c.65,0,1.27.15,1.88.46Zm.55,3.59c-.06-.67-.21-1.2-.43-1.6-.42-.74-1.12-1.11-2.09-1.11-.7,0-1.29.25-1.76.76-.47.51-.73,1.16-.75,1.94h5.04Z" style="fill:#0094e2;"/><path d="m560.64,291.81h1.56v2.55h1.46v1.26h-1.46v5.97c0,.32.11.53.32.64.12.06.32.09.6.09.07,0,.15,0,.24,0,.08,0,.18-.01.3-.03v1.22c-.18.05-.36.09-.55.11-.19.02-.4.03-.62.03-.72,0-1.21-.18-1.46-.55-.26-.37-.38-.84-.38-1.43v-6.06h-1.24v-1.26h1.24v-2.55Z" style="fill:#0094e2;"/><path d="m565.8,291.81h1.55v2.55h1.46v1.26h-1.46v5.97c0,.32.11.53.33.64.12.06.32.09.6.09.07,0,.15,0,.24,0,.09,0,.19-.01.3-.03v1.22c-.18.05-.36.09-.55.11s-.4.03-.62.03c-.72,0-1.21-.18-1.46-.55-.26-.37-.38-.84-.38-1.43v-6.06h-1.24v-1.26h1.24v-2.55Z" style="fill:#0094e2;"/><path d="m570.29,290.96h1.56v1.74h-1.56v-1.74Zm0,3.44h1.56v9.11h-1.56v-9.11Z" style="fill:#0094e2;"/><path d="m574.03,294.36h1.46v1.3c.43-.54.89-.92,1.38-1.15s1.02-.35,1.62-.35c1.3,0,2.18.45,2.63,1.36.25.5.38,1.21.38,2.13v5.87h-1.56v-5.77c0-.56-.08-1.01-.25-1.35-.27-.57-.77-.85-1.49-.85-.36,0-.66.04-.9.11-.42.13-.79.38-1.11.75-.26.3-.42.61-.5.94-.08.32-.12.78-.12,1.38v4.79h-1.54v-9.15Z" style="fill:#0094e2;"/><path d="m588.82,294.73c.29.2.58.49.88.87v-1.15h1.42v8.32c0,1.16-.17,2.08-.51,2.75-.64,1.24-1.84,1.86-3.6,1.86-.98,0-1.81-.22-2.48-.66s-1.04-1.13-1.12-2.07h1.56c.07.41.22.73.44.95.34.34.89.51,1.63.51,1.17,0,1.94-.42,2.3-1.25.21-.49.31-1.36.3-2.62-.31.47-.67.82-1.11,1.04-.43.23-1,.34-1.71.34-.99,0-1.85-.35-2.59-1.06-.74-.7-1.11-1.87-1.11-3.49,0-1.53.37-2.73,1.12-3.59s1.65-1.29,2.7-1.29c.72,0,1.34.18,1.87.53Zm.19,1.65c-.46-.55-1.06-.82-1.78-.82-1.08,0-1.81.51-2.21,1.52-.21.54-.31,1.25-.31,2.13,0,1.03.21,1.82.62,2.35.42.54.98.81,1.68.81,1.1,0,1.87-.5,2.32-1.5.25-.56.37-1.22.37-1.97,0-1.13-.23-1.97-.7-2.52Z" style="fill:#0094e2;"/><path d="m608.87,292.76c.83,1.11,1.25,2.53,1.25,4.26,0,1.88-.48,3.43-1.43,4.67-1.12,1.46-2.71,2.19-4.78,2.19-1.93,0-3.45-.64-4.55-1.91-.99-1.23-1.48-2.79-1.48-4.67,0-1.7.42-3.15,1.26-4.36,1.08-1.55,2.68-2.32,4.8-2.32s3.86.71,4.92,2.14Zm-1.5,8c.67-1.07,1-2.31,1-3.71,0-1.48-.39-2.67-1.16-3.57-.77-.9-1.83-1.35-3.17-1.35s-2.36.45-3.18,1.34-1.23,2.21-1.23,3.95c0,1.39.35,2.56,1.05,3.52.7.96,1.84,1.43,3.42,1.43s2.58-.54,3.25-1.61Z" style="fill:#0094e2;"/><path d="m612.79,291.57c.36-.52,1.05-.79,2.08-.79.1,0,.2,0,.3,0,.1,0,.22.01.35.03v1.4c-.16-.01-.28-.02-.35-.02s-.14,0-.2,0c-.47,0-.75.12-.85.36-.09.24-.14.86-.14,1.85h1.54v1.21h-1.54v7.9h-1.52v-7.9h-1.27v-1.21h1.27v-1.44c.02-.64.13-1.11.33-1.4Z" style="fill:#0094e2;"/><path d="m617.99,291.57c.36-.52,1.05-.79,2.08-.79.1,0,.2,0,.3,0,.1,0,.22.01.35.03v1.4c-.16-.01-.28-.02-.35-.02s-.14,0-.2,0c-.47,0-.75.12-.85.36-.09.24-.14.86-.14,1.85h1.54v1.21h-1.54v7.9h-1.52v-7.9h-1.27v-1.21h1.27v-1.44c.02-.64.13-1.11.33-1.4Z" style="fill:#0094e2;"/><path d="m621.81,307.09c.91-1.77,1.49-3.05,1.75-3.86.4-1.22.6-2.66.6-4.31s-.23-3.15-.69-4.52c-.29-.84-.85-2.06-1.68-3.64h1.03c.88,1.4,1.41,2.27,1.59,2.59.19.33.39.78.6,1.35.27.71.47,1.42.59,2.11.12.7.17,1.36.17,2.01,0,1.69-.27,3.19-.8,4.51-.34.85-1.03,2.1-2.09,3.75h-1.07Z" style="fill:#0094e2;"/><line x1="22.77" y1="89.93" x2="753.67" y2="89.93" style="fill:none; stroke:#4d4948; stroke-miterlimit:10; stroke-width:7.56px;"/><line x1="22.77" y1="89.93" x2="753.67" y2="89.93" style="fill:none; stroke:#fff; stroke-miterlimit:10; stroke-width:5.04px;"/><line x1="22.77" y1="89.93" x2="753.67" y2="89.93" style="fill:none; stroke:#4d4948; stroke-dasharray:0 0 25.2 25.2; stroke-miterlimit:10; stroke-width:5.04px;"/><rect x="923.27" y="410.65" width="79.75" height="10.64" style="fill:#fff; stroke:#545454; stroke-miterlimit:10; stroke-width:.5px;"/><rect x="923.27" y="378.73" width="79.75" height="10.64" style="fill:#fff; stroke:#545454; stroke-miterlimit:10; stroke-width:.5px;"/><rect x="923.27" y="389.37" width="79.75" height="10.64" style="fill:#fff; stroke:#545454; stroke-miterlimit:10; stroke-width:.5px;"/><rect x="923.27" y="400.01" width="79.75" height="10.64" style="fill:#fff; stroke:#545454; stroke-miterlimit:10; stroke-width:.5px;"/><rect x="1020.51" y="204.62" width="8.8" height="174.47" style="fill:#fff; stroke:#545454; stroke-miterlimit:10; stroke-width:.5px;"/><rect x="1002.91" y="204.62" width="8.8" height="174.47" style="fill:#fff; stroke:#545454; stroke-miterlimit:10; stroke-width:.5px;"/><rect x="1011.71" y="204.62" width="8.8" height="174.47" style="fill:#fff; stroke:#545454; stroke-miterlimit:10; stroke-width:.5px;"/><rect x="870.78" y="260.59" width="37.6" height="10.54" style="fill:#ffffc8; stroke:#545454; stroke-miterlimit:10; stroke-width:.5px;"/><rect x="870.78" y="280.87" width="37.6" height="10.54" style="fill:#ffffc8; stroke:#545454; stroke-miterlimit:10; stroke-width:.5px;"/><rect x="870.78" y="301.15" width="37.6" height="10.54" style="fill:#ffffc8; stroke:#545454; stroke-miterlimit:10; stroke-width:.5px;"/><rect x="870.78" y="240.31" width="37.6" height="10.54" style="fill:#ffffc8; stroke:#545454; stroke-miterlimit:10; stroke-width:.5px;"/><rect x="870.78" y="220.04" width="37.6" height="10.54" style="fill:#ffffc8; stroke:#545454; stroke-miterlimit:10; stroke-width:.5px;"/><rect x="279.72" y="259.43" width="9.23" height="33.4" style="fill:#fff; stroke:#545454; stroke-miterlimit:10; stroke-width:.5px;"/><rect x="252.04" y="259.43" width="9.23" height="33.4" style="fill:#fff; stroke:#545454; stroke-miterlimit:10; stroke-width:.5px;"/><rect x="261.26" y="259.43" width="9.23" height="33.4" style="fill:#fff; stroke:#545454; stroke-miterlimit:10; stroke-width:.5px;"/><rect x="270.49" y="259.43" width="9.23" height="33.4" style="fill:#fff; stroke:#545454; stroke-miterlimit:10; stroke-width:.5px;"/><rect x="252.04" y="259.67" width="36.92" height="2.89" style="fill:#545454; stroke:#545454; stroke-miterlimit:10; stroke-width:.5px;"/><rect x="252.04" y="289.94" width="36.92" height="2.89" style="fill:#545454; stroke:#545454; stroke-miterlimit:10; stroke-width:.5px;"/><rect x="279.72" y="142.77" width="9.23" height="51.75" style="fill:#fff; stroke:#545454; stroke-miterlimit:10; stroke-width:.5px;"/><rect x="252.04" y="142.77" width="9.23" height="51.75" style="fill:#fff; stroke:#545454; stroke-miterlimit:10; stroke-width:.5px;"/><rect x="261.26" y="142.77" width="9.23" height="51.75" style="fill:#fff; stroke:#545454; stroke-miterlimit:10; stroke-width:.5px;"/><rect x="270.49" y="142.77" width="9.23" height="51.75" style="fill:#fff; stroke:#545454; stroke-miterlimit:10; stroke-width:.5px;"/><rect x="252.04" y="143" width="36.92" height="2.89" style="fill:#545454; stroke:#545454; stroke-miterlimit:10; stroke-width:.5px;"/><rect x="252.04" y="191.63" width="36.92" height="2.89" style="fill:#545454; stroke:#545454; stroke-miterlimit:10; stroke-width:.5px;"/><rect x="190.17" y="298.19" width="37.6" height="10.54" style="fill:#ffffc8; stroke:#545454; stroke-miterlimit:10; stroke-width:.5px;"/><rect x="190.17" y="278.9" width="37.6" height="10.54" style="fill:#ffffc8; stroke:#545454; stroke-miterlimit:10; stroke-width:.5px;"/><rect x="188.11" y="333.23" width="44.18" height="44.18" rx="3.52" ry="3.52" style="fill:none; stroke:#0094e2; stroke-linecap:round; stroke-linejoin:round; stroke-width:3.52px;"/><rect x="187.05" y="332.18" width="44.18" height="44.18" rx="3.52" ry="3.52" style="fill:#fff;"/><rect x="187.05" y="332.18" width="44.18" height="44.18" rx="3.52" ry="3.52" style="fill:none; stroke:#0094e2; stroke-linecap:round; stroke-linejoin:round; stroke-width:1.76px;"/><polygon points="216.37 344.26 200.56 344.26 197.23 337.5 217.41 340.31 216.37 344.26" style="fill:#0094e2;"/><path d="m200.25,346.24h15.71v4.99c0,2.5-2.08,6.55-7.18,6.55s-7.39-4.37-7.39-5.83v-2.39h-3.95l2.81-3.33Z" style="fill:#0094e2;"/><path d="m227.4,374.43c.52-4.06.1-8.01-1.98-10.19-2.08-2.18-5.83-3.74-11.86-3.74l-4.37,8.43-5.3-8.43s-5.1.52-7.07,1.35c-1.98.83-6.76,5.2-4.99,11.96.12.45.27,1.06.45,1.74h34.97c.05-.38.11-.75.15-1.11Z" style="fill:#0094e2;"/><rect x="923.94" y="20.65" width="30.59" height="173.07" style="fill:#e6e6e6; stroke:#545454; stroke-miterlimit:10; stroke-width:.5px;"/><polygon points="825.95 20.65 825.95 120.56 845.9 120.56 845.9 193.72 923.94 193.72 923.94 20.65 825.95 20.65" style="fill:#fff; stroke:#545454; stroke-miterlimit:10; stroke-width:.5px;"/><rect x="863.3" y="60.88" width="44.18" height="44.18" rx="3.52" ry="3.52" style="fill:none; stroke:#0094e2; stroke-linecap:round; stroke-linejoin:round; stroke-width:3.52px;"/><rect x="862.25" y="59.83" width="44.18" height="44.18" rx="3.52" ry="3.52" style="fill:#fff;"/><rect x="862.25" y="59.83" width="44.18" height="44.18" rx="3.52" ry="3.52" style="fill:none; stroke:#0094e2; stroke-linecap:round; stroke-linejoin:round; stroke-width:1.76px;"/><polygon points="891.57 71.92 875.76 71.92 872.43 65.16 892.61 67.96 891.57 71.92" style="fill:#0094e2;"/><path d="m875.45,73.89h15.71v4.99c0,2.5-2.08,6.55-7.18,6.55s-7.39-4.37-7.39-5.83v-2.39h-3.95l2.81-3.33Z" style="fill:#0094e2;"/><path d="m902.6,102.08c.52-4.06.1-8.01-1.98-10.19-2.08-2.18-5.83-3.74-11.86-3.74l-4.37,8.43-5.3-8.43s-5.1.52-7.07,1.35c-1.98.83-6.76,5.2-4.99,11.96.12.45.27,1.06.45,1.74h34.97c.05-.38.11-.75.15-1.11Z" style="fill:#0094e2;"/><rect x="126.01" y="333.23" width="44.18" height="44.18" rx="3.52" ry="3.52" style="fill:none; stroke:#f04d13; stroke-linecap:round; stroke-linejoin:round; stroke-width:3.52px;"/><rect x="124.95" y="332.18" width="44.18" height="44.18" rx="3.52" ry="3.52" style="fill:#f7931e;"/><rect x="124.95" y="332.18" width="44.18" height="44.18" rx="3.52" ry="3.52" style="fill:none; stroke:#f04d13; stroke-linecap:round; stroke-linejoin:round; stroke-width:1.76px;"/><path d="m151.32,363.54v-1.68h-1.63v-.75h1.63v-.67h-1.63v-.75h1.26l-1.72-2.98h1.72l.73,1.68c.18.42.31.78.44,1.14h.02c.14-.34.27-.74.45-1.15l.75-1.67h1.68l-1.79,2.98h1.25v.75h-1.65v.67h1.65v.75h-1.65v1.68h-1.5Z" style="fill:#fff;"/><path d="m143.47,362.89c-.36,0-.65.29-.65.65s.29.65.65.65.65-.29.65-.65-.29-.65-.65-.65" style="fill:#fff;"/><path d="m143.47,360.45c-.36,0-.65.29-.65.65s.29.65.65.65.65-.29.65-.65-.29-.65-.65-.65" style="fill:#fff;"/><path d="m160.57,352.63h-23.51v14.52h24.69v-14.52h-1.18Zm0,13.34h-16.45c0-.36-.29-.65-.65-.65s-.65.29-.65.65h-4.58v-12.15h4.58c0,.36.29.65.65.65s.65-.29.65-.65h16.45v12.15Z" style="fill:#fff;"/><path d="m143.47,358.02c-.36,0-.65.29-.65.65s.29.65.65.65.65-.29.65-.65-.29-.65-.65-.65" style="fill:#fff;"/><path d="m143.47,355.59c-.36,0-.65.29-.65.65s.29.65.65.65.65-.29.65-.65-.29-.65-.65-.65" style="fill:#fff;"/><polygon points="139.1 350.83 153.56 342.99 158.15 351.45 159.5 351.45 154.6 342.42 154.04 341.39 153 341.95 138.54 349.79 138.44 349.85 137.4 350.41 133.37 352.6 132.33 353.16 132.9 354.2 135.88 359.69 135.88 357.21 133.94 353.64 135.88 352.58 139.1 350.83" style="fill:#fff;"/><rect x="932.62" y="57.18" width="44.18" height="44.18" rx="3.52" ry="3.52" style="fill:none; stroke:#f04d13; stroke-linecap:round; stroke-linejoin:round; stroke-width:3.52px;"/><rect x="931.56" y="56.12" width="44.18" height="44.18" rx="3.52" ry="3.52" style="fill:#f7931e;"/><rect x="931.56" y="56.12" width="44.18" height="44.18" rx="3.52" ry="3.52" style="fill:none; stroke:#f04d13; stroke-linecap:round; stroke-linejoin:round; stroke-width:1.76px;"/><path d="m957.93,87.48v-1.68h-1.63v-.75h1.63v-.67h-1.63v-.75h1.26l-1.72-2.98h1.72l.73,1.68c.18.42.31.78.44,1.14h.02c.14-.34.27-.74.45-1.15l.75-1.67h1.68l-1.79,2.98h1.25v.75h-1.65v.67h1.65v.75h-1.65v1.68h-1.5Z" style="fill:#fff;"/><path d="m950.08,86.83c-.36,0-.65.29-.65.65s.29.65.65.65.65-.29.65-.65-.29-.65-.65-.65" style="fill:#fff;"/><path d="m950.08,84.4c-.36,0-.65.29-.65.65s.29.65.65.65.65-.29.65-.65-.29-.65-.65-.65" style="fill:#fff;"/><path d="m967.18,76.58h-23.51v14.52h24.69v-14.52h-1.18Zm0,13.34h-16.45c0-.36-.29-.65-.65-.65s-.65.29-.65.65h-4.58v-12.15h4.58c0,.36.29.65.65.65s.65-.29.65-.65h16.45v12.15Z" style="fill:#fff;"/><path d="m950.08,81.97c-.36,0-.65.29-.65.65s.29.65.65.65.65-.29.65-.65-.29-.65-.65-.65" style="fill:#fff;"/><path d="m950.08,79.54c-.36,0-.65.29-.65.65s.29.65.65.65.65-.29.65-.65-.29-.65-.65-.65" style="fill:#fff;"/><polygon points="945.72 74.78 960.17 66.94 964.77 75.4 966.11 75.4 961.21 66.37 960.65 65.33 959.61 65.9 945.15 73.74 945.05 73.8 944.01 74.36 939.98 76.55 938.95 77.11 939.51 78.15 942.49 83.64 942.49 81.16 940.55 77.59 942.49 76.53 945.72 74.78" style="fill:#fff;"/><rect x="687.83" y="325.07" width="69.83" height="44.89" style="fill:#67d4ff; stroke:#545454; stroke-miterlimit:10; stroke-width:.5px;"/><rect x="700.78" y="332.01" width="44.18" height="44.18" rx="3.52" ry="3.52" style="fill:none; stroke:#0094e2; stroke-linecap:round; stroke-linejoin:round; stroke-width:3.52px;"/><rect x="699.72" y="330.95" width="44.18" height="44.18" rx="3.52" ry="3.52" style="fill:#fff;"/><rect x="699.72" y="330.95" width="44.18" height="44.18" rx="3.52" ry="3.52" style="fill:none; stroke:#0094e2; stroke-linecap:round; stroke-linejoin:round; stroke-width:1.76px;"/><polygon points="717.3 369.19 712.49 369.19 709.65 346.06 720.14 346.06 717.3 369.19" style="fill:#0094e2;"/><polygon points="726.33 346.06 731.14 346.06 733.98 369.19 723.49 369.19 726.33 346.06" style="fill:#ec0e8d;"/><circle cx="714.89" cy="340.83" r="3.93" style="fill:#0094e2;"/><circle cx="728.73" cy="340.83" r="3.93" style="fill:#ec0e8d;"/><polyline points="222.54 56.71 775.62 56.71 775.62 121.89 222.54 121.89 222.54 195.05 222.62 195.05" style="fill:none; stroke:#545454; stroke-miterlimit:10; stroke-width:.5px;"/><polyline points="121.24 325.4 923.27 325.4 923.27 378.61 1003.02 378.61 1003.02 .25 923.94 .25 923.94 20.2 222.54 20.2" style="fill:none; stroke:#545454; stroke-miterlimit:10; stroke-width:.5px;"/><polyline points="251.22 195.05 775.62 195.05 775.62 260.22 251.54 260.22" style="fill:none; stroke:#545454; stroke-miterlimit:10; stroke-width:.5px;"/><rect x="919.38" y="221.5" width="96.61" height="53.44" rx="3.86" ry="3.86" style="fill:#ed0030;"/><rect x="919.38" y="221.5" width="96.61" height="53.44" rx="3.86" ry="3.86" style="fill:none; stroke:#545454; stroke-linecap:round; stroke-linejoin:round; stroke-width:1.89px;"/><polyline points="920.2 249.57 908.18 255.7 923.88 257.67" style="fill:#ed0030; stroke:#545454; stroke-linecap:round; stroke-linejoin:round; stroke-width:1.89px;"/><line x1="222.62" y1="195.12" x2="222.62" y2="260.9" style="fill:none; stroke:#545454; stroke-dasharray:0 0 3 3; stroke-miterlimit:10; stroke-width:.5px;"/><line x1="251.86" y1="195.12" x2="251.86" y2="260.9" style="fill:none; stroke:#545454; stroke-dasharray:0 0 3 3; stroke-miterlimit:10; stroke-width:.5px;"/><line x1="218.95" y1="195.05" x2="22.77" y2="195.05" style="fill:none; stroke:#545454; stroke-miterlimit:10; stroke-width:.5px;"/><line x1="800.23" y1="163.12" x2="803.38" y2="163.12" style="fill:none; stroke:#39b54a; stroke-miterlimit:10; stroke-width:4.41px;"/><line x1="811.03" y1="163.12" x2="822.52" y2="163.12" style="fill:none; stroke:#39b54a; stroke-dasharray:0 0 7.65 7.65; stroke-miterlimit:10; stroke-width:4.41px;"/><polyline points="826.34 163.12 829.49 163.12 829.49 166.27" style="fill:none; stroke:#39b54a; stroke-miterlimit:10; stroke-width:4.41px;"/><line x1="829.49" y1="172.29" x2="829.49" y2="289.65" style="fill:none; stroke:#39b54a; stroke-dasharray:0 0 6.02 6.02; stroke-miterlimit:10; stroke-width:4.41px;"/><polyline points="829.49 292.66 829.49 295.81 832.64 295.81" style="fill:none; stroke:#39b54a; stroke-miterlimit:10; stroke-width:4.41px;"/><line x1="839.08" y1="295.81" x2="938.85" y2="295.81" style="fill:none; stroke:#39b54a; stroke-dasharray:0 0 6.44 6.44; stroke-miterlimit:10; stroke-width:4.41px;"/><line x1="942.07" y1="295.81" x2="945.22" y2="295.81" style="fill:none; stroke:#39b54a; stroke-miterlimit:10; stroke-width:4.41px;"/><line x1="240.23" y1="275.52" x2="243.38" y2="275.52" style="fill:none; stroke:#39b54a; stroke-miterlimit:10; stroke-width:4.41px;"/><line x1="249.69" y1="275.52" x2="814.2" y2="275.52" style="fill:none; stroke:#39b54a; stroke-dasharray:0 0 6.31 6.31; stroke-miterlimit:10; stroke-width:4.41px;"/><line x1="817.35" y1="275.52" x2="820.5" y2="275.52" style="fill:none; stroke:#39b54a; stroke-miterlimit:10; stroke-width:4.41px;"/><line x1="20.98" y1="228.26" x2="751.88" y2="228.26" style="fill:none; stroke:#4d4948; stroke-miterlimit:10; stroke-width:7.56px;"/><line x1="20.98" y1="228.26" x2="751.88" y2="228.26" style="fill:none; stroke:#fff; stroke-miterlimit:10; stroke-width:5.04px;"/><line x1="20.98" y1="228.26" x2="751.88" y2="228.26" style="fill:none; stroke:#4d4948; stroke-dasharray:0 0 25.2 25.2; stroke-miterlimit:10; stroke-width:5.04px;"/><line x1="110.74" y1="293.81" x2="113.89" y2="293.81" style="fill:none; stroke:#39b54a; stroke-miterlimit:10; stroke-width:4.41px;"/><line x1="120.21" y1="293.81" x2="230.79" y2="293.81" style="fill:none; stroke:#39b54a; stroke-dasharray:0 0 6.32 6.32; stroke-miterlimit:10; stroke-width:4.41px;"/><polyline points="233.95 293.81 237.1 293.81 237.1 290.66" style="fill:none; stroke:#39b54a; stroke-miterlimit:10; stroke-width:4.41px;"/><line x1="237.1" y1="284.59" x2="237.1" y2="166.3" style="fill:none; stroke:#39b54a; stroke-dasharray:0 0 6.07 6.07; stroke-miterlimit:10; stroke-width:4.41px;"/><polyline points="237.1 163.27 237.1 160.12 240.25 160.12" style="fill:none; stroke:#39b54a; stroke-miterlimit:10; stroke-width:4.41px;"/><polyline points="246.59 160.12 368.79 160.12 399.38 132.53 759.86 132.53 793.48 159.2" style="fill:none; stroke:#39b54a; stroke-dasharray:0 0 6.33 6.33; stroke-miterlimit:10; stroke-width:4.41px;"/><polyline points="795.97 161.16 798.43 163.12 795.63 164.57" style="fill:none; stroke:#39b54a; stroke-miterlimit:10; stroke-width:4.41px;"/><polyline points="790.03 167.46 757.2 184.4 399.38 184.4 373.97 166.72" style="fill:none; stroke:#39b54a; stroke-dasharray:0 0 6.31 6.31; stroke-miterlimit:10; stroke-width:4.41px;"/><line x1="371.38" y1="164.92" x2="368.79" y2="163.12" style="fill:none; stroke:#39b54a; stroke-miterlimit:10; stroke-width:4.41px;"/><rect x="245.88" y="307.3" width="138.58" height="59.85" rx="4.09" ry="4.09" style="fill:#ed0030;"/><rect x="245.88" y="307.3" width="138.58" height="59.85" rx="4.09" ry="4.09" style="fill:none; stroke:#545454; stroke-linecap:round; stroke-linejoin:round; stroke-width:2px;"/><polyline points="248.88 320.08 229.92 311.1 246.88 333.05" style="fill:#ed0030; stroke:#545454; stroke-linecap:round; stroke-linejoin:round; stroke-width:1.89px;"/><path d="m684.9,387.13h5.85c.96,0,1.76.14,2.38.43,1.19.55,1.78,1.56,1.78,3.04,0,.77-.16,1.4-.48,1.89-.32.49-.76.88-1.34,1.18.5.2.88.47,1.14.81.25.33.4.87.42,1.62l.06,1.73c.02.49.06.86.12,1.1.1.41.29.67.56.79v.29h-2.14c-.06-.11-.11-.25-.14-.43-.04-.17-.06-.51-.09-1.02l-.1-2.15c-.04-.84-.34-1.41-.91-1.69-.32-.16-.83-.24-1.52-.24h-3.86v5.52h-1.74v-12.88Zm5.67,5.9c.8,0,1.42-.16,1.89-.49.46-.33.7-.92.7-1.77,0-.92-.32-1.54-.97-1.88-.35-.17-.81-.26-1.39-.26h-4.14v4.4h3.92Z" style="fill:gray;"/><path d="m703,390.88c.62.31,1.09.72,1.42,1.21.31.47.52,1.03.63,1.66.09.43.14,1.12.14,2.07h-6.83c.03.96.25,1.72.67,2.3.42.58,1.06.87,1.94.87.82,0,1.47-.27,1.96-.82.27-.32.47-.68.58-1.1h1.55c-.04.34-.18.73-.41,1.15-.23.42-.49.77-.77,1.04-.48.47-1.06.78-1.77.95-.38.09-.8.14-1.28.14-1.16,0-2.15-.42-2.95-1.28-.81-.85-1.21-2.04-1.21-3.57s.41-2.73,1.22-3.67c.81-.94,1.88-1.41,3.19-1.41.66,0,1.3.16,1.93.47Zm.57,3.69c-.06-.68-.21-1.23-.44-1.64-.43-.76-1.14-1.14-2.15-1.14-.72,0-1.32.26-1.81.78-.49.52-.74,1.19-.77,1.99h5.17Z" style="fill:gray;"/><path d="m707.96,397.06c.05.53.18.93.4,1.21.41.51,1.11.76,2.11.76.6,0,1.12-.13,1.58-.38s.68-.65.68-1.18c0-.4-.18-.71-.54-.92-.23-.13-.69-.28-1.37-.45l-1.27-.32c-.81-.2-1.41-.42-1.8-.67-.69-.43-1.03-1.02-1.03-1.77,0-.89.32-1.61.97-2.16.65-.55,1.52-.82,2.62-.82,1.43,0,2.47.42,3.1,1.25.4.53.59,1.09.58,1.7h-1.49c-.03-.35-.16-.68-.39-.97-.37-.41-1.01-.62-1.93-.62-.61,0-1.07.11-1.39.34-.31.23-.47.53-.47.9,0,.41.21.73.62.98.24.15.59.27,1.05.38l1.06.25c1.15.28,1.93.54,2.32.8.61.4.92,1.04.92,1.9s-.32,1.56-.96,2.17c-.64.61-1.62.91-2.93.91-1.41,0-2.42-.32-3-.95s-.9-1.42-.95-2.35h1.52Z" style="fill:gray;"/><path d="m716.25,388h1.6v2.62h1.5v1.29h-1.5v6.13c0,.33.11.55.33.66.12.06.33.1.61.1.08,0,.16,0,.25,0s.19-.01.31-.03v1.25c-.18.05-.37.09-.57.11-.2.02-.41.04-.64.04-.74,0-1.24-.19-1.5-.57-.26-.38-.39-.87-.39-1.47v-6.22h-1.27v-1.29h1.27v-2.62Z" style="fill:gray;"/><path d="m720.85,390.62h1.5v1.62c.12-.32.42-.7.9-1.15.48-.45,1.03-.68,1.66-.68.03,0,.08,0,.15,0,.07,0,.19.02.36.04v1.67c-.09-.02-.18-.03-.26-.04s-.17,0-.26,0c-.79,0-1.41.26-1.83.77-.43.51-.64,1.1-.64,1.77v5.4h-1.58v-9.39Z" style="fill:gray;"/><path d="m733.5,391.56c.83.81,1.25,1.99,1.25,3.56s-.37,2.76-1.1,3.75c-.73.99-1.87,1.48-3.4,1.48-1.28,0-2.3-.44-3.06-1.31-.75-.87-1.13-2.04-1.13-3.52,0-1.58.4-2.83,1.19-3.77.79-.93,1.86-1.4,3.2-1.4,1.2,0,2.22.4,3.05,1.21Zm-.98,6.24c.38-.79.58-1.67.58-2.64,0-.88-.14-1.59-.42-2.14-.44-.86-1.2-1.3-2.27-1.3-.95,0-1.65.37-2.08,1.1-.43.74-.65,1.62-.65,2.66s.22,1.83.65,2.5c.43.67,1.12,1,2.06,1,1.03,0,1.74-.4,2.13-1.19Z" style="fill:gray;"/><path d="m743.45,391.56c.83.81,1.25,1.99,1.25,3.56s-.37,2.76-1.1,3.75c-.73.99-1.87,1.48-3.4,1.48-1.28,0-2.3-.44-3.06-1.31-.75-.87-1.13-2.04-1.13-3.52,0-1.58.4-2.83,1.19-3.77.79-.93,1.86-1.4,3.2-1.4,1.2,0,2.22.4,3.05,1.21Zm-.98,6.24c.38-.79.58-1.67.58-2.64,0-.88-.14-1.59-.42-2.14-.44-.86-1.2-1.3-2.27-1.3-.95,0-1.65.37-2.08,1.1-.43.74-.65,1.62-.65,2.66s.22,1.83.65,2.5c.43.67,1.12,1,2.06,1,1.03,0,1.74-.4,2.13-1.19Z" style="fill:gray;"/><path d="m746.51,390.62h1.56v1.33c.37-.46.71-.8,1.02-1.01.52-.36,1.11-.54,1.77-.54.75,0,1.35.18,1.81.55.26.21.49.52.7.93.35-.5.76-.88,1.24-1.12.47-.24,1.01-.36,1.6-.36,1.26,0,2.12.46,2.58,1.37.25.49.37,1.15.37,1.98v6.25h-1.64v-6.52c0-.62-.16-1.05-.47-1.29-.31-.23-.69-.35-1.14-.35-.62,0-1.15.21-1.6.62s-.67,1.11-.67,2.08v5.46h-1.6v-6.13c0-.64-.08-1.1-.23-1.39-.24-.44-.69-.66-1.34-.66-.6,0-1.14.23-1.63.69-.49.46-.73,1.3-.73,2.51v4.98h-1.58v-9.39Z" style="fill:gray;"/><path d="m948.46,227.6v2.97h-5.02v13.82h-3.53v-13.82h-5.05v-2.97h13.6Z" style="fill:#fff;"/><path d="m953.49,227.49v3h-3.29v-3h3.29Zm0,4.48v12.42h-3.29v-12.42h3.29Z" style="fill:#fff;"/><path d="m967.25,236.43h-3.33c-.06-.46-.22-.88-.47-1.25-.36-.5-.93-.75-1.7-.75-1.09,0-1.84.54-2.24,1.63-.21.58-.32,1.34-.32,2.3s.11,1.64.32,2.2c.39,1.03,1.12,1.55,2.19,1.55.76,0,1.3-.21,1.62-.62.32-.41.51-.94.58-1.59h3.31c-.08.99-.43,1.92-1.07,2.8-1.02,1.42-2.53,2.13-4.52,2.13s-3.47-.59-4.41-1.78c-.94-1.18-1.41-2.72-1.41-4.61,0-2.13.52-3.79,1.56-4.98,1.04-1.19,2.48-1.78,4.31-1.78,1.56,0,2.83.35,3.82,1.05.99.7,1.58,1.93,1.76,3.7Z" style="fill:#fff;"/><path d="m980.76,244.39h-3.92l-2.97-5.31-1.34,1.4v3.91h-3.19v-16.74h3.19v9.05l4.04-4.67h4.02l-4.34,4.75,4.51,7.61Z" style="fill:#fff;"/><path d="m992.56,240.74c-.08.74-.47,1.48-1.15,2.24-1.06,1.21-2.55,1.81-4.47,1.81-1.58,0-2.97-.51-4.18-1.53-1.21-1.02-1.81-2.67-1.81-4.97,0-2.15.54-3.8,1.63-4.95,1.09-1.15,2.5-1.72,4.24-1.72,1.03,0,1.96.19,2.79.58.83.39,1.51,1,2.05,1.83.49.74.8,1.59.95,2.56.08.57.12,1.39.1,2.46h-8.5c.05,1.25.44,2.12,1.17,2.62.45.31.99.47,1.62.47.67,0,1.21-.19,1.63-.57.23-.21.43-.49.6-.85h3.32Zm-3.21-3.81c-.05-.86-.31-1.51-.78-1.95s-1.05-.67-1.74-.67c-.75,0-1.33.24-1.75.71s-.67,1.11-.78,1.91h5.05Z" style="fill:#fff;"/><path d="m1000.52,242.08v2.43l-1.54.06c-1.54.05-2.58-.21-3.14-.8-.37-.37-.55-.95-.55-1.72v-7.65h-1.73v-2.31h1.73v-3.46h3.21v3.46h2.02v2.31h-2.02v6.56c0,.51.06.83.19.95.13.13.52.19,1.18.19.1,0,.2,0,.31,0,.11,0,.22,0,.32-.02Z" style="fill:#fff;"/><path d="m954.02,268.08c-.93.57-2.07.85-3.42.85-2.22,0-4.05-.77-5.47-2.31-1.48-1.55-2.22-3.67-2.22-6.36s.75-4.9,2.25-6.54c1.5-1.64,3.47-2.46,5.94-2.46,2.13,0,3.85.54,5.14,1.62,1.29,1.08,2.04,2.43,2.23,4.05h-3.45c-.27-1.15-.92-1.95-1.95-2.4-.58-.25-1.22-.38-1.93-.38-1.35,0-2.46.51-3.33,1.53s-1.3,2.56-1.3,4.61.47,3.53,1.41,4.39,2.01,1.29,3.21,1.29,2.14-.34,2.89-1.02c.75-.68,1.22-1.57,1.39-2.67h-3.88v-2.8h7v9.01h-2.32l-.35-2.1c-.68.8-1.28,1.36-1.82,1.69Z" style="fill:#fff;"/><path d="m962.15,257.42c.86-1.09,2.33-1.64,4.42-1.64,1.36,0,2.57.27,3.62.81s1.58,1.56,1.58,3.05v5.7c0,.4,0,.87.02,1.44.02.43.09.71.19.87s.27.28.48.38v.48h-3.53c-.1-.25-.17-.49-.21-.71-.04-.22-.07-.47-.09-.75-.45.49-.96.9-1.55,1.24-.7.4-1.49.6-2.37.6-1.12,0-2.05-.32-2.79-.96s-1.1-1.55-1.1-2.73c0-1.53.59-2.63,1.77-3.32.65-.37,1.6-.64,2.85-.8l1.1-.14c.6-.08,1.03-.17,1.29-.29.46-.2.69-.5.69-.92,0-.51-.18-.86-.53-1.05-.35-.19-.87-.29-1.55-.29-.77,0-1.31.19-1.63.57-.23.28-.38.66-.46,1.14h-3.13c.07-1.09.37-1.98.91-2.68Zm2.42,8.73c.3.25.68.38,1.12.38.7,0,1.34-.21,1.93-.62.59-.41.89-1.16.92-2.25v-1.21c-.21.13-.41.23-.62.31-.21.08-.5.15-.86.22l-.73.14c-.68.12-1.17.27-1.47.44-.5.3-.75.76-.75,1.38,0,.55.16.95.47,1.2Z" style="fill:#fff;"/><path d="m980.22,266.18v2.43l-1.54.06c-1.54.05-2.58-.21-3.14-.8-.37-.37-.55-.95-.55-1.72v-7.65h-1.73v-2.31h1.73v-3.46h3.21v3.46h2.02v2.31h-2.02v6.56c0,.51.06.83.19.95.13.13.52.19,1.18.19.1,0,.2,0,.31,0,.11,0,.22,0,.32-.02Z" style="fill:#fff;"/><path d="m992.79,264.85c-.08.74-.47,1.48-1.15,2.24-1.06,1.21-2.55,1.81-4.47,1.81-1.58,0-2.97-.51-4.18-1.53-1.21-1.02-1.81-2.67-1.81-4.97,0-2.15.54-3.8,1.63-4.95,1.09-1.15,2.5-1.72,4.24-1.72,1.03,0,1.96.19,2.79.58.83.39,1.51,1,2.05,1.83.49.74.8,1.59.95,2.56.08.57.12,1.39.1,2.46h-8.5c.05,1.25.44,2.12,1.17,2.62.45.31.99.47,1.62.47.67,0,1.21-.19,1.63-.57.23-.21.43-.49.6-.85h3.31Zm-3.21-3.81c-.05-.86-.31-1.51-.78-1.95-.47-.44-1.05-.67-1.74-.67-.75,0-1.33.24-1.75.71s-.67,1.11-.78,1.91h5.05Z" style="fill:#fff;"/><path d="m266.79,317.39v2.97h-5.02v13.82h-3.53v-13.82h-5.05v-2.97h13.6Z" style="fill:#fff;"/><path d="m271.83,317.29v3h-3.29v-3h3.29Zm0,4.48v12.42h-3.29v-12.42h3.29Z" style="fill:#fff;"/><path d="m285.58,326.22h-3.33c-.06-.46-.22-.88-.47-1.25-.36-.5-.93-.75-1.7-.75-1.09,0-1.84.54-2.24,1.63-.21.58-.32,1.34-.32,2.3s.11,1.64.32,2.2c.39,1.03,1.12,1.55,2.19,1.55.76,0,1.3-.21,1.62-.62s.51-.94.58-1.59h3.32c-.08.99-.43,1.92-1.07,2.8-1.02,1.42-2.53,2.13-4.52,2.13s-3.47-.59-4.41-1.78c-.94-1.18-1.41-2.72-1.41-4.61,0-2.13.52-3.79,1.56-4.98,1.04-1.19,2.48-1.78,4.31-1.78,1.56,0,2.83.35,3.82,1.05.99.7,1.58,1.93,1.76,3.7Z" style="fill:#fff;"/><path d="m299.09,334.19h-3.92l-2.97-5.31-1.34,1.4v3.91h-3.19v-16.74h3.19v9.05l4.04-4.67h4.02l-4.34,4.75,4.51,7.61Z" style="fill:#fff;"/><path d="m310.89,330.54c-.08.74-.47,1.48-1.15,2.24-1.06,1.21-2.55,1.81-4.47,1.81-1.58,0-2.97-.51-4.18-1.53-1.21-1.02-1.81-2.67-1.81-4.97,0-2.15.54-3.8,1.63-4.95,1.09-1.15,2.5-1.72,4.24-1.72,1.03,0,1.96.19,2.79.58.83.39,1.51,1,2.05,1.83.49.74.8,1.59.95,2.56.08.57.12,1.39.1,2.46h-8.5c.05,1.25.44,2.12,1.17,2.62.45.31.99.47,1.62.47.67,0,1.21-.19,1.63-.57.23-.21.43-.49.6-.85h3.32Zm-3.21-3.81c-.05-.86-.31-1.51-.78-1.95-.47-.44-1.05-.67-1.74-.67-.75,0-1.33.24-1.75.71s-.67,1.11-.78,1.91h5.05Z" style="fill:#fff;"/><path d="m318.85,331.88v2.43l-1.54.06c-1.53.05-2.58-.21-3.14-.8-.36-.37-.55-.95-.55-1.72v-7.65h-1.73v-2.31h1.73v-3.46h3.21v3.46h2.02v2.31h-2.02v6.56c0,.51.06.83.19.95.13.13.52.19,1.18.19.1,0,.2,0,.31,0,.11,0,.22,0,.32-.02Z" style="fill:#fff;"/><path d="m337.98,333.78c-.93.57-2.07.85-3.42.85-2.23,0-4.05-.77-5.47-2.31-1.48-1.55-2.22-3.67-2.22-6.36s.75-4.9,2.24-6.54,3.48-2.46,5.94-2.46c2.13,0,3.85.54,5.14,1.62,1.29,1.08,2.04,2.43,2.23,4.05h-3.45c-.27-1.15-.92-1.95-1.95-2.4-.58-.25-1.22-.38-1.93-.38-1.35,0-2.46.51-3.33,1.53s-1.3,2.56-1.3,4.61.47,3.53,1.41,4.39,2.01,1.29,3.21,1.29,2.14-.34,2.89-1.02c.75-.68,1.22-1.57,1.39-2.67h-3.89v-2.8h7v9.01h-2.32l-.35-2.1c-.68.8-1.28,1.36-1.82,1.69Z" style="fill:#fff;"/><path d="m346.11,323.11c.86-1.09,2.33-1.64,4.42-1.64,1.36,0,2.57.27,3.62.81,1.06.54,1.58,1.56,1.58,3.05v5.7c0,.4,0,.87.02,1.44.02.43.09.71.19.87s.27.28.48.38v.48h-3.53c-.1-.25-.17-.49-.21-.71-.04-.22-.07-.47-.09-.75-.45.49-.96.9-1.55,1.24-.7.4-1.49.6-2.37.6-1.12,0-2.05-.32-2.79-.96s-1.1-1.55-1.1-2.73c0-1.53.59-2.63,1.77-3.32.65-.37,1.6-.64,2.85-.8l1.1-.14c.6-.08,1.03-.17,1.29-.29.46-.2.69-.5.69-.92,0-.51-.18-.86-.53-1.05-.35-.19-.87-.29-1.56-.29-.77,0-1.31.19-1.63.57-.23.28-.38.66-.46,1.14h-3.13c.07-1.09.37-1.98.91-2.68Zm2.42,8.73c.3.25.68.38,1.12.38.7,0,1.34-.21,1.93-.62.59-.41.89-1.16.92-2.25v-1.21c-.21.13-.41.23-.62.31-.21.08-.5.15-.86.22l-.73.14c-.68.12-1.17.27-1.47.44-.5.3-.75.76-.75,1.38,0,.55.16.95.47,1.2Z" style="fill:#fff;"/><path d="m364.18,331.88v2.43l-1.54.06c-1.53.05-2.58-.21-3.14-.8-.36-.37-.55-.95-.55-1.72v-7.65h-1.73v-2.31h1.73v-3.46h3.21v3.46h2.02v2.31h-2.02v6.56c0,.51.06.83.19.95.13.13.52.19,1.18.19.1,0,.2,0,.31,0,.11,0,.22,0,.32-.02Z" style="fill:#fff;"/><path d="m376.75,330.54c-.08.74-.47,1.48-1.15,2.24-1.06,1.21-2.55,1.81-4.47,1.81-1.58,0-2.97-.51-4.18-1.53-1.21-1.02-1.81-2.67-1.81-4.97,0-2.15.54-3.8,1.63-4.95,1.09-1.15,2.5-1.72,4.24-1.72,1.03,0,1.96.19,2.79.58.83.39,1.51,1,2.05,1.83.49.74.8,1.59.95,2.56.08.57.12,1.39.1,2.46h-8.5c.05,1.25.44,2.12,1.17,2.62.45.31.99.47,1.62.47.67,0,1.21-.19,1.63-.57.23-.21.43-.49.6-.85h3.32Zm-3.21-3.81c-.05-.86-.31-1.51-.78-1.95-.47-.44-1.05-.67-1.74-.67-.75,0-1.33.24-1.75.71s-.67,1.11-.78,1.91h5.05Z" style="fill:#fff;"/><path d="m256.36,358.75l-.67-.92c-.43-.55-.9-1.38-1.39-2.47-.88-1.96-1.31-3.88-1.31-5.78,0-1.72.37-3.44,1.1-5.14.5-1.16,1.22-2.4,2.18-3.74h2.03l-.58,1.06c-.79,1.45-1.34,2.98-1.65,4.57-.2,1.04-.3,2.18-.3,3.42,0,1.93.28,3.7.84,5.31.33.96.91,2.18,1.74,3.68h-1.99Z" style="fill:#fff;"/><path d="m270.62,340.94v2.46h-4.16v11.45h-2.93v-11.45h-4.18v-2.46h11.27Z" style="fill:#fff;"/><path d="m279.08,345.87c.87,1.09,1.3,2.38,1.3,3.86s-.43,2.8-1.3,3.88-2.19,1.61-3.96,1.61-3.09-.54-3.96-1.61-1.3-2.36-1.3-3.88.43-2.77,1.3-3.86,2.19-1.63,3.96-1.63,3.09.54,3.96,1.63Zm-3.96.64c-.79,0-1.39.28-1.82.84s-.64,1.35-.64,2.38.21,1.83.64,2.39c.42.56,1.03.84,1.82.84s1.39-.28,1.81-.84c.42-.56.63-1.36.63-2.39s-.21-1.83-.63-2.38c-.42-.56-1.03-.84-1.81-.84Z" style="fill:#fff;"/><path d="m288.02,347.39c-.23-.5-.67-.75-1.33-.75-.77,0-1.28.25-1.55.75-.15.28-.22.71-.22,1.27v6.19h-2.73v-10.27h2.61v1.5c.33-.53.65-.92.94-1.14.52-.4,1.2-.6,2.03-.6.79,0,1.42.17,1.91.52.39.32.69.73.89,1.24.35-.6.79-1.05,1.31-1.33.55-.28,1.17-.42,1.85-.42.45,0,.9.09,1.34.26.44.18.84.48,1.2.92.29.36.48.8.58,1.32.06.35.09.85.09,1.52l-.02,6.49h-2.76v-6.55c0-.39-.06-.71-.19-.96-.24-.48-.68-.72-1.32-.72-.74,0-1.26.31-1.54.93-.15.33-.22.72-.22,1.18v6.13h-2.71v-6.13c0-.61-.06-1.05-.19-1.33Z" style="fill:#fff;"/><path d="m307.93,345.87c.87,1.09,1.3,2.38,1.3,3.86s-.43,2.8-1.3,3.88-2.19,1.61-3.96,1.61-3.09-.54-3.96-1.61-1.3-2.36-1.3-3.88.43-2.77,1.3-3.86,2.19-1.63,3.96-1.63,3.09.54,3.96,1.63Zm-3.96.64c-.79,0-1.39.28-1.82.84s-.64,1.35-.64,2.38.21,1.83.64,2.39c.42.56,1.03.84,1.82.84s1.39-.28,1.81-.84c.42-.56.63-1.36.63-2.39s-.21-1.83-.63-2.38c-.42-.56-1.03-.84-1.81-.84Z" style="fill:#fff;"/><path d="m320.06,351.83c-.07.61-.39,1.23-.95,1.86-.88,1-2.11,1.5-3.7,1.5-1.31,0-2.46-.42-3.46-1.26-1-.84-1.5-2.22-1.5-4.12,0-1.78.45-3.15,1.35-4.1.9-.95,2.08-1.42,3.52-1.42.86,0,1.63.16,2.31.48.69.32,1.25.83,1.7,1.52.4.61.66,1.32.78,2.12.07.47.1,1.15.08,2.04h-7.04c.04,1.03.36,1.76.97,2.17.37.26.82.39,1.34.39.55,0,1-.16,1.35-.47.19-.17.36-.41.5-.71h2.75Zm-2.66-3.15c-.04-.71-.26-1.25-.65-1.62-.39-.37-.87-.55-1.44-.55-.62,0-1.11.2-1.45.59-.34.39-.56.92-.65,1.59h4.18Z" style="fill:#fff;"/><path d="m325.02,356.66c.29.25.78.37,1.46.37.97,0,1.62-.32,1.94-.97.21-.42.32-1.11.32-2.1v-.66c-.26.44-.54.77-.83.99-.54.41-1.23.61-2.09.61-1.32,0-2.38-.46-3.17-1.39-.79-.93-1.18-2.18-1.18-3.77s.38-2.82,1.14-3.86c.76-1.04,1.84-1.56,3.24-1.56.52,0,.97.08,1.35.24.65.27,1.18.77,1.59,1.49v-1.48h2.61v9.76c0,1.33-.22,2.33-.67,3-.77,1.16-2.24,1.74-4.42,1.74-1.32,0-2.39-.26-3.22-.77-.83-.52-1.29-1.29-1.38-2.31h2.93c.08.32.2.54.37.68Zm-.45-5.31c.37.87,1.02,1.3,1.96,1.3.63,0,1.16-.24,1.6-.71.43-.47.65-1.23.65-2.27,0-.98-.21-1.72-.62-2.23-.41-.51-.96-.76-1.66-.76-.94,0-1.6.44-1.95,1.33-.19.47-.28,1.05-.28,1.75,0,.6.1,1.13.3,1.6Z" style="fill:#fff;"/><path d="m340.39,353.4s-.09.13-.19.28-.22.3-.36.42c-.42.38-.83.64-1.22.77-.39.14-.85.21-1.38.21-1.52,0-2.55-.55-3.08-1.64-.3-.6-.44-1.5-.44-2.67v-6.2h2.76v6.2c0,.59.07,1.03.21,1.32.25.52.73.78,1.44.78.92,0,1.55-.37,1.89-1.11.18-.4.26-.93.26-1.59v-5.6h2.73v10.29h-2.61v-1.45Z" style="fill:#fff;"/><path d="m354.4,348.25h-2.76c-.05-.38-.18-.73-.39-1.04-.3-.42-.77-.62-1.41-.62-.91,0-1.53.45-1.86,1.35-.18.48-.26,1.11-.26,1.91s.09,1.36.26,1.82c.32.86.92,1.28,1.81,1.28.63,0,1.08-.17,1.34-.51s.42-.78.48-1.32h2.75c-.06.82-.36,1.59-.89,2.32-.84,1.18-2.09,1.76-3.75,1.76s-2.87-.49-3.65-1.47c-.78-.98-1.17-2.26-1.17-3.82,0-1.77.43-3.14,1.29-4.12.86-.98,2.05-1.47,3.57-1.47,1.29,0,2.35.29,3.17.87s1.31,1.6,1.46,3.07Z" style="fill:#fff;"/><path d="m365.45,348.81v6.04h-2.75v-6.26c0-.55-.09-1-.28-1.34-.25-.48-.71-.72-1.4-.72s-1.25.24-1.62.71c-.37.48-.55,1.15-.55,2.04v5.57h-2.68v-13.87h2.68v4.92c.39-.6.84-1.01,1.35-1.25.51-.24,1.05-.35,1.62-.35.64,0,1.21.11,1.73.33.52.22.95.56,1.28,1.01.28.38.46.78.52,1.18.06.41.09,1.07.09,1.99Z" style="fill:#fff;"/><path d="m370.56,340.85v2.48h-2.73v-2.48h2.73Zm0,3.71v10.29h-2.73v-10.29h2.73Z" style="fill:#fff;"/><path d="m374.67,357.84l-.67.92h-1.99c.83-1.5,1.41-2.72,1.74-3.68.56-1.62.84-3.39.84-5.31,0-1.23-.1-2.37-.3-3.42-.31-1.59-.86-3.12-1.65-4.57l-.58-1.06h2.03c.96,1.33,1.68,2.58,2.18,3.74.74,1.7,1.1,3.41,1.1,5.14,0,1.89-.44,3.82-1.31,5.78-.49,1.09-.95,1.92-1.39,2.47Z" style="fill:#fff;"/><path d="m171.21,395.85c.04.73.21,1.32.5,1.78.56.85,1.54,1.28,2.95,1.28.63,0,1.2-.09,1.72-.28,1-.36,1.5-1.01,1.5-1.95,0-.7-.21-1.2-.64-1.5-.43-.29-1.1-.55-2.02-.76l-1.69-.39c-1.1-.26-1.89-.54-2.34-.85-.79-.54-1.19-1.34-1.19-2.41,0-1.16.39-2.11,1.17-2.85.78-.74,1.88-1.11,3.31-1.11,1.31,0,2.43.33,3.35.98.92.65,1.38,1.69,1.38,3.12h-1.64c-.08-.69-.26-1.22-.54-1.59-.51-.67-1.38-1.01-2.6-1.01-.99,0-1.7.22-2.13.65-.43.43-.65.94-.65,1.51,0,.63.25,1.09.76,1.38.33.19,1.09.42,2.27.7l1.75.41c.84.2,1.5.47,1.95.82.79.6,1.19,1.48,1.19,2.62,0,1.43-.51,2.45-1.52,3.06-1.01.61-2.19.92-3.53.92-1.56,0-2.78-.41-3.67-1.23-.88-.81-1.32-1.91-1.3-3.3h1.64Z" style="fill:gray;"/><path d="m181.95,388h1.6v2.62h1.5v1.29h-1.5v6.13c0,.33.11.55.33.66.12.06.33.1.61.1.08,0,.16,0,.25,0,.09,0,.19-.01.31-.03v1.25c-.18.05-.37.09-.57.11s-.41.04-.64.04c-.74,0-1.24-.19-1.5-.57-.26-.38-.39-.87-.39-1.47v-6.22h-1.27v-1.29h1.27v-2.62Z" style="fill:gray;"/><path d="m191.61,394.33c.36-.05.6-.2.73-.45.07-.14.1-.34.1-.61,0-.54-.19-.93-.57-1.17-.38-.24-.93-.37-1.64-.37-.82,0-1.41.22-1.75.67-.19.25-.32.61-.38,1.1h-1.47c.03-1.16.4-1.97,1.12-2.42s1.56-.68,2.51-.68c1.1,0,2,.21,2.69.63.68.42,1.02,1.08,1.02,1.96v5.41c0,.16.03.29.1.39.07.1.21.15.42.15.07,0,.15,0,.24-.01.09,0,.18-.02.28-.04v1.17c-.25.07-.43.11-.56.13-.13.02-.3.03-.53.03-.54,0-.94-.19-1.18-.58-.13-.2-.22-.49-.27-.87-.32.42-.78.79-1.39,1.1-.6.31-1.27.46-1.99.46-.87,0-1.58-.26-2.13-.79s-.83-1.19-.83-1.98c0-.87.27-1.54.82-2.02s1.26-.77,2.14-.88l2.52-.32Zm-3.32,4.26c.33.26.73.39,1.18.39.56,0,1.09-.13,1.61-.39.88-.43,1.31-1.12,1.31-2.09v-1.27c-.19.12-.44.23-.74.31s-.6.14-.89.18l-.95.12c-.57.08-1,.2-1.29.36-.49.27-.73.71-.73,1.31,0,.46.17.81.5,1.08Z" style="fill:gray;"/><path d="m196.6,388h1.6v2.62h1.5v1.29h-1.5v6.13c0,.33.11.55.33.66.12.06.33.1.61.1.08,0,.16,0,.25,0,.09,0,.19-.01.31-.03v1.25c-.18.05-.37.09-.57.11s-.41.04-.64.04c-.74,0-1.24-.19-1.5-.57-.26-.38-.39-.87-.39-1.47v-6.22h-1.27v-1.29h1.27v-2.62Z" style="fill:gray;"/><path d="m201.2,387.13h1.6v1.79h-1.6v-1.79Zm0,3.53h1.6v9.34h-1.6v-9.34Z" style="fill:gray;"/><path d="m211.96,391.56c.83.81,1.25,1.99,1.25,3.56s-.37,2.76-1.1,3.75c-.73.99-1.87,1.48-3.4,1.48-1.28,0-2.3-.44-3.06-1.31s-1.13-2.04-1.13-3.52c0-1.58.4-2.83,1.19-3.77.79-.93,1.86-1.4,3.2-1.4,1.2,0,2.22.4,3.05,1.21Zm-.98,6.24c.38-.79.58-1.67.58-2.64,0-.88-.14-1.59-.42-2.14-.44-.86-1.2-1.3-2.27-1.3-.95,0-1.65.37-2.08,1.1-.43.74-.65,1.62-.65,2.66s.22,1.83.65,2.5c.43.67,1.12,1,2.06,1,1.03,0,1.74-.4,2.13-1.19Z" style="fill:gray;"/><path d="m215.02,390.62h1.5v1.33c.44-.55.91-.94,1.41-1.18.5-.24,1.05-.36,1.66-.36,1.33,0,2.23.46,2.7,1.39.26.51.39,1.24.39,2.18v6.02h-1.6v-5.92c0-.57-.08-1.04-.25-1.39-.28-.58-.79-.88-1.53-.88-.37,0-.68.04-.92.11-.43.13-.81.39-1.14.77-.26.31-.43.63-.51.96s-.12.8-.12,1.42v4.92h-1.58v-9.39Z" style="fill:gray;"/><path d="m230.69,390.88c.62.31,1.09.72,1.42,1.21.31.47.52,1.03.63,1.66.09.43.14,1.12.14,2.07h-6.83c.03.96.25,1.72.67,2.3s1.06.87,1.94.87c.82,0,1.47-.27,1.96-.82.27-.32.47-.68.58-1.1h1.55c-.04.34-.18.73-.41,1.15s-.49.77-.77,1.04c-.48.47-1.06.78-1.77.95-.38.09-.8.14-1.28.14-1.16,0-2.15-.42-2.95-1.28-.81-.85-1.21-2.04-1.21-3.57s.41-2.73,1.22-3.67c.81-.94,1.88-1.41,3.19-1.41.66,0,1.3.16,1.93.47Zm.57,3.69c-.06-.68-.21-1.23-.44-1.64-.43-.76-1.14-1.14-2.15-1.14-.72,0-1.32.26-1.81.78s-.74,1.19-.77,1.99h5.17Z" style="fill:gray;"/><path d="m234.75,390.62h1.5v1.62c.12-.32.42-.7.9-1.15s1.03-.68,1.66-.68c.03,0,.08,0,.15,0,.07,0,.19.02.36.04v1.67c-.09-.02-.18-.03-.26-.04-.08,0-.17,0-.26,0-.79,0-1.41.26-1.83.77-.43.51-.64,1.1-.64,1.77v5.4h-1.58v-9.39Z" style="fill:gray;"/><path d="m246.98,390.62h1.74c-.22.6-.72,1.98-1.48,4.12-.57,1.61-1.05,2.93-1.44,3.95-.91,2.39-1.55,3.85-1.93,4.38-.37.53-1.02.79-1.93.79-.22,0-.39,0-.51-.03-.12-.02-.27-.05-.44-.1v-1.44c.27.08.47.12.59.14s.23.03.32.03c.29,0,.51-.05.64-.14.14-.1.25-.21.35-.35.03-.05.13-.29.31-.72s.31-.75.39-.96l-3.47-9.67h1.79l2.52,7.65,2.53-7.65Z" style="fill:gray;"/><path d="m197.14,407.52c.85,1.14,1.28,2.6,1.28,4.37,0,1.92-.49,3.52-1.46,4.8-1.15,1.5-2.78,2.24-4.9,2.24-1.98,0-3.54-.65-4.67-1.96-1.01-1.26-1.52-2.86-1.52-4.79,0-1.74.43-3.23,1.3-4.47,1.11-1.59,2.75-2.38,4.93-2.38s3.96.73,5.05,2.19Zm-1.54,8.21c.69-1.1,1.03-2.37,1.03-3.8,0-1.52-.4-2.73-1.19-3.66-.79-.92-1.87-1.39-3.25-1.39s-2.42.46-3.26,1.37c-.84.92-1.26,2.26-1.26,4.05,0,1.43.36,2.63,1.08,3.61s1.89,1.47,3.51,1.47,2.65-.55,3.34-1.65Z" style="fill:gray;"/><path d="m201.16,406.3c.37-.54,1.08-.81,2.13-.81.1,0,.2,0,.31,0,.11,0,.23.01.36.03v1.44c-.17-.01-.29-.02-.36-.02s-.14,0-.21,0c-.48,0-.77.12-.87.37s-.14.88-.14,1.9h1.58v1.24h-1.58v8.1h-1.56v-8.1h-1.31v-1.24h1.31v-1.47c.02-.65.14-1.13.34-1.44Z" style="fill:gray;"/><path d="m206.5,406.3c.37-.54,1.08-.81,2.13-.81.1,0,.2,0,.31,0,.11,0,.23.01.36.03v1.44c-.17-.01-.29-.02-.36-.02s-.14,0-.21,0c-.48,0-.77.12-.87.37s-.14.88-.14,1.9h1.58v1.24h-1.58v8.1h-1.56v-8.1h-1.31v-1.24h1.31v-1.47c.02-.65.14-1.13.34-1.44Z" style="fill:gray;"/><path d="m210.64,405.68h1.6v1.79h-1.6v-1.79Zm0,3.53h1.6v9.34h-1.6v-9.34Z" style="fill:gray;"/><path d="m220.8,409.67c.66.51,1.06,1.4,1.2,2.66h-1.53c-.09-.58-.31-1.06-.64-1.44-.33-.38-.87-.57-1.6-.57-1.01,0-1.72.49-2.16,1.47-.28.64-.42,1.42-.42,2.36s.2,1.73.6,2.37c.4.64,1.02.96,1.88.96.65,0,1.17-.2,1.56-.6.38-.4.65-.94.79-1.64h1.53c-.18,1.24-.61,2.16-1.31,2.73-.7.58-1.6.86-2.69.86-1.23,0-2.21-.45-2.94-1.35-.73-.9-1.1-2.02-1.1-3.36,0-1.65.4-2.93,1.2-3.85.8-.92,1.82-1.38,3.06-1.38,1.06,0,1.92.26,2.58.77Z" style="fill:gray;"/><path d="m229.44,409.42c.62.31,1.09.72,1.42,1.21.31.47.52,1.03.63,1.66.09.43.14,1.12.14,2.07h-6.83c.03.96.25,1.72.67,2.3s1.06.87,1.94.87c.82,0,1.47-.27,1.96-.82.27-.32.47-.68.58-1.1h1.55c-.04.34-.18.73-.41,1.15s-.49.77-.77,1.04c-.48.47-1.06.78-1.77.95-.38.09-.8.14-1.28.14-1.16,0-2.15-.42-2.95-1.28-.81-.85-1.21-2.04-1.21-3.57s.41-2.73,1.22-3.67c.81-.94,1.88-1.41,3.19-1.41.66,0,1.3.16,1.93.47Zm.57,3.69c-.06-.68-.21-1.23-.44-1.64-.43-.76-1.14-1.14-2.15-1.14-.72,0-1.32.26-1.81.78s-.74,1.19-.77,1.99h5.17Z" style="fill:gray;"/><path d="m10.73,337.66v1.53h-4.34v11.34h-1.76v-11.34H.29v-1.53h10.44Z" style="fill:gray;"/><path d="m12.07,337.66h1.6v1.79h-1.6v-1.79Zm0,3.53h1.6v9.34h-1.6v-9.34Z" style="fill:gray;"/><path d="m22.23,341.65c.66.51,1.06,1.4,1.2,2.66h-1.53c-.09-.58-.31-1.06-.64-1.44-.33-.38-.87-.57-1.6-.57-1.01,0-1.72.49-2.16,1.47-.28.64-.42,1.42-.42,2.36s.2,1.73.6,2.37c.4.64,1.02.96,1.88.96.65,0,1.17-.2,1.56-.6.38-.4.65-.94.79-1.64h1.53c-.18,1.24-.61,2.16-1.31,2.73-.7.58-1.6.86-2.69.86-1.23,0-2.21-.45-2.94-1.35-.73-.9-1.1-2.02-1.1-3.36,0-1.65.4-2.93,1.2-3.85.8-.92,1.82-1.38,3.06-1.38,1.06,0,1.92.26,2.58.77Z" style="fill:gray;"/><path d="m25.02,337.66h1.52v7.48l4.05-3.99h2.02l-3.61,3.49,3.81,5.9h-2.02l-2.95-4.78-1.3,1.25v3.52h-1.52v-12.88Z" style="fill:gray;"/><path d="m39.36,341.41c.62.31,1.09.72,1.42,1.21.31.47.52,1.03.63,1.66.09.43.14,1.12.14,2.07h-6.83c.03.96.25,1.72.67,2.3s1.06.87,1.94.87c.82,0,1.47-.27,1.96-.82.27-.32.47-.68.58-1.1h1.55c-.04.34-.18.73-.41,1.15s-.49.77-.77,1.04c-.48.47-1.06.78-1.77.95-.38.09-.8.14-1.28.14-1.16,0-2.15-.42-2.95-1.28-.81-.85-1.21-2.04-1.21-3.57s.41-2.73,1.22-3.67c.81-.94,1.88-1.41,3.19-1.41.66,0,1.3.16,1.93.47Zm.57,3.69c-.06-.68-.21-1.23-.44-1.64-.43-.76-1.14-1.14-2.15-1.14-.72,0-1.32.26-1.81.78s-.74,1.19-.77,1.99h5.17Z" style="fill:gray;"/><path d="m43.57,338.53h1.6v2.62h1.5v1.29h-1.5v6.13c0,.33.11.55.33.66.12.06.33.1.61.1.08,0,.16,0,.25,0,.09,0,.19-.01.31-.03v1.25c-.18.05-.37.09-.57.11s-.41.04-.64.04c-.74,0-1.24-.19-1.5-.57-.26-.38-.39-.87-.39-1.47v-6.22h-1.27v-1.29h1.27v-2.62Z" style="fill:gray;"/><path d="m54.47,337.66l3.7,10.97,3.66-10.97h1.96l-4.7,12.88h-1.85l-4.69-12.88h1.93Z" style="fill:gray;"/><path d="m69.98,341.41c.62.31,1.09.72,1.42,1.21.31.47.52,1.03.63,1.66.09.43.14,1.12.14,2.07h-6.83c.03.96.25,1.72.67,2.3s1.06.87,1.94.87c.82,0,1.47-.27,1.96-.82.27-.32.47-.68.58-1.1h1.55c-.04.34-.18.73-.41,1.15s-.49.77-.77,1.04c-.48.47-1.06.78-1.77.95-.38.09-.8.14-1.28.14-1.16,0-2.15-.42-2.95-1.28-.81-.85-1.21-2.04-1.21-3.57s.41-2.73,1.22-3.67c.81-.94,1.88-1.41,3.19-1.41.66,0,1.3.16,1.93.47Zm.57,3.69c-.06-.68-.21-1.23-.44-1.64-.43-.76-1.14-1.14-2.15-1.14-.72,0-1.32.26-1.81.78s-.74,1.19-.77,1.99h5.17Z" style="fill:gray;"/><path d="m74.01,341.15h1.5v1.33c.44-.55.91-.94,1.41-1.18.5-.24,1.05-.36,1.66-.36,1.33,0,2.23.46,2.7,1.39.26.51.39,1.24.39,2.18v6.02h-1.6v-5.92c0-.57-.08-1.04-.25-1.39-.28-.58-.79-.88-1.53-.88-.37,0-.68.04-.92.11-.43.13-.81.39-1.14.77-.26.31-.43.63-.51.96s-.12.8-.12,1.42v4.92h-1.58v-9.39Z" style="fill:gray;"/><path d="m89.14,341.44c.28.17.6.48.95.92v-4.74h1.52v12.92h-1.42v-1.31c-.37.58-.8,1-1.3,1.25-.5.26-1.07.39-1.72.39-1.04,0-1.94-.44-2.71-1.32s-1.14-2.05-1.14-3.51c0-1.37.35-2.55,1.04-3.55.7-1,1.69-1.5,2.98-1.5.72,0,1.32.15,1.8.46Zm-3.52,7.04c.42.68,1.1,1.02,2.04,1.02.73,0,1.32-.31,1.79-.94.47-.63.7-1.53.7-2.71s-.24-2.06-.72-2.63c-.48-.57-1.08-.86-1.79-.86-.79,0-1.43.3-1.92.91-.49.61-.74,1.5-.74,2.68,0,1,.21,1.85.64,2.52Z" style="fill:gray;"/><path d="m93.84,337.66h1.6v1.79h-1.6v-1.79Zm0,3.53h1.6v9.34h-1.6v-9.34Z" style="fill:gray;"/><path d="m97.68,341.15h1.5v1.33c.44-.55.91-.94,1.41-1.18.5-.24,1.05-.36,1.66-.36,1.33,0,2.23.46,2.7,1.39.26.51.39,1.24.39,2.18v6.02h-1.6v-5.92c0-.57-.08-1.04-.25-1.39-.28-.58-.79-.88-1.53-.88-.37,0-.68.04-.92.11-.43.13-.81.39-1.14.77-.26.31-.43.63-.51.96s-.12.8-.12,1.42v4.92h-1.58v-9.39Z" style="fill:gray;"/><path d="m112.85,341.53c.3.2.6.5.91.89v-1.18h1.46v8.54c0,1.19-.17,2.13-.52,2.82-.65,1.27-1.88,1.91-3.7,1.91-1.01,0-1.86-.23-2.54-.68-.69-.45-1.07-1.16-1.15-2.13h1.6c.08.42.23.75.45.97.35.35.91.53,1.67.53,1.2,0,1.99-.43,2.36-1.28.22-.5.32-1.4.31-2.69-.31.48-.69.84-1.14,1.07-.44.23-1.03.35-1.75.35-1.01,0-1.9-.36-2.66-1.08s-1.14-1.92-1.14-3.58c0-1.57.38-2.8,1.15-3.68.77-.88,1.69-1.32,2.77-1.32.73,0,1.37.18,1.92.54Zm.19,1.69c-.48-.56-1.08-.84-1.82-.84-1.1,0-1.86.52-2.27,1.56-.22.56-.32,1.28-.32,2.18,0,1.06.21,1.86.64,2.42.43.55,1,.83,1.72.83,1.13,0,1.92-.51,2.38-1.53.26-.58.38-1.25.38-2.03,0-1.16-.24-2.02-.72-2.59Z" style="fill:gray;"/><path d="m50.52,356.21h2.5l3.7,10.89,3.68-10.89h2.48v12.88h-1.67v-7.6c0-.26,0-.7.02-1.31.01-.61.02-1.26.02-1.96l-3.68,10.86h-1.73l-3.71-10.86v.39c0,.32,0,.8.03,1.44.02.65.03,1.12.03,1.42v7.6h-1.67v-12.88Z" style="fill:gray;"/><path d="m70.25,363.4c.36-.05.6-.2.73-.45.07-.14.1-.34.1-.61,0-.54-.19-.93-.57-1.17-.38-.24-.93-.37-1.64-.37-.82,0-1.41.22-1.75.67-.19.25-.32.61-.38,1.1h-1.47c.03-1.16.4-1.97,1.12-2.42s1.56-.68,2.51-.68c1.1,0,2,.21,2.69.63.68.42,1.02,1.08,1.02,1.96v5.41c0,.16.03.29.1.39.07.1.21.15.42.15.07,0,.15,0,.24-.01.09,0,.18-.02.28-.04v1.17c-.25.07-.43.11-.56.13-.13.02-.3.03-.53.03-.54,0-.94-.19-1.18-.58-.13-.2-.22-.49-.27-.87-.32.42-.78.79-1.39,1.1-.6.31-1.27.46-1.99.46-.87,0-1.58-.26-2.13-.79s-.83-1.19-.83-1.98c0-.87.27-1.54.82-2.02s1.26-.77,2.14-.88l2.52-.32Zm-3.32,4.26c.33.26.73.39,1.18.39.56,0,1.09-.13,1.61-.39.88-.43,1.31-1.12,1.31-2.09v-1.27c-.19.12-.44.23-.74.31s-.6.14-.89.18l-.95.12c-.57.08-1,.2-1.29.36-.49.27-.73.71-.73,1.31,0,.46.17.81.5,1.08Z" style="fill:gray;"/><path d="m81.25,360.2c.66.51,1.06,1.4,1.2,2.66h-1.53c-.09-.58-.31-1.06-.64-1.44-.33-.38-.87-.57-1.6-.57-1.01,0-1.72.49-2.16,1.47-.28.64-.42,1.42-.42,2.36s.2,1.73.6,2.37c.4.64,1.02.96,1.88.96.65,0,1.17-.2,1.56-.6.38-.4.65-.94.79-1.64h1.53c-.18,1.24-.61,2.16-1.31,2.73-.7.58-1.6.86-2.69.86-1.23,0-2.21-.45-2.94-1.35-.73-.9-1.1-2.02-1.1-3.36,0-1.65.4-2.93,1.2-3.85.8-.92,1.82-1.38,3.06-1.38,1.06,0,1.92.26,2.58.77Z" style="fill:gray;"/><path d="m84.06,356.17h1.58v4.8c.37-.47.71-.81,1.01-1,.51-.33,1.14-.5,1.9-.5,1.36,0,2.29.48,2.77,1.43.26.52.39,1.24.39,2.17v6.02h-1.62v-5.92c0-.69-.09-1.2-.26-1.52-.29-.51-.82-.77-1.61-.77-.65,0-1.25.22-1.78.67s-.8,1.3-.8,2.55v4.98h-1.58v-12.92Z" style="fill:gray;"/><path d="m93.91,356.21h1.6v1.79h-1.6v-1.79Zm0,3.53h1.6v9.34h-1.6v-9.34Z" style="fill:gray;"/><path d="m97.75,359.7h1.5v1.33c.44-.55.91-.94,1.41-1.18.5-.24,1.05-.36,1.66-.36,1.33,0,2.23.46,2.7,1.39.26.51.39,1.24.39,2.18v6.02h-1.6v-5.92c0-.57-.08-1.04-.25-1.39-.28-.58-.79-.88-1.53-.88-.37,0-.68.04-.92.11-.43.13-.81.39-1.14.77-.26.31-.43.63-.51.96s-.12.8-.12,1.42v4.92h-1.58v-9.39Z" style="fill:gray;"/><path d="m113.43,359.96c.62.31,1.09.72,1.42,1.21.31.47.52,1.03.63,1.66.09.43.14,1.12.14,2.07h-6.83c.03.96.25,1.72.67,2.3s1.06.87,1.94.87c.82,0,1.47-.27,1.96-.82.27-.32.47-.68.58-1.1h1.55c-.04.34-.18.73-.41,1.15s-.49.77-.77,1.04c-.48.47-1.06.78-1.77.95-.38.09-.8.14-1.28.14-1.16,0-2.15-.42-2.95-1.28-.81-.85-1.21-2.04-1.21-3.57s.41-2.73,1.22-3.67c.81-.94,1.88-1.41,3.19-1.41.66,0,1.3.16,1.93.47Zm.57,3.69c-.06-.68-.21-1.23-.44-1.64-.43-.76-1.14-1.14-2.15-1.14-.72,0-1.32.26-1.81.78s-.74,1.19-.77,1.99h5.17Z" style="fill:gray;"/><path d="m944.25,110.7v1.53h-4.34v11.34h-1.76v-11.34h-4.34v-1.53h10.44Z" style="fill:gray;"/><path d="m945.59,110.7h1.6v1.79h-1.6v-1.79Zm0,3.53h1.6v9.34h-1.6v-9.34Z" style="fill:gray;"/><path d="m955.75,114.69c.66.51,1.06,1.4,1.2,2.66h-1.53c-.09-.58-.31-1.06-.64-1.44s-.87-.57-1.6-.57c-1,0-1.72.49-2.16,1.47-.28.64-.42,1.42-.42,2.36s.2,1.73.6,2.37c.4.64,1.02.96,1.88.96.66,0,1.17-.2,1.56-.6.38-.4.65-.94.79-1.64h1.53c-.17,1.24-.61,2.16-1.31,2.73-.7.58-1.6.86-2.69.86-1.23,0-2.21-.45-2.94-1.35-.73-.9-1.1-2.02-1.1-3.36,0-1.65.4-2.93,1.2-3.85.8-.92,1.82-1.38,3.06-1.38,1.06,0,1.92.26,2.58.77Z" style="fill:gray;"/><path d="m958.53,110.7h1.52v7.48l4.05-3.99h2.02l-3.61,3.49,3.81,5.9h-2.02l-2.95-4.78-1.3,1.25v3.52h-1.52v-12.88Z" style="fill:gray;"/><path d="m972.88,114.45c.62.31,1.09.72,1.42,1.21.31.47.52,1.03.63,1.66.09.43.14,1.12.14,2.07h-6.83c.03.96.25,1.72.67,2.3.42.58,1.06.87,1.94.87.82,0,1.47-.27,1.96-.82.27-.32.47-.68.58-1.1h1.55c-.04.34-.18.73-.41,1.15-.23.42-.49.77-.77,1.04-.48.47-1.06.78-1.77.95-.38.09-.8.14-1.28.14-1.16,0-2.15-.42-2.95-1.28s-1.21-2.04-1.21-3.57.41-2.73,1.22-3.67c.81-.94,1.88-1.41,3.19-1.41.66,0,1.3.16,1.92.47Zm.57,3.69c-.06-.68-.21-1.23-.44-1.64-.43-.76-1.14-1.14-2.15-1.14-.72,0-1.32.26-1.81.78-.49.52-.75,1.19-.77,1.99h5.17Z" style="fill:gray;"/><path d="m977.09,111.57h1.6v2.62h1.5v1.29h-1.5v6.13c0,.33.11.55.33.66.12.06.33.1.61.1.08,0,.16,0,.25,0s.19-.01.31-.03v1.25c-.18.05-.37.09-.57.11-.2.02-.41.04-.64.04-.74,0-1.24-.19-1.5-.57-.26-.38-.39-.87-.39-1.47v-6.22h-1.27v-1.29h1.27v-2.62Z" style="fill:gray;"/><path d="m987.99,110.7l3.7,10.97,3.66-10.97h1.96l-4.7,12.88h-1.85l-4.69-12.88h1.93Z" style="fill:gray;"/><path d="m1003.5,114.45c.62.31,1.09.72,1.42,1.21.31.47.52,1.03.63,1.66.09.43.14,1.12.14,2.07h-6.83c.03.96.25,1.72.67,2.3.42.58,1.06.87,1.94.87.82,0,1.47-.27,1.96-.82.27-.32.47-.68.58-1.1h1.55c-.04.34-.18.73-.41,1.15-.23.42-.49.77-.77,1.04-.48.47-1.06.78-1.77.95-.38.09-.8.14-1.28.14-1.16,0-2.15-.42-2.95-1.28s-1.21-2.04-1.21-3.57.41-2.73,1.22-3.67c.81-.94,1.88-1.41,3.19-1.41.66,0,1.3.16,1.92.47Zm.57,3.69c-.06-.68-.21-1.23-.44-1.64-.43-.76-1.14-1.14-2.15-1.14-.72,0-1.32.26-1.81.78-.49.52-.75,1.19-.77,1.99h5.17Z" style="fill:gray;"/><path d="m1007.53,114.19h1.5v1.33c.44-.55.92-.94,1.41-1.18.5-.24,1.05-.36,1.66-.36,1.33,0,2.23.46,2.7,1.39.26.51.39,1.24.39,2.18v6.02h-1.6v-5.92c0-.57-.08-1.04-.25-1.39-.28-.58-.79-.88-1.53-.88-.37,0-.68.04-.92.11-.43.13-.81.39-1.14.77-.26.31-.43.63-.51.96s-.12.8-.12,1.42v4.92h-1.58v-9.39Z" style="fill:gray;"/><path d="m1022.66,114.48c.28.17.6.48.95.92v-4.74h1.52v12.92h-1.42v-1.31c-.37.58-.8,1-1.3,1.25s-1.07.39-1.72.39c-1.04,0-1.94-.44-2.71-1.32s-1.14-2.05-1.14-3.51c0-1.37.35-2.55,1.04-3.55.7-1,1.69-1.5,2.98-1.5.72,0,1.32.15,1.8.46Zm-3.52,7.04c.42.68,1.1,1.02,2.04,1.02.73,0,1.32-.31,1.79-.94.47-.63.7-1.53.7-2.71s-.24-2.06-.72-2.63c-.48-.57-1.08-.86-1.79-.86-.79,0-1.43.3-1.92.91-.49.61-.74,1.5-.74,2.68,0,1,.21,1.85.64,2.52Z" style="fill:gray;"/><path d="m1027.36,110.7h1.6v1.79h-1.6v-1.79Zm0,3.53h1.6v9.34h-1.6v-9.34Z" style="fill:gray;"/><path d="m1031.2,114.19h1.5v1.33c.44-.55.91-.94,1.41-1.18.5-.24,1.05-.36,1.66-.36,1.33,0,2.23.46,2.7,1.39.26.51.39,1.24.39,2.18v6.02h-1.6v-5.92c0-.57-.08-1.04-.25-1.39-.28-.58-.79-.88-1.53-.88-.38,0-.68.04-.92.11-.43.13-.81.39-1.14.77-.26.31-.43.63-.51.96s-.12.8-.12,1.42v4.92h-1.58v-9.39Z" style="fill:gray;"/><path d="m1046.37,114.57c.3.2.6.5.91.89v-1.18h1.46v8.54c0,1.19-.17,2.13-.52,2.82-.65,1.27-1.88,1.91-3.7,1.91-1.01,0-1.86-.23-2.54-.68s-1.07-1.16-1.15-2.13h1.6c.08.42.23.75.45.97.35.35.91.53,1.67.53,1.2,0,1.99-.43,2.36-1.28.22-.5.32-1.4.31-2.69-.31.48-.69.84-1.14,1.07-.44.23-1.03.35-1.75.35-1.01,0-1.9-.36-2.66-1.08s-1.14-1.92-1.14-3.58c0-1.57.38-2.8,1.15-3.68.77-.88,1.69-1.32,2.77-1.32.73,0,1.37.18,1.92.54Zm.19,1.69c-.48-.56-1.08-.84-1.82-.84-1.11,0-1.86.52-2.27,1.56-.22.56-.32,1.28-.32,2.18,0,1.06.21,1.86.64,2.42.43.55,1,.83,1.72.83,1.13,0,1.92-.51,2.38-1.53.26-.58.38-1.25.38-2.03,0-1.16-.24-2.02-.72-2.59Z" style="fill:gray;"/><path d="m934.84,129.25h2.5l3.7,10.89,3.68-10.89h2.48v12.88h-1.67v-7.6c0-.26,0-.7.02-1.31.01-.61.02-1.26.02-1.96l-3.68,10.86h-1.73l-3.71-10.86v.39c0,.32,0,.8.03,1.44.02.65.03,1.12.03,1.42v7.6h-1.67v-12.88Z" style="fill:gray;"/><path d="m954.57,136.44c.36-.05.61-.2.73-.45.07-.14.11-.34.11-.61,0-.54-.19-.93-.57-1.17-.38-.24-.93-.37-1.64-.37-.82,0-1.41.22-1.75.67-.19.25-.32.61-.38,1.1h-1.47c.03-1.16.4-1.97,1.12-2.42s1.56-.68,2.51-.68c1.1,0,2,.21,2.69.63.68.42,1.02,1.08,1.02,1.96v5.41c0,.16.03.29.1.39.07.1.21.15.42.15.07,0,.15,0,.24-.01s.18-.02.28-.04v1.17c-.25.07-.43.11-.56.13-.13.02-.3.03-.53.03-.54,0-.94-.19-1.18-.58-.13-.2-.22-.49-.27-.87-.32.42-.78.79-1.39,1.1-.6.31-1.26.46-1.99.46-.87,0-1.58-.26-2.13-.79-.55-.53-.83-1.19-.83-1.98,0-.87.27-1.54.82-2.02.54-.48,1.26-.77,2.14-.88l2.52-.32Zm-3.32,4.26c.33.26.73.39,1.18.39.55,0,1.09-.13,1.61-.39.88-.43,1.32-1.12,1.32-2.09v-1.27c-.19.12-.44.23-.74.31-.3.08-.6.14-.89.18l-.95.12c-.57.08-1,.2-1.29.36-.49.27-.73.71-.73,1.31,0,.46.17.81.5,1.08Z" style="fill:gray;"/><path d="m965.57,133.24c.66.51,1.06,1.4,1.2,2.66h-1.53c-.09-.58-.31-1.06-.64-1.44s-.87-.57-1.6-.57c-1,0-1.72.49-2.16,1.47-.28.64-.42,1.42-.42,2.36s.2,1.73.6,2.37c.4.64,1.02.96,1.88.96.66,0,1.17-.2,1.56-.6.38-.4.65-.94.79-1.64h1.53c-.17,1.24-.61,2.16-1.31,2.73-.7.58-1.6.86-2.69.86-1.23,0-2.21-.45-2.94-1.35-.73-.9-1.1-2.02-1.1-3.36,0-1.65.4-2.93,1.2-3.85.8-.92,1.82-1.38,3.06-1.38,1.06,0,1.92.26,2.58.77Z" style="fill:gray;"/><path d="m968.38,129.2h1.58v4.8c.37-.47.71-.81,1.01-1,.51-.33,1.14-.5,1.9-.5,1.36,0,2.29.48,2.77,1.43.26.52.39,1.24.39,2.17v6.02h-1.62v-5.92c0-.69-.09-1.2-.26-1.52-.29-.51-.82-.77-1.61-.77-.65,0-1.25.22-1.78.67-.53.45-.8,1.3-.8,2.55v4.98h-1.58v-12.92Z" style="fill:gray;"/><path d="m978.23,129.25h1.6v1.79h-1.6v-1.79Zm0,3.53h1.6v9.34h-1.6v-9.34Z" style="fill:gray;"/><path d="m982.07,132.74h1.5v1.33c.44-.55.91-.94,1.41-1.18.5-.24,1.05-.36,1.66-.36,1.33,0,2.23.46,2.7,1.39.26.51.39,1.24.39,2.18v6.02h-1.6v-5.92c0-.57-.08-1.04-.25-1.39-.28-.58-.79-.88-1.53-.88-.38,0-.68.04-.92.11-.43.13-.81.39-1.14.77-.26.31-.43.63-.51.96s-.12.8-.12,1.42v4.92h-1.58v-9.39Z" style="fill:gray;"/><path d="m997.75,133c.62.31,1.09.72,1.42,1.21.31.47.52,1.03.63,1.66.09.43.14,1.12.14,2.07h-6.83c.03.96.25,1.72.67,2.3.42.58,1.06.87,1.94.87.82,0,1.47-.27,1.96-.82.27-.32.47-.68.58-1.1h1.55c-.04.34-.18.73-.41,1.15-.23.42-.49.77-.77,1.04-.48.47-1.06.78-1.77.95-.38.09-.8.14-1.28.14-1.16,0-2.15-.42-2.95-1.28s-1.21-2.04-1.21-3.57.41-2.73,1.22-3.67c.81-.94,1.88-1.41,3.19-1.41.66,0,1.3.16,1.92.47Zm.57,3.69c-.06-.68-.21-1.23-.44-1.64-.43-.76-1.14-1.14-2.15-1.14-.72,0-1.32.26-1.81.78-.49.52-.75,1.19-.77,1.99h5.17Z" style="fill:gray;"/><path d="m850.73,120.72c.04.73.19,1.32.45,1.78.51.85,1.4,1.28,2.67,1.28.57,0,1.09-.09,1.56-.28.91-.36,1.37-1.01,1.37-1.95,0-.7-.19-1.2-.58-1.5-.39-.29-1-.55-1.83-.76l-1.53-.39c-1-.26-1.71-.54-2.13-.85-.72-.54-1.08-1.34-1.08-2.41,0-1.16.35-2.11,1.06-2.85s1.71-1.11,3-1.11c1.19,0,2.21.33,3.04.98.83.65,1.25,1.69,1.25,3.12h-1.49c-.08-.69-.24-1.22-.49-1.59-.46-.67-1.25-1.01-2.36-1.01-.9,0-1.54.22-1.93.65-.39.43-.59.94-.59,1.51,0,.63.23,1.09.69,1.38.3.19.99.42,2.06.7l1.59.41c.77.2,1.36.47,1.77.82.72.6,1.08,1.48,1.08,2.62,0,1.43-.46,2.45-1.38,3.06-.92.61-1.99.92-3.2.92-1.42,0-2.53-.41-3.33-1.23-.8-.81-1.2-1.91-1.18-3.3h1.49Z" style="fill:gray;"/><path d="m860.48,112.87h1.45v2.62h1.36v1.29h-1.36v6.13c0,.33.1.55.3.66.11.06.3.1.56.1.07,0,.14,0,.22,0,.08,0,.17-.01.28-.03v1.25c-.16.05-.33.09-.51.11s-.37.04-.58.04c-.67,0-1.12-.19-1.36-.57-.24-.38-.36-.87-.36-1.47v-6.22h-1.15v-1.29h1.15v-2.62Z" style="fill:gray;"/><path d="m869.26,119.2c.33-.05.55-.2.66-.45.06-.14.1-.34.1-.61,0-.54-.17-.93-.52-1.17-.35-.24-.84-.37-1.49-.37-.75,0-1.28.22-1.59.67-.17.25-.29.61-.34,1.1h-1.34c.03-1.16.37-1.97,1.02-2.42s1.41-.68,2.28-.68c1,0,1.81.21,2.44.63.62.42.93,1.08.93,1.96v5.41c0,.16.03.29.09.39.06.1.19.15.39.15.06,0,.13,0,.21-.01.08,0,.16-.02.25-.04v1.17c-.22.07-.39.11-.51.13-.12.02-.28.03-.48.03-.49,0-.85-.19-1.07-.58-.12-.2-.2-.49-.25-.87-.29.42-.71.79-1.26,1.1-.55.31-1.15.46-1.81.46-.79,0-1.44-.26-1.94-.79-.5-.53-.75-1.19-.75-1.98,0-.87.25-1.54.74-2.02s1.14-.77,1.94-.88l2.28-.32Zm-3.02,4.26c.3.26.66.39,1.07.39.5,0,.99-.13,1.46-.39.8-.43,1.19-1.12,1.19-2.09v-1.27c-.17.12-.4.23-.67.31s-.54.14-.81.18l-.87.12c-.52.08-.91.2-1.17.36-.44.27-.67.71-.67,1.31,0,.46.15.81.45,1.08Z" style="fill:gray;"/><path d="m873.8,112.87h1.45v2.62h1.36v1.29h-1.36v6.13c0,.33.1.55.3.66.11.06.3.1.56.1.07,0,.14,0,.22,0,.08,0,.17-.01.28-.03v1.25c-.16.05-.33.09-.51.11s-.37.04-.58.04c-.67,0-1.12-.19-1.36-.57-.24-.38-.36-.87-.36-1.47v-6.22h-1.15v-1.29h1.15v-2.62Z" style="fill:gray;"/><path d="m877.98,112h1.46v1.79h-1.46v-1.79Zm0,3.53h1.46v9.34h-1.46v-9.34Z" style="fill:gray;"/><path d="m887.76,116.43c.75.81,1.13,1.99,1.13,3.56s-.33,2.76-1,3.75c-.66.99-1.69,1.48-3.09,1.48-1.17,0-2.09-.44-2.77-1.31-.69-.87-1.03-2.04-1.03-3.52,0-1.58.36-2.83,1.08-3.77.72-.93,1.69-1.4,2.91-1.4,1.09,0,2.01.4,2.77,1.21Zm-.89,6.24c.35-.79.52-1.67.52-2.64,0-.88-.13-1.59-.38-2.14-.4-.86-1.09-1.3-2.06-1.3-.87,0-1.5.37-1.89,1.1-.39.74-.59,1.62-.59,2.66s.2,1.83.59,2.5c.39.67,1.02,1,1.87,1,.94,0,1.58-.4,1.93-1.19Z" style="fill:gray;"/><path d="m890.54,115.49h1.36v1.33c.4-.55.83-.94,1.28-1.18.45-.24.95-.36,1.5-.36,1.21,0,2.03.46,2.45,1.39.23.51.35,1.24.35,2.18v6.02h-1.46v-5.92c0-.57-.08-1.04-.23-1.39-.25-.58-.72-.88-1.38-.88-.34,0-.62.04-.84.11-.39.13-.74.39-1.03.77-.24.31-.39.63-.47.96-.07.33-.11.8-.11,1.42v4.92h-1.43v-9.39Z" style="fill:gray;"/><path d="m904.78,115.75c.56.31.99.72,1.29,1.21.29.47.47,1.03.57,1.66.08.43.13,1.12.13,2.07h-6.2c.03.96.23,1.72.61,2.3s.97.87,1.76.87c.74,0,1.33-.27,1.78-.82.25-.32.42-.68.53-1.1h1.41c-.04.34-.16.73-.37,1.15-.21.42-.44.77-.7,1.04-.43.47-.97.78-1.6.95-.34.09-.73.14-1.16.14-1.05,0-1.95-.42-2.68-1.28s-1.1-2.04-1.1-3.57.37-2.73,1.11-3.67c.74-.94,1.7-1.41,2.89-1.41.6,0,1.18.16,1.75.47Zm.51,3.69c-.06-.68-.19-1.23-.4-1.64-.39-.76-1.04-1.14-1.95-1.14-.65,0-1.2.26-1.64.78-.44.52-.68,1.19-.7,1.99h4.69Z" style="fill:gray;"/><path d="m908.47,115.49h1.36v1.62c.11-.32.38-.7.82-1.15s.94-.68,1.5-.68c.03,0,.07,0,.14,0,.06,0,.17.02.33.04v1.67c-.08-.02-.16-.03-.24-.04-.07,0-.15,0-.23,0-.72,0-1.28.26-1.66.77-.39.51-.58,1.1-.58,1.77v5.4h-1.43v-9.39Z" style="fill:gray;"/><path d="m919.57,115.49h1.58c-.2.6-.65,1.98-1.34,4.12-.52,1.61-.96,2.93-1.31,3.95-.83,2.39-1.41,3.85-1.75,4.38-.34.53-.92.79-1.75.79-.2,0-.36,0-.46-.03s-.24-.05-.4-.1v-1.44c.25.08.43.12.54.14s.21.03.29.03c.26,0,.46-.05.58-.14.12-.1.23-.21.31-.35.03-.05.12-.29.29-.72s.28-.75.36-.96l-3.15-9.67h1.62l2.28,7.65,2.3-7.65Z" style="fill:gray;"/><path d="m874.28,132.39c.77,1.14,1.16,2.6,1.16,4.37,0,1.92-.44,3.52-1.33,4.8-1.04,1.5-2.52,2.24-4.45,2.24-1.8,0-3.21-.65-4.24-1.96-.92-1.26-1.38-2.86-1.38-4.79,0-1.74.39-3.23,1.18-4.47,1.01-1.59,2.5-2.38,4.47-2.38s3.59.73,4.58,2.19Zm-1.4,8.21c.62-1.1.93-2.37.93-3.8,0-1.52-.36-2.73-1.08-3.66-.72-.92-1.7-1.39-2.95-1.39s-2.2.46-2.96,1.37c-.76.92-1.15,2.26-1.15,4.05,0,1.43.33,2.63.98,3.61s1.72,1.47,3.19,1.47,2.4-.55,3.03-1.65Z" style="fill:gray;"/><path d="m877.94,131.17c.33-.54.98-.81,1.93-.81.09,0,.18,0,.28,0,.1,0,.2.01.33.03v1.44c-.15-.01-.26-.02-.33-.02-.07,0-.13,0-.19,0-.44,0-.7.12-.79.37-.09.25-.13.88-.13,1.9h1.43v1.24h-1.43v8.1h-1.42v-8.1h-1.19v-1.24h1.19v-1.47c.02-.65.12-1.13.31-1.44Z" style="fill:gray;"/><path d="m882.79,131.17c.33-.54.98-.81,1.93-.81.09,0,.18,0,.28,0,.1,0,.2.01.33.03v1.44c-.15-.01-.26-.02-.33-.02-.07,0-.13,0-.19,0-.44,0-.7.12-.79.37-.09.25-.13.88-.13,1.9h1.43v1.24h-1.43v8.1h-1.42v-8.1h-1.19v-1.24h1.19v-1.47c.02-.65.12-1.13.31-1.44Z" style="fill:gray;"/><path d="m886.56,130.55h1.46v1.79h-1.46v-1.79Zm0,3.53h1.46v9.34h-1.46v-9.34Z" style="fill:gray;"/><path d="m895.78,134.54c.6.51.96,1.4,1.09,2.66h-1.39c-.08-.58-.28-1.06-.58-1.44-.3-.38-.79-.57-1.46-.57-.91,0-1.57.49-1.96,1.47-.25.64-.38,1.42-.38,2.36s.18,1.73.54,2.37c.36.64.93.96,1.7.96.59,0,1.07-.2,1.41-.6.35-.4.59-.94.72-1.64h1.39c-.16,1.24-.56,2.16-1.19,2.73-.64.58-1.45.86-2.44.86-1.11,0-2-.45-2.67-1.35-.66-.9-.99-2.02-.99-3.36,0-1.65.36-2.93,1.09-3.85.73-.92,1.65-1.38,2.78-1.38.96,0,1.74.26,2.34.77Z" style="fill:gray;"/><path d="m903.64,134.29c.56.31.99.72,1.29,1.21.29.47.47,1.03.57,1.66.08.43.13,1.12.13,2.07h-6.2c.03.96.23,1.72.61,2.3s.97.87,1.76.87c.74,0,1.33-.27,1.78-.82.25-.32.42-.68.53-1.1h1.41c-.04.34-.16.73-.37,1.15-.21.42-.44.77-.7,1.04-.43.47-.97.78-1.6.95-.34.09-.73.14-1.16.14-1.05,0-1.95-.42-2.68-1.28s-1.1-2.04-1.1-3.57.37-2.73,1.11-3.67c.74-.94,1.7-1.41,2.89-1.41.6,0,1.18.16,1.75.47Zm.51,3.69c-.06-.68-.19-1.23-.4-1.64-.39-.76-1.04-1.14-1.95-1.14-.65,0-1.2.26-1.64.78-.44.52-.68,1.19-.7,1.99h4.69Z" style="fill:gray;"/></g></svg>