<?xml version="1.0" encoding="UTF-8"?><svg id="_レイヤー_2" xmlns="http://www.w3.org/2000/svg" width="1065.15" height="540.77" viewBox="0 0 1065.15 540.77"><g id="_レイヤー_2-2"><polygon points="35.93 93.28 35.93 457.17 53.53 457.17 53.53 531.35 126.44 531.35 126.44 457.17 237.3 457.17 237.3 199.49 1058.13 199.49 1058.13 93.28 35.93 93.28" style="fill:#f2f2f2;"/><rect x="250.87" y="308.85" width="807.25" height="69.14" style="fill:#f2f2f2;"/><rect x="30.89" y="127.83" width="58.45" height="38.34" style="fill:#e6e6e6; stroke:#545454; stroke-miterlimit:10; stroke-width:.5px;"/><rect x="30.89" y="166.17" width="58.45" height="88.62" style="fill:#67d4ff; stroke:#545454; stroke-miterlimit:10; stroke-width:.5px;"/><rect x="30.89" y="90.13" width="58.45" height="37.7" style="fill:#67d4ff; stroke:#545454; stroke-miterlimit:10; stroke-width:.5px;"/><polygon points="89.34 347.18 89.34 372.94 30.89 372.94 30.89 454.02 233.26 454.02 233.26 373.57 185.51 373.57 185.51 320.15 89.34 320.15 89.34 347.18" style="fill:#f2f2f2;"/><polygon points="89.34 90.13 89.34 253.53 89.34 320.15 185.51 320.15 185.51 289.36 233.26 289.36 233.26 196.34 333.2 196.34 333.2 90.13 89.34 90.13" style="fill:#e3f2f7;"/><polygon points="89.34 90.13 89.34 253.53 89.34 320.15 89.34 347.18 89.34 372.94 30.89 372.94 30.89 454.02 233.26 454.02 233.26 373.57 185.51 373.57 185.51 320.15 185.51 289.36 233.26 289.36 233.26 196.34 333.2 196.34 333.2 90.13 89.34 90.13" style="fill:none; stroke:#545454; stroke-miterlimit:10; stroke-width:.5px;"/><rect x="333.2" y="90.13" width="720.89" height="106.21" style="fill:#dbf1de;"/><rect x="333.2" y="90.13" width="720.89" height="106.21" style="fill:none; stroke:#545454; stroke-miterlimit:10; stroke-width:.5px;"/><polygon points="333.2 90.13 89.34 90.13 89.34 253.53 89.34 320.15 185.51 320.15 185.51 289.36 233.26 289.36 233.26 196.34 333.2 196.34 1054.09 196.34 1054.09 90.13 333.2 90.13" style="fill:none;"/><rect x="30.89" y="347.85" width="58.45" height="25.77" style="fill:#e6e6e6; stroke:#545454; stroke-miterlimit:10; stroke-width:.5px;"/><rect x="30.89" y="254.2" width="58.45" height="93.65" style="fill:#fff; stroke:#545454; stroke-miterlimit:10; stroke-width:.5px;"/><rect x="185.43" y="289.4" width="47.75" height="84.21" style="fill:#e6e6e6; stroke:#545454; stroke-miterlimit:10; stroke-width:.5px;"/><rect x="174.73" y="415.68" width="58.45" height="38.34" style="fill:#e6e6e6; stroke:#545454; stroke-miterlimit:10; stroke-width:.5px;"/><rect x="116.37" y="296.9" width="16.34" height="50.28" style="fill:#ffffc8; stroke:#545454; stroke-miterlimit:10; stroke-width:.5px;"/><rect x="146.28" y="296.9" width="16.34" height="50.28" style="fill:#ffffc8; stroke:#545454; stroke-miterlimit:10; stroke-width:.5px;"/><line x1="34.03" y1="42.98" x2="1054.09" y2="42.98" style="fill:none; stroke:#4d4948; stroke-miterlimit:10; stroke-width:7.56px;"/><line x1="34.03" y1="42.98" x2="1054.09" y2="42.98" style="fill:none; stroke:#fff; stroke-miterlimit:10; stroke-width:5.04px;"/><line x1="34.03" y1="42.98" x2="1054.09" y2="42.98" style="fill:none; stroke:#4d4948; stroke-dasharray:0 0 25.2 25.2; stroke-miterlimit:10; stroke-width:5.04px;"/><line x1="324.03" y1="249.97" x2="1054.09" y2="249.97" style="fill:none; stroke:#4d4948; stroke-miterlimit:10; stroke-width:7.56px;"/><line x1="324.03" y1="249.97" x2="1054.09" y2="249.97" style="fill:none; stroke:#fff; stroke-miterlimit:10; stroke-width:5.04px;"/><line x1="324.03" y1="249.97" x2="1054.09" y2="249.97" style="fill:none; stroke:#4d4948; stroke-dasharray:0 0 25.2 25.2; stroke-miterlimit:10; stroke-width:5.04px;"/><path d="m889.98,7.26h8.71v1.54h-7.01v3.81h6.16v1.5h-6.16v5.71h-1.7V7.26Z" style="fill:gray;"/><path d="m906.61,11.58c.81.79,1.21,1.94,1.21,3.47s-.36,2.69-1.07,3.65c-.71.96-1.82,1.44-3.32,1.44-1.25,0-2.24-.42-2.98-1.28-.74-.85-1.1-1.99-1.1-3.43,0-1.54.39-2.76,1.16-3.67.77-.91,1.82-1.37,3.12-1.37,1.17,0,2.16.39,2.97,1.18Zm-.96,6.08c.38-.77.56-1.63.56-2.57,0-.85-.13-1.55-.41-2.08-.43-.84-1.17-1.26-2.21-1.26-.93,0-1.61.36-2.03,1.08-.42.72-.63,1.58-.63,2.59s.21,1.78.63,2.43c.42.65,1.09.97,2.01.97,1.01,0,1.7-.39,2.07-1.16Z" style="fill:gray;"/><path d="m909.62,10.66h1.46v1.58c.12-.31.41-.68.88-1.12s1.01-.66,1.62-.66c.03,0,.08,0,.15,0,.07,0,.18.02.35.03v1.62c-.09-.02-.18-.03-.25-.03-.08,0-.16,0-.25,0-.77,0-1.37.25-1.79.75-.42.5-.62,1.07-.62,1.72v5.26h-1.54v-9.15Z" style="fill:gray;"/><path d="m921.58,15.77c.04.71.2,1.29.49,1.74.54.83,1.5,1.25,2.87,1.25.62,0,1.17-.09,1.68-.27.98-.35,1.46-.99,1.46-1.9,0-.68-.21-1.17-.62-1.46-.42-.28-1.08-.53-1.97-.74l-1.65-.38c-1.08-.25-1.84-.53-2.28-.83-.77-.52-1.16-1.31-1.16-2.35,0-1.13.38-2.05,1.14-2.78.76-.72,1.83-1.09,3.23-1.09,1.28,0,2.37.32,3.26.95.9.63,1.34,1.65,1.34,3.05h-1.6c-.08-.67-.26-1.19-.52-1.55-.5-.66-1.34-.98-2.53-.98-.96,0-1.65.21-2.07.63-.42.42-.63.91-.63,1.47,0,.62.25,1.07.75,1.35.33.18,1.06.41,2.21.68l1.71.4c.82.19,1.46.46,1.9.79.77.59,1.16,1.44,1.16,2.56,0,1.39-.49,2.38-1.48,2.98-.99.6-2.13.9-3.44.9-1.52,0-2.71-.4-3.58-1.2-.86-.79-1.28-1.87-1.27-3.22h1.6Z" style="fill:gray;"/><path d="m931.75,7.22h1.54v4.68c.36-.46.69-.79.98-.97.5-.33,1.11-.49,1.85-.49,1.33,0,2.23.46,2.7,1.39.26.51.38,1.21.38,2.11v5.87h-1.58v-5.77c0-.67-.08-1.17-.26-1.48-.28-.5-.8-.75-1.57-.75-.64,0-1.22.22-1.73.66-.52.44-.78,1.27-.78,2.49v4.85h-1.54V7.22Z" style="fill:gray;"/><path d="m941.36,7.26h1.56v1.74h-1.56v-1.74Zm0,3.44h1.56v9.11h-1.56v-9.11Z" style="fill:gray;"/><path d="m945.1,10.66h1.46v1.3c.43-.54.89-.92,1.38-1.15.48-.23,1.02-.35,1.62-.35,1.3,0,2.18.45,2.63,1.36.25.5.38,1.21.38,2.13v5.87h-1.56v-5.77c0-.56-.08-1.01-.25-1.35-.27-.57-.77-.85-1.49-.85-.36,0-.66.04-.9.11-.42.12-.79.38-1.11.75-.26.3-.42.61-.5.94s-.12.78-.12,1.38v4.79h-1.54v-9.15Z" style="fill:gray;"/><path d="m954.5,14.15h4.29v1.58h-4.29v-1.58Z" style="fill:gray;"/><path d="m962.04,15.77c.04.71.2,1.29.49,1.74.54.83,1.5,1.25,2.87,1.25.62,0,1.17-.09,1.68-.27.98-.35,1.46-.99,1.46-1.9,0-.68-.21-1.17-.62-1.46-.42-.28-1.08-.53-1.97-.74l-1.65-.38c-1.08-.25-1.84-.53-2.28-.83-.77-.52-1.16-1.31-1.16-2.35,0-1.13.38-2.05,1.14-2.78.76-.72,1.83-1.09,3.23-1.09,1.28,0,2.37.32,3.26.95.9.63,1.34,1.65,1.34,3.05h-1.6c-.08-.67-.26-1.19-.52-1.55-.5-.66-1.34-.98-2.53-.98-.96,0-1.65.21-2.07.63-.42.42-.63.91-.63,1.47,0,.62.25,1.07.75,1.35.33.18,1.06.41,2.21.68l1.71.4c.82.19,1.46.46,1.9.79.77.59,1.16,1.44,1.16,2.56,0,1.39-.49,2.38-1.48,2.98-.99.6-2.13.9-3.44.9-1.52,0-2.71-.4-3.58-1.2-.86-.79-1.28-1.87-1.27-3.22h1.6Z" style="fill:gray;"/><path d="m972.21,7.22h1.54v4.68c.36-.46.69-.79.98-.97.5-.33,1.11-.49,1.85-.49,1.33,0,2.23.46,2.7,1.39.26.51.38,1.21.38,2.11v5.87h-1.58v-5.77c0-.67-.08-1.17-.26-1.48-.28-.5-.8-.75-1.57-.75-.64,0-1.22.22-1.73.66-.52.44-.78,1.27-.78,2.49v4.85h-1.54V7.22Z" style="fill:gray;"/><path d="m981.81,7.26h1.56v1.74h-1.56v-1.74Zm0,3.44h1.56v9.11h-1.56v-9.11Z" style="fill:gray;"/><path d="m985.56,10.66h1.52v1.3c.37-.45.7-.78.99-.98.51-.35,1.08-.52,1.73-.52.73,0,1.32.18,1.76.54.25.21.48.51.68.91.34-.49.74-.85,1.2-1.09.46-.24.98-.35,1.56-.35,1.23,0,2.07.44,2.51,1.33.24.48.36,1.12.36,1.93v6.09h-1.6v-6.36c0-.61-.15-1.03-.46-1.26-.3-.23-.68-.34-1.11-.34-.6,0-1.12.2-1.56.61-.44.4-.65,1.08-.65,2.03v5.32h-1.56v-5.97c0-.62-.07-1.07-.22-1.36-.23-.43-.67-.64-1.31-.64-.58,0-1.11.23-1.58.67-.48.45-.71,1.26-.71,2.44v4.85h-1.54v-9.15Z" style="fill:gray;"/><path d="m1000.02,7.26h1.56v1.74h-1.56v-1.74Zm0,3.44h1.56v9.11h-1.56v-9.11Z" style="fill:gray;"/><path d="m1003,18.6l5.43-6.56h-5.03v-1.38h7.1v1.26l-5.4,6.52h5.56v1.38h-7.67v-1.21Z" style="fill:gray;"/><path d="m1013.62,10.66v6.08c0,.47.07.85.22,1.14.27.55.76.82,1.49.82,1.04,0,1.75-.48,2.13-1.44.21-.51.31-1.22.31-2.11v-4.49h1.54v9.15h-1.45l.02-1.35c-.2.35-.44.64-.73.88-.58.48-1.27.72-2.1.72-1.28,0-2.15-.44-2.62-1.31-.25-.47-.38-1.09-.38-1.87v-6.22h1.57Z" style="fill:gray;"/><polygon points="1065.15 14.16 1048.44 4.51 1048.44 10.39 1028.92 10.39 1028.92 17.93 1048.44 17.93 1048.44 23.81 1065.15 14.16" style="fill:gray;"/><path d="m309.27,403.13h8.71v1.54h-7.01v3.81h6.16v1.5h-6.16v5.71h-1.7v-12.55Z" style="fill:gray;"/><path d="m325.9,407.44c.81.79,1.21,1.94,1.21,3.47s-.36,2.69-1.07,3.65c-.71.96-1.82,1.44-3.32,1.44-1.25,0-2.24-.42-2.98-1.28-.74-.85-1.1-1.99-1.1-3.43,0-1.54.39-2.76,1.16-3.67.77-.91,1.82-1.37,3.12-1.37,1.17,0,2.16.39,2.97,1.18Zm-.96,6.08c.37-.77.56-1.63.56-2.57,0-.85-.14-1.55-.41-2.08-.43-.84-1.17-1.26-2.21-1.26-.93,0-1.61.36-2.03,1.08-.42.72-.63,1.58-.63,2.59s.21,1.78.63,2.43,1.09.97,2.01.97c1.01,0,1.7-.38,2.07-1.16Z" style="fill:gray;"/><path d="m328.9,406.53h1.46v1.58c.12-.31.41-.68.88-1.12.47-.44,1.01-.66,1.62-.66.03,0,.08,0,.15,0,.07,0,.18.02.35.03v1.62c-.09-.02-.18-.03-.25-.03-.08,0-.16,0-.25,0-.77,0-1.37.25-1.79.75-.42.5-.62,1.07-.62,1.72v5.26h-1.54v-9.15Z" style="fill:gray;"/><path d="m340.87,411.63c.04.71.2,1.29.49,1.74.54.83,1.5,1.25,2.87,1.25.61,0,1.17-.09,1.68-.27.98-.35,1.46-.99,1.46-1.9,0-.68-.21-1.17-.62-1.46-.42-.29-1.08-.53-1.97-.74l-1.65-.38c-1.08-.25-1.84-.53-2.28-.83-.77-.52-1.16-1.31-1.16-2.35,0-1.13.38-2.05,1.14-2.78s1.83-1.09,3.23-1.09c1.28,0,2.37.32,3.26.95.9.64,1.34,1.65,1.34,3.05h-1.6c-.08-.67-.26-1.19-.52-1.55-.5-.66-1.34-.98-2.53-.98-.96,0-1.65.21-2.07.63-.42.42-.63.91-.63,1.47,0,.62.25,1.07.75,1.35.33.18,1.06.41,2.21.68l1.71.4c.82.19,1.46.46,1.9.79.77.59,1.16,1.44,1.16,2.55,0,1.39-.49,2.38-1.48,2.98-.99.6-2.13.9-3.44.9-1.52,0-2.71-.4-3.57-1.2-.86-.79-1.28-1.87-1.27-3.22h1.6Z" style="fill:gray;"/><path d="m351.03,403.09h1.54v4.68c.36-.46.69-.79.98-.97.5-.32,1.11-.49,1.85-.49,1.33,0,2.23.46,2.7,1.39.26.51.38,1.21.38,2.11v5.87h-1.58v-5.77c0-.67-.09-1.17-.26-1.48-.28-.5-.8-.75-1.57-.75-.64,0-1.22.22-1.73.66-.52.44-.78,1.27-.78,2.49v4.85h-1.54v-12.6Z" style="fill:gray;"/><path d="m360.64,403.13h1.56v1.74h-1.56v-1.74Zm0,3.44h1.56v9.11h-1.56v-9.11Z" style="fill:gray;"/><path d="m364.38,406.53h1.46v1.3c.43-.54.89-.92,1.38-1.15.48-.23,1.02-.35,1.62-.35,1.3,0,2.18.45,2.63,1.36.25.5.38,1.21.38,2.13v5.87h-1.56v-5.77c0-.56-.08-1.01-.25-1.35-.27-.57-.77-.85-1.49-.85-.36,0-.66.04-.9.11-.42.12-.79.38-1.11.75-.26.3-.42.61-.5.94-.08.32-.12.78-.12,1.38v4.79h-1.54v-9.15Z" style="fill:gray;"/><path d="m373.78,410.02h4.29v1.58h-4.29v-1.58Z" style="fill:gray;"/><path d="m381.33,411.63c.04.71.2,1.29.49,1.74.54.83,1.5,1.25,2.87,1.25.61,0,1.17-.09,1.68-.27.98-.35,1.46-.99,1.46-1.9,0-.68-.21-1.17-.62-1.46-.42-.29-1.08-.53-1.97-.74l-1.65-.38c-1.08-.25-1.84-.53-2.28-.83-.77-.52-1.16-1.31-1.16-2.35,0-1.13.38-2.05,1.14-2.78s1.83-1.09,3.23-1.09c1.28,0,2.37.32,3.26.95.9.64,1.34,1.65,1.34,3.05h-1.6c-.08-.67-.26-1.19-.52-1.55-.5-.66-1.34-.98-2.53-.98-.96,0-1.65.21-2.07.63-.42.42-.63.91-.63,1.47,0,.62.25,1.07.75,1.35.33.18,1.06.41,2.21.68l1.71.4c.82.19,1.46.46,1.9.79.77.59,1.16,1.44,1.16,2.55,0,1.39-.49,2.38-1.48,2.98-.99.6-2.13.9-3.44.9-1.52,0-2.71-.4-3.57-1.2-.86-.79-1.28-1.87-1.27-3.22h1.6Z" style="fill:gray;"/><path d="m391.49,403.09h1.54v4.68c.36-.46.69-.79.98-.97.5-.32,1.11-.49,1.85-.49,1.33,0,2.23.46,2.7,1.39.26.51.38,1.21.38,2.11v5.87h-1.58v-5.77c0-.67-.09-1.17-.26-1.48-.28-.5-.8-.75-1.57-.75-.64,0-1.22.22-1.73.66-.52.44-.78,1.27-.78,2.49v4.85h-1.54v-12.6Z" style="fill:gray;"/><path d="m401.1,403.13h1.56v1.74h-1.56v-1.74Zm0,3.44h1.56v9.11h-1.56v-9.11Z" style="fill:gray;"/><path d="m404.08,414.47l5.43-6.56h-5.03v-1.38h7.1v1.26l-5.4,6.52h5.56v1.38h-7.67v-1.21Z" style="fill:gray;"/><path d="m414.7,406.53v6.08c0,.47.07.85.22,1.14.27.55.76.82,1.49.82,1.04,0,1.75-.48,2.13-1.44.21-.51.31-1.22.31-2.11v-4.49h1.54v9.15h-1.45l.02-1.35c-.2.35-.44.64-.73.88-.58.48-1.27.72-2.1.72-1.28,0-2.15-.44-2.62-1.31-.25-.47-.38-1.09-.38-1.87v-6.22h1.57Z" style="fill:gray;"/><path d="m429.42,407.44c.81.79,1.21,1.94,1.21,3.47s-.36,2.69-1.07,3.65c-.71.96-1.82,1.44-3.32,1.44-1.25,0-2.24-.42-2.98-1.28-.74-.85-1.1-1.99-1.1-3.43,0-1.54.39-2.76,1.16-3.67.77-.91,1.82-1.37,3.12-1.37,1.17,0,2.16.39,2.97,1.18Zm-.96,6.08c.37-.77.56-1.63.56-2.57,0-.85-.14-1.55-.41-2.08-.43-.84-1.17-1.26-2.21-1.26-.93,0-1.61.36-2.03,1.08-.42.72-.63,1.58-.63,2.59s.21,1.78.63,2.43,1.09.97,2.01.97c1.01,0,1.7-.38,2.07-1.16Z" style="fill:gray;"/><path d="m432.38,403.13h1.48v7.29l3.94-3.89h1.96l-3.52,3.4,3.71,5.75h-1.96l-2.88-4.66-1.26,1.22v3.44h-1.48v-12.55Z" style="fill:gray;"/><path d="m445.89,410.14c.35-.05.59-.19.71-.44.07-.14.1-.33.1-.59,0-.53-.19-.91-.56-1.14-.37-.24-.91-.36-1.6-.36-.8,0-1.37.22-1.71.65-.19.24-.31.6-.37,1.07h-1.44c.03-1.13.39-1.92,1.1-2.36.7-.44,1.52-.66,2.45-.66,1.08,0,1.95.21,2.62.62.67.41,1,1.05,1,1.91v5.27c0,.16.03.29.1.38s.2.14.41.14c.07,0,.15,0,.23-.01.09,0,.18-.02.27-.04v1.14c-.24.07-.42.11-.55.13-.12.02-.3.03-.51.03-.53,0-.91-.19-1.15-.56-.13-.2-.21-.48-.26-.85-.31.41-.76.77-1.35,1.07-.59.3-1.23.45-1.94.45-.85,0-1.54-.26-2.08-.77-.54-.51-.81-1.16-.81-1.93,0-.85.27-1.5.79-1.97.53-.47,1.23-.75,2.08-.86l2.45-.31Zm-3.24,4.15c.33.26.71.38,1.15.38.54,0,1.06-.12,1.57-.38.85-.42,1.28-1.09,1.28-2.04v-1.24c-.19.12-.43.22-.72.3-.3.08-.59.14-.87.17l-.93.12c-.56.07-.98.19-1.26.35-.48.27-.71.69-.71,1.28,0,.44.16.79.49,1.05Z" style="fill:gray;"/><path d="m536.44,123.49h5.62c1.11,0,2.01.31,2.69.94s1.02,1.51,1.02,2.65c0,.98-.3,1.83-.91,2.56-.61.73-1.54,1.09-2.8,1.09h-3.92v5.31h-1.7v-12.55Zm6.6,1.73c-.37-.18-.89-.27-1.54-.27h-3.36v4.35h3.36c.76,0,1.37-.16,1.85-.49.47-.32.71-.9.71-1.72,0-.92-.34-1.55-1.02-1.88Z" style="fill:#0094e2;"/><path d="m547.41,123.49h1.54v12.55h-1.54v-12.55Z" style="fill:#0094e2;"/><path d="m556,130.5c.35-.04.59-.19.71-.44.07-.14.1-.33.1-.59,0-.53-.19-.91-.56-1.15-.37-.24-.91-.36-1.6-.36-.8,0-1.37.22-1.71.65-.19.24-.31.6-.37,1.07h-1.44c.03-1.13.39-1.92,1.1-2.36.7-.44,1.52-.66,2.45-.66,1.08,0,1.95.21,2.62.62.67.41,1,1.05,1,1.91v5.27c0,.16.03.29.1.38s.2.14.42.14c.07,0,.15,0,.23-.01.09,0,.18-.02.27-.04v1.14c-.24.07-.42.11-.55.13-.12.02-.3.03-.51.03-.53,0-.91-.19-1.15-.56-.13-.2-.21-.48-.26-.85-.31.41-.76.77-1.35,1.07s-1.23.45-1.94.45c-.85,0-1.54-.26-2.08-.77s-.81-1.16-.81-1.93c0-.85.27-1.5.79-1.97.53-.47,1.22-.75,2.08-.86l2.45-.31Zm-3.24,4.16c.33.26.71.38,1.15.38.54,0,1.07-.12,1.57-.38.85-.42,1.28-1.09,1.28-2.04v-1.24c-.19.12-.43.22-.72.3-.3.08-.59.14-.87.17l-.93.12c-.56.07-.98.19-1.26.35-.48.27-.71.69-.71,1.28,0,.44.16.79.49,1.05Z" style="fill:#0094e2;"/><path d="m560.87,124.33h1.55v2.56h1.46v1.26h-1.46v5.97c0,.32.11.53.33.64.12.06.32.09.6.09.07,0,.15,0,.24,0,.09,0,.19-.01.3-.03v1.22c-.18.05-.36.09-.55.11-.19.02-.4.03-.62.03-.72,0-1.21-.18-1.46-.55-.26-.37-.38-.84-.38-1.43v-6.06h-1.24v-1.26h1.24v-2.56Z" style="fill:#0094e2;"/><path d="m566.42,124.09c.36-.52,1.05-.79,2.08-.79.1,0,.2,0,.3,0s.22.01.35.03v1.4c-.16-.01-.28-.02-.35-.02-.07,0-.14,0-.2,0-.47,0-.75.12-.85.36-.09.24-.14.86-.14,1.85h1.54v1.21h-1.54v7.9h-1.52v-7.9h-1.27v-1.21h1.27v-1.44c.02-.64.13-1.1.33-1.4Z" style="fill:#0094e2;"/><path d="m576.96,127.8c.81.79,1.21,1.94,1.21,3.47s-.36,2.69-1.07,3.65-1.82,1.44-3.32,1.44c-1.25,0-2.24-.42-2.98-1.28-.74-.85-1.1-1.99-1.1-3.43,0-1.54.39-2.76,1.16-3.67.77-.91,1.82-1.37,3.12-1.37,1.17,0,2.16.39,2.97,1.18Zm-.96,6.08c.38-.77.56-1.63.56-2.57,0-.85-.14-1.55-.41-2.08-.43-.84-1.17-1.26-2.21-1.26-.93,0-1.61.36-2.03,1.08-.42.72-.63,1.58-.63,2.59s.21,1.78.63,2.43c.42.65,1.09.97,2.01.97,1.01,0,1.7-.39,2.07-1.16Z" style="fill:#0094e2;"/><path d="m579.97,126.89h1.46v1.58c.12-.31.41-.68.88-1.12.47-.44,1.01-.66,1.62-.66.03,0,.08,0,.15,0,.07,0,.18.02.35.03v1.62c-.09-.02-.18-.03-.25-.03-.08,0-.16,0-.25,0-.77,0-1.37.25-1.79.75-.42.5-.62,1.07-.62,1.72v5.26h-1.54v-9.15Z" style="fill:#0094e2;"/><path d="m585.69,126.89h1.52v1.3c.36-.45.7-.78.99-.98.51-.35,1.08-.52,1.73-.52.73,0,1.32.18,1.76.54.25.21.48.51.68.91.34-.49.74-.85,1.21-1.09.46-.24.98-.35,1.56-.35,1.23,0,2.07.44,2.51,1.33.24.48.36,1.12.36,1.93v6.09h-1.6v-6.36c0-.61-.15-1.03-.46-1.26-.3-.23-.68-.34-1.12-.34-.6,0-1.12.2-1.56.61-.44.4-.65,1.08-.65,2.03v5.32h-1.56v-5.97c0-.62-.07-1.07-.22-1.36-.23-.43-.67-.64-1.31-.64-.58,0-1.11.23-1.59.67-.48.45-.71,1.26-.71,2.44v4.85h-1.54v-9.15Z" style="fill:#0094e2;"/><path d="m609.18,123.28c-.89,1.74-1.48,3.02-1.74,3.84-.41,1.25-.61,2.69-.61,4.32s.23,3.16.69,4.53c.29.84.85,2.06,1.68,3.64h-1.03c-.83-1.3-1.35-2.13-1.55-2.49-.2-.36-.42-.85-.65-1.46-.32-.84-.54-1.74-.67-2.7-.06-.5-.09-.97-.09-1.42,0-1.69.26-3.19.79-4.5.34-.84,1.04-2.09,2.1-3.76h1.07Z" style="fill:#0094e2;"/><path d="m620.82,125.28c.83,1.11,1.25,2.53,1.25,4.26,0,1.87-.48,3.43-1.43,4.67-1.12,1.46-2.71,2.19-4.78,2.19-1.93,0-3.45-.64-4.55-1.91-.99-1.23-1.48-2.79-1.48-4.67,0-1.7.42-3.15,1.26-4.36,1.08-1.55,2.68-2.32,4.8-2.32s3.86.71,4.92,2.14Zm-1.5,8c.67-1.08,1-2.31,1-3.71,0-1.48-.39-2.67-1.16-3.57-.77-.9-1.83-1.35-3.17-1.35s-2.36.45-3.18,1.34c-.82.89-1.23,2.21-1.23,3.95,0,1.39.35,2.56,1.06,3.52.7.96,1.84,1.43,3.42,1.43s2.58-.54,3.25-1.61Z" style="fill:#0094e2;"/><path d="m625.45,126.89v6.08c0,.47.07.85.22,1.14.27.55.76.82,1.49.82,1.04,0,1.75-.48,2.13-1.44.21-.51.31-1.22.31-2.11v-4.49h1.54v9.15h-1.45l.02-1.35c-.2.35-.44.64-.73.88-.58.48-1.27.72-2.1.72-1.28,0-2.15-.44-2.62-1.31-.25-.47-.38-1.09-.38-1.87v-6.22h1.57Z" style="fill:#0094e2;"/><path d="m633.76,124.33h1.55v2.56h1.46v1.26h-1.46v5.97c0,.32.11.53.33.64.12.06.32.09.6.09.07,0,.15,0,.24,0,.09,0,.19-.01.3-.03v1.22c-.18.05-.36.09-.55.11-.19.02-.4.03-.62.03-.72,0-1.21-.18-1.46-.55-.26-.37-.38-.84-.38-1.43v-6.06h-1.24v-1.26h1.24v-2.56Z" style="fill:#0094e2;"/><path d="m638.15,123.44h1.5v4.55c.34-.44.74-.77,1.21-1s.98-.35,1.53-.35c1.14,0,2.07.39,2.78,1.17s1.07,1.94,1.07,3.46c0,1.45-.35,2.65-1.05,3.61-.7.96-1.68,1.44-2.93,1.44-.7,0-1.29-.17-1.77-.5-.29-.2-.59-.52-.92-.96v1.17h-1.42v-12.6Zm5.88,10.54c.41-.66.62-1.53.62-2.61,0-.96-.21-1.76-.62-2.39-.42-.63-1.02-.95-1.83-.95-.7,0-1.32.26-1.85.78-.53.52-.79,1.37-.79,2.56,0,.86.11,1.56.33,2.09.41,1.01,1.16,1.51,2.27,1.51.83,0,1.46-.33,1.87-.99Z" style="fill:#0094e2;"/><path d="m654.67,127.8c.81.79,1.21,1.94,1.21,3.47s-.36,2.69-1.07,3.65c-.71.96-1.82,1.44-3.32,1.44-1.25,0-2.24-.42-2.98-1.28-.74-.85-1.1-1.99-1.1-3.43,0-1.54.39-2.76,1.16-3.67.78-.91,1.82-1.37,3.12-1.37,1.17,0,2.16.39,2.97,1.18Zm-.96,6.08c.37-.77.56-1.63.56-2.57,0-.85-.13-1.55-.41-2.08-.43-.84-1.17-1.26-2.21-1.26-.93,0-1.61.36-2.03,1.08-.42.72-.63,1.58-.63,2.59s.21,1.78.63,2.43c.42.65,1.09.97,2.01.97,1.01,0,1.7-.39,2.07-1.16Z" style="fill:#0094e2;"/><path d="m659.18,126.89v6.08c0,.47.07.85.22,1.14.27.55.76.82,1.49.82,1.04,0,1.75-.48,2.13-1.44.21-.51.31-1.22.31-2.11v-4.49h1.54v9.15h-1.45l.02-1.35c-.2.35-.44.64-.73.88-.58.48-1.27.72-2.1.72-1.28,0-2.15-.44-2.62-1.31-.25-.47-.38-1.09-.38-1.87v-6.22h1.57Z" style="fill:#0094e2;"/><path d="m667.15,126.89h1.46v1.3c.43-.54.89-.92,1.38-1.15.48-.23,1.02-.35,1.62-.35,1.3,0,2.18.45,2.63,1.36.25.5.38,1.21.38,2.13v5.87h-1.56v-5.77c0-.56-.08-1.01-.25-1.35-.27-.57-.77-.85-1.49-.85-.36,0-.66.04-.9.11-.42.12-.79.38-1.11.75-.26.3-.42.61-.5.94s-.12.78-.12,1.38v4.79h-1.54v-9.15Z" style="fill:#0094e2;"/><path d="m681.89,127.17c.27.17.58.47.93.9v-4.62h1.48v12.6h-1.38v-1.27c-.36.56-.78.97-1.27,1.22-.49.25-1.05.38-1.68.38-1.02,0-1.9-.43-2.64-1.29-.74-.86-1.12-2-1.12-3.42,0-1.33.34-2.49,1.02-3.46.68-.98,1.65-1.47,2.91-1.47.7,0,1.28.15,1.75.44Zm-3.43,6.86c.41.66,1.08.99,1.99.99.71,0,1.29-.31,1.75-.92s.68-1.49.68-2.64-.24-2.01-.71-2.57-1.05-.83-1.74-.83c-.77,0-1.4.3-1.87.89-.48.59-.72,1.46-.72,2.62,0,.98.21,1.8.62,2.46Z" style="fill:#0094e2;"/><path d="m691.66,123.49h1.7v11.06h6.3v1.5h-8v-12.55Z" style="fill:#0094e2;"/><path d="m701.06,123.49h1.56v1.74h-1.56v-1.74Zm0,3.44h1.56v9.11h-1.56v-9.11Z" style="fill:#0094e2;"/><path d="m704.8,126.89h1.46v1.3c.43-.54.89-.92,1.38-1.15.48-.23,1.02-.35,1.62-.35,1.3,0,2.18.45,2.63,1.36.25.5.38,1.21.38,2.13v5.87h-1.56v-5.77c0-.56-.08-1.01-.25-1.35-.27-.57-.77-.85-1.49-.85-.36,0-.66.04-.9.11-.42.12-.79.38-1.11.75-.26.3-.42.61-.5.94s-.12.78-.12,1.38v4.79h-1.54v-9.15Z" style="fill:#0094e2;"/><path d="m720.08,127.14c.61.3,1.07.7,1.38,1.18.31.46.51,1,.61,1.61.09.42.14,1.09.14,2.02h-6.66c.03.93.25,1.68.65,2.24s1.04.84,1.89.84c.8,0,1.43-.27,1.91-.8.27-.31.45-.67.56-1.07h1.51c-.04.34-.17.71-.4,1.12-.22.41-.48.75-.75,1.01-.46.46-1.04.76-1.72.92-.37.09-.78.14-1.25.14-1.13,0-2.09-.41-2.88-1.24s-1.18-1.99-1.18-3.48.4-2.66,1.19-3.58c.79-.92,1.83-1.38,3.11-1.38.65,0,1.27.15,1.88.46Zm.55,3.59c-.06-.67-.21-1.2-.43-1.6-.42-.74-1.12-1.11-2.09-1.11-.7,0-1.29.25-1.76.76-.47.51-.73,1.16-.75,1.94h5.04Z" style="fill:#0094e2;"/><path d="m722.65,139.61c.91-1.77,1.49-3.05,1.75-3.86.4-1.22.6-2.66.6-4.31s-.23-3.15-.69-4.52c-.29-.84-.85-2.06-1.68-3.64h1.03c.88,1.4,1.41,2.27,1.59,2.59.19.33.39.78.6,1.35.27.71.47,1.42.59,2.11.12.7.17,1.36.17,2.01,0,1.69-.27,3.19-.8,4.51-.34.85-1.03,2.1-2.09,3.75h-1.07Z" style="fill:#0094e2;"/><path d="m735.1,136.11v-12.69l13.74,6.35-13.74,6.35Z" style="fill:#0094e2;"/><polygon points="261.9 410.03 278.61 400.38 278.61 406.26 298.13 406.26 298.13 413.79 278.61 413.79 278.61 419.67 261.9 410.03" style="fill:gray;"/><line x1="32.78" y1=".25" x2="873.72" y2=".25" style="fill:none; stroke:#545454; stroke-miterlimit:10; stroke-width:.49px;"/><rect x="50.38" y="503.68" width="72.91" height="12.41" style="fill:#fff; stroke:#545454; stroke-miterlimit:10; stroke-width:.5px;"/><rect x="50.38" y="516.09" width="72.91" height="12.41" style="fill:#fff; stroke:#545454; stroke-miterlimit:10; stroke-width:.5px;"/><rect x="50.38" y="466.44" width="72.91" height="12.41" style="fill:#fff; stroke:#545454; stroke-miterlimit:10; stroke-width:.5px;"/><rect x="50.38" y="491.26" width="72.91" height="12.41" style="fill:#fff; stroke:#545454; stroke-miterlimit:10; stroke-width:.5px;"/><rect x="50.38" y="454.02" width="72.91" height="12.41" style="fill:#fff; stroke:#545454; stroke-miterlimit:10; stroke-width:.5px;"/><rect x="50.38" y="478.85" width="72.91" height="12.41" style="fill:#fff; stroke:#545454; stroke-miterlimit:10; stroke-width:.5px;"/><rect x="247.72" y="305.7" width="806.37" height="69.14" style="fill:#e6e6e6; stroke:#545454; stroke-miterlimit:10; stroke-width:.5px;"/><rect x="16.82" y="487.86" width="74.17" height="6.51" transform="translate(-437.21 545.02) rotate(-90)" style="fill:#545454; stroke:#545454; stroke-miterlimit:10; stroke-width:.5px;"/><rect x="82.68" y="487.86" width="74.17" height="6.51" transform="translate(-371.34 610.88) rotate(-90)" style="fill:#545454; stroke:#545454; stroke-miterlimit:10; stroke-width:.5px;"/><rect x="24.24" y="264.95" width="44.18" height="44.18" rx="3.52" ry="3.52" style="fill:none; stroke:#0094e2; stroke-linecap:round; stroke-linejoin:round; stroke-width:3.52px;"/><rect x="23.18" y="263.9" width="44.18" height="44.18" rx="3.52" ry="3.52" style="fill:#fff;"/><rect x="23.18" y="263.9" width="44.18" height="44.18" rx="3.52" ry="3.52" style="fill:none; stroke:#0094e2; stroke-linecap:round; stroke-linejoin:round; stroke-width:1.76px;"/><polygon points="52.5 275.99 36.69 275.99 33.36 269.23 53.54 272.03 52.5 275.99" style="fill:#0094e2;"/><path d="m36.38,277.96h15.71v4.99c0,2.5-2.08,6.55-7.18,6.55s-7.39-4.37-7.39-5.83v-2.39h-3.95l2.81-3.33Z" style="fill:#0094e2;"/><path d="m63.53,306.15c.52-4.06.1-8.01-1.98-10.19-2.08-2.18-5.83-3.74-11.86-3.74l-4.37,8.43-5.3-8.43s-5.1.52-7.07,1.35c-1.98.83-6.76,5.2-4.99,11.96.12.45.27,1.06.45,1.74h34.97c.05-.38.11-.75.15-1.11Z" style="fill:#0094e2;"/><rect x="24.24" y="339.32" width="44.18" height="44.18" rx="3.52" ry="3.52" style="fill:none; stroke:#f04d13; stroke-linecap:round; stroke-linejoin:round; stroke-width:3.52px;"/><rect x="23.18" y="338.27" width="44.18" height="44.18" rx="3.52" ry="3.52" style="fill:#f7931e;"/><rect x="23.18" y="338.27" width="44.18" height="44.18" rx="3.52" ry="3.52" style="fill:none; stroke:#f04d13; stroke-linecap:round; stroke-linejoin:round; stroke-width:1.76px;"/><path d="m49.55,369.63v-1.68h-1.63v-.75h1.63v-.67h-1.63v-.75h1.26l-1.72-2.98h1.72l.73,1.68c.18.42.31.78.44,1.14h.02c.14-.34.27-.74.45-1.15l.75-1.67h1.68l-1.79,2.98h1.25v.75h-1.65v.67h1.65v.75h-1.65v1.68h-1.5Z" style="fill:#fff;"/><path d="m41.7,368.98c-.36,0-.65.29-.65.65s.29.65.65.65.65-.29.65-.65-.29-.65-.65-.65" style="fill:#fff;"/><path d="m41.7,366.55c-.36,0-.65.29-.65.65s.29.65.65.65.65-.29.65-.65-.29-.65-.65-.65" style="fill:#fff;"/><path d="m58.8,358.72h-23.51v14.52h24.69v-14.52h-1.18Zm0,13.34h-16.45c0-.36-.29-.65-.65-.65s-.65.29-.65.65h-4.58v-12.15h4.58c0,.36.29.65.65.65s.65-.29.65-.65h16.45v12.15Z" style="fill:#fff;"/><path d="m41.7,364.12c-.36,0-.65.29-.65.65s.29.65.65.65.65-.29.65-.65-.29-.65-.65-.65" style="fill:#fff;"/><path d="m41.7,361.69c-.36,0-.65.29-.65.65s.29.65.65.65.65-.29.65-.65-.29-.65-.65-.65" style="fill:#fff;"/><polygon points="37.33 356.93 51.79 349.08 56.38 357.54 57.73 357.54 52.83 348.52 52.27 347.48 51.23 348.04 36.77 355.89 36.67 355.95 35.63 356.51 31.6 358.69 30.56 359.26 31.13 360.3 34.11 365.79 34.11 363.31 32.17 359.73 34.11 358.68 37.33 356.93" style="fill:#fff;"/><rect x="24.24" y="189.99" width="44.18" height="44.18" rx="3.52" ry="3.52" style="fill:none; stroke:#0094e2; stroke-linecap:round; stroke-linejoin:round; stroke-width:3.52px;"/><rect x="23.18" y="188.94" width="44.18" height="44.18" rx="3.52" ry="3.52" style="fill:#fff;"/><rect x="23.18" y="188.94" width="44.18" height="44.18" rx="3.52" ry="3.52" style="fill:none; stroke:#0094e2; stroke-linecap:round; stroke-linejoin:round; stroke-width:1.76px;"/><polygon points="40.76 227.18 35.95 227.18 33.11 204.05 43.6 204.05 40.76 227.18" style="fill:#0094e2;"/><polygon points="49.79 204.05 54.6 204.05 57.44 227.18 46.95 227.18 49.79 204.05" style="fill:#ec0e8d;"/><circle cx="38.35" cy="198.81" r="3.93" style="fill:#0094e2;"/><circle cx="52.19" cy="198.81" r="3.93" style="fill:#ec0e8d;"/><rect x="24.24" y="72.87" width="44.18" height="44.18" rx="3.52" ry="3.52" style="fill:none; stroke:#0094e2; stroke-linecap:round; stroke-linejoin:round; stroke-width:3.52px;"/><rect x="23.18" y="71.82" width="44.18" height="44.18" rx="3.52" ry="3.52" style="fill:#fff;"/><rect x="23.18" y="71.82" width="44.18" height="44.18" rx="3.52" ry="3.52" style="fill:none; stroke:#0094e2; stroke-linecap:round; stroke-linejoin:round; stroke-width:1.76px;"/><polygon points="40.76 110.06 35.95 110.06 33.11 86.93 43.6 86.93 40.76 110.06" style="fill:#0094e2;"/><polygon points="49.79 86.93 54.6 86.93 57.44 110.06 46.95 110.06 49.79 86.93" style="fill:#ec0e8d;"/><circle cx="38.35" cy="81.69" r="3.93" style="fill:#0094e2;"/><circle cx="52.19" cy="81.69" r="3.93" style="fill:#ec0e8d;"/><rect x="24.31" y="126.64" width="44.18" height="44.18" rx="3.52" ry="3.52" style="fill:none; stroke:#f04d13; stroke-linecap:round; stroke-linejoin:round; stroke-width:3.52px;"/><rect x="23.25" y="125.58" width="44.18" height="44.18" rx="3.52" ry="3.52" style="fill:#f7931e;"/><rect x="23.25" y="125.58" width="44.18" height="44.18" rx="3.52" ry="3.52" style="fill:none; stroke:#f04d13; stroke-linecap:round; stroke-linejoin:round; stroke-width:1.76px;"/><polygon points="39.19 161.81 36.19 161.81 34.41 151.04 40.96 151.04 39.19 161.81" style="fill:#fff;"/><circle cx="37.69" cy="147.78" r="2.45" style="fill:#fff;"/><polygon points="46.85 161.81 43.85 161.81 42.07 151.04 48.62 151.04 46.85 161.81" style="fill:#fff;"/><circle cx="45.35" cy="147.78" r="2.45" style="fill:#fff;"/><polygon points="54.51 161.81 51.51 161.81 49.73 151.04 56.28 151.04 54.51 161.81" style="fill:#fff;"/><circle cx="53.01" cy="147.78" r="2.45" style="fill:#fff;"/><rect x="30.27" y="140.56" width="30.16" height="21.63" style="fill:none; stroke:#fff; stroke-linecap:round; stroke-linejoin:round; stroke-width:1.19px;"/><line x1="40.38" y1="131.37" x2="40.38" y2="135.52" style="fill:none; stroke:#fff; stroke-linecap:round; stroke-linejoin:round; stroke-width:1.19px;"/><polyline points="38.07 133.97 40.43 136.72 42.6 133.97" style="fill:none; stroke:#fff; stroke-linecap:round; stroke-linejoin:round; stroke-width:1.19px;"/><line x1="50.31" y1="136.72" x2="50.31" y2="132.58" style="fill:none; stroke:#fff; stroke-linecap:round; stroke-linejoin:round; stroke-width:1.19px;"/><polyline points="52.62 134.12 50.26 131.37 48.09 134.12" style="fill:none; stroke:#fff; stroke-linecap:round; stroke-linejoin:round; stroke-width:1.19px;"/><rect x="271.13" y="107.09" width="12.41" height="72.91" style="fill:#fff; stroke:#545454; stroke-miterlimit:10; stroke-width:.5px;"/><rect x="233.9" y="107.09" width="12.41" height="72.91" style="fill:#fff; stroke:#545454; stroke-miterlimit:10; stroke-width:.5px;"/><rect x="246.31" y="107.09" width="12.41" height="72.91" style="fill:#fff; stroke:#545454; stroke-miterlimit:10; stroke-width:.5px;"/><rect x="258.72" y="107.09" width="12.41" height="72.91" style="fill:#fff; stroke:#545454; stroke-miterlimit:10; stroke-width:.5px;"/><rect x="308.37" y="107.09" width="12.41" height="72.91" style="fill:#fff; stroke:#545454; stroke-miterlimit:10; stroke-width:.5px;"/><rect x="283.55" y="107.09" width="12.41" height="72.91" style="fill:#fff; stroke:#545454; stroke-miterlimit:10; stroke-width:.5px;"/><rect x="320.79" y="107.09" width="12.41" height="72.91" style="fill:#fff; stroke:#545454; stroke-miterlimit:10; stroke-width:.5px;"/><rect x="295.96" y="107.09" width="12.41" height="72.91" style="fill:#fff; stroke:#545454; stroke-miterlimit:10; stroke-width:.5px;"/><rect x="233.9" y="107.62" width="99.3" height="6.51" style="fill:#545454; stroke:#545454; stroke-miterlimit:10; stroke-width:.5px;"/><rect x="233.9" y="173.49" width="99.3" height="6.51" style="fill:#545454; stroke:#545454; stroke-miterlimit:10; stroke-width:.5px;"/><polyline points="98.16 540.77 98.16 415.06 139.62 415.06 139.62 144.16 377.19 144.16 402.33 107.29 992.29 107.29" style="fill:none; stroke:#39b54a; stroke-dasharray:0 0 6.3 6.3; stroke-miterlimit:10; stroke-width:4.41px;"/><polyline points="377.19 148.57 402.33 181.47 991.03 181.47" style="fill:none; stroke:#39b54a; stroke-dasharray:0 0 6.3 6.3; stroke-miterlimit:10; stroke-width:4.41px;"/><path d="m556.08,155.39v12.69l-13.74-6.34,13.74-6.35Z" style="fill:#0094e2;"/><path d="m566.32,155.46h5.62c1.11,0,2.01.32,2.69.94.68.63,1.02,1.51,1.02,2.65,0,.98-.3,1.83-.91,2.56s-1.54,1.09-2.8,1.09h-3.92v5.31h-1.7v-12.55Zm6.6,1.73c-.37-.18-.89-.26-1.54-.26h-3.36v4.35h3.36c.76,0,1.37-.16,1.85-.49.47-.33.71-.9.71-1.72,0-.92-.34-1.55-1.02-1.88Z" style="fill:#0094e2;"/><path d="m577.29,155.46h1.54v12.55h-1.54v-12.55Z" style="fill:#0094e2;"/><path d="m585.89,162.47c.35-.05.59-.19.71-.44.07-.14.1-.33.1-.59,0-.53-.19-.91-.56-1.15-.37-.24-.91-.36-1.6-.36-.8,0-1.37.22-1.71.65-.19.24-.31.6-.37,1.07h-1.44c.03-1.13.39-1.92,1.1-2.36.7-.44,1.52-.67,2.45-.67,1.08,0,1.95.21,2.62.62.67.41,1,1.05,1,1.92v5.27c0,.16.03.29.1.38s.2.15.42.15c.07,0,.15,0,.23-.01.09,0,.18-.02.27-.04v1.14c-.24.07-.42.11-.55.13-.12.02-.3.03-.51.03-.53,0-.91-.19-1.15-.56-.13-.2-.21-.48-.26-.85-.31.41-.76.77-1.35,1.07s-1.23.45-1.94.45c-.85,0-1.54-.26-2.08-.77-.54-.51-.81-1.16-.81-1.93,0-.85.27-1.5.79-1.97.53-.47,1.22-.75,2.08-.86l2.45-.31Zm-3.24,4.16c.33.26.71.38,1.15.38.54,0,1.07-.12,1.57-.38.85-.42,1.28-1.09,1.28-2.04v-1.24c-.19.12-.43.22-.72.3-.3.08-.59.14-.87.17l-.93.12c-.56.07-.98.19-1.26.35-.48.27-.71.69-.71,1.28,0,.44.16.79.49,1.05Z" style="fill:#0094e2;"/><path d="m590.75,156.31h1.55v2.55h1.46v1.26h-1.46v5.97c0,.32.11.53.33.64.12.06.32.09.6.09.07,0,.15,0,.24,0,.09,0,.19-.01.3-.03v1.22c-.18.05-.36.09-.55.11s-.4.03-.62.03c-.72,0-1.21-.18-1.46-.55-.26-.37-.38-.84-.38-1.43v-6.06h-1.24v-1.26h1.24v-2.55Z" style="fill:#0094e2;"/><path d="m596.3,156.07c.36-.52,1.05-.79,2.08-.79.1,0,.2,0,.3,0,.1,0,.22.01.35.03v1.4c-.16-.01-.28-.02-.35-.02-.07,0-.14,0-.2,0-.47,0-.75.12-.85.36-.09.24-.14.86-.14,1.85h1.54v1.21h-1.54v7.9h-1.52v-7.9h-1.27v-1.21h1.27v-1.44c.02-.64.13-1.11.33-1.4Z" style="fill:#0094e2;"/><path d="m606.84,159.77c.81.79,1.21,1.94,1.21,3.47s-.36,2.69-1.07,3.65-1.82,1.44-3.32,1.44c-1.25,0-2.24-.43-2.98-1.28s-1.1-1.99-1.1-3.43c0-1.54.39-2.76,1.16-3.67.77-.91,1.82-1.37,3.12-1.37,1.17,0,2.16.39,2.97,1.18Zm-.96,6.08c.38-.77.56-1.63.56-2.57,0-.85-.14-1.55-.41-2.08-.43-.84-1.17-1.26-2.21-1.26-.93,0-1.61.36-2.03,1.08-.42.72-.63,1.58-.63,2.59s.21,1.78.63,2.43c.42.65,1.09.97,2.01.97,1.01,0,1.7-.38,2.07-1.16Z" style="fill:#0094e2;"/><path d="m609.85,158.86h1.46v1.58c.12-.31.41-.68.88-1.12.47-.44,1.01-.66,1.62-.66.03,0,.08,0,.15,0s.18.02.35.03v1.62c-.09-.02-.18-.03-.25-.03-.08,0-.16,0-.25,0-.77,0-1.37.25-1.79.75-.42.5-.62,1.07-.62,1.72v5.26h-1.54v-9.15Z" style="fill:#0094e2;"/><path d="m615.57,158.86h1.52v1.3c.36-.45.7-.78.99-.98.51-.35,1.08-.52,1.73-.52.73,0,1.32.18,1.76.54.25.21.48.51.68.91.34-.49.74-.85,1.21-1.09.46-.24.98-.35,1.56-.35,1.23,0,2.07.44,2.51,1.33.24.48.36,1.12.36,1.93v6.09h-1.6v-6.36c0-.61-.15-1.03-.46-1.26s-.68-.34-1.12-.34c-.6,0-1.12.2-1.56.61-.44.41-.65,1.08-.65,2.03v5.32h-1.56v-5.97c0-.62-.07-1.07-.22-1.36-.23-.43-.67-.64-1.31-.64-.58,0-1.11.23-1.59.68s-.71,1.26-.71,2.44v4.85h-1.54v-9.15Z" style="fill:#0094e2;"/><path d="m639.06,155.25c-.89,1.74-1.48,3.02-1.74,3.84-.41,1.25-.61,2.69-.61,4.32s.23,3.16.69,4.53c.29.84.85,2.06,1.68,3.64h-1.03c-.83-1.3-1.35-2.13-1.55-2.49-.2-.36-.42-.85-.65-1.46-.32-.84-.54-1.74-.67-2.7-.06-.5-.09-.97-.09-1.42,0-1.69.26-3.19.79-4.5.34-.84,1.04-2.09,2.1-3.76h1.07Z" style="fill:#0094e2;"/><path d="m640.85,155.46h1.72v12.55h-1.72v-12.55Z" style="fill:#0094e2;"/><path d="m644.98,158.86h1.46v1.3c.43-.54.89-.92,1.38-1.15s1.02-.35,1.62-.35c1.3,0,2.18.45,2.63,1.36.25.5.38,1.21.38,2.13v5.87h-1.56v-5.77c0-.56-.08-1.01-.25-1.35-.27-.57-.77-.85-1.49-.85-.36,0-.66.04-.9.11-.42.13-.79.38-1.11.75-.26.3-.42.61-.5.94-.08.32-.12.78-.12,1.38v4.79h-1.54v-9.15Z" style="fill:#0094e2;"/><path d="m654.52,155.42h1.5v4.55c.34-.44.74-.77,1.21-1,.47-.23.98-.35,1.53-.35,1.14,0,2.07.39,2.78,1.17s1.07,1.94,1.07,3.46c0,1.45-.35,2.65-1.05,3.61s-1.68,1.44-2.92,1.44c-.7,0-1.29-.17-1.77-.5-.29-.2-.59-.52-.92-.96v1.17h-1.42v-12.59Zm5.88,10.54c.42-.66.62-1.53.62-2.61,0-.96-.21-1.76-.62-2.39-.41-.63-1.02-.95-1.83-.95-.7,0-1.32.26-1.85.78-.53.52-.79,1.37-.79,2.56,0,.86.11,1.56.33,2.09.41,1.01,1.16,1.51,2.27,1.51.83,0,1.46-.33,1.87-.99Z" style="fill:#0094e2;"/><path d="m671.04,159.77c.81.79,1.21,1.94,1.21,3.47s-.36,2.69-1.07,3.65c-.71.96-1.82,1.44-3.32,1.44-1.25,0-2.24-.43-2.98-1.28s-1.1-1.99-1.1-3.43c0-1.54.39-2.76,1.16-3.67.78-.91,1.82-1.37,3.12-1.37,1.17,0,2.16.39,2.97,1.18Zm-.96,6.08c.37-.77.56-1.63.56-2.57,0-.85-.13-1.55-.41-2.08-.43-.84-1.17-1.26-2.21-1.26-.93,0-1.61.36-2.03,1.08-.42.72-.63,1.58-.63,2.59s.21,1.78.63,2.43c.42.65,1.09.97,2.01.97,1.01,0,1.7-.38,2.07-1.16Z" style="fill:#0094e2;"/><path d="m675.55,158.86v6.08c0,.47.07.85.22,1.15.27.55.76.82,1.49.82,1.04,0,1.75-.48,2.13-1.44.21-.51.31-1.22.31-2.11v-4.49h1.54v9.15h-1.45l.02-1.35c-.2.35-.44.64-.73.88-.58.48-1.27.72-2.1.72-1.28,0-2.15-.44-2.62-1.31-.25-.47-.38-1.09-.38-1.87v-6.22h1.57Z" style="fill:#0094e2;"/><path d="m683.51,158.86h1.46v1.3c.43-.54.89-.92,1.38-1.15s1.02-.35,1.62-.35c1.3,0,2.18.45,2.63,1.36.25.5.38,1.21.38,2.13v5.87h-1.56v-5.77c0-.56-.08-1.01-.25-1.35-.27-.57-.77-.85-1.49-.85-.36,0-.66.04-.9.11-.42.13-.79.38-1.11.75-.26.3-.42.61-.5.94-.08.32-.12.78-.12,1.38v4.79h-1.54v-9.15Z" style="fill:#0094e2;"/><path d="m698.26,159.14c.27.17.58.47.93.9v-4.62h1.48v12.59h-1.38v-1.27c-.36.56-.78.97-1.27,1.22-.49.25-1.05.38-1.68.38-1.02,0-1.9-.43-2.64-1.29s-1.12-2-1.12-3.42c0-1.33.34-2.49,1.02-3.46.68-.98,1.65-1.46,2.91-1.46.7,0,1.28.15,1.75.44Zm-3.43,6.86c.41.66,1.08.99,1.99.99.71,0,1.29-.31,1.75-.92.46-.61.68-1.49.68-2.64s-.24-2.01-.71-2.57c-.47-.56-1.05-.83-1.74-.83-.77,0-1.4.3-1.88.89-.48.59-.72,1.46-.72,2.62,0,.98.21,1.8.62,2.46Z" style="fill:#0094e2;"/><path d="m708.03,155.46h1.7v11.06h6.3v1.5h-8v-12.55Z" style="fill:#0094e2;"/><path d="m717.42,155.46h1.56v1.74h-1.56v-1.74Zm0,3.44h1.56v9.11h-1.56v-9.11Z" style="fill:#0094e2;"/><path d="m721.17,158.86h1.46v1.3c.43-.54.89-.92,1.38-1.15s1.02-.35,1.62-.35c1.3,0,2.18.45,2.63,1.36.25.5.38,1.21.38,2.13v5.87h-1.56v-5.77c0-.56-.08-1.01-.25-1.35-.27-.57-.77-.85-1.49-.85-.36,0-.66.04-.9.11-.42.13-.79.38-1.11.75-.26.3-.42.61-.5.94-.08.32-.12.78-.12,1.38v4.79h-1.54v-9.15Z" style="fill:#0094e2;"/><path d="m736.45,159.11c.61.3,1.07.7,1.38,1.18.31.46.51,1,.61,1.62.09.42.14,1.09.14,2.02h-6.66c.03.93.25,1.68.65,2.24.41.56,1.04.84,1.89.84.8,0,1.43-.27,1.91-.8.27-.31.45-.67.56-1.07h1.51c-.04.34-.17.71-.4,1.12-.23.41-.48.75-.75,1.01-.46.46-1.04.76-1.72.92-.37.09-.78.14-1.25.14-1.13,0-2.09-.42-2.88-1.24-.79-.83-1.18-1.99-1.18-3.48s.4-2.66,1.19-3.58c.79-.92,1.83-1.38,3.11-1.38.65,0,1.27.15,1.88.46Zm.55,3.59c-.06-.67-.21-1.2-.43-1.6-.42-.74-1.12-1.11-2.09-1.11-.7,0-1.29.25-1.76.76s-.73,1.16-.75,1.94h5.04Z" style="fill:#0094e2;"/><path d="m739.02,171.58c.91-1.77,1.49-3.05,1.75-3.86.4-1.22.6-2.66.6-4.31s-.23-3.15-.69-4.52c-.29-.84-.85-2.06-1.68-3.64h1.03c.88,1.4,1.41,2.27,1.59,2.59.18.33.39.78.6,1.35.27.71.47,1.42.58,2.11.12.7.17,1.36.17,2.01,0,1.69-.27,3.19-.8,4.51-.34.85-1.03,2.1-2.09,3.75h-1.07Z" style="fill:#0094e2;"/><rect x="169.35" y="222.41" width="96.61" height="53.44" rx="3.86" ry="3.86" style="fill:#ed0030;"/><rect x="169.35" y="222.41" width="96.61" height="53.44" rx="3.86" ry="3.86" style="fill:none; stroke:#545454; stroke-linecap:round; stroke-linejoin:round; stroke-width:1.89px;"/><polyline points="171.39 258.19 150.61 286 171.39 266.84" style="fill:#ed0030; stroke:#545454; stroke-linecap:round; stroke-linejoin:round; stroke-width:1.89px;"/><path d="m592.54,333.47h5.57c1.52,0,2.6.45,3.24,1.35.38.53.56,1.15.56,1.84,0,.81-.23,1.48-.69,2-.24.28-.58.53-1.04.75.66.25,1.15.54,1.48.85.58.56.87,1.34.87,2.32,0,.83-.26,1.58-.79,2.25-.78,1-2.03,1.51-3.73,1.51h-5.48v-12.88Zm4.92,5.44c.74,0,1.32-.1,1.74-.31.65-.32.97-.9.97-1.74s-.35-1.41-1.04-1.7c-.39-.16-.97-.25-1.74-.25h-3.14v3.99h3.21Zm.59,5.94c1.08,0,1.85-.31,2.31-.93.29-.39.43-.86.43-1.42,0-.93-.42-1.57-1.27-1.91-.45-.18-1.04-.27-1.78-.27h-3.5v4.53h3.8Z" style="fill:gray;"/><path d="m604.34,333.47h1.6v1.79h-1.6v-1.79Zm0,3.53h1.6v9.34h-1.6v-9.34Z" style="fill:gray;"/><path d="m614.49,337.45c.66.51,1.06,1.4,1.2,2.66h-1.53c-.09-.58-.31-1.06-.64-1.44s-.87-.57-1.6-.57c-1,0-1.72.49-2.16,1.47-.28.64-.42,1.42-.42,2.36s.2,1.73.6,2.37c.4.64,1.02.96,1.88.96.65,0,1.17-.2,1.56-.6.38-.4.65-.94.79-1.64h1.53c-.18,1.24-.61,2.16-1.32,2.73-.7.58-1.6.86-2.69.86-1.23,0-2.21-.45-2.94-1.35-.73-.9-1.1-2.02-1.1-3.36,0-1.65.4-2.93,1.2-3.85.8-.92,1.82-1.38,3.06-1.38,1.06,0,1.92.26,2.58.77Z" style="fill:gray;"/><path d="m623.04,336.96h1.74c-.22.6-.72,1.98-1.48,4.12-.57,1.61-1.05,2.93-1.44,3.95-.91,2.39-1.55,3.85-1.93,4.38-.37.53-1.02.79-1.93.79-.22,0-.39,0-.51-.03-.12-.02-.27-.05-.44-.1v-1.44c.27.08.47.12.6.14.12.02.23.03.32.03.29,0,.51-.05.64-.14.14-.1.25-.21.35-.35.03-.05.13-.29.31-.72.18-.43.31-.75.39-.96l-3.47-9.67h1.79l2.52,7.65,2.53-7.65Z" style="fill:gray;"/><path d="m632.02,337.45c.66.51,1.06,1.4,1.2,2.66h-1.53c-.09-.58-.31-1.06-.64-1.44s-.87-.57-1.6-.57c-1,0-1.72.49-2.16,1.47-.28.64-.42,1.42-.42,2.36s.2,1.73.6,2.37c.4.64,1.02.96,1.88.96.65,0,1.17-.2,1.56-.6.38-.4.65-.94.79-1.64h1.53c-.18,1.24-.61,2.16-1.32,2.73-.7.58-1.6.86-2.69.86-1.23,0-2.21-.45-2.94-1.35-.73-.9-1.1-2.02-1.1-3.36,0-1.65.4-2.93,1.2-3.85.8-.92,1.82-1.38,3.06-1.38,1.06,0,1.92.26,2.58.77Z" style="fill:gray;"/><path d="m634.87,333.47h1.58v12.88h-1.58v-12.88Z" style="fill:gray;"/><path d="m644.54,337.21c.62.31,1.09.72,1.42,1.21.31.47.52,1.03.63,1.66.09.43.14,1.12.14,2.07h-6.83c.03.96.25,1.72.67,2.3.42.58,1.06.87,1.94.87.82,0,1.47-.27,1.96-.82.27-.32.47-.68.58-1.1h1.55c-.04.34-.18.73-.41,1.15-.23.42-.49.77-.77,1.04-.48.47-1.06.78-1.77.95-.38.09-.8.14-1.28.14-1.16,0-2.15-.42-2.95-1.28-.81-.85-1.21-2.04-1.21-3.57s.41-2.73,1.22-3.67c.81-.94,1.88-1.41,3.19-1.41.66,0,1.3.16,1.93.47Zm.56,3.69c-.06-.68-.21-1.23-.44-1.64-.43-.76-1.14-1.14-2.15-1.14-.72,0-1.32.26-1.81.78-.49.52-.75,1.19-.77,1.99h5.17Z" style="fill:gray;"/><path d="m654.09,333.47h5.76c1.14,0,2.06.32,2.76.97s1.05,1.55,1.05,2.72c0,1.01-.31,1.88-.94,2.63s-1.58,1.12-2.87,1.12h-4.02v5.44h-1.74v-12.88Zm6.77,1.77c-.38-.18-.91-.27-1.58-.27h-3.45v4.46h3.45c.78,0,1.41-.17,1.89-.5.48-.33.73-.92.73-1.76,0-.95-.35-1.59-1.04-1.93Z" style="fill:gray;"/><path d="m670.15,340.66c.36-.05.6-.2.73-.45.07-.14.11-.34.11-.61,0-.54-.19-.93-.57-1.17-.38-.24-.93-.37-1.64-.37-.82,0-1.41.22-1.75.67-.19.25-.32.61-.38,1.1h-1.47c.03-1.16.4-1.97,1.12-2.42s1.56-.68,2.51-.68c1.1,0,2,.21,2.69.63.68.42,1.02,1.08,1.02,1.96v5.41c0,.16.03.29.1.39.07.1.21.15.42.15.07,0,.15,0,.24-.01.09,0,.18-.02.28-.04v1.17c-.25.07-.43.11-.56.13-.13.02-.3.03-.53.03-.54,0-.94-.19-1.18-.58-.13-.2-.22-.49-.27-.87-.32.42-.78.79-1.38,1.1-.6.31-1.27.46-1.99.46-.87,0-1.58-.26-2.13-.79-.55-.53-.83-1.19-.83-1.98,0-.87.27-1.54.82-2.02s1.26-.77,2.14-.88l2.52-.32Zm-3.32,4.26c.33.26.73.39,1.18.39.56,0,1.09-.13,1.61-.39.88-.43,1.32-1.12,1.32-2.09v-1.27c-.19.12-.44.23-.74.31-.3.08-.6.14-.89.18l-.95.12c-.57.08-1,.2-1.29.36-.49.27-.73.71-.73,1.31,0,.46.17.81.5,1.08Z" style="fill:gray;"/><path d="m675.01,336.96h1.5v1.62c.12-.32.42-.7.9-1.15.48-.45,1.03-.68,1.66-.68.03,0,.08,0,.15,0s.19.02.36.04v1.67c-.09-.02-.18-.03-.26-.04s-.17,0-.26,0c-.79,0-1.41.26-1.83.77-.43.51-.64,1.1-.64,1.77v5.4h-1.58v-9.39Z" style="fill:gray;"/><path d="m680.86,333.47h1.52v7.48l4.05-3.99h2.02l-3.61,3.49,3.81,5.9h-2.02l-2.95-4.78-1.3,1.25v3.52h-1.52v-12.88Z" style="fill:gray;"/><path d="m689.87,333.47h1.6v1.79h-1.6v-1.79Zm0,3.53h1.6v9.34h-1.6v-9.34Z" style="fill:gray;"/><path d="m693.71,336.96h1.5v1.33c.44-.55.92-.94,1.41-1.18.5-.24,1.05-.36,1.66-.36,1.33,0,2.23.46,2.7,1.39.26.51.39,1.24.39,2.18v6.02h-1.6v-5.92c0-.57-.08-1.04-.25-1.39-.28-.58-.79-.88-1.53-.88-.37,0-.68.04-.92.11-.43.13-.81.39-1.14.77-.26.31-.43.63-.51.96s-.12.8-.12,1.42v4.92h-1.58v-9.39Z" style="fill:gray;"/><path d="m708.88,337.33c.3.2.6.5.91.89v-1.18h1.46v8.54c0,1.19-.17,2.13-.52,2.82-.65,1.27-1.88,1.91-3.7,1.91-1.01,0-1.86-.23-2.54-.68s-1.07-1.16-1.15-2.13h1.6c.08.42.23.75.45.97.35.35.91.53,1.67.53,1.2,0,1.99-.43,2.36-1.28.22-.5.32-1.4.3-2.69-.31.48-.69.84-1.13,1.07-.44.23-1.03.35-1.76.35-1.01,0-1.9-.36-2.66-1.08-.76-.72-1.14-1.92-1.14-3.58,0-1.57.38-2.8,1.15-3.68.77-.88,1.69-1.32,2.77-1.32.73,0,1.37.18,1.92.54Zm.19,1.69c-.48-.56-1.08-.84-1.82-.84-1.1,0-1.86.52-2.27,1.56-.22.56-.32,1.28-.32,2.18,0,1.06.21,1.86.64,2.42.43.55,1,.83,1.72.83,1.13,0,1.92-.51,2.38-1.53.26-.58.38-1.25.38-2.03,0-1.16-.24-2.02-.71-2.59Z" style="fill:gray;"/><rect x="181.23" y="403.87" width="44.18" height="44.18" rx="3.52" ry="3.52" style="fill:none; stroke:#f04d13; stroke-linecap:round; stroke-linejoin:round; stroke-width:3.52px;"/><rect x="180.18" y="402.82" width="44.18" height="44.18" rx="3.52" ry="3.52" style="fill:#f7931e;"/><rect x="180.18" y="402.82" width="44.18" height="44.18" rx="3.52" ry="3.52" style="fill:none; stroke:#f04d13; stroke-linecap:round; stroke-linejoin:round; stroke-width:1.76px;"/><polygon points="196.11 439.05 193.11 439.05 191.33 428.28 197.88 428.28 196.11 439.05" style="fill:#fff;"/><circle cx="194.61" cy="425.01" r="2.45" style="fill:#fff;"/><polygon points="203.77 439.05 200.77 439.05 198.99 428.28 205.54 428.28 203.77 439.05" style="fill:#fff;"/><circle cx="202.27" cy="425.01" r="2.45" style="fill:#fff;"/><polygon points="211.43 439.05 208.43 439.05 206.66 428.28 213.2 428.28 211.43 439.05" style="fill:#fff;"/><circle cx="209.93" cy="425.01" r="2.45" style="fill:#fff;"/><rect x="187.19" y="417.8" width="30.16" height="21.63" style="fill:none; stroke:#fff; stroke-linecap:round; stroke-linejoin:round; stroke-width:1.19px;"/><line x1="197.31" y1="408.61" x2="197.31" y2="412.75" style="fill:none; stroke:#fff; stroke-linecap:round; stroke-linejoin:round; stroke-width:1.19px;"/><polyline points="194.99 411.21 197.35 413.96 199.52 411.21" style="fill:none; stroke:#fff; stroke-linecap:round; stroke-linejoin:round; stroke-width:1.19px;"/><line x1="207.23" y1="413.96" x2="207.23" y2="409.81" style="fill:none; stroke:#fff; stroke-linecap:round; stroke-linejoin:round; stroke-width:1.19px;"/><polyline points="209.54 411.35 207.18 408.61 205.01 411.35" style="fill:none; stroke:#fff; stroke-linecap:round; stroke-linejoin:round; stroke-width:1.19px;"/><path d="m198.42,228.51v2.97h-5.02v13.82h-3.53v-13.82h-5.05v-2.97h13.6Z" style="fill:#fff;"/><path d="m203.46,228.41v3h-3.29v-3h3.29Zm0,4.48v12.42h-3.29v-12.42h3.29Z" style="fill:#fff;"/><path d="m217.21,237.34h-3.33c-.06-.46-.22-.88-.47-1.25-.36-.5-.93-.75-1.7-.75-1.09,0-1.84.54-2.24,1.63-.21.58-.32,1.34-.32,2.3s.11,1.64.32,2.2c.39,1.03,1.12,1.55,2.19,1.55.76,0,1.3-.21,1.62-.62s.51-.94.58-1.59h3.32c-.08.99-.43,1.92-1.07,2.8-1.02,1.42-2.53,2.13-4.52,2.13s-3.47-.59-4.41-1.78c-.94-1.18-1.41-2.72-1.41-4.61,0-2.13.52-3.79,1.56-4.98,1.04-1.19,2.48-1.78,4.31-1.78,1.56,0,2.83.35,3.82,1.05.99.7,1.58,1.93,1.76,3.7Z" style="fill:#fff;"/><path d="m230.72,245.31h-3.92l-2.97-5.31-1.34,1.4v3.91h-3.19v-16.74h3.19v9.05l4.04-4.67h4.02l-4.34,4.75,4.51,7.61Z" style="fill:#fff;"/><path d="m242.52,241.66c-.08.74-.47,1.48-1.15,2.24-1.06,1.21-2.55,1.81-4.47,1.81-1.58,0-2.97-.51-4.18-1.53-1.21-1.02-1.81-2.67-1.81-4.97,0-2.15.54-3.8,1.63-4.95,1.09-1.15,2.5-1.72,4.24-1.72,1.03,0,1.96.19,2.79.58.83.39,1.51,1,2.05,1.83.49.74.8,1.59.95,2.56.08.57.12,1.39.1,2.46h-8.5c.05,1.25.44,2.12,1.17,2.62.45.31.99.47,1.62.47.67,0,1.21-.19,1.63-.57.23-.21.43-.49.6-.85h3.32Zm-3.21-3.81c-.05-.86-.31-1.51-.78-1.95-.47-.44-1.05-.67-1.74-.67-.75,0-1.33.24-1.75.71s-.67,1.11-.78,1.91h5.05Z" style="fill:#fff;"/><path d="m250.48,242.99v2.43l-1.54.06c-1.53.05-2.58-.21-3.14-.8-.36-.37-.55-.95-.55-1.72v-7.65h-1.73v-2.31h1.73v-3.46h3.21v3.46h2.02v2.31h-2.02v6.56c0,.51.06.83.19.95.13.13.52.19,1.18.19.1,0,.2,0,.31,0,.11,0,.22,0,.32-.02Z" style="fill:#fff;"/><path d="m203.99,269c-.93.57-2.07.85-3.42.85-2.23,0-4.05-.77-5.47-2.31-1.48-1.55-2.22-3.67-2.22-6.36s.75-4.9,2.24-6.54,3.48-2.46,5.94-2.46c2.13,0,3.85.54,5.14,1.62,1.29,1.08,2.04,2.43,2.23,4.05h-3.45c-.27-1.15-.92-1.95-1.95-2.4-.58-.25-1.22-.38-1.93-.38-1.35,0-2.46.51-3.33,1.53s-1.3,2.56-1.3,4.61.47,3.53,1.41,4.39,2.01,1.29,3.21,1.29,2.14-.34,2.89-1.02c.75-.68,1.22-1.57,1.39-2.67h-3.89v-2.8h7v9.01h-2.32l-.35-2.1c-.68.8-1.28,1.36-1.82,1.69Z" style="fill:#fff;"/><path d="m212.12,258.34c.86-1.09,2.33-1.64,4.42-1.64,1.36,0,2.57.27,3.62.81,1.06.54,1.58,1.56,1.58,3.05v5.7c0,.4,0,.87.02,1.44.02.43.09.71.19.87s.27.28.48.38v.48h-3.53c-.1-.25-.17-.49-.21-.71-.04-.22-.07-.47-.09-.75-.45.49-.96.9-1.55,1.24-.7.4-1.49.6-2.37.6-1.12,0-2.05-.32-2.79-.96s-1.1-1.55-1.1-2.73c0-1.53.59-2.63,1.77-3.32.65-.37,1.6-.64,2.85-.8l1.1-.14c.6-.08,1.03-.17,1.29-.29.46-.2.69-.5.69-.92,0-.51-.18-.86-.53-1.05-.35-.19-.87-.29-1.56-.29-.77,0-1.31.19-1.63.57-.23.28-.38.66-.46,1.14h-3.13c.07-1.09.37-1.98.91-2.68Zm2.42,8.73c.3.25.68.38,1.12.38.7,0,1.34-.21,1.93-.62.59-.41.89-1.16.92-2.25v-1.21c-.21.13-.41.23-.62.31-.21.08-.5.15-.86.22l-.73.14c-.68.12-1.17.27-1.47.44-.5.3-.75.76-.75,1.38,0,.55.16.95.47,1.2Z" style="fill:#fff;"/><path d="m230.19,267.1v2.43l-1.54.06c-1.53.05-2.58-.21-3.14-.8-.36-.37-.55-.95-.55-1.72v-7.65h-1.73v-2.31h1.73v-3.46h3.21v3.46h2.02v2.31h-2.02v6.56c0,.51.06.83.19.95.13.13.52.19,1.18.19.1,0,.2,0,.31,0,.11,0,.22,0,.32-.02Z" style="fill:#fff;"/><path d="m242.75,265.76c-.08.74-.47,1.48-1.15,2.24-1.06,1.21-2.55,1.81-4.47,1.81-1.58,0-2.97-.51-4.18-1.53-1.21-1.02-1.81-2.67-1.81-4.97,0-2.15.54-3.8,1.63-4.95,1.09-1.15,2.5-1.72,4.24-1.72,1.03,0,1.96.19,2.79.58.83.39,1.51,1,2.05,1.83.49.74.8,1.59.95,2.56.08.57.12,1.39.1,2.46h-8.5c.05,1.25.44,2.12,1.17,2.62.45.31.99.47,1.62.47.67,0,1.21-.19,1.63-.57.23-.21.43-.49.6-.85h3.32Zm-3.21-3.81c-.05-.86-.31-1.51-.78-1.95-.47-.44-1.05-.67-1.74-.67-.75,0-1.33.24-1.75.71s-.67,1.11-.78,1.91h5.05Z" style="fill:#fff;"/><path d="m1.94,324.24c.03.64.16,1.16.38,1.56.43.75,1.19,1.12,2.28,1.12.49,0,.93-.08,1.33-.25.77-.32,1.16-.89,1.16-1.71,0-.62-.16-1.05-.49-1.32-.33-.26-.85-.48-1.56-.67l-1.31-.35c-.85-.23-1.46-.47-1.81-.75-.61-.47-.92-1.18-.92-2.12,0-1.02.3-1.85.9-2.5.6-.65,1.45-.98,2.56-.98,1.01,0,1.88.29,2.59.86.71.57,1.06,1.49,1.06,2.75h-1.27c-.06-.61-.2-1.07-.42-1.39-.39-.59-1.06-.89-2.01-.89-.76,0-1.31.19-1.64.57s-.5.82-.5,1.32c0,.55.2.96.59,1.22.26.16.84.37,1.75.62l1.35.36c.65.17,1.15.41,1.51.72.61.53.92,1.3.92,2.3,0,1.25-.39,2.15-1.17,2.69-.78.54-1.69.81-2.72.81-1.21,0-2.15-.36-2.83-1.08-.68-.71-1.02-1.68-1-2.9h1.27Z" style="fill:gray;"/><path d="m10.25,317.34h1.23v2.3h1.16v1.13h-1.16v5.38c0,.29.09.48.26.58.09.06.25.08.47.08.06,0,.12,0,.19,0,.07,0,.15-.01.24-.03v1.1c-.14.05-.29.08-.44.1-.15.02-.31.03-.49.03-.57,0-.96-.17-1.16-.5-.2-.33-.3-.76-.3-1.29v-5.46h-.98v-1.13h.98v-2.3Z" style="fill:gray;"/><path d="m17.72,322.9c.28-.04.47-.17.56-.4.05-.12.08-.3.08-.53,0-.47-.15-.82-.44-1.03s-.72-.32-1.27-.32c-.64,0-1.09.2-1.35.59-.15.22-.25.54-.29.97h-1.14c.02-1.02.31-1.73.87-2.13.56-.4,1.2-.6,1.94-.6.85,0,1.54.19,2.08.55.53.37.79.95.79,1.73v4.75c0,.14.03.26.08.35.05.09.16.13.33.13.05,0,.12,0,.18-.01.07,0,.14-.02.22-.03v1.02c-.19.06-.33.1-.43.12-.1.02-.23.02-.41.02-.42,0-.72-.17-.91-.51-.1-.18-.17-.43-.21-.76-.25.37-.6.69-1.07.96-.47.27-.98.41-1.54.41-.67,0-1.22-.23-1.65-.7s-.64-1.04-.64-1.74c0-.76.21-1.36.63-1.78.42-.42.97-.68,1.65-.78l1.94-.28Zm-2.57,3.75c.26.23.56.35.91.35.43,0,.84-.11,1.25-.34.68-.37,1.02-.99,1.02-1.84v-1.12c-.15.11-.34.2-.57.27s-.46.12-.69.15l-.74.11c-.44.07-.77.17-1,.32-.38.24-.57.62-.57,1.15,0,.4.13.71.39.95Z" style="fill:gray;"/><path d="m21.6,317.34h1.23v2.3h1.16v1.13h-1.16v5.38c0,.29.09.48.26.58.09.06.25.08.47.08.06,0,.12,0,.19,0,.07,0,.15-.01.24-.03v1.1c-.14.05-.29.08-.44.1-.15.02-.31.03-.49.03-.57,0-.96-.17-1.16-.5-.2-.33-.3-.76-.3-1.29v-5.46h-.98v-1.13h.98v-2.3Z" style="fill:gray;"/><path d="m25.17,316.58h1.24v1.57h-1.24v-1.57Zm0,3.1h1.24v8.21h-1.24v-8.21Z" style="fill:gray;"/><path d="m33.49,320.46c.64.71.96,1.75.96,3.12s-.28,2.43-.85,3.29-1.44,1.3-2.63,1.3c-.99,0-1.78-.38-2.36-1.15-.58-.77-.87-1.8-.87-3.09,0-1.38.31-2.49.92-3.31.61-.82,1.44-1.23,2.47-1.23.93,0,1.71.35,2.35,1.06Zm-.76,5.48c.3-.7.45-1.47.45-2.32,0-.77-.11-1.39-.32-1.88-.34-.76-.92-1.14-1.75-1.14-.74,0-1.27.32-1.61.97-.33.65-.5,1.43-.5,2.34s.17,1.61.5,2.19c.33.58.87.88,1.59.88.8,0,1.35-.35,1.64-1.04Z" style="fill:gray;"/><path d="m35.87,319.64h1.16v1.17c.34-.48.71-.83,1.09-1.04.38-.21.81-.32,1.28-.32,1.03,0,1.72.41,2.09,1.22.2.45.3,1.09.3,1.92v5.29h-1.24v-5.2c0-.5-.07-.91-.2-1.22-.22-.51-.61-.77-1.18-.77-.29,0-.53.03-.71.1-.33.11-.63.34-.88.68-.2.27-.34.55-.4.84-.06.29-.09.71-.09,1.24v4.32h-1.22v-8.25Z" style="fill:gray;"/><path d="m47.99,319.87c.48.27.85.63,1.1,1.07.24.42.4.9.48,1.46.07.38.11.99.11,1.82h-5.28c.02.84.19,1.51.52,2.02.32.51.82.76,1.5.76.63,0,1.14-.24,1.51-.72.21-.28.36-.6.45-.97h1.2c-.03.3-.14.64-.31,1.01-.18.37-.38.68-.6.91-.37.41-.82.69-1.36.83-.29.08-.62.12-.99.12-.9,0-1.66-.37-2.28-1.12-.62-.75-.94-1.79-.94-3.14s.31-2.4.94-3.23c.63-.83,1.45-1.24,2.46-1.24.51,0,1.01.14,1.49.41Zm.44,3.24c-.05-.6-.16-1.08-.34-1.44-.33-.67-.88-1-1.66-1-.56,0-1.02.23-1.4.69-.38.46-.58,1.04-.6,1.75h4Z" style="fill:gray;"/><path d="m51.15,319.64h1.16v1.43c.09-.28.33-.62.7-1.01.37-.4.8-.6,1.28-.6.02,0,.06,0,.12,0s.15.02.28.03v1.46c-.07-.02-.14-.03-.2-.03-.06,0-.13,0-.2,0-.61,0-1.09.22-1.42.67s-.49.97-.49,1.55v4.74h-1.22v-8.25Z" style="fill:gray;"/><path d="m60.6,319.64h1.35c-.17.53-.55,1.74-1.14,3.62-.44,1.42-.81,2.57-1.11,3.47-.7,2.1-1.2,3.39-1.49,3.85-.29.46-.79.69-1.49.69-.17,0-.3,0-.4-.02-.09-.02-.21-.04-.34-.08v-1.26c.21.07.36.11.46.12.09.01.18.02.25.02.23,0,.39-.04.5-.13.11-.08.19-.19.27-.31.02-.04.1-.25.24-.63s.24-.66.3-.85l-2.68-8.49h1.38l1.94,6.72,1.96-6.72Z" style="fill:gray;"/><path d="m75.22,318.19c.66,1,.99,2.28.99,3.84,0,1.69-.38,3.09-1.13,4.21-.88,1.31-2.15,1.97-3.79,1.97-1.53,0-2.73-.58-3.61-1.72-.78-1.11-1.17-2.51-1.17-4.21,0-1.53.33-2.84,1-3.93.86-1.4,2.13-2.09,3.81-2.09s3.06.64,3.9,1.93Zm-1.19,7.21c.53-.97.8-2.08.8-3.34,0-1.33-.31-2.4-.92-3.21-.61-.81-1.45-1.22-2.51-1.22s-1.87.4-2.52,1.21c-.65.8-.98,1.99-.98,3.56,0,1.25.28,2.31.84,3.17.56.86,1.46,1.29,2.71,1.29s2.05-.48,2.58-1.45Z" style="fill:gray;"/><path d="m78.34,317.12c.28-.47.83-.71,1.65-.71.08,0,.16,0,.24,0,.08,0,.17.01.28.02v1.26c-.13,0-.22-.02-.28-.02-.06,0-.11,0-.16,0-.37,0-.6.11-.67.33-.07.22-.11.77-.11,1.67h1.22v1.09h-1.22v7.12h-1.21v-7.12h-1.01v-1.09h1.01v-1.29c.02-.58.11-1,.26-1.26Z" style="fill:gray;"/><path d="m82.47,317.12c.28-.47.83-.71,1.65-.71.08,0,.16,0,.24,0,.08,0,.17.01.28.02v1.26c-.13,0-.22-.02-.28-.02-.06,0-.11,0-.16,0-.37,0-.6.11-.67.33-.07.22-.11.77-.11,1.67h1.22v1.09h-1.22v7.12h-1.21v-7.12h-1.01v-1.09h1.01v-1.29c.02-.58.11-1,.26-1.26Z" style="fill:gray;"/><path d="m85.69,316.58h1.24v1.57h-1.24v-1.57Zm0,3.1h1.24v8.21h-1.24v-8.21Z" style="fill:gray;"/><path d="m93.55,320.08c.51.45.82,1.23.92,2.33h-1.19c-.07-.51-.24-.93-.49-1.27-.26-.34-.67-.5-1.24-.5-.78,0-1.33.43-1.67,1.29-.22.56-.33,1.25-.33,2.07s.15,1.52.46,2.08c.31.56.79.85,1.45.85.51,0,.91-.17,1.2-.53.3-.35.5-.83.61-1.44h1.19c-.14,1.09-.47,1.89-1.02,2.4-.54.51-1.24.76-2.08.76-.95,0-1.7-.39-2.27-1.18s-.85-1.77-.85-2.95c0-1.45.31-2.57.93-3.38.62-.81,1.41-1.21,2.36-1.21.82,0,1.48.23,1.99.68Z" style="fill:gray;"/><path d="m100.24,319.87c.48.27.85.63,1.1,1.07.24.42.4.9.48,1.46.07.38.11.99.11,1.82h-5.28c.02.84.19,1.51.52,2.02.32.51.82.76,1.5.76.63,0,1.14-.24,1.51-.72.21-.28.36-.6.45-.97h1.2c-.03.3-.14.64-.31,1.01-.18.37-.38.68-.6.91-.37.41-.82.69-1.36.83-.29.08-.62.12-.99.12-.9,0-1.66-.37-2.28-1.12-.62-.75-.94-1.79-.94-3.14s.31-2.4.94-3.23c.63-.83,1.45-1.24,2.46-1.24.51,0,1.01.14,1.49.41Zm.44,3.24c-.05-.6-.16-1.08-.34-1.44-.33-.67-.88-1-1.66-1-.56,0-1.02.23-1.4.69-.38.46-.58,1.04-.6,1.75h4Z" style="fill:gray;"/><path d="m35.45,392.06v1.53h-4.34v11.34h-1.76v-11.34h-4.34v-1.53h10.44Z" style="fill:gray;"/><path d="m36.79,392.06h1.6v1.79h-1.6v-1.79Zm0,3.53h1.6v9.34h-1.6v-9.34Z" style="fill:gray;"/><path d="m46.95,396.05c.66.51,1.06,1.4,1.2,2.66h-1.53c-.09-.58-.31-1.06-.64-1.44-.33-.38-.87-.57-1.6-.57-1.01,0-1.72.49-2.16,1.47-.28.64-.42,1.42-.42,2.36s.2,1.73.6,2.37c.4.64,1.02.96,1.88.96.65,0,1.17-.2,1.56-.6.38-.4.65-.94.79-1.64h1.53c-.18,1.24-.61,2.16-1.31,2.73-.7.58-1.6.86-2.69.86-1.23,0-2.21-.45-2.94-1.35-.73-.9-1.1-2.02-1.1-3.36,0-1.65.4-2.93,1.2-3.85.8-.92,1.82-1.38,3.06-1.38,1.06,0,1.92.26,2.58.77Z" style="fill:gray;"/><path d="m49.74,392.06h1.52v7.48l4.05-3.99h2.02l-3.61,3.49,3.81,5.9h-2.02l-2.95-4.78-1.3,1.25v3.52h-1.52v-12.88Z" style="fill:gray;"/><path d="m64.08,395.81c.62.31,1.09.72,1.42,1.21.31.47.52,1.03.63,1.66.09.43.14,1.12.14,2.07h-6.83c.03.96.25,1.72.67,2.3s1.06.87,1.94.87c.82,0,1.47-.27,1.96-.82.27-.32.47-.68.58-1.1h1.55c-.04.34-.18.73-.41,1.15s-.49.77-.77,1.04c-.48.47-1.06.78-1.77.95-.38.09-.8.14-1.28.14-1.16,0-2.15-.42-2.95-1.28-.81-.85-1.21-2.04-1.21-3.57s.41-2.73,1.22-3.67c.81-.94,1.88-1.41,3.19-1.41.66,0,1.3.16,1.93.47Zm.57,3.69c-.06-.68-.21-1.23-.44-1.64-.43-.76-1.14-1.14-2.15-1.14-.72,0-1.32.26-1.81.78s-.74,1.19-.77,1.99h5.17Z" style="fill:gray;"/><path d="m68.29,392.93h1.6v2.62h1.5v1.29h-1.5v6.13c0,.33.11.55.33.66.12.06.33.1.61.1.08,0,.16,0,.25,0,.09,0,.19-.01.31-.03v1.25c-.18.05-.37.09-.57.11s-.41.04-.64.04c-.74,0-1.24-.19-1.5-.57-.26-.38-.39-.87-.39-1.47v-6.22h-1.27v-1.29h1.27v-2.62Z" style="fill:gray;"/><path d="m18.46,410.61l3.7,10.97,3.66-10.97h1.96l-4.7,12.88h-1.85l-4.69-12.88h1.93Z" style="fill:gray;"/><path d="m33.98,414.36c.62.31,1.09.72,1.42,1.21.31.47.52,1.03.63,1.66.09.43.14,1.12.14,2.07h-6.83c.03.96.25,1.72.67,2.3s1.06.87,1.94.87c.82,0,1.47-.27,1.96-.82.27-.32.47-.68.58-1.1h1.55c-.04.34-.18.73-.41,1.15s-.49.77-.77,1.04c-.48.47-1.06.78-1.77.95-.38.09-.8.14-1.28.14-1.16,0-2.15-.42-2.95-1.28-.81-.85-1.21-2.04-1.21-3.57s.41-2.73,1.22-3.67c.81-.94,1.88-1.41,3.19-1.41.66,0,1.3.16,1.93.47Zm.57,3.69c-.06-.68-.21-1.23-.44-1.64-.43-.76-1.14-1.14-2.15-1.14-.72,0-1.32.26-1.81.78s-.74,1.19-.77,1.99h5.17Z" style="fill:gray;"/><path d="m38.01,414.1h1.5v1.33c.44-.55.91-.94,1.41-1.18.5-.24,1.05-.36,1.66-.36,1.33,0,2.23.46,2.7,1.39.26.51.39,1.24.39,2.18v6.02h-1.6v-5.92c0-.57-.08-1.04-.25-1.39-.28-.58-.79-.88-1.53-.88-.37,0-.68.04-.92.11-.43.13-.81.39-1.14.77-.26.31-.43.63-.51.96s-.12.8-.12,1.42v4.92h-1.58v-9.39Z" style="fill:gray;"/><path d="m53.14,414.39c.28.17.6.48.95.92v-4.74h1.52v12.92h-1.42v-1.31c-.37.58-.8,1-1.3,1.25-.5.26-1.07.39-1.72.39-1.04,0-1.94-.44-2.71-1.32s-1.14-2.05-1.14-3.51c0-1.37.35-2.55,1.04-3.55.7-1,1.69-1.5,2.98-1.5.72,0,1.32.15,1.8.46Zm-3.52,7.04c.42.68,1.1,1.02,2.04,1.02.73,0,1.32-.31,1.79-.94.47-.63.7-1.53.7-2.71s-.24-2.06-.72-2.63c-.48-.57-1.08-.86-1.79-.86-.79,0-1.43.3-1.92.91-.49.61-.74,1.5-.74,2.68,0,1,.21,1.85.64,2.52Z" style="fill:gray;"/><path d="m57.84,410.61h1.6v1.79h-1.6v-1.79Zm0,3.53h1.6v9.34h-1.6v-9.34Z" style="fill:gray;"/><path d="m61.68,414.1h1.5v1.33c.44-.55.91-.94,1.41-1.18.5-.24,1.05-.36,1.66-.36,1.33,0,2.23.46,2.7,1.39.26.51.39,1.24.39,2.18v6.02h-1.6v-5.92c0-.57-.08-1.04-.25-1.39-.28-.58-.79-.88-1.53-.88-.37,0-.68.04-.92.11-.43.13-.81.39-1.14.77-.26.31-.43.63-.51.96s-.12.8-.12,1.42v4.92h-1.58v-9.39Z" style="fill:gray;"/><path d="m76.85,414.48c.3.2.6.5.91.89v-1.18h1.46v8.54c0,1.19-.17,2.13-.52,2.82-.65,1.27-1.88,1.91-3.7,1.91-1.01,0-1.86-.23-2.54-.68-.69-.45-1.07-1.16-1.15-2.13h1.6c.08.42.23.75.45.97.35.35.91.53,1.67.53,1.2,0,1.99-.43,2.36-1.28.22-.5.32-1.4.31-2.69-.31.48-.69.84-1.14,1.07-.44.23-1.03.35-1.75.35-1.01,0-1.9-.36-2.66-1.08s-1.14-1.92-1.14-3.58c0-1.57.38-2.8,1.15-3.68.77-.88,1.69-1.32,2.77-1.32.73,0,1.37.18,1.92.54Zm.19,1.69c-.48-.56-1.08-.84-1.82-.84-1.1,0-1.86.52-2.27,1.56-.22.56-.32,1.28-.32,2.18,0,1.06.21,1.86.64,2.42.43.55,1,.83,1.72.83,1.13,0,1.92-.51,2.38-1.53.26-.58.38-1.25.38-2.03,0-1.16-.24-2.02-.72-2.59Z" style="fill:gray;"/><path d="m15.96,429.16h2.5l3.7,10.89,3.68-10.89h2.48v12.88h-1.67v-7.6c0-.26,0-.7.02-1.31.01-.61.02-1.26.02-1.96l-3.68,10.86h-1.73l-3.71-10.86v.39c0,.32,0,.8.03,1.44.02.65.03,1.12.03,1.42v7.6h-1.67v-12.88Z" style="fill:gray;"/><path d="m35.69,436.35c.36-.05.6-.2.73-.45.07-.14.1-.34.1-.61,0-.54-.19-.93-.57-1.17-.38-.24-.93-.37-1.64-.37-.82,0-1.41.22-1.75.67-.19.25-.32.61-.38,1.1h-1.47c.03-1.16.4-1.97,1.12-2.42s1.56-.68,2.51-.68c1.1,0,2,.21,2.69.63.68.42,1.02,1.08,1.02,1.96v5.41c0,.16.03.29.1.39.07.1.21.15.42.15.07,0,.15,0,.24-.01.09,0,.18-.02.28-.04v1.17c-.25.07-.43.11-.56.13-.13.02-.3.03-.53.03-.54,0-.94-.19-1.18-.58-.13-.2-.22-.49-.27-.87-.32.42-.78.79-1.39,1.1-.6.31-1.27.46-1.99.46-.87,0-1.58-.26-2.13-.79s-.83-1.19-.83-1.98c0-.87.27-1.54.82-2.02s1.26-.77,2.14-.88l2.52-.32Zm-3.32,4.26c.33.26.73.39,1.18.39.56,0,1.09-.13,1.61-.39.88-.43,1.31-1.12,1.31-2.09v-1.27c-.19.12-.44.23-.74.31s-.6.14-.89.18l-.95.12c-.57.08-1,.2-1.29.36-.49.27-.73.71-.73,1.31,0,.46.17.81.5,1.08Z" style="fill:gray;"/><path d="m46.69,433.15c.66.51,1.06,1.4,1.2,2.66h-1.53c-.09-.58-.31-1.06-.64-1.44-.33-.38-.87-.57-1.6-.57-1.01,0-1.72.49-2.16,1.47-.28.64-.42,1.42-.42,2.36s.2,1.73.6,2.37c.4.64,1.02.96,1.88.96.65,0,1.17-.2,1.56-.6.38-.4.65-.94.79-1.64h1.53c-.18,1.24-.61,2.16-1.31,2.73-.7.58-1.6.86-2.69.86-1.23,0-2.21-.45-2.94-1.35-.73-.9-1.1-2.02-1.1-3.36,0-1.65.4-2.93,1.2-3.85.8-.92,1.82-1.38,3.06-1.38,1.06,0,1.92.26,2.58.77Z" style="fill:gray;"/><path d="m49.49,429.11h1.58v4.8c.37-.47.71-.81,1.01-1,.51-.33,1.14-.5,1.9-.5,1.36,0,2.29.48,2.77,1.43.26.52.39,1.24.39,2.17v6.02h-1.62v-5.92c0-.69-.09-1.2-.26-1.52-.29-.51-.82-.77-1.61-.77-.65,0-1.25.22-1.78.67s-.8,1.3-.8,2.55v4.98h-1.58v-12.92Z" style="fill:gray;"/><path d="m59.35,429.16h1.6v1.79h-1.6v-1.79Zm0,3.53h1.6v9.34h-1.6v-9.34Z" style="fill:gray;"/><path d="m63.19,432.65h1.5v1.33c.44-.55.91-.94,1.41-1.18.5-.24,1.05-.36,1.66-.36,1.33,0,2.23.46,2.7,1.39.26.51.39,1.24.39,2.18v6.02h-1.6v-5.92c0-.57-.08-1.04-.25-1.39-.28-.58-.79-.88-1.53-.88-.37,0-.68.04-.92.11-.43.13-.81.39-1.14.77-.26.31-.43.63-.51.96s-.12.8-.12,1.42v4.92h-1.58v-9.39Z" style="fill:gray;"/><path d="m78.87,432.9c.62.31,1.09.72,1.42,1.21.31.47.52,1.03.63,1.66.09.43.14,1.12.14,2.07h-6.83c.03.96.25,1.72.67,2.3s1.06.87,1.94.87c.82,0,1.47-.27,1.96-.82.27-.32.47-.68.58-1.1h1.55c-.04.34-.18.73-.41,1.15s-.49.77-.77,1.04c-.48.47-1.06.78-1.77.95-.38.09-.8.14-1.28.14-1.16,0-2.15-.42-2.95-1.28-.81-.85-1.21-2.04-1.21-3.57s.41-2.73,1.22-3.67c.81-.94,1.88-1.41,3.19-1.41.66,0,1.3.16,1.93.47Zm.57,3.69c-.06-.68-.21-1.23-.44-1.64-.43-.76-1.14-1.14-2.15-1.14-.72,0-1.32.26-1.81.78s-.74,1.19-.77,1.99h5.17Z" style="fill:gray;"/></g></svg>