<?xml version="1.0" encoding="UTF-8"?><svg id="_レイヤー_2" xmlns="http://www.w3.org/2000/svg" width="1014.58" height="453.32" viewBox="0 0 1014.58 453.32"><g id="_レイヤー_2-2"><rect x="163.46" y="106.47" width="54.88" height="197.53" style="fill:#f2f2f2;"/><polygon points="136.95 279.53 49.89 279.53 49.89 391.27 136.95 391.27 281.6 391.27 949.63 391.27 1014.45 361.48 1014.45 279.53 281.6 279.53 136.95 279.53" style="fill:#f2f2f2;"/><polygon points="951.89 5.25 281.6 5.25 162.58 5.25 49.89 5.25 49.89 116.99 162.58 116.99 281.6 116.99 1014.45 116.99 1014.45 33.76 951.89 5.25" style="fill:#f2f2f2;"/><rect x="131.95" y="274.53" width="144.65" height="111.74" style="fill:#e3f2f7;"/><polygon points="276.6 274.53 276.6 386.27 947.63 386.27 1009.45 359.48 1009.45 274.53 276.6 274.53" style="fill:#dbf1de;"/><rect x="157.57" y=".25" width="119.03" height="111.74" style="fill:#e3f2f7;"/><polygon points="1009.45 28.76 946.89 .25 276.6 .25 276.6 111.99 1009.45 111.99 1009.45 28.76" style="fill:#dbf1de;"/><path d="m835.83,130.94h8.71v1.54h-7.01v3.81h6.16v1.5h-6.16v5.71h-1.7v-12.55Z" style="fill:gray;"/><path d="m852.46,135.26c.81.79,1.21,1.94,1.21,3.47s-.36,2.69-1.07,3.65c-.71.96-1.82,1.44-3.32,1.44-1.25,0-2.24-.43-2.98-1.28s-1.1-1.99-1.1-3.43c0-1.54.39-2.76,1.16-3.67.77-.91,1.82-1.37,3.12-1.37,1.17,0,2.16.39,2.97,1.18Zm-.96,6.08c.38-.77.56-1.63.56-2.57,0-.85-.13-1.55-.41-2.08-.43-.84-1.17-1.26-2.21-1.26-.93,0-1.61.36-2.03,1.08-.42.72-.63,1.58-.63,2.59s.21,1.78.63,2.43c.42.65,1.09.97,2.01.97,1.01,0,1.7-.38,2.07-1.16Z" style="fill:gray;"/><path d="m855.47,134.34h1.46v1.58c.12-.31.41-.68.88-1.12s1.01-.66,1.62-.66c.03,0,.08,0,.15,0s.18.02.35.03v1.62c-.09-.02-.18-.03-.25-.03-.08,0-.16,0-.25,0-.77,0-1.37.25-1.79.75-.42.5-.62,1.07-.62,1.72v5.26h-1.54v-9.15Z" style="fill:gray;"/><path d="m867.43,139.44c.04.71.2,1.29.49,1.73.54.83,1.5,1.25,2.87,1.25.62,0,1.17-.09,1.68-.27.98-.35,1.46-.99,1.46-1.9,0-.68-.21-1.17-.62-1.46-.42-.29-1.08-.53-1.97-.74l-1.65-.38c-1.08-.25-1.84-.53-2.28-.83-.77-.52-1.16-1.31-1.16-2.35,0-1.13.38-2.05,1.14-2.78.76-.72,1.83-1.08,3.23-1.08,1.28,0,2.37.32,3.26.95.9.64,1.34,1.65,1.34,3.05h-1.6c-.08-.67-.26-1.19-.52-1.55-.5-.66-1.34-.98-2.53-.98-.96,0-1.65.21-2.07.63-.42.42-.63.91-.63,1.47,0,.62.25,1.07.75,1.35.33.18,1.06.41,2.21.68l1.71.4c.82.19,1.46.46,1.9.79.77.59,1.16,1.44,1.16,2.55,0,1.39-.49,2.38-1.48,2.98-.99.6-2.13.9-3.44.9-1.52,0-2.71-.4-3.58-1.2-.86-.79-1.28-1.87-1.27-3.22h1.6Z" style="fill:gray;"/><path d="m877.6,130.9h1.54v4.68c.36-.46.69-.79.98-.97.5-.32,1.11-.49,1.85-.49,1.33,0,2.23.46,2.7,1.39.26.51.38,1.21.38,2.11v5.87h-1.58v-5.77c0-.67-.08-1.17-.26-1.48-.28-.5-.8-.75-1.57-.75-.64,0-1.22.22-1.73.66s-.78,1.27-.78,2.49v4.85h-1.54v-12.59Z" style="fill:gray;"/><path d="m887.21,130.94h1.56v1.74h-1.56v-1.74Zm0,3.44h1.56v9.11h-1.56v-9.11Z" style="fill:gray;"/><path d="m890.95,134.34h1.46v1.3c.43-.54.89-.92,1.38-1.15s1.02-.35,1.62-.35c1.3,0,2.18.45,2.63,1.36.25.5.38,1.21.38,2.13v5.87h-1.56v-5.77c0-.56-.08-1.01-.25-1.35-.27-.57-.77-.85-1.49-.85-.36,0-.66.04-.9.11-.42.13-.79.38-1.11.75-.26.3-.42.61-.5.94-.08.32-.12.78-.12,1.38v4.79h-1.54v-9.15Z" style="fill:gray;"/><path d="m900.35,137.83h4.29v1.58h-4.29v-1.58Z" style="fill:gray;"/><path d="m907.89,139.44c.04.71.2,1.29.49,1.73.54.83,1.5,1.25,2.87,1.25.62,0,1.17-.09,1.68-.27.98-.35,1.46-.99,1.46-1.9,0-.68-.21-1.17-.62-1.46-.42-.29-1.08-.53-1.97-.74l-1.65-.38c-1.08-.25-1.84-.53-2.28-.83-.77-.52-1.16-1.31-1.16-2.35,0-1.13.38-2.05,1.14-2.78.76-.72,1.83-1.08,3.23-1.08,1.28,0,2.37.32,3.26.95.9.64,1.34,1.65,1.34,3.05h-1.6c-.08-.67-.26-1.19-.52-1.55-.5-.66-1.34-.98-2.53-.98-.96,0-1.65.21-2.07.63-.42.42-.63.91-.63,1.47,0,.62.25,1.07.75,1.35.33.18,1.06.41,2.21.68l1.71.4c.82.19,1.46.46,1.9.79.77.59,1.16,1.44,1.16,2.55,0,1.39-.49,2.38-1.48,2.98-.99.6-2.13.9-3.44.9-1.52,0-2.71-.4-3.58-1.2-.86-.79-1.28-1.87-1.27-3.22h1.6Z" style="fill:gray;"/><path d="m918.06,130.9h1.54v4.68c.36-.46.69-.79.98-.97.5-.32,1.11-.49,1.85-.49,1.33,0,2.23.46,2.7,1.39.26.51.38,1.21.38,2.11v5.87h-1.58v-5.77c0-.67-.08-1.17-.26-1.48-.28-.5-.8-.75-1.57-.75-.64,0-1.22.22-1.73.66s-.78,1.27-.78,2.49v4.85h-1.54v-12.59Z" style="fill:gray;"/><path d="m927.66,130.94h1.56v1.74h-1.56v-1.74Zm0,3.44h1.56v9.11h-1.56v-9.11Z" style="fill:gray;"/><path d="m931.41,134.34h1.52v1.3c.37-.45.7-.78.99-.98.51-.35,1.08-.52,1.73-.52.73,0,1.32.18,1.76.54.25.21.48.51.68.91.34-.49.74-.85,1.2-1.09.46-.24.98-.35,1.56-.35,1.23,0,2.07.44,2.51,1.33.24.48.36,1.12.36,1.93v6.09h-1.6v-6.36c0-.61-.15-1.03-.46-1.26s-.68-.34-1.11-.34c-.6,0-1.12.2-1.56.61-.44.41-.65,1.08-.65,2.03v5.32h-1.56v-5.97c0-.62-.07-1.07-.22-1.36-.23-.43-.67-.64-1.31-.64-.58,0-1.11.23-1.58.68-.48.45-.71,1.26-.71,2.44v4.85h-1.54v-9.15Z" style="fill:gray;"/><path d="m945.87,130.94h1.56v1.74h-1.56v-1.74Zm0,3.44h1.56v9.11h-1.56v-9.11Z" style="fill:gray;"/><path d="m948.85,142.28l5.43-6.56h-5.03v-1.38h7.1v1.26l-5.4,6.52h5.56v1.38h-7.67v-1.21Z" style="fill:gray;"/><path d="m959.47,134.34v6.08c0,.47.07.85.22,1.15.27.55.76.82,1.49.82,1.04,0,1.75-.48,2.13-1.44.21-.51.31-1.22.31-2.11v-4.49h1.54v9.15h-1.45l.02-1.35c-.2.35-.44.64-.73.88-.58.48-1.27.72-2.1.72-1.28,0-2.15-.44-2.62-1.31-.25-.47-.38-1.09-.38-1.87v-6.22h1.57Z" style="fill:gray;"/><polygon points="1010 137.84 993.28 128.19 993.28 134.07 973.77 134.07 973.77 141.61 993.28 141.61 993.28 147.49 1010 137.84" style="fill:gray;"/><path d="m270.06,241.06h8.71v1.54h-7.01v3.81h6.16v1.5h-6.16v5.71h-1.7v-12.55Z" style="fill:gray;"/><path d="m286.69,245.37c.81.79,1.21,1.94,1.21,3.47s-.36,2.69-1.07,3.65c-.71.96-1.82,1.44-3.32,1.44-1.25,0-2.24-.42-2.98-1.28-.74-.85-1.1-1.99-1.1-3.43,0-1.54.39-2.76,1.16-3.67.77-.91,1.82-1.37,3.12-1.37,1.17,0,2.16.39,2.97,1.18Zm-.96,6.08c.37-.77.56-1.63.56-2.57,0-.85-.14-1.55-.41-2.08-.43-.84-1.17-1.26-2.21-1.26-.93,0-1.61.36-2.03,1.08-.42.72-.63,1.58-.63,2.59s.21,1.78.63,2.43,1.09.97,2.01.97c1.01,0,1.7-.38,2.07-1.16Z" style="fill:gray;"/><path d="m289.7,244.46h1.46v1.58c.12-.31.41-.68.88-1.12.47-.44,1.01-.66,1.62-.66.03,0,.08,0,.15,0,.07,0,.18.02.35.03v1.62c-.09-.02-.18-.03-.25-.03-.08,0-.16,0-.25,0-.77,0-1.37.25-1.79.75-.42.5-.62,1.07-.62,1.72v5.26h-1.54v-9.15Z" style="fill:gray;"/><path d="m301.66,249.56c.04.71.2,1.29.49,1.74.54.83,1.5,1.25,2.87,1.25.61,0,1.17-.09,1.68-.27.98-.35,1.46-.99,1.46-1.9,0-.68-.21-1.17-.62-1.46-.42-.29-1.08-.53-1.97-.74l-1.65-.38c-1.08-.25-1.84-.53-2.28-.83-.77-.52-1.16-1.31-1.16-2.35,0-1.13.38-2.05,1.14-2.78s1.83-1.09,3.23-1.09c1.28,0,2.37.32,3.26.95.9.64,1.34,1.65,1.34,3.05h-1.6c-.08-.67-.26-1.19-.52-1.55-.5-.66-1.34-.98-2.53-.98-.96,0-1.65.21-2.07.63-.42.42-.63.91-.63,1.47,0,.62.25,1.07.75,1.35.33.18,1.06.41,2.21.68l1.71.4c.82.19,1.46.46,1.9.79.77.59,1.16,1.44,1.16,2.55,0,1.39-.49,2.38-1.48,2.98-.99.6-2.13.9-3.44.9-1.52,0-2.71-.4-3.57-1.2-.86-.79-1.28-1.87-1.27-3.22h1.6Z" style="fill:gray;"/><path d="m311.83,241.01h1.54v4.68c.36-.46.69-.79.98-.97.5-.32,1.11-.49,1.85-.49,1.33,0,2.23.46,2.7,1.39.26.51.38,1.21.38,2.11v5.87h-1.58v-5.77c0-.67-.09-1.17-.26-1.48-.28-.5-.8-.75-1.57-.75-.64,0-1.22.22-1.73.66-.52.44-.78,1.27-.78,2.49v4.85h-1.54v-12.6Z" style="fill:gray;"/><path d="m321.44,241.06h1.56v1.74h-1.56v-1.74Zm0,3.44h1.56v9.11h-1.56v-9.11Z" style="fill:gray;"/><path d="m325.18,244.46h1.46v1.3c.43-.54.89-.92,1.38-1.15.48-.23,1.02-.35,1.62-.35,1.3,0,2.18.45,2.63,1.36.25.5.38,1.21.38,2.13v5.87h-1.56v-5.77c0-.56-.08-1.01-.25-1.35-.27-.57-.77-.85-1.49-.85-.36,0-.66.04-.9.11-.42.12-.79.38-1.11.75-.26.3-.42.61-.5.94-.08.32-.12.78-.12,1.38v4.79h-1.54v-9.15Z" style="fill:gray;"/><path d="m334.58,247.94h4.29v1.58h-4.29v-1.58Z" style="fill:gray;"/><path d="m342.12,249.56c.04.71.2,1.29.49,1.74.54.83,1.5,1.25,2.87,1.25.61,0,1.17-.09,1.68-.27.98-.35,1.46-.99,1.46-1.9,0-.68-.21-1.17-.62-1.46-.42-.29-1.08-.53-1.97-.74l-1.65-.38c-1.08-.25-1.84-.53-2.28-.83-.77-.52-1.16-1.31-1.16-2.35,0-1.13.38-2.05,1.14-2.78s1.83-1.09,3.23-1.09c1.28,0,2.37.32,3.26.95.9.64,1.34,1.65,1.34,3.05h-1.6c-.08-.67-.26-1.19-.52-1.55-.5-.66-1.34-.98-2.53-.98-.96,0-1.65.21-2.07.63-.42.42-.63.91-.63,1.47,0,.62.25,1.07.75,1.35.33.18,1.06.41,2.21.68l1.71.4c.82.19,1.46.46,1.9.79.77.59,1.16,1.44,1.16,2.55,0,1.39-.49,2.38-1.48,2.98-.99.6-2.13.9-3.44.9-1.52,0-2.71-.4-3.57-1.2-.86-.79-1.28-1.87-1.27-3.22h1.6Z" style="fill:gray;"/><path d="m352.29,241.01h1.54v4.68c.36-.46.69-.79.98-.97.5-.32,1.11-.49,1.85-.49,1.33,0,2.23.46,2.7,1.39.26.51.38,1.21.38,2.11v5.87h-1.58v-5.77c0-.67-.09-1.17-.26-1.48-.28-.5-.8-.75-1.57-.75-.64,0-1.22.22-1.73.66-.52.44-.78,1.27-.78,2.49v4.85h-1.54v-12.6Z" style="fill:gray;"/><path d="m361.89,241.06h1.56v1.74h-1.56v-1.74Zm0,3.44h1.56v9.11h-1.56v-9.11Z" style="fill:gray;"/><path d="m364.87,252.4l5.43-6.56h-5.03v-1.38h7.1v1.26l-5.4,6.52h5.56v1.38h-7.67v-1.21Z" style="fill:gray;"/><path d="m375.5,244.46v6.08c0,.47.07.85.22,1.14.27.55.76.82,1.49.82,1.04,0,1.75-.48,2.13-1.44.21-.51.31-1.22.31-2.11v-4.49h1.54v9.15h-1.45l.02-1.35c-.2.35-.44.64-.73.88-.58.48-1.27.72-2.1.72-1.28,0-2.15-.44-2.62-1.31-.25-.47-.38-1.09-.38-1.87v-6.22h1.57Z" style="fill:gray;"/><path d="m390.21,245.37c.81.79,1.21,1.94,1.21,3.47s-.36,2.69-1.07,3.65c-.71.96-1.82,1.44-3.32,1.44-1.25,0-2.24-.42-2.98-1.28-.74-.85-1.1-1.99-1.1-3.43,0-1.54.39-2.76,1.16-3.67.77-.91,1.82-1.37,3.12-1.37,1.17,0,2.16.39,2.97,1.18Zm-.96,6.08c.37-.77.56-1.63.56-2.57,0-.85-.14-1.55-.41-2.08-.43-.84-1.17-1.26-2.21-1.26-.93,0-1.61.36-2.03,1.08-.42.72-.63,1.58-.63,2.59s.21,1.78.63,2.43,1.09.97,2.01.97c1.01,0,1.7-.38,2.07-1.16Z" style="fill:gray;"/><path d="m393.18,241.06h1.48v7.29l3.94-3.89h1.96l-3.52,3.4,3.71,5.75h-1.96l-2.88-4.66-1.26,1.22v3.44h-1.48v-12.55Z" style="fill:gray;"/><path d="m406.69,248.07c.35-.05.59-.19.71-.44.07-.14.1-.33.1-.59,0-.53-.19-.91-.56-1.14-.37-.24-.91-.36-1.6-.36-.8,0-1.37.22-1.71.65-.19.24-.31.6-.37,1.07h-1.44c.03-1.13.39-1.92,1.1-2.36.7-.44,1.52-.66,2.45-.66,1.08,0,1.95.21,2.62.62.67.41,1,1.05,1,1.91v5.27c0,.16.03.29.1.38s.2.14.41.14c.07,0,.15,0,.23-.01.09,0,.18-.02.27-.04v1.14c-.24.07-.42.11-.55.13-.12.02-.3.03-.51.03-.53,0-.91-.19-1.15-.56-.13-.2-.21-.48-.26-.85-.31.41-.76.77-1.35,1.07-.59.3-1.23.45-1.94.45-.85,0-1.54-.26-2.08-.77-.54-.51-.81-1.16-.81-1.93,0-.85.27-1.5.79-1.97.53-.47,1.23-.75,2.08-.86l2.45-.31Zm-3.24,4.15c.33.26.71.38,1.15.38.54,0,1.06-.12,1.57-.38.85-.42,1.28-1.09,1.28-2.04v-1.24c-.19.12-.43.22-.72.3-.3.08-.59.14-.87.17l-.93.12c-.56.07-.98.19-1.26.35-.48.27-.71.69-.71,1.28,0,.44.16.79.49,1.05Z" style="fill:gray;"/><polygon points="225.69 246.95 242.41 237.3 242.41 243.19 261.92 243.19 261.92 250.72 242.41 250.72 242.41 256.6 225.69 246.95" style="fill:gray;"/><path d="m504.71,42.44h5.62c1.11,0,2.01.32,2.69.94.68.63,1.02,1.51,1.02,2.65,0,.98-.3,1.83-.91,2.56s-1.54,1.09-2.8,1.09h-3.92v5.31h-1.7v-12.55Zm6.6,1.73c-.37-.18-.89-.26-1.54-.26h-3.36v4.35h3.36c.76,0,1.37-.16,1.85-.49.47-.33.71-.9.71-1.72,0-.92-.34-1.55-1.02-1.88Z" style="fill:#0094e2;"/><path d="m515.68,42.44h1.54v12.55h-1.54v-12.55Z" style="fill:#0094e2;"/><path d="m524.27,49.46c.35-.05.59-.19.71-.44.07-.14.1-.33.1-.59,0-.53-.19-.91-.56-1.15-.37-.24-.91-.36-1.6-.36-.8,0-1.37.22-1.71.65-.19.24-.31.6-.37,1.07h-1.44c.03-1.13.39-1.92,1.1-2.36.7-.44,1.52-.67,2.45-.67,1.08,0,1.95.21,2.62.62.67.41,1,1.05,1,1.92v5.27c0,.16.03.29.1.38s.2.15.41.15c.07,0,.15,0,.23-.01.09,0,.18-.02.27-.04v1.14c-.24.07-.42.11-.55.13-.12.02-.3.03-.51.03-.53,0-.91-.19-1.15-.56-.13-.2-.21-.48-.26-.85-.31.41-.76.77-1.35,1.07-.59.3-1.23.45-1.94.45-.85,0-1.54-.26-2.08-.77-.54-.51-.81-1.16-.81-1.93,0-.85.27-1.5.79-1.97.53-.47,1.23-.75,2.08-.86l2.45-.31Zm-3.24,4.16c.33.26.71.38,1.15.38.54,0,1.06-.12,1.57-.38.85-.42,1.28-1.09,1.28-2.04v-1.24c-.19.12-.43.22-.72.3-.3.08-.59.14-.87.17l-.93.12c-.56.07-.98.19-1.26.35-.48.27-.71.69-.71,1.28,0,.44.16.79.49,1.05Z" style="fill:#0094e2;"/><path d="m529.14,43.29h1.56v2.55h1.46v1.26h-1.46v5.97c0,.32.11.53.32.64.12.06.32.09.6.09.07,0,.15,0,.24,0s.19-.01.3-.03v1.22c-.18.05-.36.09-.55.11-.19.02-.4.03-.62.03-.72,0-1.21-.18-1.46-.55-.26-.37-.38-.84-.38-1.43v-6.06h-1.24v-1.26h1.24v-2.55Z" style="fill:#0094e2;"/><path d="m534.69,43.05c.36-.52,1.05-.79,2.08-.79.1,0,.2,0,.3,0,.1,0,.22.01.35.03v1.4c-.16-.01-.28-.02-.35-.02-.07,0-.14,0-.2,0-.47,0-.75.12-.85.36-.09.24-.14.86-.14,1.85h1.54v1.21h-1.54v7.9h-1.52v-7.9h-1.27v-1.21h1.27v-1.44c.02-.64.13-1.11.33-1.4Z" style="fill:#0094e2;"/><path d="m545.23,46.76c.81.79,1.21,1.94,1.21,3.47s-.36,2.69-1.07,3.65-1.82,1.44-3.32,1.44c-1.25,0-2.24-.43-2.98-1.28s-1.1-1.99-1.1-3.43c0-1.54.39-2.76,1.16-3.67.77-.91,1.82-1.37,3.12-1.37,1.17,0,2.16.39,2.97,1.18Zm-.96,6.08c.38-.77.56-1.63.56-2.57,0-.85-.14-1.55-.41-2.08-.43-.84-1.17-1.26-2.21-1.26-.93,0-1.61.36-2.03,1.08-.42.72-.63,1.58-.63,2.59s.21,1.78.63,2.43c.42.65,1.09.97,2.01.97,1.01,0,1.7-.38,2.07-1.16Z" style="fill:#0094e2;"/><path d="m548.23,45.85h1.46v1.58c.12-.31.41-.68.88-1.12.47-.44,1.01-.66,1.62-.66.03,0,.08,0,.15,0s.18.02.35.03v1.62c-.09-.02-.18-.03-.25-.03-.08,0-.16,0-.25,0-.77,0-1.37.25-1.79.75-.42.5-.62,1.07-.62,1.72v5.26h-1.54v-9.15Z" style="fill:#0094e2;"/><path d="m553.96,45.85h1.52v1.3c.36-.45.7-.78.99-.98.51-.35,1.08-.52,1.73-.52.73,0,1.32.18,1.76.54.25.21.48.51.68.91.34-.49.74-.85,1.21-1.09.46-.24.98-.35,1.56-.35,1.23,0,2.07.44,2.51,1.33.24.48.36,1.12.36,1.93v6.09h-1.6v-6.36c0-.61-.15-1.03-.46-1.26s-.68-.34-1.12-.34c-.6,0-1.12.2-1.56.61-.44.41-.65,1.08-.65,2.03v5.32h-1.56v-5.97c0-.62-.07-1.07-.22-1.36-.23-.43-.67-.64-1.31-.64-.58,0-1.11.23-1.59.68s-.71,1.26-.71,2.44v4.85h-1.54v-9.15Z" style="fill:#0094e2;"/><path d="m577.45,42.24c-.89,1.74-1.48,3.02-1.74,3.84-.41,1.25-.61,2.69-.61,4.32s.23,3.16.69,4.53c.29.84.85,2.06,1.68,3.64h-1.03c-.83-1.3-1.35-2.13-1.55-2.49-.2-.36-.42-.85-.65-1.46-.32-.84-.54-1.74-.67-2.7-.06-.5-.09-.97-.09-1.42,0-1.69.26-3.19.79-4.5.34-.84,1.04-2.09,2.1-3.76h1.07Z" style="fill:#0094e2;"/><path d="m589.09,44.24c.83,1.11,1.25,2.53,1.25,4.26,0,1.88-.48,3.43-1.43,4.67-1.12,1.46-2.71,2.19-4.78,2.19-1.93,0-3.45-.64-4.55-1.91-.99-1.23-1.48-2.79-1.48-4.67,0-1.7.42-3.15,1.26-4.36,1.08-1.55,2.68-2.32,4.8-2.32s3.86.71,4.92,2.14Zm-1.5,8c.67-1.07,1-2.31,1-3.71,0-1.48-.39-2.67-1.16-3.57s-1.83-1.35-3.17-1.35-2.36.45-3.18,1.34-1.23,2.21-1.23,3.95c0,1.39.35,2.56,1.06,3.52.7.96,1.84,1.43,3.42,1.43s2.58-.54,3.25-1.61Z" style="fill:#0094e2;"/><path d="m593.72,45.85v6.08c0,.47.07.85.22,1.15.27.55.76.82,1.49.82,1.04,0,1.75-.48,2.13-1.44.21-.51.31-1.22.31-2.11v-4.49h1.54v9.15h-1.45l.02-1.35c-.2.35-.44.64-.73.88-.58.48-1.27.72-2.1.72-1.28,0-2.15-.44-2.62-1.31-.25-.47-.38-1.09-.38-1.87v-6.22h1.57Z" style="fill:#0094e2;"/><path d="m602.03,43.29h1.55v2.55h1.46v1.26h-1.46v5.97c0,.32.11.53.33.64.12.06.32.09.6.09.07,0,.15,0,.24,0,.09,0,.19-.01.3-.03v1.22c-.18.05-.36.09-.55.11s-.4.03-.62.03c-.72,0-1.21-.18-1.46-.55-.26-.37-.38-.84-.38-1.43v-6.06h-1.24v-1.26h1.24v-2.55Z" style="fill:#0094e2;"/><path d="m606.42,42.4h1.5v4.55c.34-.44.74-.77,1.21-1,.47-.23.98-.35,1.53-.35,1.14,0,2.07.39,2.78,1.17s1.07,1.94,1.07,3.46c0,1.45-.35,2.65-1.05,3.61-.7.96-1.68,1.44-2.93,1.44-.7,0-1.29-.17-1.77-.5-.29-.2-.59-.52-.92-.96v1.17h-1.42v-12.59Zm5.88,10.54c.41-.66.62-1.53.62-2.61,0-.96-.21-1.76-.62-2.39-.42-.63-1.02-.95-1.83-.95-.7,0-1.32.26-1.85.78-.53.52-.79,1.37-.79,2.56,0,.86.11,1.56.33,2.09.41,1.01,1.16,1.51,2.27,1.51.83,0,1.46-.33,1.87-.99Z" style="fill:#0094e2;"/><path d="m622.94,46.76c.81.79,1.21,1.94,1.21,3.47s-.36,2.69-1.07,3.65c-.71.96-1.82,1.44-3.32,1.44-1.25,0-2.24-.43-2.98-1.28s-1.1-1.99-1.1-3.43c0-1.54.39-2.76,1.16-3.67.78-.91,1.82-1.37,3.12-1.37,1.17,0,2.16.39,2.97,1.18Zm-.96,6.08c.37-.77.56-1.63.56-2.57,0-.85-.13-1.55-.41-2.08-.43-.84-1.17-1.26-2.21-1.26-.93,0-1.61.36-2.03,1.08-.42.72-.63,1.58-.63,2.59s.21,1.78.63,2.43c.42.65,1.09.97,2.01.97,1.01,0,1.7-.38,2.07-1.16Z" style="fill:#0094e2;"/><path d="m627.45,45.85v6.08c0,.47.07.85.22,1.15.27.55.76.82,1.49.82,1.04,0,1.75-.48,2.13-1.44.21-.51.31-1.22.31-2.11v-4.49h1.54v9.15h-1.45l.02-1.35c-.2.35-.44.64-.73.88-.58.48-1.27.72-2.1.72-1.28,0-2.15-.44-2.62-1.31-.25-.47-.38-1.09-.38-1.87v-6.22h1.57Z" style="fill:#0094e2;"/><path d="m635.42,45.85h1.46v1.3c.43-.54.89-.92,1.38-1.15.48-.23,1.02-.35,1.62-.35,1.3,0,2.18.45,2.63,1.36.25.5.38,1.21.38,2.13v5.87h-1.56v-5.77c0-.56-.08-1.01-.25-1.35-.27-.57-.77-.85-1.49-.85-.36,0-.66.04-.9.11-.42.13-.79.38-1.11.75-.26.3-.42.61-.5.94-.08.32-.12.78-.12,1.38v4.79h-1.54v-9.15Z" style="fill:#0094e2;"/><path d="m650.16,46.13c.27.17.58.47.93.9v-4.62h1.48v12.59h-1.38v-1.27c-.36.56-.78.97-1.27,1.22-.49.25-1.05.38-1.68.38-1.02,0-1.9-.43-2.64-1.29-.74-.86-1.12-2-1.12-3.42,0-1.33.34-2.49,1.02-3.46.68-.98,1.65-1.46,2.91-1.46.7,0,1.28.15,1.75.44Zm-3.43,6.86c.41.66,1.08.99,1.99.99.71,0,1.29-.31,1.75-.92.46-.61.68-1.49.68-2.64s-.24-2.01-.71-2.57c-.47-.56-1.05-.83-1.74-.83-.77,0-1.4.3-1.87.89-.48.59-.72,1.46-.72,2.62,0,.98.21,1.8.62,2.46Z" style="fill:#0094e2;"/><path d="m659.93,42.44h1.7v11.06h6.3v1.5h-8v-12.55Z" style="fill:#0094e2;"/><path d="m669.33,42.44h1.56v1.74h-1.56v-1.74Zm0,3.44h1.56v9.11h-1.56v-9.11Z" style="fill:#0094e2;"/><path d="m673.07,45.85h1.46v1.3c.43-.54.89-.92,1.38-1.15.48-.23,1.02-.35,1.62-.35,1.3,0,2.18.45,2.63,1.36.25.5.38,1.21.38,2.13v5.87h-1.56v-5.77c0-.56-.08-1.01-.25-1.35-.27-.57-.77-.85-1.49-.85-.36,0-.66.04-.9.11-.42.13-.79.38-1.11.75-.26.3-.42.61-.5.94-.08.32-.12.78-.12,1.38v4.79h-1.54v-9.15Z" style="fill:#0094e2;"/><path d="m688.35,46.1c.61.3,1.07.7,1.38,1.18.31.46.51,1,.61,1.62.09.42.14,1.09.14,2.02h-6.66c.03.93.25,1.68.65,2.24s1.04.84,1.89.84c.8,0,1.43-.27,1.91-.8.27-.31.45-.67.56-1.07h1.51c-.04.34-.17.71-.4,1.12-.22.41-.48.75-.75,1.01-.46.46-1.04.76-1.72.92-.37.09-.78.14-1.25.14-1.13,0-2.09-.42-2.88-1.24-.79-.83-1.18-1.99-1.18-3.48s.4-2.66,1.19-3.58,1.83-1.38,3.11-1.38c.65,0,1.27.15,1.88.46Zm.55,3.59c-.06-.67-.21-1.2-.43-1.6-.42-.74-1.12-1.11-2.09-1.11-.7,0-1.29.25-1.76.76-.47.51-.73,1.16-.75,1.94h5.04Z" style="fill:#0094e2;"/><path d="m690.92,58.57c.91-1.77,1.49-3.05,1.75-3.86.4-1.22.6-2.66.6-4.31s-.23-3.15-.69-4.52c-.29-.84-.85-2.06-1.68-3.64h1.03c.88,1.4,1.41,2.27,1.59,2.59.19.33.39.78.6,1.35.27.71.47,1.42.59,2.11.12.7.17,1.36.17,2.01,0,1.69-.27,3.19-.8,4.51-.34.85-1.03,2.1-2.09,3.75h-1.07Z" style="fill:#0094e2;"/><path d="m703.37,55.06v-12.69l13.74,6.35-13.74,6.34Z" style="fill:#0094e2;"/><path d="m517,333.99v12.69l-13.74-6.35,13.74-6.35Z" style="fill:#0094e2;"/><path d="m527.24,334.06h5.62c1.11,0,2.01.31,2.69.94.68.63,1.02,1.51,1.02,2.65,0,.98-.3,1.83-.91,2.56-.61.73-1.54,1.09-2.8,1.09h-3.92v5.31h-1.7v-12.55Zm6.6,1.73c-.37-.18-.89-.27-1.54-.27h-3.36v4.35h3.36c.76,0,1.37-.16,1.85-.49s.71-.9.71-1.72c0-.92-.34-1.55-1.02-1.88Z" style="fill:#0094e2;"/><path d="m538.21,334.06h1.54v12.55h-1.54v-12.55Z" style="fill:#0094e2;"/><path d="m546.8,341.07c.35-.04.59-.19.71-.44.07-.14.1-.33.1-.59,0-.53-.19-.91-.56-1.15s-.91-.36-1.6-.36c-.8,0-1.37.22-1.71.65-.19.24-.31.6-.37,1.07h-1.44c.03-1.13.39-1.92,1.1-2.36.7-.44,1.52-.67,2.45-.67,1.08,0,1.95.21,2.62.62.67.41,1,1.05,1,1.92v5.27c0,.16.03.29.1.38.07.1.2.14.41.14.07,0,.15,0,.23-.01.09,0,.18-.02.27-.04v1.14c-.24.07-.42.11-.55.13-.12.02-.3.03-.51.03-.53,0-.91-.19-1.15-.56-.12-.2-.21-.48-.26-.85-.31.41-.76.77-1.35,1.07-.59.3-1.23.45-1.94.45-.85,0-1.54-.26-2.08-.77-.54-.52-.81-1.16-.81-1.93,0-.85.26-1.5.79-1.97.53-.47,1.23-.75,2.08-.86l2.45-.31Zm-3.24,4.16c.33.26.71.38,1.15.38.54,0,1.06-.12,1.57-.38.85-.42,1.28-1.1,1.28-2.04v-1.24c-.19.12-.43.22-.72.3s-.59.14-.87.17l-.93.12c-.56.07-.98.19-1.26.35-.48.27-.71.69-.71,1.28,0,.44.16.79.49,1.05Z" style="fill:#0094e2;"/><path d="m551.67,334.91h1.56v2.55h1.46v1.26h-1.46v5.97c0,.32.11.53.32.64.12.06.32.09.6.09.07,0,.15,0,.24,0,.08,0,.18-.01.3-.03v1.22c-.18.05-.36.09-.55.11-.19.02-.4.03-.62.03-.72,0-1.21-.18-1.46-.55-.26-.37-.38-.84-.38-1.43v-6.06h-1.24v-1.26h1.24v-2.55Z" style="fill:#0094e2;"/><path d="m557.22,334.67c.36-.52,1.05-.79,2.08-.79.1,0,.2,0,.3,0,.1,0,.22.02.35.03v1.4c-.16-.01-.28-.02-.35-.02-.07,0-.14,0-.2,0-.47,0-.75.12-.85.36s-.14.86-.14,1.85h1.54v1.21h-1.54v7.9h-1.52v-7.9h-1.27v-1.21h1.27v-1.44c.02-.64.13-1.11.33-1.4Z" style="fill:#0094e2;"/><path d="m567.76,338.37c.81.79,1.21,1.94,1.21,3.47s-.36,2.69-1.07,3.65c-.71.96-1.82,1.44-3.32,1.44-1.25,0-2.24-.43-2.98-1.28s-1.1-1.99-1.1-3.43c0-1.54.39-2.76,1.16-3.67.78-.91,1.82-1.37,3.12-1.37,1.17,0,2.16.39,2.97,1.18Zm-.96,6.08c.37-.77.56-1.63.56-2.57,0-.85-.13-1.55-.41-2.08-.43-.84-1.17-1.26-2.21-1.26-.93,0-1.61.36-2.03,1.08-.42.72-.63,1.58-.63,2.59s.21,1.79.63,2.43c.42.65,1.09.97,2.01.97,1.01,0,1.7-.39,2.07-1.16Z" style="fill:#0094e2;"/><path d="m570.77,337.46h1.46v1.58c.12-.31.41-.68.88-1.12s1-.66,1.62-.66c.03,0,.08,0,.15,0,.07,0,.18.02.35.03v1.62c-.09-.02-.17-.03-.25-.03s-.16,0-.25,0c-.77,0-1.37.25-1.79.75-.42.5-.62,1.07-.62,1.72v5.26h-1.54v-9.15Z" style="fill:#0094e2;"/><path d="m576.49,337.46h1.52v1.3c.36-.45.69-.78.99-.98.51-.35,1.08-.52,1.73-.52.73,0,1.32.18,1.76.54.25.21.48.51.68.91.34-.49.74-.85,1.2-1.09.46-.24.98-.36,1.56-.36,1.23,0,2.07.45,2.51,1.33.24.48.36,1.12.36,1.93v6.09h-1.6v-6.36c0-.61-.15-1.03-.46-1.26-.31-.23-.68-.34-1.12-.34-.6,0-1.12.2-1.56.61-.44.41-.65,1.08-.65,2.03v5.32h-1.56v-5.97c0-.62-.07-1.07-.22-1.36-.23-.43-.67-.64-1.31-.64-.58,0-1.11.22-1.58.67s-.71,1.26-.71,2.44v4.85h-1.54v-9.15Z" style="fill:#0094e2;"/><path d="m599.98,333.86c-.89,1.74-1.48,3.02-1.74,3.84-.4,1.25-.61,2.69-.61,4.32s.23,3.16.69,4.53c.28.84.85,2.06,1.68,3.64h-1.03c-.83-1.3-1.35-2.13-1.55-2.49-.2-.36-.42-.85-.65-1.46-.32-.84-.54-1.74-.67-2.7-.06-.5-.09-.97-.09-1.42,0-1.69.27-3.19.79-4.5.34-.84,1.04-2.09,2.1-3.76h1.07Z" style="fill:#0094e2;"/><path d="m601.77,334.06h1.72v12.55h-1.72v-12.55Z" style="fill:#0094e2;"/><path d="m605.9,337.46h1.46v1.3c.43-.54.89-.92,1.38-1.15.48-.23,1.02-.35,1.62-.35,1.3,0,2.18.45,2.63,1.36.25.5.38,1.21.38,2.13v5.87h-1.56v-5.77c0-.56-.08-1.01-.25-1.35-.27-.57-.77-.85-1.49-.85-.36,0-.66.04-.9.11-.42.12-.79.38-1.11.75-.26.3-.42.61-.5.94s-.12.78-.12,1.38v4.79h-1.54v-9.15Z" style="fill:#0094e2;"/><path d="m615.44,334.02h1.5v4.55c.34-.44.74-.77,1.21-1s.98-.35,1.53-.35c1.14,0,2.07.39,2.78,1.17s1.07,1.94,1.07,3.46-.35,2.65-1.05,3.61c-.7.96-1.68,1.44-2.93,1.44-.7,0-1.29-.17-1.77-.5-.29-.2-.59-.52-.92-.96v1.17h-1.42v-12.6Zm5.88,10.54c.41-.66.62-1.53.62-2.61,0-.96-.21-1.76-.62-2.39-.42-.63-1.02-.95-1.83-.95-.7,0-1.32.26-1.85.78-.53.52-.79,1.37-.79,2.56,0,.86.11,1.56.33,2.09.41,1.01,1.16,1.51,2.27,1.51.83,0,1.46-.33,1.87-.99Z" style="fill:#0094e2;"/><path d="m631.96,338.37c.81.79,1.21,1.94,1.21,3.47s-.36,2.69-1.07,3.65c-.71.96-1.82,1.44-3.32,1.44-1.25,0-2.24-.43-2.98-1.28s-1.1-1.99-1.1-3.43c0-1.54.39-2.76,1.16-3.67.77-.91,1.82-1.37,3.12-1.37,1.17,0,2.16.39,2.97,1.18Zm-.96,6.08c.38-.77.56-1.63.56-2.57,0-.85-.14-1.55-.41-2.08-.43-.84-1.17-1.26-2.21-1.26-.93,0-1.61.36-2.03,1.08-.42.72-.63,1.58-.63,2.59s.21,1.79.63,2.43c.42.65,1.09.97,2.01.97,1.01,0,1.7-.39,2.07-1.16Z" style="fill:#0094e2;"/><path d="m636.47,337.46v6.08c0,.47.07.85.22,1.14.27.55.76.82,1.49.82,1.04,0,1.75-.48,2.13-1.44.21-.51.31-1.22.31-2.11v-4.49h1.54v9.15h-1.45l.02-1.35c-.2.35-.44.64-.73.88-.58.48-1.27.72-2.1.72-1.28,0-2.15-.44-2.62-1.31-.25-.47-.38-1.09-.38-1.87v-6.22h1.57Z" style="fill:#0094e2;"/><path d="m644.43,337.46h1.46v1.3c.43-.54.89-.92,1.38-1.15.48-.23,1.02-.35,1.62-.35,1.3,0,2.18.45,2.63,1.36.25.5.38,1.21.38,2.13v5.87h-1.56v-5.77c0-.56-.08-1.01-.25-1.35-.27-.57-.77-.85-1.49-.85-.36,0-.66.04-.9.11-.42.12-.79.38-1.11.75-.26.3-.42.61-.5.94s-.12.78-.12,1.38v4.79h-1.54v-9.15Z" style="fill:#0094e2;"/><path d="m659.18,337.74c.27.17.58.47.93.9v-4.62h1.48v12.6h-1.38v-1.27c-.36.56-.78.97-1.27,1.22s-1.05.38-1.68.38c-1.02,0-1.9-.43-2.64-1.29-.74-.86-1.12-2-1.12-3.42,0-1.33.34-2.49,1.02-3.46.68-.98,1.65-1.46,2.91-1.46.7,0,1.28.15,1.75.44Zm-3.43,6.86c.41.66,1.08.99,1.99.99.71,0,1.29-.31,1.75-.92.46-.61.68-1.49.68-2.64s-.24-2.01-.71-2.57-1.05-.83-1.74-.83c-.77,0-1.4.3-1.87.89-.48.59-.72,1.46-.72,2.62,0,.98.21,1.8.62,2.46Z" style="fill:#0094e2;"/><path d="m668.95,334.06h1.7v11.06h6.3v1.5h-8v-12.55Z" style="fill:#0094e2;"/><path d="m678.34,334.06h1.56v1.74h-1.56v-1.74Zm0,3.44h1.56v9.11h-1.56v-9.11Z" style="fill:#0094e2;"/><path d="m682.09,337.46h1.46v1.3c.43-.54.89-.92,1.38-1.15.48-.23,1.02-.35,1.62-.35,1.3,0,2.18.45,2.63,1.36.25.5.38,1.21.38,2.13v5.87h-1.56v-5.77c0-.56-.08-1.01-.25-1.35-.27-.57-.77-.85-1.49-.85-.36,0-.66.04-.9.11-.42.12-.79.38-1.11.75-.26.3-.42.61-.5.94s-.12.78-.12,1.38v4.79h-1.54v-9.15Z" style="fill:#0094e2;"/><path d="m697.37,337.71c.61.3,1.07.7,1.38,1.18.31.46.51,1,.61,1.62.09.42.14,1.09.14,2.02h-6.66c.03.93.25,1.68.65,2.24s1.04.84,1.89.84c.8,0,1.43-.27,1.91-.8.27-.31.45-.67.56-1.07h1.51c-.04.34-.17.71-.4,1.12-.22.41-.48.75-.75,1.01-.46.46-1.04.76-1.72.92-.37.09-.78.14-1.25.14-1.13,0-2.09-.41-2.88-1.24s-1.18-1.99-1.18-3.48.4-2.66,1.19-3.58,1.83-1.38,3.11-1.38c.65,0,1.27.15,1.88.46Zm.55,3.59c-.06-.67-.21-1.2-.43-1.6-.42-.74-1.12-1.11-2.09-1.11-.7,0-1.29.25-1.76.76-.47.51-.73,1.16-.75,1.94h5.04Z" style="fill:#0094e2;"/><path d="m699.93,350.18c.91-1.77,1.49-3.05,1.75-3.86.4-1.22.6-2.66.6-4.31s-.23-3.15-.69-4.52c-.29-.84-.85-2.06-1.68-3.64h1.03c.88,1.4,1.41,2.27,1.59,2.59.19.33.39.78.6,1.35.27.71.47,1.42.59,2.11.12.7.17,1.36.17,2.01,0,1.69-.27,3.19-.8,4.51-.34.85-1.03,2.1-2.09,3.75h-1.07Z" style="fill:#0094e2;"/><line x1="49.73" y1="163.85" x2="1014.58" y2="163.85" style="fill:none; stroke:#4d4948; stroke-miterlimit:10; stroke-width:7.56px;"/><line x1="49.73" y1="163.85" x2="1014.58" y2="163.85" style="fill:none; stroke:#fff; stroke-miterlimit:10; stroke-width:5.04px;"/><line x1="49.73" y1="163.85" x2="1014.58" y2="163.85" style="fill:none; stroke:#4d4948; stroke-dasharray:0 0 25.2 25.2; stroke-miterlimit:10; stroke-width:5.04px;"/><line x1="49.73" y1="221.31" x2="1014.58" y2="221.31" style="fill:none; stroke:#4d4948; stroke-miterlimit:10; stroke-width:7.56px;"/><line x1="49.73" y1="221.31" x2="1014.58" y2="221.31" style="fill:none; stroke:#fff; stroke-miterlimit:10; stroke-width:5.04px;"/><line x1="49.73" y1="221.31" x2="1014.58" y2="221.31" style="fill:none; stroke:#4d4948; stroke-dasharray:0 0 25.2 25.2; stroke-miterlimit:10; stroke-width:5.04px;"/><rect x="44.89" y="274.53" width="87.06" height="111.74" style="fill:#e6e6e6;"/><rect x="44.89" y=".25" width="112.69" height="111.74" style="fill:#67d4ff; stroke:#545454; stroke-miterlimit:10; stroke-width:.5px;"/><rect x="251.77" y="35.68" width="12.41" height="75.91" style="fill:#fff; stroke:#545454; stroke-miterlimit:10; stroke-width:.5px;"/><rect x="214.54" y="35.68" width="12.41" height="75.91" style="fill:#fff; stroke:#545454; stroke-miterlimit:10; stroke-width:.5px;"/><rect x="226.95" y="35.68" width="12.41" height="75.91" style="fill:#fff; stroke:#545454; stroke-miterlimit:10; stroke-width:.5px;"/><rect x="239.36" y="35.68" width="12.41" height="75.91" style="fill:#fff; stroke:#545454; stroke-miterlimit:10; stroke-width:.5px;"/><rect x="264.19" y="35.68" width="12.41" height="75.91" style="fill:#fff; stroke:#545454; stroke-miterlimit:10; stroke-width:.5px;"/><rect x="214.54" y="35.68" width="62.06" height="6.51" style="fill:#545454; stroke:#545454; stroke-miterlimit:10; stroke-width:.5px;"/><rect x="214.54" y="105.08" width="62.06" height="6.51" style="fill:#545454; stroke:#545454; stroke-miterlimit:10; stroke-width:.5px;"/><rect x="251.77" y="274.53" width="12.41" height="75.91" style="fill:#fff; stroke:#545454; stroke-miterlimit:10; stroke-width:.5px;"/><rect x="214.54" y="274.53" width="12.41" height="75.91" style="fill:#fff; stroke:#545454; stroke-miterlimit:10; stroke-width:.5px;"/><rect x="226.95" y="274.53" width="12.41" height="75.91" style="fill:#fff; stroke:#545454; stroke-miterlimit:10; stroke-width:.5px;"/><rect x="239.36" y="274.53" width="12.41" height="75.91" style="fill:#fff; stroke:#545454; stroke-miterlimit:10; stroke-width:.5px;"/><rect x="264.19" y="274.53" width="12.41" height="75.91" style="fill:#fff; stroke:#545454; stroke-miterlimit:10; stroke-width:.5px;"/><rect x="214.54" y="274.53" width="62.06" height="6.51" style="fill:#545454; stroke:#545454; stroke-miterlimit:10; stroke-width:.5px;"/><rect x="214.54" y="343.93" width="62.06" height="6.51" style="fill:#545454; stroke:#545454; stroke-miterlimit:10; stroke-width:.5px;"/><rect x="122.42" y="311.68" width="16.34" height="50.28" transform="translate(467.41 206.23) rotate(90)" style="fill:#ffffc8; stroke:#545454; stroke-miterlimit:10; stroke-width:.5px;"/><rect x="122.42" y="341.59" width="16.34" height="50.28" transform="translate(497.32 236.14) rotate(90)" style="fill:#ffffc8; stroke:#545454; stroke-miterlimit:10; stroke-width:.5px;"/><rect x="74.02" y="274.53" width="61.51" height="43.06" style="fill:#e6e6e6; stroke:#545454; stroke-miterlimit:10; stroke-width:.5px;"/><rect x="94.02" y="274.53" width="61.51" height="43.06" style="fill:#fff; stroke:#545454; stroke-miterlimit:10; stroke-width:.5px;"/><polygon points="131.95 274.53 44.89 274.53 44.89 386.27 131.95 386.27 276.6 386.27 947.63 386.27 1009.45 359.48 1009.45 274.53 276.6 274.53 131.95 274.53" style="fill:none; stroke:#545454; stroke-miterlimit:10; stroke-width:.5px;"/><polygon points="946.89 .25 276.6 .25 157.57 .25 44.89 .25 44.89 111.99 157.57 111.99 276.6 111.99 1009.45 111.99 1009.45 28.76 946.89 .25" style="fill:none; stroke:#545454; stroke-miterlimit:10; stroke-width:.5px;"/><rect x="79.31" y="24.53" width="44.18" height="44.18" rx="3.52" ry="3.52" style="fill:none; stroke:#0094e2; stroke-linecap:round; stroke-linejoin:round; stroke-width:3.52px;"/><rect x="78.26" y="23.47" width="44.18" height="44.18" rx="3.52" ry="3.52" style="fill:#fff;"/><rect x="78.26" y="23.47" width="44.18" height="44.18" rx="3.52" ry="3.52" style="fill:none; stroke:#0094e2; stroke-linecap:round; stroke-linejoin:round; stroke-width:1.76px;"/><polygon points="95.84 61.71 91.03 61.71 88.19 38.58 98.68 38.58 95.84 61.71" style="fill:#0094e2;"/><polygon points="104.87 38.58 109.68 38.58 112.52 61.71 102.03 61.71 104.87 38.58" style="fill:#ec0e8d;"/><circle cx="93.43" cy="33.35" r="3.93" style="fill:#0094e2;"/><circle cx="107.27" cy="33.35" r="3.93" style="fill:#ec0e8d;"/><rect x="104.88" y="265.5" width="44.18" height="44.18" rx="3.52" ry="3.52" style="fill:none; stroke:#0094e2; stroke-linecap:round; stroke-linejoin:round; stroke-width:3.52px;"/><rect x="103.83" y="264.45" width="44.18" height="44.18" rx="3.52" ry="3.52" style="fill:#fff;"/><rect x="103.83" y="264.45" width="44.18" height="44.18" rx="3.52" ry="3.52" style="fill:none; stroke:#0094e2; stroke-linecap:round; stroke-linejoin:round; stroke-width:1.76px;"/><polygon points="133.15 276.54 117.34 276.54 114.01 269.78 134.19 272.59 133.15 276.54" style="fill:#0094e2;"/><path d="m117.03,278.52h15.71v4.99c0,2.5-2.08,6.55-7.18,6.55s-7.39-4.37-7.39-5.83v-2.39h-3.95l2.81-3.33Z" style="fill:#0094e2;"/><path d="m144.17,306.7c.52-4.06.1-8.01-1.98-10.19-2.08-2.18-5.83-3.74-11.86-3.74l-4.37,8.43-5.3-8.43s-5.1.52-7.07,1.35c-1.98.83-6.76,5.2-4.99,11.96.12.45.27,1.06.45,1.74h34.97c.05-.38.11-.75.15-1.11Z" style="fill:#0094e2;"/><rect x="41.62" y="265.5" width="44.18" height="44.18" rx="3.52" ry="3.52" style="fill:none; stroke:#f04d13; stroke-linecap:round; stroke-linejoin:round; stroke-width:3.52px;"/><rect x="40.56" y="264.45" width="44.18" height="44.18" rx="3.52" ry="3.52" style="fill:#f7931e;"/><rect x="40.56" y="264.45" width="44.18" height="44.18" rx="3.52" ry="3.52" style="fill:none; stroke:#f04d13; stroke-linecap:round; stroke-linejoin:round; stroke-width:1.76px;"/><path d="m66.93,295.81v-1.68h-1.63v-.75h1.63v-.67h-1.63v-.75h1.26l-1.72-2.98h1.72l.73,1.68c.18.42.31.78.44,1.14h.02c.14-.34.27-.74.45-1.15l.75-1.67h1.68l-1.79,2.98h1.25v.75h-1.65v.67h1.65v.75h-1.65v1.68h-1.5Z" style="fill:#fff;"/><path d="m59.09,295.16c-.36,0-.65.29-.65.65s.29.65.65.65.65-.29.65-.65-.29-.65-.65-.65" style="fill:#fff;"/><path d="m59.09,292.73c-.36,0-.65.29-.65.65s.29.65.65.65.65-.29.65-.65-.29-.65-.65-.65" style="fill:#fff;"/><path d="m76.18,284.91h-23.51v14.52h24.69v-14.52h-1.18Zm0,13.34h-16.45c0-.36-.29-.65-.65-.65s-.65.29-.65.65h-4.58v-12.15h4.58c0,.36.29.65.65.65s.65-.29.65-.65h16.45v12.15Z" style="fill:#fff;"/><path d="m59.09,290.3c-.36,0-.65.29-.65.65s.29.65.65.65.65-.29.65-.65-.29-.65-.65-.65" style="fill:#fff;"/><path d="m59.09,287.87c-.36,0-.65.29-.65.65s.29.65.65.65.65-.29.65-.65-.29-.65-.65-.65" style="fill:#fff;"/><polygon points="54.72 283.11 69.18 275.26 73.77 283.72 75.11 283.72 70.21 274.7 69.65 273.66 68.61 274.22 54.16 282.07 54.05 282.13 53.01 282.69 48.99 284.87 47.95 285.44 48.51 286.48 51.49 291.97 51.49 289.49 49.55 285.91 51.49 284.86 54.72 283.11" style="fill:#fff;"/><rect x="57.22" y="395.1" width="96.61" height="53.44" rx="3.86" ry="3.86" style="fill:#ed0030;"/><rect x="57.22" y="395.1" width="96.61" height="53.44" rx="3.86" ry="3.86" style="fill:none; stroke:#545454; stroke-linecap:round; stroke-linejoin:round; stroke-width:1.89px;"/><polyline points="124.77 400.54 133.82 382.89 114.79 399.87" style="fill:#ed0030; stroke:#545454; stroke-linecap:round; stroke-linejoin:round; stroke-width:1.89px;"/><rect x="158.46" y="101.47" width="54.88" height="197.53" style="fill:#e3f2f7;"/><line x1="157.57" y1="117.11" x2="157.57" y2="271.91" style="fill:none; stroke:#545454; stroke-dasharray:0 0 3 3; stroke-miterlimit:10; stroke-width:.56px;"/><line x1="213.96" y1="117.11" x2="213.96" y2="271.91" style="fill:none; stroke:#545454; stroke-dasharray:0 0 3 3; stroke-miterlimit:10; stroke-width:.56px;"/><polyline points="72.34 351.87 189.4 351.87 189.4 73.2 939.61 73.2" style="fill:none; stroke:#39b54a; stroke-dasharray:0 0 6.3 6.3; stroke-miterlimit:10; stroke-width:4.41px;"/><line x1="198.71" y1="311.3" x2="939.61" y2="311.3" style="fill:none; stroke:#39b54a; stroke-dasharray:0 0 6.3 6.3; stroke-miterlimit:10; stroke-width:4.41px;"/><path d="m86.29,401.2v2.97h-5.02v13.82h-3.53v-13.82h-5.05v-2.97h13.6Z" style="fill:#fff;"/><path d="m91.33,401.1v3h-3.29v-3h3.29Zm0,4.48v12.42h-3.29v-12.42h3.29Z" style="fill:#fff;"/><path d="m105.09,410.03h-3.33c-.06-.46-.22-.88-.47-1.25-.36-.5-.93-.75-1.7-.75-1.09,0-1.84.54-2.24,1.63-.21.58-.32,1.34-.32,2.3s.11,1.64.32,2.2c.39,1.03,1.12,1.55,2.19,1.55.76,0,1.3-.21,1.62-.62s.51-.94.58-1.59h3.32c-.08.99-.43,1.92-1.07,2.8-1.02,1.42-2.53,2.13-4.52,2.13s-3.47-.59-4.41-1.78c-.94-1.18-1.41-2.72-1.41-4.61,0-2.13.52-3.79,1.56-4.98,1.04-1.19,2.48-1.78,4.31-1.78,1.56,0,2.83.35,3.82,1.05.99.7,1.58,1.93,1.76,3.7Z" style="fill:#fff;"/><path d="m118.59,417.99h-3.92l-2.97-5.31-1.34,1.4v3.91h-3.19v-16.74h3.19v9.05l4.04-4.67h4.02l-4.34,4.75,4.51,7.61Z" style="fill:#fff;"/><path d="m130.39,414.35c-.08.74-.47,1.48-1.15,2.24-1.06,1.21-2.55,1.81-4.47,1.81-1.58,0-2.97-.51-4.18-1.53-1.21-1.02-1.81-2.67-1.81-4.97,0-2.15.54-3.8,1.63-4.95,1.09-1.15,2.5-1.72,4.24-1.72,1.03,0,1.96.19,2.79.58.83.39,1.51,1,2.05,1.83.49.74.8,1.59.95,2.56.08.57.12,1.39.1,2.46h-8.5c.05,1.25.44,2.12,1.17,2.62.45.31.99.47,1.62.47.67,0,1.21-.19,1.63-.57.23-.21.43-.49.6-.85h3.32Zm-3.21-3.81c-.05-.86-.31-1.51-.78-1.95-.47-.44-1.05-.67-1.74-.67-.75,0-1.33.24-1.75.71s-.67,1.11-.78,1.91h5.05Z" style="fill:#fff;"/><path d="m138.35,415.68v2.43l-1.54.06c-1.53.05-2.58-.21-3.14-.8-.36-.37-.55-.95-.55-1.72v-7.65h-1.73v-2.31h1.73v-3.46h3.21v3.46h2.02v2.31h-2.02v6.56c0,.51.06.83.19.95.13.13.52.19,1.18.19.1,0,.2,0,.31,0,.11,0,.22,0,.32-.02Z" style="fill:#fff;"/><path d="m91.86,441.69c-.93.57-2.07.85-3.42.85-2.23,0-4.05-.77-5.47-2.31-1.48-1.55-2.22-3.67-2.22-6.36s.75-4.9,2.24-6.54,3.48-2.46,5.94-2.46c2.13,0,3.85.54,5.14,1.62,1.29,1.08,2.04,2.43,2.23,4.05h-3.45c-.27-1.15-.92-1.95-1.95-2.4-.58-.25-1.22-.38-1.93-.38-1.35,0-2.46.51-3.33,1.53s-1.3,2.56-1.3,4.61.47,3.53,1.41,4.39,2.01,1.29,3.21,1.29,2.14-.34,2.89-1.02c.75-.68,1.22-1.57,1.39-2.67h-3.89v-2.8h7v9.01h-2.32l-.35-2.1c-.68.8-1.28,1.36-1.82,1.69Z" style="fill:#fff;"/><path d="m99.99,431.02c.86-1.09,2.33-1.64,4.42-1.64,1.36,0,2.57.27,3.62.81,1.06.54,1.58,1.56,1.58,3.05v5.7c0,.4,0,.87.02,1.44.02.43.09.71.19.87s.27.28.48.38v.48h-3.53c-.1-.25-.17-.49-.21-.71-.04-.22-.07-.47-.09-.75-.45.49-.96.9-1.55,1.24-.7.4-1.49.6-2.37.6-1.12,0-2.05-.32-2.79-.96s-1.1-1.55-1.1-2.73c0-1.53.59-2.63,1.77-3.32.65-.37,1.6-.64,2.85-.8l1.1-.14c.6-.08,1.03-.17,1.29-.29.46-.2.69-.5.69-.92,0-.51-.18-.86-.53-1.05-.35-.19-.87-.29-1.56-.29-.77,0-1.31.19-1.63.57-.23.28-.38.66-.46,1.14h-3.13c.07-1.09.37-1.98.91-2.68Zm2.42,8.73c.3.25.68.38,1.12.38.7,0,1.34-.21,1.93-.62.59-.41.89-1.16.92-2.25v-1.21c-.21.13-.41.23-.62.31-.21.08-.5.15-.86.22l-.73.14c-.68.12-1.17.27-1.47.44-.5.3-.75.76-.75,1.38,0,.55.16.95.47,1.2Z" style="fill:#fff;"/><path d="m118.06,439.79v2.43l-1.54.06c-1.53.05-2.58-.21-3.14-.8-.36-.37-.55-.95-.55-1.72v-7.65h-1.73v-2.31h1.73v-3.46h3.21v3.46h2.02v2.31h-2.02v6.56c0,.51.06.83.19.95.13.13.52.19,1.18.19.1,0,.2,0,.31,0,.11,0,.22,0,.32-.02Z" style="fill:#fff;"/><path d="m130.63,438.45c-.08.74-.47,1.48-1.15,2.24-1.06,1.21-2.55,1.81-4.47,1.81-1.58,0-2.97-.51-4.18-1.53-1.21-1.02-1.81-2.67-1.81-4.97,0-2.15.54-3.8,1.63-4.95,1.09-1.15,2.5-1.72,4.24-1.72,1.03,0,1.96.19,2.79.58.83.39,1.51,1,2.05,1.83.49.74.8,1.59.95,2.56.08.57.12,1.39.1,2.46h-8.5c.05,1.25.44,2.12,1.17,2.62.45.31.99.47,1.62.47.67,0,1.21-.19,1.63-.57.23-.21.43-.49.6-.85h3.32Zm-3.21-3.81c-.05-.86-.31-1.51-.78-1.95-.47-.44-1.05-.67-1.74-.67-.75,0-1.33.24-1.75.71s-.67,1.11-.78,1.91h5.05Z" style="fill:#fff;"/><path d="m105.15,242.33c.03.53.15.97.36,1.3.41.62,1.13.94,2.15.94.46,0,.88-.07,1.26-.21.73-.26,1.1-.74,1.1-1.42,0-.51-.16-.88-.47-1.1-.31-.21-.81-.4-1.48-.56l-1.24-.29c-.81-.19-1.38-.4-1.71-.62-.58-.39-.87-.98-.87-1.76,0-.85.28-1.54.85-2.08.57-.54,1.38-.81,2.42-.81.96,0,1.78.24,2.45.71s1.01,1.24,1.01,2.28h-1.2c-.06-.5-.19-.89-.39-1.16-.37-.49-1.01-.74-1.9-.74-.72,0-1.24.16-1.55.47-.32.32-.47.68-.47,1.1,0,.46.19.8.56,1.01.24.14.8.31,1.66.51l1.28.3c.62.15,1.09.34,1.43.6.58.44.87,1.08.87,1.92,0,1.04-.37,1.79-1.11,2.24-.74.45-1.6.67-2.58.67-1.14,0-2.04-.3-2.68-.9-.65-.59-.96-1.4-.95-2.42h1.2Z" style="fill:gray;"/><path d="m113.02,236.59h1.17v1.92h1.1v.94h-1.1v4.48c0,.24.08.4.24.48.09.05.24.07.45.07.06,0,.12,0,.18,0,.06,0,.14-.01.22-.02v.92c-.13.04-.27.07-.41.08-.14.02-.3.03-.46.03-.54,0-.9-.14-1.1-.41-.19-.28-.29-.63-.29-1.07v-4.54h-.93v-.94h.93v-1.92Z" style="fill:gray;"/><path d="m120.1,241.22c.27-.03.44-.14.53-.33.05-.1.08-.25.08-.44,0-.39-.14-.68-.42-.86-.28-.18-.68-.27-1.2-.27-.6,0-1.03.16-1.28.49-.14.18-.23.45-.27.81h-1.08c.02-.85.3-1.44.82-1.77.53-.33,1.14-.5,1.83-.5.81,0,1.46.15,1.96.46.5.31.75.79.75,1.44v3.95c0,.12.02.22.07.29.05.07.15.11.31.11.05,0,.11,0,.17,0,.06,0,.13-.02.21-.03v.85c-.18.05-.32.08-.41.1-.09.01-.22.02-.38.02-.4,0-.69-.14-.87-.42-.09-.15-.16-.36-.2-.63-.23.31-.57.58-1.01.8-.44.23-.92.34-1.45.34-.64,0-1.16-.19-1.56-.58-.4-.39-.61-.87-.61-1.45,0-.64.2-1.13.6-1.48.4-.35.92-.57,1.56-.65l1.84-.23Zm-2.43,3.12c.24.19.53.29.87.29.41,0,.8-.09,1.18-.28.64-.31.96-.82.96-1.53v-.93c-.14.09-.32.17-.54.23-.22.06-.44.1-.65.13l-.7.09c-.42.06-.73.14-.94.26-.36.2-.54.52-.54.96,0,.33.12.59.37.79Z" style="fill:gray;"/><path d="m123.77,236.59h1.17v1.92h1.1v.94h-1.1v4.48c0,.24.08.4.24.48.09.05.24.07.45.07.06,0,.12,0,.18,0,.06,0,.14-.01.22-.02v.92c-.13.04-.27.07-.41.08-.14.02-.3.03-.46.03-.54,0-.9-.14-1.1-.41-.19-.28-.29-.63-.29-1.07v-4.54h-.93v-.94h.93v-1.92Z" style="fill:gray;"/><path d="m127.15,235.96h1.17v1.31h-1.17v-1.31Zm0,2.58h1.17v6.83h-1.17v-6.83Z" style="fill:gray;"/><path d="m135.04,239.19c.61.59.91,1.46.91,2.6s-.27,2.02-.8,2.74c-.53.72-1.36,1.08-2.49,1.08-.94,0-1.68-.32-2.23-.96-.55-.64-.83-1.5-.83-2.57,0-1.15.29-2.07.87-2.75.58-.68,1.36-1.02,2.34-1.02.88,0,1.62.29,2.23.88Zm-.72,4.56c.28-.58.42-1.22.42-1.93,0-.64-.1-1.16-.3-1.56-.32-.63-.87-.95-1.66-.95-.7,0-1.2.27-1.52.81-.32.54-.48,1.19-.48,1.95s.16,1.34.48,1.82c.32.49.82.73,1.51.73.76,0,1.27-.29,1.56-.87Z" style="fill:gray;"/><path d="m137.29,238.51h1.1v.97c.32-.4.67-.69,1.03-.87.36-.17.77-.26,1.21-.26.97,0,1.63.34,1.97,1.02.19.37.28.9.28,1.6v4.4h-1.17v-4.33c0-.42-.06-.76-.19-1.01-.21-.43-.58-.64-1.12-.64-.27,0-.5.03-.67.08-.32.09-.59.28-.83.56-.19.23-.32.46-.37.7s-.09.59-.09,1.04v3.59h-1.15v-6.86Z" style="fill:gray;"/><path d="m148.77,238.7c.45.23.8.52,1.04.89.23.35.38.75.46,1.21.07.32.1.82.1,1.51h-4.99c.02.7.18,1.26.49,1.68s.78.63,1.42.63c.6,0,1.07-.2,1.43-.6.2-.23.34-.5.42-.8h1.13c-.03.25-.13.53-.3.84-.17.31-.36.56-.56.76-.35.34-.78.57-1.29.69-.28.07-.59.1-.93.1-.85,0-1.57-.31-2.16-.93-.59-.62-.88-1.49-.88-2.61s.3-2,.89-2.69c.59-.69,1.37-1.03,2.33-1.03.48,0,.95.11,1.41.34Zm.41,2.69c-.05-.5-.15-.9-.32-1.2-.31-.55-.84-.83-1.57-.83-.53,0-.97.19-1.32.57-.36.38-.54.87-.57,1.46h3.78Z" style="fill:gray;"/><path d="m151.76,238.51h1.1v1.19c.09-.23.31-.51.66-.84.35-.33.75-.5,1.21-.5.02,0,.06,0,.11,0,.05,0,.14.01.26.03v1.22c-.07-.01-.13-.02-.19-.03-.06,0-.12,0-.19,0-.58,0-1.03.19-1.34.56s-.47.8-.47,1.29v3.95h-1.15v-6.86Z" style="fill:gray;"/><path d="m160.71,238.51h1.28c-.16.44-.52,1.45-1.08,3.01-.42,1.18-.77,2.14-1.05,2.88-.67,1.75-1.14,2.82-1.41,3.2-.27.38-.74.58-1.41.58-.16,0-.29,0-.37-.02s-.2-.04-.32-.07v-1.05c.2.05.35.09.43.1.09.01.17.02.24.02.21,0,.37-.04.47-.11s.18-.16.25-.26c.02-.03.1-.21.23-.52.13-.32.23-.55.29-.7l-2.54-7.07h1.31l1.84,5.59,1.85-5.59Z" style="fill:gray;"/><path d="m112.07,250.86c.62.83.94,1.9.94,3.2,0,1.41-.36,2.57-1.07,3.5-.84,1.09-2.03,1.64-3.58,1.64-1.45,0-2.59-.48-3.42-1.44-.74-.92-1.11-2.09-1.11-3.5,0-1.27.32-2.36.95-3.27.81-1.16,2.01-1.74,3.6-1.74s2.89.53,3.69,1.6Zm-1.12,6c.5-.81.75-1.73.75-2.78,0-1.11-.29-2-.87-2.67-.58-.67-1.37-1.01-2.37-1.01s-1.77.33-2.38,1c-.62.67-.92,1.66-.92,2.96,0,1.04.26,1.92.79,2.64.53.72,1.38,1.07,2.57,1.07s1.94-.4,2.44-1.21Z" style="fill:gray;"/><path d="m115.03,249.97c.27-.39.79-.59,1.56-.59.07,0,.15,0,.22,0,.08,0,.16.01.26.02v1.05c-.12,0-.21-.01-.26-.02-.05,0-.1,0-.15,0-.35,0-.57.09-.64.27-.07.18-.1.64-.1,1.39h1.15v.91h-1.15v5.92h-1.14v-5.92h-.96v-.91h.96v-1.08c.02-.48.1-.83.25-1.05Z" style="fill:gray;"/><path d="m118.95,249.97c.27-.39.79-.59,1.56-.59.07,0,.15,0,.22,0,.08,0,.16.01.26.02v1.05c-.12,0-.21-.01-.26-.02-.05,0-.1,0-.15,0-.35,0-.57.09-.64.27-.07.18-.1.64-.1,1.39h1.15v.91h-1.15v5.92h-1.14v-5.92h-.96v-.91h.96v-1.08c.02-.48.1-.83.25-1.05Z" style="fill:gray;"/><path d="m121.99,249.51h1.17v1.31h-1.17v-1.31Zm0,2.58h1.17v6.83h-1.17v-6.83Z" style="fill:gray;"/><path d="m129.44,252.43c.48.38.78,1.02.87,1.94h-1.12c-.07-.42-.22-.77-.47-1.05-.24-.28-.63-.42-1.17-.42-.73,0-1.26.36-1.58,1.08-.21.47-.31,1.04-.31,1.72s.15,1.27.44,1.73c.29.47.75.7,1.37.7.48,0,.86-.15,1.14-.44.28-.29.47-.69.58-1.2h1.12c-.13.91-.45,1.58-.96,2s-1.17.63-1.97.63c-.9,0-1.61-.33-2.15-.98-.53-.66-.8-1.47-.8-2.46,0-1.21.29-2.14.88-2.81s1.33-1.01,2.24-1.01c.77,0,1.4.19,1.89.56Z" style="fill:gray;"/><path d="m135.78,252.25c.45.23.8.52,1.04.89.23.35.38.75.46,1.21.07.32.1.82.1,1.51h-4.99c.02.7.18,1.26.49,1.68s.78.63,1.42.63c.6,0,1.07-.2,1.43-.6.2-.23.34-.5.42-.8h1.13c-.03.25-.13.53-.3.84-.17.31-.36.56-.56.76-.35.34-.78.57-1.29.69-.28.07-.59.1-.93.1-.85,0-1.57-.31-2.16-.93-.59-.62-.88-1.49-.88-2.61s.3-2,.89-2.69c.59-.69,1.37-1.03,2.33-1.03.48,0,.95.11,1.41.34Zm.41,2.69c-.05-.5-.15-.9-.32-1.2-.31-.55-.84-.83-1.57-.83-.53,0-.97.19-1.32.57-.36.38-.54.87-.57,1.46h3.78Z" style="fill:gray;"/><path d="m7.84,235.96v1.12h-3.17v8.29h-1.29v-8.29H.21v-1.12h7.63Z" style="fill:gray;"/><path d="m8.84,235.96h1.17v1.31h-1.17v-1.31Zm0,2.58h1.17v6.83h-1.17v-6.83Z" style="fill:gray;"/><path d="m16.29,238.87c.48.38.78,1.02.87,1.94h-1.12c-.07-.42-.22-.77-.47-1.05-.24-.28-.63-.42-1.17-.42-.73,0-1.26.36-1.58,1.08-.21.47-.31,1.04-.31,1.72s.15,1.27.44,1.73c.29.47.75.7,1.37.7.48,0,.86-.15,1.14-.44.28-.29.47-.69.58-1.2h1.12c-.13.91-.45,1.58-.96,2s-1.17.63-1.97.63c-.9,0-1.61-.33-2.15-.98-.53-.66-.8-1.47-.8-2.46,0-1.21.29-2.14.88-2.81s1.33-1.01,2.24-1.01c.77,0,1.4.19,1.89.56Z" style="fill:gray;"/><path d="m18.35,235.96h1.11v5.46l2.96-2.92h1.47l-2.64,2.55,2.79,4.31h-1.47l-2.16-3.49-.95.92v2.58h-1.11v-9.41Z" style="fill:gray;"/><path d="m28.85,238.7c.45.23.8.52,1.04.89.23.35.38.75.46,1.21.07.32.1.82.1,1.51h-4.99c.02.7.18,1.26.49,1.68s.78.63,1.42.63c.6,0,1.07-.2,1.43-.6.2-.23.34-.5.42-.8h1.13c-.03.25-.13.53-.3.84-.17.31-.36.56-.56.76-.35.34-.78.57-1.29.69-.28.07-.59.1-.93.1-.85,0-1.57-.31-2.16-.93-.59-.62-.88-1.49-.88-2.61s.3-2,.89-2.69c.59-.69,1.37-1.03,2.33-1.03.48,0,.95.11,1.41.34Zm.41,2.69c-.05-.5-.15-.9-.32-1.2-.31-.55-.84-.83-1.57-.83-.53,0-.97.19-1.32.57-.36.38-.54.87-.57,1.46h3.78Z" style="fill:gray;"/><path d="m31.96,236.59h1.17v1.92h1.1v.94h-1.1v4.48c0,.24.08.4.24.48.09.05.24.07.45.07.06,0,.12,0,.18,0,.06,0,.14-.01.22-.02v.92c-.13.04-.27.07-.41.08-.14.02-.3.03-.46.03-.54,0-.9-.14-1.1-.41-.19-.28-.29-.63-.29-1.07v-4.54h-.93v-.94h.93v-1.92Z" style="fill:gray;"/><path d="m39.92,235.96l2.7,8.02,2.67-8.02h1.43l-3.43,9.41h-1.35l-3.43-9.41h1.41Z" style="fill:gray;"/><path d="m51.28,238.7c.45.23.8.52,1.04.89.23.35.38.75.46,1.21.07.32.1.82.1,1.51h-4.99c.02.7.18,1.26.49,1.68s.78.63,1.42.63c.6,0,1.07-.2,1.43-.6.2-.23.34-.5.42-.8h1.13c-.03.25-.13.53-.3.84-.17.31-.36.56-.56.76-.35.34-.78.57-1.29.69-.28.07-.59.1-.93.1-.85,0-1.57-.31-2.16-.93-.59-.62-.88-1.49-.88-2.61s.3-2,.89-2.69c.59-.69,1.37-1.03,2.33-1.03.48,0,.95.11,1.41.34Zm.41,2.69c-.05-.5-.15-.9-.32-1.2-.31-.55-.84-.83-1.57-.83-.53,0-.97.19-1.32.57-.36.38-.54.87-.57,1.46h3.78Z" style="fill:gray;"/><path d="m54.25,238.51h1.1v.97c.32-.4.67-.69,1.03-.87.36-.17.77-.26,1.21-.26.97,0,1.63.34,1.97,1.02.19.37.28.9.28,1.6v4.4h-1.17v-4.33c0-.42-.06-.76-.19-1.01-.21-.43-.58-.64-1.12-.64-.27,0-.5.03-.67.08-.32.09-.59.28-.83.56-.19.23-.32.46-.37.7s-.09.59-.09,1.04v3.59h-1.15v-6.86Z" style="fill:gray;"/><path d="m65.33,238.72c.2.13.44.35.7.67v-3.47h1.11v9.45h-1.04v-.96c-.27.42-.59.73-.95.92-.37.19-.79.28-1.26.28-.76,0-1.42-.32-1.98-.96-.56-.64-.84-1.5-.84-2.57,0-1,.25-1.87.76-2.6s1.24-1.1,2.18-1.1c.52,0,.96.11,1.31.33Zm-2.57,5.15c.31.5.81.74,1.49.74.53,0,.97-.23,1.31-.69s.51-1.12.51-1.98-.18-1.51-.53-1.92c-.35-.42-.79-.62-1.31-.62-.58,0-1.05.22-1.41.67-.36.44-.54,1.1-.54,1.96,0,.74.16,1.35.47,1.85Z" style="fill:gray;"/><path d="m68.78,235.96h1.17v1.31h-1.17v-1.31Zm0,2.58h1.17v6.83h-1.17v-6.83Z" style="fill:gray;"/><path d="m71.61,238.51h1.1v.97c.32-.4.67-.69,1.03-.87.36-.17.77-.26,1.21-.26.97,0,1.63.34,1.97,1.02.19.37.28.9.28,1.6v4.4h-1.17v-4.33c0-.42-.06-.76-.19-1.01-.21-.43-.58-.64-1.12-.64-.27,0-.5.03-.67.08-.32.09-.59.28-.83.56-.19.23-.32.46-.37.7s-.09.59-.09,1.04v3.59h-1.15v-6.86Z" style="fill:gray;"/><path d="m82.72,238.78c.22.15.44.37.66.65v-.87h1.06v6.24c0,.87-.13,1.56-.38,2.06-.48.93-1.38,1.4-2.7,1.4-.74,0-1.36-.17-1.86-.5s-.78-.85-.84-1.55h1.17c.06.31.17.54.33.71.26.26.67.38,1.22.38.88,0,1.46-.31,1.73-.94.16-.37.24-1.02.22-1.97-.23.35-.51.61-.83.78-.32.17-.75.26-1.28.26-.74,0-1.39-.26-1.94-.79-.56-.53-.83-1.4-.83-2.62,0-1.15.28-2.05.84-2.69.56-.65,1.24-.97,2.03-.97.54,0,1,.13,1.4.4Zm.14,1.24c-.35-.41-.79-.62-1.33-.62-.81,0-1.36.38-1.66,1.14-.16.41-.24.94-.24,1.6,0,.77.16,1.36.47,1.77.31.4.73.61,1.26.61.82,0,1.4-.37,1.74-1.12.19-.42.28-.92.28-1.48,0-.85-.17-1.48-.52-1.89Z" style="fill:gray;"/><path d="m37.04,249.52h1.83l2.71,7.96,2.69-7.96h1.81v9.41h-1.22v-5.56c0-.19,0-.51.01-.96,0-.44.01-.92.01-1.43l-2.69,7.94h-1.26l-2.71-7.94v.29c0,.23,0,.58.02,1.05.01.47.02.82.02,1.04v5.56h-1.22v-9.41Z" style="fill:gray;"/><path d="m51.48,254.77c.27-.03.44-.14.53-.33.05-.1.08-.25.08-.44,0-.39-.14-.68-.42-.86-.28-.18-.68-.27-1.2-.27-.6,0-1.03.16-1.28.49-.14.18-.23.45-.27.81h-1.08c.02-.85.3-1.44.82-1.77.53-.33,1.14-.5,1.83-.5.81,0,1.46.15,1.96.46.5.31.75.79.75,1.44v3.95c0,.12.02.22.07.29.05.07.15.11.31.11.05,0,.11,0,.17,0,.06,0,.13-.02.21-.03v.85c-.18.05-.32.08-.41.1-.09.01-.22.02-.38.02-.4,0-.69-.14-.87-.42-.09-.15-.16-.36-.2-.63-.23.31-.57.58-1.01.8-.44.23-.92.34-1.45.34-.64,0-1.16-.19-1.56-.58-.4-.39-.61-.87-.61-1.45,0-.64.2-1.13.6-1.48.4-.35.92-.57,1.56-.65l1.84-.23Zm-2.43,3.12c.24.19.53.29.87.29.41,0,.8-.09,1.18-.28.64-.31.96-.82.96-1.53v-.93c-.14.09-.32.17-.54.23-.22.06-.44.1-.65.13l-.7.09c-.42.06-.73.14-.94.26-.36.2-.54.52-.54.96,0,.33.12.59.37.79Z" style="fill:gray;"/><path d="m59.54,252.43c.48.38.78,1.02.87,1.94h-1.12c-.07-.42-.22-.77-.47-1.05-.24-.28-.63-.42-1.17-.42-.73,0-1.26.36-1.58,1.08-.21.47-.31,1.04-.31,1.72s.15,1.27.44,1.73c.29.47.75.7,1.37.7.48,0,.86-.15,1.14-.44.28-.29.47-.69.58-1.2h1.12c-.13.91-.45,1.58-.96,2s-1.17.63-1.97.63c-.9,0-1.61-.33-2.15-.98-.53-.66-.8-1.47-.8-2.46,0-1.21.29-2.14.88-2.81s1.33-1.01,2.24-1.01c.77,0,1.4.19,1.89.56Z" style="fill:gray;"/><path d="m61.61,249.48h1.15v3.51c.27-.35.52-.59.74-.73.37-.24.83-.37,1.39-.37,1,0,1.67.35,2.02,1.04.19.38.29.91.29,1.58v4.4h-1.19v-4.33c0-.5-.06-.87-.19-1.11-.21-.38-.6-.56-1.18-.56-.48,0-.91.17-1.3.49-.39.33-.58.95-.58,1.87v3.64h-1.15v-9.45Z" style="fill:gray;"/><path d="m68.83,249.52h1.17v1.31h-1.17v-1.31Zm0,2.58h1.17v6.83h-1.17v-6.83Z" style="fill:gray;"/><path d="m71.66,252.07h1.1v.97c.32-.4.67-.69,1.03-.87.36-.17.77-.26,1.21-.26.97,0,1.63.34,1.97,1.02.19.37.28.9.28,1.6v4.4h-1.17v-4.33c0-.42-.06-.76-.19-1.01-.21-.43-.58-.64-1.12-.64-.27,0-.5.03-.67.08-.32.09-.59.28-.83.56-.19.23-.32.46-.37.7s-.09.59-.09,1.04v3.59h-1.15v-6.86Z" style="fill:gray;"/><path d="m83.14,252.25c.45.23.8.52,1.04.89.23.35.38.75.46,1.21.07.32.1.82.1,1.51h-4.99c.02.7.18,1.26.49,1.68s.78.63,1.42.63c.6,0,1.07-.2,1.43-.6.2-.23.34-.5.42-.8h1.13c-.03.25-.13.53-.3.84-.17.31-.36.56-.56.76-.35.34-.78.57-1.29.69-.28.07-.59.1-.93.1-.85,0-1.57-.31-2.16-.93-.59-.62-.88-1.49-.88-2.61s.3-2,.89-2.69c.59-.69,1.37-1.03,2.33-1.03.48,0,.95.11,1.41.34Zm.41,2.69c-.05-.5-.15-.9-.32-1.2-.31-.55-.84-.83-1.57-.83-.53,0-.97.19-1.32.57-.36.38-.54.87-.57,1.46h3.78Z" style="fill:gray;"/><path d="m65.03,78.46h5.85c.96,0,1.76.14,2.38.43,1.19.55,1.78,1.56,1.78,3.04,0,.77-.16,1.4-.48,1.89-.32.49-.76.88-1.34,1.18.5.2.88.47,1.14.81.25.33.4.87.43,1.62l.06,1.73c.02.49.06.86.12,1.1.1.41.29.67.56.79v.29h-2.14c-.06-.11-.11-.25-.14-.43-.04-.17-.06-.51-.09-1.02l-.1-2.15c-.04-.84-.34-1.41-.91-1.69-.32-.16-.83-.24-1.52-.24h-3.86v5.52h-1.74v-12.88Zm5.67,5.9c.8,0,1.43-.16,1.89-.49.46-.33.69-.92.69-1.77,0-.92-.32-1.54-.97-1.88-.35-.17-.81-.26-1.39-.26h-4.14v4.4h3.92Z" style="fill:#fff;"/><path d="m83.13,82.21c.62.31,1.09.72,1.42,1.21.31.47.52,1.03.63,1.66.09.43.14,1.12.14,2.07h-6.83c.03.96.25,1.72.67,2.3s1.06.87,1.94.87c.82,0,1.47-.27,1.96-.82.27-.32.47-.68.58-1.1h1.55c-.04.34-.18.73-.41,1.15s-.49.77-.77,1.04c-.48.47-1.06.78-1.77.95-.38.09-.8.14-1.28.14-1.16,0-2.15-.42-2.95-1.28-.81-.85-1.21-2.04-1.21-3.57s.41-2.73,1.22-3.67c.81-.94,1.88-1.41,3.19-1.41.66,0,1.3.16,1.93.47Zm.57,3.69c-.06-.68-.21-1.23-.44-1.64-.43-.76-1.14-1.14-2.15-1.14-.72,0-1.32.26-1.81.78s-.74,1.19-.77,1.99h5.17Z" style="fill:#fff;"/><path d="m88.09,88.39c.05.53.18.93.4,1.21.41.51,1.11.76,2.11.76.6,0,1.12-.13,1.57-.38.45-.25.68-.65.68-1.18,0-.4-.18-.71-.54-.92-.23-.13-.69-.28-1.37-.45l-1.27-.32c-.81-.2-1.41-.42-1.8-.67-.69-.43-1.03-1.02-1.03-1.77,0-.89.32-1.61.97-2.16.65-.55,1.52-.82,2.62-.82,1.43,0,2.47.42,3.1,1.25.4.53.59,1.09.58,1.7h-1.49c-.03-.35-.16-.68-.39-.97-.37-.41-1.01-.62-1.93-.62-.61,0-1.07.11-1.39.34-.31.23-.47.53-.47.9,0,.41.21.73.62.98.24.15.59.27,1.05.38l1.06.25c1.15.28,1.93.54,2.32.8.61.4.92,1.04.92,1.9s-.32,1.56-.96,2.17c-.64.61-1.62.91-2.93.91-1.41,0-2.42-.32-3-.95s-.9-1.42-.95-2.35h1.52Z" style="fill:#fff;"/><path d="m96.39,79.33h1.6v2.62h1.5v1.29h-1.5v6.13c0,.33.11.55.33.66.12.06.33.1.61.1.08,0,.16,0,.25,0,.09,0,.19-.01.31-.03v1.25c-.18.05-.37.09-.57.11s-.41.04-.64.04c-.74,0-1.24-.19-1.5-.57-.26-.38-.39-.87-.39-1.47v-6.22h-1.27v-1.29h1.27v-2.62Z" style="fill:#fff;"/><path d="m100.99,81.95h1.5v1.62c.12-.32.42-.7.9-1.15s1.03-.68,1.66-.68c.03,0,.08,0,.15,0,.07,0,.19.02.36.04v1.67c-.09-.02-.18-.03-.26-.04-.08,0-.17,0-.26,0-.79,0-1.41.26-1.83.77-.43.51-.64,1.1-.64,1.77v5.4h-1.58v-9.39Z" style="fill:#fff;"/><path d="m113.63,82.88c.83.81,1.25,1.99,1.25,3.56s-.37,2.76-1.1,3.75c-.73.99-1.87,1.48-3.4,1.48-1.28,0-2.3-.44-3.06-1.31s-1.13-2.04-1.13-3.52c0-1.58.4-2.83,1.19-3.77.79-.93,1.86-1.4,3.2-1.4,1.2,0,2.22.4,3.05,1.21Zm-.98,6.24c.38-.79.58-1.67.58-2.64,0-.88-.14-1.59-.42-2.14-.44-.86-1.2-1.3-2.27-1.3-.95,0-1.65.37-2.08,1.1-.43.74-.65,1.62-.65,2.66s.22,1.83.65,2.5c.43.67,1.12,1,2.06,1,1.03,0,1.74-.4,2.13-1.19Z" style="fill:#fff;"/><path d="m123.58,82.88c.83.81,1.25,1.99,1.25,3.56s-.37,2.76-1.1,3.75c-.73.99-1.87,1.48-3.4,1.48-1.28,0-2.3-.44-3.06-1.31s-1.13-2.04-1.13-3.52c0-1.58.4-2.83,1.19-3.77.79-.93,1.86-1.4,3.2-1.4,1.2,0,2.22.4,3.05,1.21Zm-.98,6.24c.38-.79.58-1.67.58-2.64,0-.88-.14-1.59-.42-2.14-.44-.86-1.2-1.3-2.27-1.3-.95,0-1.65.37-2.08,1.1-.43.74-.65,1.62-.65,2.66s.22,1.83.65,2.5c.43.67,1.12,1,2.06,1,1.03,0,1.74-.4,2.13-1.19Z" style="fill:#fff;"/><path d="m126.64,81.95h1.56v1.33c.37-.46.71-.8,1.02-1.01.52-.36,1.11-.54,1.77-.54.75,0,1.35.18,1.81.55.26.21.49.52.7.93.35-.5.76-.88,1.24-1.12.47-.24,1.01-.36,1.6-.36,1.26,0,2.12.46,2.58,1.37.25.49.37,1.15.37,1.98v6.25h-1.64v-6.52c0-.62-.16-1.05-.47-1.29-.31-.23-.69-.35-1.14-.35-.62,0-1.15.21-1.6.62s-.67,1.11-.67,2.08v5.46h-1.6v-6.13c0-.64-.08-1.1-.23-1.39-.24-.44-.69-.66-1.34-.66-.6,0-1.14.23-1.63.69-.49.46-.73,1.3-.73,2.51v4.98h-1.58v-9.39Z" style="fill:#fff;"/></g></svg>