<?xml version="1.0" encoding="UTF-8"?><svg id="_レイヤー_2" xmlns="http://www.w3.org/2000/svg" width="1067.46" height="523.8" viewBox="0 0 1067.46 523.8"><g id="_レイヤー_2-2"><polygon points="693.35 156.09 911.1 156.09 911.1 44.64 526.15 44.64 477.89 44.64 382.67 76.59 4.25 76.59 4.25 156.09 632.05 156.09 632.05 345.02 4.25 345.02 4.25 459.15 526.15 459.15 767.71 459.15 767.71 349.02 1067.46 349.02 1067.46 345.02 693.35 345.02 693.35 156.09" style="fill:#f2f2f2;"/><rect x="767.71" y="349.02" width="68.9" height="62.1" style="fill:#f2f2f2;"/><rect x="911.1" y="96.47" width="70.24" height="59.62" style="fill:#f2f2f2;"/><polygon points="522.15 40.64 473.89 40.64 378.67 72.59 .25 72.59 .25 152.09 522.15 152.09 522.15 40.64" style="fill:#dbf1de;"/><rect x=".25" y="346.35" width="521.9" height="108.8" style="fill:#dbf1de;"/><polygon points="522.15 40.64 522.15 152.09 632.05 152.09 632.05 345.02 522.15 345.02 522.15 455.15 763.71 455.15 763.71 345.02 688.35 345.02 688.35 152.09 715.37 152.09 715.37 40.64 522.15 40.64" style="fill:#e3f2f7;"/><rect x="715.37" y="40.64" width="191.73" height="111.44" style="fill:#f2f2f2;"/><line x1="24.18" y1="212.38" x2="1044.25" y2="212.38" style="fill:none; stroke:#4d4948; stroke-miterlimit:10; stroke-width:7.56px;"/><line x1="24.18" y1="212.38" x2="1044.25" y2="212.38" style="fill:none; stroke:#fff; stroke-miterlimit:10; stroke-width:5.04px;"/><line x1="24.18" y1="212.38" x2="1044.25" y2="212.38" style="fill:none; stroke:#4d4948; stroke-dasharray:0 0 25.2 25.2; stroke-miterlimit:10; stroke-width:5.04px;"/><line x1="24.18" y1="280.28" x2="1044.25" y2="280.28" style="fill:none; stroke:#4d4948; stroke-miterlimit:10; stroke-width:7.56px;"/><line x1="24.18" y1="280.28" x2="1044.25" y2="280.28" style="fill:none; stroke:#fff; stroke-miterlimit:10; stroke-width:5.04px;"/><line x1="24.18" y1="280.28" x2="1044.25" y2="280.28" style="fill:none; stroke:#4d4948; stroke-dasharray:0 0 25.2 25.2; stroke-miterlimit:10; stroke-width:5.04px;"/><path d="m859.6,184.62h8.71v1.54h-7.01v3.81h6.16v1.5h-6.16v5.71h-1.7v-12.55Z" style="fill:gray;"/><path d="m876.23,188.94c.81.79,1.21,1.94,1.21,3.47s-.36,2.69-1.07,3.65c-.71.96-1.82,1.44-3.32,1.44-1.25,0-2.24-.42-2.98-1.28-.74-.85-1.1-1.99-1.1-3.43,0-1.54.39-2.76,1.16-3.67.77-.91,1.82-1.37,3.12-1.37,1.17,0,2.16.39,2.97,1.18Zm-.96,6.08c.38-.77.56-1.63.56-2.57,0-.85-.13-1.55-.41-2.08-.43-.84-1.17-1.26-2.21-1.26-.93,0-1.61.36-2.03,1.08-.42.72-.63,1.58-.63,2.59s.21,1.78.63,2.43c.42.65,1.09.97,2.01.97,1.01,0,1.7-.39,2.07-1.16Z" style="fill:gray;"/><path d="m879.24,188.03h1.46v1.58c.12-.31.41-.68.88-1.12s1.01-.66,1.62-.66c.03,0,.08,0,.15,0,.07,0,.18.02.35.03v1.62c-.09-.02-.18-.03-.25-.03-.08,0-.16,0-.25,0-.77,0-1.37.25-1.79.75-.42.5-.62,1.07-.62,1.72v5.26h-1.54v-9.15Z" style="fill:gray;"/><path d="m891.2,193.13c.04.71.2,1.29.49,1.74.54.83,1.5,1.25,2.87,1.25.62,0,1.17-.09,1.68-.27.98-.35,1.46-.99,1.46-1.9,0-.68-.21-1.17-.62-1.46-.42-.28-1.08-.53-1.97-.74l-1.65-.38c-1.08-.25-1.84-.53-2.28-.83-.77-.52-1.16-1.31-1.16-2.35,0-1.13.38-2.05,1.14-2.78.76-.72,1.83-1.09,3.23-1.09,1.28,0,2.37.32,3.26.95.9.63,1.34,1.65,1.34,3.05h-1.6c-.08-.67-.26-1.19-.52-1.55-.5-.66-1.34-.98-2.53-.98-.96,0-1.65.21-2.07.63-.42.42-.63.91-.63,1.47,0,.62.25,1.07.75,1.35.33.18,1.06.41,2.21.68l1.71.4c.82.19,1.46.46,1.9.79.77.59,1.16,1.44,1.16,2.56,0,1.39-.49,2.38-1.48,2.98-.99.6-2.13.9-3.44.9-1.52,0-2.71-.4-3.58-1.2-.86-.79-1.28-1.87-1.27-3.22h1.6Z" style="fill:gray;"/><path d="m901.37,184.58h1.54v4.68c.36-.46.69-.79.98-.97.5-.33,1.11-.49,1.85-.49,1.33,0,2.23.46,2.7,1.39.26.51.38,1.21.38,2.11v5.87h-1.58v-5.77c0-.67-.08-1.17-.26-1.48-.28-.5-.8-.75-1.57-.75-.64,0-1.22.22-1.73.66-.52.44-.78,1.27-.78,2.49v4.85h-1.54v-12.6Z" style="fill:gray;"/><path d="m910.98,184.62h1.56v1.74h-1.56v-1.74Zm0,3.44h1.56v9.11h-1.56v-9.11Z" style="fill:gray;"/><path d="m914.72,188.03h1.46v1.3c.43-.54.89-.92,1.38-1.15.48-.23,1.02-.35,1.62-.35,1.3,0,2.18.45,2.63,1.36.25.5.38,1.21.38,2.13v5.87h-1.56v-5.77c0-.56-.08-1.01-.25-1.35-.27-.57-.77-.85-1.49-.85-.36,0-.66.04-.9.11-.42.12-.79.38-1.11.75-.26.3-.42.61-.5.94s-.12.78-.12,1.38v4.79h-1.54v-9.15Z" style="fill:gray;"/><path d="m924.12,191.51h4.29v1.58h-4.29v-1.58Z" style="fill:gray;"/><path d="m931.66,193.13c.04.71.2,1.29.49,1.74.54.83,1.5,1.25,2.87,1.25.62,0,1.17-.09,1.68-.27.98-.35,1.46-.99,1.46-1.9,0-.68-.21-1.17-.62-1.46-.42-.28-1.08-.53-1.97-.74l-1.65-.38c-1.08-.25-1.84-.53-2.28-.83-.77-.52-1.16-1.31-1.16-2.35,0-1.13.38-2.05,1.14-2.78.76-.72,1.83-1.09,3.23-1.09,1.28,0,2.37.32,3.26.95.9.63,1.34,1.65,1.34,3.05h-1.6c-.08-.67-.26-1.19-.52-1.55-.5-.66-1.34-.98-2.53-.98-.96,0-1.65.21-2.07.63-.42.42-.63.91-.63,1.47,0,.62.25,1.07.75,1.35.33.18,1.06.41,2.21.68l1.71.4c.82.19,1.46.46,1.9.79.77.59,1.16,1.44,1.16,2.56,0,1.39-.49,2.38-1.48,2.98-.99.6-2.13.9-3.44.9-1.52,0-2.71-.4-3.58-1.2-.86-.79-1.28-1.87-1.27-3.22h1.6Z" style="fill:gray;"/><path d="m941.83,184.58h1.54v4.68c.36-.46.69-.79.98-.97.5-.33,1.11-.49,1.85-.49,1.33,0,2.23.46,2.7,1.39.26.51.38,1.21.38,2.11v5.87h-1.58v-5.77c0-.67-.08-1.17-.26-1.48-.28-.5-.8-.75-1.57-.75-.64,0-1.22.22-1.73.66-.52.44-.78,1.27-.78,2.49v4.85h-1.54v-12.6Z" style="fill:gray;"/><path d="m951.44,184.62h1.56v1.74h-1.56v-1.74Zm0,3.44h1.56v9.11h-1.56v-9.11Z" style="fill:gray;"/><path d="m955.18,188.03h1.52v1.3c.37-.45.7-.78.99-.98.51-.35,1.08-.52,1.73-.52.73,0,1.32.18,1.76.54.25.21.48.51.68.91.34-.49.74-.85,1.2-1.09.46-.24.98-.35,1.56-.35,1.23,0,2.07.44,2.51,1.33.24.48.36,1.12.36,1.93v6.09h-1.6v-6.36c0-.61-.15-1.03-.46-1.26-.3-.23-.68-.34-1.11-.34-.6,0-1.12.2-1.56.61-.44.4-.65,1.08-.65,2.03v5.32h-1.56v-5.97c0-.62-.07-1.07-.22-1.36-.23-.43-.67-.64-1.31-.64-.58,0-1.11.23-1.58.67-.48.45-.71,1.26-.71,2.44v4.85h-1.54v-9.15Z" style="fill:gray;"/><path d="m969.64,184.62h1.56v1.74h-1.56v-1.74Zm0,3.44h1.56v9.11h-1.56v-9.11Z" style="fill:gray;"/><path d="m972.62,195.96l5.43-6.56h-5.03v-1.38h7.1v1.26l-5.4,6.52h5.56v1.38h-7.67v-1.21Z" style="fill:gray;"/><path d="m983.25,188.03v6.08c0,.47.07.85.22,1.14.27.55.76.82,1.49.82,1.04,0,1.75-.48,2.13-1.44.21-.51.31-1.22.31-2.11v-4.49h1.54v9.15h-1.45l.02-1.35c-.2.35-.44.64-.73.88-.58.48-1.27.72-2.1.72-1.28,0-2.15-.44-2.62-1.31-.25-.47-.38-1.09-.38-1.87v-6.22h1.57Z" style="fill:gray;"/><path d="m71.16,303.39h8.71v1.54h-7.01v3.81h6.16v1.5h-6.16v5.71h-1.7v-12.55Z" style="fill:gray;"/><path d="m87.79,307.71c.81.79,1.21,1.94,1.21,3.47s-.36,2.69-1.07,3.65c-.71.96-1.82,1.44-3.32,1.44-1.25,0-2.24-.42-2.98-1.28-.74-.85-1.1-1.99-1.1-3.43,0-1.54.39-2.76,1.16-3.67.77-.91,1.82-1.37,3.12-1.37,1.17,0,2.16.39,2.97,1.18Zm-.96,6.08c.38-.77.56-1.63.56-2.57,0-.85-.13-1.55-.41-2.08-.43-.84-1.17-1.26-2.21-1.26-.93,0-1.61.36-2.03,1.08-.42.72-.63,1.58-.63,2.59s.21,1.78.63,2.43c.42.65,1.09.97,2.01.97,1.01,0,1.7-.39,2.07-1.16Z" style="fill:gray;"/><path d="m90.8,306.79h1.46v1.58c.12-.31.41-.68.88-1.12s1.01-.66,1.62-.66c.03,0,.08,0,.15,0,.07,0,.18.02.35.03v1.62c-.09-.02-.18-.03-.25-.03-.08,0-.16,0-.25,0-.77,0-1.37.25-1.79.75-.42.5-.62,1.07-.62,1.72v5.26h-1.54v-9.15Z" style="fill:gray;"/><path d="m102.76,311.89c.04.71.2,1.29.49,1.74.54.83,1.5,1.25,2.87,1.25.62,0,1.17-.09,1.68-.27.98-.35,1.46-.99,1.46-1.9,0-.68-.21-1.17-.62-1.46-.42-.28-1.08-.53-1.97-.74l-1.65-.38c-1.08-.25-1.84-.53-2.28-.83-.77-.52-1.16-1.31-1.16-2.35,0-1.13.38-2.05,1.14-2.78.76-.72,1.83-1.09,3.23-1.09,1.28,0,2.37.32,3.26.95.9.63,1.34,1.65,1.34,3.05h-1.6c-.08-.67-.26-1.19-.52-1.55-.5-.66-1.34-.98-2.53-.98-.96,0-1.65.21-2.07.63-.42.42-.63.91-.63,1.47,0,.62.25,1.07.75,1.35.33.18,1.06.41,2.21.68l1.71.4c.82.19,1.46.46,1.9.79.77.59,1.16,1.44,1.16,2.56,0,1.39-.49,2.38-1.48,2.98-.99.6-2.13.9-3.44.9-1.52,0-2.71-.4-3.58-1.2-.86-.79-1.28-1.87-1.27-3.22h1.6Z" style="fill:gray;"/><path d="m112.92,303.35h1.54v4.68c.36-.46.69-.79.98-.97.5-.33,1.11-.49,1.85-.49,1.33,0,2.23.46,2.7,1.39.26.51.38,1.21.38,2.11v5.87h-1.58v-5.77c0-.67-.08-1.17-.26-1.48-.28-.5-.8-.75-1.57-.75-.64,0-1.22.22-1.73.66-.52.44-.78,1.27-.78,2.49v4.85h-1.54v-12.6Z" style="fill:gray;"/><path d="m122.53,303.39h1.56v1.74h-1.56v-1.74Zm0,3.44h1.56v9.11h-1.56v-9.11Z" style="fill:gray;"/><path d="m126.28,306.79h1.46v1.3c.43-.54.89-.92,1.38-1.15.48-.23,1.02-.35,1.62-.35,1.3,0,2.18.45,2.63,1.36.25.5.38,1.21.38,2.13v5.87h-1.56v-5.77c0-.56-.08-1.01-.25-1.35-.27-.57-.77-.85-1.49-.85-.36,0-.66.04-.9.11-.42.12-.79.38-1.11.75-.26.3-.42.61-.5.94s-.12.78-.12,1.38v4.79h-1.54v-9.15Z" style="fill:gray;"/><path d="m135.67,310.28h4.29v1.58h-4.29v-1.58Z" style="fill:gray;"/><path d="m143.22,311.89c.04.71.2,1.29.49,1.74.54.83,1.5,1.25,2.87,1.25.62,0,1.17-.09,1.68-.27.98-.35,1.46-.99,1.46-1.9,0-.68-.21-1.17-.62-1.46-.42-.28-1.08-.53-1.97-.74l-1.65-.38c-1.08-.25-1.84-.53-2.28-.83-.77-.52-1.16-1.31-1.16-2.35,0-1.13.38-2.05,1.14-2.78.76-.72,1.83-1.09,3.23-1.09,1.28,0,2.37.32,3.26.95.9.63,1.34,1.65,1.34,3.05h-1.6c-.08-.67-.26-1.19-.52-1.55-.5-.66-1.34-.98-2.53-.98-.96,0-1.65.21-2.07.63-.42.42-.63.91-.63,1.47,0,.62.25,1.07.75,1.35.33.18,1.06.41,2.21.68l1.71.4c.82.19,1.46.46,1.9.79.77.59,1.16,1.44,1.16,2.56,0,1.39-.49,2.38-1.48,2.98-.99.6-2.13.9-3.44.9-1.52,0-2.71-.4-3.58-1.2-.86-.79-1.28-1.87-1.27-3.22h1.6Z" style="fill:gray;"/><path d="m153.38,303.35h1.54v4.68c.36-.46.69-.79.98-.97.5-.33,1.11-.49,1.85-.49,1.33,0,2.23.46,2.7,1.39.26.51.38,1.21.38,2.11v5.87h-1.58v-5.77c0-.67-.08-1.17-.26-1.48-.28-.5-.8-.75-1.57-.75-.64,0-1.22.22-1.73.66-.52.44-.78,1.27-.78,2.49v4.85h-1.54v-12.6Z" style="fill:gray;"/><path d="m162.99,303.39h1.56v1.74h-1.56v-1.74Zm0,3.44h1.56v9.11h-1.56v-9.11Z" style="fill:gray;"/><path d="m165.97,314.73l5.43-6.56h-5.03v-1.38h7.1v1.26l-5.4,6.52h5.56v1.38h-7.67v-1.21Z" style="fill:gray;"/><path d="m176.59,306.79v6.08c0,.47.07.85.22,1.14.27.55.76.82,1.49.82,1.04,0,1.75-.48,2.13-1.44.21-.51.31-1.22.31-2.11v-4.49h1.54v9.15h-1.45l.02-1.35c-.2.35-.44.64-.73.88-.58.48-1.27.72-2.1.72-1.28,0-2.15-.44-2.62-1.31-.25-.47-.38-1.09-.38-1.87v-6.22h1.57Z" style="fill:gray;"/><path d="m191.31,307.71c.81.79,1.21,1.94,1.21,3.47s-.36,2.69-1.07,3.65c-.71.96-1.82,1.44-3.32,1.44-1.25,0-2.24-.42-2.98-1.28-.74-.85-1.1-1.99-1.1-3.43,0-1.54.39-2.76,1.16-3.67.77-.91,1.82-1.37,3.12-1.37,1.17,0,2.16.39,2.97,1.18Zm-.96,6.08c.38-.77.56-1.63.56-2.57,0-.85-.13-1.55-.41-2.08-.43-.84-1.17-1.26-2.21-1.26-.93,0-1.61.36-2.03,1.08-.42.72-.63,1.58-.63,2.59s.21,1.78.63,2.43c.42.65,1.09.97,2.01.97,1.01,0,1.7-.39,2.07-1.16Z" style="fill:gray;"/><path d="m194.27,303.39h1.48v7.29l3.94-3.89h1.96l-3.52,3.4,3.71,5.75h-1.97l-2.88-4.66-1.26,1.22v3.44h-1.48v-12.55Z" style="fill:gray;"/><path d="m207.78,310.41c.35-.04.59-.19.71-.44.07-.14.1-.33.1-.59,0-.53-.19-.91-.56-1.15-.37-.24-.91-.36-1.6-.36-.8,0-1.37.22-1.71.65-.19.24-.31.6-.37,1.07h-1.44c.03-1.13.39-1.92,1.1-2.36.7-.44,1.52-.66,2.44-.66,1.08,0,1.95.21,2.62.62.67.41,1,1.05,1,1.91v5.27c0,.16.03.29.1.38.07.1.2.14.41.14.07,0,.15,0,.23-.01.09,0,.18-.02.27-.04v1.14c-.24.07-.42.11-.55.13-.12.02-.3.03-.51.03-.53,0-.91-.19-1.15-.56-.12-.2-.21-.48-.26-.85-.31.41-.76.77-1.35,1.07s-1.23.45-1.94.45c-.85,0-1.54-.26-2.08-.77-.54-.51-.81-1.16-.81-1.93,0-.85.26-1.5.79-1.97.53-.47,1.22-.75,2.08-.86l2.45-.31Zm-3.24,4.16c.33.26.71.38,1.15.38.54,0,1.07-.12,1.57-.38.86-.42,1.28-1.09,1.28-2.04v-1.24c-.19.12-.43.22-.72.3-.3.08-.59.14-.87.17l-.93.12c-.56.07-.98.19-1.26.35-.48.27-.71.69-.71,1.28,0,.44.16.79.49,1.05Z" style="fill:gray;"/><polygon points="1034.77 191.52 1018.06 181.87 1018.06 187.75 998.54 187.75 998.54 195.29 1018.06 195.29 1018.06 201.17 1034.77 191.52" style="fill:gray;"/><polygon points="23.79 309.52 40.5 299.88 40.5 305.76 60.02 305.76 60.02 313.29 40.5 313.29 40.5 319.17 23.79 309.52" style="fill:gray;"/><rect x="559.38" y="344.07" width="12.41" height="72.91" style="fill:#fff; stroke:#545454; stroke-miterlimit:10; stroke-width:.5px;"/><rect x="522.15" y="344.07" width="12.41" height="72.91" style="fill:#fff; stroke:#545454; stroke-miterlimit:10; stroke-width:.5px;"/><rect x="534.56" y="344.07" width="12.41" height="72.91" style="fill:#fff; stroke:#545454; stroke-miterlimit:10; stroke-width:.5px;"/><rect x="546.97" y="344.07" width="12.41" height="72.91" style="fill:#fff; stroke:#545454; stroke-miterlimit:10; stroke-width:.5px;"/><rect x="596.62" y="344.07" width="12.41" height="72.91" style="fill:#fff; stroke:#545454; stroke-miterlimit:10; stroke-width:.5px;"/><rect x="571.8" y="344.07" width="12.41" height="72.91" style="fill:#fff; stroke:#545454; stroke-miterlimit:10; stroke-width:.5px;"/><rect x="609.04" y="344.07" width="12.41" height="72.91" style="fill:#fff; stroke:#545454; stroke-miterlimit:10; stroke-width:.5px;"/><rect x="584.21" y="344.07" width="12.41" height="72.91" style="fill:#fff; stroke:#545454; stroke-miterlimit:10; stroke-width:.5px;"/><rect x="522.15" y="344.61" width="99.3" height="6.51" style="fill:#545454; stroke:#545454; stroke-miterlimit:10; stroke-width:.5px;"/><rect x="522.15" y="410.47" width="99.3" height="6.51" style="fill:#545454; stroke:#545454; stroke-miterlimit:10; stroke-width:.5px;"/><rect x="559.38" y="78.27" width="12.41" height="72.91" style="fill:#fff; stroke:#545454; stroke-miterlimit:10; stroke-width:.5px;"/><rect x="522.15" y="78.27" width="12.41" height="72.91" style="fill:#fff; stroke:#545454; stroke-miterlimit:10; stroke-width:.5px;"/><rect x="534.56" y="78.27" width="12.41" height="72.91" style="fill:#fff; stroke:#545454; stroke-miterlimit:10; stroke-width:.5px;"/><rect x="546.97" y="78.27" width="12.41" height="72.91" style="fill:#fff; stroke:#545454; stroke-miterlimit:10; stroke-width:.5px;"/><rect x="596.62" y="78.27" width="12.41" height="72.91" style="fill:#fff; stroke:#545454; stroke-miterlimit:10; stroke-width:.5px;"/><rect x="571.8" y="78.27" width="12.41" height="72.91" style="fill:#fff; stroke:#545454; stroke-miterlimit:10; stroke-width:.5px;"/><rect x="609.04" y="78.27" width="12.41" height="72.91" style="fill:#fff; stroke:#545454; stroke-miterlimit:10; stroke-width:.5px;"/><rect x="584.21" y="78.27" width="12.41" height="72.91" style="fill:#fff; stroke:#545454; stroke-miterlimit:10; stroke-width:.5px;"/><rect x="522.15" y="78.8" width="99.3" height="6.51" style="fill:#545454; stroke:#545454; stroke-miterlimit:10; stroke-width:.5px;"/><rect x="522.15" y="144.67" width="99.3" height="6.51" style="fill:#545454; stroke:#545454; stroke-miterlimit:10; stroke-width:.5px;"/><rect x="763.71" y="345.02" width="68.9" height="62.1" style="fill:#67d4ff; stroke:#545454; stroke-miterlimit:10; stroke-width:.5px;"/><rect x="907.1" y="92.47" width="70.24" height="59.62" style="fill:#e6e6e6; stroke:#545454; stroke-miterlimit:10; stroke-width:.5px;"/><rect x="706.68" y="66.1" width="16.34" height="50.28" transform="translate(806.09 -623.61) rotate(90)" style="fill:#ffffc8; stroke:#545454; stroke-miterlimit:10; stroke-width:.5px;"/><rect x="706.68" y="96.01" width="16.34" height="50.28" transform="translate(836.01 -593.7) rotate(90)" style="fill:#ffffc8; stroke:#545454; stroke-miterlimit:10; stroke-width:.5px;"/><rect x="706.68" y="413.41" width="16.34" height="50.28" transform="translate(1153.4 -276.31) rotate(90)" style="fill:#ffffc8; stroke:#545454; stroke-miterlimit:10; stroke-width:.5px;"/><path d="m780.05,413.79h5.85c.96,0,1.76.14,2.38.43,1.19.55,1.78,1.56,1.78,3.04,0,.77-.16,1.4-.48,1.89-.32.49-.76.88-1.34,1.18.5.2.88.47,1.13.81.25.33.4.87.43,1.62l.06,1.73c.02.49.06.86.12,1.1.11.41.29.67.56.79v.29h-2.14c-.06-.11-.11-.25-.14-.43-.04-.17-.06-.51-.09-1.02l-.11-2.15c-.04-.84-.34-1.41-.91-1.69-.32-.16-.83-.24-1.52-.24h-3.86v5.52h-1.75v-12.88Zm5.67,5.9c.8,0,1.43-.16,1.89-.49.46-.33.69-.92.69-1.77,0-.92-.32-1.54-.97-1.88-.35-.17-.81-.26-1.39-.26h-4.14v4.4h3.92Z" style="fill:gray;"/><path d="m798.15,417.54c.62.31,1.09.72,1.42,1.21.31.47.52,1.03.63,1.66.09.43.14,1.12.14,2.07h-6.83c.03.96.25,1.72.67,2.3.42.58,1.06.87,1.94.87.82,0,1.47-.27,1.96-.82.27-.32.47-.68.58-1.1h1.55c-.04.34-.18.73-.41,1.15-.23.42-.49.77-.77,1.04-.48.47-1.06.78-1.77.95-.38.09-.8.14-1.28.14-1.16,0-2.15-.42-2.95-1.28s-1.21-2.04-1.21-3.57.41-2.73,1.22-3.67c.81-.94,1.88-1.41,3.19-1.41.66,0,1.3.16,1.92.47Zm.57,3.69c-.06-.68-.21-1.23-.44-1.64-.43-.76-1.14-1.14-2.15-1.14-.72,0-1.32.26-1.81.78-.49.52-.75,1.19-.77,1.99h5.17Z" style="fill:gray;"/><path d="m803.11,423.72c.05.53.18.93.4,1.21.41.51,1.11.76,2.11.76.6,0,1.12-.13,1.57-.38.45-.25.68-.65.68-1.18,0-.4-.18-.71-.54-.92-.23-.13-.69-.28-1.37-.45l-1.27-.32c-.81-.2-1.41-.42-1.8-.67-.69-.43-1.03-1.02-1.03-1.77,0-.89.32-1.61.97-2.16.65-.55,1.52-.82,2.62-.82,1.43,0,2.47.42,3.1,1.25.4.53.59,1.09.58,1.7h-1.49c-.03-.35-.16-.68-.39-.97-.37-.41-1.01-.62-1.93-.62-.61,0-1.07.11-1.39.34-.31.23-.47.53-.47.9,0,.41.21.73.62.98.24.15.59.27,1.05.38l1.06.25c1.16.28,1.93.54,2.32.8.61.4.92,1.04.92,1.9s-.32,1.56-.96,2.17c-.64.61-1.62.91-2.93.91-1.41,0-2.42-.32-3-.95s-.9-1.42-.95-2.35h1.52Z" style="fill:gray;"/><path d="m811.4,414.66h1.6v2.62h1.5v1.29h-1.5v6.13c0,.33.11.55.33.66.12.06.33.1.61.1.08,0,.16,0,.25,0,.09,0,.19-.01.31-.03v1.25c-.18.05-.37.09-.57.11-.2.02-.41.04-.64.04-.74,0-1.24-.19-1.5-.57s-.39-.87-.39-1.47v-6.22h-1.27v-1.29h1.27v-2.62Z" style="fill:gray;"/><path d="m816,417.28h1.5v1.62c.12-.32.42-.7.9-1.15.48-.45,1.03-.68,1.66-.68.03,0,.08,0,.15,0s.19.02.36.04v1.67c-.09-.02-.18-.03-.26-.04-.08,0-.17,0-.26,0-.79,0-1.41.26-1.83.77-.43.51-.64,1.1-.64,1.77v5.4h-1.58v-9.39Z" style="fill:gray;"/><path d="m828.65,418.21c.83.81,1.25,1.99,1.25,3.56s-.37,2.76-1.1,3.75c-.73.99-1.87,1.48-3.4,1.48-1.28,0-2.3-.44-3.06-1.31-.75-.87-1.13-2.04-1.13-3.52,0-1.58.4-2.83,1.19-3.77.79-.93,1.86-1.4,3.2-1.4,1.2,0,2.22.4,3.05,1.21Zm-.98,6.24c.38-.79.58-1.67.58-2.64,0-.88-.14-1.59-.42-2.14-.44-.86-1.2-1.3-2.27-1.3-.95,0-1.65.37-2.08,1.1-.43.74-.65,1.62-.65,2.66s.22,1.83.65,2.5c.43.67,1.12,1,2.06,1,1.03,0,1.74-.4,2.13-1.19Z" style="fill:gray;"/><path d="m838.6,418.21c.83.81,1.25,1.99,1.25,3.56s-.37,2.76-1.1,3.75c-.73.99-1.87,1.48-3.4,1.48-1.28,0-2.3-.44-3.06-1.31-.75-.87-1.13-2.04-1.13-3.52,0-1.58.4-2.83,1.19-3.77.79-.93,1.86-1.4,3.2-1.4,1.2,0,2.22.4,3.05,1.21Zm-.98,6.24c.38-.79.58-1.67.58-2.64,0-.88-.14-1.59-.42-2.14-.44-.86-1.2-1.3-2.27-1.3-.95,0-1.65.37-2.08,1.1-.43.74-.65,1.62-.65,2.66s.22,1.83.65,2.5c.43.67,1.12,1,2.06,1,1.03,0,1.74-.4,2.13-1.19Z" style="fill:gray;"/><path d="m841.66,417.28h1.56v1.33c.37-.46.71-.8,1.02-1.01.52-.36,1.11-.54,1.77-.54.75,0,1.35.18,1.81.55.26.21.49.52.7.93.35-.5.76-.88,1.24-1.12.47-.24,1-.36,1.6-.36,1.26,0,2.12.46,2.58,1.37.25.49.37,1.15.37,1.98v6.25h-1.64v-6.52c0-.62-.16-1.05-.47-1.29-.31-.23-.69-.35-1.14-.35-.62,0-1.15.21-1.6.62s-.67,1.11-.67,2.08v5.46h-1.6v-6.13c0-.64-.08-1.1-.23-1.39-.24-.44-.69-.66-1.34-.66-.6,0-1.14.23-1.63.69-.49.46-.73,1.3-.73,2.51v4.98h-1.58v-9.39Z" style="fill:gray;"/><path d="m92.52,98.33h5.62c1.11,0,2.01.31,2.69.94s1.02,1.51,1.02,2.65c0,.98-.3,1.83-.91,2.56-.61.73-1.54,1.09-2.8,1.09h-3.92v5.31h-1.7v-12.55Zm6.6,1.73c-.37-.18-.89-.27-1.54-.27h-3.36v4.35h3.36c.76,0,1.37-.16,1.85-.49.47-.32.71-.9.71-1.72,0-.92-.34-1.55-1.02-1.88Z" style="fill:#0094e2;"/><path d="m103.49,98.33h1.54v12.55h-1.54v-12.55Z" style="fill:#0094e2;"/><path d="m112.08,105.34c.35-.04.59-.19.71-.44.07-.14.1-.33.1-.59,0-.53-.19-.91-.56-1.15-.37-.24-.91-.36-1.6-.36-.8,0-1.37.22-1.71.65-.19.24-.31.6-.37,1.07h-1.44c.03-1.13.39-1.92,1.1-2.36s1.52-.66,2.45-.66c1.08,0,1.95.21,2.62.62.67.41,1,1.05,1,1.91v5.27c0,.16.03.29.1.38s.2.14.41.14c.07,0,.15,0,.23-.01.09,0,.18-.02.27-.04v1.14c-.24.07-.42.11-.55.13-.12.02-.3.03-.51.03-.53,0-.91-.19-1.15-.56-.13-.2-.21-.48-.26-.85-.31.41-.76.77-1.35,1.07-.59.3-1.23.45-1.94.45-.85,0-1.54-.26-2.08-.77-.54-.51-.81-1.16-.81-1.93,0-.85.27-1.5.79-1.97.53-.47,1.23-.75,2.08-.86l2.45-.31Zm-3.24,4.16c.33.26.71.38,1.15.38.54,0,1.06-.12,1.57-.38.85-.42,1.28-1.09,1.28-2.04v-1.24c-.19.12-.43.22-.72.3-.3.08-.59.14-.87.17l-.93.12c-.56.07-.98.19-1.26.35-.48.27-.71.69-.71,1.28,0,.44.16.79.49,1.05Z" style="fill:#0094e2;"/><path d="m116.95,99.17h1.56v2.56h1.46v1.26h-1.46v5.97c0,.32.11.53.32.64.12.06.32.09.6.09.07,0,.15,0,.24,0s.19-.01.3-.03v1.22c-.18.05-.36.09-.55.11-.19.02-.4.03-.62.03-.72,0-1.21-.18-1.46-.55-.26-.37-.38-.84-.38-1.43v-6.06h-1.24v-1.26h1.24v-2.56Z" style="fill:#0094e2;"/><path d="m122.5,98.94c.36-.52,1.05-.79,2.08-.79.1,0,.2,0,.3,0s.22.01.35.03v1.4c-.16-.01-.28-.02-.35-.02-.07,0-.14,0-.2,0-.47,0-.75.12-.85.36-.09.24-.14.86-.14,1.85h1.54v1.21h-1.54v7.9h-1.52v-7.9h-1.27v-1.21h1.27v-1.44c.02-.64.13-1.1.33-1.4Z" style="fill:#0094e2;"/><path d="m133.04,102.64c.81.79,1.21,1.94,1.21,3.47s-.36,2.69-1.07,3.65c-.71.96-1.82,1.44-3.32,1.44-1.25,0-2.24-.42-2.98-1.28-.74-.85-1.1-1.99-1.1-3.43,0-1.54.39-2.76,1.16-3.67.77-.91,1.82-1.37,3.12-1.37,1.17,0,2.16.39,2.97,1.18Zm-.96,6.08c.37-.77.56-1.63.56-2.57,0-.85-.14-1.55-.41-2.08-.43-.84-1.17-1.26-2.21-1.26-.93,0-1.61.36-2.03,1.08s-.63,1.58-.63,2.59.21,1.78.63,2.43,1.09.97,2.01.97c1.01,0,1.7-.39,2.07-1.16Z" style="fill:#0094e2;"/><path d="m136.05,101.73h1.46v1.58c.12-.31.41-.68.88-1.12.47-.44,1.01-.66,1.62-.66.03,0,.08,0,.15,0,.07,0,.18.02.35.03v1.62c-.09-.02-.18-.03-.25-.03-.08,0-.16,0-.25,0-.77,0-1.37.25-1.79.75-.42.5-.62,1.07-.62,1.72v5.26h-1.54v-9.15Z" style="fill:#0094e2;"/><path d="m141.77,101.73h1.52v1.3c.36-.45.69-.78.99-.98.51-.35,1.08-.52,1.73-.52.73,0,1.32.18,1.76.54.25.21.48.51.68.91.34-.49.74-.85,1.2-1.09.46-.24.98-.35,1.56-.35,1.23,0,2.07.44,2.51,1.33.24.48.36,1.12.36,1.93v6.09h-1.6v-6.36c0-.61-.15-1.03-.46-1.26-.31-.23-.68-.34-1.12-.34-.6,0-1.12.2-1.56.61-.44.4-.65,1.08-.65,2.03v5.32h-1.56v-5.97c0-.62-.07-1.07-.22-1.36-.23-.43-.67-.64-1.31-.64-.58,0-1.11.23-1.59.67-.48.45-.71,1.26-.71,2.44v4.85h-1.54v-9.15Z" style="fill:#0094e2;"/><path d="m165.26,98.12c-.89,1.74-1.48,3.02-1.74,3.84-.4,1.25-.61,2.69-.61,4.32s.23,3.16.69,4.53c.28.84.85,2.06,1.68,3.64h-1.03c-.83-1.3-1.35-2.13-1.55-2.49-.2-.36-.42-.85-.65-1.46-.32-.84-.54-1.74-.67-2.7-.06-.5-.09-.97-.09-1.42,0-1.69.27-3.19.79-4.5.34-.84,1.04-2.09,2.1-3.76h1.07Z" style="fill:#0094e2;"/><path d="m176.9,100.12c.83,1.11,1.25,2.53,1.25,4.26,0,1.87-.48,3.43-1.43,4.67-1.12,1.46-2.71,2.19-4.78,2.19-1.93,0-3.45-.64-4.55-1.91-.99-1.23-1.48-2.79-1.48-4.67,0-1.7.42-3.15,1.26-4.36,1.08-1.55,2.68-2.32,4.8-2.32s3.86.71,4.92,2.14Zm-1.5,8c.67-1.08,1-2.31,1-3.71,0-1.48-.39-2.67-1.16-3.57-.77-.9-1.83-1.35-3.17-1.35s-2.36.45-3.18,1.34c-.82.89-1.23,2.21-1.23,3.95,0,1.39.35,2.56,1.06,3.52.7.96,1.84,1.43,3.42,1.43s2.58-.54,3.25-1.61Z" style="fill:#0094e2;"/><path d="m181.53,101.73v6.08c0,.47.07.85.22,1.14.27.55.76.82,1.49.82,1.04,0,1.75-.48,2.13-1.44.21-.51.31-1.22.31-2.11v-4.49h1.54v9.15h-1.45l.02-1.35c-.2.35-.44.64-.73.88-.58.48-1.27.72-2.1.72-1.28,0-2.15-.44-2.62-1.31-.25-.47-.38-1.09-.38-1.87v-6.22h1.57Z" style="fill:#0094e2;"/><path d="m189.84,99.17h1.56v2.56h1.46v1.26h-1.46v5.97c0,.32.11.53.32.64.12.06.32.09.6.09.07,0,.15,0,.24,0s.19-.01.3-.03v1.22c-.18.05-.36.09-.55.11-.19.02-.4.03-.62.03-.72,0-1.21-.18-1.46-.55-.26-.37-.38-.84-.38-1.43v-6.06h-1.24v-1.26h1.24v-2.56Z" style="fill:#0094e2;"/><path d="m194.23,98.29h1.5v4.55c.34-.44.74-.77,1.21-1s.98-.35,1.53-.35c1.14,0,2.07.39,2.78,1.17s1.07,1.94,1.07,3.46c0,1.45-.35,2.65-1.05,3.61-.7.96-1.68,1.44-2.93,1.44-.7,0-1.29-.17-1.77-.5-.29-.2-.59-.52-.92-.96v1.17h-1.42v-12.6Zm5.88,10.54c.41-.66.62-1.53.62-2.61,0-.96-.21-1.76-.62-2.39-.41-.63-1.02-.95-1.83-.95-.7,0-1.32.26-1.85.78-.53.52-.79,1.37-.79,2.56,0,.86.11,1.56.33,2.09.41,1.01,1.16,1.51,2.27,1.51.83,0,1.46-.33,1.87-.99Z" style="fill:#0094e2;"/><path d="m210.75,102.64c.81.79,1.21,1.94,1.21,3.47s-.36,2.69-1.07,3.65c-.71.96-1.82,1.44-3.32,1.44-1.25,0-2.24-.42-2.98-1.28-.74-.85-1.1-1.99-1.1-3.43,0-1.54.39-2.76,1.16-3.67.77-.91,1.82-1.37,3.12-1.37,1.17,0,2.16.39,2.97,1.18Zm-.96,6.08c.37-.77.56-1.63.56-2.57,0-.85-.14-1.55-.41-2.08-.43-.84-1.17-1.26-2.21-1.26-.93,0-1.61.36-2.03,1.08s-.63,1.58-.63,2.59.21,1.78.63,2.43,1.09.97,2.01.97c1.01,0,1.7-.39,2.07-1.16Z" style="fill:#0094e2;"/><path d="m215.27,101.73v6.08c0,.47.07.85.22,1.14.27.55.76.82,1.49.82,1.04,0,1.75-.48,2.13-1.44.21-.51.31-1.22.31-2.11v-4.49h1.54v9.15h-1.45l.02-1.35c-.2.35-.44.64-.73.88-.58.48-1.27.72-2.1.72-1.28,0-2.15-.44-2.62-1.31-.25-.47-.38-1.09-.38-1.87v-6.22h1.57Z" style="fill:#0094e2;"/><path d="m223.23,101.73h1.46v1.3c.43-.54.89-.92,1.38-1.15.48-.23,1.02-.35,1.62-.35,1.3,0,2.18.45,2.63,1.36.25.5.38,1.21.38,2.13v5.87h-1.56v-5.77c0-.56-.08-1.01-.25-1.35-.27-.57-.77-.85-1.49-.85-.36,0-.66.04-.9.11-.42.12-.79.38-1.11.75-.26.3-.42.61-.5.94-.08.32-.12.78-.12,1.38v4.79h-1.54v-9.15Z" style="fill:#0094e2;"/><path d="m237.97,102.01c.27.17.58.47.93.9v-4.62h1.48v12.6h-1.38v-1.27c-.36.56-.78.97-1.27,1.22-.49.25-1.05.38-1.68.38-1.02,0-1.9-.43-2.64-1.29-.74-.86-1.12-2-1.12-3.42,0-1.33.34-2.49,1.02-3.46s1.65-1.47,2.91-1.47c.7,0,1.28.15,1.75.44Zm-3.43,6.86c.41.66,1.08.99,1.99.99.71,0,1.29-.31,1.75-.92.46-.61.68-1.49.68-2.64s-.24-2.01-.71-2.57c-.47-.56-1.05-.83-1.74-.83-.77,0-1.4.3-1.87.89s-.72,1.46-.72,2.62c0,.98.21,1.8.62,2.46Z" style="fill:#0094e2;"/><path d="m247.75,98.33h1.7v11.06h6.3v1.5h-8v-12.55Z" style="fill:#0094e2;"/><path d="m257.14,98.33h1.56v1.74h-1.56v-1.74Zm0,3.44h1.56v9.11h-1.56v-9.11Z" style="fill:#0094e2;"/><path d="m260.88,101.73h1.46v1.3c.43-.54.89-.92,1.38-1.15.48-.23,1.02-.35,1.62-.35,1.3,0,2.18.45,2.63,1.36.25.5.38,1.21.38,2.13v5.87h-1.56v-5.77c0-.56-.08-1.01-.25-1.35-.27-.57-.77-.85-1.49-.85-.36,0-.66.04-.9.11-.42.12-.79.38-1.11.75-.26.3-.42.61-.5.94-.08.32-.12.78-.12,1.38v4.79h-1.54v-9.15Z" style="fill:#0094e2;"/><path d="m276.16,101.98c.61.3,1.07.7,1.38,1.18.31.46.51,1,.61,1.61.09.42.14,1.09.14,2.02h-6.66c.03.93.25,1.68.65,2.24.41.56,1.04.84,1.89.84.8,0,1.43-.27,1.91-.8.27-.31.45-.67.56-1.07h1.51c-.04.34-.17.71-.4,1.12-.23.41-.48.75-.75,1.01-.46.46-1.04.76-1.72.92-.37.09-.78.14-1.25.14-1.13,0-2.09-.41-2.88-1.24-.79-.83-1.18-1.99-1.18-3.48s.4-2.66,1.19-3.58c.79-.92,1.83-1.38,3.11-1.38.65,0,1.27.15,1.88.46Zm.55,3.59c-.06-.67-.21-1.2-.43-1.6-.42-.74-1.12-1.11-2.09-1.11-.7,0-1.29.25-1.76.76-.47.51-.73,1.16-.75,1.94h5.04Z" style="fill:#0094e2;"/><path d="m278.73,114.45c.91-1.77,1.49-3.05,1.75-3.86.4-1.22.6-2.66.6-4.31s-.23-3.15-.69-4.52c-.29-.84-.85-2.06-1.68-3.64h1.03c.88,1.4,1.41,2.27,1.59,2.59.19.33.39.78.6,1.35.27.71.47,1.42.59,2.11.12.7.17,1.36.17,2.01,0,1.69-.27,3.19-.8,4.51-.34.85-1.03,2.1-2.09,3.75h-1.07Z" style="fill:#0094e2;"/><path d="m291.18,110.95v-12.69l13.74,6.35-13.74,6.35Z" style="fill:#0094e2;"/><path d="m112.16,391.38v12.69l-13.74-6.34,13.74-6.35Z" style="fill:#0094e2;"/><path d="m122.4,391.46h5.62c1.11,0,2.01.32,2.69.94.68.63,1.02,1.51,1.02,2.65,0,.98-.3,1.83-.91,2.56s-1.54,1.09-2.8,1.09h-3.92v5.31h-1.7v-12.55Zm6.6,1.73c-.37-.18-.89-.26-1.54-.26h-3.36v4.35h3.36c.76,0,1.37-.16,1.85-.49.47-.33.71-.9.71-1.72,0-.92-.34-1.55-1.02-1.88Z" style="fill:#0094e2;"/><path d="m133.37,391.46h1.54v12.55h-1.54v-12.55Z" style="fill:#0094e2;"/><path d="m141.97,398.47c.35-.05.59-.19.71-.44.07-.14.1-.33.1-.59,0-.53-.19-.91-.56-1.15-.37-.24-.91-.36-1.6-.36-.8,0-1.37.22-1.71.65-.19.24-.31.6-.37,1.07h-1.44c.03-1.13.39-1.92,1.1-2.36.7-.44,1.52-.67,2.45-.67,1.08,0,1.95.21,2.62.62.67.41,1,1.05,1,1.92v5.27c0,.16.03.29.1.38s.2.15.41.15c.07,0,.15,0,.23-.01.09,0,.18-.02.27-.04v1.14c-.24.07-.42.11-.55.13-.12.02-.3.03-.51.03-.53,0-.91-.19-1.15-.56-.13-.2-.21-.48-.26-.85-.31.41-.76.77-1.35,1.07-.59.3-1.23.45-1.94.45-.85,0-1.54-.26-2.08-.77-.54-.51-.81-1.16-.81-1.93,0-.85.27-1.5.79-1.97.53-.47,1.23-.75,2.08-.86l2.45-.31Zm-3.24,4.16c.33.26.71.38,1.15.38.54,0,1.06-.12,1.57-.38.85-.42,1.28-1.09,1.28-2.04v-1.24c-.19.12-.43.22-.72.3-.3.08-.59.14-.87.17l-.93.12c-.56.07-.98.19-1.26.35-.48.27-.71.69-.71,1.28,0,.44.16.79.49,1.05Z" style="fill:#0094e2;"/><path d="m146.83,392.3h1.56v2.55h1.46v1.26h-1.46v5.97c0,.32.11.53.32.64.12.06.32.09.6.09.07,0,.15,0,.24,0s.19-.01.3-.03v1.22c-.18.05-.36.09-.55.11-.19.02-.4.03-.62.03-.72,0-1.21-.18-1.46-.55-.26-.37-.38-.84-.38-1.43v-6.06h-1.24v-1.26h1.24v-2.55Z" style="fill:#0094e2;"/><path d="m152.38,392.06c.36-.52,1.05-.79,2.08-.79.1,0,.2,0,.3,0,.1,0,.22.01.35.03v1.4c-.16-.01-.28-.02-.35-.02-.07,0-.14,0-.2,0-.47,0-.75.12-.85.36-.09.24-.14.86-.14,1.85h1.54v1.21h-1.54v7.9h-1.52v-7.9h-1.27v-1.21h1.27v-1.44c.02-.64.13-1.11.33-1.4Z" style="fill:#0094e2;"/><path d="m162.92,395.77c.81.79,1.21,1.94,1.21,3.47s-.36,2.69-1.07,3.65c-.71.96-1.82,1.44-3.32,1.44-1.25,0-2.24-.43-2.98-1.28s-1.1-1.99-1.1-3.43c0-1.54.39-2.76,1.16-3.67.77-.91,1.82-1.37,3.12-1.37,1.17,0,2.16.39,2.97,1.18Zm-.96,6.08c.37-.77.56-1.63.56-2.57,0-.85-.14-1.55-.41-2.08-.43-.84-1.17-1.26-2.21-1.26-.93,0-1.61.36-2.03,1.08s-.63,1.58-.63,2.59.21,1.78.63,2.43,1.09.97,2.01.97c1.01,0,1.7-.38,2.07-1.16Z" style="fill:#0094e2;"/><path d="m165.93,394.86h1.46v1.58c.12-.31.41-.68.88-1.12.47-.44,1.01-.66,1.62-.66.03,0,.08,0,.15,0s.18.02.35.03v1.62c-.09-.02-.18-.03-.25-.03-.08,0-.16,0-.25,0-.77,0-1.37.25-1.79.75-.42.5-.62,1.07-.62,1.72v5.26h-1.54v-9.15Z" style="fill:#0094e2;"/><path d="m171.65,394.86h1.52v1.3c.36-.45.69-.78.99-.98.51-.35,1.08-.52,1.73-.52.73,0,1.32.18,1.76.54.25.21.48.51.68.91.34-.49.74-.85,1.2-1.09.46-.24.98-.35,1.56-.35,1.23,0,2.07.44,2.51,1.33.24.48.36,1.12.36,1.93v6.09h-1.6v-6.36c0-.61-.15-1.03-.46-1.26-.31-.23-.68-.34-1.12-.34-.6,0-1.12.2-1.56.61-.44.41-.65,1.08-.65,2.03v5.32h-1.56v-5.97c0-.62-.07-1.07-.22-1.36-.23-.43-.67-.64-1.31-.64-.58,0-1.11.23-1.59.68s-.71,1.26-.71,2.44v4.85h-1.54v-9.15Z" style="fill:#0094e2;"/><path d="m195.14,391.25c-.89,1.74-1.48,3.02-1.74,3.84-.4,1.25-.61,2.69-.61,4.32s.23,3.16.69,4.53c.28.84.85,2.06,1.68,3.64h-1.03c-.83-1.3-1.35-2.13-1.55-2.49-.2-.36-.42-.85-.65-1.46-.32-.84-.54-1.74-.67-2.7-.06-.5-.09-.97-.09-1.42,0-1.69.27-3.19.79-4.5.34-.84,1.04-2.09,2.1-3.76h1.07Z" style="fill:#0094e2;"/><path d="m196.94,391.46h1.72v12.55h-1.72v-12.55Z" style="fill:#0094e2;"/><path d="m201.06,394.86h1.46v1.3c.43-.54.89-.92,1.38-1.15.48-.23,1.02-.35,1.62-.35,1.3,0,2.18.45,2.63,1.36.25.5.38,1.21.38,2.13v5.87h-1.56v-5.77c0-.56-.08-1.01-.25-1.35-.27-.57-.77-.85-1.49-.85-.36,0-.66.04-.9.11-.42.13-.79.38-1.11.75-.26.3-.42.61-.5.94-.08.32-.12.78-.12,1.38v4.79h-1.54v-9.15Z" style="fill:#0094e2;"/><path d="m210.6,391.41h1.5v4.55c.34-.44.74-.77,1.21-1,.47-.23.98-.35,1.53-.35,1.14,0,2.07.39,2.78,1.17s1.07,1.94,1.07,3.46c0,1.45-.35,2.65-1.05,3.61-.7.96-1.68,1.44-2.93,1.44-.7,0-1.29-.17-1.77-.5-.29-.2-.59-.52-.92-.96v1.17h-1.42v-12.59Zm5.88,10.54c.41-.66.62-1.53.62-2.61,0-.96-.21-1.76-.62-2.39-.41-.63-1.02-.95-1.83-.95-.7,0-1.32.26-1.85.78s-.79,1.37-.79,2.56c0,.86.11,1.56.33,2.09.41,1.01,1.16,1.51,2.27,1.51.83,0,1.46-.33,1.87-.99Z" style="fill:#0094e2;"/><path d="m227.12,395.77c.81.79,1.21,1.94,1.21,3.47s-.36,2.69-1.07,3.65c-.71.96-1.82,1.44-3.32,1.44-1.25,0-2.24-.43-2.98-1.28s-1.1-1.99-1.1-3.43c0-1.54.39-2.76,1.16-3.67.77-.91,1.82-1.37,3.12-1.37,1.17,0,2.16.39,2.97,1.18Zm-.96,6.08c.37-.77.56-1.63.56-2.57,0-.85-.14-1.55-.41-2.08-.43-.84-1.17-1.26-2.21-1.26-.93,0-1.61.36-2.03,1.08s-.63,1.58-.63,2.59.21,1.78.63,2.43,1.09.97,2.01.97c1.01,0,1.7-.38,2.07-1.16Z" style="fill:#0094e2;"/><path d="m231.63,394.86v6.08c0,.47.07.85.22,1.15.27.55.76.82,1.49.82,1.04,0,1.75-.48,2.13-1.44.21-.51.31-1.22.31-2.11v-4.49h1.54v9.15h-1.45l.02-1.35c-.2.35-.44.64-.73.88-.58.48-1.27.72-2.1.72-1.28,0-2.15-.44-2.62-1.31-.25-.47-.38-1.09-.38-1.87v-6.22h1.57Z" style="fill:#0094e2;"/><path d="m239.59,394.86h1.46v1.3c.43-.54.89-.92,1.38-1.15.48-.23,1.02-.35,1.62-.35,1.3,0,2.18.45,2.63,1.36.25.5.38,1.21.38,2.13v5.87h-1.56v-5.77c0-.56-.08-1.01-.25-1.35-.27-.57-.77-.85-1.49-.85-.36,0-.66.04-.9.11-.42.13-.79.38-1.11.75-.26.3-.42.61-.5.94-.08.32-.12.78-.12,1.38v4.79h-1.54v-9.15Z" style="fill:#0094e2;"/><path d="m254.34,395.14c.27.17.58.47.93.9v-4.62h1.48v12.59h-1.38v-1.27c-.36.56-.78.97-1.27,1.22-.49.25-1.05.38-1.68.38-1.02,0-1.9-.43-2.64-1.29-.74-.86-1.12-2-1.12-3.42,0-1.33.34-2.49,1.02-3.46.68-.98,1.65-1.46,2.91-1.46.7,0,1.28.15,1.75.44Zm-3.43,6.86c.41.66,1.08.99,1.99.99.71,0,1.29-.31,1.75-.92.46-.61.68-1.49.68-2.64s-.24-2.01-.71-2.57c-.47-.56-1.05-.83-1.74-.83-.77,0-1.4.3-1.87.89-.48.59-.72,1.46-.72,2.62,0,.98.21,1.8.62,2.46Z" style="fill:#0094e2;"/><path d="m264.11,391.46h1.7v11.06h6.3v1.5h-8v-12.55Z" style="fill:#0094e2;"/><path d="m273.51,391.46h1.56v1.74h-1.56v-1.74Zm0,3.44h1.56v9.11h-1.56v-9.11Z" style="fill:#0094e2;"/><path d="m277.25,394.86h1.46v1.3c.43-.54.89-.92,1.38-1.15.48-.23,1.02-.35,1.62-.35,1.3,0,2.18.45,2.63,1.36.25.5.38,1.21.38,2.13v5.87h-1.56v-5.77c0-.56-.08-1.01-.25-1.35-.27-.57-.77-.85-1.49-.85-.36,0-.66.04-.9.11-.42.13-.79.38-1.11.75-.26.3-.42.61-.5.94-.08.32-.12.78-.12,1.38v4.79h-1.54v-9.15Z" style="fill:#0094e2;"/><path d="m292.53,395.11c.61.3,1.07.7,1.38,1.18.31.46.51,1,.61,1.62.09.42.14,1.09.14,2.02h-6.66c.03.93.25,1.68.65,2.24.41.56,1.04.84,1.89.84.8,0,1.43-.27,1.91-.8.27-.31.45-.67.56-1.07h1.51c-.04.34-.17.71-.4,1.12s-.48.75-.75,1.01c-.46.46-1.04.76-1.72.92-.37.09-.78.14-1.25.14-1.13,0-2.09-.42-2.88-1.24-.79-.83-1.18-1.99-1.18-3.48s.4-2.66,1.19-3.58c.79-.92,1.83-1.38,3.11-1.38.65,0,1.27.15,1.88.46Zm.55,3.59c-.06-.67-.21-1.2-.43-1.6-.42-.74-1.12-1.11-2.09-1.11-.7,0-1.29.25-1.76.76-.47.51-.73,1.16-.75,1.94h5.04Z" style="fill:#0094e2;"/><path d="m295.1,407.58c.91-1.77,1.49-3.05,1.75-3.86.4-1.22.6-2.66.6-4.31s-.23-3.15-.69-4.52c-.29-.84-.85-2.06-1.68-3.64h1.03c.88,1.4,1.41,2.27,1.59,2.59.19.33.39.78.6,1.35.27.71.47,1.42.59,2.11.12.7.17,1.36.17,2.01,0,1.69-.27,3.19-.8,4.51-.34.85-1.03,2.1-2.09,3.75h-1.07Z" style="fill:#0094e2;"/><polyline points="843.64 40.64 473.89 40.64 378.67 72.59 .25 72.59 .25 150.82 632.05 150.82 632.05 345.02 .25 346.35 .25 455.15 763.71 455.15 763.71 345.02 1063.46 345.02" style="fill:none; stroke:#545454; stroke-miterlimit:10; stroke-width:.5px;"/><polyline points="1063.46 152.09 907.1 152.09 907.1 40.64" style="fill:none; stroke:#545454; stroke-miterlimit:10; stroke-width:.5px;"/><rect x="781.09" y="40.64" width="62.34" height="60.54" style="fill:#fff; stroke:#545454; stroke-miterlimit:10; stroke-width:.5px;"/><rect x="788.98" y="48.96" width="44.18" height="44.18" rx="3.52" ry="3.52" style="fill:none; stroke:#0094e2; stroke-linecap:round; stroke-linejoin:round; stroke-width:3.52px;"/><rect x="787.93" y="47.9" width="44.18" height="44.18" rx="3.52" ry="3.52" style="fill:#fff;"/><rect x="787.93" y="47.9" width="44.18" height="44.18" rx="3.52" ry="3.52" style="fill:none; stroke:#0094e2; stroke-linecap:round; stroke-linejoin:round; stroke-width:1.76px;"/><polygon points="817.25 59.99 801.44 59.99 798.11 53.23 818.29 56.04 817.25 59.99" style="fill:#0094e2;"/><path d="m801.13,61.97h15.71v4.99c0,2.5-2.08,6.55-7.18,6.55s-7.39-4.37-7.39-5.83v-2.39h-3.95l2.81-3.33Z" style="fill:#0094e2;"/><path d="m828.27,90.16c.52-4.06.1-8.01-1.98-10.19-2.08-2.18-5.83-3.74-11.86-3.74l-4.37,8.43-5.3-8.43s-5.1.52-7.07,1.35c-1.98.83-6.76,5.2-4.99,11.96.12.45.27,1.06.45,1.74h34.97c.05-.38.11-.75.15-1.11Z" style="fill:#0094e2;"/><rect x="776.05" y="353.66" width="44.18" height="44.18" rx="3.52" ry="3.52" style="fill:none; stroke:#0094e2; stroke-linecap:round; stroke-linejoin:round; stroke-width:3.52px;"/><rect x="775" y="352.6" width="44.18" height="44.18" rx="3.52" ry="3.52" style="fill:#fff;"/><rect x="775" y="352.6" width="44.18" height="44.18" rx="3.52" ry="3.52" style="fill:none; stroke:#0094e2; stroke-linecap:round; stroke-linejoin:round; stroke-width:1.76px;"/><polygon points="792.57 390.84 787.77 390.84 784.92 367.71 795.42 367.71 792.57 390.84" style="fill:#0094e2;"/><polygon points="801.61 367.71 806.42 367.71 809.26 390.84 798.77 390.84 801.61 367.71" style="fill:#ec0e8d;"/><circle cx="790.17" cy="362.48" r="3.93" style="fill:#0094e2;"/><circle cx="804.01" cy="362.48" r="3.93" style="fill:#ec0e8d;"/><line x1="35.84" y1="371.29" x2="38.99" y2="371.29" style="fill:none; stroke:#39b54a; stroke-miterlimit:10; stroke-width:4.41px;"/><polyline points="45.26 371.29 480.78 371.29 656.09 371.29" style="fill:none; stroke:#39b54a; stroke-dasharray:0 0 6.26 6.26; stroke-miterlimit:10; stroke-width:4.41px;"/><polyline points="659.22 371.29 662.37 371.29 662.37 368.14" style="fill:none; stroke:#39b54a; stroke-miterlimit:10; stroke-width:4.41px;"/><line x1="662.37" y1="361.99" x2="662.37" y2="131.12" style="fill:none; stroke:#39b54a; stroke-dasharray:0 0 6.16 6.16; stroke-miterlimit:10; stroke-width:4.41px;"/><polyline points="662.37 128.04 662.37 124.89 659.22 124.89" style="fill:none; stroke:#39b54a; stroke-miterlimit:10; stroke-width:4.41px;"/><polyline points="652.96 124.89 480.78 124.89 42.13 124.89" style="fill:none; stroke:#39b54a; stroke-dasharray:0 0 6.26 6.26; stroke-miterlimit:10; stroke-width:4.41px;"/><line x1="38.99" y1="124.89" x2="35.84" y2="124.89" style="fill:none; stroke:#39b54a; stroke-miterlimit:10; stroke-width:4.41px;"/><line x1="662.37" y1="124.89" x2="662.37" y2="121.74" style="fill:none; stroke:#39b54a; stroke-miterlimit:10; stroke-width:4.41px;"/><line x1="662.37" y1="117.64" x2="662.37" y2="111.49" style="fill:none; stroke:#39b54a; stroke-dasharray:0 0 4.1 4.1; stroke-miterlimit:10; stroke-width:4.41px;"/><polyline points="662.37 109.44 662.37 106.29 665.52 106.29" style="fill:none; stroke:#39b54a; stroke-miterlimit:10; stroke-width:4.41px;"/><line x1="671.79" y1="106.29" x2="869.42" y2="106.29" style="fill:none; stroke:#39b54a; stroke-dasharray:0 0 6.27 6.27; stroke-miterlimit:10; stroke-width:4.41px;"/><polyline points="872.56 106.29 875.71 106.29 875.71 103.14" style="fill:none; stroke:#39b54a; stroke-miterlimit:10; stroke-width:4.41px;"/><line x1="875.71" y1="97.31" x2="875.71" y2="30.19" style="fill:none; stroke:#39b54a; stroke-dasharray:0 0 5.84 5.84; stroke-miterlimit:10; stroke-width:4.41px;"/><line x1="875.71" y1="27.27" x2="875.71" y2="24.12" style="fill:none; stroke:#39b54a; stroke-miterlimit:10; stroke-width:4.41px;"/><polyline points="763.71 345.02 688.35 345.02 688.35 152.09 907.1 152.09" style="fill:none; stroke:#545454; stroke-miterlimit:10; stroke-width:.5px;"/><rect x="764.94" y="122.38" width="96.61" height="53.44" rx="3.86" ry="3.86" style="fill:#ed0030;"/><rect x="764.94" y="122.38" width="96.61" height="53.44" rx="3.86" ry="3.86" style="fill:none; stroke:#545454; stroke-linecap:round; stroke-linejoin:round; stroke-width:1.89px;"/><polyline points="766.98 147.44 748.66 132.59 766.98 156.09" style="fill:#ed0030; stroke:#545454; stroke-linecap:round; stroke-linejoin:round; stroke-width:1.89px;"/><rect x="784.9" y="439.61" width="192.44" height="83.01" rx="4.8" ry="4.8" style="fill:#ed0030;"/><rect x="784.9" y="439.61" width="192.44" height="83.01" rx="4.8" ry="4.8" style="fill:none; stroke:#545454; stroke-linecap:round; stroke-linejoin:round; stroke-width:2.35px;"/><polyline points="786.94 464.67 745.15 447.1 786.94 473.32" style="fill:#ed0030; stroke:#545454; stroke-linecap:round; stroke-linejoin:round; stroke-width:1.89px;"/><polyline points="662.37 371.29 662.37 420.72 772.57 420.72" style="fill:none; stroke:#39b54a; stroke-dasharray:0 0 6.3 6.3; stroke-miterlimit:10; stroke-width:4.41px;"/><path d="m794.02,128.48v2.97h-5.02v13.82h-3.53v-13.82h-5.05v-2.97h13.6Z" style="fill:#fff;"/><path d="m799.05,128.38v3h-3.29v-3h3.29Zm0,4.48v12.42h-3.29v-12.42h3.29Z" style="fill:#fff;"/><path d="m812.81,137.31h-3.33c-.06-.46-.22-.88-.47-1.25-.37-.5-.93-.75-1.7-.75-1.09,0-1.84.54-2.24,1.63-.21.58-.32,1.34-.32,2.3s.11,1.64.32,2.2c.39,1.03,1.12,1.55,2.19,1.55.76,0,1.3-.21,1.62-.62.32-.41.51-.94.58-1.59h3.32c-.08.99-.43,1.92-1.07,2.8-1.02,1.42-2.53,2.13-4.52,2.13s-3.47-.59-4.41-1.78c-.94-1.18-1.41-2.72-1.41-4.61,0-2.13.52-3.79,1.56-4.98,1.04-1.19,2.48-1.78,4.31-1.78,1.56,0,2.83.35,3.82,1.05.99.7,1.58,1.93,1.76,3.7Z" style="fill:#fff;"/><path d="m826.31,145.27h-3.92l-2.97-5.31-1.34,1.4v3.91h-3.19v-16.74h3.19v9.05l4.04-4.67h4.02l-4.34,4.75,4.51,7.61Z" style="fill:#fff;"/><path d="m838.12,141.63c-.08.74-.47,1.48-1.15,2.24-1.06,1.21-2.55,1.81-4.47,1.81-1.58,0-2.97-.51-4.18-1.53-1.21-1.02-1.81-2.67-1.81-4.97,0-2.15.54-3.8,1.63-4.95,1.09-1.15,2.5-1.72,4.24-1.72,1.03,0,1.96.19,2.79.58.83.39,1.51,1,2.05,1.83.49.74.8,1.59.95,2.56.08.57.12,1.39.1,2.46h-8.5c.05,1.25.44,2.12,1.17,2.62.45.31.99.47,1.62.47.67,0,1.21-.19,1.63-.57.23-.21.43-.49.6-.85h3.32Zm-3.21-3.81c-.05-.86-.31-1.51-.78-1.95-.47-.44-1.05-.67-1.74-.67-.75,0-1.33.24-1.75.71s-.67,1.11-.78,1.91h5.05Z" style="fill:#fff;"/><path d="m846.08,142.96v2.43l-1.54.06c-1.54.05-2.58-.21-3.14-.8-.37-.37-.55-.95-.55-1.72v-7.65h-1.73v-2.31h1.73v-3.46h3.21v3.46h2.02v2.31h-2.02v6.56c0,.51.06.83.19.95.13.13.52.19,1.18.19.1,0,.2,0,.31,0s.22,0,.33-.02Z" style="fill:#fff;"/><path d="m799.58,168.97c-.93.57-2.07.85-3.42.85-2.23,0-4.05-.77-5.47-2.31-1.48-1.55-2.22-3.67-2.22-6.36s.75-4.9,2.25-6.54c1.5-1.64,3.47-2.46,5.94-2.46,2.13,0,3.85.54,5.14,1.62,1.29,1.08,2.04,2.43,2.23,4.05h-3.45c-.27-1.15-.92-1.95-1.95-2.4-.58-.25-1.22-.38-1.93-.38-1.35,0-2.46.51-3.33,1.53-.87,1.02-1.3,2.56-1.3,4.61s.47,3.53,1.41,4.39c.94.86,2.01,1.29,3.21,1.29s2.14-.34,2.89-1.02c.75-.68,1.21-1.57,1.39-2.67h-3.88v-2.8h7v9.01h-2.32l-.35-2.1c-.68.8-1.28,1.36-1.82,1.69Z" style="fill:#fff;"/><path d="m807.71,158.3c.86-1.09,2.33-1.64,4.42-1.64,1.36,0,2.57.27,3.62.81s1.58,1.56,1.58,3.05v5.7c0,.4,0,.87.02,1.44.02.43.09.71.19.87s.27.28.48.38v.48h-3.53c-.1-.25-.17-.49-.21-.71-.04-.22-.07-.47-.09-.75-.45.49-.96.9-1.55,1.24-.7.4-1.49.6-2.37.6-1.12,0-2.05-.32-2.79-.96-.73-.64-1.1-1.55-1.1-2.73,0-1.53.59-2.63,1.77-3.32.65-.37,1.59-.64,2.85-.8l1.1-.14c.6-.08,1.03-.17,1.29-.29.46-.2.69-.5.69-.92,0-.51-.18-.86-.53-1.05s-.87-.29-1.56-.29c-.77,0-1.31.19-1.63.57-.23.28-.38.66-.46,1.14h-3.13c.07-1.09.37-1.98.91-2.68Zm2.42,8.73c.3.25.68.38,1.12.38.7,0,1.34-.21,1.93-.62.59-.41.89-1.16.92-2.25v-1.21c-.21.13-.41.23-.62.31-.21.08-.5.15-.86.22l-.73.14c-.68.12-1.17.27-1.47.44-.5.3-.75.76-.75,1.38,0,.55.16.95.47,1.2Z" style="fill:#fff;"/><path d="m825.78,167.06v2.43l-1.54.06c-1.54.05-2.58-.21-3.14-.8-.37-.37-.55-.95-.55-1.72v-7.65h-1.73v-2.31h1.73v-3.46h3.21v3.46h2.02v2.31h-2.02v6.56c0,.51.06.83.19.95.13.13.52.19,1.18.19.1,0,.2,0,.31,0s.22,0,.33-.02Z" style="fill:#fff;"/><path d="m838.35,165.73c-.08.74-.47,1.48-1.15,2.24-1.06,1.21-2.55,1.81-4.47,1.81-1.58,0-2.97-.51-4.18-1.53-1.21-1.02-1.81-2.67-1.81-4.97,0-2.15.54-3.8,1.63-4.95,1.09-1.15,2.5-1.72,4.24-1.72,1.03,0,1.96.19,2.79.58.83.39,1.51,1,2.05,1.83.49.74.8,1.59.95,2.56.08.57.12,1.39.1,2.46h-8.5c.05,1.25.44,2.12,1.17,2.62.45.31.99.47,1.62.47.67,0,1.21-.19,1.63-.57.23-.21.43-.49.6-.85h3.32Zm-3.21-3.81c-.05-.86-.31-1.51-.78-1.95-.47-.44-1.05-.67-1.74-.67-.75,0-1.33.24-1.75.71s-.67,1.11-.78,1.91h5.05Z" style="fill:#fff;"/><path d="m807.19,460.21h-8.16v4.32h9.3v3.02h-12.73v-16.79h12.32v2.97h-8.89v3.57h8.16v2.92Z" style="fill:#fff;"/><path d="m822.06,467.55h-4.04l-2.14-3.73-2.15,3.73h-3.94l4.24-6.29-4.06-6.11h3.98l2.07,3.6,2.03-3.6h3.86l-4.08,6.05,4.24,6.35Z" style="fill:#fff;"/><path d="m827.04,450.65v3h-3.29v-3h3.29Zm0,4.48v12.42h-3.29v-12.42h3.29Z" style="fill:#fff;"/><path d="m835.73,465.24v2.43l-1.54.06c-1.54.05-2.58-.21-3.14-.8-.37-.37-.55-.95-.55-1.72v-7.65h-1.73v-2.31h1.73v-3.46h3.21v3.46h2.02v2.31h-2.02v6.56c0,.51.06.83.19.95.13.13.52.19,1.18.19.1,0,.2,0,.31,0s.22,0,.33-.02Z" style="fill:#fff;"/><path d="m856.76,450.75v2.97h-5.02v13.82h-3.53v-13.82h-5.05v-2.97h13.6Z" style="fill:#fff;"/><path d="m861.8,450.65v3h-3.29v-3h3.29Zm0,4.48v12.42h-3.29v-12.42h3.29Z" style="fill:#fff;"/><path d="m875.56,459.58h-3.33c-.06-.46-.22-.88-.47-1.25-.37-.5-.93-.75-1.7-.75-1.09,0-1.84.54-2.24,1.63-.21.58-.32,1.34-.32,2.3s.11,1.64.32,2.2c.39,1.03,1.12,1.55,2.19,1.55.76,0,1.3-.21,1.62-.62.32-.41.51-.94.58-1.59h3.32c-.08.99-.43,1.92-1.07,2.8-1.02,1.42-2.53,2.13-4.52,2.13s-3.47-.59-4.41-1.78c-.94-1.18-1.41-2.72-1.41-4.61,0-2.13.52-3.79,1.56-4.98,1.04-1.19,2.48-1.78,4.31-1.78,1.56,0,2.83.35,3.82,1.05.99.7,1.58,1.93,1.76,3.7Z" style="fill:#fff;"/><path d="m889.06,467.55h-3.92l-2.97-5.31-1.34,1.4v3.91h-3.19v-16.74h3.19v9.05l4.04-4.67h4.02l-4.34,4.75,4.51,7.61Z" style="fill:#fff;"/><path d="m900.86,463.9c-.08.74-.47,1.48-1.15,2.24-1.06,1.21-2.55,1.81-4.47,1.81-1.58,0-2.97-.51-4.18-1.53-1.21-1.02-1.81-2.67-1.81-4.97,0-2.15.54-3.8,1.63-4.95,1.09-1.15,2.5-1.72,4.24-1.72,1.03,0,1.96.19,2.79.58.83.39,1.51,1,2.05,1.83.49.74.8,1.59.95,2.56.08.57.12,1.39.1,2.46h-8.5c.05,1.25.44,2.12,1.17,2.62.45.31.99.47,1.62.47.67,0,1.21-.19,1.63-.57.23-.21.43-.49.6-.85h3.32Zm-3.21-3.81c-.05-.86-.31-1.51-.78-1.95s-1.05-.67-1.74-.67c-.75,0-1.33.24-1.75.71s-.67,1.11-.78,1.91h5.05Z" style="fill:#fff;"/><path d="m908.82,465.24v2.43l-1.54.06c-1.53.05-2.58-.21-3.14-.8-.36-.37-.55-.95-.55-1.72v-7.65h-1.73v-2.31h1.73v-3.46h3.21v3.46h2.02v2.31h-2.02v6.56c0,.51.06.83.19.95.13.13.52.19,1.18.19.1,0,.2,0,.31,0,.11,0,.22,0,.32-.02Z" style="fill:#fff;"/><path d="m927.95,467.14c-.93.57-2.07.85-3.42.85-2.23,0-4.05-.77-5.47-2.31-1.48-1.55-2.22-3.67-2.22-6.36s.75-4.9,2.24-6.54c1.5-1.64,3.48-2.46,5.94-2.46,2.13,0,3.85.54,5.14,1.62,1.29,1.08,2.04,2.43,2.23,4.05h-3.45c-.27-1.15-.92-1.95-1.95-2.4-.58-.25-1.22-.38-1.93-.38-1.35,0-2.46.51-3.33,1.53-.87,1.02-1.3,2.56-1.3,4.61s.47,3.53,1.41,4.39c.94.86,2.01,1.29,3.21,1.29s2.14-.34,2.89-1.02c.75-.68,1.22-1.57,1.39-2.67h-3.89v-2.8h7v9.01h-2.32l-.35-2.1c-.68.8-1.28,1.36-1.82,1.69Z" style="fill:#fff;"/><path d="m936.09,456.47c.86-1.09,2.33-1.64,4.42-1.64,1.36,0,2.57.27,3.62.81s1.58,1.56,1.58,3.05v5.7c0,.4,0,.87.02,1.44.02.43.09.71.19.87s.27.28.48.38v.48h-3.53c-.1-.25-.17-.49-.21-.71-.04-.22-.07-.47-.09-.75-.45.49-.96.9-1.55,1.24-.7.4-1.49.6-2.37.6-1.12,0-2.05-.32-2.79-.96-.73-.64-1.1-1.55-1.1-2.73,0-1.53.59-2.63,1.77-3.32.65-.37,1.59-.64,2.85-.8l1.1-.14c.6-.08,1.03-.17,1.29-.29.46-.2.69-.5.69-.92,0-.51-.18-.86-.53-1.05s-.87-.29-1.56-.29c-.77,0-1.31.19-1.63.57-.23.28-.38.66-.46,1.14h-3.13c.07-1.09.37-1.98.91-2.68Zm2.42,8.73c.3.25.68.38,1.12.38.7,0,1.34-.21,1.93-.62.59-.41.89-1.16.92-2.25v-1.21c-.21.13-.41.23-.62.31-.21.08-.5.15-.86.22l-.73.14c-.68.12-1.17.27-1.47.44-.5.3-.75.76-.75,1.38,0,.55.16.95.47,1.2Z" style="fill:#fff;"/><path d="m954.15,465.24v2.43l-1.54.06c-1.53.05-2.58-.21-3.14-.8-.36-.37-.55-.95-.55-1.72v-7.65h-1.73v-2.31h1.73v-3.46h3.21v3.46h2.02v2.31h-2.02v6.56c0,.51.06.83.19.95.13.13.52.19,1.18.19.1,0,.2,0,.31,0,.11,0,.22,0,.32-.02Z" style="fill:#fff;"/><path d="m966.72,463.9c-.08.74-.47,1.48-1.15,2.24-1.06,1.21-2.55,1.81-4.47,1.81-1.58,0-2.97-.51-4.18-1.53-1.21-1.02-1.81-2.67-1.81-4.97,0-2.15.54-3.8,1.63-4.95,1.09-1.15,2.5-1.72,4.24-1.72,1.03,0,1.96.19,2.79.58.83.39,1.51,1,2.05,1.83.49.74.8,1.59.95,2.56.08.57.12,1.39.1,2.46h-8.5c.05,1.25.44,2.12,1.17,2.62.45.31.99.47,1.62.47.67,0,1.21-.19,1.63-.57.23-.21.43-.49.6-.85h3.32Zm-3.21-3.81c-.05-.86-.31-1.51-.78-1.95s-1.05-.67-1.74-.67c-.75,0-1.33.24-1.75.71s-.67,1.11-.78,1.91h5.05Z" style="fill:#fff;"/><path d="m821.84,491.48l-.65-.89c-.42-.54-.87-1.34-1.35-2.41-.85-1.91-1.28-3.78-1.28-5.63,0-1.68.36-3.35,1.08-5,.48-1.13,1.19-2.34,2.12-3.64h1.98l-.56,1.03c-.77,1.42-1.31,2.9-1.61,4.45-.2,1.02-.29,2.13-.29,3.33,0,1.88.27,3.6.82,5.18.32.93.88,2.13,1.69,3.59h-1.94Z" style="fill:#fff;"/><path d="m825.21,474.12h2.81v13.56h-2.81v-13.56Z" style="fill:#fff;"/><path d="m840.29,486.67c-1.01.93-2.31,1.39-3.88,1.39-1.95,0-3.48-.62-4.6-1.88-1.12-1.26-1.67-2.98-1.67-5.17,0-2.37.63-4.19,1.9-5.47,1.1-1.12,2.51-1.67,4.21-1.67,2.28,0,3.95.75,5,2.24.58.84.9,1.68.94,2.53h-2.83c-.18-.65-.42-1.14-.71-1.47-.52-.59-1.28-.88-2.29-.88s-1.84.42-2.44,1.25c-.6.83-.89,2.01-.89,3.53s.31,2.66.94,3.42c.63.76,1.43,1.14,2.4,1.14s1.75-.32,2.27-.97c.29-.35.53-.87.72-1.57h2.81c-.25,1.48-.87,2.68-1.88,3.61Z" style="fill:#fff;"/><path d="m859.13,486.67c-1.01.93-2.31,1.39-3.88,1.39-1.95,0-3.48-.62-4.6-1.88-1.12-1.26-1.67-2.98-1.67-5.17,0-2.37.63-4.19,1.9-5.47,1.1-1.12,2.51-1.67,4.21-1.67,2.28,0,3.95.75,5,2.24.58.84.9,1.68.94,2.53h-2.83c-.18-.65-.42-1.14-.71-1.47-.51-.59-1.28-.88-2.29-.88s-1.84.42-2.44,1.25-.89,2.01-.89,3.53.31,2.66.94,3.42,1.43,1.14,2.4,1.14,1.75-.32,2.27-.97c.29-.35.53-.87.72-1.57h2.81c-.25,1.48-.87,2.68-1.88,3.61Z" style="fill:#fff;"/><path d="m863.27,478.74c.69-.88,1.88-1.32,3.57-1.32,1.1,0,2.07.22,2.93.65s1.28,1.26,1.28,2.46v4.6c0,.32,0,.71.02,1.16.02.34.07.58.16.7.09.12.21.22.39.3v.39h-2.85c-.08-.2-.13-.39-.17-.57-.03-.18-.06-.38-.07-.61-.36.39-.78.73-1.25,1-.56.33-1.2.49-1.91.49-.91,0-1.66-.26-2.25-.78-.59-.52-.89-1.25-.89-2.2,0-1.23.47-2.12,1.43-2.68.52-.3,1.29-.52,2.3-.64l.89-.11c.48-.06.83-.14,1.04-.23.37-.16.56-.41.56-.75,0-.41-.14-.69-.43-.85-.29-.16-.7-.23-1.26-.23-.62,0-1.06.15-1.32.46-.18.23-.31.53-.37.92h-2.53c.06-.88.3-1.6.74-2.16Zm1.95,7.05c.25.2.55.3.9.3.56,0,1.08-.17,1.56-.5.48-.33.72-.94.74-1.81v-.98c-.17.1-.33.19-.5.25s-.4.12-.69.18l-.59.11c-.55.1-.95.22-1.19.36-.41.24-.61.61-.61,1.11,0,.45.12.77.38.97Z" style="fill:#fff;"/><path d="m878.36,480.08c-1.05,0-1.76.34-2.12,1.03-.2.39-.3.98-.3,1.79v4.79h-2.64v-10.03h2.5v1.75c.4-.67.76-1.13,1.06-1.37.49-.41,1.13-.62,1.91-.62.05,0,.09,0,.12,0,.03,0,.11,0,.22.01v2.69c-.17-.02-.31-.03-.44-.04s-.23,0-.31,0Z" style="fill:#fff;"/><path d="m889.72,474.14v13.54h-2.55v-1.39c-.37.59-.8,1.03-1.28,1.3s-1.07.4-1.79.4c-1.17,0-2.16-.47-2.96-1.42-.8-.95-1.2-2.16-1.2-3.65,0-1.71.39-3.06,1.18-4.04s1.84-1.47,3.16-1.47c.61,0,1.15.13,1.62.4.47.27.86.64,1.15,1.11v-4.78h2.66Zm-7.07,8.59c0,.93.18,1.67.55,2.22.36.56.91.84,1.66.84s1.31-.28,1.69-.83c.39-.55.58-1.27.58-2.14,0-1.23-.31-2.1-.93-2.63-.38-.32-.82-.48-1.32-.48-.77,0-1.33.29-1.69.87-.36.58-.54,1.3-.54,2.16Z" style="fill:#fff;"/><path d="m903.55,488.06c-1.94,0-3.42-.53-4.44-1.58-1.37-1.29-2.06-3.16-2.06-5.59s.69-4.35,2.06-5.59c1.02-1.05,2.51-1.58,4.44-1.58s3.42.53,4.44,1.58c1.37,1.25,2.05,3.11,2.05,5.59s-.68,4.3-2.05,5.59c-1.02,1.05-2.5,1.58-4.44,1.58Zm2.68-3.64c.66-.83.98-2.01.98-3.53s-.33-2.7-.99-3.53-1.55-1.25-2.67-1.25-2.02.41-2.69,1.24c-.67.83-1,2.01-1,3.53s.33,2.71,1,3.53c.67.83,1.56,1.24,2.69,1.24s2.01-.41,2.68-1.24Z" style="fill:#fff;"/><path d="m916.75,479.6c-.89,0-1.5.38-1.83,1.13-.17.4-.26.91-.26,1.53v5.43h-2.61v-10.01h2.53v1.46c.34-.51.66-.89.96-1.11.54-.41,1.22-.61,2.05-.61,1.04,0,1.88.27,2.54.81.66.54.99,1.44.99,2.7v6.75h-2.69v-6.1c0-.53-.07-.93-.21-1.21-.26-.52-.75-.77-1.47-.77Z" style="fill:#fff;"/><path d="m923.44,474.12h2.62v13.56h-2.62v-13.56Z" style="fill:#fff;"/><path d="m932.52,485.05l2.07-7.4h2.79l-3.44,9.86c-.66,1.9-1.19,3.08-1.57,3.54-.39.46-1.16.68-2.32.68-.23,0-.42,0-.56,0-.14,0-.35-.01-.63-.03v-2.1l.33.02c.26.01.5,0,.74-.03.23-.03.43-.1.59-.21.15-.1.3-.32.43-.65s.19-.53.16-.61l-3.68-10.47h2.92l2.19,7.4Z" style="fill:#fff;"/><path d="m940.05,490.59l-.65.89h-1.94c.81-1.46,1.37-2.66,1.69-3.59.55-1.58.82-3.3.82-5.18,0-1.2-.1-2.31-.29-3.33-.3-1.55-.84-3.04-1.61-4.45l-.56-1.03h1.98c.93,1.3,1.64,2.51,2.12,3.64.72,1.66,1.08,3.32,1.08,5,0,1.85-.43,3.72-1.28,5.63-.48,1.07-.93,1.87-1.35,2.41Z" style="fill:#fff;"/><path d="m804.62,511.68l-1.57-7.3-1.59,7.3h-2.72l-2.82-10.03h2.82l1.56,7.19,1.44-7.19h2.66l1.53,7.22,1.56-7.22h2.73l-2.91,10.03h-2.7Z" style="fill:#fff;"/><path d="m820.05,508.74c-.07.6-.38,1.2-.93,1.81-.86.98-2.06,1.46-3.61,1.46-1.28,0-2.4-.41-3.38-1.23-.98-.82-1.46-2.16-1.46-4.01,0-1.74.44-3.07,1.32-3.99s2.02-1.39,3.43-1.39c.83,0,1.58.16,2.25.47.67.31,1.22.81,1.66,1.48.39.59.65,1.28.76,2.07.07.46.1,1.12.08,1.99h-6.86c.04,1.01.35,1.71.95,2.12.36.25.8.38,1.31.38.54,0,.98-.15,1.32-.46.18-.17.35-.4.49-.69h2.68Zm-2.59-3.07c-.04-.69-.25-1.22-.63-1.58-.38-.36-.85-.54-1.4-.54-.61,0-1.08.19-1.41.57-.33.38-.54.9-.63,1.55h4.08Z" style="fill:#fff;"/><path d="m830.68,508.74c-.07.6-.38,1.2-.93,1.81-.86.98-2.06,1.46-3.61,1.46-1.28,0-2.4-.41-3.38-1.23-.97-.82-1.46-2.16-1.46-4.01,0-1.74.44-3.07,1.32-3.99s2.02-1.39,3.43-1.39c.83,0,1.59.16,2.25.47.67.31,1.22.81,1.66,1.48.39.59.65,1.28.76,2.07.07.46.09,1.12.08,1.99h-6.86c.04,1.01.35,1.71.95,2.12.36.25.8.38,1.31.38.54,0,.98-.15,1.32-.46.18-.17.35-.4.49-.69h2.68Zm-2.59-3.07c-.04-.69-.25-1.22-.63-1.58-.38-.36-.84-.54-1.4-.54-.61,0-1.08.19-1.41.57-.33.38-.54.9-.63,1.55h4.08Z" style="fill:#fff;"/><path d="m841.78,511.68h-3.17l-2.4-4.29-1.08,1.13v3.16h-2.58v-13.51h2.58v7.3l3.27-3.77h3.25l-3.5,3.84,3.64,6.15Z" style="fill:#fff;"/><path d="m851.8,498.14v13.54h-2.55v-1.39c-.37.59-.8,1.03-1.28,1.3s-1.07.4-1.79.4c-1.17,0-2.16-.47-2.96-1.42-.8-.95-1.2-2.16-1.2-3.65,0-1.71.39-3.06,1.18-4.04s1.84-1.47,3.16-1.47c.61,0,1.15.13,1.62.4.47.27.86.64,1.15,1.11v-4.78h2.66Zm-7.07,8.59c0,.93.18,1.67.55,2.22.36.56.91.84,1.66.84s1.31-.28,1.69-.83c.39-.55.58-1.27.58-2.14,0-1.23-.31-2.1-.93-2.63-.38-.32-.82-.48-1.32-.48-.77,0-1.33.29-1.69.87-.36.58-.54,1.3-.54,2.16Z" style="fill:#fff;"/><path d="m854.59,502.74c.69-.88,1.88-1.32,3.57-1.32,1.1,0,2.07.22,2.93.65s1.28,1.26,1.28,2.46v4.6c0,.32,0,.71.02,1.16.02.34.07.58.16.7.08.12.21.22.39.3v.39h-2.85c-.08-.2-.13-.39-.17-.57-.03-.18-.05-.38-.07-.61-.36.39-.78.73-1.25,1-.56.33-1.2.49-1.91.49-.91,0-1.66-.26-2.25-.78-.59-.52-.89-1.25-.89-2.2,0-1.23.48-2.12,1.43-2.68.52-.3,1.29-.52,2.3-.64l.89-.11c.48-.06.83-.14,1.04-.23.37-.16.56-.41.56-.75,0-.41-.14-.69-.43-.85-.29-.16-.7-.23-1.26-.23-.62,0-1.06.15-1.32.46-.18.23-.31.53-.37.92h-2.53c.05-.88.3-1.6.74-2.16Zm1.95,7.05c.25.2.54.3.9.3.56,0,1.08-.17,1.56-.5.48-.33.72-.94.74-1.81v-.98c-.17.1-.33.19-.5.25-.17.06-.4.12-.69.18l-.59.11c-.55.1-.95.22-1.19.36-.4.24-.61.61-.61,1.11,0,.45.13.77.38.97Z" style="fill:#fff;"/><path d="m868.38,509.05l2.07-7.4h2.79l-3.44,9.86c-.66,1.9-1.19,3.08-1.57,3.54-.39.46-1.16.68-2.32.68-.23,0-.42,0-.56,0-.14,0-.35-.01-.63-.03v-2.1l.33.02c.26.01.5,0,.74-.03.23-.03.43-.1.59-.21.15-.1.3-.32.43-.65s.19-.53.16-.61l-3.68-10.47h2.92l2.19,7.4Z" style="fill:#fff;"/><path d="m887.09,502.63c-.7.99-1.28,2.02-1.76,3.07-.37.83-.71,1.84-1.01,3.04-.3,1.2-.45,2.18-.45,2.94h-2.72c.08-2.39.86-4.88,2.35-7.46.96-1.6,1.77-2.72,2.42-3.35h-6.65l.04-2.36h9.42v2.05c-.39.39-.94,1.07-1.64,2.06Z" style="fill:#fff;"/><path d="m890.29,504.79v-2.74h2.79v2.74h-2.79Zm2.79,4.15v2.74h-2.79v-2.74h2.79Z" style="fill:#fff;"/><path d="m897.93,501c-.29.39-.44.92-.42,1.57h-2.45c.02-.66.14-1.29.34-1.89.21-.52.55-1,1.01-1.44.34-.31.75-.55,1.22-.72.47-.17,1.05-.25,1.74-.25,1.28,0,2.3.33,3.09.99.78.66,1.17,1.54,1.17,2.65,0,.79-.23,1.45-.7,1.99-.29.34-.6.57-.92.69.24,0,.58.21,1.03.62.67.62,1,1.47,1,2.54,0,1.13-.39,2.12-1.17,2.98-.78.86-1.94,1.28-3.47,1.28-1.89,0-3.2-.62-3.94-1.85-.39-.66-.6-1.51-.64-2.58h2.58c0,.53.09.97.26,1.32.32.64.9.97,1.74.97.51,0,.96-.18,1.35-.53.38-.35.58-.86.58-1.52,0-.88-.36-1.46-1.07-1.76-.41-.17-1.04-.25-1.91-.25v-1.88c.85-.01,1.45-.09,1.78-.25.58-.26.87-.78.87-1.56,0-.51-.15-.92-.45-1.24s-.72-.48-1.26-.48c-.62,0-1.07.2-1.36.59Z" style="fill:#fff;"/><path d="m910.16,512.02c-1.7,0-2.89-.59-3.57-1.78-.68-1.19-1.03-2.89-1.03-5.09s.34-3.9,1.03-5.1c.68-1.2,1.88-1.79,3.57-1.79s2.89.6,3.58,1.79c.68,1.2,1.02,2.9,1.02,5.1s-.34,3.9-1.03,5.09c-.68,1.19-1.88,1.78-3.57,1.78Zm1.54-3.36c.24-.81.36-1.98.36-3.51s-.12-2.8-.36-3.57-.75-1.16-1.53-1.16-1.29.39-1.54,1.16c-.25.77-.38,1.96-.38,3.57s.13,2.71.38,3.52c.25.81.77,1.22,1.54,1.22s1.29-.41,1.54-1.22Z" style="fill:#fff;"/><path d="m924.3,506.16c.41,0,.73-.16.97-.47.24-.32.41-.7.52-1.15h1.56c-.17,1.14-.5,2.12-1.02,2.93-.51.82-1.2,1.22-2.08,1.22-.17,0-.35-.01-.54-.05-.37-.05-.8-.19-1.31-.4l-1.92-.73c-.18-.07-.4-.13-.65-.18-.26-.06-.45-.08-.57-.08-.35,0-.66.13-.93.4-.27.27-.46.67-.58,1.22h-1.59c.1-.73.25-1.36.45-1.89s.43-.96.71-1.3c.3-.36.61-.61.93-.75.32-.14.65-.22.98-.22.15,0,.34.02.58.06.38.06.73.15,1.06.28l2.14.83c.25.1.5.17.73.21.24.04.42.06.55.06Z" style="fill:#fff;"/><path d="m932.54,512.07c-1,0-1.9-.3-2.7-.89-.8-.59-1.25-1.46-1.37-2.59h2.61c.06.39.23.71.5.96.27.25.63.37,1.08.37.87,0,1.47-.48,1.82-1.43.19-.53.31-1.3.36-2.31-.24.3-.49.53-.76.69-.49.29-1.09.44-1.81.44-1.06,0-2-.37-2.82-1.1-.82-.73-1.23-1.79-1.23-3.17s.41-2.59,1.24-3.47c.83-.89,1.9-1.33,3.21-1.33,2.03,0,3.42.9,4.18,2.7.43,1.02.64,2.36.64,4.02s-.21,2.96-.62,4.04c-.79,2.05-2.23,3.08-4.32,3.08Zm-.92-11.27c-.5.39-.75,1.06-.75,2,0,.79.16,1.38.48,1.78s.82.59,1.49.59c.36,0,.7-.1,1.02-.31.59-.38.89-1.04.89-1.98,0-.75-.18-1.35-.53-1.79s-.84-.66-1.45-.66c-.45,0-.83.13-1.15.38Z" style="fill:#fff;"/><path d="m939.92,504.79v-2.74h2.79v2.74h-2.79Zm2.79,4.15v2.74h-2.79v-2.74h2.79Z" style="fill:#fff;"/><path d="m949.36,512.02c-1.7,0-2.89-.59-3.57-1.78-.68-1.19-1.03-2.89-1.03-5.09s.34-3.9,1.03-5.1c.68-1.2,1.88-1.79,3.57-1.79s2.89.6,3.58,1.79c.68,1.2,1.02,2.9,1.02,5.1s-.34,3.9-1.03,5.09c-.68,1.19-1.88,1.78-3.57,1.78Zm1.54-3.36c.24-.81.36-1.98.36-3.51s-.12-2.8-.36-3.57-.75-1.16-1.53-1.16-1.29.39-1.54,1.16c-.25.77-.38,1.96-.38,3.57s.13,2.71.38,3.52c.25.81.77,1.22,1.54,1.22s1.29-.41,1.54-1.22Z" style="fill:#fff;"/><path d="m960.2,512.02c-1.7,0-2.89-.59-3.57-1.78-.68-1.19-1.03-2.89-1.03-5.09s.34-3.9,1.03-5.1c.68-1.2,1.88-1.79,3.57-1.79s2.89.6,3.58,1.79c.68,1.2,1.02,2.9,1.02,5.1s-.34,3.9-1.03,5.09c-.68,1.19-1.88,1.78-3.57,1.78Zm1.54-3.36c.24-.81.36-1.98.36-3.51s-.12-2.8-.36-3.57-.75-1.16-1.53-1.16-1.29.39-1.55,1.16c-.25.77-.38,1.96-.38,3.57s.13,2.71.38,3.52c.25.81.77,1.22,1.55,1.22s1.29-.41,1.54-1.22Z" style="fill:#fff;"/><path d="m772.18,11.26c.04.73.21,1.32.5,1.78.56.85,1.54,1.28,2.95,1.28.63,0,1.2-.09,1.72-.28,1-.36,1.5-1.01,1.5-1.95,0-.7-.21-1.2-.64-1.5-.43-.29-1.1-.55-2.02-.76l-1.69-.39c-1.1-.26-1.89-.54-2.34-.85-.79-.54-1.19-1.34-1.19-2.41,0-1.16.39-2.11,1.17-2.85.78-.74,1.88-1.11,3.31-1.11,1.31,0,2.43.33,3.35.98.92.65,1.38,1.69,1.38,3.12h-1.64c-.08-.69-.26-1.22-.54-1.59-.51-.67-1.38-1.01-2.6-1.01-.99,0-1.7.22-2.13.65s-.65.94-.65,1.51c0,.63.25,1.09.76,1.38.33.19,1.09.42,2.27.7l1.75.41c.84.2,1.5.47,1.95.82.79.6,1.19,1.48,1.19,2.62,0,1.43-.51,2.45-1.52,3.06-1.01.61-2.19.92-3.53.92-1.56,0-2.78-.41-3.67-1.23-.88-.81-1.32-1.91-1.3-3.3h1.64Z" style="fill:gray;"/><path d="m782.92,3.41h1.6v2.62h1.5v1.29h-1.5v6.13c0,.33.11.55.33.66.12.06.33.1.61.1.08,0,.16,0,.25,0,.09,0,.19-.01.31-.03v1.25c-.18.05-.37.09-.57.11-.2.02-.41.04-.64.04-.74,0-1.24-.19-1.5-.57s-.39-.87-.39-1.47v-6.22h-1.27v-1.29h1.27v-2.62Z" style="fill:gray;"/><path d="m792.58,9.73c.36-.05.61-.2.73-.45.07-.14.11-.34.11-.61,0-.54-.19-.93-.57-1.17-.38-.24-.93-.37-1.64-.37-.82,0-1.41.22-1.75.67-.19.25-.32.61-.38,1.1h-1.47c.03-1.16.4-1.97,1.12-2.42s1.56-.68,2.51-.68c1.1,0,2,.21,2.69.63.68.42,1.02,1.08,1.02,1.96v5.41c0,.16.03.29.1.39.07.1.21.15.42.15.07,0,.15,0,.24-.01s.18-.02.28-.04v1.17c-.25.07-.43.11-.56.13-.13.02-.3.03-.53.03-.54,0-.94-.19-1.18-.58-.13-.2-.22-.49-.27-.87-.32.42-.78.79-1.39,1.1-.6.31-1.26.46-1.99.46-.87,0-1.58-.26-2.13-.79-.55-.53-.83-1.19-.83-1.98,0-.87.27-1.54.82-2.02.54-.48,1.26-.77,2.14-.88l2.52-.32Zm-3.32,4.26c.33.26.73.39,1.18.39.55,0,1.09-.13,1.61-.39.88-.43,1.32-1.12,1.32-2.09v-1.27c-.19.12-.44.23-.74.31-.3.08-.6.14-.89.18l-.95.12c-.57.08-1,.2-1.29.36-.49.27-.73.71-.73,1.31,0,.46.17.81.5,1.08Z" style="fill:gray;"/><path d="m797.57,3.41h1.6v2.62h1.5v1.29h-1.5v6.13c0,.33.11.55.33.66.12.06.33.1.61.1.08,0,.16,0,.25,0,.09,0,.19-.01.31-.03v1.25c-.18.05-.37.09-.57.11-.2.02-.41.04-.64.04-.74,0-1.24-.19-1.5-.57s-.39-.87-.39-1.47v-6.22h-1.27v-1.29h1.27v-2.62Z" style="fill:gray;"/><path d="m802.17,2.54h1.6v1.79h-1.6v-1.79Zm0,3.53h1.6v9.34h-1.6V6.07Z" style="fill:gray;"/><path d="m812.93,6.96c.83.81,1.25,1.99,1.25,3.56s-.37,2.76-1.1,3.75c-.73.99-1.87,1.48-3.4,1.48-1.28,0-2.3-.44-3.06-1.31-.75-.87-1.13-2.04-1.13-3.52,0-1.58.4-2.83,1.19-3.77.79-.93,1.86-1.4,3.2-1.4,1.2,0,2.22.4,3.05,1.21Zm-.98,6.24c.38-.79.58-1.67.58-2.64,0-.88-.14-1.59-.42-2.14-.44-.86-1.2-1.3-2.27-1.3-.95,0-1.65.37-2.08,1.1-.43.74-.65,1.62-.65,2.66s.22,1.83.65,2.5c.43.67,1.12,1,2.06,1,1.03,0,1.74-.4,2.13-1.19Z" style="fill:gray;"/><path d="m815.99,6.03h1.5v1.33c.44-.55.91-.94,1.41-1.18.5-.24,1.05-.36,1.66-.36,1.33,0,2.23.46,2.7,1.39.26.51.39,1.24.39,2.18v6.02h-1.6v-5.92c0-.57-.08-1.04-.25-1.39-.28-.58-.79-.88-1.53-.88-.38,0-.68.04-.92.11-.43.13-.81.39-1.14.77-.26.31-.43.63-.51.96s-.12.8-.12,1.42v4.92h-1.58V6.03Z" style="fill:gray;"/><path d="m831.66,6.29c.62.31,1.09.72,1.42,1.21.31.47.52,1.03.63,1.66.09.43.14,1.12.14,2.07h-6.83c.03.96.25,1.72.67,2.3.42.58,1.06.87,1.94.87.82,0,1.47-.27,1.96-.82.27-.32.47-.68.58-1.1h1.55c-.04.34-.18.73-.41,1.15-.23.42-.49.77-.77,1.04-.48.47-1.06.78-1.77.95-.38.09-.8.14-1.28.14-1.16,0-2.15-.42-2.95-1.28s-1.21-2.04-1.21-3.57.41-2.73,1.22-3.67c.81-.94,1.88-1.41,3.19-1.41.66,0,1.3.16,1.92.47Zm.57,3.69c-.06-.68-.21-1.23-.44-1.64-.43-.76-1.14-1.14-2.15-1.14-.72,0-1.32.26-1.81.78-.49.52-.75,1.19-.77,1.99h5.17Z" style="fill:gray;"/><path d="m835.72,6.03h1.5v1.62c.12-.32.42-.7.9-1.15.48-.45,1.03-.68,1.66-.68.03,0,.08,0,.15,0,.07,0,.19.02.36.04v1.67c-.09-.02-.18-.03-.26-.04s-.17,0-.26,0c-.79,0-1.41.26-1.83.77-.43.51-.64,1.1-.64,1.77v5.4h-1.58V6.03Z" style="fill:gray;"/><path d="m847.95,6.03h1.74c-.22.6-.72,1.98-1.48,4.12-.57,1.61-1.05,2.93-1.44,3.95-.91,2.39-1.55,3.85-1.93,4.38-.37.53-1.02.79-1.93.79-.22,0-.39,0-.51-.03s-.27-.05-.44-.1v-1.44c.27.08.47.12.59.14.12.02.23.03.32.03.29,0,.51-.05.64-.14.14-.1.25-.21.35-.35.03-.05.13-.29.31-.72s.31-.75.39-.96l-3.47-9.67h1.79l2.52,7.65,2.53-7.65Z" style="fill:gray;"/><path d="m798.11,22.93c.85,1.14,1.28,2.6,1.28,4.37,0,1.92-.49,3.52-1.46,4.8-1.15,1.5-2.78,2.24-4.9,2.24-1.98,0-3.54-.65-4.67-1.96-1.01-1.26-1.52-2.86-1.52-4.79,0-1.74.43-3.23,1.3-4.47,1.11-1.59,2.75-2.38,4.93-2.38s3.96.73,5.05,2.19Zm-1.54,8.21c.69-1.1,1.03-2.37,1.03-3.8,0-1.52-.4-2.73-1.19-3.66-.79-.92-1.87-1.39-3.25-1.39s-2.42.46-3.26,1.37c-.84.92-1.26,2.26-1.26,4.05,0,1.43.36,2.63,1.08,3.61s1.89,1.47,3.51,1.47,2.65-.55,3.34-1.65Z" style="fill:gray;"/><path d="m802.13,21.71c.37-.54,1.08-.81,2.13-.81.1,0,.2,0,.31,0s.22.01.36.03v1.44c-.17-.01-.29-.02-.36-.02-.07,0-.14,0-.21,0-.48,0-.77.12-.87.37s-.14.88-.14,1.9h1.58v1.24h-1.58v8.1h-1.56v-8.1h-1.31v-1.24h1.31v-1.47c.02-.65.14-1.13.34-1.44Z" style="fill:gray;"/><path d="m807.47,21.71c.37-.54,1.08-.81,2.13-.81.1,0,.2,0,.31,0s.22.01.36.03v1.44c-.17-.01-.29-.02-.36-.02-.07,0-.14,0-.21,0-.48,0-.77.12-.87.37s-.14.88-.14,1.9h1.58v1.24h-1.58v8.1h-1.56v-8.1h-1.31v-1.24h1.31v-1.47c.02-.65.14-1.13.34-1.44Z" style="fill:gray;"/><path d="m811.61,21.08h1.6v1.79h-1.6v-1.79Zm0,3.53h1.6v9.34h-1.6v-9.34Z" style="fill:gray;"/><path d="m821.77,25.07c.66.51,1.06,1.4,1.2,2.66h-1.53c-.09-.58-.31-1.06-.64-1.44s-.87-.57-1.6-.57c-1,0-1.72.49-2.16,1.47-.28.64-.42,1.42-.42,2.36s.2,1.73.6,2.37c.4.64,1.02.96,1.88.96.66,0,1.17-.2,1.56-.6.38-.4.65-.94.79-1.64h1.53c-.17,1.24-.61,2.16-1.31,2.73-.7.58-1.6.86-2.69.86-1.23,0-2.21-.45-2.94-1.35-.73-.9-1.1-2.02-1.1-3.36,0-1.65.4-2.93,1.2-3.85.8-.92,1.82-1.38,3.06-1.38,1.06,0,1.92.26,2.58.77Z" style="fill:gray;"/><path d="m830.41,24.83c.62.31,1.09.72,1.42,1.21.31.47.52,1.03.63,1.66.09.43.14,1.12.14,2.07h-6.83c.03.96.25,1.72.67,2.3.42.58,1.06.87,1.94.87.82,0,1.47-.27,1.96-.82.27-.32.47-.68.58-1.1h1.55c-.04.34-.18.73-.41,1.15-.23.42-.49.77-.77,1.04-.48.47-1.06.78-1.77.95-.38.09-.8.14-1.28.14-1.16,0-2.15-.42-2.95-1.28-.81-.85-1.21-2.04-1.21-3.57s.41-2.73,1.22-3.67c.81-.94,1.88-1.41,3.19-1.41.66,0,1.3.16,1.93.47Zm.57,3.69c-.06-.68-.21-1.23-.44-1.64-.43-.76-1.14-1.14-2.15-1.14-.72,0-1.32.26-1.81.78-.49.52-.74,1.19-.77,1.99h5.17Z" style="fill:gray;"/><path d="m915.23,104.58h5.57c1.52,0,2.6.45,3.24,1.35.38.53.56,1.15.56,1.84,0,.81-.23,1.48-.69,2-.24.28-.58.53-1.03.75.66.25,1.15.54,1.48.85.58.56.87,1.34.87,2.32,0,.83-.26,1.58-.79,2.25-.78,1-2.03,1.51-3.73,1.51h-5.48v-12.88Zm4.92,5.44c.74,0,1.32-.1,1.74-.31.65-.32.97-.9.97-1.74s-.35-1.41-1.04-1.7c-.39-.16-.97-.25-1.74-.25h-3.15v3.99h3.21Zm.59,5.94c1.08,0,1.85-.31,2.31-.93.29-.39.43-.86.43-1.42,0-.93-.42-1.57-1.27-1.91-.45-.18-1.04-.27-1.78-.27h-3.5v4.53h3.8Z" style="fill:gray;"/><path d="m927.03,104.58h1.6v1.79h-1.6v-1.79Zm0,3.53h1.6v9.34h-1.6v-9.34Z" style="fill:gray;"/><path d="m937.19,108.57c.66.51,1.06,1.4,1.2,2.66h-1.53c-.09-.58-.31-1.06-.64-1.44s-.87-.57-1.6-.57c-1,0-1.72.49-2.16,1.47-.28.64-.42,1.42-.42,2.36s.2,1.73.6,2.37c.4.64,1.02.96,1.88.96.66,0,1.17-.2,1.56-.6.38-.4.65-.94.79-1.64h1.53c-.17,1.24-.61,2.16-1.31,2.73-.7.58-1.6.86-2.69.86-1.23,0-2.21-.45-2.94-1.35-.73-.9-1.1-2.02-1.1-3.36,0-1.65.4-2.93,1.2-3.85.8-.92,1.82-1.38,3.06-1.38,1.06,0,1.92.26,2.58.77Z" style="fill:gray;"/><path d="m945.74,108.07h1.75c-.22.6-.72,1.98-1.48,4.12-.57,1.61-1.05,2.93-1.44,3.95-.91,2.39-1.55,3.85-1.93,4.38-.37.53-1.02.79-1.93.79-.22,0-.39,0-.51-.03-.12-.02-.27-.05-.44-.1v-1.44c.27.08.47.12.59.14.12.02.23.03.32.03.29,0,.51-.05.64-.14.14-.1.25-.21.35-.35.03-.05.13-.29.32-.72s.31-.75.39-.96l-3.47-9.67h1.79l2.52,7.65,2.53-7.65Z" style="fill:gray;"/><path d="m954.72,108.57c.66.51,1.06,1.4,1.2,2.66h-1.53c-.09-.58-.31-1.06-.64-1.44-.33-.38-.87-.57-1.6-.57-1.01,0-1.72.49-2.16,1.47-.28.64-.42,1.42-.42,2.36s.2,1.73.6,2.37c.4.64,1.02.96,1.88.96.65,0,1.17-.2,1.56-.6.38-.4.65-.94.79-1.64h1.53c-.18,1.24-.61,2.16-1.32,2.73-.7.58-1.6.86-2.69.86-1.23,0-2.21-.45-2.94-1.35-.73-.9-1.1-2.02-1.1-3.36,0-1.65.4-2.93,1.2-3.85.8-.92,1.82-1.38,3.06-1.38,1.06,0,1.92.26,2.58.77Z" style="fill:gray;"/><path d="m957.57,104.58h1.58v12.88h-1.58v-12.88Z" style="fill:gray;"/><path d="m967.23,108.32c.62.31,1.09.72,1.42,1.21.31.47.52,1.03.63,1.66.09.43.14,1.12.14,2.07h-6.83c.03.96.25,1.72.67,2.3.42.58,1.06.87,1.94.87.82,0,1.47-.27,1.96-.82.27-.32.47-.68.58-1.1h1.55c-.04.34-.18.73-.41,1.15-.23.42-.49.77-.77,1.04-.48.47-1.06.78-1.77.95-.38.09-.8.14-1.28.14-1.16,0-2.15-.42-2.95-1.28-.81-.85-1.21-2.04-1.21-3.57s.41-2.73,1.22-3.67c.81-.94,1.88-1.41,3.19-1.41.66,0,1.3.16,1.93.47Zm.57,3.69c-.06-.68-.21-1.23-.44-1.64-.43-.76-1.14-1.14-2.15-1.14-.72,0-1.32.26-1.81.78-.49.52-.74,1.19-.77,1.99h5.17Z" style="fill:gray;"/><path d="m913.65,123.12h5.76c1.14,0,2.06.32,2.76.97.7.65,1.05,1.55,1.05,2.72,0,1.01-.31,1.88-.94,2.63-.63.75-1.58,1.12-2.87,1.12h-4.02v5.44h-1.74v-12.88Zm6.77,1.77c-.38-.18-.91-.27-1.58-.27h-3.45v4.46h3.45c.78,0,1.41-.17,1.89-.5.48-.33.73-.92.73-1.76,0-.95-.35-1.59-1.04-1.93Z" style="fill:gray;"/><path d="m929.71,130.32c.36-.05.6-.2.73-.45.07-.14.1-.34.1-.61,0-.54-.19-.93-.57-1.17-.38-.24-.93-.37-1.64-.37-.82,0-1.41.22-1.75.67-.19.25-.32.61-.38,1.1h-1.47c.03-1.16.4-1.97,1.12-2.42s1.56-.68,2.51-.68c1.1,0,2,.21,2.69.63.68.42,1.02,1.08,1.02,1.96v5.41c0,.16.03.29.1.39.07.1.21.15.42.15.07,0,.15,0,.24-.01.09,0,.18-.02.28-.04v1.17c-.25.07-.43.11-.56.13-.13.02-.3.03-.53.03-.54,0-.94-.19-1.18-.58-.13-.2-.22-.49-.27-.87-.32.42-.78.79-1.38,1.1-.6.31-1.27.46-1.99.46-.87,0-1.58-.26-2.13-.79-.55-.53-.83-1.19-.83-1.98,0-.87.27-1.54.82-2.02.54-.48,1.26-.77,2.14-.88l2.52-.32Zm-3.32,4.26c.33.26.73.39,1.18.39.56,0,1.09-.13,1.61-.39.88-.43,1.31-1.12,1.31-2.09v-1.27c-.19.12-.44.23-.74.31-.3.08-.6.14-.89.18l-.95.12c-.57.08-1,.2-1.29.36-.49.27-.73.71-.73,1.31,0,.46.17.81.5,1.08Z" style="fill:gray;"/><path d="m934.57,126.61h1.5v1.62c.12-.32.42-.7.9-1.15.48-.45,1.03-.68,1.66-.68.03,0,.08,0,.15,0s.19.02.36.04v1.67c-.09-.02-.18-.03-.26-.04-.08,0-.17,0-.26,0-.79,0-1.41.26-1.83.77-.43.51-.64,1.1-.64,1.77v5.4h-1.58v-9.39Z" style="fill:gray;"/><path d="m940.42,123.12h1.52v7.48l4.05-3.99h2.02l-3.61,3.49,3.81,5.9h-2.02l-2.95-4.78-1.3,1.25v3.52h-1.52v-12.88Z" style="fill:gray;"/><path d="m949.43,123.12h1.6v1.79h-1.6v-1.79Zm0,3.53h1.6v9.34h-1.6v-9.34Z" style="fill:gray;"/><path d="m953.27,126.61h1.5v1.33c.44-.55.92-.94,1.41-1.18.5-.24,1.05-.36,1.66-.36,1.33,0,2.23.46,2.7,1.39.26.51.39,1.24.39,2.18v6.02h-1.6v-5.92c0-.57-.08-1.04-.25-1.39-.28-.58-.79-.88-1.53-.88-.37,0-.68.04-.92.11-.43.13-.81.39-1.14.77-.26.31-.43.63-.51.96s-.12.8-.12,1.42v4.92h-1.58v-9.39Z" style="fill:gray;"/><path d="m968.44,126.99c.3.2.6.5.91.89v-1.18h1.46v8.54c0,1.19-.17,2.13-.52,2.82-.65,1.27-1.88,1.91-3.7,1.91-1.01,0-1.86-.23-2.54-.68s-1.07-1.16-1.15-2.13h1.6c.08.42.23.75.45.97.35.35.91.53,1.67.53,1.2,0,1.99-.43,2.36-1.28.22-.5.32-1.4.31-2.69-.31.48-.69.84-1.14,1.07-.44.23-1.03.35-1.75.35-1.01,0-1.9-.36-2.66-1.08s-1.14-1.92-1.14-3.58c0-1.57.38-2.8,1.15-3.68.77-.88,1.69-1.32,2.77-1.32.73,0,1.37.18,1.92.54Zm.19,1.69c-.48-.56-1.08-.84-1.82-.84-1.11,0-1.86.52-2.27,1.56-.22.56-.32,1.28-.32,2.18,0,1.06.21,1.86.64,2.42.43.55,1,.83,1.72.83,1.13,0,1.92-.51,2.38-1.53.26-.58.38-1.25.38-2.03,0-1.16-.24-2.02-.72-2.59Z" style="fill:gray;"/><path d="m855.48,371.85h5.57c1.52,0,2.6.45,3.24,1.35.38.53.57,1.15.57,1.84,0,.81-.23,1.48-.69,2-.24.28-.58.53-1.04.75.66.25,1.15.54,1.48.85.58.56.87,1.34.87,2.32,0,.83-.26,1.58-.79,2.25-.78,1-2.03,1.51-3.73,1.51h-5.48v-12.88Zm4.92,5.44c.74,0,1.32-.1,1.74-.31.65-.32.97-.9.97-1.74s-.34-1.41-1.04-1.7c-.39-.16-.97-.25-1.74-.25h-3.14v3.99h3.21Zm.59,5.94c1.08,0,1.85-.31,2.31-.93.29-.39.43-.86.43-1.42,0-.93-.42-1.57-1.27-1.91-.45-.18-1.04-.27-1.78-.27h-3.5v4.53h3.8Z" style="fill:gray;"/><path d="m867.28,371.85h1.6v1.79h-1.6v-1.79Zm0,3.53h1.6v9.34h-1.6v-9.34Z" style="fill:gray;"/><path d="m877.44,375.84c.66.51,1.06,1.4,1.2,2.66h-1.53c-.09-.58-.31-1.06-.64-1.44-.33-.38-.87-.57-1.6-.57-1.01,0-1.72.49-2.16,1.47-.28.64-.42,1.42-.42,2.36s.2,1.73.6,2.37c.4.64,1.02.96,1.88.96.65,0,1.17-.2,1.56-.6.38-.4.65-.94.79-1.64h1.53c-.18,1.24-.61,2.16-1.32,2.73-.7.58-1.6.86-2.69.86-1.23,0-2.21-.45-2.94-1.35-.73-.9-1.1-2.02-1.1-3.36,0-1.65.4-2.93,1.2-3.85.8-.92,1.82-1.38,3.06-1.38,1.06,0,1.92.26,2.58.77Z" style="fill:gray;"/><path d="m885.98,375.34h1.74c-.22.6-.72,1.98-1.48,4.12-.57,1.61-1.05,2.93-1.44,3.95-.91,2.39-1.55,3.85-1.93,4.38-.37.53-1.02.79-1.93.79-.22,0-.39,0-.51-.03s-.27-.05-.44-.1v-1.44c.27.08.47.12.59.14.12.02.23.03.32.03.29,0,.51-.05.64-.14.14-.1.25-.21.35-.35.03-.05.13-.29.31-.72s.31-.75.39-.96l-3.47-9.67h1.79l2.52,7.65,2.53-7.65Z" style="fill:gray;"/><path d="m894.96,375.84c.66.51,1.06,1.4,1.2,2.66h-1.53c-.09-.58-.31-1.06-.64-1.44s-.87-.57-1.6-.57c-1,0-1.72.49-2.16,1.47-.28.64-.42,1.42-.42,2.36s.2,1.73.6,2.37c.4.64,1.02.96,1.88.96.66,0,1.17-.2,1.56-.6.38-.4.65-.94.79-1.64h1.53c-.17,1.24-.61,2.16-1.31,2.73-.7.58-1.6.86-2.69.86-1.23,0-2.21-.45-2.94-1.35-.73-.9-1.1-2.02-1.1-3.36,0-1.65.4-2.93,1.2-3.85.8-.92,1.82-1.38,3.06-1.38,1.06,0,1.92.26,2.58.77Z" style="fill:gray;"/><path d="m897.81,371.85h1.58v12.88h-1.58v-12.88Z" style="fill:gray;"/><path d="m907.48,375.6c.62.31,1.09.72,1.42,1.21.31.47.52,1.03.63,1.66.09.43.14,1.12.14,2.07h-6.83c.03.96.25,1.72.67,2.3.42.58,1.06.87,1.94.87.82,0,1.47-.27,1.96-.82.27-.32.47-.68.58-1.1h1.55c-.04.34-.18.73-.41,1.15-.23.42-.49.77-.77,1.04-.48.47-1.06.78-1.77.95-.38.09-.8.14-1.28.14-1.16,0-2.15-.42-2.95-1.28s-1.21-2.04-1.21-3.57.41-2.73,1.22-3.67c.81-.94,1.88-1.41,3.19-1.41.66,0,1.3.16,1.92.47Zm.57,3.69c-.06-.68-.21-1.23-.44-1.64-.43-.76-1.14-1.14-2.15-1.14-.72,0-1.32.26-1.81.78-.49.52-.75,1.19-.77,1.99h5.17Z" style="fill:gray;"/><path d="m917.03,371.85h5.76c1.14,0,2.06.32,2.76.97.7.65,1.05,1.55,1.05,2.72,0,1.01-.31,1.88-.94,2.63-.63.75-1.58,1.12-2.87,1.12h-4.02v5.44h-1.74v-12.88Zm6.77,1.77c-.38-.18-.91-.27-1.58-.27h-3.45v4.46h3.45c.78,0,1.41-.17,1.89-.5.48-.33.73-.92.73-1.76,0-.95-.35-1.59-1.04-1.93Z" style="fill:gray;"/><path d="m933.09,379.05c.36-.05.6-.2.73-.45.07-.14.1-.34.1-.61,0-.54-.19-.93-.57-1.17-.38-.24-.93-.37-1.64-.37-.82,0-1.41.22-1.75.67-.19.25-.32.61-.38,1.1h-1.47c.03-1.16.4-1.97,1.12-2.42s1.56-.68,2.51-.68c1.1,0,2,.21,2.69.63.68.42,1.02,1.08,1.02,1.96v5.41c0,.16.03.29.1.39.07.1.21.15.42.15.07,0,.15,0,.24-.01.09,0,.18-.02.28-.04v1.17c-.25.07-.43.11-.56.13-.13.02-.3.03-.53.03-.54,0-.94-.19-1.18-.58-.13-.2-.22-.49-.27-.87-.32.42-.78.79-1.38,1.1-.6.31-1.27.46-1.99.46-.87,0-1.58-.26-2.13-.79-.55-.53-.83-1.19-.83-1.98,0-.87.27-1.54.82-2.02.54-.48,1.26-.77,2.14-.88l2.52-.32Zm-3.32,4.26c.33.26.73.39,1.18.39.56,0,1.09-.13,1.61-.39.88-.43,1.31-1.12,1.31-2.09v-1.27c-.19.12-.44.23-.74.31-.3.08-.6.14-.89.18l-.95.12c-.57.08-1,.2-1.29.36-.49.27-.73.71-.73,1.31,0,.46.17.81.5,1.08Z" style="fill:gray;"/><path d="m937.95,375.34h1.5v1.62c.12-.32.42-.7.9-1.15.48-.45,1.03-.68,1.66-.68.03,0,.08,0,.15,0s.19.02.36.04v1.67c-.09-.02-.18-.03-.26-.04-.08,0-.17,0-.26,0-.79,0-1.41.26-1.83.77-.43.51-.64,1.1-.64,1.77v5.4h-1.58v-9.39Z" style="fill:gray;"/><path d="m943.8,371.85h1.52v7.48l4.05-3.99h2.02l-3.61,3.49,3.81,5.9h-2.02l-2.95-4.78-1.3,1.25v3.52h-1.52v-12.88Z" style="fill:gray;"/><path d="m952.81,371.85h1.6v1.79h-1.6v-1.79Zm0,3.53h1.6v9.34h-1.6v-9.34Z" style="fill:gray;"/><path d="m956.65,375.34h1.5v1.33c.44-.55.91-.94,1.41-1.18.5-.24,1.05-.36,1.66-.36,1.33,0,2.23.46,2.7,1.39.26.51.39,1.24.39,2.18v6.02h-1.6v-5.92c0-.57-.08-1.04-.25-1.39-.28-.58-.79-.88-1.53-.88-.38,0-.68.04-.92.11-.43.13-.81.39-1.14.77-.26.31-.43.63-.51.96s-.12.8-.12,1.42v4.92h-1.58v-9.39Z" style="fill:gray;"/><path d="m971.82,375.72c.3.2.6.5.91.89v-1.18h1.46v8.54c0,1.19-.17,2.13-.52,2.82-.65,1.27-1.88,1.91-3.7,1.91-1.01,0-1.86-.23-2.54-.68s-1.07-1.16-1.15-2.13h1.6c.08.42.23.75.45.97.35.35.91.53,1.67.53,1.2,0,1.99-.43,2.36-1.28.22-.5.32-1.4.31-2.69-.31.48-.69.84-1.14,1.07-.44.23-1.03.35-1.75.35-1.01,0-1.9-.36-2.66-1.08s-1.14-1.92-1.14-3.58c0-1.57.38-2.8,1.15-3.68.77-.88,1.69-1.32,2.77-1.32.73,0,1.37.18,1.92.54Zm.19,1.69c-.48-.56-1.08-.84-1.82-.84-1.11,0-1.86.52-2.27,1.56-.22.56-.32,1.28-.32,2.18,0,1.06.21,1.86.64,2.42.43.55,1,.83,1.72.83,1.13,0,1.92-.51,2.38-1.53.26-.58.38-1.25.38-2.03,0-1.16-.24-2.02-.72-2.59Z" style="fill:gray;"/></g></svg>