<?xml version="1.0" encoding="UTF-8"?><svg id="_レイヤー_2" xmlns="http://www.w3.org/2000/svg" width="1032.6" height="455.58" viewBox="0 0 1032.6 455.58"><g id="_レイヤー_2-2"><rect x="542.71" y="22.01" width="184.46" height="69.38" style="fill:#f2f2f2;"/><rect x="275.52" y="246.81" width="452.38" height="83.93" style="fill:#f2f2f2;"/><polygon points="242.53 383.81 242.53 180.55 424.74 180.55 424.74 191.15 844.92 191.15 844.92 98.39 473.91 98.39 452.23 98.39 424.16 98.39 424.16 20.92 242.53 20.92 241.75 20.92 204.05 20.92 204.05 383.81 12.53 383.81 12.53 455.58 1032.6 455.58 1032.6 383.81 242.53 383.81" style="fill:#f2f2f2;"/><rect x="272.52" y="243.81" width="452.38" height="83.93" style="fill:#dbf1de;"/><rect x="272.52" y="243.81" width="452.38" height="83.93" style="fill:none; stroke:#545454; stroke-miterlimit:10; stroke-width:.5px;"/><path d="m67.82,329.78c0,.12-.02.14-.14.14-.09,0-.58-.04-2.12-.04h-.54c.7,1.02,1.42,1.56,2.59,2.24-.14.14-.3.33-.42.61-.07.14-.1.21-.16.21s-.12-.05-.25-.16c-.86-.63-1.52-1.33-2.14-2.34.04,2.82.12,4.48.12,5.21,0,.12-.02.14-.16.14h-.79c-.12,0-.14-.02-.14-.14,0-.72.05-2.29.1-5-.72,1.4-1.61,2.5-2.98,3.61-.12.09-.19.14-.26.14s-.1-.07-.17-.21c-.12-.26-.31-.51-.47-.65,1.54-1.03,2.64-2.14,3.5-3.66h-.89c-1.54,0-2.05.04-2.14.04-.12,0-.14-.02-.14-.14v-.7c0-.12.02-.14.14-.14.09,0,.6.04,2.14.04h1.23v-.04c0-.82-.02-1.24-.1-1.64.37.02.77.05,1.07.09.11.02.18.07.18.14,0,.1-.04.17-.07.25-.05.12-.09.33-.09,1.17v.04h.84c1.54,0,2.03-.04,2.12-.04.12,0,.14.02.14.14v.7Zm.3-2.94c0,.12-.02.14-.14.14-.1,0-.61-.04-2.17-.04h-3.38c-1.58,0-2.08.04-2.17.04-.12,0-.14-.02-.14-.14v-.72c0-.12.02-.14.14-.14.09,0,.6.03,2.17.03h2.31c.39-.77.61-1.4.81-2,.09-.26.14-.47.16-.75.38.09.67.16.94.25.16.05.21.12.21.21s-.05.14-.12.21c-.09.09-.17.19-.26.4-.23.58-.46,1.07-.77,1.68h.1c1.52,0,2.03-.03,2.17-.03.12,0,.14.02.14.14v.72Zm-.28-4.13c0,.12-.02.14-.14.14-.09,0-.58-.04-2.08-.04h-2.91c-1.5,0-2,.04-2.08.04-.12,0-.14-.02-.14-.14v-.68c0-.12.02-.14.14-.14.09,0,.58.04,2.08.04h1.02v-.54c0-.44-.02-.88-.12-1.26.46.02.79.04,1.14.09.14.02.23.07.23.14,0,.12-.05.21-.1.31-.09.16-.09.3-.09.72v.54h.84c1.51,0,2-.04,2.08-.04.12,0,.14.02.14.14v.68Zm-5.48.63c.14-.05.18-.03.25.07.33.56.58,1.16.75,1.73.03.12.02.18-.16.25l-.44.17c-.23.07-.28.07-.31-.09-.18-.63-.37-1.19-.67-1.75-.07-.12-.05-.16.17-.25l.4-.14Zm13.6,3.52c0,.12-.02.14-.14.14-.09,0-.58-.04-2.12-.04h-.09v6.18c0,1.89.04,2.52.04,2.61,0,.14-.02.14-.14.14h-.86c-.12,0-.14,0-.14-.14,0-.09.03-.72.03-2.61v-6.18h-2.61c0,1.86-.05,3.64-.44,5.13-.3,1.14-.68,2.14-1.79,3.47-.1.14-.18.19-.25.19s-.12-.04-.23-.14c-.18-.18-.4-.3-.67-.4,1.12-1.17,1.68-2.38,2-3.67.28-1.17.35-2.71.35-4.92v-2.15c0-.96-.04-1.71-.12-2.47.42.09.72.18,1.14.35,1.44-.38,2.61-.89,3.48-1.37.35-.19.63-.4.88-.63.28.23.56.52.77.79.07.09.1.16.1.25,0,.07-.09.14-.23.16-.19.02-.38.09-.65.21-1.17.58-2.68,1.14-4.36,1.57v2.7h3.76c1.54,0,2.03-.03,2.12-.03.12,0,.14.02.14.14v.74Z" style="fill:gray;"/><path d="m85.06,326.64c0,.12-.02.14-.14.14-.09,0-.56-.04-2.06-.04h-2.98c-1.49,0-2,.04-2.08.04-.1,0-.12-.02-.12-.14v-.61c0-.12.02-.14.12-.14.09,0,.6.04,2.08.04h1.17v-1.23h-.53c-1.26,0-1.66.04-1.75.04-.12,0-.14-.02-.14-.14v-.6c0-.1.02-.12.14-.12.09,0,.49.04,1.75.04h.53v-1.16h-.77c-1.42,0-1.86.04-1.96.04-.12,0-.14-.02-.14-.14v-.61c0-.12.02-.14.14-.14.1,0,.54.04,1.96.04h.77v-.05c0-.93-.02-1.4-.12-1.87.42.02.73.05,1.07.11.14.02.23.09.23.14,0,.14-.07.21-.12.33-.07.19-.09.49-.09,1.29v.05h.77c1.42,0,1.86-.04,1.96-.04s.12.02.12.14v.61c0,.12-.02.14-.12.14s-.54-.04-1.96-.04h-.77v1.16h.47c1.28,0,1.66-.04,1.77-.04.12,0,.14.02.14.12v.6c0,.12-.02.14-.14.14-.1,0-.49-.04-1.77-.04h-.47v1.23h.84c1.5,0,1.98-.04,2.06-.04.12,0,.14.02.14.14v.61Zm-2.59,1.19c1.24,0,1.65-.04,1.73-.04.12,0,.14.02.14.14,0,.09-.03.7-.03,2.05v2.13c0,.89.02,1.84.02,2.21,0,.46-.07.84-.37,1.07-.31.21-.56.3-1.68.3-.35,0-.37.02-.46-.35-.05-.23-.16-.46-.26-.65.39.04.7.07,1.12.07.58,0,.68-.17.68-.65v-1.31h-3.62v.96c0,1.31.02,1.87.02,1.96,0,.11,0,.12-.12.12h-.73c-.12,0-.14-.02-.14-.12s.04-.58.04-1.92v-3.9c0-1.35-.04-1.86-.04-1.96,0-.12.02-.14.14-.14.1,0,.51.04,1.73.04h1.84Zm.89.84h-3.62v1.24h3.62v-1.24Zm0,2.06h-3.62v1.24h3.62v-1.24Zm10.17-2.49c0,.12-.02.14-.12.14-.07,0-.38-.02-1.14-.04v1.71c0,1.28.03,1.72.03,1.82s-.02.12-.14.12h-.7c-.12,0-.14-.02-.14-.12v-.68h-2.08v.37c0,.75.02,1.77.02,2.38,0,.79-.09,1.12-.44,1.4-.26.23-.79.31-1.92.3-.35,0-.35.02-.44-.35-.07-.26-.18-.49-.33-.7.37.05.75.07,1.28.07.65,0,.86-.14.86-.84v-2.63h-.44c-1.47,0-1.94.04-2.03.04-.12,0-.14-.02-.14-.14v-.65c0-.12.02-.14.14-.14.09,0,.56.04,2.03.04h.44v-2h-.8c-1.61,0-2.15.04-2.24.04-.12,0-.14-.02-.14-.14v-.67c0-.12.02-.14.14-.14.09,0,.63.04,2.24.04h.8v-1.93h-.28c-1.38,0-1.79.04-1.87.04-.12,0-.14-.02-.14-.12v-.67c0-.12.02-.14.14-.14.09,0,.49.04,1.87.04h.65c.46-.63.86-1.35,1.19-2.1h-2.26c-.51.79-1.07,1.49-1.87,2.28-.12.12-.17.17-.24.17-.05,0-.1-.05-.23-.17-.18-.18-.33-.28-.54-.39,1.19-1.01,2-2.1,2.61-3.34.21-.44.35-.82.39-1.1.37.09.67.16.94.26.12.04.19.09.19.17s-.05.16-.16.25c-.09.07-.21.28-.4.67l-.21.38h1.98c.17,0,.16-.02.23-.05.07-.04.1-.05.16-.05.12,0,.23.05.49.28s.31.33.31.42c0,.1-.05.19-.17.26-.12.07-.25.24-.33.4-.3.59-.65,1.14-1,1.66h.54c1.38,0,1.84-.04,1.93-.04.12,0,.14.02.14.14,0,.09-.03.52-.03,1.82v.86c.75,0,1.07-.04,1.14-.04.11,0,.12.02.12.14v.67Zm-2.21-2.7h-2.08v1.93h2.08v-1.93Zm0,2.8h-2.08v2h2.08v-2Z" style="fill:gray;"/><path d="m107.21,321.08c1.75,0,2.35-.03,2.45-.03.12,0,.14.02.14.14,0,.09-.03,1.19-.03,3.55v6.69c0,1.4.02,2.24.02,2.8,0,.51-.09.88-.42,1.16-.26.21-.75.33-2.1.33-.33,0-.35,0-.42-.33-.07-.28-.21-.61-.35-.82.51.05,1.07.07,1.56.07.46,0,.65-.19.65-.7v-11.87h-11.5v10.41c0,2.19.04,3.17.04,3.25,0,.12-.02.14-.14.14h-.86c-.12,0-.14-.02-.14-.14,0-.1.03-1.1.03-3.5v-7.51c0-2.42-.03-3.45-.03-3.54,0-.12.02-.14.14-.14.1,0,.7.03,2.45.03h8.52Zm.61,5.74c0,.12-.02.14-.16.14-.09,0-.65-.04-2.31-.04h-1.98v4.9h2.4v-1.49c0-.82,0-1.29-.12-1.77.42.02.84.05,1.09.09.12.02.19.07.19.16s-.02.16-.07.25c-.07.12-.11.33-.11,1.29v1.73c0,.82.04,1.17.04,1.26,0,.12-.02.14-.14.14h-.73c-.12,0-.14-.02-.14-.14v-.65h-5.65v1.08c0,.12-.02.14-.14.14h-.73c-.12,0-.14-.02-.14-.14,0-.11.03-.46.03-1.37v-2.03c0-.93-.02-1.33-.1-1.79.37.02.79.05,1.07.1.14.02.21.07.21.12,0,.12-.05.21-.1.33-.07.16-.09.4-.09,1.23v1.43h2.27v-4.9h-1.84c-1.7,0-2.24.04-2.35.04-.12,0-.14-.02-.14-.14v-.68c0-.12.02-.14.14-.14.1,0,.65.03,2.35.03h2.98c.53-.91.89-1.63,1.23-2.4.1-.25.19-.53.28-.89.33.11.68.25.96.4.12.07.18.11.18.21,0,.09-.09.16-.16.21-.09.07-.17.18-.3.42-.28.56-.68,1.31-1.14,2.05h.77c1.66,0,2.22-.03,2.31-.03.14,0,.16.02.16.14v.68Zm-7.46-3.92c.17-.09.19-.1.28,0,.46.61.84,1.3,1.17,2.01.05.12.02.16-.19.26l-.42.21c-.23.12-.26.12-.31,0-.3-.7-.63-1.37-1.08-2.01-.07-.1-.05-.14.14-.25l.42-.23Z" style="fill:gray;"/><path d="m128.11,324.26c0,.12-.02.14-.14.14-.09,0-.63-.04-2.27-.04h-6.23c-.03.98-.1,1.86-.21,2.68h4.41c1.49,0,1.96-.04,2.05-.04.12,0,.17.05.16.19-.04.4-.05.82-.09,1.23-.18,2.61-.39,4.27-.63,5.29-.33,1.35-.91,1.8-2.17,1.8-.33,0-1.03-.04-1.68-.11q-.33-.03-.37-.4c-.04-.3-.12-.63-.25-.82,1.02.17,1.82.21,2.22.21.67,0,.98-.37,1.15-1.07.26-1.03.47-2.94.6-5.25h-5.55c-.63,3.52-2.13,5.65-5.37,7.47-.12.07-.21.1-.26.1-.1,0-.16-.09-.28-.28-.16-.23-.38-.4-.63-.56,4.2-2.07,5.65-4.67,5.74-10.45h-3.08c-1.63,0-2.19.04-2.28.04-.12,0-.14-.02-.14-.14v-.8c0-.12.02-.14.14-.14.09,0,.65.04,2.28.04h4.52v-1.35c0-.89-.02-1.38-.12-1.8.42,0,.88.04,1.21.09.14.02.21.07.21.14,0,.12-.05.21-.1.33-.07.17-.09.44-.09,1.22v1.37h4.85c1.65,0,2.19-.04,2.27-.04.12,0,.14.02.14.14v.8Z" style="fill:gray;"/><path d="m145.52,321.92c0,.1-.02.12-.14.12-.1,0-.65-.04-2.29-.04h-4.85c-.26.88-.63,1.8-1.08,2.66h5.01c1.75,0,2.35-.03,2.45-.03.12,0,.14.02.14.14,0,.11-.04.77-.04,3.2v3.04c0,3.87.04,4.5.04,4.6,0,.12-.02.14-.14.14h-.82c-.12,0-.14-.02-.14-.14v-.86h-11.5v.88c0,.12-.02.14-.14.14h-.81c-.12,0-.14-.02-.14-.14,0-.1.04-.73.04-4.62v-2.73c0-2.75-.04-3.41-.04-3.52,0-.12.02-.14.14-.14.1,0,.7.03,2.45.03h2.38c.42-.79.8-1.79,1.07-2.66h-4.38c-1.65,0-2.21.04-2.29.04-.12,0-.14-.02-.14-.12v-.79c0-.12.02-.14.14-.14.09,0,.65.04,2.29.04h10.36c1.65,0,2.19-.04,2.29-.04.12,0,.14.02.14.14v.79Zm-10.43,3.67h-2.94v8.23h2.94v-8.23Zm4.59,0h-3.59v2.1h3.59v-2.1Zm0,2.98h-3.59v2.15h3.59v-2.15Zm0,3.03h-3.59v2.22h3.59v-2.22Zm3.97-6h-2.96v8.23h2.96v-8.23Z" style="fill:gray;"/><polygon points="13.29 328.97 30 319.32 30 325.2 49.52 325.2 49.52 332.74 30 332.74 30 338.62 13.29 328.97" style="fill:gray;"/><rect x="9.53" y="380.81" width="1020.07" height="71.77" style="fill:#e6e6e6;"/><path d="m466.93,416.23c0,5.49.04,6.53.04,6.64,0,.12-.02.14-.15.14h-.89c-.13,0-.15-.02-.15-.14v-1.02h-12.31v1.02c0,.12-.02.14-.15.14h-.87c-.13,0-.15-.02-.15-.14,0-.11.04-1.12.04-6.64v-3.59c0-3.58-.04-4.66-.04-4.74,0-.12.02-.14.15-.14.11,0,.74.04,2.57.04h9.22c1.83,0,2.46-.04,2.57-.04.13,0,.15.02.15.14,0,.09-.04,1.16-.04,4.23v4.1Zm-1.15-7.44h-12.31v12.09h12.31v-12.09Zm-1.02,10.2c0,.12-.02.14-.15.14-.11,0-.69-.04-2.5-.04h-4.96c-1.81,0-2.39.04-2.48.04-.15,0-.17-.02-.17-.14v-.71c0-.12.02-.14.17-.14.09,0,.67.04,2.48.04h1.81v-3.19h-1.06c-1.63,0-2.15.04-2.26.04-.13,0-.15-.02-.15-.14v-.68c0-.12.02-.14.15-.14.11,0,.63.04,2.26.04h1.06v-2.68h-1.52c-1.78,0-2.35.04-2.44.04-.13,0-.15-.02-.15-.14v-.7c0-.12.02-.14.15-.14.09,0,.67.04,2.44.04h4.44c1.78,0,2.35-.04,2.44-.04.13,0,.15.02.15.14v.7c0,.12-.02.14-.15.14-.09,0-.67-.04-2.44-.04h-1.83v2.68h1.3c1.61,0,2.15-.04,2.24-.04.13,0,.15.02.15.14v.68c0,.12-.02.14-.15.14-.09,0-.63-.04-2.24-.04h-1.3v3.19h2.05c1.81,0,2.39-.04,2.5-.04.13,0,.15.02.15.14v.71Zm-2.79-3.48c.17-.12.17-.09.3.02.52.46.96,1,1.43,1.71.07.11.07.12-.11.25l-.37.25c-.09.07-.17.11-.2.11-.06,0-.09-.05-.13-.12-.37-.64-.85-1.23-1.35-1.75-.09-.11-.06-.12.13-.25l.31-.21Z" style="fill:gray;"/><path d="m473.8,419.24c.35.89.78,1.39,1.61,1.77.65.3,1.92.45,3.68.45,2.37,0,5.03-.12,7.77-.39-.19.23-.3.55-.33.86q-.07.38-.44.39c-2.41.14-4.68.21-6.55.21-2.04,0-3.72-.16-4.55-.57-.83-.39-1.39-1.02-1.78-1.78-.59.62-1.28,1.2-1.98,1.77-.2.18-.3.27-.37.37-.07.11-.15.16-.22.16s-.13-.04-.22-.14c-.2-.27-.43-.64-.59-.98.43-.16.8-.38,1.17-.64.57-.41,1.22-.91,1.74-1.46v-4.41h-1.37c-.96,0-1.2.04-1.28.04-.15,0-.17-.02-.17-.14v-.78c0-.12.02-.14.17-.14.07,0,.31.04,1.28.04h1c.96,0,1.24-.04,1.33-.04.13,0,.15.02.15.14,0,.09-.04.55-.04,1.66v3.64Zm-2.54-11.58c.19-.12.2-.14.31-.04.76.71,1.46,1.53,2.11,2.5.07.11.06.12-.13.27l-.46.36c-.22.16-.26.16-.35.02-.57-.91-1.33-1.89-2.04-2.55-.11-.09-.09-.12.11-.25l.44-.3Zm14.81,2.43c0,.14-.02.16-.15.16-.11,0-.74-.04-2.59-.04h-2.68c-.2.5-.41,1.02-.63,1.48h2.02c1.67,0,2.24-.04,2.33-.04.13,0,.15.02.15.14,0,.09-.04.59-.04,1.98v4.1c0,1.39.04,1.87.04,1.96,0,.12-.02.14-.15.14-.09,0-.67-.04-2.33-.04h-3.46c-1.65,0-2.24.04-2.33.04-.13,0-.15-.02-.15-.14,0-.09.04-.57.04-1.96v-4.1c0-1.39-.04-1.89-.04-1.98,0-.12.02-.14.15-.14.09,0,.68.04,2.33.04h.35c.24-.48.43-.96.57-1.48h-2.05c-1.92,0-2.55.04-2.65.04-.13,0-.15-.02-.15-.16v-.68c0-.14.02-.16.15-.16.09,0,.72.04,2.65.04h3.72c.35-.54.63-1.02.89-1.59.11-.23.2-.46.26-.79.37.07.72.14,1.06.27.11.04.19.11.19.2,0,.11-.07.16-.17.23-.09.07-.19.21-.28.36-.2.34-.54.86-.89,1.32h1.11c1.85,0,2.48-.04,2.59-.04.13,0,.15.02.15.16v.68Zm-8.42-3.09c.17-.05.22-.07.31.02.37.37.8.98,1.09,1.53.07.12.02.16-.13.23l-.56.27c-.24.11-.26.12-.33-.02-.24-.54-.59-1.09-1.04-1.61-.09-.11-.07-.18.15-.25l.5-.18Zm5.77,5.55h-6.24v1.55h6.24v-1.55Zm0,2.39h-6.24v1.57h6.24v-1.57Zm0,2.41h-6.24v1.71h6.24v-1.71Z" style="fill:gray;"/><path d="m493.55,420.17h2.52v1.2h-6.68v-1.2h2.68v-10.31c-.7.46-1.63.91-2.67,1.28l-.26-1.3c1.13-.36,2.2-.91,3.15-1.53h1.26v11.86Z" style="fill:gray;"/><path d="m515.04,414.84c0,.12-.02.14-.15.14-.09,0-.67-.04-2.42-.04h-7.31c-.28.64-.57,1.28-.93,1.89h5.63c1.7,0,2.28-.04,2.37-.04.15,0,.2.05.19.18-.07.61-.17,1.18-.26,1.78-.13.86-.3,1.64-.56,2.5-.33,1.09-1.07,1.46-2.17,1.46-.67,0-1.33-.02-1.94-.05-.37-.02-.37-.04-.46-.39-.07-.29-.19-.55-.33-.77,1.09.11,1.85.16,2.67.16.46,0,.94-.18,1.17-.89.2-.7.37-1.52.57-2.98h-7.46c-.26.39-.54.77-.83,1.12-.07.09-.11.11-.33.05l-.63-.14c-.3-.09-.31-.11-.22-.23.89-1.03,1.74-2.43,2.28-3.66h-2.35c-1.76,0-2.33.04-2.42.04-.13,0-.15-.02-.15-.14v-.79c0-.12.02-.14.15-.14.09,0,.67.04,2.42.04h10.92c1.76,0,2.33-.04,2.42-.04.13,0,.15.02.15.14v.79Zm-2.98-3.98c0,1.02.04,1.36.04,1.46s-.02.12-.15.12c-.11,0-.72-.04-2.54-.04h-4.92c-1.81,0-2.44.04-2.54.04-.13,0-.15-.02-.15-.12s.04-.45.04-1.46v-1.61c0-1-.04-1.34-.04-1.45,0-.12.02-.14.15-.14.09,0,.72.04,2.54.04h4.92c1.81,0,2.42-.04,2.54-.04.13,0,.15.02.15.14,0,.11-.04.45-.04,1.45v1.61Zm-1.09-2.21h-8.03v2.82h8.03v-2.82Z" style="fill:gray;"/><path d="m522.65,412.66c.17-.07.22-.05.28.05.57,1.04.91,1.89,1.22,2.89.04.11.02.18-.19.23l-.43.12c-.24.07-.28.05-.33-.11l-.17-.57c-.57.07-1.11.12-1.65.18v4.78c0,1.94.04,2.5.04,2.59,0,.12-.02.14-.15.14h-.83c-.13,0-.15-.02-.15-.14,0-.09.04-.64.04-2.59v-4.69c-.65.05-1.28.11-1.89.14-.41.04-.56.09-.7.14-.09.04-.15.07-.22.07-.09,0-.17-.09-.19-.21-.06-.27-.09-.55-.15-.98.41.04.72.05,1.18.04h.19c.48-.61.94-1.21,1.37-1.82-.85-1.02-1.74-1.94-2.7-2.8-.11-.11-.09-.14.06-.32l.3-.37c.13-.16.19-.16.28-.07.26.23.5.45.72.68.46-.68.87-1.36,1.24-2.07.3-.59.41-.86.48-1.14.35.12.7.29.98.45.13.07.19.12.19.21s-.06.14-.15.2c-.13.09-.2.18-.31.38-.65,1.03-1.13,1.78-1.74,2.64.43.43.83.87,1.26,1.36.5-.73.94-1.48,1.41-2.25.26-.45.42-.79.54-1.18.35.14.72.3,1,.45.11.05.17.12.17.21,0,.11-.06.16-.17.23-.19.14-.33.34-.63.8-1.04,1.59-2.07,3.07-3.09,4.37.96-.04,1.94-.11,3.02-.2-.18-.5-.39-.96-.67-1.46-.06-.11-.04-.14.19-.23l.37-.14Zm-3.37,4.87c-.06.11-.11.36-.17.68-.15.98-.39,2-.81,3.21-.06.2-.09.27-.17.27-.06,0-.13-.05-.28-.14-.15-.11-.46-.23-.63-.27.54-1.2.78-2.27.91-3.23.06-.45.07-.75.06-1.09.39.05.76.12.93.18s.26.11.26.18c0,.09-.04.12-.09.21Zm3.46-.71c.19-.05.2-.05.26.07.33.77.57,1.8.76,2.73.02.12.02.14-.24.23l-.39.14c-.26.09-.28.09-.3-.07-.13-.98-.37-1.98-.67-2.76-.04-.12-.04-.16.2-.23l.37-.11Zm3.54-.68c.19,0,.32-.04.35-.05.07-.04.11-.05.15-.05.11,0,.19.04.46.3.3.25.35.36.35.45,0,.11-.04.16-.15.23-.11.07-.2.18-.33.48-.54,1.48-1.44,2.91-3.2,4.3-.13.11-.2.16-.28.16s-.15-.09-.28-.25c-.15-.18-.33-.32-.54-.43,1.85-1.18,2.94-2.76,3.48-4.23h-.94c-.78,0-1.17.04-1.26.04-.13,0-.15-.02-.15-.14v-.7c0-.12.02-.14.15-.14.09,0,.44.04,1.35.04h.83Zm2.81-1.62c.39,1.11.81,2.09,1.35,2.96.67-.57,1.22-1.14,1.65-1.64.18-.23.35-.45.48-.7.3.16.55.34.76.52.11.09.18.14.18.25s-.09.16-.2.21c-.2.11-.37.23-.7.59-.44.46-.98.95-1.67,1.5.78,1.04,1.76,1.93,3.11,2.76-.22.16-.39.38-.54.62-.11.18-.17.25-.24.25s-.15-.05-.26-.14c-1.87-1.52-3.02-2.92-4-5.42.05,1.96.13,3.28.13,4.98,0,.52-.11.91-.57,1.19-.33.18-.69.25-1.83.23-.35,0-.33.02-.44-.36-.07-.27-.18-.48-.35-.68.46.04,1.09.05,1.33.05.65,0,.81-.18.81-.66v-6.53h-.94c-1.57,0-2.11.04-2.22.04-.13,0-.15-.02-.15-.14,0-.11.04-.5.04-1.66v-2.37c0-1.16-.04-1.57-.04-1.66,0-.12.02-.14.15-.14.11,0,.65.04,2.22.04h.46c.15-.34.26-.62.35-.93.11-.36.19-.61.22-1.02.37.05.76.12,1.04.18.19.04.24.11.24.2s-.05.14-.15.23c-.11.11-.19.21-.24.36-.15.39-.28.7-.41.98h1.54c1.57,0,2.09-.04,2.2-.04.13,0,.15.02.15.14,0,.09-.04.5-.04,1.66v2.37c0,1.16.04,1.57.04,1.66,0,.12-.02.14-.15.14-.11,0-.63-.04-2.2-.04h-1.11Zm2.37-5.07h-5.61v1.62h5.61v-1.62Zm0,2.46h-5.61v1.75h5.61v-1.75Z" style="fill:gray;"/><line x1="9.53" y1="380.81" x2="1029.6" y2="380.81" style="fill:none; stroke:#545454; stroke-miterlimit:10; stroke-width:.56px;"/><rect y="68.89" width="129.59" height="88.34" style="fill:#e6e6e6;"/><path d="m41.42,97.8c-.06.38-.1.8-.12,1.19-.05,1.34-.14,4.15-.14,5.92,0,1.31.84,1.76,1.94,1.76,2.18,0,3.42-1.22,4.27-2.46l.66.83c-.8,1.13-2.34,2.61-4.95,2.61-1.7,0-2.88-.72-2.88-2.65,0-1.76.12-4.76.12-6.02,0-.43-.04-.85-.11-1.2h1.21Z" style="fill:gray;"/><path d="m56.59,99.28c1.45,0,2.91.01,3.48.01v.9c-.68-.04-1.75-.06-3.49-.06h-.16c0,.68.01,1.4.02,1.95.24.41.37.92.37,1.51,0,1.61-.77,3.39-3.54,4.22l-.82-.8c1.55-.36,2.64-1,3.13-2.05-.28.2-.62.3-1.01.3-1,0-1.96-.71-1.96-2,0-1.18.97-2.08,2.1-2.08.29,0,.55.05.79.13v-1.17c-1.82.01-3.84.1-5.31.2l-.04-.94c1.33-.02,3.55-.1,5.33-.12-.01-.34-.01-.61-.02-.78-.01-.24-.05-.6-.08-.74h1.1c-.02.13-.06.6-.06.74,0,.18-.01.46-.01.77h.17Zm-.82,3.45c-.19-.52-.58-.73-1.04-.73-.62,0-1.2.48-1.2,1.25s.55,1.17,1.2,1.17c.71,0,1.16-.56,1.04-1.69Zm2.59-3.49c-.25-.48-.58-1.06-.88-1.48l.66-.28c.29.4.66,1.01.9,1.45l-.68.3Zm1.46-.32c-.25-.49-.58-1.04-.89-1.45l.67-.29c.28.41.65.97.9,1.44l-.68.3Z" style="fill:gray;"/><path d="m63.44,99.08c.78-.07,3.02-.3,5.21-.48,1.29-.11,2.41-.17,3.2-.2v.96c-.67,0-1.72.01-2.33.19-1.69.54-2.71,2.34-2.71,3.74,0,2.33,2.16,3.06,4.09,3.13l-.35,1c-2.19-.08-4.7-1.26-4.7-3.91,0-1.86,1.12-3.36,2.21-4.01-1.04.12-4.28.43-5.56.7l-.11-1.06c.46-.01.83-.04,1.06-.06Z" style="fill:gray;"/><path d="m75.55,100.49c1.01-.31,3.33-1.18,5.07-1.18,1.97,0,3.54,1.14,3.54,3.13,0,2.85-2.83,4.23-6.5,4.44l-.42-1c3.11-.08,5.86-1.02,5.86-3.45,0-1.25-.9-2.22-2.51-2.22-1.95,0-4.98,1.31-5.91,1.68l-.44-1.06c.43-.08.86-.22,1.31-.35Z" style="fill:gray;"/><path d="m23.61,123.29l-.55.84c-.6-.43-1.89-1.27-2.63-1.64l.54-.82c.71.38,2.11,1.25,2.64,1.62Zm1.39,2.87c1.99-1.14,3.57-2.71,4.55-4.4l.58,1c-1.04,1.61-2.7,3.15-4.62,4.28-1.2.71-2.85,1.26-3.97,1.49l-.55-.97c1.32-.23,2.81-.71,4.02-1.39Zm.38-5.49l-.56.83c-.58-.44-1.88-1.31-2.58-1.71l.54-.8c.71.4,2.09,1.32,2.6,1.69Zm3.63.35l-.68.31c-.3-.64-.7-1.34-1.09-1.88l.66-.29c.3.43.84,1.3,1.12,1.86Zm1.61-.6l-.68.31c-.32-.64-.74-1.32-1.14-1.86l.67-.29c.32.42.85,1.28,1.15,1.83Z" style="fill:gray;"/><path d="m41.69,122.4c-.5,1.02-1.74,2.7-2.55,3.5l-.85-.42c.74-.65,1.65-1.75,2.06-2.47-.28.05-1.98.38-3.63.72.48,1.73,1.07,3.85,1.22,4.37.07.23.19.6.26.82l-1.02.26c-.04-.26-.1-.58-.18-.86-.16-.54-.73-2.67-1.2-4.39-1.13.23-2.11.42-2.43.49l-.24-.91c.34-.02.64-.07,1-.13.17-.02.73-.13,1.46-.26-.18-.64-.32-1.15-.4-1.38-.08-.3-.18-.54-.28-.72l1.02-.25c.04.2.1.47.17.77l.38,1.42c1.7-.32,3.74-.72,4.15-.82.14-.04.34-.08.46-.14l.6.42Z" style="fill:gray;"/><path d="m52.91,120.08c-.07.1-.23.36-.3.53-.41,1.03-1.16,2.43-2.02,3.51,1.26,1.08,2.72,2.64,3.5,3.57l-.84.73c-.8-1.06-2.07-2.47-3.3-3.56-1.28,1.38-2.9,2.7-4.68,3.5l-.77-.8c1.93-.75,3.71-2.18,4.94-3.56.82-.92,1.69-2.35,1.99-3.33h-4.68c-.42,0-1.08.05-1.21.06v-1.09c.17.02.85.08,1.21.08h4.63c.4,0,.71-.05.9-.11l.61.47Z" style="fill:gray;"/><path d="m65.07,125.02c-1.31-.71-3.38-1.51-4.71-1.93v3.96c.01.38.04,1.02.08,1.42h-1.15c.05-.38.07-.97.07-1.42v-6.98c0-.34-.02-.88-.1-1.25h1.18c-.04.37-.08.89-.08,1.25v1.95c1.58.48,3.85,1.34,5.12,1.98l-.41,1.02Z" style="fill:gray;"/><path d="m77.85,122.33c-.06.11-.13.26-.16.35-.32,1.19-.86,2.43-1.75,3.41-1.26,1.38-2.77,2.09-4.29,2.51l-.74-.85c1.7-.35,3.2-1.13,4.22-2.2.73-.77,1.21-1.79,1.43-2.65h-6.37c-.29,0-.74.01-1.16.04v-1.01c.43.05.84.07,1.16.07h6.32c.28,0,.53-.02.66-.1l.68.43Zm-7.76-3.17c.31.05.7.06,1.08.06h4.71c.38,0,.8-.01,1.09-.06v1c-.29-.02-.7-.04-1.1-.04h-4.7c-.37,0-.76.01-1.08.04v-1Z" style="fill:gray;"/><path d="m89.64,119.45c-.83.84-1.98,1.82-3.21,2.6v5.13c0,.46.02,1.04.07,1.28h-1.18c.04-.23.07-.83.07-1.28v-4.53c-1.28.71-2.94,1.4-4.51,1.87l-.55-.94c2-.47,4.04-1.38,5.36-2.21,1.22-.75,2.48-1.8,3.15-2.65l.79.72Z" style="fill:gray;"/><path d="m97.81,125.6c1.85-1.16,3.31-2.94,4.01-4.41l.58,1.02c-.83,1.5-2.22,3.13-4.03,4.26-1.2.77-2.71,1.5-4.71,1.87l-.64-.98c2.1-.31,3.66-1.04,4.8-1.75Zm-.71-3.8l-.76.76c-.6-.62-2.1-1.91-2.99-2.51l.68-.73c.85.56,2.39,1.81,3.06,2.48Z" style="fill:gray;"/><rect x="539.71" y="17.92" width="184.46" height="70.48" style="fill:#e6e6e6;"/><rect x="539.71" y="17.92" width="184.46" height="70.48" style="fill:none; stroke:#545454; stroke-miterlimit:10; stroke-width:.5px;"/><path d="m604.16,55.96c.21.05.21.07.19.21-.09,1.31-.21,2.49-.75,3.68-.05.12-.09.1-.28,0l-.33-.19c-.21-.12-.21-.18-.16-.3.44-.96.65-2.08.75-3.41.02-.16.04-.14.26-.07l.32.09Zm5.74-8.86c0,.12-.02.14-.14.14-.09,0-.51-.04-1.72-.04h-.63v1.7h.05c1.26,0,1.63-.04,1.71-.04.12,0,.14.02.14.14v.59c0,.12-.02.14-.14.14-.09,0-.46-.04-1.71-.04h-.05v1.7h.05c1.26,0,1.63-.03,1.71-.03.12,0,.14.02.14.14v.59c0,.12-.02.14-.14.14-.09,0-.46-.04-1.71-.04h-.05v1.84h.63c1.17,0,1.52-.04,1.63-.04s.16.04.14.16c-.02.33-.04.67-.05,1-.07,2.83-.37,4.43-.67,5.11-.3.61-.88.96-1.52.96-.3,0-.61-.02-.91-.03-.23-.02-.21-.02-.3-.37-.04-.25-.12-.49-.23-.7.54.07.98.11,1.28.11.4,0,.65-.19.82-.51.28-.49.51-2.03.58-4.87h-3.13c-1.29,0-1.73.04-1.87.04-.12,0-.14-.02-.14-.16,0-.09.04-.67.04-2.1v-4.1c0-1.43-.04-2.01-.04-2.12,0-.12.02-.14.14-.14.14,0,.58.04,1.87.04h2.36c1.21,0,1.63-.04,1.72-.04.12,0,.14.02.14.14v.67Zm-3.4.1h-1.86v1.7h1.86v-1.7Zm0,2.5h-1.86v1.7h1.86v-1.7Zm0,2.5h-1.86v1.84h1.86v-1.84Zm-1.28,3.75c.17-.04.21-.05.23.07.19,1,.28,1.82.33,2.76.02.18,0,.21-.17.26l-.33.11q-.23.07-.23-.09c0-1.07-.09-1.91-.28-2.87-.02-.14,0-.14.21-.19l.25-.05Zm1.17-.14c.17-.07.19-.05.23.07.23.67.4,1.52.52,2.33.02.12,0,.17-.19.25l-.21.07c-.23.07-.23.1-.25-.05-.09-.86-.25-1.7-.47-2.4-.04-.12,0-.12.17-.19l.19-.07Zm1.07-.19c.16-.05.17-.05.23.05.28.56.52,1.24.61,1.75.02.11.02.14-.12.19l-.21.09c-.19.09-.23.09-.25-.04-.14-.63-.28-1.17-.6-1.79-.05-.12-.04-.12.14-.19l.19-.07Zm11.39,5c0,.14-.02.16-.14.16-.09,0-.63-.04-2.28-.04h-4.08c-1.66,0-2.21.04-2.29.04-.12,0-.14-.02-.14-.16v-.75c0-.12.02-.14.14-.14.09,0,.63.04,2.29.04h1.29v-4.71h-.59c-1.44,0-1.89.04-1.98.04-.12,0-.14-.02-.14-.14v-.77c0-.11.02-.12.14-.12.09,0,.54.03,1.98.03h.59v-3.83h-.93c-1.58,0-2.08.04-2.17.04-.12,0-.14-.02-.14-.14v-.75c0-.12.02-.14.14-.14.09,0,.59.04,2.17.04h3.33c1.58,0,2.08-.04,2.19-.04.12,0,.14.02.14.14v.75c0,.12-.02.14-.14.14-.11,0-.61-.04-2.19-.04h-1.33v3.83h.95c1.44,0,1.89-.03,2-.03.12,0,.14.02.14.12v.77c0,.12-.02.14-.14.14-.1,0-.56-.04-2-.04h-.95v4.71h1.72c1.64,0,2.19-.04,2.28-.04.12,0,.14.02.14.14v.75Zm-5.99-14.82q.16-.14.28-.07c.84.54,1.68,1.28,2.42,2.03.1.1.1.14-.07.31l-.47.47c-.14.14-.17.16-.26.05-.7-.86-1.56-1.56-2.42-2.14-.09-.07-.11-.09.07-.25l.46-.42Z" style="fill:gray;"/><path d="m627.51,48.52c0,.12-.02.14-.14.14-.1,0-.58-.04-2.12-.04h-.44v1.49h.16c1.33,0,1.79-.04,1.87-.04.12,0,.14.02.14.14,0,.09-.04.51-.04,1.64v2.38c0,1.14.04,1.56.04,1.64,0,.12-.02.14-.14.14-.09,0-.54-.04-1.87-.04h-.16v1.52h.4c1.54,0,2.03-.04,2.12-.04.12,0,.14.02.14.14v.67c0,.12-.02.14-.14.14-.09,0-.58-.04-2.12-.04h-.4c0,1.94.03,2.84.03,2.92,0,.12-.02.14-.14.14h-.72c-.12,0-.14-.02-.14-.14,0-.09.04-.98.04-2.92h-.61c-1.52,0-2.03.04-2.12.04-.12,0-.14-.02-.14-.14v-.67c0-.12.02-.14.14-.14.09,0,.59.04,2.12.04h.61v-1.52h-.11c-1.33,0-1.82.04-1.91.04-.12,0-.14-.02-.14-.14,0-.1.04-.51.04-1.64v-2.38c0-1.14-.04-1.56-.04-1.64,0-.12.02-.14.14-.14.09,0,.58.04,1.91.04h.11v-1.49h-.51c-1.5,0-2.01.04-2.1.04-.12,0-.14-.02-.14-.14v-.67c0-.12.02-.14.14-.14.09,0,.6.04,2.1.04h.51c0-1.02-.02-1.49-.12-2.05.42.02.7.04,1.03.09.14.02.21.07.21.16,0,.07-.05.17-.09.28-.05.18-.1.54-.1,1.49v.04h.44c1.54,0,2.01-.04,2.12-.04.12,0,.14.02.14.14v.67Zm-3.61,2.38h-1.28v1.7h1.28v-1.7Zm0,2.47h-1.28v1.84h1.28v-1.84Zm2.21-2.47h-1.31v1.7h1.31v-1.7Zm0,2.47h-1.31v1.84h1.31v-1.84Zm6.44-7.14c1.29,2.05,2.64,3.33,4.83,4.52-.23.21-.37.39-.49.63-.09.17-.14.26-.21.26s-.14-.05-.26-.14c-1.94-1.28-3.13-2.5-4.39-4.53-1.14,2.05-2.45,3.54-3.99,4.76-.12.09-.19.14-.25.14s-.1-.07-.21-.23c-.16-.21-.33-.37-.52-.49,1.75-1.24,3.18-2.84,4.13-4.64.17-.35.28-.61.37-.93.37.05.67.12,1.01.21.14.04.23.11.23.19,0,.07-.05.16-.16.21l-.09.03Zm1.33,6.81c1.59,0,2.14-.04,2.24-.04.12,0,.14.02.14.14,0,.09-.04.72-.04,2.08v2.28c0,.96.02,1.8.02,2.28,0,.58-.07.91-.37,1.14-.25.21-.61.28-1.28.28q-.33,0-.42-.32c-.07-.3-.16-.47-.26-.65.32.02.49.04.84.04.42,0,.56-.09.56-.54v-2.66h-1.63v1.7c0,1.31.04,1.85.04,1.94,0,.12-.02.14-.14.14h-.65c-.12,0-.14-.02-.14-.14,0-.11.04-.63.04-1.94v-1.7h-1.47v1.71c0,1.31.04,1.86.04,1.94,0,.12-.02.14-.14.14h-.65c-.12,0-.14-.02-.14-.14,0-.11.04-.63.04-1.94v-1.71h-1.43v2.17c0,1.35.03,1.89.03,1.98,0,.12-.02.14-.14.14h-.68c-.14,0-.16-.02-.16-.14,0-.09.04-.58.04-1.94v-4.13c0-1.38-.04-1.91-.04-2,0-.12.02-.14.16-.14.09,0,.61.04,2.21.04h3.4Zm-3.38.84h-1.43v2.35h1.43v-2.35Zm4.11-2.62c0,.12-.02.14-.14.14-.11,0-.42-.03-1.56-.03h-1.47c-1.14,0-1.45.03-1.54.03-.14,0-.16-.02-.16-.14v-.67c0-.12.02-.14.16-.14.09,0,.4.04,1.54.04h1.47c1.14,0,1.45-.04,1.56-.04.12,0,.14.02.14.14v.67Zm-1.79,2.62h-1.47v2.35h1.47v-2.35Zm2.49,0h-1.63v2.35h1.63v-2.35Z" style="fill:gray;"/><path d="m642.68,55.75c.65-.3,1.28-.63,1.91-1-.04.18-.04.42-.05.67q0,.37-.3.53c-1.08.61-2.43,1.24-3.59,1.71-.37.16-.58.25-.63.3-.07.07-.14.11-.23.11-.07,0-.12-.05-.19-.18-.14-.26-.26-.61-.35-.96.49-.09,1.01-.23,1.66-.46.24-.09.49-.17.73-.28v-4.8h-.47c-1.19,0-1.54.04-1.63.04-.12,0-.14-.02-.14-.14v-.74c0-.12.02-.14.14-.14.09,0,.44.04,1.63.04h.47v-2.05c0-1.24-.02-1.72-.12-2.4.46.02.82.05,1.14.09.12.02.21.07.21.16s-.05.18-.09.32c-.07.19-.1.63-.1,1.8v2.08h.12c1.19,0,1.54-.04,1.63-.04.1,0,.12.02.12.14v.74c0,.12-.02.14-.12.14-.09,0-.44-.04-1.63-.04h-.12v4.36Zm12.37-2.35c0,.12-.02.14-.14.14-.09,0-.68-.04-2.43-.04h-5.27c.26.07.47.16.65.21.12.05.18.12.18.19,0,.09-.05.14-.12.19-.1.07-.19.16-.31.35l-.26.38h4.81c1.54,0,2.07-.04,2.15-.04.14,0,.17.04.17.17l-.16,1.75c-.11,1.19-.23,2.17-.46,3.03-.26,1-.75,1.4-1.72,1.4-.4,0-.7,0-1.1-.04-.28-.02-.28-.04-.37-.38-.07-.26-.17-.51-.3-.72.68.12,1.19.14,1.68.14.4,0,.68-.14.84-.84.16-.67.35-1.8.47-3.62h-1.23c-.94,2.35-2.36,4.04-4.51,5.39-.12.09-.19.12-.26.12s-.14-.05-.28-.21c-.14-.16-.33-.32-.53-.4,2.21-1.24,3.69-2.75,4.55-4.9h-1.56c-1.16,1.91-2.49,3.17-4.31,4.29-.14.07-.21.12-.28.12s-.14-.07-.26-.21c-.14-.16-.33-.31-.51-.38,1.84-1.03,3.25-2.21,4.25-3.82h-1.75c-.77.95-1.73,1.82-2.77,2.49-.14.09-.21.14-.28.14s-.12-.07-.25-.21c-.16-.16-.37-.31-.56-.42,1.59-.88,2.78-2.03,3.62-3.24.21-.3.35-.63.44-.95h-.07c-1.75,0-2.33.04-2.43.04-.12,0-.14-.02-.14-.14v-.68c0-.12.02-.14.14-.14.1,0,.68.04,2.43.04h5.64c1.75,0,2.34-.04,2.43-.04.12,0,.14.02.14.14v.68Zm-1.87-3.48c0,1.05.04,1.42.04,1.5,0,.12-.02.14-.14.14-.1,0-.59-.04-2.08-.04h-2.85c-1.5,0-2,.04-2.08.04-.12,0-.14-.02-.14-.14,0-.1.04-.46.04-1.5v-1.89c0-1.05-.04-1.42-.04-1.52,0-.12.02-.14.14-.14.09,0,.58.04,2.08.04h2.85c1.49,0,1.98-.04,2.08-.04.12,0,.14.02.14.14,0,.11-.04.47-.04,1.52v1.89Zm-.98-2.7h-5.27v1.33h5.27v-1.33Zm0,2.12h-5.27v1.36h5.27v-1.36Z" style="fill:gray;"/><path d="m901.05,242.21c0,.12-.02.14-.14.14-.09,0-.58-.04-2.12-.04h-.54c.7,1.01,1.42,1.56,2.59,2.24-.14.14-.3.33-.42.61-.07.14-.1.21-.16.21s-.12-.05-.25-.16c-.86-.63-1.52-1.33-2.14-2.35.04,2.82.12,4.48.12,5.22,0,.12-.02.14-.16.14h-.79c-.12,0-.14-.02-.14-.14,0-.72.05-2.29.1-5.01-.72,1.4-1.61,2.5-2.97,3.61-.12.09-.19.14-.26.14s-.11-.07-.17-.21c-.12-.26-.32-.51-.47-.65,1.54-1.03,2.64-2.14,3.5-3.66h-.89c-1.54,0-2.05.04-2.13.04-.12,0-.14-.02-.14-.14v-.7c0-.12.02-.14.14-.14.09,0,.59.03,2.13.03h1.23v-.03c0-.82-.02-1.24-.11-1.65.37.02.77.05,1.07.09.11.02.17.07.17.14,0,.1-.03.17-.07.24-.05.12-.09.33-.09,1.17v.03h.84c1.54,0,2.03-.03,2.12-.03.12,0,.14.02.14.14v.7Zm.3-2.94c0,.12-.02.14-.14.14-.11,0-.61-.04-2.17-.04h-3.38c-1.58,0-2.08.04-2.17.04-.12,0-.14-.02-.14-.14v-.72c0-.12.02-.14.14-.14.09,0,.59.04,2.17.04h2.31c.38-.77.61-1.4.8-1.99.09-.26.14-.47.16-.75.38.09.67.16.95.25.16.05.21.12.21.21s-.05.14-.12.21c-.09.09-.17.19-.26.4-.23.58-.46,1.07-.77,1.68h.1c1.52,0,2.03-.04,2.17-.04.12,0,.14.02.14.14v.72Zm-.28-4.13c0,.12-.02.14-.14.14-.09,0-.58-.04-2.08-.04h-2.91c-1.5,0-2,.04-2.08.04-.12,0-.14-.02-.14-.14v-.68c0-.12.02-.14.14-.14.09,0,.58.03,2.08.03h1.02v-.54c0-.44-.02-.88-.12-1.26.46.02.79.03,1.14.09.14.02.23.07.23.14,0,.12-.05.21-.1.31-.09.16-.09.3-.09.72v.54h.84c1.5,0,2-.03,2.08-.03.12,0,.14.02.14.14v.68Zm-5.48.63c.14-.05.17-.04.25.07.33.56.58,1.16.75,1.73.04.12.02.18-.16.25l-.44.17c-.23.07-.28.07-.32-.09-.17-.63-.37-1.19-.67-1.75-.07-.12-.05-.16.17-.24l.4-.14Zm13.6,3.52c0,.12-.02.14-.14.14-.09,0-.58-.04-2.12-.04h-.09v6.18c0,1.89.04,2.52.04,2.61,0,.14-.02.14-.14.14h-.86c-.12,0-.14,0-.14-.14,0-.09.04-.72.04-2.61v-6.18h-2.61c0,1.86-.05,3.64-.44,5.13-.3,1.14-.68,2.13-1.79,3.46-.11.14-.17.19-.25.19s-.12-.04-.23-.14c-.17-.18-.4-.3-.67-.4,1.12-1.17,1.68-2.38,2-3.68.28-1.17.35-2.71.35-4.92v-2.15c0-.96-.03-1.72-.12-2.47.42.09.72.18,1.14.35,1.43-.39,2.61-.89,3.48-1.37.35-.19.63-.4.88-.63.28.23.56.53.77.79.07.09.11.16.11.25,0,.07-.09.14-.23.16-.19.02-.39.09-.65.21-1.17.58-2.68,1.14-4.36,1.57v2.7h3.76c1.54,0,2.03-.04,2.12-.04.12,0,.14.02.14.14v.73Z" style="fill:gray;"/><path d="m911.41,237.38c.11-.14.17-.14.28-.09.84.51,1.63,1.07,2.4,1.8.09.09.09.12-.02.24l-.42.49c-.17.21-.19.23-.3.12-.72-.75-1.54-1.4-2.33-1.89-.12-.07-.11-.11.02-.25l.37-.44Zm1.26,9.78c-.18.38-.3.65-.32.8-.02.11-.09.19-.14.19-.07,0-.16-.04-.28-.1-.3-.19-.51-.33-.81-.58.33-.42.56-.75.82-1.28.54-1.05,1.14-2.43,1.66-4.17.18.25.35.37.6.53.26.18.26.19.16.54-.53,1.43-1.12,2.85-1.7,4.06Zm-.46-14.09c.12-.14.17-.16.28-.09.82.52,1.61,1.16,2.29,1.87.09.11.09.18-.05.33l-.38.47c-.14.16-.17.17-.28.07-.7-.77-1.58-1.54-2.29-1.99-.11-.07-.11-.11.05-.26l.39-.4Zm14.26,6.14c0,.1-.02.12-.14.12-.09,0-.7-.04-2.49-.04h-6.48c-1.77,0-2.38.04-2.49.04-.12,0-.14-.02-.14-.12v-.65c0-.12.02-.14.14-.14.1,0,.72.04,2.49.04h2.59v-1.28h-1.44c-1.68,0-2.22.04-2.33.04-.12,0-.14-.02-.14-.14v-.58c0-.12.02-.14.14-.14.1,0,.65.04,2.33.04h1.44v-1.21h-1.79c-1.73,0-2.29.04-2.38.04-.12,0-.14-.02-.14-.14v-.61c0-.12.02-.14.14-.14.09,0,.65.03,2.38.03h1.79v-.12c0-.91-.02-1.35-.12-1.79.4.02.86.05,1.14.09.14.02.21.09.21.16,0,.12-.05.19-.11.31-.07.16-.09.42-.09,1.19v.16h2.15c1.73,0,2.31-.03,2.4-.03.12,0,.14.02.14.14v.61c0,.12-.02.14-.14.14-.09,0-.67-.04-2.4-.04h-2.15v1.21h1.72c1.68,0,2.21-.04,2.31-.04.12,0,.14.02.14.14v.58c0,.12-.02.14-.14.14-.1,0-.63-.04-2.31-.04h-1.72v1.28h2.85c1.79,0,2.4-.04,2.49-.04.12,0,.14.02.14.14v.65Zm-4.17,1.16c1.57,0,2.12-.04,2.21-.04.12,0,.14.02.14.14,0,.1-.04.7-.04,2.05v1.84c0,.93.02,1.86.02,2.33,0,.54-.07.93-.37,1.15-.32.23-.6.32-1.89.32-.35,0-.37,0-.46-.35-.05-.21-.14-.42-.3-.66.42.04.79.05,1.29.05.59,0,.7-.18.7-.65v-1.21h-6.09v.61c0,1.59.04,2.14.04,2.22,0,.1-.02.12-.14.12h-.79c-.12,0-.14-.02-.14-.12s.04-.58.04-2.19v-3.57c0-1.33-.04-1.84-.04-1.94,0-.12.02-.14.14-.14.09,0,.65.04,2.22.04h3.45Zm1.31.84h-6.09v1.24h6.09v-1.24Zm0,2.07h-6.09v1.24h6.09v-1.24Z" style="fill:gray;"/><path d="m933.33,237.49c.17,0,.24-.02.33-.05.07-.04.11-.05.17-.05.11,0,.23.05.47.32.28.28.35.4.35.51,0,.09-.05.16-.14.23-.1.09-.21.21-.31.53-1,2.87-2.54,5.09-5.01,7.02-.12.1-.19.16-.25.16-.07,0-.14-.07-.25-.23-.17-.25-.37-.44-.58-.56,2.52-1.73,4.15-3.99,5.11-6.88h-2.5c-1.29,0-1.7.04-1.79.04-.12,0-.14-.02-.14-.14v-.79c0-.1.02-.12.14-.12.09,0,.49.03,1.79.03h2.59Zm3.36-1.99c.31,1.45.91,2.89,1.68,4.18,1.03-.86,1.87-1.75,2.77-2.85.23-.28.37-.54.49-.84.39.23.65.4.95.65.12.09.16.16.16.25,0,.1-.09.16-.21.23-.16.09-.39.28-.81.74-.77.82-1.7,1.73-2.83,2.66,1.4,2.05,3.27,3.73,5.27,4.71-.21.16-.42.38-.61.68-.11.16-.14.23-.23.23-.05,0-.12-.05-.26-.12-2.82-1.65-5.44-4.85-6.44-8.33.05,3.04.14,6.63.14,8.82,0,.56-.17,1-.63,1.24-.33.21-.86.3-2.17.3q-.35,0-.46-.35c-.09-.32-.21-.6-.37-.81.44.03,1.03.05,1.51.05.72,0,1-.16,1-.65v-11.59c0-.96-.02-1.43-.12-1.92.4.02.84.05,1.17.09.14.02.23.09.23.16,0,.14-.07.25-.11.37-.07.19-.1.53-.1,1.3v.82Z" style="fill:gray;"/><path d="m961.34,236.7c0,.12-.02.14-.14.14-.09,0-.63-.04-2.28-.04h-6.23c-.04.98-.1,1.86-.21,2.68h4.41c1.49,0,1.96-.04,2.05-.04.12,0,.17.05.16.19-.04.4-.05.82-.09,1.23-.17,2.61-.38,4.27-.63,5.29-.33,1.35-.91,1.8-2.17,1.8-.33,0-1.03-.04-1.68-.11q-.33-.04-.37-.4c-.04-.3-.12-.63-.25-.82,1.01.17,1.82.21,2.22.21.67,0,.98-.37,1.16-1.07.26-1.03.47-2.94.59-5.25h-5.55c-.63,3.52-2.14,5.65-5.37,7.47-.12.07-.21.11-.26.11-.11,0-.16-.09-.28-.28-.16-.23-.38-.4-.63-.56,4.2-2.07,5.65-4.67,5.74-10.45h-3.08c-1.63,0-2.19.04-2.28.04-.12,0-.14-.02-.14-.14v-.8c0-.12.02-.14.14-.14.09,0,.65.04,2.28.04h4.52v-1.35c0-.89-.02-1.38-.12-1.8.42,0,.88.04,1.21.09.14.02.21.07.21.14,0,.12-.05.21-.1.33-.07.17-.09.44-.09,1.22v1.37h4.85c1.65,0,2.19-.04,2.28-.04.12,0,.14.02.14.14v.8Z" style="fill:gray;"/><path d="m978.76,234.35c0,.11-.02.12-.14.12-.11,0-.65-.04-2.29-.04h-4.85c-.26.88-.63,1.8-1.08,2.66h5.01c1.75,0,2.34-.04,2.45-.04.12,0,.14.02.14.14,0,.11-.03.77-.03,3.2v3.04c0,3.87.03,4.5.03,4.6,0,.12-.02.14-.14.14h-.82c-.12,0-.14-.02-.14-.14v-.86h-11.5v.88c0,.12-.02.14-.14.14h-.8c-.12,0-.14-.02-.14-.14,0-.11.04-.74.04-4.62v-2.73c0-2.75-.04-3.41-.04-3.52,0-.12.02-.14.14-.14.1,0,.7.04,2.45.04h2.38c.42-.79.81-1.79,1.07-2.66h-4.38c-1.65,0-2.21.04-2.29.04-.12,0-.14-.02-.14-.12v-.79c0-.12.02-.14.14-.14.09,0,.65.03,2.29.03h10.36c1.64,0,2.19-.03,2.29-.03.12,0,.14.02.14.14v.79Zm-10.43,3.68h-2.94v8.23h2.94v-8.23Zm4.58,0h-3.59v2.1h3.59v-2.1Zm0,2.98h-3.59v2.15h3.59v-2.15Zm0,3.03h-3.59v2.22h3.59v-2.22Zm3.97-6h-2.96v8.23h2.96v-8.23Z" style="fill:gray;"/><polygon points="1026.05 242.01 1009.34 232.36 1009.34 238.24 989.82 238.24 989.82 245.78 1009.34 245.78 1009.34 251.66 1026.05 242.01" style="fill:gray;"/><rect x="201.05" y="17.92" width="38.48" height="380.49" style="fill:#e6e6e6;"/><line x1="239.53" y1="17.92" x2="239.53" y2="327.73" style="fill:none; stroke:#545454; stroke-miterlimit:10; stroke-width:.56px;"/><rect x="301.34" y="254.32" width="9.61" height="64.14" style="fill:#fff; stroke:#545454; stroke-miterlimit:10; stroke-width:.48px;"/><rect x="272.52" y="254.32" width="9.61" height="64.14" style="fill:#fff; stroke:#545454; stroke-miterlimit:10; stroke-width:.48px;"/><rect x="282.12" y="254.32" width="9.61" height="64.14" style="fill:#fff; stroke:#545454; stroke-miterlimit:10; stroke-width:.48px;"/><rect x="291.73" y="254.32" width="9.61" height="64.14" style="fill:#fff; stroke:#545454; stroke-miterlimit:10; stroke-width:.48px;"/><rect x="330.16" y="254.32" width="9.61" height="64.14" style="fill:#fff; stroke:#545454; stroke-miterlimit:10; stroke-width:.48px;"/><rect x="310.94" y="254.32" width="9.61" height="64.14" style="fill:#fff; stroke:#545454; stroke-miterlimit:10; stroke-width:.48px;"/><rect x="339.76" y="254.32" width="9.61" height="64.14" style="fill:#fff; stroke:#545454; stroke-miterlimit:10; stroke-width:.48px;"/><rect x="320.55" y="254.32" width="9.61" height="64.14" style="fill:#fff; stroke:#545454; stroke-miterlimit:10; stroke-width:.48px;"/><rect x="272.52" y="254.96" width="76.85" height="7.75" style="fill:#545454; stroke:#545454; stroke-miterlimit:10; stroke-width:.48px;"/><rect x="272.52" y="310.72" width="76.85" height="7.75" style="fill:#545454; stroke:#545454; stroke-miterlimit:10; stroke-width:.48px;"/><polygon points="359.33 75.82 421.16 75.82 421.16 17.92 238.75 17.92 238.75 95.68 359.33 95.68 359.33 75.82" style="fill:#f2f2f2;"/><polygon points="470.91 95.39 449.23 95.39 421.16 95.39 421.16 75.82 359.33 75.82 359.33 95.68 238.75 95.68 238.75 177.55 421.74 177.55 421.74 188.15 841.92 188.15 841.92 95.39 470.91 95.39" style="fill:#dbf1de;"/><rect x="421.16" y="17.92" width="28.07" height="77.47" style="fill:#67d4ff; stroke:#545454; stroke-miterlimit:10; stroke-width:.5px;"/><polyline points="238.75 17.92 238.75 177.55 421.74 177.55 421.74 188.15 841.92 188.15 841.92 95.39 470.91 95.39 449.23 95.39 449.23 17.92 421.16 17.92 267.61 17.92" style="fill:none; stroke:#545454; stroke-miterlimit:10; stroke-width:.5px;"/><rect x="301.34" y="104.14" width="9.61" height="64.14" style="fill:#fff; stroke:#545454; stroke-miterlimit:10; stroke-width:.48px;"/><rect x="272.52" y="104.14" width="9.61" height="64.14" style="fill:#fff; stroke:#545454; stroke-miterlimit:10; stroke-width:.48px;"/><rect x="282.12" y="104.14" width="9.61" height="64.14" style="fill:#fff; stroke:#545454; stroke-miterlimit:10; stroke-width:.48px;"/><rect x="291.73" y="104.14" width="9.61" height="64.14" style="fill:#fff; stroke:#545454; stroke-miterlimit:10; stroke-width:.48px;"/><rect x="330.16" y="104.14" width="9.61" height="64.14" style="fill:#fff; stroke:#545454; stroke-miterlimit:10; stroke-width:.48px;"/><rect x="310.94" y="104.14" width="9.61" height="64.14" style="fill:#fff; stroke:#545454; stroke-miterlimit:10; stroke-width:.48px;"/><rect x="339.76" y="104.14" width="9.61" height="64.14" style="fill:#fff; stroke:#545454; stroke-miterlimit:10; stroke-width:.48px;"/><rect x="320.55" y="104.14" width="9.61" height="64.14" style="fill:#fff; stroke:#545454; stroke-miterlimit:10; stroke-width:.48px;"/><rect x="272.52" y="104.77" width="76.85" height="7.75" style="fill:#545454; stroke:#545454; stroke-miterlimit:10; stroke-width:.48px;"/><rect x="272.52" y="160.53" width="76.85" height="7.75" style="fill:#545454; stroke:#545454; stroke-miterlimit:10; stroke-width:.48px;"/><rect x="371.38" y="52.9" width="13.67" height="42.05" style="fill:#ffffc8; stroke:#545454; stroke-miterlimit:10; stroke-width:.5px;"/><rect x="396.39" y="52.9" width="13.67" height="42.05" style="fill:#ffffc8; stroke:#545454; stroke-miterlimit:10; stroke-width:.5px;"/><rect x="238.75" y="95.68" width="34.93" height="232.05" style="fill:#b3b3b3;"/><rect x="238.75" y="95.68" width="34.93" height="232.05" style="fill:none; stroke:#545454; stroke-miterlimit:10; stroke-width:.5px;"/><line x1="9.53" y1="187.76" x2="201.05" y2="187.76" style="fill:none; stroke:#545454; stroke-miterlimit:10; stroke-width:.56px;"/><line x1="841.92" y1="187.76" x2="1029.6" y2="187.76" style="fill:none; stroke:#545454; stroke-miterlimit:10; stroke-width:.56px;"/><rect x="307.36" y="43.71" width="51.97" height="51.97" style="fill:#fff; stroke:#545454; stroke-miterlimit:10; stroke-width:.5px;"/><rect x="311.31" y="47.66" width="44.18" height="44.18" rx="3.52" ry="3.52" style="fill:none; stroke:#0094e2; stroke-linecap:round; stroke-linejoin:round; stroke-width:3.52px;"/><rect x="310.26" y="46.61" width="44.18" height="44.18" rx="3.52" ry="3.52" style="fill:#fff;"/><rect x="310.26" y="46.61" width="44.18" height="44.18" rx="3.52" ry="3.52" style="fill:none; stroke:#0094e2; stroke-linecap:round; stroke-linejoin:round; stroke-width:1.76px;"/><polygon points="339.58 58.69 323.77 58.69 320.44 51.93 340.62 54.74 339.58 58.69" style="fill:#0094e2;"/><path d="m323.45,60.67h15.71v4.99c0,2.5-2.08,6.55-7.18,6.55s-7.39-4.37-7.39-5.83v-2.39h-3.95l2.81-3.33Z" style="fill:#0094e2;"/><path d="m350.6,88.86c.52-4.06.1-8.01-1.98-10.19-2.08-2.18-5.83-3.74-11.86-3.74l-4.37,8.43-5.3-8.43s-5.1.52-7.07,1.35c-1.98.83-6.76,5.2-4.99,11.96.12.45.27,1.06.45,1.74h34.97c.05-.38.11-.75.15-1.11Z" style="fill:#0094e2;"/><path d="m251.99,82.76q.21.07.19.21c-.09,1.31-.25,2.5-.77,3.69-.05.12-.09.12-.25.02l-.42-.28c-.14-.09-.16-.11-.1-.23.44-.98.67-2.05.77-3.45.02-.14.04-.14.26-.07l.31.11Zm5.93-8.72c0,.12-.02.14-.14.14-.09,0-.51-.04-1.72-.04h-.73v1.68h.26c1.26,0,1.63-.04,1.71-.04.12,0,.14.02.14.14v.6c0,.12-.02.14-.14.14-.09,0-.46-.04-1.71-.04h-.26v1.68h.26c1.26,0,1.63-.04,1.71-.04.12,0,.14.02.14.14v.6c0,.12-.02.14-.14.14-.09,0-.46-.04-1.71-.04h-.26v1.75h.61c1.17,0,1.52-.03,1.63-.03s.16.03.14.16c-.02.33-.04.65-.05.98-.12,2.84-.44,4.2-.73,4.88-.3.61-.88.96-1.52.96-.3,0-.7-.02-1-.03-.21-.02-.25-.02-.3-.37-.05-.3-.12-.49-.23-.7.54.07,1.07.11,1.37.11.4,0,.65-.19.82-.51.28-.49.54-1.79.65-4.62h-3.17c-1.3,0-1.73.04-1.87.04-.12,0-.14-.02-.14-.16,0-.09.03-.68.03-1.87v-4.2c0-1.43-.03-2.01-.03-2.12,0-.12.02-.14.14-.14.14,0,.58.04,1.87.04h2.52c1.21,0,1.63-.04,1.72-.04.12,0,.14.02.14.14v.67Zm-3.5.1h-1.91v1.68h1.91v-1.68Zm0,2.49h-1.91v1.68h1.91v-1.68Zm0,2.49h-1.91v1.75h1.91v-1.75Zm-1.35,3.64c.16-.04.19-.04.21.07.19.93.3,1.79.35,2.8,0,.16-.02.17-.17.23l-.37.12c-.16.05-.19.05-.19-.11-.04-1.07-.12-1.92-.3-2.85-.03-.14,0-.14.14-.17l.33-.09Zm1.17-.12c.14-.05.17-.05.21.07.23.7.4,1.47.52,2.36.02.12,0,.14-.14.19l-.3.12c-.16.07-.19.05-.21-.07-.1-.91-.25-1.72-.47-2.42-.04-.12-.02-.12.12-.17l.26-.09Zm1.08-.19c.14-.05.17-.05.23.05.25.51.44,1.07.61,1.79.02.11,0,.12-.12.17l-.26.12c-.14.07-.18.05-.19-.05-.16-.72-.35-1.35-.58-1.82-.05-.1-.04-.12.1-.17l.21-.09Zm7.42-2.96c.35,3.13,1.44,5.95,3.76,7.75-.21.14-.42.32-.61.58-.11.14-.16.21-.21.21s-.1-.05-.23-.16c-2.27-2-3.29-4.85-3.69-8.38h-1.75c-.04,1.17-.1,2.19-.23,3.27-.23,1.77-.75,3.64-1.85,5.13-.09.12-.14.19-.19.19s-.1-.07-.23-.17c-.21-.21-.46-.37-.68-.47,1.26-1.38,1.73-3.13,1.98-5.08.23-1.75.23-3.52.23-6.21,0-1.63-.04-2.33-.04-2.42,0-.12.02-.14.14-.14.1,0,.54.04,1.96.04h2.33c1.38,0,1.85-.04,1.94-.04.12,0,.14.02.14.14,0,.09-.04.54-.04,1.75v2.96c0,1.23.04,1.61.04,1.72,0,.12-.02.14-.14.14h-.75c-.12,0-.14-.02-.14-.14v-.67h-1.73Zm1.73-4.94h-4.43v1.71c0,.88,0,1.63-.02,2.31h4.45v-4.03Z" style="fill:gray;"/><path d="m274.55,78.23c.16,0,.28-.04.33-.07.05-.04.09-.04.16-.04.09,0,.21.07.42.25.24.23.31.35.31.46s-.04.16-.18.26c-.14.11-.17.23-.28.46-.21.44-.49.95-.89,1.58-.1.18-.16.25-.25.25-.05,0-.1-.04-.21-.1-.19-.12-.46-.18-.63-.21.53-.75.86-1.31,1.14-1.94h-1.65v5.13c0,.86.02,1.51.02,2.36,0,.59-.1.91-.47,1.19-.25.19-.73.26-2.05.23-.31-.02-.33-.02-.4-.35-.07-.3-.19-.53-.35-.72.56.07,1.02.11,1.59.11.52,0,.67-.12.67-.6v-4.17c0-.72.02-1.47.04-2.13-.54,1.58-1.28,3.13-2.73,4.79-.1.12-.17.19-.25.19s-.14-.07-.23-.21c-.14-.21-.35-.38-.51-.47,1.54-1.35,2.64-3.57,3.29-5.36h-.7c-1.47,0-1.96.04-2.05.04-.12,0-.14-.02-.14-.14v-.67c0-.12.02-.14.14-.14.09,0,.58.04,2.05.04h1.71c-.75-.79-1.49-1.42-2.43-2.1-.12-.09-.12-.12.04-.26l.33-.3c.16-.14.17-.14.3-.05.42.3.82.58,1.19.88.74-.61,1.44-1.26,2.01-2.06h-2.91c-1.4,0-1.84.02-1.92.02-.12,0-.14,0-.14-.12v-.72c0-.12.02-.14.14-.14.09,0,.52.04,1.92.04h3.05c.18,0,.33-.04.4-.07.07-.04.12-.05.19-.05.1,0,.23.07.49.33.28.28.33.38.33.51s-.14.21-.25.28c-.16.11-.28.28-.47.51-.63.74-1.21,1.37-2.14,2.1l.77.75c.1.09.09.12-.09.28l-.23.19h1.49Zm8.38,5.06c-.14,1.82-.23,2.96-.68,3.73-.3.56-.82.88-1.58.88-.33,0-.72-.02-1.14-.04-.33-.02-.35-.04-.4-.42-.04-.25-.12-.47-.25-.68.54.11,1.02.17,1.49.17.44,0,.7-.05.93-.4.35-.49.49-1.68.61-3.34h-2.91c-.63,2.28-2.05,3.71-4.25,4.78-.12.07-.21.1-.26.1-.09,0-.14-.07-.26-.26-.14-.23-.33-.42-.56-.56,2-.72,3.62-1.96,4.32-4.06h-.91c-1.59,0-2.12.04-2.21.04-.14,0-.16-.02-.16-.14v-.67c0-.14.02-.16.16-.16.09,0,.61.04,2.21.04h1.14c.07-.37.1-.77.12-1.21.02-.23,0-.52-.04-.77.35.02.72.05,1.03.12.16.04.23.09.23.16,0,.1-.04.19-.1.28-.07.09-.1.32-.14.58-.04.3-.07.58-.12.84h1.42c1.61,0,2.13-.04,2.22-.04.12,0,.17.05.16.17l-.07.86Zm.89-8.09c0,.12-.02.14-.14.14-.09,0-.46-.02-1.49-.04-.37,1.23-.96,2.24-1.71,3.05,1.12.82,2.45,1.42,3.89,1.71-.17.21-.31.42-.42.68q-.14.33-.47.23c-1.28-.4-2.56-1.08-3.68-1.98-1.07.89-2.31,1.5-3.59,1.89-.3.09-.33.09-.44-.19-.1-.26-.28-.49-.42-.63,1.31-.28,2.62-.82,3.71-1.7-.7-.67-1.31-1.42-1.77-2.26-.33.42-.72.86-1.21,1.37-.09.1-.16.16-.21.16s-.1-.05-.21-.17c-.16-.19-.37-.35-.58-.44,1.4-1.19,2.12-2.28,2.71-3.45.23-.49.35-.84.4-1.21.37.09.77.21,1.02.32.1.04.16.11.16.17,0,.09-.05.16-.14.21-.1.07-.26.33-.39.54l-.46.82h3.38c1.38,0,1.82-.04,1.91-.04.12,0,.14.02.14.14v.67Zm-5.95.1c.46.91,1.1,1.72,1.87,2.43.61-.67,1.1-1.47,1.42-2.43h-3.29Z" style="fill:gray;"/><path d="m301.74,87.42c0,.12,0,.14-.12.14-.1,0-.65-.04-2.29-.04h-10.48c-1.63,0-2.19.04-2.27.04-.12,0-.14-.02-.14-.14v-.72c0-.12.02-.14.14-.14.09,0,.65.04,2.27.04h4.57v-2.26h-2.5c-1.77,0-2.36.04-2.47.04-.12,0-.14-.02-.14-.14v-.72c0-.12.02-.14.14-.14.1,0,.7.04,2.47.04h2.5v-.12c0-.84-.02-1.3-.1-1.7.4.02.8.05,1.12.09.12.02.21.09.21.14,0,.12-.05.21-.1.33-.07.16-.09.42-.09,1.16v.1h2.8c1.77,0,2.36-.04,2.47-.04.12,0,.14.02.14.14v.72c0,.12-.02.14-.14.14-.1,0-.7-.04-2.47-.04h-2.8v2.26h4.88c1.65,0,2.19-.04,2.29-.04.12,0,.12.02.12.14v.72Zm-.58-11.76c0,1.45.04,1.64.04,1.75,0,.12-.02.14-.14.14h-.8c-.12,0-.14-.02-.14-.14v-2.33h-12.13v2.33c0,.12-.02.14-.14.14h-.8c-.12,0-.14-.02-.14-.14,0-.11.03-.3.03-1.75v-.54c0-.53-.03-.77-.03-.86,0-.12.02-.14.14-.14.09,0,.7.03,2.42.03h3.94v-.3c0-.58-.04-1.03-.12-1.44.42.02.82.05,1.16.09.12.02.21.07.21.16,0,.12-.05.19-.1.32-.07.16-.09.42-.09.88v.3h4.22c1.68,0,2.29-.03,2.4-.03.12,0,.14.02.14.14,0,.09-.04.33-.04.77v.63Zm-4.55,2.62c.14-.11.18-.09.28,0,1.02.8,1.96,1.75,2.89,2.82.09.11.07.12-.09.26l-.46.4c-.12.11-.18.11-.28-.02-.31-.39-.6-.75-.91-1.09-2.96.33-5.76.54-8.93.7-.49.02-.65.05-.74.12-.07.05-.12.07-.19.07s-.12-.07-.16-.17c-.07-.25-.16-.63-.23-.98.54.03,1.15.03,1.77.02.35,0,.72-.02,1.07-.03.58-.91,1.07-1.84,1.44-2.68h-.72c-1.65,0-2.24.03-2.33.03-.12,0-.14-.02-.14-.14v-.7c0-.12.02-.14.14-.14.09,0,.68.04,2.33.04h5.37c1.65,0,2.24-.04,2.33-.04.12,0,.14.02.14.14v.7c0,.12-.02.14-.14.14-.09,0-.68-.03-2.33-.03h-3.5c-.47.98-.96,1.85-1.45,2.62,1.91-.11,3.76-.25,5.57-.42-.37-.37-.77-.72-1.19-1.08-.1-.09-.1-.14.09-.28l.37-.26Z" style="fill:gray;"/><path d="m253.49,114.13c.44-.19.9-.4,1.37-.58l.18.79c-1.27.6-2.63,1.19-3.68,1.66l-.35-.89c.44-.16,1.02-.38,1.64-.65v-3.8h-1.54v-.85h1.54v-2.72h.84v2.72h1.4v.85h-1.4v3.47Zm6.91,2.7c.7,0,.82-.32.9-1.7.22.16.55.3.8.35-.14,1.63-.42,2.16-1.68,2.16h-2.94c-1.36,0-1.76-.32-1.76-1.61v-3.78l-.95.4-.35-.77,1.29-.55v-3.26h.85v2.9l1.61-.68v-3.33h.85v2.99l1.58-.67.19-.17.17-.13.62.24-.05.17c0,2.24-.02,4.03-.12,4.49-.06.49-.3.71-.64.79s-.79.08-1.13.08c-.04-.24-.11-.58-.22-.77.29.01.67.01.8.01.18,0,.3-.05.36-.31.06-.29.08-1.62.08-3.53l-1.67.71v4.4h-.85v-4.04l-1.61.68v4.15c0,.64.16.79.94.79h2.89Z" style="fill:#fff;"/><path d="m256.81,123.6v2.13l.16-.18c1.43.68,3.31,1.76,4.26,2.48l-.62.8c-.82-.67-2.42-1.66-3.79-2.39v6.31h-.95v-9.16h-4.58v-.89h10.59v.89h-5.06Z" style="fill:#fff;"/><rect x="431.54" y="25.74" width="44.18" height="44.18" rx="3.52" ry="3.52" style="fill:none; stroke:#0094e2; stroke-linecap:round; stroke-linejoin:round; stroke-width:3.52px;"/><rect x="430.49" y="24.69" width="44.18" height="44.18" rx="3.52" ry="3.52" style="fill:#fff;"/><rect x="430.49" y="24.69" width="44.18" height="44.18" rx="3.52" ry="3.52" style="fill:none; stroke:#0094e2; stroke-linecap:round; stroke-linejoin:round; stroke-width:1.76px;"/><polygon points="448.06 62.93 443.26 62.93 440.42 39.8 450.91 39.8 448.06 62.93" style="fill:#0094e2;"/><polygon points="457.1 39.8 461.91 39.8 464.75 62.93 454.26 62.93 457.1 39.8" style="fill:#ec0e8d;"/><circle cx="445.66" cy="34.56" r="3.93" style="fill:#0094e2;"/><circle cx="459.5" cy="34.56" r="3.93" style="fill:#ec0e8d;"/><path d="m459.4,81.2c2.01.58,3.96,1.4,5.71,2.43.14.07.17.16.12.28-.12.32-.28.63-.42.86-.1.14-.17.17-.33.07-1.63-1.07-3.5-1.89-5.09-2.34v4.06c0,1.07.03,2.43.05,3.57.02.17-.03.23-.23.23-.26.02-.61.02-.89,0-.19,0-.25-.05-.25-.25.05-1.12.07-2.49.07-3.55v-7.79c0-1.31-.07-2.21-.19-2.8.61.05,1.14.12,1.45.23.28.07.21.26.12.53-.1.3-.12.82-.12,1.94v2.54Z" style="fill:gray;"/><path d="m478.23,86.83c0,1.05.02,2.05.05,3.17.02.16-.04.21-.18.21-.31.02-.7.02-1.02,0-.14,0-.17-.05-.17-.21.04-1.05.07-2.1.07-3.12v-5.18c-1.84,1.63-3.55,2.82-5.5,3.96-.16.09-.28.05-.4-.07-.23-.23-.54-.4-.88-.56,2.17-1.19,3.99-2.45,5.44-3.69,1.33-1.14,2.57-2.38,3.4-3.38.73-.89,1.05-1.42,1.21-1.98.47.25.95.52,1.21.79.18.18.14.39-.07.49-.21.11-.54.42-.98.93-.74.89-1.37,1.59-2.19,2.42v6.23Z" style="fill:gray;"/><path d="m489.86,87.39c1.68-.59,3.15-1.29,4.81-2.26,1.79-1.03,3.24-2.1,4.59-3.48.02.46.07.93.16,1.26.05.17.04.28-.1.4-1.3,1.17-2.85,2.21-4.38,3.08-1.35.79-2.7,1.38-4.29,2.12-.42.19-.77.33-.93.51-.16.16-.33.16-.49.03-.21-.17-.47-.44-.67-.7-.1-.14-.09-.26-.02-.42.07-.17.09-.38.09-.89l.04-5.65c.02-1.79.04-2.92-.18-3.97.54.05,1.23.18,1.49.28.21.07.23.21.12.49-.1.26-.17,1.19-.19,3.19l-.05,6.02Z" style="fill:gray;"/><line x1="238.75" y1="95.68" x2="359.33" y2="95.68" style="fill:none; stroke:#545454; stroke-miterlimit:10; stroke-width:.56px;"/><line x1="9.53" y1="215.3" x2="1029.6" y2="215.3" style="fill:none; stroke:#4d4948; stroke-miterlimit:10; stroke-width:7.56px;"/><line x1="9.53" y1="215.3" x2="1029.6" y2="215.3" style="fill:none; stroke:#fff; stroke-miterlimit:10; stroke-width:5.04px;"/><line x1="9.53" y1="215.3" x2="1029.6" y2="215.3" style="fill:none; stroke:#4d4948; stroke-dasharray:0 0 25.2 25.2; stroke-miterlimit:10; stroke-width:5.04px;"/><line x1="9.53" y1="353.92" x2="1029.6" y2="353.92" style="fill:none; stroke:#4d4948; stroke-miterlimit:10; stroke-width:7.56px;"/><line x1="9.53" y1="353.92" x2="1029.6" y2="353.92" style="fill:none; stroke:#fff; stroke-miterlimit:10; stroke-width:5.04px;"/><line x1="9.53" y1="353.92" x2="1029.6" y2="353.92" style="fill:none; stroke:#4d4948; stroke-dasharray:0 0 25.2 25.2; stroke-miterlimit:10; stroke-width:5.04px;"/><path d="m578.83,127.4c0,.12-.02.14-.14.14-.09,0-.63-.04-2.29-.04h-4.94v2.63c1.8.68,3.66,1.65,5.48,2.85.11.07.14.1,0,.3l-.37.51c-.16.23-.19.23-.31.14-1.7-1.17-3.1-1.98-4.8-2.71v6.42c0,1.91.04,2.71.04,2.8,0,.12-.02.14-.14.14h-.93c-.12,0-.14-.02-.14-.14,0-.1.04-.89.04-2.8v-10.13h-4.18c-1.65,0-2.21.04-2.29.04-.12,0-.14-.02-.14-.14v-.84c0-.12.02-.14.14-.14.09,0,.65.04,2.29.04h10.26c1.66,0,2.21-.04,2.29-.04.12,0,.14.02.14.14v.84Z" style="fill:#0094e2;"/><path d="m586.56,126.3c.16.09.23.16.23.26,0,.09-.04.17-.07.23-.14.19-.25.37-.32.68-.33,1.63-.49,3.08-.52,4.03-.02.67-.02,1.38.07,1.98.37-.74.89-1.73,1.3-2.52.1.33.23.54.35.72.12.19.09.3-.02.47-.46.81-.86,1.66-1.1,2.31-.11.28-.12.4-.12.56.02.16-.02.21-.12.25-.16.04-.54.09-.84.12-.09,0-.14-.07-.17-.18-.26-.72-.44-1.92-.44-3.27,0-1.07.19-2.7.4-4.11.1-.73.19-1.29.16-1.94.49.1.93.26,1.23.42Zm5.53-.17c.26.05.3.17.26.35-.05.19-.05.49-.04.82.14,1.94.21,3.4.21,4.64,0,2.5-.44,4.39-1.44,5.74-.7.96-1.63,1.82-2.89,2.54-.17.1-.3.1-.46-.04-.23-.19-.58-.4-.89-.49,1.42-.75,2.29-1.38,3.05-2.4.98-1.31,1.43-2.8,1.43-5.3,0-1.21-.07-2.87-.17-4.17-.07-.84-.17-1.29-.35-1.84.49.02.96.05,1.28.14Z" style="fill:#0094e2;"/><path d="m602.66,133.37c.28.17.23.28.02.49-.12.12-.26.28-.47.68-.42.81-1.08,1.87-1.8,2.7-.16.18-.26.23-.47.1-.28-.17-.59-.31-.91-.38,1.03-1.03,1.63-1.98,2.07-2.87.19-.38.33-.8.4-1.28.44.16.82.33,1.17.56Zm3.04-4.8c0-.98-.05-1.84-.19-2.42.54.04,1.14.1,1.45.19.25.07.28.26.14.49s-.17.79-.17,1.82v1.07h2.28c1.26,0,2.55-.03,3.59-.09.16-.02.21.05.21.21,0,.25,0,.54-.02.79,0,.18-.04.25-.21.25-1.14-.05-2.5-.07-3.62-.07h-2.22v3.04c0,1.49.05,2.64.05,3.76,0,.75-.26,1.31-.88,1.61-.63.32-1.45.47-2.01.51-.14.02-.24-.05-.3-.21-.16-.39-.38-.7-.74-.98.89,0,1.68-.12,2.17-.32.37-.14.47-.37.47-1.02v-6.41h-2.8c-.98,0-2.07.05-2.99.12-.16.02-.21-.07-.23-.25-.02-.21-.07-.75-.07-1.09,1.24.11,2.29.12,3.26.12h2.83v-1.15Zm4.66,4.43c.12-.09.21-.05.33.05.93.82,1.73,1.92,2.45,3.17.11.19.07.26-.07.4-.17.16-.44.37-.67.51-.14.09-.23.09-.3-.07-.6-1.21-1.47-2.49-2.52-3.5.28-.21.53-.38.77-.56Z" style="fill:#0094e2;"/><path d="m619.94,133.65c-1.52,0-2.26.18-2.36.18-.16,0-.24-.07-.3-.25-.07-.3-.14-.86-.17-1.33,1.07.14,2.42.16,3.87.16h5.37c1.21,0,2.5-.02,3.83-.05.21-.02.26.02.26.21.02.26.02.63,0,.91,0,.19-.05.23-.26.21-1.31-.04-2.61-.04-3.78-.04h-6.46Z" style="fill:#0094e2;"/><path d="m641.86,126.79c.16.1.17.3-.02.52-.21.23-.42.63-.63,1.28-.86,2.56-2.05,5.74-3.27,8.51,2.36-.19,5.15-.44,7.46-.79-.58-1.03-1.29-2.1-2.12-3.06.28-.16.56-.35.82-.49.17-.1.25-.05.35.09,1.29,1.52,2.5,3.52,3.39,5.41.09.16.04.26-.09.35-.26.16-.53.3-.77.42-.14.07-.23.04-.31-.16-.23-.49-.47-1.02-.74-1.49-2.75.42-5.51.72-8.61,1.05-1.28.14-1.59.23-1.79.33-.25.16-.46.17-.56-.07-.11-.24-.26-.8-.42-1.45.63.05,1.21.04,2.06-.02,1.26-2.99,2.54-6.42,3.13-8.35.4-1.29.51-2.03.54-2.7.65.18,1.24.4,1.56.61Z" style="fill:#0094e2;"/><path d="m653.45,139.21v-12.69l13.74,6.35-13.74,6.35Z" style="fill:#0094e2;"/><path d="m474.92,265.56v12.69l-13.74-6.34,13.74-6.35Z" style="fill:#0094e2;"/><path d="m494.92,278.66c0,.12-.02.14-.14.14-.09,0-.65-.04-2.31-.04h-10.06c-1.66,0-2.22.04-2.31.04-.12,0-.14-.02-.14-.14v-.89c0-.12.02-.14.14-.14.09,0,.65.04,2.31.04h3.96v-10.71c0-1.31-.02-1.87-.1-2.52.44.02.89.05,1.22.11.12.02.23.07.23.16,0,.11-.03.19-.09.33-.07.19-.12.61-.12,1.7v3.31h3.48c1.66,0,2.22-.04,2.31-.04.12,0,.14.02.14.14v.89c0,.12-.02.14-.14.14-.09,0-.65-.04-2.31-.04h-3.48v6.53h4.97c1.66,0,2.22-.04,2.31-.04.12,0,.14.02.14.14v.89Z" style="fill:#0094e2;"/><path d="m502.71,265.34c.16.09.23.16.23.26,0,.09-.04.17-.07.23-.14.19-.25.37-.32.68-.33,1.63-.49,3.08-.52,4.03-.02.67-.02,1.38.07,1.98.37-.74.89-1.73,1.3-2.52.1.33.23.54.35.72.12.19.09.3-.02.47-.46.81-.86,1.66-1.1,2.31-.11.28-.12.4-.12.56.02.16-.02.21-.12.25-.16.04-.54.09-.84.12-.09,0-.14-.07-.17-.18-.26-.72-.44-1.92-.44-3.27,0-1.07.19-2.7.4-4.11.1-.73.19-1.29.16-1.94.49.11.93.26,1.23.42Zm5.53-.17c.26.05.3.17.26.35-.05.19-.05.49-.04.82.14,1.94.21,3.4.21,4.64,0,2.5-.44,4.39-1.44,5.74-.7.96-1.63,1.82-2.89,2.54-.17.11-.3.11-.46-.04-.23-.19-.58-.4-.89-.49,1.42-.75,2.29-1.38,3.05-2.4.98-1.31,1.43-2.8,1.43-5.3,0-1.21-.07-2.87-.17-4.17-.07-.84-.17-1.29-.35-1.84.49.02.96.05,1.28.14Z" style="fill:#0094e2;"/><path d="m518.81,272.42c.28.17.23.28.02.49-.12.12-.26.28-.47.68-.42.81-1.08,1.87-1.8,2.7-.16.18-.26.23-.47.11-.28-.17-.59-.32-.91-.38,1.03-1.03,1.63-1.98,2.07-2.87.19-.38.33-.8.4-1.28.44.16.82.33,1.17.56Zm3.04-4.8c0-.98-.05-1.84-.19-2.42.54.04,1.14.1,1.45.19.25.07.28.26.14.49s-.17.79-.17,1.82v1.07h2.28c1.26,0,2.55-.04,3.59-.09.16-.02.21.05.21.21,0,.25,0,.54-.02.79,0,.17-.04.25-.21.25-1.14-.05-2.5-.07-3.62-.07h-2.22v3.04c0,1.49.05,2.64.05,3.76,0,.75-.26,1.31-.88,1.61-.63.31-1.45.47-2.01.51-.14.02-.24-.05-.3-.21-.16-.38-.39-.7-.74-.98.89,0,1.68-.12,2.17-.32.37-.14.47-.37.47-1.02v-6.41h-2.8c-.98,0-2.07.05-2.99.12-.16.02-.21-.07-.23-.25-.02-.21-.07-.75-.07-1.09,1.24.11,2.29.12,3.26.12h2.83v-1.16Zm4.66,4.43c.12-.09.21-.05.33.05.93.82,1.73,1.92,2.45,3.17.11.19.07.26-.07.4-.17.16-.44.37-.67.51-.14.09-.23.09-.3-.07-.6-1.21-1.47-2.49-2.52-3.5.28-.21.53-.38.77-.56Z" style="fill:#0094e2;"/><path d="m536.08,272.7c-1.52,0-2.26.18-2.36.18-.16,0-.24-.07-.3-.25-.07-.3-.14-.86-.17-1.33,1.07.14,2.42.16,3.87.16h5.37c1.21,0,2.5-.02,3.83-.05.21-.02.26.02.26.21.02.26.02.63,0,.91,0,.19-.05.23-.26.21-1.31-.04-2.61-.04-3.78-.04h-6.46Z" style="fill:#0094e2;"/><path d="m558.01,265.84c.16.11.17.3-.02.53-.21.23-.42.63-.63,1.28-.86,2.56-2.05,5.74-3.27,8.51,2.36-.19,5.15-.44,7.46-.79-.58-1.03-1.29-2.1-2.12-3.06.28-.16.56-.35.82-.49.17-.1.25-.05.35.09,1.29,1.52,2.5,3.52,3.39,5.41.09.16.04.26-.09.35-.26.16-.53.3-.77.42-.14.07-.23.04-.31-.16-.23-.49-.47-1.01-.74-1.49-2.75.42-5.51.72-8.61,1.05-1.28.14-1.59.23-1.79.33-.25.16-.46.17-.56-.07-.11-.25-.26-.8-.42-1.45.63.05,1.21.04,2.06-.02,1.26-2.99,2.54-6.42,3.13-8.35.4-1.29.51-2.03.54-2.7.65.17,1.24.4,1.56.61Z" style="fill:#0094e2;"/><line x1="255.64" x2="255.64" y2="3.15" style="fill:none; stroke:#39b54a; stroke-miterlimit:10; stroke-width:4.41px;"/><line x1="255.64" y1="8.08" x2="255.64" y2="25.31" style="fill:none; stroke:#39b54a; stroke-dasharray:0 0 4.93 4.93; stroke-miterlimit:10; stroke-width:4.41px;"/><polyline points="255.64 27.78 255.64 30.93 258.79 30.93" style="fill:none; stroke:#39b54a; stroke-miterlimit:10; stroke-width:4.41px;"/><line x1="264.87" y1="30.93" x2="359.18" y2="30.93" style="fill:none; stroke:#39b54a; stroke-dasharray:0 0 6.08 6.08; stroke-miterlimit:10; stroke-width:4.41px;"/><polyline points="362.23 30.93 365.38 30.93 365.38 34.08" style="fill:none; stroke:#39b54a; stroke-miterlimit:10; stroke-width:4.41px;"/><line x1="365.38" y1="40.28" x2="365.38" y2="161.35" style="fill:none; stroke:#39b54a; stroke-dasharray:0 0 6.21 6.21; stroke-miterlimit:10; stroke-width:4.41px;"/><polyline points="365.38 164.45 365.38 167.6 368.53 167.6" style="fill:none; stroke:#39b54a; stroke-miterlimit:10; stroke-width:4.41px;"/><line x1="374.83" y1="167.6" x2="788.05" y2="167.6" style="fill:none; stroke:#39b54a; stroke-dasharray:0 0 6.31 6.31; stroke-miterlimit:10; stroke-width:4.41px;"/><line x1="791.2" y1="167.6" x2="794.35" y2="167.6" style="fill:none; stroke:#39b54a; stroke-miterlimit:10; stroke-width:4.41px;"/><rect x="398.92" y="106.21" width="96.61" height="53.44" rx="3.86" ry="3.86" style="fill:#ed0030;"/><rect x="398.92" y="106.21" width="96.61" height="53.44" rx="3.86" ry="3.86" style="fill:none; stroke:#545454; stroke-linecap:round; stroke-linejoin:round; stroke-width:1.89px;"/><path d="m426.11,132.07c1.55-1.98,2.47-4.3,2.99-6.86.11-.67.24-1.25.26-1.87.75.11,1.42.26,2.04.43.28.06.43.17.43.3s-.04.21-.15.34c-.15.19-.3.62-.41,1.1-.17.58-.32,1.16-.52,1.72h3.63c2.02,0,2.71-.04,2.86-.04.22,0,.24.02.24.24v1.55c0,.21-.02.24-.24.24-.13,0-.56-.02-1.63-.04-.19,3.23-1.1,6.08-2.39,8.13,1.18,1.33,2.79,2.52,4.73,3.5-.37.39-.73.95-.99,1.5-.17.34-.26.49-.43.49-.13,0-.28-.06-.52-.21-1.72-1.1-3.03-2.34-4.08-3.59-1.25,1.38-2.92,2.73-5.2,3.76-.26.11-.43.17-.54.17-.15,0-.21-.11-.37-.37-.37-.65-.71-1.05-1.12-1.42,2.45-.86,4.54-2.32,5.91-3.89-.95-1.5-1.66-3.33-2.04-5.03-.28.47-.58.92-.9,1.38-.19.26-.3.37-.41.37s-.21-.13-.41-.41c-.24-.3-.49-.6-.73-.82,0,.32.02.52.02.58,0,.22-.02.24-.26.24h-1.68c-.22,0-.24-.02-.24-.24v-.84h-3.12v4.86c0,.49.02.82.19.95.28.21.9.26,1.44.26,1.14,0,1.78-.13,2.11-.49.32-.37.41-.95.47-2.58.41.26.9.47,1.42.6.67.19.69.19.62.84-.11,1.59-.43,2.34-1.05,2.9-.75.67-2,.82-3.91.82-1.38,0-2.43-.11-2.88-.54-.39-.34-.54-.77-.54-1.72v-5.42c0-1.42-.04-2.15-.04-2.28,0-.24.02-.26.26-.26.13,0,.71.04,1.94.04h3.1v-3.48h-3.22c-1.59,0-2.11.04-2.21.04-.21,0-.24-.02-.24-.26v-1.63c0-.21.02-.24.24-.24.11,0,.62.04,2.21.04h2.86c1.61,0,2.15-.04,2.28-.04.24,0,.26.02.26.24,0,.15-.04.71-.04,2.15v4.79Zm3.96-2.9c-.04.11-.06.22-.11.3.37,2.43.95,4.32,1.91,5.98.8-1.48,1.38-3.5,1.57-6.28h-3.38Z" style="fill:#fff;"/><path d="m443.61,126.44c0-1.4-.02-2.06-.17-3.05.8.02,1.59.09,2.3.15.21.02.32.11.32.21,0,.19-.06.32-.13.47-.13.26-.15.62-.15,2.17v1.27h.47c1.81,0,2.39-.04,2.52-.04.21,0,.24.02.24.24v1.61c0,.21-.02.24-.24.24-.13,0-.71-.04-2.52-.04h-.32c.71,1.61,1.98,3.33,3.31,4.54-.32.41-.6.97-.82,1.53-.09.24-.17.34-.26.34s-.17-.11-.34-.3c-.84-1.01-1.59-2.17-2.11-3.42.02,5.63.15,10.06.15,10.49,0,.21-.02.24-.24.24h-1.87c-.22,0-.24-.02-.24-.24,0-.45.11-4.77.15-10-.67,2-1.74,3.89-2.97,5.55-.15.19-.26.3-.34.3-.11,0-.17-.11-.26-.37-.19-.62-.49-1.33-.73-1.72,1.63-1.81,3.03-4.08,4.02-6.94h-.8c-1.81,0-2.41.04-2.54.04-.21,0-.24-.02-.24-.24v-1.61c0-.21.02-.24.24-.24.13,0,.73.04,2.54.04h1.01v-1.23Zm9.07,12.9c0,.6.06.8.34.92.19.09.69.15,1.38.15.88,0,1.44-.15,1.74-.45.34-.3.54-.9.62-3.33.43.3,1.12.6,1.68.75q.54.17.49.75c-.17,2.54-.52,3.2-1.16,3.76s-1.7.8-3.5.8c-1.55,0-2.39-.09-2.92-.32-.56-.28-.97-.62-.97-2.04v-12.96c0-1.85-.04-2.88-.13-3.7.82.02,1.68.11,2.32.19.26.02.41.13.41.26,0,.17-.06.3-.13.45-.13.26-.17.73-.17,2.88v11.89Z" style="fill:#fff;"/><path d="m462.87,142.2c-.21,0-.24-.02-.24-.24,0-.15.04-1.27.04-7.07v-3.98c0-3.98-.04-5.16-.04-5.29,0-.24.02-.26.24-.26.15,0,.88.04,2.97.04h9.76c2.09,0,2.82-.04,2.95-.04.24,0,.26.02.26.26,0,.13-.04,1.29-.04,4.73v4.54c0,5.74.04,6.88.04,7.01,0,.21-.02.24-.26.24h-1.94c-.21,0-.24-.02-.24-.24v-1.61h-11.31v1.68c0,.21-.02.24-.26.24h-1.94Zm2.19-4.11h11.31v-10.49h-11.31v10.49Z" style="fill:#fff;"/><polyline points="400.96 121.38 385 104.75 400.96 130.02" style="fill:#ed0030; stroke:#545454; stroke-linecap:round; stroke-linejoin:round; stroke-width:1.89px;"/><line x1="364.38" y1="144.66" x2="361.23" y2="144.66" style="fill:none; stroke:#39b54a; stroke-miterlimit:10; stroke-width:4.41px;"/><line x1="355.2" y1="144.66" x2="261.8" y2="144.66" style="fill:none; stroke:#39b54a; stroke-dasharray:0 0 6.03 6.03; stroke-miterlimit:10; stroke-width:4.41px;"/><polyline points="258.79 144.66 255.64 144.66 255.64 147.81" style="fill:none; stroke:#39b54a; stroke-miterlimit:10; stroke-width:4.41px;"/><line x1="255.64" y1="154.25" x2="255.64" y2="292.91" style="fill:none; stroke:#39b54a; stroke-dasharray:0 0 6.45 6.45; stroke-miterlimit:10; stroke-width:4.41px;"/><polyline points="255.64 296.14 255.64 299.29 258.79 299.29" style="fill:none; stroke:#39b54a; stroke-miterlimit:10; stroke-width:4.41px;"/><line x1="265.13" y1="299.29" x2="680.29" y2="299.29" style="fill:none; stroke:#39b54a; stroke-dasharray:0 0 6.34 6.34; stroke-miterlimit:10; stroke-width:4.41px;"/><line x1="683.46" y1="299.29" x2="686.61" y2="299.29" style="fill:none; stroke:#39b54a; stroke-miterlimit:10; stroke-width:4.41px;"/></g></svg>