<?xml version="1.0" encoding="UTF-8"?><svg id="_レイヤー_2" xmlns="http://www.w3.org/2000/svg" width="492.65" height="407.97" viewBox="0 0 492.65 407.97"><g id="_レイヤー_1-2"><path d="m67.85,403.13c2.66-102.42-34.58-155.63-66.51-174.25v50.55c33.25,47.89,29.25,123.71,29.25,123.71h37.25Z" style="fill:#9fc8fa;"/><line x1="119.72" y1="256.83" x2="119.72" y2="400.47" style="fill:none; stroke:#e6e6e6; stroke-linecap:round; stroke-miterlimit:10; stroke-width:8px;"/><path d="m337.07,3.37v124.96c0,48.54-47.59,94-127.4,123.93C129.86,282.19,5.33,327.31,5.33,327.31" style="fill:none; stroke:#4d4948; stroke-miterlimit:10; stroke-width:7.56px;"/><path d="m337.07,3.37v124.96c0,48.54-47.59,94-127.4,123.93C129.86,282.19,5.33,327.31,5.33,327.31" style="fill:none; stroke:#fff; stroke-miterlimit:10; stroke-width:5.04px;"/><path d="m337.07,3.37v124.96c0,48.54-47.59,94-127.4,123.93C129.86,282.19,5.33,327.31,5.33,327.31" style="fill:none; stroke:#4d4948; stroke-dasharray:0 0 25.2 25.2; stroke-miterlimit:10; stroke-width:5.04px;"/><polygon points="232.27 273.52 207.18 273.95 207.18 203.72 232.27 203.29 232.27 273.52" style="fill:#fff;"/><circle cx="389.75" cy="230.21" r="4.49" style="fill:gray;"/><circle cx="435.8" cy="175.67" r="4.49" style="fill:gray;"/><circle cx="389.75" cy="119.31" r="4.49" style="fill:gray;"/><circle cx="389.75" cy="69.26" r="4.49" style="fill:gray;"/><line x1="218.97" y1="7.5" x2="218.97" y2="400.47" style="fill:none; stroke:#e6e6e6; stroke-linecap:round; stroke-miterlimit:10; stroke-width:15px;"/><line x1="12.41" y1="64.3" x2="212.82" y2="64.3" style="fill:none; stroke:#e6e6e6; stroke-linecap:round; stroke-miterlimit:10; stroke-width:15px;"/><rect x="294.43" y="41.08" width="85.22" height="40.24" transform="translate(398.25 -275.84) rotate(90)" style="fill:#fff; stroke:#545454; stroke-miterlimit:10; stroke-width:.5px;"/><path d="m332.14,37.56c0,2.47-1.61,3.45-3.45,3.45-.37,0-.77-.04-1.21-.07l-.07-1.24c.46.07.82.09,1.21.09,1.09,0,2-.75,2-2.4v-9.52h1.52v9.7Z" style="fill:gray;"/><path d="m339.83,27.86c3.05,0,4.43,1.24,4.43,3.38,0,1.59-.91,2.83-2.73,3.25l3.08,6.27h-1.68l-2.83-6.02h-3.12v6.02h-1.49v-12.9h4.34Zm-2.85,5.69h2.66c2.15,0,3.06-.84,3.06-2.29s-.8-2.17-2.96-2.17h-2.77v4.46Z" style="fill:gray;"/><path d="m328.97,48.9c.1-.14.17-.14.28-.09.84.51,1.63,1.07,2.4,1.8.09.09.09.12-.02.24l-.42.49c-.17.21-.19.23-.3.12-.72-.75-1.54-1.4-2.33-1.89-.12-.07-.11-.1.02-.25l.37-.44Zm1.26,9.78c-.17.38-.3.65-.31.8-.02.1-.09.19-.14.19-.07,0-.16-.04-.28-.1-.3-.19-.51-.33-.81-.58.33-.42.56-.75.82-1.28.54-1.05,1.14-2.43,1.66-4.17.17.25.35.37.59.53.26.17.26.19.16.54-.53,1.43-1.12,2.85-1.7,4.06Zm-.46-14.09c.12-.14.18-.16.28-.09.82.52,1.61,1.16,2.29,1.87.09.11.09.18-.05.33l-.38.47c-.14.16-.17.17-.28.07-.7-.77-1.58-1.54-2.29-2-.1-.07-.1-.1.05-.26l.38-.4Zm14.26,6.14c0,.11-.02.12-.14.12-.09,0-.7-.03-2.49-.03h-6.48c-1.77,0-2.38.03-2.49.03-.12,0-.14-.02-.14-.12v-.65c0-.12.02-.14.14-.14.11,0,.72.03,2.49.03h2.59v-1.28h-1.44c-1.68,0-2.22.04-2.33.04-.12,0-.14-.02-.14-.14v-.58c0-.12.02-.14.14-.14.1,0,.65.04,2.33.04h1.44v-1.21h-1.79c-1.73,0-2.29.04-2.38.04-.12,0-.14-.02-.14-.14v-.61c0-.12.02-.14.14-.14.09,0,.65.04,2.38.04h1.79v-.12c0-.91-.02-1.35-.12-1.79.4.02.86.05,1.14.09.14.02.21.09.21.16,0,.12-.05.19-.1.32-.07.16-.09.42-.09,1.19v.16h2.15c1.73,0,2.31-.04,2.4-.04.12,0,.14.02.14.14v.61c0,.12-.02.14-.14.14-.09,0-.67-.04-2.4-.04h-2.15v1.21h1.71c1.68,0,2.21-.04,2.31-.04.12,0,.14.02.14.14v.58c0,.12-.02.14-.14.14-.1,0-.63-.04-2.31-.04h-1.71v1.28h2.85c1.79,0,2.4-.03,2.49-.03.12,0,.14.02.14.14v.65Zm-4.17,1.16c1.58,0,2.12-.04,2.21-.04.12,0,.14.02.14.14,0,.11-.04.7-.04,2.05v1.84c0,.93.02,1.86.02,2.33,0,.54-.07.93-.37,1.15-.32.23-.6.32-1.89.32-.35,0-.37,0-.46-.35-.05-.21-.14-.42-.3-.67.42.03.79.05,1.3.05.59,0,.7-.17.7-.65v-1.21h-6.09v.61c0,1.59.03,2.13.03,2.22,0,.11-.02.12-.14.12h-.79c-.12,0-.14-.02-.14-.12s.04-.58.04-2.19v-3.57c0-1.33-.04-1.84-.04-1.94,0-.12.02-.14.14-.14.09,0,.65.04,2.22.04h3.45Zm1.31.84h-6.09v1.24h6.09v-1.24Zm0,2.07h-6.09v1.24h6.09v-1.24Z" style="fill:gray;"/><path d="m333.38,66.5c.17,0,.25-.02.33-.05.07-.04.1-.05.17-.05.11,0,.23.05.47.32.28.28.35.4.35.51,0,.09-.05.16-.14.23-.11.09-.21.21-.32.52-1,2.87-2.54,5.09-5,7.02-.12.1-.19.16-.25.16-.07,0-.14-.07-.25-.23-.17-.25-.37-.44-.58-.56,2.52-1.73,4.15-3.99,5.11-6.88h-2.5c-1.29,0-1.7.04-1.79.04-.12,0-.14-.02-.14-.14v-.79c0-.1.02-.12.14-.12.09,0,.49.04,1.79.04h2.59Zm3.36-2c.32,1.45.91,2.89,1.68,4.18,1.03-.86,1.87-1.75,2.76-2.85.23-.28.37-.54.49-.84.39.23.65.4.95.65.12.09.16.16.16.24,0,.11-.09.16-.21.23-.16.09-.38.28-.8.74-.77.82-1.7,1.73-2.83,2.66,1.4,2.05,3.27,3.73,5.27,4.71-.21.16-.42.39-.61.68-.11.16-.14.23-.23.23-.05,0-.12-.05-.26-.12-2.82-1.65-5.44-4.85-6.44-8.33.05,3.04.14,6.63.14,8.82,0,.56-.17,1-.63,1.24-.33.21-.86.3-2.17.3q-.35,0-.46-.35c-.09-.31-.21-.59-.37-.8.44.04,1.03.05,1.5.05.72,0,1-.16,1-.65v-11.59c0-.96-.02-1.43-.12-1.92.4.02.84.05,1.17.09.14.02.23.09.23.16,0,.14-.07.25-.1.37-.07.19-.11.53-.11,1.29v.82Z" style="fill:gray;"/><path d="m329.83,89.32q.21.07.19.21c-.09,1.31-.25,2.5-.77,3.69-.05.12-.09.12-.25.02l-.42-.28c-.14-.09-.16-.11-.11-.23.44-.98.67-2.05.77-3.45.02-.14.04-.14.26-.07l.31.11Zm5.93-8.72c0,.12-.02.14-.14.14-.09,0-.51-.04-1.71-.04h-.74v1.68h.26c1.26,0,1.63-.04,1.71-.04.12,0,.14.02.14.14v.6c0,.12-.02.14-.14.14-.09,0-.46-.04-1.71-.04h-.26v1.68h.26c1.26,0,1.63-.04,1.71-.04.12,0,.14.02.14.14v.6c0,.12-.02.14-.14.14-.09,0-.46-.04-1.71-.04h-.26v1.75h.61c1.17,0,1.52-.03,1.63-.03s.16.03.14.16c-.02.33-.04.65-.05.98-.12,2.83-.44,4.2-.74,4.88-.3.61-.88.96-1.52.96-.3,0-.7-.02-1-.03-.21-.02-.25-.02-.3-.37-.05-.3-.12-.49-.23-.7.54.07,1.07.11,1.37.11.4,0,.65-.19.82-.51.28-.49.54-1.79.65-4.62h-3.17c-1.29,0-1.73.04-1.87.04-.12,0-.14-.02-.14-.16,0-.09.04-.68.04-1.87v-4.2c0-1.43-.04-2.01-.04-2.12,0-.12.02-.14.14-.14.14,0,.58.04,1.87.04h2.52c1.21,0,1.63-.04,1.71-.04.12,0,.14.02.14.14v.67Zm-3.5.1h-1.91v1.68h1.91v-1.68Zm0,2.49h-1.91v1.68h1.91v-1.68Zm0,2.49h-1.91v1.75h1.91v-1.75Zm-1.35,3.64c.16-.04.19-.04.21.07.19.93.3,1.79.35,2.8,0,.16-.02.17-.17.23l-.37.12c-.16.05-.19.05-.19-.11-.04-1.07-.12-1.92-.3-2.85-.03-.14,0-.14.14-.17l.33-.09Zm1.17-.12c.14-.05.17-.05.21.07.23.7.4,1.47.53,2.36.02.12,0,.14-.14.19l-.3.12c-.16.07-.19.05-.21-.07-.11-.91-.25-1.72-.47-2.42-.04-.12-.02-.12.12-.17l.26-.09Zm1.08-.19c.14-.05.17-.05.23.05.25.51.44,1.07.61,1.79.02.11,0,.12-.12.17l-.26.12c-.14.07-.17.05-.19-.05-.16-.72-.35-1.35-.58-1.82-.05-.1-.04-.12.1-.17l.21-.09Zm7.42-2.96c.35,3.13,1.44,5.95,3.76,7.75-.21.14-.42.32-.61.58-.11.14-.16.21-.21.21s-.11-.05-.23-.16c-2.28-2-3.29-4.85-3.69-8.38h-1.75c-.04,1.17-.1,2.19-.23,3.27-.23,1.77-.75,3.64-1.85,5.13-.09.12-.14.19-.19.19s-.1-.07-.23-.17c-.21-.21-.46-.37-.68-.47,1.26-1.38,1.73-3.13,1.98-5.08.23-1.75.23-3.52.23-6.21,0-1.63-.04-2.33-.04-2.42,0-.12.02-.14.14-.14.11,0,.54.04,1.96.04h2.33c1.38,0,1.86-.04,1.94-.04.12,0,.14.02.14.14,0,.09-.04.54-.04,1.75v2.96c0,1.23.04,1.61.04,1.72,0,.12-.02.14-.14.14h-.75c-.12,0-.14-.02-.14-.14v-.67h-1.73Zm1.73-4.94h-4.43v1.71c0,.88,0,1.63-.02,2.31h4.45v-4.03Z" style="fill:gray;"/><line x1="369.75" y1="7.5" x2="369.75" y2="400.47" style="fill:none; stroke:#e6e6e6; stroke-linecap:round; stroke-miterlimit:10; stroke-width:8px;"/><line x1="412.09" y1="7.5" x2="412.09" y2="400.47" style="fill:none; stroke:#e6e6e6; stroke-linecap:round; stroke-miterlimit:10; stroke-width:15px;"/><line x1="370.78" y1="102.51" x2="408.99" y2="102.51" style="fill:none; stroke:#e6e6e6; stroke-linecap:round; stroke-miterlimit:10; stroke-width:8px;"/><line x1="370.78" y1="174.46" x2="408.99" y2="174.46" style="fill:none; stroke:#e6e6e6; stroke-linecap:round; stroke-miterlimit:10; stroke-width:8px;"/><line x1="370.78" y1="246.41" x2="408.99" y2="246.41" style="fill:none; stroke:#e6e6e6; stroke-linecap:round; stroke-miterlimit:10; stroke-width:8px;"/><line x1="122.38" y1="293.09" x2="408.99" y2="293.09" style="fill:none; stroke:#e6e6e6; stroke-linecap:round; stroke-miterlimit:10; stroke-width:8px;"/><path d="m153.9,337.57h-43.38c-12.39,0-55.98,12.36-95.89,29.65" style="fill:none; stroke:#6a6766; stroke-miterlimit:10; stroke-width:7.56px;"/><path d="m153.9,337.57h-43.38c-12.39,0-55.98,12.36-95.89,29.65" style="fill:none; stroke:#fff; stroke-miterlimit:10; stroke-width:5.04px;"/><path d="m153.9,337.57h-43.38c-12.39,0-55.98,12.36-95.89,29.65" style="fill:none; stroke:#6a6766; stroke-dasharray:0 0 11 13; stroke-miterlimit:10; stroke-width:5.04px;"/><rect x="124.72" y="322.48" width="85.22" height="32.41" style="fill:#fff; stroke:#545454; stroke-miterlimit:10; stroke-width:.5px;"/><path d="m140.42,339.96c0,.12-.02.14-.14.14-.09,0-.58-.04-2.12-.04h-.54c.7,1.02,1.42,1.56,2.59,2.24-.14.14-.3.33-.42.61-.07.14-.11.21-.16.21s-.12-.05-.25-.16c-.86-.63-1.52-1.33-2.14-2.34.04,2.82.12,4.48.12,5.21,0,.12-.02.14-.16.14h-.79c-.12,0-.14-.02-.14-.14,0-.72.05-2.29.1-5-.72,1.4-1.61,2.5-2.98,3.61-.12.09-.19.14-.26.14s-.1-.07-.17-.21c-.12-.26-.31-.51-.47-.65,1.54-1.03,2.64-2.14,3.5-3.66h-.89c-1.54,0-2.05.04-2.14.04-.12,0-.14-.02-.14-.14v-.7c0-.12.02-.14.14-.14.09,0,.6.04,2.14.04h1.22v-.04c0-.82-.02-1.24-.1-1.64.37.02.77.05,1.07.09.11.02.17.07.17.14,0,.1-.04.17-.07.25-.05.12-.09.33-.09,1.17v.04h.84c1.54,0,2.03-.04,2.12-.04.12,0,.14.02.14.14v.7Zm.3-2.94c0,.12-.02.14-.14.14-.1,0-.61-.04-2.17-.04h-3.38c-1.58,0-2.08.04-2.17.04-.12,0-.14-.02-.14-.14v-.72c0-.12.02-.14.14-.14.09,0,.59.03,2.17.03h2.31c.38-.77.61-1.4.8-2,.09-.26.14-.47.16-.75.38.09.67.16.94.25.16.05.21.12.21.21s-.05.14-.12.21c-.09.09-.17.19-.26.4-.23.58-.46,1.07-.77,1.68h.1c1.52,0,2.03-.03,2.17-.03.12,0,.14.02.14.14v.72Zm-.28-4.13c0,.12-.02.14-.14.14-.09,0-.58-.04-2.08-.04h-2.91c-1.5,0-2,.04-2.08.04-.12,0-.14-.02-.14-.14v-.68c0-.12.02-.14.14-.14.09,0,.58.04,2.08.04h1.01v-.54c0-.44-.02-.88-.12-1.26.46.02.79.04,1.14.09.14.02.23.07.23.14,0,.12-.05.21-.11.31-.09.16-.09.3-.09.72v.54h.84c1.5,0,2-.04,2.08-.04.12,0,.14.02.14.14v.68Zm-5.48.63c.14-.05.18-.03.25.07.33.56.58,1.16.75,1.73.04.12.02.18-.16.25l-.44.17c-.23.07-.28.07-.32-.09-.17-.63-.37-1.19-.67-1.75-.07-.12-.05-.16.17-.25l.4-.14Zm13.6,3.52c0,.12-.02.14-.14.14-.09,0-.58-.04-2.12-.04h-.09v6.18c0,1.89.04,2.52.04,2.61,0,.14-.02.14-.14.14h-.86c-.12,0-.14,0-.14-.14,0-.09.04-.72.04-2.61v-6.18h-2.61c0,1.86-.05,3.64-.44,5.13-.3,1.14-.68,2.14-1.79,3.47-.11.14-.18.19-.25.19s-.12-.04-.23-.14c-.18-.18-.4-.3-.67-.4,1.12-1.17,1.68-2.38,2-3.67.28-1.17.35-2.71.35-4.92v-2.15c0-.96-.04-1.71-.12-2.47.42.09.72.18,1.14.35,1.43-.38,2.61-.89,3.48-1.37.35-.19.63-.4.88-.63.28.23.56.52.77.79.07.09.1.16.1.25,0,.07-.09.14-.23.16-.19.02-.38.09-.65.21-1.17.58-2.68,1.14-4.36,1.57v2.7h3.76c1.54,0,2.03-.03,2.12-.03.12,0,.14.02.14.14v.74Z" style="fill:gray;"/><path d="m150.87,335.13c.1-.14.17-.14.28-.09.84.51,1.63,1.07,2.4,1.8.09.09.09.12-.02.24l-.42.49c-.17.21-.19.23-.3.12-.72-.75-1.54-1.4-2.33-1.89-.12-.07-.11-.1.02-.25l.37-.44Zm1.26,9.78c-.17.38-.3.65-.31.8-.02.1-.09.19-.14.19-.07,0-.16-.04-.28-.1-.3-.19-.51-.33-.81-.58.33-.42.56-.75.82-1.28.54-1.05,1.14-2.43,1.66-4.17.17.25.35.37.59.53.26.17.26.19.16.54-.53,1.43-1.12,2.85-1.7,4.06Zm-.46-14.09c.12-.14.18-.16.28-.09.82.52,1.61,1.16,2.29,1.87.09.11.09.18-.05.33l-.38.47c-.14.16-.17.17-.28.07-.7-.77-1.58-1.54-2.29-2-.1-.07-.1-.1.05-.26l.38-.4Zm14.26,6.14c0,.11-.02.12-.14.12-.09,0-.7-.03-2.49-.03h-6.48c-1.77,0-2.38.03-2.49.03-.12,0-.14-.02-.14-.12v-.65c0-.12.02-.14.14-.14.11,0,.72.03,2.49.03h2.59v-1.28h-1.44c-1.68,0-2.22.04-2.33.04-.12,0-.14-.02-.14-.14v-.58c0-.12.02-.14.14-.14.1,0,.65.04,2.33.04h1.44v-1.21h-1.79c-1.73,0-2.29.04-2.38.04-.12,0-.14-.02-.14-.14v-.61c0-.12.02-.14.14-.14.09,0,.65.04,2.38.04h1.79v-.12c0-.91-.02-1.35-.12-1.79.4.02.86.05,1.14.09.14.02.21.09.21.16,0,.12-.05.19-.1.32-.07.16-.09.42-.09,1.19v.16h2.15c1.73,0,2.31-.04,2.4-.04.12,0,.14.02.14.14v.61c0,.12-.02.14-.14.14-.09,0-.67-.04-2.4-.04h-2.15v1.21h1.71c1.68,0,2.21-.04,2.31-.04.12,0,.14.02.14.14v.58c0,.12-.02.14-.14.14-.1,0-.63-.04-2.31-.04h-1.71v1.28h2.85c1.79,0,2.4-.03,2.49-.03.12,0,.14.02.14.14v.65Zm-4.17,1.16c1.58,0,2.12-.04,2.21-.04.12,0,.14.02.14.14,0,.11-.04.7-.04,2.05v1.84c0,.93.02,1.86.02,2.33,0,.54-.07.93-.37,1.15-.32.23-.6.32-1.89.32-.35,0-.37,0-.46-.35-.05-.21-.14-.42-.3-.67.42.03.79.05,1.3.05.59,0,.7-.17.7-.65v-1.21h-6.09v.61c0,1.59.03,2.13.03,2.22,0,.11-.02.12-.14.12h-.79c-.12,0-.14-.02-.14-.12s.04-.58.04-2.19v-3.57c0-1.33-.04-1.84-.04-1.94,0-.12.02-.14.14-.14.09,0,.65.04,2.22.04h3.45Zm1.31.84h-6.09v1.24h6.09v-1.24Zm0,2.07h-6.09v1.24h6.09v-1.24Z" style="fill:gray;"/><path d="m172.68,335.24c.17,0,.25-.02.33-.05.07-.04.11-.05.17-.05.11,0,.23.05.47.32.28.28.35.4.35.51,0,.09-.05.16-.14.23-.1.09-.21.21-.31.52-1,2.87-2.54,5.09-5.01,7.02-.12.1-.19.16-.25.16-.07,0-.14-.07-.25-.23-.17-.25-.37-.44-.58-.56,2.52-1.73,4.15-3.99,5.11-6.88h-2.5c-1.29,0-1.7.04-1.79.04-.12,0-.14-.02-.14-.14v-.79c0-.1.02-.12.14-.12.09,0,.49.04,1.79.04h2.59Zm3.36-2c.31,1.45.91,2.89,1.68,4.18,1.03-.86,1.87-1.75,2.77-2.85.23-.28.37-.54.49-.84.38.23.65.4.95.65.12.09.16.16.16.24,0,.11-.09.16-.21.23-.16.09-.39.28-.81.74-.77.82-1.7,1.73-2.83,2.66,1.4,2.05,3.27,3.73,5.27,4.71-.21.16-.42.39-.61.68-.1.16-.14.23-.23.23-.05,0-.12-.05-.26-.12-2.82-1.65-5.44-4.85-6.44-8.33.05,3.04.14,6.63.14,8.82,0,.56-.18,1-.63,1.24-.33.21-.86.3-2.17.3q-.35,0-.46-.35c-.09-.31-.21-.59-.37-.8.44.04,1.03.05,1.5.05.72,0,1-.16,1-.65v-11.59c0-.96-.02-1.43-.12-1.92.4.02.84.05,1.17.09.14.02.23.09.23.16,0,.14-.07.25-.11.37-.07.19-.1.53-.1,1.29v.82Z" style="fill:gray;"/><path d="m186.66,340.56q.21.07.19.21c-.09,1.31-.25,2.5-.77,3.69-.05.12-.09.12-.25.02l-.42-.28c-.14-.09-.16-.11-.1-.23.44-.98.67-2.05.77-3.45.02-.14.04-.14.26-.07l.32.11Zm5.93-8.72c0,.12-.02.14-.14.14-.09,0-.51-.04-1.72-.04h-.73v1.68h.26c1.26,0,1.63-.04,1.71-.04.12,0,.14.02.14.14v.6c0,.12-.02.14-.14.14-.09,0-.46-.04-1.71-.04h-.26v1.68h.26c1.26,0,1.63-.04,1.71-.04.12,0,.14.02.14.14v.6c0,.12-.02.14-.14.14-.09,0-.46-.04-1.71-.04h-.26v1.75h.61c1.17,0,1.52-.03,1.63-.03s.16.03.14.16c-.02.33-.04.65-.05.98-.12,2.84-.44,4.2-.73,4.88-.3.61-.88.96-1.52.96-.3,0-.7-.02-1-.03-.21-.02-.25-.02-.3-.37-.05-.3-.12-.49-.23-.7.54.07,1.07.11,1.37.11.4,0,.65-.19.82-.51.28-.49.54-1.79.65-4.62h-3.17c-1.3,0-1.73.04-1.87.04-.12,0-.14-.02-.14-.16,0-.09.03-.68.03-1.87v-4.2c0-1.43-.03-2.01-.03-2.12,0-.12.02-.14.14-.14.14,0,.58.04,1.87.04h2.52c1.21,0,1.63-.04,1.72-.04.12,0,.14.02.14.14v.67Zm-3.5.1h-1.91v1.68h1.91v-1.68Zm0,2.49h-1.91v1.68h1.91v-1.68Zm0,2.49h-1.91v1.75h1.91v-1.75Zm-1.35,3.64c.16-.04.19-.04.21.07.19.93.3,1.79.35,2.8,0,.16-.02.17-.17.23l-.37.12c-.16.05-.19.05-.19-.11-.04-1.07-.12-1.92-.3-2.85-.04-.14,0-.14.14-.17l.33-.09Zm1.17-.12c.14-.05.17-.05.21.07.23.7.4,1.47.52,2.36.02.12,0,.14-.14.19l-.3.12c-.16.07-.19.05-.21-.07-.1-.91-.25-1.72-.47-2.42-.04-.12-.02-.12.12-.17l.26-.09Zm1.08-.19c.14-.05.17-.05.23.05.25.51.44,1.07.61,1.79.02.11,0,.12-.12.17l-.26.12c-.14.07-.18.05-.19-.05-.16-.72-.35-1.35-.58-1.82-.05-.1-.04-.12.11-.17l.21-.09Zm7.42-2.96c.35,3.13,1.43,5.95,3.76,7.75-.21.14-.42.32-.61.58-.11.14-.16.21-.21.21s-.1-.05-.23-.16c-2.27-2-3.29-4.85-3.69-8.38h-1.75c-.04,1.17-.11,2.19-.23,3.27-.23,1.77-.75,3.64-1.86,5.13-.09.12-.14.19-.19.19s-.11-.07-.23-.17c-.21-.21-.46-.37-.68-.47,1.26-1.38,1.73-3.13,1.98-5.08.23-1.75.23-3.52.23-6.21,0-1.63-.04-2.33-.04-2.42,0-.12.02-.14.14-.14.1,0,.54.04,1.96.04h2.33c1.38,0,1.85-.04,1.94-.04.12,0,.14.02.14.14,0,.09-.04.54-.04,1.75v2.96c0,1.23.04,1.61.04,1.72,0,.12-.02.14-.14.14h-.75c-.12,0-.14-.02-.14-.14v-.67h-1.73Zm1.73-4.94h-4.43v1.71c0,.88,0,1.63-.02,2.31h4.45v-4.03Z" style="fill:gray;"/><path d="m426.8,155.81c.09-.12.14-.12.26-.05.82.46,1.66,1.1,2.43,1.84.09.09.07.12-.05.28l-.37.47c-.14.17-.17.19-.28.09-.74-.74-1.51-1.38-2.35-1.89-.12-.07-.14-.1,0-.28l.35-.46Zm1.4,9.82c-.17.37-.26.63-.31.79-.04.12-.09.19-.18.19-.05,0-.12-.02-.23-.09-.28-.19-.51-.33-.84-.6.32-.37.58-.8.88-1.45.39-.84.95-2.29,1.47-4.03.16.19.33.35.56.52q.28.21.19.51c-.44,1.45-1,2.91-1.54,4.15Zm-.46-14.14c.12-.14.16-.16.28-.09.82.53,1.65,1.23,2.33,1.94.09.09.09.12-.04.28l-.39.49c-.14.17-.17.17-.26.09-.7-.77-1.52-1.47-2.33-2.03-.12-.09-.09-.12.02-.25l.38-.44Zm14.21,1.84c0,.12-.02.14-.14.14-.07,0-.46-.02-1.49-.04v8.14c0,1.87.04,2.66.04,3.27,0,.72-.14,1.08-.49,1.35-.32.23-.88.33-2.42.33q-.35,0-.44-.35c-.07-.3-.17-.56-.32-.8.53.05,1.08.07,1.66.07.67,0,.88-.16.88-.7v-11.31h-5.72c-1.77,0-2.34.04-2.43.04-.12,0-.14-.02-.14-.14v-.77c0-.12.02-.14.14-.14.09,0,.67.03,2.43.03h5.85c1.77,0,2.36-.03,2.45-.03.12,0,.14.02.14.14v.77Zm-5.08,6.09c0,2.33.04,2.71.04,2.8,0,.12-.02.14-.16.14h-.74c-.12,0-.14-.02-.14-.14v-.79h-3.2v1.35c0,.12-.02.14-.14.14h-.75c-.12,0-.14-.02-.14-.14,0-.1.04-.51.04-3.03v-1.45c0-1.4-.04-1.84-.04-1.94,0-.12.02-.14.14-.14.09,0,.47.03,1.63.03h1.71c1.17,0,1.54-.03,1.63-.03.14,0,.16.02.16.14,0,.09-.04.51-.04,1.58v1.49Zm-1-2.26h-3.2v3.36h3.2v-3.36Z" style="fill:gray;"/><path d="m458.04,157.16c0,.12-.02.14-.14.14-.09,0-.68-.04-2.43-.04h-9.59v1.12c0,1.52-.07,2.54-.26,3.67-.25,1.56-.74,2.8-1.66,4.29-.09.14-.12.21-.19.21-.05,0-.12-.07-.23-.19-.21-.23-.46-.42-.65-.49,1-1.38,1.47-2.57,1.73-4.2.17-.98.21-2,.21-3.5,0-1.17-.04-1.66-.04-1.75,0-.12.02-.14.14-.14.09,0,.72.04,2.47.04h8.07c1.75,0,2.35-.04,2.43-.04.12,0,.14.02.14.14v.73Zm-1.98-4.17c0-.38,0-.61-.1-1.03.4.02.82.05,1.14.09.1.02.19.07.19.16,0,.07-.04.12-.09.23-.05.12-.09.28-.09.61v.51c0,.77.04,1.09.04,1.16,0,.12-.02.14-.14.14-.1,0-.72-.04-2.5-.04h-6.83c-1.77,0-2.4.04-2.49.04-.12,0-.14-.02-.14-.14,0-.07.03-.4.03-1.14v-.47c0-.35-.02-.61-.09-1.1.44.02.75.05,1.1.11.16.04.21.09.21.16,0,.12-.04.17-.11.32-.05.09-.07.17-.07.47v.88h4.3v-1.07c0-.95-.02-1.4-.1-1.87.42.02.79.05,1.16.1.12.02.19.09.19.14,0,.14-.07.21-.11.33-.05.18-.09.44-.09,1.3v1.07h4.57v-.93Zm2.29,9.89c0,.12-.02.14-.14.14-.11,0-.7-.04-2.49-.04h-3.31v1.33c0,1.59.04,2.28.04,2.36,0,.1-.02.12-.14.12h-.84c-.12,0-.14-.02-.14-.12s.03-.77.03-2.36v-1.33h-2.38c-1.77,0-2.38.04-2.49.04-.12,0-.14-.02-.14-.14v-.74c0-.12.02-.14.14-.14.11,0,.72.04,2.49.04h2.38v-2.15h-1.59c-1.71,0-2.27.04-2.38.04-.12,0-.14-.02-.14-.14v-.72c0-.12.02-.14.14-.14.11,0,.67.04,2.38.04h4.76c1.72,0,2.28-.04,2.38-.04.12,0,.14.02.14.14v.72c0,.12-.02.14-.14.14-.11,0-.67-.04-2.38-.04h-2.12v2.15h3.31c1.79,0,2.38-.04,2.49-.04.12,0,.14.02.14.14v.74Z" style="fill:gray;"/><path d="m468.45,154.48c-.32,2.96-1.21,5.86-2.31,7.65-.75,1.28-1.54,1.8-2.57,1.8-1.31,0-2.56-1.43-2.56-3.97,0-1.61.74-3.33,2.03-4.53s3.04-1.94,5.25-1.94c3.92,0,6.25,2.29,6.25,5.64,0,2.85-1.77,5.15-5.57,6.11-.21.05-.33.02-.46-.19-.1-.17-.33-.44-.68-.65,3.47-.68,5.46-2.56,5.46-5.48,0-2.59-2.01-4.43-4.52-4.43h-.33Zm-4.64,1.68c-1.17,1.16-1.68,2.59-1.68,3.78,0,1.91.79,2.73,1.42,2.73.59,0,1.12-.39,1.63-1.28.89-1.58,1.82-4.29,2.05-6.84-1.37.17-2.57.77-3.41,1.61Z" style="fill:gray;"/><path d="m491.43,154.57c0,.12-.02.14-.14.14-.11,0-.65-.04-2.31-.04h-10.13c-1.66,0-2.22.04-2.31.04-.12,0-.14-.02-.14-.14v-.81c0-.12.02-.14.14-.14.09,0,.65.04,2.31.04h4.29v-.79c0-.89-.02-1.35-.12-1.79.42.02.84.04,1.22.11.12.02.21.07.21.12,0,.12-.05.21-.1.33-.05.17-.09.44-.09,1.22v.79h4.73c1.66,0,2.21-.04,2.31-.04.12,0,.14.02.14.14v.81Zm-4.22,2.8c1.79,0,2.42-.03,2.5-.03.12,0,.14.02.14.14,0,.1-.04.65-.04,1.98v2.29c0,.53.02,1.05.02,1.49,0,.51-.09.81-.38,1.05-.28.26-.7.38-2.29.38-.33,0-.35-.02-.42-.32-.07-.3-.17-.58-.32-.77.56.04,1.1.05,1.52.05.54,0,.75-.16.75-.73v-4.55h-4.45v5.69c0,1.75.04,2.5.04,2.59,0,.12-.02.14-.14.14h-.91c-.12,0-.14-.02-.14-.14,0-.09.04-.84.04-2.59v-5.69h-3.99v4.1c0,1.5.04,2.01.04,2.1,0,.12-.02.14-.14.14h-.93c-.11,0-.12-.02-.12-.14,0-.09.04-.52.04-2.08v-3.13c0-1.3-.04-1.75-.04-1.86,0-.12.02-.14.12-.14s.72.03,2.5.03h2.52v-.33c0-.89-.02-1.35-.1-1.79.42.02.8.04,1.21.1.12.02.21.07.21.14,0,.1-.05.21-.1.33-.07.16-.09.42-.09,1.19v.35h2.96Z" style="fill:gray;"/><path d="m410.33,116.29c.79,0,1.12-.05,1.28-.14.16-.09.32-.07.44.05.3.26.54.53.75.82.16.23.09.4-.09.53-.26.19-.44.28-.82.74-1.29,1.52-3.13,3.4-4.99,4.88.6.59,1.26,1.35,1.8,2.05.12.14.12.23,0,.37-.19.21-.42.4-.65.56-.14.09-.19.1-.3-.05-1.58-2.03-3.38-3.8-5.41-5.25.21-.21.51-.51.7-.68.12-.1.18-.09.33,0,1.01.77,1.89,1.47,2.7,2.21,1.82-1.5,3.67-3.43,4.85-4.97l-7.7.03c-1.42,0-2.5.07-3.47.14-.19.02-.25-.04-.28-.19-.05-.35-.12-.79-.14-1.23,1.16.12,2.36.14,3.89.14h7.11Z" style="fill:gray;"/><path d="m417.42,116.33c0-1.1-.07-1.91-.19-2.54.47.05,1.08.17,1.44.28.23.07.23.26.16.42-.12.23-.17.73-.17,1.84v2.96c0,.91.02,1.56.05,2.31,0,.21-.07.28-.26.28h-.82c-.17,0-.25-.07-.23-.26.02-.75.04-1.54.04-2.4v-2.89Zm7.33,3.15c0,2.71-.63,4.31-1.52,5.44-.84,1.03-2.28,2.01-3.83,2.57-.19.07-.31.07-.49-.09-.25-.26-.51-.46-.88-.65,1.79-.53,3.24-1.4,4.08-2.4.86-1.05,1.4-2.49,1.4-4.78v-3.01c0-1.71-.05-2.43-.19-3.06.53.05,1.1.16,1.49.28.21.07.21.26.12.44-.12.25-.17.77-.17,2.29v2.96Z" style="fill:gray;"/><path d="m439.67,117.82c.95,0,1.98,0,2.98-.04.21-.02.26.02.26.21.02.25.02.54,0,.77,0,.19-.04.23-.25.23-.89-.02-2.01-.05-2.98-.05h-2.61c-.11,2.28-.35,3.61-1.21,5.02-.89,1.47-2.34,2.66-3.71,3.4-.19.12-.37.09-.49-.05-.21-.23-.51-.38-.86-.54,1.71-.86,3.1-1.91,3.92-3.27.81-1.29,1.05-2.69,1.12-4.55h-3.67c-.89,0-1.68.04-2.52.09-.17.02-.21-.03-.23-.23-.04-.21-.09-.7-.1-1.05,1.07.09,1.94.09,2.87.09h3.71c0-.95,0-1.59-.02-2.57-.02-.72-.05-1.29-.19-1.87.54.03,1.12.09,1.47.19.24.07.23.25.14.42-.11.26-.17.63-.17,1.03,0,.98,0,1.8-.02,2.78h2.55Z" style="fill:gray;"/><path d="m448.54,121.09c-1.52,0-2.26.17-2.36.17-.16,0-.25-.07-.3-.25-.07-.3-.14-.86-.17-1.33,1.07.14,2.42.16,3.87.16h5.37c1.21,0,2.5-.02,3.83-.05.21-.02.26.02.26.21.02.26.02.63,0,.91,0,.19-.05.23-.26.21-1.31-.04-2.61-.04-3.78-.04h-6.46Z" style="fill:gray;"/><path d="m465.75,118.33c2.01.58,3.96,1.4,5.71,2.43.14.07.17.16.12.28-.12.32-.28.63-.42.86-.1.14-.17.17-.33.07-1.63-1.07-3.5-1.89-5.09-2.34v4.06c0,1.07.03,2.43.05,3.57.02.17-.03.23-.23.23-.26.02-.61.02-.89,0-.19,0-.25-.05-.25-.25.05-1.12.07-2.49.07-3.55v-7.79c0-1.31-.07-2.21-.19-2.8.61.05,1.14.12,1.45.23.28.07.21.26.12.53-.11.3-.12.82-.12,1.94v2.54Z" style="fill:gray;"/><path d="m383.34,28.15c.11-.14.18-.14.28-.09.84.51,1.63,1.07,2.4,1.8.09.09.09.12-.02.24l-.42.49c-.17.21-.19.23-.3.12-.72-.75-1.54-1.4-2.33-1.89-.12-.07-.1-.1.02-.25l.37-.44Zm1.26,9.78c-.17.38-.3.65-.32.8-.02.1-.09.19-.14.19-.07,0-.16-.04-.28-.1-.3-.19-.51-.33-.8-.58.33-.42.56-.75.82-1.28.54-1.05,1.14-2.43,1.66-4.17.17.25.35.37.59.53.26.17.26.19.16.54-.52,1.43-1.12,2.85-1.7,4.06Zm-.46-14.09c.12-.14.17-.16.28-.09.82.52,1.61,1.16,2.29,1.87.09.11.09.18-.05.33l-.39.47c-.14.16-.17.17-.28.07-.7-.77-1.58-1.54-2.29-2-.11-.07-.11-.1.05-.26l.38-.4Zm14.26,6.14c0,.11-.02.12-.14.12-.09,0-.7-.03-2.49-.03h-6.48c-1.77,0-2.38.03-2.49.03-.12,0-.14-.02-.14-.12v-.65c0-.12.02-.14.14-.14.1,0,.72.03,2.49.03h2.59v-1.28h-1.43c-1.68,0-2.22.04-2.33.04-.12,0-.14-.02-.14-.14v-.58c0-.12.02-.14.14-.14.11,0,.65.04,2.33.04h1.43v-1.21h-1.79c-1.73,0-2.29.04-2.38.04-.12,0-.14-.02-.14-.14v-.61c0-.12.02-.14.14-.14.09,0,.65.04,2.38.04h1.79v-.12c0-.91-.02-1.35-.12-1.79.4.02.86.05,1.14.09.14.02.21.09.21.16,0,.12-.05.19-.11.32-.07.16-.09.42-.09,1.19v.16h2.15c1.73,0,2.31-.04,2.4-.04.12,0,.14.02.14.14v.61c0,.12-.02.14-.14.14-.09,0-.67-.04-2.4-.04h-2.15v1.21h1.71c1.68,0,2.21-.04,2.31-.04.12,0,.14.02.14.14v.58c0,.12-.02.14-.14.14-.11,0-.63-.04-2.31-.04h-1.71v1.28h2.85c1.79,0,2.4-.03,2.49-.03.12,0,.14.02.14.14v.65Zm-4.17,1.16c1.58,0,2.12-.04,2.21-.04.12,0,.14.02.14.14,0,.11-.04.7-.04,2.05v1.84c0,.93.02,1.86.02,2.33,0,.54-.07.93-.37,1.15-.32.23-.59.32-1.89.32-.35,0-.37,0-.46-.35-.05-.21-.14-.42-.3-.67.42.03.79.05,1.29.05.59,0,.7-.17.7-.65v-1.21h-6.09v.61c0,1.59.04,2.13.04,2.22,0,.11-.02.12-.14.12h-.79c-.12,0-.14-.02-.14-.12s.04-.58.04-2.19v-3.57c0-1.33-.04-1.84-.04-1.94,0-.12.02-.14.14-.14.09,0,.65.04,2.22.04h3.45Zm1.31.84h-6.09v1.24h6.09v-1.24Zm0,2.07h-6.09v1.24h6.09v-1.24Z" style="fill:gray;"/><path d="m405.15,28.26c.17,0,.25-.02.33-.05.07-.04.11-.05.17-.05.11,0,.23.05.47.32.28.28.35.4.35.51,0,.09-.05.16-.14.23-.1.09-.21.21-.31.52-1,2.87-2.54,5.09-5.01,7.02-.12.1-.19.16-.25.16-.07,0-.14-.07-.25-.23-.17-.25-.37-.44-.58-.56,2.52-1.73,4.15-3.99,5.11-6.88h-2.5c-1.29,0-1.7.04-1.79.04-.12,0-.14-.02-.14-.14v-.79c0-.1.02-.12.14-.12.09,0,.49.04,1.79.04h2.59Zm3.36-2c.31,1.45.91,2.89,1.68,4.18,1.03-.86,1.87-1.75,2.77-2.85.23-.28.37-.54.49-.84.38.23.65.4.95.65.12.09.16.16.16.24,0,.11-.09.16-.21.23-.16.09-.39.28-.81.74-.77.82-1.7,1.73-2.83,2.66,1.4,2.05,3.27,3.73,5.27,4.71-.21.16-.42.39-.61.68-.1.16-.14.23-.23.23-.05,0-.12-.05-.26-.12-2.82-1.65-5.44-4.85-6.44-8.33.05,3.04.14,6.63.14,8.82,0,.56-.18,1-.63,1.24-.33.21-.86.3-2.17.3q-.35,0-.46-.35c-.09-.31-.21-.59-.37-.8.44.04,1.03.05,1.5.05.72,0,1-.16,1-.65v-11.59c0-.96-.02-1.43-.12-1.92.4.02.84.05,1.17.09.14.02.23.09.23.16,0,.14-.07.25-.11.37-.07.19-.1.53-.1,1.29v.82Z" style="fill:gray;"/><path d="m419.13,33.58q.21.07.19.21c-.09,1.31-.25,2.5-.77,3.69-.05.12-.09.12-.25.02l-.42-.28c-.14-.09-.16-.11-.1-.23.44-.98.67-2.05.77-3.45.02-.14.04-.14.26-.07l.32.11Zm5.93-8.72c0,.12-.02.14-.14.14-.09,0-.51-.04-1.72-.04h-.73v1.68h.26c1.26,0,1.63-.04,1.71-.04.12,0,.14.02.14.14v.6c0,.12-.02.14-.14.14-.09,0-.46-.04-1.71-.04h-.26v1.68h.26c1.26,0,1.63-.04,1.71-.04.12,0,.14.02.14.14v.6c0,.12-.02.14-.14.14-.09,0-.46-.04-1.71-.04h-.26v1.75h.61c1.17,0,1.52-.03,1.63-.03s.16.03.14.16c-.02.33-.04.65-.05.98-.12,2.84-.44,4.2-.73,4.88-.3.61-.88.96-1.52.96-.3,0-.7-.02-1-.03-.21-.02-.25-.02-.3-.37-.05-.3-.12-.49-.23-.7.54.07,1.07.11,1.37.11.4,0,.65-.19.82-.51.28-.49.54-1.79.65-4.62h-3.17c-1.3,0-1.73.04-1.87.04-.12,0-.14-.02-.14-.16,0-.09.03-.68.03-1.87v-4.2c0-1.43-.03-2.01-.03-2.12,0-.12.02-.14.14-.14.14,0,.58.04,1.87.04h2.52c1.21,0,1.63-.04,1.72-.04.12,0,.14.02.14.14v.67Zm-3.5.1h-1.91v1.68h1.91v-1.68Zm0,2.49h-1.91v1.68h1.91v-1.68Zm0,2.49h-1.91v1.75h1.91v-1.75Zm-1.35,3.64c.16-.04.19-.04.21.07.19.93.3,1.79.35,2.8,0,.16-.02.17-.17.23l-.37.12c-.16.05-.19.05-.19-.11-.04-1.07-.12-1.92-.3-2.85-.04-.14,0-.14.14-.17l.33-.09Zm1.17-.12c.14-.05.17-.05.21.07.23.7.4,1.47.52,2.36.02.12,0,.14-.14.19l-.3.12c-.16.07-.19.05-.21-.07-.1-.91-.25-1.72-.47-2.42-.04-.12-.02-.12.12-.17l.26-.09Zm1.08-.19c.14-.05.17-.05.23.05.25.51.44,1.07.61,1.79.02.11,0,.12-.12.17l-.26.12c-.14.07-.18.05-.19-.05-.16-.72-.35-1.35-.58-1.82-.05-.1-.04-.12.11-.17l.21-.09Zm7.42-2.96c.35,3.13,1.43,5.95,3.76,7.75-.21.14-.42.32-.61.58-.11.14-.16.21-.21.21s-.1-.05-.23-.16c-2.27-2-3.29-4.85-3.69-8.38h-1.75c-.04,1.17-.11,2.19-.23,3.27-.23,1.77-.75,3.64-1.86,5.13-.09.12-.14.19-.19.19s-.11-.07-.23-.17c-.21-.21-.46-.37-.68-.47,1.26-1.38,1.73-3.13,1.98-5.08.23-1.75.23-3.52.23-6.21,0-1.63-.04-2.33-.04-2.42,0-.12.02-.14.14-.14.1,0,.54.04,1.96.04h2.33c1.38,0,1.85-.04,1.94-.04.12,0,.14.02.14.14,0,.09-.04.54-.04,1.75v2.96c0,1.23.04,1.61.04,1.72,0,.12-.02.14-.14.14h-.75c-.12,0-.14-.02-.14-.14v-.67h-1.73Zm1.73-4.94h-4.43v1.71c0,.88,0,1.63-.02,2.31h4.45v-4.03Z" style="fill:gray;"/><path d="m391.44,54.41c1.96,1.86,4.57,3.04,7.51,3.85-.19.19-.35.4-.49.68-.16.33-.17.31-.47.21-2.42-.84-5.15-2.1-7.18-4.38,0,2.59.14,4.52.14,4.76,0,.12-.02.12-.14.12h-.89c-.12,0-.14,0-.14-.12,0-.25.1-2.1.12-4.64-1.59,1.92-3.99,3.2-6.62,4.22-.12.05-.21.09-.26.09-.11,0-.16-.09-.25-.28-.12-.26-.28-.44-.46-.61,2.77-.81,5.15-2.07,6.93-3.9h-1.87c-1.77,0-2.4.04-2.49.04-.12,0-.14-.02-.14-.14,0-.11.04-.49.04-1.65v-2.52c0-1.16-.04-1.56-.04-1.65,0-.12.02-.14.14-.14.09,0,.72.04,2.49.04h2.45v-1.54h-4.66c-1.63,0-2.15.04-2.26.04-.12,0-.14-.02-.14-.14v-.72c0-.12.02-.14.14-.14.11,0,.63.04,2.26.04h4.66v-.11c0-.98,0-1.29-.12-1.92.42,0,.8.04,1.16.09.14.02.23.09.23.14,0,.14-.05.23-.11.35-.07.21-.1.51-.1,1.38v.07h5.06c1.63,0,2.15-.04,2.26-.04s.12.02.12.14v.72c0,.12-.02.14-.12.14s-.63-.04-2.26-.04h-5.06v1.54h2.78c1.79,0,2.42-.04,2.5-.04.12,0,.14.02.14.14,0,.09-.04.49-.04,1.65v2.52c0,1.16.04,1.56.04,1.65,0,.12-.02.14-.14.14-.09,0-.72-.04-2.5-.04h-2.22Zm-1.61-5.18h-4.03v1.7h4.03v-1.7Zm0,2.52h-4.03v1.82h4.03v-1.82Zm5.43-2.52h-4.38v1.7h4.38v-1.7Zm0,2.52h-4.38v1.82h4.38v-1.82Z" style="fill:gray;"/><path d="m413.97,53.19c0,4.66.02,5.44.02,5.55,0,.12-.02.14-.12.14h-.88c-.12,0-.14-.02-.14-.14v-1.49h-10.29v1.51c0,.12-.02.14-.16.14h-.86c-.1,0-.12-.02-.12-.14,0-.11.02-.89.02-5.57v-3.24c0-3.22-.02-4.04-.02-4.15,0-.12.02-.14.12-.14s.74.04,2.5.04h7.32c1.77,0,2.4-.04,2.5-.04s.12.02.12.14c0,.11-.02.93-.02,3.78v3.61Zm-1.12-6.46h-10.29v9.49h10.29v-9.49Z" style="fill:gray;"/><path d="m432.09,47.26c0,.12-.02.14-.14.14-.09,0-.68-.03-2.43-.03h-9.68v2.66c0,1.61-.1,3.36-.46,5.13-.31,1.54-.79,2.71-1.59,4.03-.09.14-.12.23-.19.23-.05,0-.1-.07-.23-.19-.21-.23-.49-.42-.68-.51.91-1.31,1.33-2.35,1.66-3.97.35-1.56.4-3.36.4-4.85,0-2.33-.04-3.31-.04-3.4,0-.12.02-.14.14-.14.11,0,.72.04,2.49.04h3.33v-1c0-.54-.02-1-.12-1.42.44.02.86.05,1.21.09.12.02.21.07.21.14,0,.12-.05.21-.11.33-.07.14-.1.42-.1.84v1.02h3.76c1.75,0,2.34-.04,2.43-.04.12,0,.14.02.14.14v.77Zm-4.27,5.76c.19-.1.23-.12.3-.02,1.38,1.84,2.59,3.8,3.52,5.69.07.12.05.16-.16.28l-.51.3c-.1.07-.17.09-.21.09-.07,0-.09-.04-.12-.11-.3-.61-.59-1.22-.93-1.84-2.45.47-5.5.94-8.51,1.28-.35.04-.61.12-.7.19-.07.05-.14.09-.21.09-.09,0-.14-.07-.19-.21-.11-.3-.21-.74-.28-1.14.54.04,1.17.02,2.14-.07,1.15-2.92,1.77-4.95,2.38-7.47.09-.37.16-.75.17-1.29.4.11.84.25,1.16.37.17.07.21.16.21.24s-.04.14-.12.25c-.12.16-.26.47-.42,1.02-.65,2.28-1.26,4.31-2.26,6.79,2.05-.23,4.22-.56,6.14-.93-.58-1-1.24-1.98-1.98-3.01-.09-.12-.07-.16.14-.26l.44-.23Z" style="fill:gray;"/><path d="m437.1,53.98c.65-.3,1.28-.63,1.91-1-.04.18-.04.42-.05.67q0,.37-.3.53c-1.08.61-2.43,1.24-3.59,1.71-.37.16-.58.25-.63.3-.07.07-.14.11-.23.11-.07,0-.12-.05-.19-.18-.14-.26-.26-.61-.35-.96.49-.09,1.02-.23,1.66-.46.25-.09.49-.17.74-.28v-4.8h-.47c-1.19,0-1.54.04-1.63.04-.12,0-.14-.02-.14-.14v-.74c0-.12.02-.14.14-.14.09,0,.44.04,1.63.04h.47v-2.05c0-1.24-.02-1.72-.12-2.4.46.02.82.05,1.14.09.12.02.21.07.21.16s-.05.18-.09.32c-.07.19-.11.63-.11,1.8v2.08h.12c1.19,0,1.54-.04,1.63-.04.11,0,.12.02.12.14v.74c0,.12-.02.14-.12.14-.09,0-.44-.04-1.63-.04h-.12v4.36Zm12.37-2.35c0,.12-.02.14-.14.14-.09,0-.68-.04-2.43-.04h-5.27c.26.07.47.16.65.21.12.05.17.12.17.19,0,.09-.05.14-.12.19-.11.07-.19.16-.32.35l-.26.38h4.81c1.54,0,2.07-.04,2.15-.04.14,0,.17.04.17.17l-.16,1.75c-.1,1.19-.23,2.17-.46,3.03-.26,1-.75,1.4-1.71,1.4-.4,0-.7,0-1.1-.04-.28-.02-.28-.04-.37-.38-.07-.26-.17-.51-.3-.72.68.12,1.19.14,1.68.14.4,0,.68-.14.84-.84.16-.67.35-1.8.47-3.62h-1.22c-.95,2.35-2.36,4.04-4.52,5.39-.12.09-.19.12-.26.12s-.14-.05-.28-.21c-.14-.16-.33-.32-.52-.4,2.21-1.24,3.69-2.75,4.55-4.9h-1.56c-1.15,1.91-2.49,3.17-4.3,4.29-.14.07-.21.12-.28.12s-.14-.07-.26-.21c-.14-.16-.33-.31-.51-.38,1.84-1.03,3.26-2.21,4.25-3.82h-1.75c-.77.95-1.73,1.82-2.77,2.49-.14.09-.21.14-.28.14s-.12-.07-.25-.21c-.16-.16-.37-.31-.56-.42,1.59-.88,2.78-2.03,3.62-3.24.21-.3.35-.63.44-.95h-.07c-1.75,0-2.33.04-2.43.04-.12,0-.14-.02-.14-.14v-.68c0-.12.02-.14.14-.14.11,0,.68.04,2.43.04h5.63c1.75,0,2.35-.04,2.43-.04.12,0,.14.02.14.14v.68Zm-1.87-3.48c0,1.05.04,1.42.04,1.5,0,.12-.02.14-.14.14-.11,0-.6-.04-2.08-.04h-2.85c-1.51,0-2,.04-2.08.04-.12,0-.14-.02-.14-.14,0-.1.03-.46.03-1.5v-1.89c0-1.05-.03-1.42-.03-1.52,0-.12.02-.14.14-.14.09,0,.58.04,2.08.04h2.85c1.49,0,1.98-.04,2.08-.04.12,0,.14.02.14.14,0,.11-.04.47-.04,1.52v1.89Zm-.98-2.7h-5.27v1.33h5.27v-1.33Zm0,2.12h-5.27v1.36h5.27v-1.36Z" style="fill:gray;"/><path d="m13.43,282.22c0,.66.06.94.46,1.1.43.17,1.63.22,3.26.22,2.11,0,3.2-.12,3.56-.4.38-.3.4-.76.46-1.73.16.11.34.2.52.28.22.08.23.11.2.36-.08.9-.26,1.42-.71,1.74-.38.26-1.43.47-3.96.47-1.98,0-3.27-.04-3.86-.31-.46-.22-.67-.52-.67-1.46v-6.31c0-.91-.02-1.24-.02-1.31,0-.08.01-.1.1-.1.07,0,.49.02,1.71.02h4.63c1.21,0,1.64-.02,1.7-.02.1,0,.11.01.11.1,0,.07-.02.4-.02,1.31v2.47c0,.9.02,1.21.02,1.28s-.01.08-.11.08h-.56c-.08,0-.1-.01-.1-.08v-.68h-6.72v2.97Zm2.93-6.76h-2.93v3.13h2.93v-3.13Zm3.79,0h-3.06v3.13h3.06v-3.13Z" style="fill:#fff;"/><path d="m24.69,276.26c0-.76-.01-1.27-.11-1.82.3.02.58.05.8.08.1.01.16.05.16.11s-.02.13-.06.25c-.05.16-.05.42-.05,1.4v1.18c0,1.71-.12,3.24-.3,3.98-.28,1.13-.68,2.05-1.37,2.9-.06.08-.1.13-.14.13-.04,0-.08-.05-.17-.14-.13-.16-.29-.28-.44-.36.68-.72,1.15-1.67,1.4-2.71.18-.73.28-1.93.28-3.65v-1.35Zm3.62.3c0-.85-.02-1.19-.1-1.64.31.01.59.04.82.07.08.01.16.06.16.11,0,.08-.02.13-.06.23-.05.13-.08.42-.08,1.2v4.75c0,1.27.02,1.83.02,1.9,0,.1-.01.11-.1.11h-.6c-.07,0-.08-.01-.08-.11,0-.06.02-.62.02-1.9v-4.71Zm3.74-.52c0-.85-.01-1.19-.08-1.66.31.01.59.04.82.07.08.01.16.06.16.12,0,.07-.02.12-.06.22-.05.13-.08.43-.08,1.21v6.37c0,1.39.02,1.96.02,2.01,0,.08-.01.1-.1.1h-.6c-.08,0-.1-.01-.1-.1,0-.06.02-.62.02-2.01v-6.33Z" style="fill:#fff;"/><path d="m384.42,207.73c.1-.14.17-.14.28-.09.84.51,1.63,1.07,2.4,1.8.09.09.09.12-.02.24l-.42.49c-.17.21-.19.23-.3.12-.72-.75-1.54-1.4-2.33-1.89-.12-.07-.1-.1.02-.25l.37-.44Zm1.26,9.78c-.18.38-.3.65-.32.8-.02.1-.09.19-.14.19-.07,0-.16-.04-.28-.1-.3-.19-.51-.33-.81-.58.33-.42.56-.75.82-1.28.54-1.05,1.14-2.43,1.66-4.17.17.25.35.37.59.53.26.17.26.19.16.54-.53,1.43-1.12,2.85-1.7,4.06Zm-.46-14.09c.12-.14.17-.16.28-.09.82.52,1.61,1.16,2.29,1.87.09.11.09.18-.05.33l-.38.47c-.14.16-.17.17-.28.07-.7-.77-1.58-1.54-2.29-2-.11-.07-.11-.1.05-.26l.38-.4Zm14.26,6.14c0,.11-.02.12-.14.12-.09,0-.7-.03-2.48-.03h-6.48c-1.77,0-2.38.03-2.48.03-.12,0-.14-.02-.14-.12v-.65c0-.12.02-.14.14-.14.1,0,.72.03,2.48.03h2.59v-1.28h-1.43c-1.68,0-2.22.04-2.33.04-.12,0-.14-.02-.14-.14v-.58c0-.12.02-.14.14-.14.11,0,.65.04,2.33.04h1.43v-1.21h-1.79c-1.73,0-2.29.04-2.38.04-.12,0-.14-.02-.14-.14v-.61c0-.12.02-.14.14-.14.09,0,.65.04,2.38.04h1.79v-.12c0-.91-.02-1.35-.12-1.79.4.02.86.05,1.14.09.14.02.21.09.21.16,0,.12-.05.19-.11.32-.07.16-.09.42-.09,1.19v.16h2.15c1.73,0,2.31-.04,2.4-.04.12,0,.14.02.14.14v.61c0,.12-.02.14-.14.14-.09,0-.67-.04-2.4-.04h-2.15v1.21h1.71c1.68,0,2.21-.04,2.31-.04.12,0,.14.02.14.14v.58c0,.12-.02.14-.14.14-.1,0-.63-.04-2.31-.04h-1.71v1.28h2.85c1.79,0,2.4-.03,2.48-.03.12,0,.14.02.14.14v.65Zm-4.17,1.16c1.58,0,2.12-.04,2.21-.04.12,0,.14.02.14.14,0,.11-.04.7-.04,2.05v1.84c0,.93.02,1.86.02,2.33,0,.54-.07.93-.37,1.15-.32.23-.6.32-1.89.32-.35,0-.37,0-.46-.35-.05-.21-.14-.42-.3-.67.42.03.79.05,1.29.05.59,0,.7-.17.7-.65v-1.21h-6.09v.61c0,1.59.04,2.13.04,2.22,0,.11-.02.12-.14.12h-.79c-.12,0-.14-.02-.14-.12s.04-.58.04-2.19v-3.57c0-1.33-.04-1.84-.04-1.94,0-.12.02-.14.14-.14.09,0,.65.04,2.22.04h3.45Zm1.31.84h-6.09v1.24h6.09v-1.24Zm0,2.07h-6.09v1.24h6.09v-1.24Z" style="fill:gray;"/><path d="m406.23,207.83c.17,0,.24-.02.33-.05.07-.04.11-.05.17-.05.11,0,.23.05.47.32.28.28.35.4.35.51,0,.09-.05.16-.14.23-.11.09-.21.21-.31.52-1,2.87-2.54,5.09-5.01,7.02-.12.1-.19.16-.25.16-.07,0-.14-.07-.25-.23-.17-.25-.37-.44-.58-.56,2.52-1.73,4.15-3.99,5.11-6.88h-2.5c-1.29,0-1.7.04-1.79.04-.12,0-.14-.02-.14-.14v-.79c0-.1.02-.12.14-.12.09,0,.49.04,1.79.04h2.59Zm3.36-2c.32,1.45.91,2.89,1.68,4.18,1.03-.86,1.87-1.75,2.76-2.85.23-.28.37-.54.49-.84.39.23.65.4.95.65.12.09.16.16.16.24,0,.11-.09.16-.21.23-.16.09-.38.28-.8.74-.77.82-1.7,1.73-2.83,2.66,1.4,2.05,3.27,3.73,5.27,4.71-.21.16-.42.39-.61.68-.11.16-.14.23-.23.23-.05,0-.12-.05-.26-.12-2.82-1.65-5.44-4.85-6.44-8.33.05,3.04.14,6.63.14,8.82,0,.56-.17,1-.63,1.24-.33.21-.86.3-2.17.3q-.35,0-.46-.35c-.09-.31-.21-.59-.37-.8.44.04,1.03.05,1.51.05.72,0,1-.16,1-.65v-11.59c0-.96-.02-1.43-.12-1.92.4.02.84.05,1.17.09.14.02.23.09.23.16,0,.14-.07.25-.11.37-.07.19-.11.53-.11,1.29v.82Z" style="fill:gray;"/><path d="m425.97,209.74c-.09,2-.33,3.33-1.05,4.66-.73,1.42-1.75,2.5-3.1,3.29-.23.14-.38.21-.54.05-.26-.25-.61-.42-.98-.58,1.75-.91,2.71-1.82,3.43-3.2.65-1.21.88-2.5.91-4.22h-3.57c-.88,0-1.79.05-2.52.11-.19.02-.21-.05-.25-.26-.05-.28-.09-.72-.11-1.02,1.02.07,1.89.09,2.87.09h7.58c1.21,0,2.1-.02,3.19-.09.16,0,.19.07.19.28v.74c0,.17-.07.23-.23.23-1.02-.04-2.01-.07-3.13-.07h-2.7Zm-2.82-3.87c-.77,0-1.64.02-2.5.07-.18.02-.21-.05-.23-.23-.04-.28-.07-.68-.09-1.01,1.03.07,2.03.09,2.82.09h3.4c.93,0,2.03,0,2.96-.05.16-.02.19.05.19.23.02.23.02.49,0,.7,0,.21-.04.25-.21.25-.95-.04-2.03-.04-2.94-.04h-3.4Z" style="fill:gray;"/><path d="m437.87,206.47c.19.07.21.23.12.44-.1.25-.16.67-.17,1.37-.07,2-.44,3.5-1.09,4.79-.63,1.31-1.47,2.24-2.5,3.12-.19.18-.35.19-.49.07-.26-.21-.56-.33-.93-.44,1.19-.86,2.19-1.89,2.82-3.25.58-1.23.95-2.64.95-4.53,0-.77-.02-1.23-.16-1.82.61.05,1.15.16,1.45.26Zm3.64,7.95c1.16-.61,2.05-1.17,2.98-1.85,1.01-.72,2.06-1.68,3.1-2.92.04.38.12.77.3,1.1.07.16.09.26-.1.46-.88.89-1.82,1.75-2.77,2.45-.94.68-1.92,1.33-3.03,1.96-.33.19-.44.25-.58.38-.16.14-.33.14-.47.02-.25-.19-.51-.44-.68-.68-.1-.16-.07-.28-.04-.44.05-.21.07-.54.07-1.73v-4.97c0-1.68-.05-2.5-.17-3.06.47.05,1.14.14,1.45.23.26.09.21.26.11.51-.11.24-.16.89-.16,2.31v6.25Z" style="fill:gray;"/><path d="m461.22,207.94c.98,0,1.87,0,2.83-.05.19,0,.21.05.21.21.02.23.02.51,0,.75,0,.17-.04.23-.23.21-.89-.04-1.82-.02-2.8-.02h-.67c-.05,2.38-.38,4.08-1.24,5.53-.86,1.5-2.4,2.64-4.31,3.36-.26.1-.32.14-.47-.02-.28-.32-.52-.49-.91-.67,2.33-.74,3.85-1.79,4.69-3.26.72-1.28,1.03-2.7,1.07-4.95h-4.46v.86c0,.98.02,1.91.05,2.83,0,.16-.05.19-.21.19-.25.02-.61.02-.88,0-.16,0-.21-.04-.21-.21.03-.89.07-1.79.07-2.78v-.89h-.89c-.93,0-1.94.04-2.7.07-.16.02-.16-.05-.19-.25-.04-.25-.05-.61-.07-1,.91.05,1.84.07,2.96.07h.89v-1.43c0-.79-.02-1.65-.19-2.45.58.03,1.1.12,1.42.21.26.07.19.26.09.49-.1.21-.14.95-.14,1.75v1.43h4.46l.02-1.56c0-1.17-.03-1.96-.16-2.62.44.05,1.02.14,1.31.23.26.07.28.23.18.47-.09.23-.14.52-.14,1.87l-.02,1.61h.63Z" style="fill:gray;"/><rect x="255" y="49.2" width="57.83" height="28.92" rx="12" ry="12" style="fill:none; stroke:#e6e6e6; stroke-linecap:round; stroke-miterlimit:10; stroke-width:8px;"/><line x1="224.18" y1="65.33" x2="255" y2="65.33" style="fill:none; stroke:#e6e6e6; stroke-linecap:round; stroke-miterlimit:10; stroke-width:8px;"/><path d="m218.01,125.19c-.19-.49-.29-.67-.5-.94.37-.06.74-.11.95-.11.17,0,.25.07.25.18,0,.07-.01.19.01.31.02.17.08.44.22.8.13.36.24.64.4,1.01.97-.23,1.96-.5,2.63-.77.07-.02.13-.02.17.06.06.13.12.34.16.53.01.08,0,.13-.06.16-.74.25-1.62.49-2.59.72.43.94,1.07,1.92,1.99,2.93.12.12.22.19.32.26.06.04.08.07.08.11,0,.05-.01.1-.04.13-.08.14-.23.36-.31.48-.06.07-.11.12-.16.12s-.07-.02-.14-.07c-.16-.11-.29-.18-.43-.26-.72-.37-1.57-.65-2.72-.65-1.44,0-2.23.52-2.23,1.37,0,1.1,1.49,1.56,3.24,1.56.61,0,1.24-.05,1.73-.14-.02.26-.1.6-.16.78-.04.08-.06.1-.16.12-.22.02-.85.06-1.38.06-2.19,0-4.04-.71-4.04-2.31,0-1.39,1.32-2.09,2.97-2.09,1.12,0,1.9.25,2.54.54-.79-.85-1.34-1.72-1.85-2.77-.92.16-1.75.24-2.58.3-.36.02-.72.05-1.02.04-.08,0-.11-.05-.14-.14-.05-.14-.1-.36-.13-.62.41.02.78.02,1.19,0,.7-.04,1.43-.12,2.35-.28-.2-.5-.34-.84-.55-1.4Z" style="fill:gray;"/><path d="m216.07,138.92c1.61-.59,3.08-.91,4.07-.91,1.99,0,3.21,1.18,3.21,2.95,0,1.49-.68,2.44-1.97,3.13-.94.52-2.03.82-3.21,1.02-.17.02-.23-.04-.3-.14-.12-.19-.29-.41-.53-.56,1.55-.18,2.54-.49,3.39-.94,1.09-.56,1.71-1.34,1.71-2.54,0-1.33-.94-2.18-2.41-2.18-1.1,0-2.58.47-4.51,1.28-.46.19-.71.34-.82.42-.12.08-.18.11-.23.11-.08,0-.14-.05-.23-.14-.14-.18-.37-.53-.52-.83.41-.05,1-.17,2.33-.66Z" style="fill:gray;"/><path d="m217.86,149.02c-.11-.34-.2-.53-.4-.77.35-.06.71-.08.94-.08.12,0,.2.06.2.14,0,.05-.02.12-.02.19,0,.11.02.22.1.5.08.31.16.53.23.78.85-.18,1.69-.37,2.65-.7.07-.02.11-.04.13.05.05.14.08.31.11.44.01.1-.02.14-.11.17-.89.28-1.73.48-2.58.67.14.43.33.89.56,1.35.89-.18,1.66-.4,2.39-.68.1-.04.13-.02.17.06.05.16.08.3.11.46.01.08,0,.13-.1.17-.73.24-1.52.46-2.28.62.47.88,1.13,1.82,1.87,2.45.07.07.1.11.05.2-.07.17-.18.34-.29.47-.1.11-.16.12-.26.02-.24-.17-.55-.31-.85-.43-.64-.24-1.34-.36-2.29-.36-1.25,0-2.05.36-2.05,1.19,0,.92,1.13,1.26,3.03,1.26.43,0,.83-.04,1.22-.07.1-.01.11.05.1.13-.02.17-.07.4-.13.58-.02.1-.05.13-.16.14-.31.02-.6.05-1.06.05-2.4,0-3.78-.65-3.78-2.03,0-1.18,1.02-1.9,2.77-1.9,1.02,0,1.87.14,2.48.44-.47-.52-.91-1.18-1.36-1.99-1.21.22-2.35.36-3.47.4-.1,0-.11-.01-.14-.12-.05-.14-.1-.38-.11-.56,1.24-.04,2.33-.16,3.42-.36-.19-.41-.4-.88-.59-1.35-.97.18-2.09.31-3.15.35-.1,0-.13-.01-.16-.12-.02-.1-.07-.34-.11-.55,1.14-.01,2.34-.16,3.21-.29-.1-.28-.18-.54-.31-.92Z" style="fill:gray;"/><path d="m215.82,168.07c.24.59.5.9,1.06,1.15.42.2,1.26.32,2.4.32,1.54,0,3.37-.08,5.15-.28-.12.14-.18.36-.23.58q-.04.24-.28.25c-1.57.11-3.14.16-4.37.16-1.29,0-2.42-.13-2.94-.4-.55-.26-.9-.61-1.15-1.18-.38.42-.74.76-1.2,1.16-.14.12-.19.22-.23.28-.04.07-.08.1-.13.1s-.1-.04-.14-.1c-.13-.18-.28-.43-.38-.67.32-.14.5-.26.74-.44.34-.25.68-.58,1.02-.95v-2.97h-.82c-.6,0-.74.02-.79.02-.08,0-.1-.01-.1-.11v-.53c0-.07.01-.08.1-.08.05,0,.19.02.79.02h.61c.6,0,.75-.02.82-.02.08,0,.1.01.1.08s-.02.37-.02,1.14v2.46Zm-1.62-7.81c.11-.07.13-.07.2,0,.5.48.94,1.02,1.36,1.67.05.08.05.1-.08.19l-.29.22c-.14.11-.18.11-.23.02-.41-.7-.85-1.27-1.32-1.74-.07-.06-.06-.08.07-.17l.29-.19Zm7.48,2.18c1.15,0,1.55-.02,1.62-.02.08,0,.1.01.1.1,0,.07-.02.52-.02,1.54v1.92c0,.83.01,1.38.01,1.76,0,.36-.05.6-.26.77-.2.14-.43.22-1.18.23-.23,0-.24,0-.29-.2-.05-.22-.11-.37-.22-.49.36.04.6.04.84.04.3,0,.42-.11.42-.43v-1.09h-2.28v.56c0,.97.02,1.37.02,1.44,0,.08-.01.1-.08.1h-.52c-.08,0-.1-.01-.1-.1,0-.07.02-.47.02-1.44v-.56h-2.07v.68c0,.97.02,1.38.02,1.45,0,.08-.01.1-.1.1h-.52c-.08,0-.1-.01-.1-.1,0-.07.02-.43.02-1.44v-3.26c0-1.01-.02-1.39-.02-1.46,0-.08.01-.1.1-.1.06,0,.47.02,1.62.02h1.14c-.44-.37-.84-.62-1.37-.94-.08-.05-.1-.1.04-.19l.24-.19c.1-.08.12-.07.2-.02.44.29.85.58,1.29.95.59-.4,1.12-.82,1.68-1.3h-3.44c-1.14,0-1.51.02-1.57.02-.08,0-.1-.01-.1-.1v-.46c0-.1.01-.11.1-.11.06,0,.43.02,1.57.02h3.55c.14,0,.23-.01.29-.04.07-.04.1-.05.14-.05.07,0,.17.07.34.24.19.19.25.29.25.37s-.05.13-.16.17c-.13.04-.24.12-.42.26-.56.47-1.09.86-1.8,1.33h.02s.95.01.95.01Zm-1.91.56h-2.07v1.21h2.07v-1.21Zm0,1.76h-2.07v1.21h2.07v-1.21Zm2.93-1.76h-2.28v1.21h2.28v-1.21Zm0,1.76h-2.28v1.21h2.28v-1.21Z" style="fill:gray;"/><path d="m217.25,172.62c.11.06.16.11.16.18,0,.06-.02.12-.05.16-.1.13-.17.25-.22.47-.23,1.12-.33,2.11-.36,2.76-.01.46-.01.95.05,1.36.25-.5.61-1.19.89-1.73.07.23.16.37.24.49.08.13.06.2-.01.32-.31.55-.59,1.14-.76,1.58-.07.19-.08.28-.08.38.01.11-.01.14-.08.17-.11.02-.37.06-.58.08-.06,0-.1-.05-.12-.12-.18-.49-.3-1.32-.3-2.24,0-.73.13-1.85.28-2.82.07-.5.13-.89.11-1.33.34.07.64.18.84.29Zm3.79-.12c.18.04.2.12.18.24-.04.13-.04.34-.02.56.1,1.33.14,2.33.14,3.18,0,1.72-.3,3.01-.98,3.93-.48.66-1.12,1.25-1.98,1.74-.12.07-.2.07-.31-.02-.16-.13-.4-.28-.61-.34.97-.52,1.57-.95,2.09-1.64.67-.9.98-1.92.98-3.63,0-.83-.05-1.97-.12-2.85-.05-.58-.12-.89-.24-1.26.34.01.66.04.88.1Z" style="fill:gray;"/><line x1="266.04" y1="79.9" x2="266.04" y2="195.63" style="fill:none; stroke:#e6e6e6; stroke-linecap:round; stroke-miterlimit:10; stroke-width:8px;"/><path d="m300.84,78.12v73.61c0,15.96-9.52,29.26-26.81,42.57-17.29,13.3-43.9,25.27-107.74,50.55-18.01,7.13-30.59,9.34-43.9,9.34S4,210.26,4,210.26" style="fill:none; stroke:#e6e6e6; stroke-linecap:round; stroke-miterlimit:10; stroke-width:8px;"/><polyline points="200.01 234.89 208.61 242.67 208.61 298.05 200.01 306.61" style="fill:none; stroke:#545454; stroke-miterlimit:10; stroke-width:.48px;"/><polyline points="238.65 227.42 230.05 235.21 230.05 300.13 238.65 308.69" style="fill:none; stroke:#545454; stroke-miterlimit:10; stroke-width:.48px;"/><path d="m261.7,102.42c.07-.1.12-.1.19-.06.58.35,1.12.73,1.64,1.24.06.06.06.08-.01.17l-.29.34c-.12.14-.13.16-.2.08-.49-.52-1.06-.96-1.6-1.3-.08-.05-.07-.07.01-.17l.25-.3Zm.86,6.7c-.12.26-.2.44-.22.55-.01.07-.06.13-.1.13-.05,0-.11-.02-.19-.07-.2-.13-.35-.23-.55-.4.23-.29.38-.52.56-.88.37-.72.78-1.67,1.14-2.85.12.17.24.25.41.36.18.12.18.13.11.37-.36.98-.77,1.96-1.16,2.78Zm-.31-9.65c.08-.1.12-.11.19-.06.56.36,1.1.79,1.57,1.28.06.07.06.12-.04.23l-.26.32c-.1.11-.12.12-.19.05-.48-.53-1.08-1.06-1.57-1.37-.07-.05-.07-.07.04-.18l.26-.28Zm9.78,4.21c0,.07-.01.08-.1.08-.06,0-.48-.02-1.7-.02h-4.44c-1.21,0-1.63.02-1.7.02-.08,0-.1-.01-.1-.08v-.44c0-.08.01-.1.1-.1.07,0,.49.02,1.7.02h1.78v-.88h-.98c-1.15,0-1.52.02-1.59.02-.08,0-.1-.01-.1-.1v-.4c0-.08.01-.1.1-.1.07,0,.44.02,1.59.02h.98v-.83h-1.22c-1.19,0-1.57.02-1.63.02-.08,0-.1-.01-.1-.1v-.42c0-.08.01-.1.1-.1.06,0,.44.02,1.63.02h1.22v-.08c0-.62-.01-.92-.08-1.22.28.01.59.04.78.06.1.01.14.06.14.11,0,.08-.04.13-.07.22-.05.11-.06.29-.06.82v.11h1.47c1.19,0,1.58-.02,1.64-.02.08,0,.1.01.1.1v.42c0,.08-.01.1-.1.1-.06,0-.46-.02-1.64-.02h-1.47v.83h1.17c1.15,0,1.51-.02,1.58-.02.08,0,.1.01.1.1v.4c0,.08-.01.1-.1.1-.07,0-.43-.02-1.58-.02h-1.17v.88h1.95c1.22,0,1.64-.02,1.7-.02.08,0,.1.01.1.1v.44Zm-2.85.79c1.08,0,1.45-.02,1.51-.02.08,0,.1.01.1.1,0,.07-.02.48-.02,1.4v1.26c0,.64.01,1.27.01,1.6,0,.37-.05.64-.25.79-.22.16-.41.22-1.29.22-.24,0-.25,0-.31-.24-.04-.14-.1-.29-.2-.46.29.02.54.04.89.04.41,0,.48-.12.48-.44v-.83h-4.17v.42c0,1.09.02,1.46.02,1.52,0,.07-.01.08-.1.08h-.54c-.08,0-.1-.01-.1-.08s.02-.4.02-1.5v-2.45c0-.91-.02-1.26-.02-1.33,0-.08.01-.1.1-.1.06,0,.44.02,1.52.02h2.36Zm.9.58h-4.17v.85h4.17v-.85Zm0,1.42h-4.17v.85h4.17v-.85Z" style="fill:gray;"/><path d="m264.72,114.5c.12,0,.17-.01.23-.04.05-.02.07-.04.12-.04.07,0,.16.04.32.22.19.19.24.28.24.35,0,.06-.04.11-.1.16-.07.06-.14.14-.22.36-.68,1.97-1.74,3.49-3.43,4.81-.08.07-.13.11-.17.11-.05,0-.1-.05-.17-.16-.12-.17-.25-.3-.4-.38,1.73-1.19,2.84-2.73,3.5-4.71h-1.71c-.89,0-1.16.02-1.22.02-.08,0-.1-.01-.1-.1v-.54c0-.07.01-.08.1-.08.06,0,.34.02,1.22.02h1.77Zm2.3-1.37c.22,1,.62,1.98,1.15,2.87.71-.59,1.28-1.2,1.9-1.96.16-.19.25-.37.34-.58.26.16.44.28.65.44.08.06.11.11.11.17,0,.07-.06.11-.14.16-.11.06-.26.19-.55.5-.53.56-1.16,1.19-1.94,1.82.96,1.4,2.24,2.55,3.61,3.23-.14.11-.29.26-.42.47-.07.11-.1.16-.16.16-.04,0-.08-.04-.18-.08-1.93-1.13-3.73-3.32-4.41-5.71.04,2.09.1,4.55.1,6.04,0,.38-.12.68-.43.85-.23.14-.59.2-1.49.2q-.24,0-.31-.24c-.06-.22-.14-.41-.25-.55.3.02.71.04,1.03.04.49,0,.68-.11.68-.44v-7.94c0-.66-.01-.98-.08-1.32.28.01.58.04.8.06.1.01.16.06.16.11,0,.1-.05.17-.07.25-.05.13-.07.36-.07.89v.56Z" style="fill:gray;"/><path d="m262.29,130.14q.14.05.13.14c-.06.9-.17,1.72-.53,2.53-.04.08-.06.08-.17.01l-.29-.19c-.1-.06-.11-.07-.07-.16.3-.67.46-1.4.53-2.36.01-.1.02-.1.18-.05l.22.07Zm4.07-5.97c0,.08-.01.1-.1.1-.06,0-.35-.02-1.17-.02h-.5v1.15h.18c.86,0,1.12-.02,1.18-.02.08,0,.1.01.1.1v.41c0,.08-.01.1-.1.1-.06,0-.31-.02-1.18-.02h-.18v1.15h.18c.86,0,1.12-.02,1.18-.02.08,0,.1.01.1.1v.41c0,.08-.01.1-.1.1-.06,0-.31-.02-1.18-.02h-.18v1.2h.42c.8,0,1.04-.02,1.12-.02s.11.02.1.11c-.01.23-.02.44-.04.67-.08,1.94-.3,2.88-.5,3.35-.2.42-.6.66-1.04.66-.2,0-.48-.01-.68-.02-.14-.01-.17-.01-.2-.25-.04-.2-.08-.34-.16-.48.37.05.73.07.94.07.28,0,.44-.13.56-.35.19-.34.37-1.22.44-3.17h-2.17c-.89,0-1.19.02-1.28.02-.08,0-.1-.01-.1-.11,0-.06.02-.47.02-1.28v-2.88c0-.98-.02-1.38-.02-1.45,0-.08.01-.1.1-.1.1,0,.4.02,1.28.02h1.73c.83,0,1.12-.02,1.17-.02.08,0,.1.01.1.1v.46Zm-2.4.07h-1.31v1.15h1.31v-1.15Zm0,1.7h-1.31v1.15h1.31v-1.15Zm0,1.7h-1.31v1.2h1.31v-1.2Zm-.92,2.49c.11-.02.13-.02.14.05.13.64.2,1.22.24,1.92,0,.11-.01.12-.12.16l-.25.08c-.11.04-.13.04-.13-.07-.02-.73-.08-1.32-.2-1.95-.02-.1,0-.1.1-.12l.23-.06Zm.8-.08c.1-.04.12-.04.14.05.16.48.28,1.01.36,1.62.01.08,0,.1-.1.13l-.2.08c-.11.05-.13.04-.14-.05-.07-.62-.17-1.18-.32-1.65-.02-.08-.01-.08.08-.12l.18-.06Zm.74-.13c.1-.04.12-.04.16.04.17.35.3.73.42,1.22.01.07,0,.08-.08.12l-.18.08c-.1.05-.12.04-.13-.04-.11-.49-.24-.92-.4-1.25-.04-.07-.02-.08.07-.12l.14-.06Zm5.08-2.03c.24,2.15.98,4.08,2.58,5.31-.14.1-.29.22-.42.4-.07.1-.11.14-.14.14s-.07-.04-.16-.11c-1.56-1.37-2.25-3.32-2.53-5.75h-1.2c-.02.8-.07,1.5-.16,2.24-.16,1.21-.52,2.49-1.27,3.51-.06.08-.1.13-.13.13s-.07-.05-.16-.12c-.14-.14-.31-.25-.47-.32.86-.95,1.19-2.15,1.36-3.48.16-1.2.16-2.41.16-4.26,0-1.12-.02-1.6-.02-1.66,0-.08.01-.1.1-.1.07,0,.37.02,1.34.02h1.59c.95,0,1.27-.02,1.33-.02.08,0,.1.01.1.1,0,.06-.02.37-.02,1.2v2.03c0,.84.02,1.1.02,1.18,0,.08-.01.1-.1.1h-.52c-.08,0-.1-.01-.1-.1v-.46h-1.19Zm1.19-3.38h-3.03v1.18c0,.6,0,1.12-.01,1.58h3.05v-2.76Z" style="fill:gray;"/><path d="m271.91,137.63c0,.08-.01.1-.1.1-.06,0-.44-.02-1.57-.02h-7.14c-1.12,0-1.5.02-1.56.02-.08,0-.1-.01-.1-.1v-.52c0-.08.01-.1.1-.1.06,0,.44.02,1.56.02h4.25c.34-.43.64-.89.94-1.39.12-.23.22-.46.26-.64.24.06.52.14.72.23.08.04.12.08.12.13,0,.06-.05.11-.11.14-.08.05-.14.13-.38.49-.18.28-.47.68-.74,1.03h2.09c1.13,0,1.51-.02,1.57-.02.08,0,.1.01.1.1v.52Zm-5.59,5.58c0,.65.02,1.26.02,1.58,0,.36-.04.62-.25.8-.17.12-.48.19-1.37.19-.24,0-.24.01-.29-.23-.05-.18-.12-.34-.22-.48.35.02.53.04.9.04.43,0,.53-.08.53-.41v-1.45h-2.53v1c0,1.06.02,1.5.02,1.56,0,.07-.01.08-.1.08h-.54c-.08,0-.1-.01-.1-.08s.02-.48.02-1.56v-3.8c0-1.08-.02-1.51-.02-1.58,0-.08.01-.1.1-.1.06,0,.35.02,1.21.02h1.32c.88,0,1.15-.02,1.21-.02.08,0,.1.01.1.1,0,.06-.02.56-.02,1.64v2.7Zm-.67-3.79h-2.53v1.27h2.53v-1.27Zm0,1.88h-2.53v1.32h2.53v-1.32Zm-1.21-6.16c.13-.06.16-.07.22,0,.34.42.56.79.82,1.32.04.08.02.1-.13.17l-.34.13c-.17.07-.19.07-.23-.02-.22-.48-.42-.84-.75-1.31-.06-.08-.05-.11.08-.16l.34-.13Zm3.47,5.42c0-.66,0-1.06-.08-1.48.28.01.52.04.74.07.08.01.13.05.13.11s-.05.13-.07.2c-.05.14-.05.37-.05,1.08v1.54c0,.83.02,1.18.02,1.24,0,.08-.01.1-.08.1h-.54c-.08,0-.1-.01-.1-.1,0-.07.02-.41.02-1.24v-1.52Zm2.34-.56c0-.68-.01-1.09-.08-1.42.29.01.58.04.78.06.08.01.14.06.14.1,0,.1-.05.16-.08.24-.04.1-.05.35-.05,1.01v2.95c0,.66.01,1.22.01,1.68,0,.52-.1.76-.34.92-.28.18-.5.22-1.6.22q-.24,0-.3-.24c-.05-.2-.12-.37-.23-.52.4.05.67.06,1.13.06s.61-.08.61-.59v-4.47Z" style="fill:gray;"/><path d="m264.35,147.64c.53.68,1.05,1.25,1.88,1.83-.11.08-.26.23-.34.35-.07.12-.11.18-.14.18-.05,0-.1-.05-.18-.12-.56-.49-1.14-1.12-1.55-1.69-.54.86-1.34,1.69-2.19,2.42-.08.06-.13.1-.17.1-.05,0-.08-.06-.13-.18-.06-.14-.18-.32-.28-.42.94-.67,1.78-1.56,2.22-2.35.17-.3.23-.48.25-.62.23.04.49.1.71.17.07.02.12.07.12.11,0,.05-.04.1-.11.14l-.1.08Zm-.11,8.48c.6-.18,1.24-.37,1.8-.59-.04.14-.05.29-.05.44q-.01.25-.24.31c-.96.32-2.2.68-3.23.97-.25.07-.4.18-.44.23-.05.05-.1.06-.16.06s-.11-.05-.14-.13c-.07-.16-.17-.44-.23-.66.3-.01.65-.08,1.1-.2.26-.06.58-.14.91-.24v-3.53h-.61c-.9,0-1.18.02-1.25.02-.08,0-.1-.01-.1-.1v-.46c0-.08.01-.1.1-.1.07,0,.35.02,1.25.02h.61v-1.27h-.11c-.76,0-.96.02-1.03.02-.08,0-.1-.01-.1-.1v-.44c0-.08.01-.1.1-.1.07,0,.28.02,1.03.02h1.03c.76,0,.97-.02,1.03-.02.08,0,.1.01.1.1v.44c0,.08-.01.1-.1.1-.06,0-.28-.02-1.03-.02h-.25v1.27h.46c.9,0,1.17-.02,1.25-.02.08,0,.1.01.1.1v.46c0,.08-.01.1-.1.1-.07,0-.35-.02-1.25-.02h-.46v3.33Zm-1.94-2.54c.11-.04.13-.05.17.05.25.61.37,1.19.47,1.85.01.08,0,.11-.14.16l-.3.11c-.12.05-.14.04-.16-.06-.08-.68-.22-1.24-.44-1.85-.04-.08-.01-.11.1-.14l.31-.11Zm3.6.29c-.06.05-.1.12-.14.25-.12.36-.25.72-.42,1.15-.06.12-.08.17-.14.17-.04,0-.08-.02-.17-.06-.07-.04-.2-.08-.31-.1.25-.59.37-.98.49-1.44.04-.12.06-.26.07-.42.22.06.43.13.59.2.07.04.12.07.12.12-.01.05-.04.08-.08.12Zm3.14-1.31c.17.76.37,1.39.65,1.97.47-.32.9-.66,1.39-1.15.13-.14.25-.28.35-.44.22.14.37.25.52.41.06.07.07.1.07.14,0,.06-.02.1-.13.14-.13.06-.26.17-.55.41-.42.36-.85.71-1.34,1.04.53.83,1.27,1.5,2.34,2.12-.13.11-.25.25-.36.46-.06.12-.1.17-.14.17-.04,0-.1-.02-.18-.08-1.92-1.36-2.79-2.9-3.23-5.18h-1.08v3.99c.66-.2,1.33-.44,1.98-.74-.02.13-.05.29-.06.48-.01.23-.01.24-.2.31-.89.35-1.81.66-2.94.98-.25.06-.38.12-.43.17-.04.04-.08.06-.14.06-.04,0-.08-.04-.12-.11-.08-.19-.17-.41-.24-.66.31-.04.59-.07,1.02-.18.14-.04.29-.06.44-.11v-6.8c0-1.44-.02-2.06-.02-2.13,0-.08.01-.1.1-.1.07,0,.49.02,1.44.02h1.69c.91,0,1.25-.02,1.31-.02.08,0,.1.01.1.1,0,.07-.02.43-.02,1.3v2.09c0,.85.02,1.22.02,1.28,0,.08-.01.1-.1.1-.06,0-.4-.02-1.31-.02h-.8Zm1.5-4.19h-3.2v1.45h3.2v-1.45Zm0,2.06h-3.2v1.51h3.2v-1.51Z" style="fill:gray;"/><path d="m271.87,160.96c0,.08-.01.1-.1.1-.06,0-.46-.02-1.66-.02h-6.98v1.9c0,1.46-.04,2.54-.2,3.71-.17,1.18-.48,2.03-1.04,3.03-.05.1-.08.14-.12.14s-.08-.04-.16-.12c-.13-.14-.34-.3-.47-.36.59-.92.92-1.75,1.09-2.99.14-1.06.17-2.12.17-3.51,0-1.63-.02-2.31-.02-2.37,0-.08.01-.1.1-.1.07,0,.5.02,1.69.02h2.36v-.42c0-.37-.01-.7-.08-.98.3.01.55.02.82.06.08.01.14.06.14.11,0,.08-.04.13-.07.22-.05.11-.07.3-.07.58v.44h2.85c1.2,0,1.59-.02,1.66-.02.08,0,.1.01.1.1v.5Zm.07,8.38c0,.08-.01.1-.1.1-.06,0-.47-.02-1.68-.02h-5.38c-1.21,0-1.62.02-1.68.02-.08,0-.1-.01-.1-.1v-.5c0-.08.01-.1.1-.1.06,0,.47.02,1.68.02h2.17v-1.64h-1.26c-1.19,0-1.59.02-1.66.02-.1,0-.11-.01-.11-.1v-.5c0-.08.01-.1.11-.1.06,0,.47.02,1.66.02h1.26v-3.51c0-.74-.01-1.06-.08-1.44.3.01.53.04.75.07.08.01.14.06.14.12s-.04.16-.07.25c-.05.13-.06.35-.06,1v3.51h1.58c1.19,0,1.59-.02,1.64-.02.1,0,.11.01.11.1v.5c0,.08-.01.1-.11.1-.05,0-.46-.02-1.64-.02h-1.58v1.64h2.53c1.21,0,1.62-.02,1.68-.02.08,0,.1.01.1.1v.5Zm-5.61-3.84c-.06.1-.1.14-.14.14s-.08-.04-.17-.12c-.48-.52-.77-.92-1.02-1.36-.23.53-.54,1.02-.97,1.52-.08.11-.13.16-.18.16-.04,0-.07-.04-.12-.08-.12-.12-.25-.2-.42-.28.86-.89,1.25-1.75,1.51-2.73.06-.23.1-.5.1-.7.24.05.46.1.61.16.12.05.17.07.17.14,0,.05-.01.08-.06.13-.07.07-.12.18-.18.38-.06.23-.13.43-.19.64.36.62.79,1.15,1.4,1.67-.11.08-.24.18-.34.32Zm4.88.1c-.06.1-.1.14-.14.14-.04,0-.08-.04-.17-.12-.5-.47-.94-1-1.28-1.54-.26.58-.6,1.1-1.04,1.62-.07.08-.11.13-.14.13-.05,0-.1-.05-.18-.12-.11-.1-.26-.19-.37-.23.86-.9,1.28-1.79,1.55-2.72.07-.31.1-.53.1-.71.25.06.46.12.61.18.11.04.16.08.16.13,0,.06-.02.08-.07.13-.06.06-.11.14-.17.38-.05.19-.11.37-.17.55.43.7.98,1.28,1.72,1.82-.13.07-.3.2-.38.34Z" style="fill:gray;"/><path d="m411.29,276.13c.13.04.19.1.19.18,0,.1-.05.19-.1.31-.05.14-.1.52-.14,1.24-.11,1.81-.18,3.45-.18,5.11,0,1.34.37,1.75,1.42,1.75,1.52,0,3.08-.92,4.32-2.29.04.28.13.52.2.7.02.07.05.12.05.17,0,.07-.04.13-.14.23-1.26,1.21-2.85,2.01-4.57,2.01-1.36,0-2.09-.65-2.09-2.41s.11-3.66.17-5.35c.02-.74.04-1.26-.1-1.81.36.04.73.08.97.17Z" style="fill:gray;"/><path d="m415.6,291.45c.02-.28.01-.52-.04-.77.4.08.72.2.9.34.1.06.11.16.06.24-.06.08-.11.18-.13.36-.08.54-.23,1.26-.37,1.82.68.35,1.39.77,2.03,1.24.07.04.07.08.05.16-.08.17-.22.44-.31.6-.05.07-.11.05-.16,0-.67-.55-1.26-.92-1.83-1.24-.6,1.56-1.26,2.53-2.52,3.42-.14.11-.19.12-.3.05-.17-.16-.36-.24-.61-.3,1.51-1.04,2.2-2.03,2.71-3.48-.85-.42-1.83-.74-2.95-.85-.54,1.16-.91,1.85-1.32,2.29-.47.54-.95.77-1.48.77-.6,0-1.21-.42-1.21-1.35,0-1.33,1.49-2.4,3.49-2.41.46-1.1.84-2.04,1.24-3.33-.83.08-1.69.18-2.11.24-.29.04-.43.08-.53.11-.05.02-.1.04-.14.04-.07,0-.11-.02-.14-.07-.08-.17-.17-.47-.25-.86.32.07.58.08,1.04.06.53-.02,1.18-.08,1.84-.17.3-.05.44-.08.55-.17.08-.07.19-.06.25-.02.19.12.38.29.52.46.1.12.1.2,0,.29-.12.12-.18.3-.29.58-.4,1.1-.77,1.96-1.16,2.91,1.01.1,1.98.38,2.92.77.13-.61.23-1.16.28-1.69Zm-6.79,3.21c0,.4.2.67.54.67.29,0,.62-.16.97-.59.25-.3.64-.88,1.02-1.75-1.44.05-2.53.8-2.53,1.67Z" style="fill:gray;"/><path d="m417.93,302.35c0,.11-.04.12-.16.12-1.28-.04-2.46-.05-3.81,0,0,.76,0,1.58.01,2.39.1.37.14.8.14,1.26,0,1.51-.65,2.79-2.34,3.71-.12.07-.22.11-.28.11-.07,0-.14-.04-.22-.1-.13-.12-.35-.26-.55-.34,1.71-.71,2.51-1.81,2.61-3.02-.26.46-.78.68-1.32.68-.83,0-1.58-.55-1.58-1.69,0-1.02.76-1.67,1.64-1.67.46,0,.88.13,1.13.41-.01-.59-.01-1.13-.02-1.69-1.72.1-3.33.22-4.47.36-.29.04-.43.12-.53.12-.07,0-.12-.04-.14-.12-.07-.16-.13-.44-.19-.77.41.02.8-.01,1.51-.07.97-.07,2.21-.16,3.8-.25-.01-.49-.01-.73-.02-1.12-.01-.3-.04-.49-.12-.8.36.02.71.08.91.13.13.04.22.1.22.18,0,.07-.04.13-.08.22s-.07.17-.08.32c-.02.26-.02.49-.02,1.02,1.33-.04,2.51-.04,3.84-.04.11,0,.13.01.13.13v.52Zm-6.78,3.09c0,.66.43,1.03.97,1.03.67,0,1.09-.52,1.09-1.06,0-.6-.44-1.02-1.07-1.02-.53,0-1,.4-1,1.04Zm4.64-6.04s.07-.02.12.01c.43.36.86.85,1.2,1.39.02.05.02.1-.02.13l-.35.29c-.06.05-.12.04-.16-.02-.3-.53-.71-1.03-1.24-1.47l.44-.32Zm1.25-.43s.08-.05.13-.01c.46.37.88.88,1.19,1.35.04.06.02.1-.04.14l-.32.29s-.1.05-.14-.02c-.28-.49-.66-.98-1.2-1.45l.38-.3Z" style="fill:gray;"/><path d="m415.86,313.96c.54,0,.77-.04.88-.1.11-.06.22-.05.3.04.2.18.37.36.52.56.11.16.06.28-.06.36-.18.13-.3.19-.56.5-.89,1.04-2.15,2.33-3.42,3.35.41.41.86.92,1.24,1.4.08.1.08.16,0,.25-.13.14-.29.28-.44.38-.1.06-.13.07-.2-.04-1.08-1.39-2.31-2.6-3.71-3.6.14-.14.35-.35.48-.47.08-.07.12-.06.23,0,.7.53,1.29,1.01,1.85,1.51,1.25-1.03,2.52-2.35,3.32-3.41l-5.28.02c-.97,0-1.71.05-2.37.1-.13.01-.17-.02-.19-.13-.04-.24-.08-.54-.1-.84.79.08,1.62.1,2.66.1h4.87Z" style="fill:gray;"/><path d="m410.43,325.98c0-.76-.05-1.31-.13-1.74.32.04.74.12.98.19.16.05.16.18.11.29-.08.16-.12.5-.12,1.26v2.03c0,.62.01,1.07.04,1.58,0,.14-.05.19-.18.19h-.56c-.12,0-.17-.05-.16-.18.01-.52.02-1.06.02-1.64v-1.98Zm5.03,2.16c0,1.86-.43,2.95-1.04,3.73-.58.71-1.56,1.38-2.63,1.76-.13.05-.22.05-.34-.06-.17-.18-.35-.31-.6-.44,1.22-.36,2.22-.96,2.79-1.64.59-.72.96-1.7.96-3.27v-2.06c0-1.18-.04-1.67-.13-2.1.36.04.75.11,1.02.19.14.05.14.18.08.3-.08.17-.12.53-.12,1.57v2.03Z" style="fill:gray;"/><path d="m409.46,337.14c.08-.08.14-.07.22-.02.67.37,1.46.94,2.16,1.59.08.08.1.13.04.23-.1.14-.31.42-.41.52-.07.08-.11.1-.19.01-.71-.7-1.5-1.31-2.28-1.77.16-.19.34-.41.47-.55Zm1.08,6.36c1.29-.68,2.35-1.33,3.47-2.23,1.21-1,2.21-1.88,3.24-3.23.05.34.12.56.2.79.07.16.06.25-.08.42-.8.95-1.86,1.91-2.92,2.76-1.02.82-2.22,1.58-3.6,2.34-.32.19-.55.37-.66.47-.12.11-.22.11-.32-.01-.18-.19-.4-.48-.59-.82.47-.13.83-.28,1.26-.49Z" style="fill:gray;"/><path d="m410.36,355.61v.82c0,.14-.02.17-.17.18-.16,0-.4.01-.56,0-.13-.01-.17-.04-.17-.16.04-.76.05-1.55.05-2.57v-2.36c0-.64,0-1.27-.02-1.92,0-.11.04-.13.13-.13.61.02,1.26.02,1.93.02h2.64c.72,0,1.5,0,2.12-.02.12,0,.14.04.14.17-.01.61-.02,1.25-.02,1.89v2.41c0,.92.04,1.75.06,2.36,0,.13-.04.17-.16.17h-.62c-.11,0-.12-.04-.12-.16v-.71h-5.23Zm5.23-5.35h-5.24v4.58h5.24v-4.58Z" style="fill:gray;"/><path d="m412.52,361.89c0-.8-.01-1.33-.13-1.85.41.04.83.1,1.02.16.18.06.18.18.11.32-.1.18-.13.62-.13,1.39v5.04c0,.73.01,1.45.04,2.2,0,.16-.02.2-.16.2h-.61c-.14-.01-.17-.05-.17-.2.01-.73.04-1.46.04-2.18v-5.07Z" style="fill:gray;"/><path d="m412.21,375.35c1.38.4,2.71.96,3.91,1.67.1.05.12.11.08.19-.08.22-.19.43-.29.59-.07.1-.12.12-.23.05-1.12-.73-2.4-1.3-3.49-1.61v2.78c0,.73.02,1.67.04,2.45.01.12-.02.16-.16.16-.18.01-.42.01-.61,0-.13,0-.17-.04-.17-.17.04-.77.05-1.7.05-2.44v-5.34c0-.9-.05-1.51-.13-1.92.42.04.78.08,1,.16.19.05.14.18.08.36-.07.2-.08.56-.08,1.33v1.74Zm2.97-3.13s.08-.04.13,0c.48.34,1.01.92,1.36,1.45.04.05.02.1-.02.13l-.35.29c-.06.05-.12.04-.16-.02-.35-.59-.85-1.15-1.39-1.54l.43-.31Zm1.01-.79s.08-.05.13-.01c.48.37,1.02.9,1.37,1.4.04.06.02.1-.04.14l-.32.29s-.1.05-.14-.02c-.3-.49-.82-1.08-1.38-1.5l.38-.3Z" style="fill:gray;"/><path d="m45.93,232.09c-.21.2-.35.34-.4.43-.04.06-.11.1-.14.09-.04-.02-.09-.06-.15-.14-.14-.2-.24-.34-.37-.57.32-.18.55-.34.85-.61.61-.53,1.34-1.26,2.11-2.23.05.2.13.32.25.49.12.18.12.19-.04.38-.7.78-1.44,1.53-2.11,2.16Zm1.67-6.55c.1-.06.15-.05.2.01.41.54.77,1.09,1.07,1.76.03.08.02.1-.07.15l-.39.21c-.16.09-.18.1-.22,0-.27-.66-.63-1.28-1-1.79-.06-.08-.04-.09.07-.15l.34-.19Zm6.19,4.67c1,.4,1.36.51,1.41.54.08.03.08.05.05.12-.03.07-.2.44-.54,1.29l-.46,1.17c-.23.59-.46,1.19-.58,1.49-.14.35-.28.57-.53.64-.26.07-.46.05-1.28-.28-.22-.09-.23-.09-.2-.34.02-.15.02-.3-.02-.5.26.13.49.23.81.36.38.15.49.06.61-.24l.31-.77-3.88-1.54-.16.39c-.4,1.01-.52,1.37-.54,1.42-.03.07-.04.07-.12.04l-.5-.2c-.08-.03-.08-.05-.06-.11.03-.07.17-.36.58-1.38l.9-2.27c.34-.85.44-1.18.47-1.25.03-.08.05-.08.13-.05.05.02.4.19,1.41.58l2.2.87Zm-4.58-7.21c.11-.06.15-.05.2.02.39.54.73,1.14.99,1.77.03.09.01.13-.12.2l-.37.21c-.13.06-.16.07-.2-.03-.25-.67-.61-1.38-.96-1.85-.05-.07-.04-.09.1-.15l.35-.16Zm7.53,7.52c-.03.07-.04.07-.12.04-.05-.02-.44-.2-1.57-.65l-4.12-1.64c-1.12-.45-1.52-.58-1.59-.61-.08-.03-.08-.05-.06-.11l.16-.41c.03-.08.05-.08.12-.05.07.03.45.2,1.57.65l1.65.66.32-.81-.91-.36c-1.07-.43-1.42-.54-1.49-.57-.08-.03-.08-.05-.05-.12l.15-.37c.03-.08.05-.09.12-.05.07.03.4.19,1.47.61l.91.36.31-.77-1.14-.45c-1.1-.44-1.47-.56-1.52-.58-.08-.03-.08-.05-.05-.12l.15-.39c.03-.08.05-.09.12-.05.05.02.4.19,1.51.62l1.14.45.03-.08c.23-.58.33-.86.37-1.17.25.11.53.25.7.34.08.05.11.11.09.15-.03.08-.08.11-.15.17-.08.08-.16.25-.36.74l-.04.1,1.37.54c1.1.44,1.48.56,1.54.59.08.03.08.05.05.12l-.16.39c-.03.08-.05.09-.12.05-.06-.02-.42-.19-1.52-.63l-1.37-.54-.3.77,1.09.44c1.07.43,1.41.54,1.48.56.08.03.08.05.05.12l-.15.37c-.03.08-.05.08-.13.05-.07-.03-.39-.18-1.46-.61l-1.09-.43-.32.81,1.82.72c1.14.45,1.54.59,1.59.61.08.03.08.05.05.12l-.16.41Zm-2.84,1.86l-3.88-1.54-.31.79,3.88,1.54.31-.79Zm.52-1.31l-3.88-1.54-.32.79,3.88,1.54.31-.79Z" style="fill:gray;"/><path d="m61.49,231.14c.11.04.16.05.23.05.05,0,.08,0,.12,0,.07.03.13.09.22.32.11.25.12.35.09.41-.02.06-.07.09-.15.11-.09.03-.19.08-.33.26-1.36,1.57-2.9,2.6-4.96,3.2-.1.04-.16.05-.2.04-.04-.02-.07-.08-.1-.21-.05-.2-.12-.37-.23-.5,2.04-.46,3.65-1.49,5-3.09l-1.59-.63c-.83-.33-1.09-.41-1.15-.43-.08-.03-.08-.04-.05-.12l.2-.5c.03-.07.04-.07.12-.04.05.02.3.15,1.13.47l1.65.66Zm2.64-.42c-.17,1-.15,2.07.01,3.09.88-.29,1.64-.64,2.48-1.12.21-.12.37-.25.52-.41.19.24.31.42.44.65.06.09.06.14.04.2-.03.07-.1.08-.19.09-.12.02-.32.08-.7.27-.7.33-1.52.67-2.48.97.37,1.66,1.14,3.2,2.16,4.33-.17.05-.37.14-.56.28-.11.07-.15.11-.2.09-.03-.01-.06-.06-.14-.14-1.38-1.76-2.24-4.46-1.99-6.94-.74,1.95-1.59,4.26-2.14,5.65-.14.36-.36.59-.72.63-.26.05-.62-.03-1.46-.36q-.22-.09-.2-.34c.02-.22.02-.43-.03-.61.27.13.64.29.94.41.46.18.67.15.8-.16l2.93-7.38c.24-.61.35-.92.41-1.26.25.11.52.25.72.35.08.05.12.11.11.16-.04.09-.11.14-.16.21-.09.11-.2.31-.39.8l-.21.52Z" style="fill:gray;"/><path d="m69.85,240.52c.62.05,1.29.11,1.89.12-.09.12-.15.25-.21.39q-.11.23-.34.2c-1.01-.05-2.29-.18-3.36-.29-.26-.03-.43.02-.5.05-.06.03-.11.02-.17,0-.06-.02-.08-.08-.08-.18,0-.17,0-.47.03-.7.28.1.63.16,1.1.22.27.04.59.08.93.12l1.3-3.28-.57-.22c-.83-.33-1.1-.41-1.17-.44-.08-.03-.08-.05-.05-.12l.17-.42c.03-.08.05-.08.12-.05.07.03.31.15,1.15.48l.57.23.47-1.18-.1-.04c-.7-.28-.9-.33-.97-.36-.08-.03-.08-.05-.05-.12l.16-.41c.03-.08.05-.08.13-.05.07.03.25.12.95.4l.96.38c.7.28.91.34.97.36.08.03.08.05.05.12l-.16.41c-.03.08-.05.08-.12.05-.05-.02-.25-.12-.95-.4l-.23-.09-.47,1.18.42.17c.84.33,1.1.41,1.17.44.08.03.08.05.05.12l-.17.42c-.03.08-.05.09-.12.05-.07-.03-.31-.15-1.15-.48l-.42-.17-1.23,3.1Zm-.87-3.08c.11,0,.14,0,.14.11,0,.66-.09,1.24-.25,1.89-.02.08-.04.1-.19.09h-.32c-.13,0-.15-.03-.12-.12.17-.67.25-1.23.27-1.88,0-.09.03-.1.14-.1h.33Zm4.1-4.76c.24.83.52,1.55,1.07,2.4-.13.04-.33.12-.44.2-.11.08-.17.13-.2.11-.05-.02-.07-.08-.12-.18-.34-.66-.65-1.46-.81-2.14-.82.6-1.87,1.08-2.93,1.44-.1.03-.16.04-.19.03-.04-.02-.06-.09-.06-.21,0-.16-.05-.37-.1-.49,1.12-.28,2.23-.79,2.93-1.37.27-.22.39-.36.46-.49.2.12.42.27.6.42.06.05.08.11.07.14-.02.04-.07.08-.15.09l-.12.04Zm2.54,6.3c-.12.76-.17,1.43-.12,2.07.55-.13,1.08-.28,1.72-.56.18-.08.34-.16.49-.28.15.21.25.37.33.57.03.09.03.12.01.16-.02.06-.06.08-.17.09-.15,0-.31.06-.66.17-.52.18-1.05.34-1.63.47.18.96.63,1.86,1.39,2.84-.16.05-.33.14-.5.29-.1.09-.15.12-.2.1-.03-.01-.08-.06-.14-.14-1.28-1.97-1.53-3.73-1.08-6.01l-1-.4-1.48,3.71c.69.05,1.4.08,2.11.04-.07.11-.15.25-.23.42-.1.21-.1.22-.3.21-.95,0-1.93-.06-3.09-.17-.26-.04-.4-.03-.46,0-.05.02-.1.03-.16,0-.03-.01-.06-.06-.07-.14,0-.21,0-.44.02-.7.3.08.57.15,1.01.21.15.02.29.05.45.06l2.51-6.32c.53-1.34.74-1.93.77-1.99.03-.08.05-.08.12-.05.07.03.45.2,1.33.55l1.57.62c.85.34,1.17.44,1.22.46.08.03.08.05.05.12-.03.07-.18.39-.5,1.2l-.77,1.94c-.31.79-.43,1.14-.45,1.2-.03.08-.05.08-.12.05-.05-.02-.36-.17-1.21-.51l-.75-.29Zm-3.4.05c-.07.02-.13.08-.23.18-.24.29-.5.57-.82.91-.1.09-.14.12-.2.1-.03-.01-.07-.05-.13-.12-.05-.06-.16-.15-.25-.2.45-.45.71-.78.99-1.16.08-.1.15-.22.22-.36.18.13.35.28.47.41.05.06.08.11.07.16-.03.04-.06.06-.12.08Zm5.58-1.47l-2.98-1.18-.56,1.4,2.98,1.18.56-1.4Zm.76-1.92l-2.98-1.18-.54,1.35,2.98,1.18.54-1.35Z" style="fill:gray;"/><path d="m91.06,241.25c-.03.08-.05.08-.12.05-.06-.02-.42-.19-1.53-.63l-6.49-2.58-.7,1.76c-.54,1.36-.97,2.35-1.56,3.37-.59,1.03-1.19,1.71-2.09,2.44-.08.07-.13.1-.17.09-.03-.01-.06-.06-.1-.17-.07-.18-.2-.4-.3-.51.89-.64,1.5-1.29,2.12-2.37.52-.93.94-1.91,1.45-3.2.6-1.52.83-2.16.85-2.22.03-.08.05-.08.12-.05.07.03.46.21,1.56.65l2.2.87.16-.39c.14-.35.25-.65.29-.95.27.12.5.23.74.36.07.04.11.11.09.15-.03.08-.08.11-.15.17-.08.08-.18.25-.28.51l-.16.41,2.65,1.05c1.11.44,1.49.57,1.55.59.08.03.08.05.05.12l-.19.47Zm-3.03,7.82c-.03.08-.05.08-.12.05-.06-.02-.43-.2-1.55-.64l-5-1.99c-1.13-.45-1.51-.58-1.57-.6-.08-.03-.08-.05-.05-.12l.19-.47c.03-.08.05-.09.12-.05.06.02.43.2,1.55.64l2.02.8.61-1.53-1.17-.47c-1.1-.44-1.49-.57-1.55-.59-.09-.04-.09-.05-.06-.13l.19-.47c.03-.08.05-.09.13-.05.06.02.43.2,1.53.63l1.17.47,1.3-3.27c.28-.69.38-.99.45-1.37.28.12.48.23.68.35.07.04.11.11.09.17-.02.05-.09.13-.16.21-.09.1-.18.3-.42.9l-1.3,3.27,1.47.58c1.1.44,1.49.57,1.54.59.09.04.1.05.06.13l-.19.47c-.03.08-.05.09-.14.05-.04-.02-.41-.19-1.52-.63l-1.47-.58-.61,1.53,2.35.93c1.13.45,1.51.58,1.57.6.08.03.08.05.05.12l-.19.47Zm-3.8-5.64c-.09.07-.14.1-.19.08-.04-.02-.07-.06-.11-.17-.26-.66-.37-1.14-.45-1.64-.41.41-.88.75-1.47,1.06-.12.07-.18.1-.23.08-.03-.01-.05-.06-.08-.12-.07-.15-.16-.28-.29-.41,1.13-.51,1.81-1.17,2.42-1.98.14-.19.28-.43.35-.61.21.13.39.26.51.37.09.09.13.13.1.2-.02.04-.04.07-.1.1-.09.04-.18.12-.31.29-.14.19-.28.35-.41.52.1.71.31,1.36.69,2.07-.13.04-.29.08-.43.18Zm4.5,1.89c-.09.07-.14.1-.19.08-.03-.01-.07-.06-.11-.17-.29-.62-.5-1.27-.62-1.9-.46.44-.96.8-1.57,1.12-.1.05-.15.08-.18.07-.04-.02-.07-.08-.12-.18-.06-.13-.17-.28-.26-.35,1.14-.52,1.85-1.19,2.44-1.96.18-.26.28-.46.35-.62.21.15.38.28.5.39.09.07.12.14.1.18-.02.05-.05.07-.12.1-.08.03-.15.09-.3.29-.11.16-.24.3-.36.45.14.81.44,1.56.92,2.33-.15.02-.35.08-.48.17Z" style="fill:gray;"/><line x1="299.25" y1="292.73" x2="299.25" y2="400.47" style="fill:none; stroke:#e6e6e6; stroke-linecap:round; stroke-miterlimit:10; stroke-width:8px;"/><line x1="207.61" y1="308.39" x2="207.61" y2="338.98" style="fill:none; stroke:#ed0030; stroke-linecap:round; stroke-miterlimit:10; stroke-width:2.94px;"/><polyline points="210.68 311.05 207.79 304.14 204.39 311.05" style="fill:none; stroke:#ed0030; stroke-linecap:round; stroke-miterlimit:10; stroke-width:2.38px;"/><path d="m308.42,88.96v63.85c0,16.22-9.26,32-28.52,47.48-8.93,7.17-27.04,16.71-45.41,24.77" style="fill:none; stroke:#ed0030; stroke-linecap:round; stroke-miterlimit:10; stroke-width:2.94px;"/><polyline points="311.49 91.62 308.6 84.71 305.2 91.62" style="fill:none; stroke:#ed0030; stroke-linecap:round; stroke-miterlimit:10; stroke-width:2.38px;"/><line x1="207.43" y1="289.94" x2="207.43" y2="238.63" style="fill:none; stroke:#ed0030; stroke-linecap:round; stroke-miterlimit:10; stroke-width:2.94px;"/><polygon points="210.99 271.45 208.87 271.87 208.87 260.4 210.99 259.98 210.99 271.45" style="fill:#fff;"/><polygon points="226.51 265.52 224.39 265.94 224.39 254.47 226.51 254.05 226.51 265.52" style="fill:#e6e6e6;"/><polyline points="210.35 242.51 207.45 235.59 204.06 242.51" style="fill:none; stroke:#ed0030; stroke-linecap:round; stroke-miterlimit:10; stroke-width:2.38px;"/></g></svg>