<?xml version="1.0" encoding="UTF-8"?><svg id="_レイヤー_2" xmlns="http://www.w3.org/2000/svg" width="516.49" height="407.97" viewBox="0 0 516.49 407.97"><g id="_レイヤー_1-2"><path d="m67.85,403.13c2.66-102.42-34.58-155.63-66.51-174.25v50.55c33.25,47.89,29.25,123.71,29.25,123.71h37.25Z" style="fill:#9fc8fa;"/><line x1="119.72" y1="256.83" x2="119.72" y2="400.47" style="fill:none; stroke:#e6e6e6; stroke-linecap:round; stroke-miterlimit:10; stroke-width:8px;"/><path d="m337.07,3.37v124.96c0,48.54-47.59,94-127.4,123.93C129.86,282.19,5.33,327.31,5.33,327.31" style="fill:none; stroke:#4d4948; stroke-miterlimit:10; stroke-width:7.56px;"/><path d="m337.07,3.37v124.96c0,48.54-47.59,94-127.4,123.93C129.86,282.19,5.33,327.31,5.33,327.31" style="fill:none; stroke:#fff; stroke-miterlimit:10; stroke-width:5.04px;"/><path d="m337.07,3.37v124.96c0,48.54-47.59,94-127.4,123.93C129.86,282.19,5.33,327.31,5.33,327.31" style="fill:none; stroke:#4d4948; stroke-dasharray:0 0 25.2 25.2; stroke-miterlimit:10; stroke-width:5.04px;"/><polygon points="232.27 273.52 207.18 273.95 207.18 203.72 232.27 203.29 232.27 273.52" style="fill:#fff;"/><circle cx="389.75" cy="230.21" r="4.49" style="fill:gray;"/><circle cx="431.8" cy="175.67" r="4.49" style="fill:gray;"/><circle cx="389.75" cy="119.31" r="4.49" style="fill:gray;"/><circle cx="389.75" cy="69.26" r="4.49" style="fill:gray;"/><line x1="218.97" y1="7.5" x2="218.97" y2="400.47" style="fill:none; stroke:#e6e6e6; stroke-linecap:round; stroke-miterlimit:10; stroke-width:15px;"/><line x1="12.41" y1="64.3" x2="212.82" y2="64.3" style="fill:none; stroke:#e6e6e6; stroke-linecap:round; stroke-miterlimit:10; stroke-width:15px;"/><rect x="294.43" y="41.08" width="85.22" height="40.24" transform="translate(398.25 -275.84) rotate(90)" style="fill:#fff; stroke:#545454; stroke-miterlimit:10; stroke-width:.5px;"/><line x1="369.75" y1="7.5" x2="369.75" y2="400.47" style="fill:none; stroke:#e6e6e6; stroke-linecap:round; stroke-miterlimit:10; stroke-width:8px;"/><line x1="412.09" y1="7.5" x2="412.09" y2="400.47" style="fill:none; stroke:#e6e6e6; stroke-linecap:round; stroke-miterlimit:10; stroke-width:15px;"/><line x1="370.78" y1="102.51" x2="408.99" y2="102.51" style="fill:none; stroke:#e6e6e6; stroke-linecap:round; stroke-miterlimit:10; stroke-width:8px;"/><line x1="370.78" y1="174.46" x2="408.99" y2="174.46" style="fill:none; stroke:#e6e6e6; stroke-linecap:round; stroke-miterlimit:10; stroke-width:8px;"/><line x1="370.78" y1="246.41" x2="408.99" y2="246.41" style="fill:none; stroke:#e6e6e6; stroke-linecap:round; stroke-miterlimit:10; stroke-width:8px;"/><line x1="122.38" y1="293.09" x2="408.99" y2="293.09" style="fill:none; stroke:#e6e6e6; stroke-linecap:round; stroke-miterlimit:10; stroke-width:8px;"/><path d="m153.9,337.57h-43.38c-12.39,0-55.98,12.36-95.89,29.65" style="fill:none; stroke:#6a6766; stroke-miterlimit:10; stroke-width:7.56px;"/><path d="m153.9,337.57h-43.38c-12.39,0-55.98,12.36-95.89,29.65" style="fill:none; stroke:#fff; stroke-miterlimit:10; stroke-width:5.04px;"/><path d="m153.9,337.57h-43.38c-12.39,0-55.98,12.36-95.89,29.65" style="fill:none; stroke:#6a6766; stroke-dasharray:0 0 11 13; stroke-miterlimit:10; stroke-width:5.04px;"/><rect x="124.72" y="322.48" width="85.22" height="32.41" style="fill:#fff; stroke:#545454; stroke-miterlimit:10; stroke-width:.5px;"/><rect x="255" y="49.2" width="57.83" height="28.92" rx="12" ry="12" style="fill:none; stroke:#e6e6e6; stroke-linecap:round; stroke-miterlimit:10; stroke-width:8px;"/><line x1="224.18" y1="65.33" x2="255" y2="65.33" style="fill:none; stroke:#e6e6e6; stroke-linecap:round; stroke-miterlimit:10; stroke-width:8px;"/><line x1="266.04" y1="79.9" x2="266.04" y2="195.63" style="fill:none; stroke:#e6e6e6; stroke-linecap:round; stroke-miterlimit:10; stroke-width:8px;"/><path d="m300.84,78.12v73.61c0,15.96-9.52,29.26-26.81,42.57-17.29,13.3-43.9,25.27-107.74,50.55-18.01,7.13-30.59,9.34-43.9,9.34S4,210.26,4,210.26" style="fill:none; stroke:#e6e6e6; stroke-linecap:round; stroke-miterlimit:10; stroke-width:8px;"/><polyline points="200.01 234.89 208.61 242.67 208.61 298.05 200.01 306.61" style="fill:none; stroke:#545454; stroke-miterlimit:10; stroke-width:.48px;"/><polyline points="238.65 227.42 230.05 235.21 230.05 300.13 238.65 308.69" style="fill:none; stroke:#545454; stroke-miterlimit:10; stroke-width:.48px;"/><line x1="299.25" y1="292.73" x2="299.25" y2="400.47" style="fill:none; stroke:#e6e6e6; stroke-linecap:round; stroke-miterlimit:10; stroke-width:8px;"/><line x1="207.61" y1="308.39" x2="207.61" y2="338.98" style="fill:none; stroke:#ed0030; stroke-linecap:round; stroke-miterlimit:10; stroke-width:2.94px;"/><polyline points="210.68 311.05 207.79 304.14 204.39 311.05" style="fill:none; stroke:#ed0030; stroke-linecap:round; stroke-miterlimit:10; stroke-width:2.38px;"/><path d="m308.42,88.96v63.85c0,16.22-9.26,32-28.52,47.48-8.93,7.17-27.04,16.71-45.41,24.77" style="fill:none; stroke:#ed0030; stroke-linecap:round; stroke-miterlimit:10; stroke-width:2.94px;"/><polyline points="311.49 91.62 308.6 84.71 305.2 91.62" style="fill:none; stroke:#ed0030; stroke-linecap:round; stroke-miterlimit:10; stroke-width:2.38px;"/><line x1="207.43" y1="289.94" x2="207.43" y2="238.63" style="fill:none; stroke:#ed0030; stroke-linecap:round; stroke-miterlimit:10; stroke-width:2.94px;"/><polygon points="210.99 271.45 208.87 271.87 208.87 260.4 210.99 259.98 210.99 271.45" style="fill:#fff;"/><polygon points="226.51 265.52 224.39 265.94 224.39 254.47 226.51 254.05 226.51 265.52" style="fill:#e6e6e6;"/><polyline points="210.35 242.51 207.45 235.59 204.06 242.51" style="fill:none; stroke:#ed0030; stroke-linecap:round; stroke-miterlimit:10; stroke-width:2.38px;"/><path d="m134.11,333.97c.03.49.14.89.33,1.2.38.57,1.03.86,1.98.86.42,0,.81-.06,1.16-.19.67-.24,1.01-.68,1.01-1.31,0-.47-.14-.81-.43-1.01-.29-.2-.74-.37-1.36-.51l-1.13-.26c-.74-.17-1.27-.36-1.57-.57-.53-.36-.8-.9-.8-1.62,0-.78.26-1.42.79-1.91.52-.5,1.26-.75,2.22-.75.88,0,1.63.22,2.25.66.62.44.92,1.14.92,2.1h-1.1c-.06-.46-.18-.82-.36-1.07-.34-.45-.92-.68-1.74-.68-.66,0-1.14.15-1.43.44-.29.29-.43.63-.43,1.01,0,.42.17.73.51.93.22.13.73.28,1.52.47l1.17.28c.57.13,1,.32,1.31.55.53.4.8.99.8,1.76,0,.96-.34,1.64-1.02,2.05-.68.41-1.47.62-2.37.62-1.05,0-1.87-.27-2.46-.82-.59-.54-.88-1.29-.87-2.22h1.1Z" style="fill:gray;"/><path d="m141.14,328.09h1.06v3.23c.25-.32.48-.54.68-.67.34-.22.77-.33,1.28-.33.91,0,1.53.32,1.86.96.18.35.27.83.27,1.45v4.04h-1.09v-3.97c0-.46-.06-.8-.18-1.02-.19-.35-.55-.52-1.08-.52-.44,0-.84.15-1.2.45-.36.3-.54.87-.54,1.71v3.34h-1.06v-8.68Z" style="fill:gray;"/><path d="m147.78,328.12h1.08v1.2h-1.08v-1.2Zm0,2.37h1.08v6.27h-1.08v-6.27Z" style="fill:gray;"/><path d="m150.38,330.46h1.01v.9c.3-.37.61-.63.95-.79.33-.16.7-.24,1.11-.24.89,0,1.5.31,1.81.94.17.34.26.83.26,1.47v4.04h-1.08v-3.97c0-.38-.06-.69-.17-.93-.19-.39-.53-.59-1.02-.59-.25,0-.46.03-.62.08-.29.09-.54.26-.76.52-.18.21-.29.42-.34.64s-.08.54-.08.95v3.3h-1.06v-6.3Z" style="fill:gray;"/><path d="m156.87,332.86h2.96v1.09h-2.96v-1.09Z" style="fill:gray;"/><path d="m162.09,333.97c.03.49.14.89.33,1.2.38.57,1.03.86,1.98.86.42,0,.81-.06,1.16-.19.67-.24,1.01-.68,1.01-1.31,0-.47-.14-.81-.43-1.01-.29-.2-.74-.37-1.36-.51l-1.13-.26c-.74-.17-1.27-.36-1.57-.57-.53-.36-.8-.9-.8-1.62,0-.78.26-1.42.79-1.91.52-.5,1.26-.75,2.22-.75.88,0,1.63.22,2.25.66.62.44.92,1.14.92,2.1h-1.1c-.06-.46-.18-.82-.36-1.07-.34-.45-.92-.68-1.74-.68-.66,0-1.14.15-1.43.44-.29.29-.43.63-.43,1.01,0,.42.17.73.51.93.22.13.73.28,1.52.47l1.17.28c.57.13,1,.32,1.31.55.53.4.8.99.8,1.76,0,.96-.34,1.64-1.02,2.05-.68.41-1.47.62-2.37.62-1.05,0-1.87-.27-2.46-.82-.59-.54-.88-1.29-.87-2.22h1.1Z" style="fill:gray;"/><path d="m169.11,328.09h1.06v3.23c.25-.32.48-.54.68-.67.34-.22.77-.33,1.28-.33.91,0,1.53.32,1.86.96.18.35.27.83.27,1.45v4.04h-1.09v-3.97c0-.46-.06-.8-.18-1.02-.19-.35-.55-.52-1.08-.52-.44,0-.84.15-1.2.45-.36.3-.54.87-.54,1.71v3.34h-1.06v-8.68Z" style="fill:gray;"/><path d="m175.75,328.12h1.08v1.2h-1.08v-1.2Zm0,2.37h1.08v6.27h-1.08v-6.27Z" style="fill:gray;"/><path d="m178.35,330.46h1.05v.9c.25-.31.48-.54.68-.68.35-.24.75-.36,1.19-.36.5,0,.91.12,1.21.37.17.14.33.35.47.62.24-.34.51-.59.83-.75.32-.16.67-.24,1.07-.24.85,0,1.42.31,1.73.92.17.33.25.77.25,1.33v4.2h-1.1v-4.38c0-.42-.1-.71-.31-.87-.21-.16-.47-.24-.77-.24-.42,0-.77.14-1.07.42-.3.28-.45.74-.45,1.4v3.67h-1.08v-4.11c0-.43-.05-.74-.15-.94-.16-.29-.46-.44-.9-.44-.4,0-.76.16-1.09.46-.33.31-.49.87-.49,1.68v3.34h-1.06v-6.3Z" style="fill:gray;"/><path d="m188.34,328.12h1.08v1.2h-1.08v-1.2Zm0,2.37h1.08v6.27h-1.08v-6.27Z" style="fill:gray;"/><path d="m190.41,335.93l3.74-4.52h-3.47v-.95h4.89v.87l-3.72,4.49h3.83v.95h-5.28v-.84Z" style="fill:gray;"/><path d="m197.75,330.46v4.19c0,.32.05.58.15.79.18.38.53.56,1.03.56.72,0,1.21-.33,1.47-.99.14-.35.21-.84.21-1.45v-3.1h1.06v6.3h-1v-.93c-.12.24-.29.44-.49.61-.4.33-.88.5-1.44.5-.88,0-1.48-.3-1.8-.9-.17-.32-.26-.75-.26-1.29v-4.29h1.08Z" style="fill:gray;"/><path d="m150.63,346.43c.03.49.14.89.33,1.2.38.57,1.03.86,1.98.86.42,0,.81-.06,1.16-.19.67-.24,1.01-.68,1.01-1.31,0-.47-.14-.81-.43-1.01-.29-.2-.74-.37-1.36-.51l-1.13-.26c-.74-.17-1.27-.36-1.57-.57-.53-.36-.8-.9-.8-1.62,0-.78.26-1.42.79-1.91.52-.5,1.26-.75,2.22-.75.88,0,1.63.22,2.25.66.62.44.92,1.14.92,2.1h-1.1c-.06-.46-.18-.82-.36-1.07-.34-.45-.92-.68-1.74-.68-.66,0-1.14.15-1.43.44-.29.29-.43.63-.43,1.01,0,.42.17.73.51.93.22.13.73.28,1.52.47l1.17.28c.57.13,1,.32,1.31.55.53.4.8.99.8,1.76,0,.96-.34,1.64-1.02,2.05-.68.41-1.47.62-2.37.62-1.05,0-1.87-.27-2.46-.82-.59-.54-.88-1.29-.87-2.22h1.1Z" style="fill:gray;"/><path d="m157.86,341.15h1.07v1.76h1.01v.87h-1.01v4.11c0,.22.07.37.22.44.08.04.22.06.41.06.05,0,.11,0,.16,0,.06,0,.13,0,.21-.02v.84c-.12.04-.25.06-.38.08-.13.02-.27.02-.43.02-.5,0-.83-.13-1.01-.38s-.26-.58-.26-.99v-4.17h-.85v-.87h.85v-1.76Z" style="fill:gray;"/><path d="m164.37,345.4c.24-.03.41-.13.49-.31.05-.09.07-.23.07-.41,0-.36-.13-.63-.38-.79s-.62-.25-1.1-.25c-.55,0-.94.15-1.17.45-.13.17-.21.41-.25.74h-.99c.02-.78.27-1.32.75-1.63.48-.3,1.05-.46,1.68-.46.74,0,1.34.14,1.81.42.46.28.69.72.69,1.32v3.63c0,.11.02.2.07.26.04.07.14.1.29.1.05,0,.1,0,.16,0,.06,0,.12-.01.19-.03v.78c-.17.05-.29.08-.38.09-.09.01-.2.02-.35.02-.37,0-.63-.13-.79-.39-.09-.14-.15-.33-.18-.58-.22.28-.53.53-.93.74-.4.21-.85.31-1.34.31-.58,0-1.06-.18-1.43-.53s-.56-.8-.56-1.33c0-.58.18-1.04.55-1.36s.84-.52,1.44-.59l1.69-.21Zm-2.23,2.86c.22.18.49.26.79.26.37,0,.73-.09,1.08-.26.59-.29.88-.75.88-1.4v-.85c-.13.08-.3.15-.5.21-.2.05-.4.09-.6.12l-.64.08c-.38.05-.67.13-.87.24-.33.18-.49.48-.49.88,0,.31.11.55.34.72Z" style="fill:gray;"/><path d="m167.74,341.15h1.07v1.76h1.01v.87h-1.01v4.11c0,.22.07.37.22.44.08.04.22.06.41.06.05,0,.11,0,.16,0,.06,0,.13,0,.21-.02v.84c-.12.04-.25.06-.38.08-.13.02-.27.02-.43.02-.5,0-.83-.13-1.01-.38s-.26-.58-.26-.99v-4.17h-.85v-.87h.85v-1.76Z" style="fill:gray;"/><path d="m170.85,340.57h1.08v1.2h-1.08v-1.2Zm0,2.37h1.08v6.27h-1.08v-6.27Z" style="fill:gray;"/><path d="m178.1,343.54c.56.54.84,1.34.84,2.39s-.25,1.85-.74,2.52c-.49.66-1.25.99-2.29.99-.86,0-1.55-.29-2.05-.88-.51-.59-.76-1.37-.76-2.36,0-1.06.27-1.9.8-2.53.53-.63,1.25-.94,2.15-.94.81,0,1.49.27,2.05.81Zm-.66,4.19c.26-.53.39-1.12.39-1.77,0-.59-.09-1.07-.28-1.43-.29-.58-.8-.87-1.53-.87-.64,0-1.11.25-1.4.74-.29.49-.44,1.09-.44,1.79s.15,1.23.44,1.67c.29.45.75.67,1.38.67.69,0,1.17-.27,1.43-.8Z" style="fill:gray;"/><path d="m180.17,342.91h1.01v.9c.3-.37.61-.63.95-.79.33-.16.7-.24,1.11-.24.89,0,1.5.31,1.81.94.17.34.26.83.26,1.47v4.04h-1.08v-3.97c0-.38-.06-.69-.17-.93-.19-.39-.53-.59-1.02-.59-.25,0-.46.03-.62.08-.29.09-.54.26-.76.52-.18.21-.29.42-.34.64s-.08.54-.08.95v3.3h-1.06v-6.3Z" style="fill:gray;"/><path d="m411.38,295.42c-.42.02-.76.12-1.02.29-.49.32-.74.88-.74,1.69,0,.36.05.69.16.99.21.58.58.86,1.12.86.4,0,.69-.12.86-.37.17-.25.31-.63.44-1.16l.23-.97c.15-.63.31-1.08.49-1.35.31-.46.77-.68,1.38-.68.67,0,1.21.22,1.64.67.43.45.64,1.08.64,1.9,0,.75-.19,1.4-.56,1.92-.38.53-.97.79-1.8.79v-.94c.4-.05.7-.15.91-.31.39-.29.58-.79.58-1.49,0-.57-.12-.97-.37-1.22-.25-.25-.54-.37-.87-.37-.36,0-.63.15-.8.44-.11.19-.24.63-.4,1.3l-.24,1.01c-.11.48-.27.86-.47,1.12-.35.46-.85.68-1.51.68-.82,0-1.41-.29-1.76-.87s-.53-1.26-.53-2.03c0-.9.24-1.6.71-2.11.47-.51,1.1-.76,1.9-.75v.94Z" style="fill:gray;"/><path d="m416.42,301.51v.91h-2.76c.27.21.46.41.57.58.19.29.29.66.29,1.09,0,.78-.27,1.31-.82,1.59-.3.15-.71.23-1.24.23h-3.46v-.93h3.4c.4,0,.69-.05.87-.15.29-.17.44-.47.44-.93,0-.38-.13-.72-.39-1.02-.26-.31-.75-.46-1.47-.46h-2.86v-.91h7.42Z" style="fill:gray;"/><path d="m414.36,307.27v.92h-5.37v-.92h5.37Zm2.03,0v.92h-1.03v-.92h1.03Z" style="fill:gray;"/><path d="m414.39,309.57v.9h-.77c.27.21.46.41.58.58.21.3.31.64.31,1.02,0,.43-.11.78-.32,1.04-.12.15-.3.28-.53.4.29.2.5.44.64.71.14.27.21.58.21.92,0,.73-.26,1.22-.79,1.48-.28.14-.66.21-1.14.21h-3.59v-.94h3.75c.36,0,.61-.09.74-.27.13-.18.2-.4.2-.66,0-.36-.12-.66-.36-.92-.24-.26-.64-.38-1.19-.38h-3.14v-.92h3.52c.37,0,.63-.04.8-.13.25-.14.38-.39.38-.77,0-.34-.13-.65-.4-.93-.27-.28-.75-.42-1.44-.42h-2.86v-.91h5.39Z" style="fill:gray;"/><path d="m414.36,318.18v.92h-5.37v-.92h5.37Zm2.03,0v.92h-1.03v-.92h1.03Z" style="fill:gray;"/><path d="m409.71,320.03l3.87,3.2v-2.97h.81v4.19h-.74l-3.84-3.18v3.28h-.81v-4.52h.71Z" style="fill:gray;"/><path d="m414.39,326.39h-3.58c-.28,0-.5.04-.67.13-.32.16-.48.45-.48.88,0,.62.28,1.03.85,1.26.3.12.72.18,1.24.18h2.65v.91h-5.39v-.86h.8c-.21-.1-.38-.25-.52-.42-.28-.34-.42-.75-.42-1.24,0-.75.26-1.27.77-1.54.27-.15.64-.22,1.1-.22h3.67v.93Z" style="fill:gray;"/><path d="m416.39,334.19v1.44l-6.26,2.13,6.26,2.11v1.43h-7.4v-.96h4.37c.15,0,.4,0,.75.01.35,0,.72,0,1.12,0l-6.24-2.11v-.99l6.24-2.13h-.23c-.18,0-.46,0-.83.01-.37.01-.64.02-.82.02h-4.37v-.96h7.4Z" style="fill:gray;"/><path d="m412.26,345.61c.03.21.11.35.26.42.08.04.2.06.35.06.31,0,.54-.11.67-.33.14-.22.21-.53.21-.94,0-.47-.13-.81-.38-1-.14-.11-.35-.18-.63-.22v-.85c.67.02,1.13.23,1.39.65.26.41.39.89.39,1.44,0,.63-.12,1.15-.36,1.54-.24.39-.62.59-1.13.59h-3.11c-.09,0-.17.02-.23.06-.06.04-.09.12-.09.25,0,.04,0,.08,0,.14,0,.05.01.1.02.16h-.67c-.04-.14-.07-.25-.08-.32,0-.07-.02-.17-.02-.3,0-.31.11-.54.33-.68.12-.07.28-.13.5-.16-.24-.18-.45-.45-.63-.8-.18-.35-.27-.73-.27-1.14,0-.5.15-.91.46-1.23.3-.32.68-.48,1.14-.48.5,0,.89.16,1.16.47.28.31.44.72.51,1.23l.18,1.45Zm-2.45-1.91c-.15.19-.23.42-.23.68,0,.32.07.63.22.93.25.5.65.76,1.2.76h.73c-.07-.11-.13-.25-.18-.43-.05-.17-.08-.34-.1-.51l-.07-.55c-.04-.33-.11-.58-.21-.74-.16-.28-.41-.42-.75-.42-.26,0-.47.1-.62.29Z" style="fill:gray;"/><path d="m414.39,348.5v.86h-.93c.18.07.4.24.66.52.26.28.39.59.39.95,0,.02,0,.04,0,.08,0,.04-.01.11-.02.21h-.96c0-.05.02-.1.02-.15,0-.05,0-.09,0-.15,0-.46-.15-.81-.44-1.05-.29-.25-.63-.37-1.02-.37h-3.1v-.91h5.39Z" style="fill:gray;"/><path d="m414.36,351.96v.92h-5.37v-.92h5.37Zm2.03,0v.92h-1.03v-.92h1.03Z" style="fill:gray;"/><path d="m414.39,354.26v.86h-.77c.32.25.54.53.68.81s.21.6.21.95c0,.77-.27,1.28-.8,1.55-.29.15-.71.22-1.25.22h-3.46v-.92h3.4c.33,0,.59-.05.8-.15.33-.16.5-.45.5-.88,0-.21-.02-.39-.07-.53-.07-.25-.22-.47-.44-.65-.18-.15-.36-.25-.55-.29-.19-.05-.46-.07-.81-.07h-2.83v-.91h5.39Z" style="fill:gray;"/><path d="m414.24,363.36c-.18.36-.41.63-.7.82-.27.18-.59.3-.95.36-.25.05-.64.08-1.19.08v-3.92c-.55.02-.99.14-1.32.38-.33.24-.5.61-.5,1.11,0,.47.16.84.47,1.12.18.16.39.27.63.33v.89c-.2-.02-.42-.1-.66-.23-.24-.13-.44-.28-.6-.44-.27-.27-.45-.61-.54-1.01-.05-.22-.08-.46-.08-.74,0-.67.24-1.23.73-1.7.49-.46,1.17-.7,2.05-.7s1.57.23,2.11.7c.54.47.81,1.08.81,1.83,0,.38-.09.75-.27,1.11Zm-2.12.32c.39-.04.71-.12.94-.25.44-.25.65-.66.65-1.23,0-.41-.15-.76-.45-1.04-.3-.28-.68-.43-1.15-.45v2.97Z" style="fill:gray;"/><path d="m416.39,368.87v3.36c0,.55-.08,1.01-.25,1.37-.32.68-.9,1.02-1.75,1.02-.44,0-.81-.09-1.09-.27-.28-.18-.51-.44-.68-.77-.12.29-.27.51-.46.65-.19.15-.5.23-.93.24l-.99.04c-.28.01-.49.03-.63.07-.23.06-.39.17-.45.32h-.17v-1.23c.06-.03.15-.06.25-.08.1-.02.29-.04.58-.05l1.23-.06c.48-.02.81-.2.97-.52.09-.19.14-.48.14-.88v-2.22h-3.17v-1h7.4Zm-3.39,3.26c0,.46.09.82.28,1.08.19.27.53.4,1.02.4.53,0,.89-.19,1.08-.56.1-.2.15-.46.15-.8v-2.38h-2.53v2.25Z" style="fill:gray;"/><path d="m414.22,379.04c-.1.16-.28.34-.53.55h2.73v.87h-7.42v-.82h.75c-.33-.21-.57-.46-.72-.75s-.22-.62-.22-.99c0-.6.25-1.12.76-1.56.51-.44,1.18-.66,2.02-.66.79,0,1.47.2,2.04.6.58.4.86.97.86,1.71,0,.41-.09.76-.26,1.03Zm-4.04-2.02c-.39.24-.58.63-.58,1.17,0,.42.18.76.54,1.03.36.27.88.4,1.55.4s1.19-.14,1.51-.42c.33-.28.49-.62.49-1.03,0-.45-.17-.82-.52-1.11-.35-.28-.86-.42-1.54-.42-.58,0-1.06.12-1.45.37Z" style="fill:gray;"/><path d="m223.07,106.54v1.18l-5.98,3.69h5.98v.96h-7.4v-1.13l5.97-3.74h-5.97v-.96h7.4Z" style="fill:gray;"/><path d="m218.94,116.75c.03.21.11.35.26.42.08.04.2.06.35.06.31,0,.54-.11.67-.33.14-.22.21-.53.21-.94,0-.47-.13-.81-.38-1-.14-.11-.35-.18-.63-.22v-.85c.67.02,1.13.23,1.39.65.26.41.39.89.39,1.44,0,.63-.12,1.15-.36,1.54-.24.39-.62.59-1.13.59h-3.11c-.09,0-.17.02-.23.06-.06.04-.09.12-.09.25,0,.04,0,.08,0,.14,0,.05.01.1.02.16h-.67c-.04-.14-.07-.25-.08-.32,0-.07-.02-.17-.02-.3,0-.31.11-.54.33-.68.12-.07.28-.13.5-.16-.24-.18-.45-.45-.63-.8-.18-.35-.27-.73-.27-1.14,0-.5.15-.91.46-1.23.3-.32.68-.48,1.14-.48.5,0,.89.16,1.16.47.28.31.44.72.51,1.23l.18,1.45Zm-2.45-1.91c-.15.19-.23.42-.23.68,0,.32.07.63.22.93.25.5.65.76,1.2.76h.73c-.07-.11-.13-.25-.18-.43-.05-.17-.08-.34-.1-.51l-.07-.55c-.04-.33-.11-.58-.21-.74-.16-.28-.41-.42-.75-.42-.26,0-.47.1-.62.29Z" style="fill:gray;"/><path d="m222.57,119.71v.92h-1.51v.86h-.74v-.86h-3.52c-.19,0-.31.06-.38.19-.04.07-.06.19-.06.35,0,.04,0,.09,0,.14,0,.05,0,.11.02.18h-.72c-.03-.1-.05-.21-.07-.32-.01-.11-.02-.23-.02-.37,0-.42.11-.71.33-.86.22-.15.5-.23.84-.23h3.57v-.73h.74v.73h1.51Z" style="fill:gray;"/><path d="m221.04,122.45v.92h-5.37v-.92h5.37Zm2.03,0v.92h-1.03v-.92h1.03Z" style="fill:gray;"/><path d="m220.53,128.72c-.46.48-1.14.72-2.04.72s-1.59-.21-2.15-.63c-.57-.42-.85-1.07-.85-1.96,0-.74.25-1.32.75-1.76.5-.43,1.18-.65,2.02-.65.91,0,1.63.23,2.16.69.54.46.81,1.07.81,1.84,0,.69-.23,1.27-.69,1.75Zm-3.59-.56c.46.22.96.33,1.52.33.5,0,.91-.08,1.23-.24.5-.25.74-.69.74-1.3,0-.55-.21-.95-.63-1.2s-.93-.37-1.53-.37-1.05.12-1.43.37c-.38.25-.57.64-.57,1.19,0,.59.23,1,.68,1.22Z" style="fill:gray;"/><path d="m221.07,130.57v.86h-.77c.32.25.54.53.68.81s.21.6.21.95c0,.77-.27,1.28-.8,1.55-.29.15-.71.22-1.25.22h-3.46v-.92h3.4c.33,0,.59-.05.8-.15.33-.16.5-.45.5-.88,0-.21-.02-.39-.07-.53-.07-.25-.22-.47-.44-.65-.18-.15-.36-.25-.55-.29-.19-.05-.46-.07-.81-.07h-2.83v-.91h5.39Z" style="fill:gray;"/><path d="m218.94,139.18c.03.21.11.35.26.42.08.04.2.06.35.06.31,0,.54-.11.67-.33.14-.22.21-.53.21-.94,0-.47-.13-.81-.38-1-.14-.11-.35-.18-.63-.22v-.85c.67.02,1.13.23,1.39.65.26.41.39.89.39,1.44,0,.63-.12,1.15-.36,1.54-.24.39-.62.59-1.13.59h-3.11c-.09,0-.17.02-.23.06-.06.04-.09.12-.09.25,0,.04,0,.08,0,.14,0,.05.01.1.02.16h-.67c-.04-.14-.07-.25-.08-.32,0-.07-.02-.17-.02-.3,0-.31.11-.54.33-.68.12-.07.28-.13.5-.16-.24-.18-.45-.45-.63-.8-.18-.35-.27-.73-.27-1.14,0-.5.15-.91.46-1.23.3-.32.68-.48,1.14-.48.5,0,.89.16,1.16.47.28.31.44.72.51,1.23l.18,1.45Zm-2.45-1.91c-.15.19-.23.42-.23.68,0,.32.07.63.22.93.25.5.65.76,1.2.76h.73c-.07-.11-.13-.25-.18-.43-.05-.17-.08-.34-.1-.51l-.07-.55c-.04-.33-.11-.58-.21-.74-.16-.28-.41-.42-.75-.42-.26,0-.47.1-.62.29Z" style="fill:gray;"/><path d="m223.07,142.06v.91h-7.4v-.91h7.4Z" style="fill:gray;"/><path d="m223.07,147.43v3.36c0,.55-.08,1.01-.25,1.37-.32.68-.9,1.02-1.75,1.02-.44,0-.81-.09-1.09-.27-.28-.18-.51-.44-.68-.77-.12.29-.27.51-.46.65-.19.15-.5.23-.93.24l-.99.04c-.28.01-.49.03-.63.07-.23.06-.39.17-.45.32h-.17v-1.23c.06-.03.15-.06.25-.08.1-.02.29-.04.58-.05l1.23-.06c.48-.02.81-.2.97-.52.09-.19.14-.48.14-.88v-2.22h-3.17v-1h7.4Zm-3.39,3.26c0,.46.09.82.28,1.08.19.27.53.4,1.02.4.53,0,.89-.19,1.08-.56.1-.2.15-.46.15-.8v-2.38h-2.53v2.25Z" style="fill:gray;"/><path d="m220.53,158.54c-.46.48-1.14.72-2.04.72s-1.59-.21-2.15-.63c-.57-.42-.85-1.07-.85-1.96,0-.74.25-1.32.75-1.76.5-.43,1.18-.65,2.02-.65.91,0,1.63.23,2.16.69.54.46.81,1.07.81,1.84,0,.69-.23,1.27-.69,1.75Zm-3.59-.56c.46.22.96.33,1.52.33.5,0,.91-.08,1.23-.24.5-.25.74-.69.74-1.3,0-.55-.21-.95-.63-1.2s-.93-.37-1.53-.37-1.05.12-1.43.37c-.38.25-.57.64-.57,1.19,0,.59.23,1,.68,1.22Z" style="fill:gray;"/><path d="m221.07,161.29h-3.58c-.28,0-.5.04-.67.13-.32.16-.48.45-.48.88,0,.62.28,1.03.85,1.26.3.12.72.18,1.24.18h2.65v.91h-5.39v-.86h.8c-.21-.1-.38-.25-.52-.42-.28-.34-.42-.75-.42-1.24,0-.75.26-1.27.77-1.54.27-.15.64-.22,1.1-.22h3.67v.93Z" style="fill:gray;"/><path d="m222.57,166.28v.92h-1.51v.86h-.74v-.86h-3.52c-.19,0-.31.06-.38.19-.04.07-.06.19-.06.35,0,.04,0,.09,0,.14,0,.05,0,.11.02.18h-.72c-.03-.1-.05-.21-.07-.32-.01-.11-.02-.23-.02-.37,0-.42.11-.71.33-.86.22-.15.5-.23.84-.23h3.57v-.73h.74v.73h1.51Z" style="fill:gray;"/><path d="m220.92,172.23c-.18.36-.41.63-.7.82-.27.18-.59.3-.95.36-.25.05-.64.08-1.19.08v-3.92c-.55.02-.99.14-1.32.38-.33.24-.5.61-.5,1.11,0,.47.16.84.47,1.12.18.16.39.27.63.33v.89c-.2-.02-.42-.1-.66-.23-.24-.13-.44-.28-.6-.44-.27-.27-.45-.61-.54-1.01-.05-.22-.08-.46-.08-.74,0-.67.24-1.23.73-1.7.49-.46,1.17-.7,2.05-.7s1.57.23,2.11.7c.54.47.81,1.08.81,1.83,0,.38-.09.75-.27,1.11Zm-2.12.32c.39-.04.71-.12.94-.25.44-.25.65-.66.65-1.23,0-.41-.15-.76-.45-1.04-.3-.28-.68-.43-1.15-.45v2.97Z" style="fill:gray;"/><path d="m220.78,177.83h.7c.06.65.17,1.11.32,1.37s.5.45,1.06.58v.71h-7.18v-.97h5.11v-1.7Z" style="fill:gray;"/><path d="m215.67,185.33h1.76v-3.16h.89l4.58,3.3v.77h-4.68v1.06h-.79v-1.06h-1.76v-.91Zm2.55-.01h3.28l-3.28-2.31v2.31Z" style="fill:gray;"/><path d="m217.42,189.1c-.5.03-.85.22-1.04.58-.1.18-.15.39-.15.62,0,.43.18.8.54,1.11s1.09.52,2.2.65c-.32-.2-.54-.45-.67-.75-.13-.3-.19-.62-.19-.96,0-.7.22-1.25.65-1.65s.99-.61,1.67-.61,1.23.2,1.73.6c.5.4.74.99.74,1.77,0,1.05-.47,1.78-1.42,2.18-.52.22-1.17.33-1.95.33-.88,0-1.66-.13-2.35-.4-1.13-.44-1.7-1.19-1.7-2.24,0-.71.18-1.24.55-1.61.37-.37.83-.55,1.39-.55v.92Zm1.83,2.36c.24.3.65.45,1.24.45.53,0,.92-.13,1.18-.4.26-.27.39-.61.39-1.02,0-.44-.15-.79-.45-1.05-.3-.26-.69-.39-1.19-.39-.47,0-.84.11-1.12.34s-.42.59-.42,1.09c0,.36.12.69.35.98Z" style="fill:gray;"/><path d="m13.13,271.47v.88h-2.49v6.52h-1.01v-6.52h-2.49v-.88h6Z" style="fill:#fff;"/><path d="m17.01,274.01c.48.46.72,1.14.72,2.04s-.21,1.59-.63,2.15c-.42.57-1.07.85-1.96.85-.74,0-1.32-.25-1.76-.75-.43-.5-.65-1.18-.65-2.02,0-.91.23-1.63.69-2.16.46-.54,1.07-.81,1.84-.81.69,0,1.27.23,1.75.69Zm-.56,3.59c.22-.46.33-.96.33-1.52,0-.5-.08-.91-.24-1.23-.25-.5-.69-.74-1.3-.74-.55,0-.95.21-1.2.63s-.37.93-.37,1.53.12,1.05.37,1.43c.25.38.64.57,1.19.57.59,0,1-.23,1.22-.68Z" style="fill:#fff;"/><path d="m18.86,273.48h.9v.77c.21-.27.41-.46.58-.58.3-.21.64-.31,1.02-.31.43,0,.78.11,1.04.32.15.12.28.3.4.53.2-.29.44-.5.71-.64.27-.14.58-.21.92-.21.73,0,1.22.26,1.48.79.14.28.21.66.21,1.14v3.59h-.94v-3.75c0-.36-.09-.61-.27-.74-.18-.13-.4-.2-.66-.2-.36,0-.66.12-.92.36-.26.24-.38.64-.38,1.19v3.14h-.92v-3.52c0-.37-.04-.63-.13-.8-.14-.25-.39-.38-.77-.38-.34,0-.65.13-.93.4-.28.27-.42.75-.42,1.44v2.86h-.91v-5.39Z" style="fill:#fff;"/><path d="m31.44,274.01c.48.46.72,1.14.72,2.04s-.21,1.59-.63,2.15c-.42.57-1.07.85-1.96.85-.74,0-1.32-.25-1.76-.75-.43-.5-.65-1.18-.65-2.02,0-.91.23-1.63.69-2.16.46-.54,1.07-.81,1.84-.81.69,0,1.27.23,1.75.69Zm-.56,3.59c.22-.46.33-.96.33-1.52,0-.5-.08-.91-.24-1.23-.25-.5-.69-.74-1.3-.74-.55,0-.95.21-1.2.63s-.37.93-.37,1.53.12,1.05.37,1.43c.25.38.64.57,1.19.57.59,0,1-.23,1.22-.68Z" style="fill:#fff;"/><path d="m36.65,273.62c.36.18.63.41.82.7.18.27.3.59.36.95.05.25.08.64.08,1.19h-3.92c.02.55.14.99.38,1.32.24.33.61.5,1.11.5.47,0,.84-.16,1.12-.47.16-.18.27-.39.33-.63h.89c-.02.2-.1.42-.23.66-.13.24-.28.44-.44.6-.27.27-.61.45-1.01.54-.22.05-.46.08-.74.08-.67,0-1.23-.24-1.7-.73-.46-.49-.7-1.17-.7-2.05s.23-1.57.7-2.11c.47-.54,1.08-.81,1.83-.81.38,0,.75.09,1.11.27Zm.32,2.12c-.04-.39-.12-.71-.25-.94-.25-.44-.66-.65-1.23-.65-.41,0-.76.15-1.04.45-.28.3-.43.68-.45,1.15h2.97Z" style="fill:#fff;"/><path d="m11.59,282.13h3.36c.55,0,1.01.08,1.37.25.68.32,1.02.9,1.02,1.75,0,.44-.09.81-.27,1.09-.18.28-.44.51-.77.68.29.12.51.27.65.46.15.19.23.5.24.93l.04.99c.01.28.03.49.07.63.06.23.17.39.32.45v.17h-1.23c-.03-.06-.06-.15-.08-.25-.02-.1-.04-.29-.05-.58l-.06-1.23c-.02-.48-.2-.81-.52-.97-.19-.09-.48-.14-.88-.14h-2.22v3.17h-1v-7.4Zm3.26,3.39c.46,0,.82-.09,1.08-.28.27-.19.4-.53.4-1.02,0-.53-.19-.89-.56-1.08-.2-.1-.46-.15-.8-.15h-2.38v2.53h2.25Z" style="fill:#fff;"/><path d="m18.79,282.13h.92v1.03h-.92v-1.03Zm0,2.03h.92v5.37h-.92v-5.37Z" style="fill:#fff;"/><path d="m21.59,284.13l1.44,4.39,1.5-4.39h.99l-2.03,5.39h-.97l-1.99-5.39h1.05Z" style="fill:#fff;"/><path d="m29.49,284.28c.36.18.63.41.82.7.18.27.3.59.36.95.05.25.08.64.08,1.19h-3.92c.02.55.14.99.38,1.32.24.33.61.5,1.11.5.47,0,.84-.16,1.12-.47.16-.18.27-.39.33-.63h.89c-.02.2-.1.42-.23.66-.13.24-.28.44-.44.6-.27.27-.61.45-1.01.54-.22.05-.46.08-.74.08-.67,0-1.23-.24-1.7-.73-.46-.49-.7-1.17-.7-2.05s.23-1.57.7-2.11c.47-.54,1.08-.81,1.83-.81.38,0,.75.09,1.11.27Zm.32,2.12c-.04-.39-.12-.71-.25-.94-.25-.44-.66-.65-1.23-.65-.41,0-.76.15-1.04.45-.28.3-.43.68-.45,1.15h2.97Z" style="fill:#fff;"/><path d="m31.92,284.13h.86v.93c.07-.18.24-.4.52-.66.28-.26.59-.39.95-.39.02,0,.04,0,.08,0,.04,0,.11.01.21.02v.96c-.05,0-.1-.02-.15-.02-.05,0-.09,0-.15,0-.46,0-.81.15-1.05.44-.25.29-.37.63-.37,1.02v3.1h-.91v-5.39Z" style="fill:#fff;"/><path d="m30.62,222.85c-.13.4-.16.75-.1,1.06.12.57.57,1,1.32,1.29.34.13.67.2.98.2.61,0,1.01-.24,1.21-.74.14-.38.13-.69-.04-.94-.17-.24-.48-.52-.93-.82l-.83-.56c-.54-.36-.9-.67-1.08-.93-.32-.45-.37-.96-.15-1.54.24-.62.64-1.05,1.21-1.29.57-.24,1.24-.21,2,.08.71.27,1.24.67,1.6,1.21.36.54.39,1.19.1,1.96l-.88-.33c.09-.39.11-.71.03-.96-.14-.46-.53-.82-1.19-1.07-.53-.2-.95-.23-1.27-.09-.32.14-.54.37-.66.68-.13.34-.09.64.13.9.14.17.5.45,1.07.84l.86.58c.41.28.71.56.88.84.3.49.34,1.04.1,1.65-.29.77-.77,1.21-1.44,1.33-.67.12-1.36.05-2.08-.23-.84-.32-1.41-.79-1.72-1.41-.31-.62-.32-1.3-.02-2.04l.88.33Z" style="fill:gray;"/><path d="m38.1,220.31l.85.32-.98,2.58c.3-.18.55-.29.75-.33.34-.07.72-.03,1.12.12.73.28,1.13.72,1.2,1.33.03.33-.04.75-.23,1.24l-1.23,3.23-.87-.33,1.21-3.18c.14-.37.2-.66.17-.87-.05-.33-.29-.58-.71-.74-.35-.13-.72-.13-1.09,0-.38.13-.7.54-.95,1.21l-1.02,2.67-.85-.32,2.64-6.94Z" style="fill:gray;"/><path d="m42.75,224.28l.86.33-1.91,5.02-.86-.33,1.91-5.02Zm.72-1.9l.86.33-.37.96-.86-.33.37-.96Z" style="fill:gray;"/><path d="m44.91,225.07l.84.32-.27.72c.29-.17.55-.28.75-.33.35-.09.71-.06,1.06.07.4.15.69.38.86.67.09.17.16.38.19.64.29-.2.59-.31.89-.35.3-.03.61,0,.93.13.68.26,1.05.68,1.1,1.26.03.31-.04.69-.21,1.14l-1.28,3.36-.88-.33,1.33-3.5c.13-.34.13-.6.01-.79s-.3-.33-.54-.42c-.33-.13-.66-.12-.99,0-.33.13-.59.46-.79.98l-1.12,2.93-.86-.33,1.25-3.29c.13-.34.18-.61.16-.79-.04-.29-.23-.49-.59-.63-.32-.12-.66-.11-1.01.04-.36.15-.66.55-.91,1.2l-1.02,2.67-.85-.32,1.92-5.04Z" style="fill:gray;"/><path d="m52.95,228.16l.86.33-1.91,5.02-.86-.33,1.91-5.02Zm.72-1.9l.86.33-.37.96-.86-.33.37-.96Z" style="fill:gray;"/><path d="m53.03,233.17l4.37-2.48-2.77-1.06.29-.76,3.91,1.49-.26.69-4.34,2.46,3.06,1.17-.29.76-4.22-1.61.25-.67Z" style="fill:gray;"/><path d="m60.64,231.06l-1.27,3.35c-.1.26-.14.48-.12.68.03.36.25.61.65.76.58.22,1.07.1,1.47-.34.22-.24.42-.61.61-1.1l.94-2.48.85.32-1.92,5.04-.8-.3.29-.74c-.18.15-.38.26-.59.33-.42.14-.85.13-1.31-.04-.71-.27-1.09-.69-1.17-1.27-.04-.31.02-.68.18-1.11l1.3-3.43.87.33Z" style="fill:gray;"/><path d="m73.18,233.92c.54.62.71,1.41.52,2.37l-.93-.35c.08-.55,0-1-.27-1.37-.26-.36-.65-.64-1.18-.85-.63-.24-1.25-.2-1.86.12-.61.32-1.1.95-1.46,1.9-.31.82-.39,1.56-.23,2.21.16.65.63,1.13,1.44,1.43.61.23,1.19.24,1.73.03.54-.21.97-.72,1.29-1.52l-2.17-.82.3-.78,3.04,1.16-1.41,3.7-.6-.23.11-.98c-.44.23-.81.37-1.1.41-.49.08-1.05,0-1.68-.24-.8-.31-1.4-.84-1.78-1.59-.38-.91-.35-1.94.09-3.1.44-1.16,1.1-1.96,1.98-2.41.84-.43,1.72-.46,2.66-.11.64.24,1.15.58,1.52,1.01Z" style="fill:gray;"/><path d="m75.31,236.67l.86.33-1.91,5.02-.86-.33,1.91-5.02Zm.72-1.9l.86.33-.37.96-.86-.33.37-.96Z" style="fill:gray;"/><path d="m77.47,237.47l.8.31-.27.72c.35-.2.68-.32,1-.35.31-.03.64.02.96.15.72.27,1.1.71,1.17,1.3.03.33-.05.74-.24,1.25l-1.23,3.23-.86-.33,1.21-3.18c.12-.31.17-.57.15-.8-.03-.37-.24-.63-.64-.78-.2-.08-.38-.12-.52-.13-.26-.02-.52.04-.77.18-.2.11-.36.25-.47.41-.11.16-.23.41-.35.74l-1,2.64-.85-.32,1.92-5.04Z" style="fill:gray;"/><path d="m80.77,243.73l4.37-2.48-2.77-1.06.29-.76,3.91,1.49-.26.69-4.34,2.46,3.06,1.17-.29.76-4.22-1.61.25-.67Z" style="fill:gray;"/><path d="m89.6,244.36c.2.05.36.02.48-.1.07-.06.13-.16.18-.3.11-.29.09-.54-.07-.75-.15-.21-.42-.39-.81-.53-.44-.17-.8-.17-1.08,0-.15.09-.3.26-.43.51l-.79-.3c.25-.62.62-.97,1.1-1.07.48-.1.98-.05,1.49.15.59.23,1.03.52,1.31.89.28.37.33.79.15,1.26l-1.11,2.9c-.03.09-.04.17-.03.23s.08.12.2.17c.04.01.08.03.13.04.05.01.1.02.16.04l-.24.63c-.15-.01-.26-.03-.33-.04-.07-.02-.17-.05-.29-.09-.29-.11-.46-.3-.52-.55-.03-.14-.02-.31.03-.52-.26.16-.58.26-.97.3-.39.04-.77,0-1.16-.16-.47-.18-.8-.47-.98-.86s-.2-.81-.04-1.23c.18-.47.46-.77.85-.92.39-.15.83-.16,1.33-.04l1.42.35Zm-2.66,1.61c.13.21.31.36.55.45.3.11.61.15.95.12.56-.05.94-.33,1.13-.85l.26-.68c-.13.03-.28.03-.46.01-.18-.02-.35-.05-.51-.09l-.54-.13c-.32-.08-.58-.1-.77-.07-.32.05-.54.23-.66.56-.09.24-.08.47.05.68Z" style="fill:gray;"/><path d="m271.1,88.16c-.42.02-.76.12-1.02.29-.49.32-.74.88-.74,1.69,0,.36.05.69.16.99.21.58.58.86,1.12.86.4,0,.69-.12.86-.37.17-.25.31-.63.44-1.16l.23-.97c.15-.63.31-1.08.49-1.35.31-.46.77-.68,1.38-.68.67,0,1.21.22,1.64.67.43.45.64,1.08.64,1.9,0,.75-.19,1.4-.56,1.92-.38.53-.97.79-1.8.79v-.94c.4-.05.7-.15.91-.31.39-.29.58-.79.58-1.49,0-.57-.12-.97-.37-1.22-.25-.25-.54-.37-.87-.37-.36,0-.63.15-.8.44-.11.19-.24.63-.4,1.3l-.24,1.01c-.11.48-.27.86-.47,1.12-.35.46-.85.68-1.51.68-.82,0-1.41-.29-1.76-.87s-.53-1.26-.53-2.03c0-.9.24-1.6.71-2.11.47-.51,1.1-.76,1.9-.75v.94Z" style="fill:gray;"/><path d="m276.14,94.25v.91h-2.76c.27.21.46.41.57.58.19.29.29.66.29,1.09,0,.78-.27,1.31-.82,1.59-.3.15-.71.23-1.24.23h-3.46v-.93h3.4c.4,0,.69-.05.87-.15.29-.17.44-.47.44-.93,0-.38-.13-.72-.39-1.02-.26-.31-.75-.46-1.47-.46h-2.86v-.91h7.42Z" style="fill:gray;"/><path d="m274.08,100v.92h-5.37v-.92h5.37Zm2.03,0v.92h-1.03v-.92h1.03Z" style="fill:gray;"/><path d="m274.11,102.3v.9h-.77c.27.21.46.41.58.58.21.3.31.64.31,1.02,0,.43-.11.78-.32,1.04-.12.15-.3.28-.53.4.29.2.5.44.64.71.14.27.21.58.21.92,0,.73-.26,1.22-.79,1.48-.28.14-.66.21-1.14.21h-3.59v-.94h3.75c.36,0,.61-.09.74-.27.13-.18.2-.4.2-.66,0-.36-.12-.66-.36-.92-.24-.26-.64-.38-1.19-.38h-3.14v-.92h3.52c.37,0,.63-.04.8-.13.25-.14.38-.39.38-.77,0-.34-.13-.65-.4-.93-.27-.28-.75-.42-1.44-.42h-2.86v-.91h5.39Z" style="fill:gray;"/><path d="m274.08,110.92v.92h-5.37v-.92h5.37Zm2.03,0v.92h-1.03v-.92h1.03Z" style="fill:gray;"/><path d="m269.43,112.77l3.87,3.2v-2.97h.81v4.19h-.74l-3.84-3.18v3.28h-.81v-4.52h.71Z" style="fill:gray;"/><path d="m274.11,119.13h-3.58c-.28,0-.5.04-.67.13-.32.16-.48.45-.48.88,0,.62.28,1.03.85,1.26.3.12.72.18,1.24.18h2.65v.91h-5.39v-.86h.8c-.21-.1-.38-.25-.52-.42-.28-.34-.42-.75-.42-1.24,0-.75.26-1.27.77-1.54.27-.15.64-.22,1.1-.22h3.67v.93Z" style="fill:gray;"/><path d="m276.11,127.04v5.37h-.91v-4.39h-2.25v4.06h-.86v-4.06h-2.51v4.47h-.88v-5.44h7.4Z" style="fill:gray;"/><path d="m276.11,133.56v.87h-4.3l2.29,2.32v1.16l-2.01-2.07-3.39,2.19v-1.16l2.75-1.7-.72-.74h-2.02v-.87h7.4Z" style="fill:gray;"/><path d="m274.08,138.82v.92h-5.37v-.92h5.37Zm2.03,0v.92h-1.03v-.92h1.03Z" style="fill:gray;"/><path d="m274.11,141.13v.9h-.77c.27.21.46.41.58.58.21.3.31.64.31,1.02,0,.43-.11.78-.32,1.04-.12.15-.3.28-.53.4.29.2.5.44.64.71.14.27.21.58.21.92,0,.73-.26,1.22-.79,1.48-.28.14-.66.21-1.14.21h-3.59v-.94h3.75c.36,0,.61-.09.74-.27.13-.18.2-.4.2-.66,0-.36-.12-.66-.36-.92-.24-.26-.64-.38-1.19-.38h-3.14v-.92h3.52c.37,0,.63-.04.8-.13.25-.14.38-.39.38-.77,0-.34-.13-.65-.4-.93-.27-.28-.75-.42-1.44-.42h-2.86v-.91h5.39Z" style="fill:gray;"/><path d="m271.98,152.6c.03.21.11.35.26.42.08.04.2.06.35.06.31,0,.54-.11.67-.33.14-.22.21-.53.21-.94,0-.47-.13-.81-.38-1-.14-.11-.35-.18-.63-.22v-.85c.67.02,1.13.23,1.39.65.26.41.39.89.39,1.44,0,.63-.12,1.15-.36,1.54-.24.39-.62.59-1.13.59h-3.11c-.09,0-.17.02-.23.06-.06.04-.09.12-.09.25,0,.04,0,.08,0,.14,0,.05.01.1.02.16h-.67c-.04-.14-.07-.25-.08-.32,0-.07-.02-.17-.02-.3,0-.31.11-.54.33-.68.12-.07.28-.13.5-.16-.24-.18-.45-.45-.63-.8-.18-.35-.27-.73-.27-1.14,0-.5.15-.91.46-1.23.3-.32.68-.48,1.14-.48.5,0,.89.16,1.16.47.28.31.44.72.51,1.23l.18,1.45Zm-2.45-1.91c-.15.19-.23.42-.23.68,0,.32.07.63.22.93.25.5.65.76,1.2.76h.73c-.07-.11-.13-.25-.18-.43-.05-.17-.08-.34-.1-.51l-.07-.55c-.04-.33-.11-.58-.21-.74-.16-.28-.41-.42-.75-.42-.26,0-.47.1-.62.29Z" style="fill:gray;"/><path d="m273.96,158.75c-.18.36-.41.63-.7.82-.27.18-.59.3-.95.36-.25.05-.64.08-1.19.08v-3.92c-.55.02-.99.14-1.32.38-.33.24-.5.61-.5,1.11,0,.47.16.84.47,1.12.18.16.39.27.63.33v.89c-.2-.02-.42-.1-.66-.23-.24-.13-.44-.28-.6-.44-.27-.27-.45-.61-.54-1.01-.05-.22-.08-.46-.08-.74,0-.67.24-1.23.73-1.7.49-.46,1.17-.7,2.05-.7s1.57.23,2.11.7c.54.47.81,1.08.81,1.83,0,.38-.09.75-.27,1.11Zm-2.12.32c.39-.04.71-.12.94-.25.44-.25.65-.66.65-1.23,0-.41-.15-.76-.45-1.04-.3-.28-.68-.43-1.15-.45v2.97Z" style="fill:gray;"/><path d="m273.89,164.2c-.12.17-.29.34-.51.52h.68v.84h-4.91c-.69,0-1.23-.1-1.62-.3-.73-.38-1.1-1.08-1.1-2.12,0-.58.13-1.07.39-1.46.26-.4.67-.62,1.22-.66v.92c-.24.04-.43.13-.56.26-.2.2-.3.52-.3.96,0,.69.25,1.14.74,1.36.29.13.8.18,1.55.17-.28-.18-.48-.4-.62-.65-.13-.25-.2-.59-.2-1.01,0-.58.21-1.09.62-1.53s1.1-.65,2.06-.65c.9,0,1.61.22,2.12.66.51.44.76.97.76,1.59,0,.42-.1.79-.31,1.1Zm-.97.11c.32-.27.48-.62.48-1.05,0-.63-.3-1.07-.9-1.3-.32-.12-.74-.19-1.25-.19-.61,0-1.07.12-1.39.37s-.48.58-.48.99c0,.65.29,1.1.88,1.37.33.15.72.22,1.16.22.67,0,1.16-.14,1.49-.41Z" style="fill:gray;"/><path d="m274.08,166.94v.92h-5.37v-.92h5.37Zm2.03,0v.92h-1.03v-.92h1.03Z" style="fill:gray;"/><path d="m274.11,169.24v.86h-.77c.32.25.54.53.68.81s.21.6.21.95c0,.77-.27,1.28-.8,1.55-.29.15-.71.22-1.25.22h-3.46v-.92h3.4c.33,0,.59-.05.8-.15.33-.16.5-.45.5-.88,0-.21-.02-.39-.07-.53-.07-.25-.22-.47-.44-.65-.18-.15-.36-.25-.55-.29-.19-.05-.46-.07-.81-.07h-2.83v-.91h5.39Z" style="fill:gray;"/><path d="m269.43,174.55l3.87,3.2v-2.97h.81v4.19h-.74l-3.84-3.18v3.28h-.81v-4.52h.71Z" style="fill:gray;"/><path d="m271.98,183.02c.03.21.11.35.26.42.08.04.2.06.35.06.31,0,.54-.11.67-.33.14-.22.21-.53.21-.94,0-.47-.13-.81-.38-1-.14-.11-.35-.18-.63-.22v-.85c.67.02,1.13.23,1.39.65.26.41.39.89.39,1.44,0,.63-.12,1.15-.36,1.54-.24.39-.62.59-1.13.59h-3.11c-.09,0-.17.02-.23.06-.06.04-.09.12-.09.25,0,.04,0,.08,0,.14,0,.05.01.1.02.16h-.67c-.04-.14-.07-.25-.08-.32,0-.07-.02-.17-.02-.3,0-.31.11-.54.33-.68.12-.07.28-.13.5-.16-.24-.18-.45-.45-.63-.8-.18-.35-.27-.73-.27-1.14,0-.5.15-.91.46-1.23.3-.32.68-.48,1.14-.48.5,0,.89.16,1.16.47.28.31.44.72.51,1.23l.18,1.45Zm-2.45-1.91c-.15.19-.23.42-.23.68,0,.32.07.63.22.93.25.5.65.76,1.2.76h.73c-.07-.11-.13-.25-.18-.43-.05-.17-.08-.34-.1-.51l-.07-.55c-.04-.33-.11-.58-.21-.74-.16-.28-.41-.42-.75-.42-.26,0-.47.1-.62.29Z" style="fill:gray;"/><path d="m265.45,88.12v1.13l-7.4,2.68v-1.1l2.22-.75v-2.93l-2.22-.8v-1.03l7.4,2.79Zm-4.37,1.65l3.27-1.12-3.27-1.19v2.32Z" style="fill:gray;"/><path d="m263.45,92.81v.86h-.93c.18.07.4.24.66.52.26.28.39.59.39.95,0,.02,0,.04,0,.08,0,.04-.01.11-.02.21h-.96c0-.05.02-.1.02-.15,0-.05,0-.09,0-.15,0-.46-.15-.81-.44-1.05-.29-.25-.63-.37-1.02-.37h-3.1v-.91h5.39Z" style="fill:gray;"/><path d="m263.16,99.82c-.3.38-.8.61-1.53.69v-.88c.33-.05.61-.18.83-.37.22-.19.33-.5.33-.92,0-.58-.28-.99-.85-1.24-.37-.16-.82-.24-1.35-.24s-.99.11-1.36.34-.55.59-.55,1.08c0,.38.11.67.34.89.23.22.54.37.94.46v.88c-.72-.1-1.24-.35-1.57-.76-.33-.4-.5-.92-.5-1.55,0-.71.26-1.27.77-1.69s1.16-.63,1.93-.63c.95,0,1.68.23,2.21.69s.79,1.05.79,1.76c0,.61-.15,1.1-.44,1.48Z" style="fill:gray;"/><path d="m261.32,104.41c.03.21.11.35.26.42.08.04.2.06.35.06.31,0,.54-.11.67-.33.14-.22.21-.53.21-.94,0-.47-.13-.81-.38-1-.14-.11-.35-.18-.63-.22v-.85c.67.02,1.13.23,1.39.65.26.41.39.89.39,1.44,0,.63-.12,1.15-.36,1.54-.24.39-.62.59-1.13.59h-3.11c-.09,0-.17.02-.23.06-.06.04-.09.12-.09.25,0,.04,0,.08,0,.14,0,.05.01.1.02.16h-.67c-.04-.14-.07-.25-.08-.32,0-.07-.02-.17-.02-.3,0-.31.11-.54.33-.68.12-.07.28-.13.5-.16-.24-.18-.45-.45-.63-.8-.18-.35-.27-.73-.27-1.14,0-.5.15-.91.46-1.23.3-.32.68-.48,1.14-.48.5,0,.89.16,1.16.47.28.31.44.72.51,1.23l.18,1.45Zm-2.45-1.91c-.15.19-.23.42-.23.68,0,.32.07.63.22.93.25.5.65.76,1.2.76h.73c-.07-.11-.13-.25-.18-.43-.05-.17-.08-.34-.1-.51l-.07-.55c-.04-.33-.11-.58-.21-.74-.16-.28-.41-.42-.75-.42-.26,0-.47.1-.62.29Z" style="fill:gray;"/><path d="m263.28,110.23c-.1.16-.28.34-.53.55h2.73v.87h-7.42v-.82h.75c-.33-.21-.57-.46-.72-.75s-.22-.62-.22-.99c0-.6.25-1.12.76-1.56.51-.44,1.18-.66,2.02-.66.79,0,1.47.2,2.04.6.58.4.86.97.86,1.71,0,.41-.09.76-.26,1.03Zm-4.04-2.02c-.39.24-.58.63-.58,1.17,0,.42.18.76.54,1.03.36.27.88.4,1.55.4s1.19-.14,1.51-.42c.33-.28.49-.62.49-1.03,0-.45-.17-.82-.52-1.11-.35-.28-.86-.42-1.54-.42-.58,0-1.06.12-1.45.37Z" style="fill:gray;"/><path d="m263.3,116.37c-.18.36-.41.63-.7.82-.27.18-.59.3-.95.36-.25.05-.64.08-1.19.08v-3.92c-.55.02-.99.14-1.32.38-.33.24-.5.61-.5,1.11,0,.47.16.84.47,1.12.18.16.39.27.63.33v.89c-.2-.02-.42-.1-.66-.23-.24-.13-.44-.28-.6-.44-.27-.27-.45-.61-.54-1.01-.05-.22-.08-.46-.08-.74,0-.67.24-1.23.73-1.7.49-.46,1.17-.7,2.05-.7s1.57.23,2.11.7c.54.47.81,1.08.81,1.83,0,.38-.09.75-.27,1.11Zm-2.12.32c.39-.04.71-.12.94-.25.44-.25.65-.66.65-1.23,0-.41-.15-.76-.45-1.04-.3-.28-.68-.43-1.15-.45v2.97Z" style="fill:gray;"/><path d="m260.44,122.42c-.42.02-.76.12-1.02.29-.49.32-.74.88-.74,1.69,0,.36.05.69.16.99.21.58.58.86,1.12.86.4,0,.69-.12.86-.37.17-.25.31-.63.44-1.16l.23-.97c.15-.63.31-1.08.49-1.35.31-.46.77-.68,1.38-.68.67,0,1.21.22,1.64.67.43.45.64,1.08.64,1.9,0,.75-.19,1.4-.56,1.92-.38.53-.97.79-1.8.79v-.94c.4-.05.7-.15.91-.31.39-.29.58-.79.58-1.49,0-.57-.12-.97-.37-1.22-.25-.25-.54-.37-.87-.37-.36,0-.63.15-.8.44-.11.19-.24.63-.4,1.3l-.24,1.01c-.11.48-.27.86-.47,1.12-.35.46-.85.68-1.51.68-.82,0-1.41-.29-1.76-.87s-.53-1.26-.53-2.03c0-.9.24-1.6.71-2.11.47-.51,1.1-.76,1.9-.75v.94Z" style="fill:gray;"/><path d="m265.48,128.51v.91h-2.76c.27.21.46.41.57.58.19.29.29.66.29,1.09,0,.78-.27,1.31-.82,1.59-.3.15-.71.23-1.24.23h-3.46v-.93h3.4c.4,0,.69-.05.87-.15.29-.17.44-.47.44-.93,0-.38-.13-.72-.39-1.02-.26-.31-.75-.46-1.47-.46h-2.86v-.91h7.42Z" style="fill:gray;"/><path d="m262.91,138.21c-.46.48-1.14.72-2.04.72s-1.59-.21-2.15-.63c-.57-.42-.85-1.07-.85-1.96,0-.74.25-1.32.75-1.76.5-.43,1.18-.65,2.02-.65.91,0,1.63.23,2.16.69.54.46.81,1.07.81,1.84,0,.69-.23,1.27-.69,1.75Zm-3.59-.56c.46.22.96.33,1.52.33.5,0,.91-.08,1.23-.24.5-.25.74-.69.74-1.3,0-.55-.21-.95-.63-1.2s-.93-.37-1.53-.37-1.05.12-1.43.37c-.38.25-.57.64-.57,1.19,0,.59.23,1,.68,1.22Z" style="fill:gray;"/><path d="m263.42,140.02v.89h-.71c.25.18.43.38.57.6.2.31.3.67.3,1.08,0,.61-.23,1.13-.7,1.56-.47.43-1.14.64-2.01.64-1.17,0-2.01-.31-2.52-.93-.32-.39-.48-.85-.48-1.37,0-.41.09-.75.27-1.03.1-.16.27-.34.52-.54h-2.75v-.91h7.52Zm-4.23,3.41c.35.28.88.42,1.59.42.43,0,.8-.06,1.11-.19.59-.24.89-.67.89-1.29s-.31-1.06-.94-1.29c-.34-.12-.76-.19-1.28-.19-.42,0-.77.06-1.06.19-.56.24-.84.67-.84,1.29,0,.42.18.78.53,1.06Z" style="fill:gray;"/><path d="m263.42,145.85v.89h-.71c.25.18.43.38.57.6.2.31.3.67.3,1.08,0,.61-.23,1.13-.7,1.56-.47.43-1.14.64-2.01.64-1.17,0-2.01-.31-2.52-.93-.32-.39-.48-.85-.48-1.37,0-.41.09-.75.27-1.03.1-.16.27-.34.52-.54h-2.75v-.91h7.52Zm-4.23,3.41c.35.28.88.42,1.59.42.43,0,.8-.06,1.11-.19.59-.24.89-.67.89-1.29s-.31-1.06-.94-1.29c-.34-.12-.76-.19-1.28-.19-.42,0-.77.06-1.06.19-.56.24-.84.67-.84,1.29,0,.42.18.78.53,1.06Z" style="fill:gray;"/><path d="m263.42,151.73v.92h-5.37v-.92h5.37Zm2.03,0v.92h-1.03v-.92h1.03Z" style="fill:gray;"/><path d="m263.45,154.03v.86h-.77c.32.25.54.53.68.81s.21.6.21.95c0,.77-.27,1.28-.8,1.55-.29.15-.71.22-1.25.22h-3.46v-.92h3.4c.33,0,.59-.05.8-.15.33-.16.5-.45.5-.88,0-.21-.02-.39-.07-.53-.07-.25-.22-.47-.44-.65-.18-.15-.36-.25-.55-.29-.19-.05-.46-.07-.81-.07h-2.83v-.91h5.39Z" style="fill:gray;"/><path d="m263.23,162.84c-.12.17-.29.34-.51.52h.68v.84h-4.91c-.69,0-1.23-.1-1.62-.3-.73-.38-1.1-1.08-1.1-2.12,0-.58.13-1.07.39-1.46.26-.4.67-.62,1.22-.66v.92c-.24.04-.43.13-.56.26-.2.2-.3.52-.3.96,0,.69.25,1.14.74,1.36.29.13.8.18,1.55.17-.28-.18-.48-.4-.62-.65-.13-.25-.2-.59-.2-1.01,0-.58.21-1.09.62-1.53s1.1-.65,2.06-.65c.9,0,1.61.22,2.12.66.51.44.76.97.76,1.59,0,.42-.1.79-.31,1.1Zm-.97.11c.32-.27.48-.62.48-1.05,0-.63-.3-1.07-.9-1.3-.32-.12-.74-.19-1.25-.19-.61,0-1.07.12-1.39.37s-.48.58-.48.99c0,.65.29,1.1.88,1.37.33.15.72.22,1.16.22.67,0,1.16-.14,1.49-.41Z" style="fill:gray;"/><path d="m265.45,168.54v1.44l-6.26,2.13,6.26,2.11v1.43h-7.4v-.96h4.37c.15,0,.4,0,.75.01.35,0,.72,0,1.12,0l-6.24-2.11v-.99l6.24-2.13h-.23c-.18,0-.46,0-.83.01-.37.01-.64.02-.82.02h-4.37v-.96h7.4Z" style="fill:gray;"/><path d="m261.32,179.97c.03.21.11.35.26.42.08.04.2.06.35.06.31,0,.54-.11.67-.33.14-.22.21-.53.21-.94,0-.47-.13-.81-.38-1-.14-.11-.35-.18-.63-.22v-.85c.67.02,1.13.23,1.39.65.26.41.39.89.39,1.44,0,.63-.12,1.15-.36,1.54-.24.39-.62.59-1.13.59h-3.11c-.09,0-.17.02-.23.06-.06.04-.09.12-.09.25,0,.04,0,.08,0,.14,0,.05.01.1.02.16h-.67c-.04-.14-.07-.25-.08-.32,0-.07-.02-.17-.02-.3,0-.31.11-.54.33-.68.12-.07.28-.13.5-.16-.24-.18-.45-.45-.63-.8-.18-.35-.27-.73-.27-1.14,0-.5.15-.91.46-1.23.3-.32.68-.48,1.14-.48.5,0,.89.16,1.16.47.28.31.44.72.51,1.23l.18,1.45Zm-2.45-1.91c-.15.19-.23.42-.23.68,0,.32.07.63.22.93.25.5.65.76,1.2.76h.73c-.07-.11-.13-.25-.18-.43-.05-.17-.08-.34-.1-.51l-.07-.55c-.04-.33-.11-.58-.21-.74-.16-.28-.41-.42-.75-.42-.26,0-.47.1-.62.29Z" style="fill:gray;"/><path d="m265.45,182.85v.91h-7.4v-.91h7.4Z" style="fill:gray;"/><path d="m265.45,185.14v.91h-7.4v-.91h7.4Z" style="fill:gray;"/><path d="m341.74,28.89c-1.09,0-1.93-.14-2.53-.43-1.1-.53-1.65-1.53-1.65-3.01,0-.85.26-1.58.78-2.19.52-.61,1.45-.91,2.79-.91h.92v1.45h-.92c-.7,0-1.23.14-1.58.42-.35.28-.53.71-.53,1.29,0,.82.32,1.36.96,1.62.39.15,1.13.23,2.22.23h8.58v1.53h-9.04Z" style="fill:gray;"/><path d="m350.78,31.29v5.17c0,.85-.14,1.55-.43,2.11-.55,1.05-1.56,1.58-3.04,1.58-.77,0-1.4-.14-1.89-.42-.49-.28-.88-.67-1.18-1.18-.2.44-.47.78-.81,1-.33.22-.87.35-1.62.38l-1.73.05c-.49.02-.86.05-1.1.11-.41.09-.67.26-.79.5h-.29v-1.89c.11-.05.25-.09.43-.12.17-.03.51-.06,1.02-.08l2.15-.09c.84-.04,1.41-.3,1.69-.81.16-.29.24-.74.24-1.35v-3.41h-5.52v-1.54h12.88Zm-5.9,5.01c0,.7.16,1.26.49,1.67.33.41.92.61,1.77.61.92,0,1.54-.29,1.88-.86.17-.31.26-.72.26-1.23v-3.66h-4.4v3.47Z" style="fill:gray;"/><path d="m342.06,47.98c-.73.03-1.32.18-1.78.44-.85.49-1.28,1.36-1.28,2.6,0,.56.09,1.06.28,1.52.36.89,1.01,1.33,1.95,1.33.7,0,1.2-.19,1.5-.56.29-.38.55-.98.76-1.79l.39-1.49c.26-.98.54-1.67.85-2.07.54-.7,1.34-1.05,2.41-1.05,1.16,0,2.11.34,2.85,1.03s1.11,1.66,1.11,2.92c0,1.16-.33,2.15-.98,2.96-.65.81-1.69,1.22-3.12,1.22v-1.45c.69-.07,1.22-.23,1.59-.48.67-.45,1.01-1.22,1.01-2.29,0-.87-.22-1.5-.65-1.88-.43-.38-.94-.57-1.51-.57-.63,0-1.09.23-1.38.68-.19.29-.42.96-.7,2l-.41,1.55c-.2.75-.47,1.32-.82,1.73-.6.7-1.48,1.05-2.62,1.05-1.43,0-2.45-.45-3.06-1.34-.61-.89-.92-1.93-.92-3.12,0-1.38.41-2.46,1.23-3.24.81-.78,1.91-1.16,3.3-1.15v1.45Z" style="fill:gray;"/><path d="m350.82,57.2v1.39h-4.8c.47.33.81.63,1,.89.33.45.5,1.01.5,1.68,0,1.2-.48,2.02-1.43,2.45-.52.23-1.24.35-2.17.35h-6.02v-1.43h5.92c.69,0,1.2-.08,1.52-.23.51-.25.77-.73.77-1.43,0-.58-.22-1.1-.67-1.57s-1.3-.71-2.55-.71h-4.98v-1.39h12.92Z" style="fill:gray;"/><path d="m347.25,65.92v1.42h-9.34v-1.42h9.34Zm3.53,0v1.42h-1.79v-1.42h1.79Z" style="fill:gray;"/><path d="m347.29,69.32v1.38h-1.33c.46.33.8.63,1.01.9.36.46.54.98.54,1.57,0,.66-.18,1.19-.55,1.6-.21.23-.52.43-.93.62.5.31.88.67,1.12,1.09.24.42.36.89.36,1.41,0,1.12-.46,1.88-1.37,2.28-.49.22-1.15.33-1.98.33h-6.25v-1.45h6.52c.62,0,1.05-.14,1.29-.41.23-.28.35-.61.35-1.01,0-.55-.21-1.02-.62-1.41-.42-.39-1.11-.59-2.08-.59h-5.46v-1.42h6.13c.64,0,1.1-.07,1.39-.2.44-.21.66-.61.66-1.18,0-.53-.23-1.01-.69-1.44-.46-.43-1.3-.65-2.51-.65h-4.98v-1.39h9.39Z" style="fill:gray;"/><path d="m347.25,82.44v1.42h-9.34v-1.42h9.34Zm3.53,0v1.42h-1.79v-1.42h1.79Z" style="fill:gray;"/><path d="m339.15,85.15l6.73,4.93v-4.56h1.41v6.44h-1.29l-6.69-4.89v5.04h-1.41v-6.95h1.25Z" style="fill:gray;"/><path d="m347.29,94.79h-6.23c-.48,0-.87.07-1.17.2-.56.24-.84.69-.84,1.35,0,.95.49,1.59,1.47,1.93.53.19,1.25.28,2.17.28h4.61v1.39h-9.39v-1.32h1.38c-.36-.16-.66-.38-.9-.65-.49-.52-.74-1.16-.74-1.9,0-1.16.45-1.95,1.34-2.37.48-.23,1.12-.34,1.92-.34h6.38v1.43Z" style="fill:gray;"/><path d="m327.06,39.47c-.73.03-1.32.18-1.78.44-.85.49-1.28,1.36-1.28,2.6,0,.56.09,1.06.28,1.52.36.89,1.01,1.33,1.95,1.33.7,0,1.2-.19,1.5-.56.29-.38.55-.98.76-1.79l.39-1.49c.26-.98.54-1.67.85-2.07.54-.7,1.34-1.05,2.41-1.05,1.16,0,2.11.34,2.85,1.03s1.11,1.66,1.11,2.92c0,1.16-.33,2.15-.98,2.96-.65.81-1.69,1.22-3.12,1.22v-1.45c.69-.07,1.22-.23,1.59-.48.67-.45,1.01-1.22,1.01-2.29,0-.87-.22-1.5-.65-1.88-.43-.38-.94-.57-1.51-.57-.63,0-1.09.23-1.38.68-.19.29-.42.96-.7,2l-.41,1.55c-.2.75-.47,1.32-.82,1.73-.6.7-1.48,1.05-2.62,1.05-1.43,0-2.45-.45-3.06-1.34-.61-.89-.92-1.93-.92-3.12,0-1.38.41-2.46,1.23-3.24.81-.78,1.91-1.16,3.3-1.15v1.45Z" style="fill:gray;"/><path d="m334.91,48.97v1.41h-2.62v1.33h-1.29v-1.33h-6.13c-.33,0-.55.1-.66.29-.06.11-.1.29-.1.54,0,.07,0,.14,0,.22,0,.08.01.17.03.27h-1.25c-.05-.16-.09-.33-.11-.5s-.04-.36-.04-.56c0-.65.19-1.09.57-1.32s.87-.35,1.47-.35h6.22v-1.12h1.29v1.12h2.62Z" style="fill:gray;"/><path d="m328.59,57.51c.05.32.2.54.45.64.14.06.34.09.61.09.54,0,.93-.17,1.17-.51.24-.34.37-.82.37-1.45,0-.73-.22-1.24-.67-1.55-.25-.17-.61-.28-1.1-.33v-1.3c1.16.03,1.97.36,2.42.99.45.64.68,1.38.68,2.22,0,.97-.21,1.77-.63,2.38-.42.6-1.08.91-1.96.91h-5.41c-.16,0-.29.03-.39.09-.1.06-.15.18-.15.38,0,.06,0,.13.01.21,0,.08.02.16.04.25h-1.17c-.07-.22-.11-.38-.13-.5-.02-.11-.03-.27-.03-.46,0-.48.19-.83.58-1.04.2-.11.49-.19.87-.24-.42-.28-.79-.69-1.1-1.22-.31-.53-.46-1.12-.46-1.76,0-.77.26-1.4.79-1.89s1.19-.73,1.98-.73c.87,0,1.54.24,2.02.72s.77,1.11.88,1.89l.32,2.22Zm-4.26-2.94c-.26.29-.39.64-.39,1.05,0,.49.13.97.39,1.42.43.78,1.12,1.16,2.09,1.16h1.27c-.12-.17-.23-.39-.31-.66-.08-.27-.14-.53-.18-.79l-.12-.84c-.08-.5-.2-.88-.36-1.14-.27-.43-.71-.65-1.31-.65-.46,0-.81.15-1.08.44Z" style="fill:gray;"/><path d="m334.91,61.93v1.41h-2.62v1.33h-1.29v-1.33h-6.13c-.33,0-.55.1-.66.29-.06.11-.1.29-.1.54,0,.07,0,.14,0,.22,0,.08.01.17.03.27h-1.25c-.05-.16-.09-.33-.11-.5s-.04-.36-.04-.56c0-.65.19-1.09.57-1.32s.87-.35,1.47-.35h6.22v-1.12h1.29v1.12h2.62Z" style="fill:gray;"/><path d="m332.25,66.01v1.42h-9.34v-1.42h9.34Zm3.53,0v1.42h-1.79v-1.42h1.79Z" style="fill:gray;"/><path d="m331.35,75.52c-.81.73-1.99,1.1-3.56,1.1s-2.76-.32-3.75-.97c-.99-.65-1.48-1.65-1.48-3.01,0-1.13.44-2.03,1.31-2.7s2.04-1,3.52-1c1.58,0,2.83.35,3.77,1.05.93.7,1.4,1.65,1.4,2.83,0,1.06-.4,1.96-1.21,2.69Zm-6.24-.87c.79.34,1.67.51,2.64.51.88,0,1.59-.12,2.14-.37.86-.39,1.3-1.06,1.3-2.01,0-.84-.37-1.46-1.1-1.84-.74-.38-1.62-.57-2.66-.57s-1.83.19-2.5.57c-.67.38-1,.99-1,1.82,0,.91.4,1.54,1.19,1.88Z" style="fill:gray;"/><path d="m332.29,78.23v1.33h-1.33c.55.39.94.81,1.18,1.25.24.44.36.93.36,1.46,0,1.18-.46,1.97-1.39,2.39-.51.23-1.24.34-2.18.34h-6.02v-1.42h5.92c.57,0,1.04-.07,1.39-.22.58-.25.88-.7.88-1.35,0-.33-.04-.6-.11-.81-.13-.38-.39-.72-.77-1.01-.31-.23-.63-.38-.96-.45s-.8-.1-1.42-.1h-4.92v-1.39h9.39Z" style="fill:gray;"/><path d="m399.83,231.3c.03.6.17,1.08.41,1.46.46.7,1.26,1.05,2.41,1.05.52,0,.99-.08,1.41-.23.82-.3,1.23-.83,1.23-1.59,0-.57-.17-.98-.52-1.23-.35-.24-.9-.45-1.65-.62l-1.38-.32c-.9-.21-1.54-.44-1.92-.7-.65-.44-.97-1.1-.97-1.97,0-.95.32-1.72.96-2.33s1.54-.91,2.71-.91c1.08,0,1.99.27,2.74.8.75.53,1.13,1.39,1.13,2.56h-1.34c-.07-.56-.22-1-.44-1.3-.42-.55-1.13-.83-2.13-.83-.81,0-1.39.18-1.74.53-.35.35-.53.77-.53,1.23,0,.52.21.89.63,1.13.27.15.89.34,1.86.57l1.43.34c.69.16,1.22.38,1.6.67.65.49.97,1.21.97,2.14,0,1.17-.41,2-1.24,2.5-.83.5-1.79.75-2.89.75-1.28,0-2.28-.33-3-1-.72-.66-1.08-1.57-1.06-2.7h1.34Z" style="fill:gray;"/><path d="m408.38,224.12h1.29v3.93c.31-.39.58-.66.83-.82.42-.27.94-.41,1.56-.41,1.11,0,1.87.39,2.27,1.17.21.43.32,1.02.32,1.77v4.93h-1.33v-4.84c0-.56-.07-.98-.21-1.24-.23-.42-.67-.63-1.32-.63-.54,0-1.02.18-1.46.55-.44.37-.65,1.06-.65,2.09v4.08h-1.29v-10.58Z" style="fill:gray;"/><path d="m416.46,224.16h1.31v1.46h-1.31v-1.46Zm0,2.89h1.31v7.65h-1.31v-7.65Z" style="fill:gray;"/><path d="m419.62,227.02h1.28v1.09c.31-.38.58-.65.83-.83.43-.29.91-.44,1.45-.44.61,0,1.1.15,1.48.45.21.17.4.43.57.76.29-.41.62-.72,1.01-.92.39-.2.82-.3,1.31-.3,1.03,0,1.74.37,2.11,1.12.2.4.3.94.3,1.62v5.12h-1.34v-5.34c0-.51-.13-.86-.38-1.05-.26-.19-.57-.29-.94-.29-.51,0-.94.17-1.31.51s-.55.91-.55,1.7v4.47h-1.31v-5.01c0-.52-.06-.9-.19-1.14-.2-.36-.56-.54-1.1-.54-.49,0-.93.19-1.33.57s-.6,1.06-.6,2.05v4.08h-1.29v-7.68Z" style="fill:gray;"/><path d="m431.78,224.16h1.31v1.46h-1.31v-1.46Zm0,2.89h1.31v7.65h-1.31v-7.65Z" style="fill:gray;"/><path d="m434.3,233.68l4.56-5.51h-4.23v-1.15h5.96v1.05l-4.53,5.47h4.67v1.16h-6.44v-1.02Z" style="fill:gray;"/><path d="m443.23,227.02v5.1c0,.39.06.71.18.96.22.46.64.69,1.25.69.88,0,1.47-.4,1.79-1.21.17-.43.26-1.02.26-1.77v-3.77h1.29v7.68h-1.22v-1.13c-.15.29-.35.54-.6.74-.48.4-1.07.6-1.76.6-1.08,0-1.81-.37-2.2-1.1-.21-.39-.32-.92-.32-1.57v-5.22h1.32Z" style="fill:gray;"/><path d="m462.03,224.16v1.25h-3.55v9.28h-1.44v-9.28h-3.55v-1.25h8.54Z" style="fill:gray;"/><path d="m466.54,227.23c.51.26.9.59,1.16.99.26.39.43.84.51,1.36.08.35.11.92.11,1.69h-5.59c.02.78.21,1.41.55,1.88s.87.71,1.59.71c.67,0,1.2-.22,1.6-.67.22-.26.38-.56.47-.9h1.27c-.03.28-.14.6-.33.94-.19.35-.4.63-.63.85-.39.38-.87.64-1.45.78-.31.08-.66.11-1.05.11-.95,0-1.76-.35-2.42-1.04-.66-.7-.99-1.67-.99-2.92s.33-2.24,1-3.01c.67-.77,1.54-1.16,2.61-1.16.54,0,1.07.13,1.58.38Zm.46,3.02c-.05-.56-.17-1.01-.36-1.34-.35-.62-.94-.93-1.76-.93-.59,0-1.08.21-1.48.64-.4.43-.61.97-.63,1.63h4.23Z" style="fill:gray;"/><path d="m469.88,227.02h1.23v1.33c.1-.26.35-.57.74-.94.39-.37.84-.56,1.36-.56.02,0,.06,0,.12,0s.16.01.29.03v1.36c-.08-.01-.15-.02-.21-.03-.06,0-.13,0-.21,0-.65,0-1.15.21-1.5.63-.35.42-.52.9-.52,1.45v4.42h-1.29v-7.68Z" style="fill:gray;"/><path d="m474.72,227.02h1.23v1.33c.1-.26.35-.57.74-.94.39-.37.84-.56,1.36-.56.02,0,.06,0,.12,0s.16.01.29.03v1.36c-.08-.01-.15-.02-.21-.03-.06,0-.13,0-.21,0-.65,0-1.15.21-1.5.63-.35.42-.52.9-.52,1.45v4.42h-1.29v-7.68Z" style="fill:gray;"/><path d="m480.38,232.29c.04.43.15.76.33.99.33.42.91.62,1.73.62.49,0,.92-.1,1.29-.31s.56-.53.56-.96c0-.33-.15-.58-.44-.75-.19-.1-.56-.23-1.12-.37l-1.04-.26c-.67-.16-1.16-.34-1.47-.54-.56-.35-.85-.83-.85-1.45,0-.73.27-1.32.8-1.76.53-.45,1.24-.67,2.14-.67,1.17,0,2.02.34,2.54,1.02.32.43.48.89.47,1.39h-1.22c-.02-.29-.13-.55-.32-.79-.3-.34-.83-.51-1.58-.51-.5,0-.88.09-1.13.28-.26.19-.39.43-.39.74,0,.33.17.6.51.8.19.12.48.22.86.32l.87.21c.95.22,1.58.44,1.9.65.5.33.75.85.75,1.56s-.26,1.27-.79,1.77-1.33.75-2.4.75c-1.16,0-1.98-.26-2.46-.78s-.74-1.16-.77-1.93h1.24Z" style="fill:gray;"/><path d="m491.08,230.05c.3-.04.5-.16.6-.37.06-.12.09-.28.09-.5,0-.44-.16-.76-.47-.96-.31-.2-.76-.3-1.34-.3-.67,0-1.15.18-1.43.55-.16.2-.26.5-.31.9h-1.21c.02-.95.33-1.61.92-1.98.59-.37,1.27-.56,2.05-.56.9,0,1.64.17,2.2.52.56.34.84.88.84,1.61v4.43c0,.13.03.24.08.32s.17.12.35.12c.06,0,.12,0,.19-.01.07,0,.15-.02.23-.03v.95c-.2.06-.35.09-.46.11-.1.01-.25.02-.43.02-.45,0-.77-.16-.97-.47-.11-.17-.18-.4-.22-.71-.26.34-.64.64-1.13.9-.49.25-1.04.38-1.63.38-.71,0-1.29-.22-1.75-.65-.45-.43-.68-.97-.68-1.62,0-.71.22-1.26.67-1.65.44-.39,1.03-.63,1.75-.72l2.06-.26Zm-2.72,3.49c.27.21.6.32.97.32.45,0,.89-.1,1.32-.31.72-.35,1.08-.92,1.08-1.71v-1.04c-.16.1-.36.18-.61.25s-.49.12-.73.14l-.78.1c-.47.06-.82.16-1.06.29-.4.22-.6.58-.6,1.07,0,.37.14.67.41.88Z" style="fill:gray;"/><path d="m442.77,161.94c.03.6.17,1.08.41,1.46.46.7,1.26,1.05,2.41,1.05.52,0,.99-.08,1.41-.23.82-.3,1.23-.83,1.23-1.59,0-.57-.17-.98-.52-1.23-.35-.24-.9-.45-1.65-.62l-1.38-.32c-.9-.21-1.54-.44-1.92-.7-.65-.44-.97-1.1-.97-1.97,0-.95.32-1.72.96-2.33s1.54-.91,2.71-.91c1.08,0,1.99.27,2.74.8.75.53,1.13,1.39,1.13,2.56h-1.34c-.07-.56-.22-1-.44-1.3-.42-.55-1.13-.83-2.13-.83-.81,0-1.39.18-1.74.53-.35.35-.53.77-.53,1.23,0,.52.21.89.63,1.13.27.15.89.34,1.86.57l1.43.34c.69.16,1.22.38,1.6.67.65.49.97,1.21.97,2.14,0,1.17-.41,2-1.24,2.5-.83.5-1.79.75-2.89.75-1.28,0-2.28-.33-3-1-.72-.66-1.08-1.57-1.06-2.7h1.34Z" style="fill:gray;"/><path d="m451.33,154.77h1.29v3.93c.31-.39.58-.66.83-.82.42-.27.94-.41,1.56-.41,1.11,0,1.87.39,2.27,1.17.21.43.32,1.02.32,1.77v4.93h-1.33v-4.84c0-.56-.07-.98-.21-1.24-.23-.42-.67-.63-1.32-.63-.54,0-1.02.18-1.46.55-.44.37-.65,1.06-.65,2.09v4.08h-1.29v-10.58Z" style="fill:gray;"/><path d="m459.41,154.8h1.31v1.46h-1.31v-1.46Zm0,2.89h1.31v7.65h-1.31v-7.65Z" style="fill:gray;"/><path d="m462.57,157.66h1.28v1.09c.31-.38.58-.65.83-.83.43-.29.91-.44,1.45-.44.61,0,1.1.15,1.48.45.21.17.4.43.57.76.29-.41.62-.72,1.01-.92.39-.2.82-.3,1.31-.3,1.03,0,1.74.37,2.11,1.12.2.4.3.94.3,1.62v5.12h-1.34v-5.34c0-.51-.13-.86-.38-1.05-.26-.19-.57-.29-.94-.29-.51,0-.94.17-1.31.51s-.55.91-.55,1.7v4.47h-1.31v-5.01c0-.52-.06-.9-.19-1.14-.2-.36-.56-.54-1.1-.54-.49,0-.93.19-1.33.57s-.6,1.06-.6,2.05v4.08h-1.29v-7.68Z" style="fill:gray;"/><path d="m474.73,154.8h1.31v1.46h-1.31v-1.46Zm0,2.89h1.31v7.65h-1.31v-7.65Z" style="fill:gray;"/><path d="m477.24,164.32l4.56-5.51h-4.23v-1.15h5.96v1.05l-4.53,5.47h4.67v1.16h-6.44v-1.02Z" style="fill:gray;"/><path d="m486.18,157.66v5.1c0,.39.06.71.18.96.22.46.64.69,1.25.69.88,0,1.47-.4,1.79-1.21.17-.43.26-1.02.26-1.77v-3.77h1.29v7.68h-1.22v-1.13c-.15.29-.35.54-.6.74-.48.4-1.07.6-1.76.6-1.08,0-1.81-.37-2.2-1.1-.21-.39-.32-.92-.32-1.57v-5.22h1.32Z" style="fill:gray;"/><path d="m441.98,169.98h7.31v1.29h-5.88v3.2h5.17v1.25h-5.17v4.79h-1.43v-10.54Z" style="fill:gray;"/><path d="m450.51,169.98h1.31v1.46h-1.31v-1.46Zm0,2.89h1.31v7.65h-1.31v-7.65Z" style="fill:gray;"/><path d="m454.48,178.11c.04.43.15.76.33.99.33.42.91.62,1.73.62.49,0,.92-.1,1.29-.31s.56-.53.56-.96c0-.33-.15-.58-.44-.75-.19-.1-.56-.23-1.12-.37l-1.04-.26c-.67-.16-1.16-.34-1.47-.54-.56-.35-.85-.83-.85-1.45,0-.73.27-1.32.8-1.76.53-.45,1.24-.67,2.14-.67,1.17,0,2.02.34,2.54,1.02.32.43.48.89.47,1.39h-1.22c-.02-.29-.13-.55-.32-.79-.3-.34-.83-.51-1.58-.51-.5,0-.88.09-1.13.28-.26.19-.39.43-.39.74,0,.33.17.6.51.8.19.12.48.22.86.32l.87.21c.95.22,1.58.44,1.9.65.5.33.75.85.75,1.56s-.26,1.27-.79,1.77-1.33.75-2.4.75c-1.16,0-1.98-.26-2.46-.78s-.74-1.16-.77-1.93h1.24Z" style="fill:gray;"/><path d="m461.05,169.94h1.29v3.93c.31-.39.58-.66.83-.82.42-.27.94-.41,1.56-.41,1.11,0,1.87.39,2.27,1.17.21.43.32,1.02.32,1.77v4.93h-1.33v-4.84c0-.56-.07-.98-.21-1.24-.23-.42-.67-.63-1.32-.63-.54,0-1.02.18-1.46.55-.44.37-.65,1.06-.65,2.09v4.08h-1.29v-10.58Z" style="fill:gray;"/><path d="m473.44,169.98h2.05l3.03,8.91,3.01-8.91h2.03v10.54h-1.36v-6.22c0-.21,0-.57.01-1.07,0-.5.01-1.03.01-1.6l-3.01,8.89h-1.41l-3.04-8.89v.32c0,.26,0,.65.02,1.18.01.53.02.92.02,1.17v6.22h-1.36v-10.54Z" style="fill:gray;"/><path d="m489.6,175.87c.3-.04.5-.16.6-.37.06-.12.09-.28.09-.5,0-.44-.16-.76-.47-.96-.31-.2-.76-.3-1.34-.3-.67,0-1.15.18-1.43.55-.16.2-.26.5-.31.9h-1.21c.02-.95.33-1.61.92-1.98.59-.37,1.27-.56,2.05-.56.9,0,1.64.17,2.2.52.56.34.84.88.84,1.61v4.43c0,.13.03.24.08.32s.17.12.35.12c.06,0,.12,0,.19-.01.07,0,.15-.02.23-.03v.95c-.2.06-.35.09-.46.11-.1.01-.25.02-.43.02-.45,0-.77-.16-.97-.47-.11-.17-.18-.4-.22-.71-.26.34-.64.64-1.13.9-.49.25-1.04.38-1.63.38-.71,0-1.29-.22-1.75-.65-.45-.43-.68-.97-.68-1.62,0-.71.22-1.26.67-1.65.44-.39,1.03-.63,1.75-.72l2.06-.26Zm-2.72,3.49c.27.21.6.32.97.32.45,0,.89-.1,1.32-.31.72-.35,1.08-.92,1.08-1.71v-1.04c-.16.1-.36.18-.61.25s-.49.12-.73.14l-.78.1c-.47.06-.82.16-1.06.29-.4.22-.6.58-.6,1.07,0,.37.14.67.41.88Z" style="fill:gray;"/><path d="m493.59,172.84h1.23v1.33c.1-.26.35-.57.74-.94.39-.37.84-.56,1.36-.56.02,0,.06,0,.12,0s.16.01.29.03v1.36c-.08-.01-.15-.02-.21-.03-.06,0-.13,0-.21,0-.65,0-1.15.21-1.5.63-.35.42-.52.9-.52,1.45v4.42h-1.29v-7.68Z" style="fill:gray;"/><path d="m498.39,169.98h1.24v6.12l3.31-3.26h1.65l-2.95,2.86,3.12,4.83h-1.65l-2.42-3.91-1.06,1.03v2.88h-1.24v-10.54Z" style="fill:gray;"/><path d="m510.15,173.05c.51.26.9.59,1.16.99.26.39.43.84.51,1.36.08.35.11.92.11,1.69h-5.59c.02.78.21,1.41.55,1.88s.87.71,1.59.71c.67,0,1.2-.22,1.6-.67.22-.26.38-.56.47-.9h1.27c-.03.28-.14.6-.33.94-.19.35-.4.63-.63.85-.39.38-.87.64-1.45.78-.31.08-.66.11-1.05.11-.95,0-1.76-.35-2.42-1.04-.66-.7-.99-1.67-.99-2.92s.33-2.24,1-3.01c.67-.77,1.54-1.16,2.61-1.16.54,0,1.07.13,1.58.38Zm.46,3.02c-.05-.56-.17-1.01-.36-1.34-.35-.62-.94-.93-1.76-.93-.59,0-1.08.21-1.48.64-.4.43-.61.97-.63,1.63h4.23Z" style="fill:gray;"/><path d="m513.61,170.69h1.31v2.15h1.23v1.05h-1.23v5.01c0,.27.09.45.27.54.1.05.27.08.5.08.06,0,.13,0,.2,0,.07,0,.16-.01.25-.02v1.03c-.15.04-.3.07-.46.09-.16.02-.33.03-.52.03-.6,0-1.01-.15-1.23-.46-.22-.31-.32-.71-.32-1.2v-5.09h-1.04v-1.05h1.04v-2.15Z" style="fill:gray;"/><path d="m441.84,185.16h1.39v5.16l5.27-5.16h2l-4.5,4.25,4.6,6.29h-1.87l-3.78-5.3-1.72,1.62v3.67h-1.39v-10.54Z" style="fill:gray;"/><path d="m455.52,191.05c.3-.04.5-.16.6-.37.06-.12.09-.28.09-.5,0-.44-.16-.76-.47-.96-.31-.2-.76-.3-1.34-.3-.67,0-1.15.18-1.43.55-.16.2-.26.5-.31.9h-1.21c.02-.95.33-1.61.92-1.98.59-.37,1.27-.56,2.05-.56.9,0,1.64.17,2.2.52.56.34.84.88.84,1.61v4.43c0,.13.03.24.08.32s.17.12.35.12c.06,0,.12,0,.19-.01.07,0,.15-.02.23-.03v.95c-.2.06-.35.09-.46.11-.1.01-.25.02-.43.02-.45,0-.77-.16-.97-.47-.11-.17-.18-.4-.22-.71-.26.34-.64.64-1.13.9-.49.25-1.04.38-1.63.38-.71,0-1.29-.22-1.75-.65-.45-.43-.68-.97-.68-1.62,0-.71.22-1.26.67-1.65.44-.39,1.03-.63,1.75-.72l2.06-.26Zm-2.72,3.49c.27.21.6.32.97.32.45,0,.89-.1,1.32-.31.72-.35,1.08-.92,1.08-1.71v-1.04c-.16.1-.36.18-.61.25s-.49.12-.73.14l-.78.1c-.47.06-.82.16-1.06.29-.4.22-.6.58-.6,1.07,0,.37.14.67.41.88Z" style="fill:gray;"/><path d="m460.32,193.29c.04.43.15.76.33.99.33.42.91.62,1.73.62.49,0,.92-.1,1.29-.31s.56-.53.56-.96c0-.33-.15-.58-.44-.75-.19-.1-.56-.23-1.12-.37l-1.04-.26c-.67-.16-1.16-.34-1.47-.54-.56-.35-.85-.83-.85-1.45,0-.73.27-1.32.8-1.76.53-.45,1.24-.67,2.14-.67,1.17,0,2.02.34,2.54,1.02.32.43.48.89.47,1.39h-1.22c-.02-.29-.13-.55-.32-.79-.3-.34-.83-.51-1.58-.51-.5,0-.88.09-1.13.28-.26.19-.39.43-.39.74,0,.33.17.6.51.8.19.12.48.22.86.32l.87.21c.95.22,1.58.44,1.9.65.5.33.75.85.75,1.56s-.26,1.27-.79,1.77-1.33.75-2.4.75c-1.16,0-1.98-.26-2.46-.78s-.74-1.16-.77-1.93h1.24Z" style="fill:gray;"/><path d="m466.88,185.12h1.29v3.93c.31-.39.58-.66.83-.82.42-.27.94-.41,1.56-.41,1.11,0,1.87.39,2.27,1.17.21.43.32,1.02.32,1.77v4.93h-1.33v-4.84c0-.56-.07-.98-.21-1.24-.23-.42-.67-.63-1.32-.63-.54,0-1.02.18-1.46.55-.44.37-.65,1.06-.65,2.09v4.08h-1.29v-10.58Z" style="fill:gray;"/><path d="m474.97,185.16h1.31v1.46h-1.31v-1.46Zm0,2.89h1.31v7.65h-1.31v-7.65Z" style="fill:gray;"/><path d="m478.13,188.01h1.23v1.09c.36-.45.75-.77,1.16-.97.41-.2.86-.29,1.36-.29,1.09,0,1.83.38,2.21,1.14.21.42.32,1.01.32,1.79v4.93h-1.31v-4.84c0-.47-.07-.85-.21-1.13-.23-.48-.65-.72-1.25-.72-.31,0-.56.03-.75.09-.35.11-.67.32-.93.63-.21.25-.36.51-.42.79s-.1.66-.1,1.16v4.03h-1.29v-7.68Z" style="fill:gray;"/><path d="m491.86,188.78c.68.66,1.02,1.63,1.02,2.91s-.3,2.26-.9,3.07-1.53,1.21-2.79,1.21c-1.05,0-1.88-.36-2.5-1.07-.62-.71-.93-1.67-.93-2.88,0-1.29.33-2.32.98-3.08s1.52-1.15,2.62-1.15c.98,0,1.81.33,2.49.99Zm-.8,5.11c.31-.65.47-1.37.47-2.16,0-.72-.11-1.3-.34-1.75-.36-.71-.98-1.06-1.86-1.06-.78,0-1.35.3-1.7.9-.35.6-.53,1.33-.53,2.18s.18,1.5.53,2.04c.36.54.92.82,1.69.82.85,0,1.43-.32,1.74-.97Z" style="fill:gray;"/><path d="m494.39,185.16h1.31v1.46h-1.31v-1.46Zm0,2.89h1.31v7.65h-1.31v-7.65Z" style="fill:gray;"/><path d="m502.72,188.42c.54.42.87,1.15.98,2.17h-1.25c-.08-.47-.25-.87-.52-1.18-.27-.31-.71-.47-1.31-.47-.82,0-1.41.4-1.76,1.2-.23.52-.34,1.16-.34,1.93s.16,1.42.49,1.94c.33.53.84.79,1.54.79.54,0,.96-.16,1.27-.49s.53-.77.65-1.34h1.25c-.14,1.02-.5,1.76-1.08,2.23-.57.47-1.31.71-2.2.71-1,0-1.81-.37-2.4-1.1-.6-.73-.9-1.65-.9-2.75,0-1.35.33-2.4.98-3.15s1.49-1.13,2.5-1.13c.87,0,1.57.21,2.11.63Z" style="fill:gray;"/><path d="m505.03,185.12h1.29v3.93c.31-.39.58-.66.83-.82.42-.27.94-.41,1.56-.41,1.11,0,1.87.39,2.27,1.17.21.43.32,1.02.32,1.77v4.93h-1.33v-4.84c0-.56-.07-.98-.21-1.24-.23-.42-.67-.63-1.32-.63-.54,0-1.02.18-1.46.55-.44.37-.65,1.06-.65,2.09v4.08h-1.29v-10.58Z" style="fill:gray;"/><path d="m513.11,185.16h1.31v1.46h-1.31v-1.46Zm0,2.89h1.31v7.65h-1.31v-7.65Z" style="fill:gray;"/><path d="m402.01,105.86c.03.6.17,1.08.41,1.46.46.7,1.26,1.05,2.41,1.05.52,0,.99-.08,1.41-.23.82-.3,1.23-.83,1.23-1.59,0-.57-.17-.98-.52-1.23-.35-.24-.9-.45-1.65-.62l-1.38-.32c-.9-.21-1.54-.44-1.92-.7-.65-.44-.97-1.1-.97-1.97,0-.95.32-1.72.96-2.33s1.54-.91,2.71-.91c1.08,0,1.99.27,2.74.8.75.53,1.13,1.39,1.13,2.56h-1.34c-.07-.56-.22-1-.44-1.3-.42-.55-1.13-.83-2.13-.83-.81,0-1.39.18-1.74.53-.35.35-.53.77-.53,1.23,0,.52.21.89.63,1.13.27.15.89.34,1.86.57l1.43.34c.69.16,1.22.38,1.6.67.65.49.97,1.21.97,2.14,0,1.17-.41,2-1.24,2.5-.83.5-1.79.75-2.89.75-1.28,0-2.28-.33-3-1-.72-.66-1.08-1.57-1.06-2.7h1.34Z" style="fill:gray;"/><path d="m410.56,98.69h1.29v3.93c.31-.39.58-.66.83-.82.42-.27.94-.41,1.56-.41,1.11,0,1.87.39,2.27,1.17.21.43.32,1.02.32,1.77v4.93h-1.33v-4.84c0-.56-.07-.98-.21-1.24-.23-.42-.67-.63-1.32-.63-.54,0-1.02.18-1.46.55-.44.37-.65,1.06-.65,2.09v4.08h-1.29v-10.58Z" style="fill:gray;"/><path d="m418.64,98.73h1.31v1.46h-1.31v-1.46Zm0,2.89h1.31v7.65h-1.31v-7.65Z" style="fill:gray;"/><path d="m421.8,101.58h1.28v1.09c.31-.38.58-.65.83-.83.43-.29.91-.44,1.45-.44.61,0,1.1.15,1.48.45.21.17.4.43.57.76.29-.41.62-.72,1.01-.92.39-.2.82-.3,1.31-.3,1.03,0,1.74.37,2.11,1.12.2.4.3.94.3,1.62v5.12h-1.34v-5.34c0-.51-.13-.86-.38-1.05-.26-.19-.57-.29-.94-.29-.51,0-.94.17-1.31.51s-.55.91-.55,1.7v4.47h-1.31v-5.01c0-.52-.06-.9-.19-1.14-.2-.36-.56-.54-1.1-.54-.49,0-.93.19-1.33.57s-.6,1.06-.6,2.05v4.08h-1.29v-7.68Z" style="fill:gray;"/><path d="m433.96,98.73h1.31v1.46h-1.31v-1.46Zm0,2.89h1.31v7.65h-1.31v-7.65Z" style="fill:gray;"/><path d="m436.48,108.25l4.56-5.51h-4.23v-1.15h5.96v1.05l-4.53,5.47h4.67v1.16h-6.44v-1.02Z" style="fill:gray;"/><path d="m445.41,101.58v5.1c0,.39.06.71.18.96.22.46.64.69,1.25.69.88,0,1.47-.4,1.79-1.21.17-.43.26-1.02.26-1.77v-3.77h1.29v7.68h-1.22v-1.13c-.15.29-.35.54-.6.74-.48.4-1.07.6-1.76.6-1.08,0-1.81-.37-2.2-1.1-.21-.39-.32-.92-.32-1.57v-5.22h1.32Z" style="fill:gray;"/><path d="m408.53,114.67c.73.7,1.13,1.5,1.21,2.4h-1.39c-.16-.68-.46-1.22-.93-1.61-.46-.4-1.11-.6-1.95-.6-1.02,0-1.84.37-2.47,1.09-.63.73-.94,1.85-.94,3.36,0,1.23.28,2.24.85,3,.57.77,1.41,1.15,2.53,1.15,1.03,0,1.82-.4,2.36-1.21.29-.43.5-.99.64-1.68h1.39c-.12,1.11-.53,2.04-1.22,2.79-.83.9-1.94,1.36-3.35,1.36-1.21,0-2.23-.37-3.05-1.11-1.08-.98-1.62-2.5-1.62-4.54,0-1.56.41-2.83,1.22-3.83.88-1.08,2.09-1.62,3.64-1.62,1.32,0,2.34.35,3.07,1.05Z" style="fill:gray;"/><path d="m412.63,116.76v5.1c0,.39.06.71.18.96.22.46.64.69,1.25.69.88,0,1.47-.4,1.79-1.21.17-.43.26-1.02.26-1.77v-3.77h1.29v7.68h-1.22v-1.13c-.15.29-.35.54-.6.74-.48.4-1.07.6-1.76.6-1.08,0-1.81-.37-2.2-1.1-.21-.39-.32-.92-.32-1.57v-5.22h1.32Z" style="fill:gray;"/><path d="m419.35,113.91h1.29v10.54h-1.29v-10.54Z" style="fill:gray;"/><path d="m422.77,114.61h1.31v2.15h1.23v1.05h-1.23v5.01c0,.27.09.45.27.54.1.05.27.08.5.08.06,0,.13,0,.2,0,.07,0,.16-.01.25-.02v1.03c-.15.04-.3.07-.46.09-.16.02-.33.03-.52.03-.6,0-1.01-.15-1.23-.46-.22-.31-.32-.71-.32-1.2v-5.09h-1.04v-1.05h1.04v-2.15Z" style="fill:gray;"/><path d="m427.77,116.76v5.1c0,.39.06.71.18.96.22.46.64.69,1.25.69.88,0,1.47-.4,1.79-1.21.17-.43.26-1.02.26-1.77v-3.77h1.29v7.68h-1.22v-1.13c-.15.29-.35.54-.6.74-.48.4-1.07.6-1.76.6-1.08,0-1.81-.37-2.2-1.1-.21-.39-.32-.92-.32-1.57v-5.22h1.32Z" style="fill:gray;"/><path d="m434.49,116.76h1.23v1.33c.1-.26.35-.57.74-.94.39-.37.84-.56,1.36-.56.02,0,.06,0,.12,0s.16.01.29.03v1.36c-.08-.01-.15-.02-.21-.03-.06,0-.13,0-.21,0-.65,0-1.15.21-1.5.63-.35.42-.52.9-.52,1.45v4.42h-1.29v-7.68Z" style="fill:gray;"/><path d="m443.35,119.79c.3-.04.5-.16.6-.37.06-.12.09-.28.09-.5,0-.44-.16-.76-.47-.96-.31-.2-.76-.3-1.34-.3-.67,0-1.15.18-1.43.55-.16.2-.26.5-.31.9h-1.21c.02-.95.33-1.61.92-1.98.59-.37,1.27-.56,2.05-.56.9,0,1.64.17,2.2.52.56.34.84.88.84,1.61v4.43c0,.13.03.24.08.32s.17.12.35.12c.06,0,.12,0,.19-.01.07,0,.15-.02.23-.03v.95c-.2.06-.35.09-.46.11-.1.01-.25.02-.43.02-.45,0-.77-.16-.97-.47-.11-.17-.18-.4-.22-.71-.26.34-.64.64-1.13.9-.49.25-1.04.38-1.63.38-.71,0-1.29-.22-1.75-.65-.45-.43-.68-.97-.68-1.62,0-.71.22-1.26.67-1.65.44-.39,1.03-.63,1.75-.72l2.06-.26Zm-2.72,3.49c.27.21.6.32.97.32.45,0,.89-.1,1.32-.31.72-.35,1.08-.92,1.08-1.71v-1.04c-.16.1-.36.18-.61.25s-.49.12-.73.14l-.78.1c-.47.06-.82.16-1.06.29-.4.22-.6.58-.6,1.07,0,.37.14.67.41.88Z" style="fill:gray;"/><path d="m447.33,113.91h1.29v10.54h-1.29v-10.54Z" style="fill:gray;"/><path d="m462.27,114.67c.73.7,1.13,1.5,1.21,2.4h-1.39c-.16-.68-.46-1.22-.93-1.61-.46-.4-1.11-.6-1.95-.6-1.02,0-1.84.37-2.47,1.09-.63.73-.94,1.85-.94,3.36,0,1.23.28,2.24.85,3,.57.77,1.41,1.15,2.53,1.15,1.03,0,1.82-.4,2.36-1.21.29-.43.5-.99.64-1.68h1.39c-.12,1.11-.53,2.04-1.22,2.79-.83.9-1.94,1.36-3.35,1.36-1.21,0-2.23-.37-3.05-1.11-1.08-.98-1.62-2.5-1.62-4.54,0-1.56.41-2.83,1.22-3.83.88-1.08,2.09-1.62,3.64-1.62,1.32,0,2.34.35,3.07,1.05Z" style="fill:gray;"/><path d="m469.92,116.97c.51.26.9.59,1.16.99.26.39.43.84.51,1.36.08.35.11.92.11,1.69h-5.59c.02.78.21,1.41.55,1.88s.87.71,1.59.71c.67,0,1.2-.22,1.6-.67.22-.26.38-.56.47-.9h1.27c-.03.28-.14.6-.33.94-.19.35-.4.63-.63.85-.39.38-.87.64-1.45.78-.31.08-.66.11-1.05.11-.95,0-1.76-.35-2.42-1.04-.66-.7-.99-1.67-.99-2.92s.33-2.24,1-3.01c.67-.77,1.54-1.16,2.61-1.16.54,0,1.07.13,1.58.38Zm.46,3.02c-.05-.56-.17-1.01-.36-1.34-.35-.62-.94-.93-1.76-.93-.59,0-1.08.21-1.48.64-.4.43-.61.97-.63,1.63h4.23Z" style="fill:gray;"/><path d="m473.24,116.76h1.23v1.09c.36-.45.75-.77,1.16-.97.41-.2.86-.29,1.36-.29,1.09,0,1.83.38,2.21,1.14.21.42.32,1.01.32,1.79v4.93h-1.31v-4.84c0-.47-.07-.85-.21-1.13-.23-.48-.65-.72-1.25-.72-.31,0-.56.03-.75.09-.35.11-.67.32-.93.63-.21.25-.36.51-.42.79s-.1.66-.1,1.16v4.03h-1.29v-7.68Z" style="fill:gray;"/><path d="m481.52,114.61h1.31v2.15h1.23v1.05h-1.23v5.01c0,.27.09.45.27.54.1.05.27.08.5.08.06,0,.13,0,.2,0,.07,0,.16-.01.25-.02v1.03c-.15.04-.3.07-.46.09-.16.02-.33.03-.52.03-.6,0-1.01-.15-1.23-.46-.22-.31-.32-.71-.32-1.2v-5.09h-1.04v-1.05h1.04v-2.15Z" style="fill:gray;"/><path d="m489.88,116.97c.51.26.9.59,1.16.99.26.39.43.84.51,1.36.08.35.11.92.11,1.69h-5.59c.02.78.21,1.41.55,1.88s.87.71,1.59.71c.67,0,1.2-.22,1.6-.67.22-.26.38-.56.47-.9h1.27c-.03.28-.14.6-.33.94-.19.35-.4.63-.63.85-.39.38-.87.64-1.45.78-.31.08-.66.11-1.05.11-.95,0-1.76-.35-2.42-1.04-.66-.7-.99-1.67-.99-2.92s.33-2.24,1-3.01c.67-.77,1.54-1.16,2.61-1.16.54,0,1.07.13,1.58.38Zm.46,3.02c-.05-.56-.17-1.01-.36-1.34-.35-.62-.94-.93-1.76-.93-.59,0-1.08.21-1.48.64-.4.43-.61.97-.63,1.63h4.23Z" style="fill:gray;"/><path d="m493.22,116.76h1.23v1.33c.1-.26.35-.57.74-.94.39-.37.84-.56,1.36-.56.02,0,.06,0,.12,0s.16.01.29.03v1.36c-.08-.01-.15-.02-.21-.03-.06,0-.13,0-.21,0-.65,0-1.15.21-1.5.63-.35.42-.52.9-.52,1.45v4.42h-1.29v-7.68Z" style="fill:gray;"/><path d="m401.04,129.08h2.05l3.03,8.91,3.01-8.91h2.03v10.54h-1.36v-6.22c0-.21,0-.57.01-1.07,0-.5.01-1.03.01-1.6l-3.01,8.89h-1.41l-3.04-8.89v.32c0,.26,0,.65.02,1.18.01.53.02.92.02,1.17v6.22h-1.36v-10.54Z" style="fill:gray;"/><path d="m417.2,134.97c.3-.04.5-.16.6-.37.06-.12.09-.28.09-.5,0-.44-.16-.76-.47-.96-.31-.2-.76-.3-1.34-.3-.67,0-1.15.18-1.43.55-.16.2-.26.5-.31.9h-1.21c.02-.95.33-1.61.92-1.98.59-.37,1.27-.56,2.05-.56.9,0,1.64.17,2.2.52.56.34.84.88.84,1.61v4.43c0,.13.03.24.08.32s.17.12.35.12c.06,0,.12,0,.19-.01.07,0,.15-.02.23-.03v.95c-.2.06-.35.09-.46.11-.1.01-.25.02-.43.02-.45,0-.77-.16-.97-.47-.11-.17-.18-.4-.22-.71-.26.34-.64.64-1.13.9-.49.25-1.04.38-1.63.38-.71,0-1.29-.22-1.75-.65-.45-.43-.68-.97-.68-1.62,0-.71.22-1.26.67-1.65.44-.39,1.03-.63,1.75-.72l2.06-.26Zm-2.72,3.49c.27.21.6.32.97.32.45,0,.89-.1,1.32-.31.72-.35,1.08-.92,1.08-1.71v-1.04c-.16.1-.36.18-.61.25s-.49.12-.73.14l-.78.1c-.47.06-.82.16-1.06.29-.4.22-.6.58-.6,1.07,0,.37.14.67.41.88Z" style="fill:gray;"/><path d="m421.2,131.94h1.23v1.33c.1-.26.35-.57.74-.94.39-.37.84-.56,1.36-.56.02,0,.06,0,.12,0s.16.01.29.03v1.36c-.08-.01-.15-.02-.21-.03-.06,0-.13,0-.21,0-.65,0-1.15.21-1.5.63-.35.42-.52.9-.52,1.45v4.42h-1.29v-7.68Z" style="fill:gray;"/><path d="m426.01,129.08h1.31v1.46h-1.31v-1.46Zm0,2.89h1.31v7.65h-1.31v-7.65Z" style="fill:gray;"/><path d="m429.17,131.94h1.23v1.09c.36-.45.75-.77,1.16-.97.41-.2.86-.29,1.36-.29,1.09,0,1.83.38,2.21,1.14.21.42.32,1.01.32,1.79v4.93h-1.31v-4.84c0-.47-.07-.85-.21-1.13-.23-.48-.65-.72-1.25-.72-.31,0-.56.03-.75.09-.35.11-.67.32-.93.63-.21.25-.36.51-.42.79s-.1.66-.1,1.16v4.03h-1.29v-7.68Z" style="fill:gray;"/><path d="m441.32,134.97c.3-.04.5-.16.6-.37.06-.12.09-.28.09-.5,0-.44-.16-.76-.47-.96-.31-.2-.76-.3-1.34-.3-.67,0-1.15.18-1.43.55-.16.2-.26.5-.31.9h-1.21c.02-.95.33-1.61.92-1.98.59-.37,1.27-.56,2.05-.56.9,0,1.64.17,2.2.52.56.34.84.88.84,1.61v4.43c0,.13.03.24.08.32s.17.12.35.12c.06,0,.12,0,.19-.01.07,0,.15-.02.23-.03v.95c-.2.06-.35.09-.46.11-.1.01-.25.02-.43.02-.45,0-.77-.16-.97-.47-.11-.17-.18-.4-.22-.71-.26.34-.64.64-1.13.9-.49.25-1.04.38-1.63.38-.71,0-1.29-.22-1.75-.65-.45-.43-.68-.97-.68-1.62,0-.71.22-1.26.67-1.65.44-.39,1.03-.63,1.75-.72l2.06-.26Zm-2.72,3.49c.27.21.6.32.97.32.45,0,.89-.1,1.32-.31.72-.35,1.08-.92,1.08-1.71v-1.04c-.16.1-.36.18-.61.25s-.49.12-.73.14l-.78.1c-.47.06-.82.16-1.06.29-.4.22-.6.58-.6,1.07,0,.37.14.67.41.88Z" style="fill:gray;"/><path d="m445.31,131.94h1.23v1.33c.1-.26.35-.57.74-.94.39-.37.84-.56,1.36-.56.02,0,.06,0,.12,0s.16.01.29.03v1.36c-.08-.01-.15-.02-.21-.03-.06,0-.13,0-.21,0-.65,0-1.15.21-1.5.63-.35.42-.52.9-.52,1.45v4.42h-1.29v-7.68Z" style="fill:gray;"/><path d="m450.77,129.79h1.31v2.15h1.23v1.05h-1.23v5.01c0,.27.09.45.27.54.1.05.27.08.5.08.06,0,.13,0,.2,0,.07,0,.16-.01.25-.02v1.03c-.15.04-.3.07-.46.09-.16.02-.33.03-.52.03-.6,0-1.01-.15-1.23-.46-.22-.31-.32-.71-.32-1.2v-5.09h-1.04v-1.05h1.04v-2.15Z" style="fill:gray;"/><path d="m386.68,40.08c.03.6.17,1.08.41,1.46.46.7,1.26,1.05,2.41,1.05.52,0,.99-.08,1.41-.23.82-.3,1.23-.83,1.23-1.59,0-.57-.17-.98-.52-1.23-.35-.24-.9-.45-1.65-.62l-1.38-.32c-.9-.21-1.54-.44-1.92-.7-.65-.44-.97-1.1-.97-1.97,0-.95.32-1.72.96-2.33s1.54-.91,2.71-.91c1.08,0,1.99.27,2.74.8.75.53,1.13,1.39,1.13,2.56h-1.34c-.07-.56-.22-1-.44-1.3-.42-.55-1.13-.83-2.13-.83-.81,0-1.39.18-1.74.53-.35.35-.53.77-.53,1.23,0,.52.21.89.63,1.13.27.15.89.34,1.86.57l1.43.34c.69.16,1.22.38,1.6.67.65.49.97,1.21.97,2.14,0,1.17-.41,2-1.24,2.5-.83.5-1.79.75-2.89.75-1.28,0-2.28-.33-3-1-.72-.66-1.08-1.57-1.06-2.7h1.34Z" style="fill:gray;"/><path d="m395.23,32.91h1.29v3.93c.31-.39.58-.66.83-.82.42-.27.94-.41,1.56-.41,1.11,0,1.87.39,2.27,1.17.21.43.32,1.02.32,1.77v4.93h-1.33v-4.84c0-.56-.07-.98-.21-1.24-.23-.42-.67-.63-1.32-.63-.54,0-1.02.18-1.46.55-.44.37-.65,1.06-.65,2.09v4.08h-1.29v-10.58Z" style="fill:gray;"/><path d="m403.31,32.94h1.31v1.46h-1.31v-1.46Zm0,2.89h1.31v7.65h-1.31v-7.65Z" style="fill:gray;"/><path d="m406.47,35.8h1.28v1.09c.31-.38.58-.65.83-.83.43-.29.91-.44,1.45-.44.61,0,1.1.15,1.48.45.21.17.4.43.57.76.29-.41.62-.72,1.01-.92.39-.2.82-.3,1.31-.3,1.03,0,1.74.37,2.11,1.12.2.4.3.94.3,1.62v5.12h-1.34v-5.34c0-.51-.13-.86-.38-1.05-.26-.19-.57-.29-.94-.29-.51,0-.94.17-1.31.51s-.55.91-.55,1.7v4.47h-1.31v-5.01c0-.52-.06-.9-.19-1.14-.2-.36-.56-.54-1.1-.54-.49,0-.93.19-1.33.57s-.6,1.06-.6,2.05v4.08h-1.29v-7.68Z" style="fill:gray;"/><path d="m418.63,32.94h1.31v1.46h-1.31v-1.46Zm0,2.89h1.31v7.65h-1.31v-7.65Z" style="fill:gray;"/><path d="m421.15,42.46l4.56-5.51h-4.23v-1.15h5.96v1.05l-4.53,5.47h4.67v1.16h-6.44v-1.02Z" style="fill:gray;"/><path d="m430.08,35.8v5.1c0,.39.06.71.18.96.22.46.64.69,1.25.69.88,0,1.47-.4,1.79-1.21.17-.43.26-1.02.26-1.77v-3.77h1.29v7.68h-1.22v-1.13c-.15.29-.35.54-.6.74-.48.4-1.07.6-1.76.6-1.08,0-1.81-.37-2.2-1.1-.21-.39-.32-.92-.32-1.57v-5.22h1.32Z" style="fill:gray;"/><path d="m442.15,40.08c.03.6.17,1.08.41,1.46.46.7,1.26,1.05,2.41,1.05.52,0,.99-.08,1.41-.23.82-.3,1.23-.83,1.23-1.59,0-.57-.17-.98-.52-1.23-.35-.24-.9-.45-1.65-.62l-1.38-.32c-.9-.21-1.54-.44-1.92-.7-.65-.44-.97-1.1-.97-1.97,0-.95.32-1.72.96-2.33s1.54-.91,2.71-.91c1.08,0,1.99.27,2.74.8.75.53,1.13,1.39,1.13,2.56h-1.34c-.07-.56-.22-1-.44-1.3-.42-.55-1.13-.83-2.13-.83-.81,0-1.39.18-1.74.53-.35.35-.53.77-.53,1.23,0,.52.21.89.63,1.13.27.15.89.34,1.86.57l1.43.34c.69.16,1.22.38,1.6.67.65.49.97,1.21.97,2.14,0,1.17-.41,2-1.24,2.5-.83.5-1.79.75-2.89.75-1.28,0-2.28-.33-3-1-.72-.66-1.08-1.57-1.06-2.7h1.34Z" style="fill:gray;"/><path d="m450.96,33.65h1.31v2.15h1.23v1.05h-1.23v5.01c0,.27.09.45.27.54.1.05.27.08.5.08.06,0,.13,0,.2,0,.07,0,.16-.01.25-.02v1.03c-.15.04-.3.07-.46.09-.16.02-.33.03-.52.03-.6,0-1.01-.15-1.23-.46-.22-.31-.32-.71-.32-1.2v-5.09h-1.04v-1.05h1.04v-2.15Z" style="fill:gray;"/><path d="m458.87,38.83c.3-.04.5-.16.6-.37.06-.12.09-.28.09-.5,0-.44-.16-.76-.47-.96-.31-.2-.76-.3-1.34-.3-.67,0-1.15.18-1.43.55-.16.2-.26.5-.31.9h-1.21c.02-.95.33-1.61.92-1.98.59-.37,1.27-.56,2.05-.56.9,0,1.64.17,2.2.52.56.34.84.88.84,1.61v4.43c0,.13.03.24.08.32s.17.12.35.12c.06,0,.12,0,.19-.01.07,0,.15-.02.23-.03v.95c-.2.06-.35.09-.46.11-.1.01-.25.02-.43.02-.45,0-.77-.16-.97-.47-.11-.17-.18-.4-.22-.71-.26.34-.64.64-1.13.9-.49.25-1.04.38-1.63.38-.71,0-1.29-.22-1.75-.65-.45-.43-.68-.97-.68-1.62,0-.71.22-1.26.67-1.65.44-.39,1.03-.63,1.75-.72l2.06-.26Zm-2.72,3.49c.27.21.6.32.97.32.45,0,.89-.1,1.32-.31.72-.35,1.08-.92,1.08-1.71v-1.04c-.16.1-.36.18-.61.25s-.49.12-.73.14l-.78.1c-.47.06-.82.16-1.06.29-.4.22-.6.58-.6,1.07,0,.37.14.67.41.88Z" style="fill:gray;"/><path d="m462.98,33.65h1.31v2.15h1.23v1.05h-1.23v5.01c0,.27.09.45.27.54.1.05.27.08.5.08.06,0,.13,0,.2,0,.07,0,.16-.01.25-.02v1.03c-.15.04-.3.07-.46.09-.16.02-.33.03-.52.03-.6,0-1.01-.15-1.23-.46-.22-.31-.32-.71-.32-1.2v-5.09h-1.04v-1.05h1.04v-2.15Z" style="fill:gray;"/><path d="m466.76,32.94h1.31v1.46h-1.31v-1.46Zm0,2.89h1.31v7.65h-1.31v-7.65Z" style="fill:gray;"/><path d="m475.57,36.57c.68.66,1.02,1.63,1.02,2.91s-.3,2.26-.9,3.07-1.53,1.21-2.79,1.21c-1.05,0-1.88-.36-2.5-1.07-.62-.71-.93-1.67-.93-2.88,0-1.29.33-2.32.98-3.08s1.52-1.15,2.62-1.15c.98,0,1.81.33,2.49.99Zm-.8,5.11c.31-.65.47-1.37.47-2.16,0-.72-.11-1.3-.34-1.75-.36-.71-.98-1.06-1.86-1.06-.78,0-1.35.3-1.7.9-.35.6-.53,1.33-.53,2.18s.18,1.5.53,2.04c.36.54.92.82,1.69.82.85,0,1.43-.32,1.74-.97Z" style="fill:gray;"/><path d="m478.09,35.8h1.23v1.09c.36-.45.75-.77,1.16-.97.41-.2.86-.29,1.36-.29,1.09,0,1.83.38,2.21,1.14.21.42.32,1.01.32,1.79v4.93h-1.31v-4.84c0-.47-.07-.85-.21-1.13-.23-.48-.65-.72-1.25-.72-.31,0-.56.03-.75.09-.35.11-.67.32-.93.63-.21.25-.36.51-.42.79s-.1.66-.1,1.16v4.03h-1.29v-7.68Z" style="fill:gray;"/><path d="m385.88,48.12h7.65v1.29h-6.26v3.2h5.78v1.22h-5.78v3.57h6.36v1.26h-7.75v-10.54Z" style="fill:gray;"/><path d="m399.31,54.01c.3-.04.5-.16.6-.37.06-.12.09-.28.09-.5,0-.44-.16-.76-.47-.96-.31-.2-.76-.3-1.34-.3-.67,0-1.15.18-1.43.55-.16.2-.26.5-.31.9h-1.21c.02-.95.33-1.61.92-1.98.59-.37,1.27-.56,2.05-.56.9,0,1.64.17,2.2.52.56.34.84.88.84,1.61v4.43c0,.13.03.24.08.32s.17.12.35.12c.06,0,.12,0,.19-.01.07,0,.15-.02.23-.03v.95c-.2.06-.35.09-.46.11-.1.01-.25.02-.43.02-.45,0-.77-.16-.97-.47-.11-.17-.18-.4-.22-.71-.26.34-.64.64-1.13.9-.49.25-1.04.38-1.63.38-.71,0-1.29-.22-1.75-.65-.45-.43-.68-.97-.68-1.62,0-.71.22-1.26.67-1.65.44-.39,1.03-.63,1.75-.72l2.06-.26Zm-2.72,3.49c.27.21.6.32.97.32.45,0,.89-.1,1.32-.31.72-.35,1.08-.92,1.08-1.71v-1.04c-.16.1-.36.18-.61.25s-.49.12-.73.14l-.78.1c-.47.06-.82.16-1.06.29-.4.22-.6.58-.6,1.07,0,.37.14.67.41.88Z" style="fill:gray;"/><path d="m404.11,56.25c.04.43.15.76.33.99.33.42.91.62,1.73.62.49,0,.92-.1,1.29-.31s.56-.53.56-.96c0-.33-.15-.58-.44-.75-.19-.1-.56-.23-1.12-.37l-1.04-.26c-.67-.16-1.16-.34-1.47-.54-.56-.35-.85-.83-.85-1.45,0-.73.27-1.32.8-1.76.53-.45,1.24-.67,2.14-.67,1.17,0,2.02.34,2.54,1.02.32.43.48.89.47,1.39h-1.22c-.02-.29-.13-.55-.32-.79-.3-.34-.83-.51-1.58-.51-.5,0-.88.09-1.13.28-.26.19-.39.43-.39.74,0,.33.17.6.51.8.19.12.48.22.86.32l.87.21c.95.22,1.58.44,1.9.65.5.33.75.85.75,1.56s-.26,1.27-.79,1.77-1.33.75-2.4.75c-1.16,0-1.98-.26-2.46-.78s-.74-1.16-.77-1.93h1.24Z" style="fill:gray;"/><path d="m410.91,48.83h1.31v2.15h1.23v1.05h-1.23v5.01c0,.27.09.45.27.54.1.05.27.08.5.08.06,0,.13,0,.2,0,.07,0,.16-.01.25-.02v1.03c-.15.04-.3.07-.46.09-.16.02-.33.03-.52.03-.6,0-1.01-.15-1.23-.46-.22-.31-.32-.71-.32-1.2v-5.09h-1.04v-1.05h1.04v-2.15Z" style="fill:gray;"/><path d="m419.92,55.26c.03.6.17,1.08.41,1.46.46.7,1.26,1.05,2.41,1.05.52,0,.99-.08,1.41-.23.82-.3,1.23-.83,1.23-1.59,0-.57-.17-.98-.52-1.23-.35-.24-.9-.45-1.65-.62l-1.38-.32c-.9-.21-1.54-.44-1.92-.7-.65-.44-.97-1.1-.97-1.97,0-.95.32-1.72.96-2.33s1.54-.91,2.71-.91c1.08,0,1.99.27,2.74.8.75.53,1.13,1.39,1.13,2.56h-1.34c-.07-.56-.22-1-.44-1.3-.42-.55-1.13-.83-2.13-.83-.81,0-1.39.18-1.74.53-.35.35-.53.77-.53,1.23,0,.52.21.89.63,1.13.27.15.89.34,1.86.57l1.43.34c.69.16,1.22.38,1.6.67.65.49.97,1.21.97,2.14,0,1.17-.41,2-1.24,2.5-.83.5-1.79.75-2.89.75-1.28,0-2.28-.33-3-1-.72-.66-1.08-1.57-1.06-2.7h1.34Z" style="fill:gray;"/><path d="m432.84,51.29c.24.17.47.43.69.76v-1.07h1.22v10.75h-1.29v-3.95c-.21.34-.51.62-.89.82-.38.2-.85.3-1.42.3-.82,0-1.55-.32-2.19-.96-.64-.64-.97-1.62-.97-2.93,0-1.23.3-2.24.91-3.03.6-.79,1.39-1.18,2.35-1.18.63,0,1.17.16,1.6.48Zm-3.23,5.31c.33.8.92,1.2,1.77,1.2.9,0,1.52-.42,1.86-1.26.19-.46.28-1.06.28-1.78,0-.67-.1-1.22-.31-1.66-.35-.76-.96-1.14-1.84-1.14-.56,0-1.04.24-1.44.73s-.6,1.24-.6,2.25c0,.67.09,1.22.28,1.67Z" style="fill:gray;"/><path d="m437.89,50.98v5.1c0,.39.06.71.18.96.22.46.64.69,1.25.69.88,0,1.47-.4,1.79-1.21.17-.43.26-1.02.26-1.77v-3.77h1.29v7.68h-1.22v-1.13c-.15.29-.35.54-.6.74-.48.4-1.07.6-1.76.6-1.08,0-1.81-.37-2.2-1.1-.21-.39-.32-.92-.32-1.57v-5.22h1.32Z" style="fill:gray;"/><path d="m448.67,54.01c.3-.04.5-.16.6-.37.06-.12.09-.28.09-.5,0-.44-.16-.76-.47-.96-.31-.2-.76-.3-1.34-.3-.67,0-1.15.18-1.43.55-.16.2-.26.5-.31.9h-1.21c.02-.95.33-1.61.92-1.98.59-.37,1.27-.56,2.05-.56.9,0,1.64.17,2.2.52.56.34.84.88.84,1.61v4.43c0,.13.03.24.08.32s.17.12.35.12c.06,0,.12,0,.19-.01.07,0,.15-.02.23-.03v.95c-.2.06-.35.09-.46.11-.1.01-.25.02-.43.02-.45,0-.77-.16-.97-.47-.11-.17-.18-.4-.22-.71-.26.34-.64.64-1.13.9-.49.25-1.04.38-1.63.38-.71,0-1.29-.22-1.75-.65-.45-.43-.68-.97-.68-1.62,0-.71.22-1.26.67-1.65.44-.39,1.03-.63,1.75-.72l2.06-.26Zm-2.72,3.49c.27.21.6.32.97.32.45,0,.89-.1,1.32-.31.72-.35,1.08-.92,1.08-1.71v-1.04c-.16.1-.36.18-.61.25s-.49.12-.73.14l-.78.1c-.47.06-.82.16-1.06.29-.4.22-.6.58-.6,1.07,0,.37.14.67.41.88Z" style="fill:gray;"/><path d="m452.66,50.98h1.23v1.33c.1-.26.35-.57.74-.94.39-.37.84-.56,1.36-.56.02,0,.06,0,.12,0s.16.01.29.03v1.36c-.08-.01-.15-.02-.21-.03-.06,0-.13,0-.21,0-.65,0-1.15.21-1.5.63-.35.42-.52.9-.52,1.45v4.42h-1.29v-7.68Z" style="fill:gray;"/><path d="m462.14,51.19c.51.26.9.59,1.16.99.26.39.43.84.51,1.36.08.35.11.92.11,1.69h-5.59c.02.78.21,1.41.55,1.88s.87.71,1.59.71c.67,0,1.2-.22,1.6-.67.22-.26.38-.56.47-.9h1.27c-.03.28-.14.6-.33.94-.19.35-.4.63-.63.85-.39.38-.87.64-1.45.78-.31.08-.66.11-1.05.11-.95,0-1.76-.35-2.42-1.04-.66-.7-.99-1.67-.99-2.92s.33-2.24,1-3.01c.67-.77,1.54-1.16,2.61-1.16.54,0,1.07.13,1.58.38Zm.46,3.02c-.05-.56-.17-1.01-.36-1.34-.35-.62-.94-.93-1.76-.93-.59,0-1.08.21-1.48.64-.4.43-.61.97-.63,1.63h4.23Z" style="fill:gray;"/></g></svg>