<?xml version="1.0" encoding="UTF-8"?><svg id="_レイヤー_2" xmlns="http://www.w3.org/2000/svg" width="497.38" height="380.92" viewBox="0 0 497.38 380.92"><g id="_レイヤー_1-2"><path d="m253.41,376.92V80.98s-1.33,0,43.9,0,42.57,42.57,0,42.57-41.24-1.33-41.24-1.33" style="fill:none; stroke:#e6e6e6; stroke-linecap:round; stroke-miterlimit:10; stroke-width:8px;"/><line x1=".5" y1="44.96" x2="496.88" y2="44.96" style="fill:none; stroke:#4d4948; stroke-miterlimit:10; stroke-width:7.56px;"/><line x1=".5" y1="44.96" x2="496.88" y2="44.96" style="fill:none; stroke:#fff; stroke-miterlimit:10; stroke-width:5.04px;"/><line x1=".5" y1="44.96" x2="496.88" y2="44.96" style="fill:none; stroke:#4d4948; stroke-dasharray:0 0 25.2 25.2; stroke-miterlimit:10; stroke-width:5.04px;"/><rect x="202.82" y="21.52" width="85.22" height="40.24" style="fill:#fff; stroke:#545454; stroke-miterlimit:10; stroke-width:.5px;"/><line x1="7.5" y1="259.35" x2="489.88" y2="259.35" style="fill:none; stroke:#e6e6e6; stroke-linecap:round; stroke-miterlimit:10; stroke-width:8px;"/><line x1="7.5" y1="194.96" x2="489.88" y2="194.96" style="fill:none; stroke:#e6e6e6; stroke-linecap:round; stroke-miterlimit:10; stroke-width:8px;"/><path d="m214.65,45.16c0,2.47-1.61,3.45-3.45,3.45-.37,0-.77-.04-1.21-.07l-.07-1.24c.46.07.82.09,1.21.09,1.09,0,2-.75,2-2.4v-9.52h1.52v9.7Z" style="fill:gray;"/><path d="m222.34,35.47c3.05,0,4.43,1.24,4.43,3.38,0,1.59-.91,2.83-2.73,3.25l3.08,6.27h-1.68l-2.83-6.02h-3.12v6.02h-1.49v-12.9h4.34Zm-2.85,5.69h2.66c2.15,0,3.06-.84,3.06-2.29s-.8-2.17-2.96-2.17h-2.77v4.46Z" style="fill:gray;"/><path d="m244.22,46.98c0,.14-.02.16-.16.16-.09,0-.63-.04-2.28-.04h-4.83v.79c0,1.43.04,1.92.04,2.01,0,.12-.02.12-.14.12h-.84c-.12,0-.14,0-.14-.12,0-.11.04-.58.04-2.01v-.79h-4.62c-1.65,0-2.19.04-2.28.04-.12,0-.14-.02-.14-.16v-.7c0-.14.02-.16.14-.16.09,0,.63.04,2.28.04h4.62v-1.73h-2c-1.73,0-2.33.04-2.43.04-.12,0-.14-.02-.14-.14,0-.1.04-.51.04-1.63v-2.33c0-1.12-.04-1.52-.04-1.63,0-.12.02-.14.14-.14.1,0,.7.04,2.43.04h5.25c1.75,0,2.35-.04,2.43-.04.12,0,.14.02.14.14,0,.09-.04.51-.04,1.63v2.33c0,1.12.04,1.52.04,1.63,0,.12-.02.14-.14.14-.09,0-.68-.04-2.43-.04h-2.21v1.73h4.83c1.64,0,2.19-.04,2.28-.04.14,0,.16.02.16.16v.7Zm-.05-10.36c0,.12-.02.14-.14.14-.09,0-.65-.04-2.29-.04h-2.52c0,.82.04,1.14.04,1.21,0,.12-.02.14-.14.14h-.77c-.12,0-.14-.02-.14-.14,0-.07.04-.38.04-1.21h-3.57c0,.82.03,1.14.03,1.21,0,.12-.02.14-.14.14h-.77c-.12,0-.14-.02-.14-.14,0-.07.04-.38.04-1.21h-2.33c-1.64,0-2.19.04-2.29.04-.12,0-.14-.02-.14-.14v-.74c0-.12.02-.14.14-.14.1,0,.65.04,2.29.04h2.33c-.02-.63-.04-1.14-.11-1.52.4.02.79.05,1.09.11.1.02.17.07.17.14,0,.09-.04.14-.07.23-.07.12-.1.46-.1,1.05h3.57c-.02-.63-.04-1.14-.11-1.52.4.02.79.05,1.08.11.11.02.17.07.17.14,0,.09-.03.14-.07.23-.07.12-.11.46-.11,1.05h2.52c1.65,0,2.21-.04,2.29-.04.12,0,.14.02.14.14v.74Zm-3.5,2.91h-8.26v1.54h8.26v-1.54Zm0,2.4h-8.26v1.63h8.26v-1.63Z" style="fill:gray;"/><path d="m250.52,44.2c.65,1.28,1.54,2.43,2.77,3.38-.19.17-.35.35-.49.54-.09.12-.14.18-.19.18s-.12-.05-.25-.18c-.91-.88-1.56-1.75-2.08-2.83-.07.28-.16.54-.25.77-.42,1.14-1.29,2.45-2.66,3.54-.12.09-.19.14-.26.14s-.14-.07-.28-.23c-.19-.23-.33-.33-.51-.44,1.61-1.08,2.38-2.24,2.87-3.5.14-.37.26-.82.35-1.37h-.94c-1.42,0-1.86.04-1.94.04-.14,0-.16-.02-.16-.14v-.7c0-.12.02-.14.16-.14.09,0,.53.04,1.94.04h1.07c.07-.77.1-1.68.12-2.71h-1.22c-.32.53-.68,1.05-1.19,1.61-.12.14-.17.19-.25.19-.05,0-.12-.05-.25-.17-.17-.17-.37-.28-.52-.35,1.19-1.07,1.8-2.4,2.15-3.33.11-.28.21-.72.23-.96.37.09.67.17.93.26.1.04.17.09.17.18s-.07.16-.14.23c-.12.12-.17.25-.25.44-.14.35-.28.68-.44,1.01h2.03c1.16,0,1.49-.04,1.59-.04.12,0,.14.02.14.14v.68c0,.12-.02.14-.14.14-.11,0-.44-.04-1.59-.04h-.3c-.02,1.03-.05,1.93-.14,2.71h.44c1.4,0,1.84-.04,1.94-.04s.12.02.12.14v.7c0,.12-.02.14-.12.14s-.54-.04-1.94-.04h-.53Zm11.08-7.51c0,.12-.02.14-.14.14-.1,0-.65-.04-2.29-.04h-2.42c0,.54.04.75.04.82,0,.12-.02.14-.14.14h-.77c-.12,0-.14-.02-.14-.14,0-.07.02-.28.04-.82h-3.68c0,.86.04,1.17.04,1.26,0,.12-.02.14-.14.14h-.77c-.12,0-.14-.02-.14-.14,0-.1.03-.4.03-1.26h-2.34c-1.65,0-2.19.04-2.28.04-.12,0-.14-.02-.14-.14v-.72c0-.12.02-.14.14-.14.09,0,.63.04,2.28.04h2.34v-.16c0-.44,0-1-.1-1.47.44.02.79.07,1.08.11.11.02.19.09.19.16s-.02.14-.09.25c-.07.12-.11.46-.11.93v.19h3.68v-.17c0-.44,0-1-.11-1.45.44.02.79.05,1.08.11.11.02.17.07.17.14,0,.09-.02.14-.07.25-.07.12-.11.44-.11.93v.21h2.42c1.65,0,2.19-.04,2.29-.04s.14.02.14.14v.72Zm.02,12.13c0,.12-.02.14-.14.14-.1,0-.63-.04-2.26-.04h-4.22v.93c0,.12-.02.14-.14.14h-.7c-.12,0-.14-.02-.14-.14,0-.09.04-.44.04-1.66v-6.42c-.26.37-.54.75-.86,1.14-.1.12-.16.17-.23.17-.05,0-.1-.05-.23-.17-.16-.17-.3-.26-.49-.35,1.1-1.03,1.96-2.55,2.38-3.64.16-.47.25-.79.3-1.17.37.09.68.17.91.25.14.05.21.09.21.19,0,.09-.05.17-.14.26-.12.12-.23.31-.44.79-.14.28-.26.56-.4.82h2.43c.26-.49.46-.93.61-1.33.11-.26.17-.51.21-.86.4.09.68.16.95.25.12.04.17.11.17.19s-.05.16-.14.23c-.11.09-.21.23-.33.51-.16.33-.3.65-.49,1.02h.84c1.38,0,1.8-.04,1.91-.04.12,0,.14.02.14.14v.61c0,.12-.02.14-.14.14-.1,0-.52-.04-1.91-.04h-.91v1.79h.31c1.51,0,2-.04,2.08-.04.14,0,.16.02.16.14v.6c0,.12-.02.14-.16.14-.09,0-.58-.04-2.08-.04h-.31v1.8h.3c1.52,0,2.01-.04,2.1-.04.14,0,.16.02.16.14v.58c0,.12-.02.14-.16.14-.09,0-.58-.02-2.1-.02h-.3v2.01h.8c1.63,0,2.15-.04,2.26-.04.12,0,.14.02.14.14v.63Zm-4.15-7.95h-2.47v1.79h2.47v-1.79Zm0,2.59h-2.47v1.8h2.47v-1.8Zm0,2.61h-2.47v2.01h2.47v-2.01Z" style="fill:gray;"/><path d="m265.12,44.43q.21.07.19.21c-.09,1.31-.25,2.5-.77,3.69-.05.12-.09.12-.25.02l-.42-.28c-.14-.09-.16-.11-.11-.23.44-.98.67-2.05.77-3.45.02-.14.04-.14.26-.07l.31.11Zm5.93-8.72c0,.12-.02.14-.14.14-.09,0-.51-.04-1.71-.04h-.74v1.68h.26c1.26,0,1.63-.04,1.71-.04.12,0,.14.02.14.14v.6c0,.12-.02.14-.14.14-.09,0-.46-.04-1.71-.04h-.26v1.68h.26c1.26,0,1.63-.04,1.71-.04.12,0,.14.02.14.14v.6c0,.12-.02.14-.14.14-.09,0-.46-.04-1.71-.04h-.26v1.75h.61c1.17,0,1.52-.03,1.63-.03s.16.03.14.16c-.02.33-.04.65-.05.98-.12,2.84-.44,4.2-.74,4.88-.3.61-.88.96-1.52.96-.3,0-.7-.02-1-.03-.21-.02-.25-.02-.3-.37-.05-.3-.12-.49-.23-.7.54.07,1.07.11,1.37.11.4,0,.65-.19.82-.51.28-.49.54-1.79.65-4.62h-3.17c-1.29,0-1.73.04-1.87.04-.12,0-.14-.02-.14-.16,0-.09.04-.68.04-1.87v-4.2c0-1.43-.04-2.01-.04-2.12,0-.12.02-.14.14-.14.14,0,.58.04,1.87.04h2.52c1.21,0,1.63-.04,1.71-.04.12,0,.14.02.14.14v.67Zm-3.5.1h-1.91v1.68h1.91v-1.68Zm0,2.49h-1.91v1.68h1.91v-1.68Zm0,2.49h-1.91v1.75h1.91v-1.75Zm-1.35,3.64c.16-.04.19-.04.21.07.19.93.3,1.79.35,2.8,0,.16-.02.17-.17.23l-.37.12c-.16.05-.19.05-.19-.11-.04-1.07-.12-1.92-.3-2.85-.03-.14,0-.14.14-.17l.33-.09Zm1.17-.12c.14-.05.17-.05.21.07.23.7.4,1.47.53,2.36.02.12,0,.14-.14.19l-.3.12c-.16.07-.19.05-.21-.07-.11-.91-.25-1.72-.47-2.42-.04-.12-.02-.12.12-.17l.26-.09Zm1.08-.19c.14-.05.17-.05.23.05.25.51.44,1.07.61,1.79.02.11,0,.12-.12.17l-.26.12c-.14.07-.17.05-.19-.05-.16-.72-.35-1.35-.58-1.82-.05-.1-.04-.12.1-.17l.21-.09Zm7.42-2.96c.35,3.13,1.44,5.95,3.76,7.75-.21.14-.42.32-.61.58-.11.14-.16.21-.21.21s-.11-.05-.23-.16c-2.28-2-3.29-4.85-3.69-8.38h-1.75c-.04,1.17-.1,2.19-.23,3.27-.23,1.77-.75,3.64-1.85,5.13-.09.12-.14.19-.19.19s-.1-.07-.23-.17c-.21-.21-.46-.37-.68-.47,1.26-1.38,1.73-3.13,1.98-5.08.23-1.75.23-3.52.23-6.21,0-1.63-.04-2.33-.04-2.42,0-.12.02-.14.14-.14.11,0,.54.04,1.96.04h2.33c1.38,0,1.86-.04,1.94-.04.12,0,.14.02.14.14,0,.09-.04.54-.04,1.75v2.96c0,1.23.04,1.61.04,1.72,0,.12-.02.14-.14.14h-.75c-.12,0-.14-.02-.14-.14v-.67h-1.73Zm1.73-4.94h-4.43v1.71c0,.88,0,1.63-.02,2.31h4.45v-4.03Z" style="fill:gray;"/><path d="m397.28,5.72c.11-.14.17-.14.28-.09.84.51,1.63,1.07,2.4,1.8.09.09.09.12-.02.25l-.42.49c-.17.21-.19.23-.3.12-.72-.75-1.54-1.4-2.33-1.89-.12-.07-.11-.1.02-.24l.37-.44Zm1.26,9.78c-.18.39-.3.65-.32.81-.02.1-.09.19-.14.19-.07,0-.16-.04-.28-.1-.3-.19-.51-.33-.81-.58.33-.42.56-.75.82-1.28.54-1.05,1.14-2.43,1.66-4.17.18.25.35.37.6.52.26.18.26.19.16.54-.53,1.44-1.12,2.85-1.7,4.06Zm-.46-14.09c.12-.14.17-.16.28-.09.82.52,1.61,1.15,2.29,1.87.09.1.09.17-.05.33l-.38.47c-.14.16-.17.17-.28.07-.7-.77-1.58-1.54-2.29-2-.11-.07-.11-.1.05-.26l.39-.4Zm14.26,6.14c0,.1-.02.12-.14.12-.09,0-.7-.04-2.49-.04h-6.48c-1.77,0-2.38.04-2.49.04-.12,0-.14-.02-.14-.12v-.65c0-.12.02-.14.14-.14.1,0,.72.04,2.49.04h2.59v-1.28h-1.44c-1.68,0-2.22.04-2.33.04-.12,0-.14-.02-.14-.14v-.58c0-.12.02-.14.14-.14.1,0,.65.04,2.33.04h1.44v-1.21h-1.79c-1.73,0-2.29.04-2.38.04-.12,0-.14-.02-.14-.14v-.61c0-.12.02-.14.14-.14.09,0,.65.03,2.38.03h1.79v-.12c0-.91-.02-1.35-.12-1.79.4.02.86.05,1.14.09.14.02.21.09.21.16,0,.12-.05.19-.11.31-.07.16-.09.42-.09,1.19v.16h2.15c1.73,0,2.31-.03,2.4-.03.12,0,.14.02.14.14v.61c0,.12-.02.14-.14.14-.09,0-.67-.04-2.4-.04h-2.15v1.21h1.72c1.68,0,2.21-.04,2.31-.04.12,0,.14.02.14.14v.58c0,.12-.02.14-.14.14-.1,0-.63-.04-2.31-.04h-1.72v1.28h2.85c1.79,0,2.4-.04,2.49-.04.12,0,.14.02.14.14v.65Zm-4.17,1.16c1.58,0,2.12-.04,2.21-.04.12,0,.14.02.14.14,0,.1-.04.7-.04,2.05v1.84c0,.93.02,1.85.02,2.33,0,.54-.07.93-.37,1.16-.32.23-.6.31-1.89.31-.35,0-.37,0-.46-.35-.05-.21-.14-.42-.3-.67.42.04.79.05,1.29.05.59,0,.7-.18.7-.65v-1.21h-6.09v.61c0,1.59.04,2.14.04,2.22,0,.1-.02.12-.14.12h-.79c-.12,0-.14-.02-.14-.12s.04-.58.04-2.19v-3.57c0-1.33-.04-1.84-.04-1.94,0-.12.02-.14.14-.14.09,0,.65.04,2.22.04h3.45Zm1.31.84h-6.09v1.24h6.09v-1.24Zm0,2.07h-6.09v1.24h6.09v-1.24Z" style="fill:gray;"/><path d="m419.19,5.83c.17,0,.24-.02.33-.05.07-.04.11-.05.17-.05.11,0,.23.05.47.32.28.28.35.4.35.51,0,.09-.05.16-.14.23-.1.09-.21.21-.31.52-1,2.87-2.54,5.09-5.01,7.02-.12.1-.19.16-.25.16-.07,0-.14-.07-.25-.23-.17-.24-.37-.44-.58-.56,2.52-1.73,4.15-3.99,5.11-6.88h-2.5c-1.29,0-1.7.03-1.79.03-.12,0-.14-.02-.14-.14v-.79c0-.1.02-.12.14-.12.09,0,.49.03,1.79.03h2.59Zm3.36-2c.31,1.45.91,2.89,1.68,4.18,1.03-.86,1.87-1.75,2.77-2.85.23-.28.37-.54.49-.84.39.23.65.4.95.65.12.09.16.16.16.25,0,.1-.09.16-.21.23-.16.09-.38.28-.8.73-.77.82-1.7,1.73-2.83,2.66,1.4,2.05,3.27,3.73,5.27,4.71-.21.16-.42.38-.61.68-.11.16-.14.23-.23.23-.05,0-.12-.05-.26-.12-2.82-1.65-5.44-4.85-6.44-8.33.05,3.05.14,6.63.14,8.82,0,.56-.17,1-.63,1.24-.33.21-.86.3-2.17.3q-.35,0-.46-.35c-.09-.32-.21-.6-.37-.81.44.03,1.03.05,1.51.05.72,0,1-.16,1-.65V3.03c0-.96-.02-1.44-.12-1.92.4.02.84.05,1.17.09.14.02.23.09.23.16,0,.14-.07.25-.11.37-.07.19-.1.52-.1,1.3v.82Z" style="fill:gray;"/><path d="m447.21,5.04c0,.12-.02.14-.14.14-.09,0-.63-.03-2.28-.03h-6.23c-.04.98-.1,1.85-.21,2.68h4.41c1.49,0,1.96-.04,2.05-.04.12,0,.17.05.16.19-.04.4-.05.82-.09,1.23-.17,2.61-.38,4.27-.63,5.29-.33,1.35-.91,1.8-2.17,1.8-.33,0-1.03-.04-1.68-.1q-.33-.04-.37-.4c-.04-.3-.12-.63-.25-.82,1.01.17,1.82.21,2.22.21.67,0,.98-.37,1.16-1.07.26-1.03.47-2.94.59-5.25h-5.55c-.63,3.52-2.14,5.65-5.37,7.47-.12.07-.21.1-.26.1-.11,0-.16-.09-.28-.28-.16-.23-.38-.4-.63-.56,4.2-2.06,5.65-4.67,5.74-10.45h-3.08c-1.63,0-2.19.03-2.28.03-.12,0-.14-.02-.14-.14v-.81c0-.12.02-.14.14-.14.09,0,.65.04,2.28.04h4.52v-1.35c0-.89-.02-1.38-.12-1.8.42,0,.88.03,1.21.09.14.02.21.07.21.14,0,.12-.05.21-.1.33-.07.17-.09.44-.09,1.23v1.37h4.85c1.65,0,2.19-.04,2.28-.04.12,0,.14.02.14.14v.81Z" style="fill:gray;"/><path d="m464.63,2.69c0,.11-.02.12-.14.12-.11,0-.65-.03-2.29-.03h-4.85c-.26.88-.63,1.8-1.08,2.66h5.01c1.75,0,2.34-.04,2.45-.04.12,0,.14.02.14.14,0,.1-.03.77-.03,3.2v3.05c0,3.87.03,4.5.03,4.6,0,.12-.02.14-.14.14h-.82c-.12,0-.14-.02-.14-.14v-.86h-11.5v.88c0,.12-.02.14-.14.14h-.8c-.12,0-.14-.02-.14-.14,0-.1.04-.74.04-4.62v-2.73c0-2.75-.04-3.41-.04-3.52,0-.12.02-.14.14-.14.1,0,.7.04,2.45.04h2.38c.42-.79.81-1.79,1.07-2.66h-4.38c-1.65,0-2.21.03-2.29.03-.12,0-.14-.02-.14-.12v-.79c0-.12.02-.14.14-.14.09,0,.65.03,2.29.03h10.36c1.64,0,2.19-.03,2.29-.03.12,0,.14.02.14.14v.79Zm-10.43,3.68h-2.94v8.23h2.94V6.37Zm4.58,0h-3.59v2.1h3.59v-2.1Zm0,2.98h-3.59v2.15h3.59v-2.15Zm0,3.03h-3.59v2.22h3.59v-2.22Zm3.97-6h-2.96v8.23h2.96V6.37Z" style="fill:gray;"/><polygon points="495.97 9.4 484.38 2.7 484.38 6.78 470.83 6.78 470.83 12.01 484.38 12.01 484.38 16.09 495.97 9.4" style="fill:gray;"/><path d="m41.39,7.42c0,.12-.02.14-.14.14-.09,0-.56-.04-2.07-.04h-2.97c-1.49,0-2,.04-2.08.04-.11,0-.12-.02-.12-.14v-.61c0-.12.02-.14.12-.14.09,0,.59.04,2.08.04h1.17v-1.23h-.52c-1.26,0-1.66.03-1.75.03-.12,0-.14-.02-.14-.14v-.6c0-.1.02-.12.14-.12.09,0,.49.04,1.75.04h.52v-1.16h-.77c-1.42,0-1.86.04-1.96.04-.12,0-.14-.02-.14-.14v-.61c0-.12.02-.14.14-.14.1,0,.54.03,1.96.03h.77v-.05c0-.93-.02-1.4-.12-1.87.42.02.74.05,1.07.11.14.02.23.09.23.14,0,.14-.07.21-.12.33-.07.19-.09.49-.09,1.3v.05h.77c1.42,0,1.85-.03,1.96-.03s.12.02.12.14v.61c0,.12-.02.14-.12.14s-.54-.04-1.96-.04h-.77v1.16h.47c1.28,0,1.66-.04,1.77-.04.12,0,.14.02.14.12v.6c0,.12-.02.14-.14.14-.1,0-.49-.03-1.77-.03h-.47v1.23h.84c1.51,0,1.98-.04,2.07-.04.12,0,.14.02.14.14v.61Zm-2.59,1.19c1.24,0,1.65-.04,1.73-.04.12,0,.14.02.14.14,0,.09-.04.7-.04,2.05v2.14c0,.89.02,1.84.02,2.21,0,.46-.07.84-.37,1.07-.31.21-.56.3-1.68.3-.35,0-.37.02-.46-.35-.05-.23-.16-.46-.26-.65.38.04.7.07,1.12.07.58,0,.68-.18.68-.65v-1.31h-3.62v.96c0,1.31.02,1.87.02,1.96,0,.1,0,.12-.12.12h-.74c-.12,0-.14-.02-.14-.12s.03-.58.03-1.93v-3.9c0-1.35-.03-1.85-.03-1.96,0-.12.02-.14.14-.14.11,0,.51.04,1.73.04h1.84Zm.89.84h-3.62v1.24h3.62v-1.24Zm0,2.07h-3.62v1.24h3.62v-1.24Zm10.17-2.49c0,.12-.02.14-.12.14-.07,0-.38-.02-1.14-.04v1.72c0,1.28.04,1.71.04,1.82s-.02.12-.14.12h-.7c-.12,0-.14-.02-.14-.12v-.68h-2.08v.37c0,.75.02,1.77.02,2.38,0,.79-.09,1.12-.44,1.4-.26.23-.79.32-1.93.3-.35,0-.35.02-.44-.35-.07-.26-.17-.49-.33-.7.37.05.75.07,1.28.07.65,0,.86-.14.86-.84v-2.63h-.44c-1.47,0-1.94.04-2.03.04-.12,0-.14-.02-.14-.14v-.65c0-.12.02-.14.14-.14.09,0,.56.04,2.03.04h.44v-2h-.8c-1.61,0-2.15.04-2.24.04-.12,0-.14-.02-.14-.14v-.67c0-.12.02-.14.14-.14.09,0,.63.04,2.24.04h.8v-1.93h-.28c-1.38,0-1.79.04-1.87.04-.12,0-.14-.02-.14-.12v-.67c0-.12.02-.14.14-.14.09,0,.49.04,1.87.04h.65c.46-.63.86-1.35,1.19-2.1h-2.26c-.51.79-1.07,1.49-1.87,2.28-.12.12-.18.17-.25.17-.05,0-.11-.05-.23-.17-.17-.17-.33-.28-.54-.39,1.19-1.01,2-2.1,2.61-3.34.21-.44.35-.82.38-1.1.37.09.67.16.95.26.12.03.19.09.19.17s-.05.16-.16.25c-.09.07-.21.28-.4.67l-.21.39h1.98c.18,0,.16-.02.23-.05.07-.04.11-.05.16-.05.12,0,.23.05.49.28.26.23.32.33.32.42,0,.1-.05.19-.17.26-.12.07-.25.25-.33.4-.3.6-.65,1.14-1,1.66h.54c1.38,0,1.84-.04,1.93-.04.12,0,.14.02.14.14,0,.09-.04.52-.04,1.82v.86c.75,0,1.07-.04,1.14-.04.11,0,.12.02.12.14v.67Zm-2.21-2.7h-2.08v1.93h2.08v-1.93Zm0,2.8h-2.08v2h2.08v-2Z" style="fill:gray;"/><path d="m63.55,1.85c1.75,0,2.34-.04,2.45-.04.12,0,.14.02.14.14,0,.09-.04,1.19-.04,3.55v6.69c0,1.4.02,2.24.02,2.8,0,.51-.09.88-.42,1.15-.26.21-.75.33-2.1.33-.33,0-.35,0-.42-.33-.07-.28-.21-.61-.35-.82.51.05,1.07.07,1.56.07.46,0,.65-.19.65-.7V2.83h-11.5v10.41c0,2.19.04,3.17.04,3.26,0,.12-.02.14-.14.14h-.86c-.12,0-.14-.02-.14-.14,0-.1.04-1.1.04-3.5v-7.51c0-2.42-.04-3.45-.04-3.54,0-.12.02-.14.14-.14.1,0,.7.04,2.45.04h8.52Zm.61,5.74c0,.12-.02.14-.16.14-.09,0-.65-.03-2.31-.03h-1.98v4.9h2.4v-1.49c0-.82,0-1.29-.12-1.77.42.02.84.05,1.08.09.12.02.19.07.19.16s-.02.16-.07.25c-.07.12-.1.33-.1,1.29v1.73c0,.82.04,1.17.04,1.26,0,.12-.02.14-.14.14h-.73c-.12,0-.14-.02-.14-.14v-.65h-5.65v1.08c0,.12-.02.14-.14.14h-.74c-.12,0-.14-.02-.14-.14,0-.1.04-.45.04-1.36v-2.03c0-.93-.02-1.33-.11-1.79.37.02.79.05,1.07.1.14.02.21.07.21.12,0,.12-.05.21-.1.33-.07.16-.09.4-.09,1.23v1.44h2.28v-4.9h-1.84c-1.7,0-2.24.03-2.34.03-.12,0-.14-.02-.14-.14v-.68c0-.12.02-.14.14-.14.1,0,.65.04,2.34.04h2.98c.53-.91.89-1.63,1.23-2.4.1-.25.19-.52.28-.89.33.1.68.25.96.4.12.07.17.1.17.21,0,.09-.09.16-.16.21-.09.07-.17.17-.3.42-.28.56-.68,1.31-1.14,2.05h.77c1.66,0,2.22-.04,2.31-.04.14,0,.16.02.16.14v.68Zm-7.46-3.92c.17-.09.19-.1.28,0,.46.61.84,1.29,1.17,2.01.05.12.02.16-.19.26l-.42.21c-.23.12-.26.12-.32,0-.3-.7-.63-1.37-1.08-2.01-.07-.1-.05-.14.14-.24l.42-.23Z" style="fill:gray;"/><path d="m84.44,5.04c0,.12-.02.14-.14.14-.09,0-.63-.03-2.28-.03h-6.23c-.04.98-.1,1.85-.21,2.68h4.41c1.49,0,1.96-.04,2.05-.04.12,0,.17.05.16.19-.04.4-.05.82-.09,1.23-.17,2.61-.38,4.27-.63,5.29-.33,1.35-.91,1.8-2.17,1.8-.33,0-1.03-.04-1.68-.1q-.33-.04-.37-.4c-.04-.3-.12-.63-.25-.82,1.01.17,1.82.21,2.22.21.67,0,.98-.37,1.16-1.07.26-1.03.47-2.94.59-5.25h-5.55c-.63,3.52-2.14,5.65-5.37,7.47-.12.07-.21.1-.26.1-.11,0-.16-.09-.28-.28-.16-.23-.38-.4-.63-.56,4.2-2.06,5.65-4.67,5.74-10.45h-3.08c-1.63,0-2.19.03-2.28.03-.12,0-.14-.02-.14-.14v-.81c0-.12.02-.14.14-.14.09,0,.65.04,2.28.04h4.52v-1.35c0-.89-.02-1.38-.12-1.8.42,0,.88.03,1.21.09.14.02.21.07.21.14,0,.12-.05.21-.1.33-.07.17-.09.44-.09,1.23v1.37h4.85c1.65,0,2.19-.04,2.28-.04.12,0,.14.02.14.14v.81Z" style="fill:gray;"/><path d="m101.85,2.69c0,.11-.02.12-.14.12-.11,0-.65-.03-2.29-.03h-4.85c-.26.88-.63,1.8-1.08,2.66h5.01c1.75,0,2.34-.04,2.45-.04.12,0,.14.02.14.14,0,.1-.03.77-.03,3.2v3.05c0,3.87.03,4.5.03,4.6,0,.12-.02.14-.14.14h-.82c-.12,0-.14-.02-.14-.14v-.86h-11.5v.88c0,.12-.02.14-.14.14h-.8c-.12,0-.14-.02-.14-.14,0-.1.04-.74.04-4.62v-2.73c0-2.75-.04-3.41-.04-3.52,0-.12.02-.14.14-.14.1,0,.7.04,2.45.04h2.38c.42-.79.81-1.79,1.07-2.66h-4.38c-1.65,0-2.21.03-2.29.03-.12,0-.14-.02-.14-.12v-.79c0-.12.02-.14.14-.14.09,0,.65.03,2.29.03h10.36c1.64,0,2.19-.03,2.29-.03.12,0,.14.02.14.14v.79Zm-10.43,3.68h-2.94v8.23h2.94V6.37Zm4.58,0h-3.59v2.1h3.59v-2.1Zm0,2.98h-3.59v2.15h3.59v-2.15Zm0,3.03h-3.59v2.22h3.59v-2.22Zm3.97-6h-2.96v8.23h2.96V6.37Z" style="fill:gray;"/><polygon points="1.74 9.4 13.34 2.7 13.34 6.78 26.88 6.78 26.88 12.01 13.34 12.01 13.34 16.09 1.74 9.4" style="fill:gray;"/><line x1=".5" y1="290.26" x2="496.88" y2="290.26" style="fill:none; stroke:#6a6766; stroke-miterlimit:10; stroke-width:7.56px;"/><line x1=".5" y1="290.26" x2="496.88" y2="290.26" style="fill:none; stroke:#fff; stroke-miterlimit:10; stroke-width:5.04px;"/><line x1=".5" y1="290.26" x2="496.88" y2="290.26" style="fill:none; stroke:#6a6766; stroke-dasharray:0 0 11 13; stroke-miterlimit:10; stroke-width:5.04px;"/><rect x="155.49" y="273.41" width="85.22" height="32.41" style="fill:#fff; stroke:#545454; stroke-miterlimit:10; stroke-width:.5px;"/><path d="m187.75,294.04c0,.14-.02.16-.16.16-.09,0-.63-.04-2.28-.04h-4.83v.79c0,1.43.04,1.92.04,2.01,0,.12-.02.12-.14.12h-.84c-.12,0-.14,0-.14-.12,0-.11.04-.58.04-2.01v-.79h-4.62c-1.65,0-2.19.04-2.28.04-.12,0-.14-.02-.14-.16v-.7c0-.14.02-.16.14-.16.09,0,.63.04,2.28.04h4.62v-1.73h-2c-1.73,0-2.33.04-2.43.04-.12,0-.14-.02-.14-.14,0-.1.04-.51.04-1.63v-2.33c0-1.12-.04-1.52-.04-1.63,0-.12.02-.14.14-.14.11,0,.7.04,2.43.04h5.25c1.75,0,2.35-.04,2.43-.04.12,0,.14.02.14.14,0,.09-.04.51-.04,1.63v2.33c0,1.12.04,1.52.04,1.63,0,.12-.02.14-.14.14-.09,0-.68-.04-2.43-.04h-2.21v1.73h4.83c1.64,0,2.19-.04,2.28-.04.14,0,.16.02.16.16v.7Zm-.05-10.36c0,.12-.02.14-.14.14-.09,0-.65-.04-2.29-.04h-2.52c0,.82.04,1.14.04,1.21,0,.12-.02.14-.14.14h-.77c-.12,0-.14-.02-.14-.14,0-.07.04-.38.04-1.21h-3.57c0,.82.04,1.14.04,1.21,0,.12-.02.14-.14.14h-.77c-.12,0-.14-.02-.14-.14,0-.07.04-.38.04-1.21h-2.33c-1.64,0-2.19.04-2.29.04-.12,0-.14-.02-.14-.14v-.74c0-.12.02-.14.14-.14.1,0,.65.04,2.29.04h2.33c-.02-.63-.04-1.14-.11-1.52.4.02.79.05,1.09.11.11.02.17.07.17.14,0,.09-.04.14-.07.23-.07.12-.11.46-.11,1.05h3.57c-.02-.63-.04-1.14-.11-1.52.4.02.79.05,1.09.11.1.02.17.07.17.14,0,.09-.03.14-.07.23-.07.12-.1.46-.1,1.05h2.52c1.65,0,2.21-.04,2.29-.04.12,0,.14.02.14.14v.74Zm-3.5,2.91h-8.26v1.54h8.26v-1.54Zm0,2.4h-8.26v1.63h8.26v-1.63Z" style="fill:gray;"/><path d="m194.05,291.26c.65,1.28,1.54,2.43,2.77,3.38-.19.17-.35.35-.49.54-.09.12-.14.18-.19.18s-.12-.05-.25-.18c-.91-.88-1.56-1.75-2.08-2.83-.07.28-.16.54-.25.77-.42,1.14-1.29,2.45-2.66,3.54-.12.09-.19.14-.26.14s-.14-.07-.28-.23c-.19-.23-.33-.33-.51-.44,1.61-1.08,2.38-2.24,2.87-3.5.14-.37.26-.82.35-1.37h-.94c-1.42,0-1.86.04-1.94.04-.14,0-.16-.02-.16-.14v-.7c0-.12.02-.14.16-.14.09,0,.53.04,1.94.04h1.07c.07-.77.11-1.68.12-2.71h-1.23c-.32.53-.68,1.05-1.19,1.61-.12.14-.17.19-.24.19-.05,0-.12-.05-.25-.17-.17-.17-.37-.28-.52-.35,1.19-1.07,1.8-2.4,2.15-3.33.1-.28.21-.72.23-.96.37.09.67.17.93.26.11.04.18.09.18.18s-.07.16-.14.23c-.12.12-.17.25-.25.44-.14.35-.28.68-.44,1.01h2.03c1.16,0,1.49-.04,1.59-.04.12,0,.14.02.14.14v.68c0,.12-.02.14-.14.14-.1,0-.44-.04-1.59-.04h-.3c-.02,1.03-.05,1.93-.14,2.71h.44c1.4,0,1.84-.04,1.94-.04s.12.02.12.14v.7c0,.12-.02.14-.12.14s-.54-.04-1.94-.04h-.53Zm11.08-7.51c0,.12-.02.14-.14.14-.11,0-.65-.04-2.29-.04h-2.42c0,.54.04.75.04.82,0,.12-.02.14-.14.14h-.77c-.12,0-.14-.02-.14-.14,0-.07.02-.28.04-.82h-3.67c0,.86.03,1.17.03,1.26,0,.12-.02.14-.14.14h-.77c-.12,0-.14-.02-.14-.14,0-.1.04-.4.04-1.26h-2.35c-1.64,0-2.19.04-2.28.04-.12,0-.14-.02-.14-.14v-.72c0-.12.02-.14.14-.14.09,0,.63.04,2.28.04h2.35v-.16c0-.44,0-1-.11-1.47.44.02.79.07,1.09.11.1.02.19.09.19.16s-.02.14-.09.25c-.07.12-.1.46-.1.93v.19h3.67v-.17c0-.44,0-1-.1-1.45.44.02.79.05,1.08.11.11.02.18.07.18.14,0,.09-.02.14-.07.25-.07.12-.11.44-.11.93v.21h2.42c1.64,0,2.19-.04,2.29-.04s.14.02.14.14v.72Zm.02,12.13c0,.12-.02.14-.14.14-.11,0-.63-.04-2.26-.04h-4.22v.93c0,.12-.02.14-.14.14h-.7c-.12,0-.14-.02-.14-.14,0-.09.04-.44.04-1.66v-6.42c-.26.37-.54.75-.86,1.14-.1.12-.16.17-.23.17-.05,0-.11-.05-.23-.17-.16-.17-.3-.26-.49-.35,1.1-1.03,1.96-2.55,2.38-3.64.16-.47.25-.79.3-1.17.37.09.68.17.91.25.14.05.21.09.21.19,0,.09-.05.17-.14.26-.12.12-.23.31-.44.79-.14.28-.26.56-.4.82h2.43c.26-.49.46-.93.61-1.33.11-.26.18-.51.21-.86.4.09.68.16.95.25.12.04.17.11.17.19s-.05.16-.14.23c-.1.09-.21.23-.33.51-.16.33-.3.65-.49,1.02h.84c1.38,0,1.8-.04,1.91-.04.12,0,.14.02.14.14v.61c0,.12-.02.14-.14.14-.1,0-.52-.04-1.91-.04h-.91v1.79h.32c1.5,0,2-.04,2.08-.04.14,0,.16.02.16.14v.6c0,.12-.02.14-.16.14-.09,0-.58-.04-2.08-.04h-.32v1.8h.3c1.52,0,2.01-.04,2.1-.04.14,0,.16.02.16.14v.58c0,.12-.02.14-.16.14-.09,0-.58-.02-2.1-.02h-.3v2.01h.81c1.63,0,2.15-.04,2.26-.04.12,0,.14.02.14.14v.63Zm-4.15-7.95h-2.47v1.79h2.47v-1.79Zm0,2.59h-2.47v1.8h2.47v-1.8Zm0,2.61h-2.47v2.01h2.47v-2.01Z" style="fill:gray;"/><path d="m208.65,291.49q.21.07.19.21c-.09,1.31-.24,2.5-.77,3.69-.05.12-.09.12-.25.02l-.42-.28c-.14-.09-.16-.11-.1-.23.44-.98.66-2.05.77-3.45.02-.14.04-.14.26-.07l.32.11Zm5.93-8.72c0,.12-.02.14-.14.14-.09,0-.51-.04-1.72-.04h-.74v1.68h.26c1.26,0,1.63-.04,1.71-.04.12,0,.14.02.14.14v.6c0,.12-.02.14-.14.14-.09,0-.46-.04-1.71-.04h-.26v1.68h.26c1.26,0,1.63-.04,1.71-.04.12,0,.14.02.14.14v.6c0,.12-.02.14-.14.14-.09,0-.46-.04-1.71-.04h-.26v1.75h.61c1.17,0,1.52-.03,1.63-.03s.16.03.14.16c-.02.33-.04.65-.05.98-.12,2.84-.44,4.2-.73,4.88-.3.61-.88.96-1.52.96-.3,0-.7-.02-1-.03-.21-.02-.24-.02-.3-.37-.05-.3-.12-.49-.23-.7.54.07,1.07.11,1.37.11.4,0,.65-.19.82-.51.28-.49.54-1.79.65-4.62h-3.17c-1.29,0-1.73.04-1.87.04-.12,0-.14-.02-.14-.16,0-.09.04-.68.04-1.87v-4.2c0-1.43-.04-2.01-.04-2.12,0-.12.02-.14.14-.14.14,0,.58.04,1.87.04h2.52c1.21,0,1.63-.04,1.72-.04.12,0,.14.02.14.14v.67Zm-3.5.1h-1.91v1.68h1.91v-1.68Zm0,2.49h-1.91v1.68h1.91v-1.68Zm0,2.49h-1.91v1.75h1.91v-1.75Zm-1.35,3.64c.16-.04.19-.04.21.07.19.93.3,1.79.35,2.8,0,.16-.02.17-.17.23l-.37.12c-.16.05-.19.05-.19-.11-.04-1.07-.12-1.92-.3-2.85-.03-.14,0-.14.14-.17l.33-.09Zm1.17-.12c.14-.05.17-.05.21.07.23.7.4,1.47.53,2.36.02.12,0,.14-.14.19l-.3.12c-.16.07-.19.05-.21-.07-.1-.91-.25-1.72-.47-2.42-.04-.12-.02-.12.12-.17l.26-.09Zm1.08-.19c.14-.05.18-.05.23.05.24.51.44,1.07.61,1.79.02.11,0,.12-.12.17l-.26.12c-.14.07-.17.05-.19-.05-.16-.72-.35-1.35-.58-1.82-.05-.1-.04-.12.11-.17l.21-.09Zm7.42-2.96c.35,3.13,1.43,5.95,3.76,7.75-.21.14-.42.32-.61.58-.11.14-.16.21-.21.21s-.11-.05-.23-.16c-2.27-2-3.29-4.85-3.69-8.38h-1.75c-.04,1.17-.11,2.19-.23,3.27-.23,1.77-.75,3.64-1.85,5.13-.09.12-.14.19-.19.19s-.11-.07-.23-.17c-.21-.21-.46-.37-.68-.47,1.26-1.38,1.73-3.13,1.98-5.08.23-1.75.23-3.52.23-6.21,0-1.63-.04-2.33-.04-2.42,0-.12.02-.14.14-.14.1,0,.54.04,1.96.04h2.33c1.38,0,1.86-.04,1.94-.04.12,0,.14.02.14.14,0,.09-.04.54-.04,1.75v2.96c0,1.23.04,1.61.04,1.72,0,.12-.02.14-.14.14h-.75c-.12,0-.14-.02-.14-.14v-.67h-1.73Zm1.73-4.94h-4.43v1.71c0,.88,0,1.63-.02,2.31h4.45v-4.03Z" style="fill:gray;"/><line x1="7.5" y1="123.55" x2="489.88" y2="123.55" style="fill:none; stroke:#e6e6e6; stroke-linecap:round; stroke-miterlimit:10; stroke-width:8px;"/><path d="m386.72,314.58c0,.12-.02.14-.14.14-.09,0-.58-.04-2.12-.04h-.54c.7,1.01,1.42,1.56,2.59,2.24-.14.14-.3.33-.42.61-.07.14-.1.21-.16.21s-.12-.05-.25-.16c-.86-.63-1.52-1.33-2.14-2.35.04,2.82.12,4.48.12,5.22,0,.12-.02.14-.16.14h-.79c-.12,0-.14-.02-.14-.14,0-.72.05-2.29.1-5.01-.72,1.4-1.61,2.5-2.97,3.61-.12.09-.19.14-.26.14s-.11-.07-.17-.21c-.12-.26-.32-.51-.47-.65,1.54-1.03,2.64-2.14,3.5-3.66h-.89c-1.54,0-2.05.04-2.13.04-.12,0-.14-.02-.14-.14v-.7c0-.12.02-.14.14-.14.09,0,.59.04,2.13.04h1.23v-.04c0-.82-.02-1.24-.11-1.65.37.02.77.05,1.07.09.11.02.17.07.17.14,0,.11-.03.18-.07.25-.05.12-.09.33-.09,1.17v.04h.84c1.54,0,2.03-.04,2.12-.04.12,0,.14.02.14.14v.7Zm.3-2.94c0,.12-.02.14-.14.14-.11,0-.61-.04-2.17-.04h-3.38c-1.58,0-2.08.04-2.17.04-.12,0-.14-.02-.14-.14v-.72c0-.12.02-.14.14-.14.09,0,.59.04,2.17.04h2.31c.38-.77.61-1.4.8-2,.09-.26.14-.47.16-.75.38.09.67.16.95.25.16.05.21.12.21.21s-.05.14-.12.21c-.09.09-.17.19-.26.4-.23.58-.46,1.07-.77,1.68h.1c1.52,0,2.03-.04,2.17-.04.12,0,.14.02.14.14v.72Zm-.28-4.13c0,.12-.02.14-.14.14-.09,0-.58-.04-2.08-.04h-2.91c-1.5,0-2,.04-2.08.04-.12,0-.14-.02-.14-.14v-.68c0-.12.02-.14.14-.14.09,0,.58.03,2.08.03h1.02v-.54c0-.44-.02-.88-.12-1.26.46.02.79.03,1.14.09.14.02.23.07.23.14,0,.12-.05.21-.1.32-.09.16-.09.3-.09.72v.54h.84c1.5,0,2-.03,2.08-.03.12,0,.14.02.14.14v.68Zm-5.48.63c.14-.05.17-.04.25.07.33.56.58,1.16.75,1.73.04.12.02.17-.16.25l-.44.17c-.23.07-.28.07-.32-.09-.17-.63-.37-1.19-.67-1.75-.07-.12-.05-.16.18-.24l.4-.14Zm13.6,3.52c0,.12-.02.14-.14.14-.09,0-.58-.04-2.12-.04h-.09v6.18c0,1.89.04,2.52.04,2.61,0,.14-.02.14-.14.14h-.86c-.12,0-.14,0-.14-.14,0-.09.04-.72.04-2.61v-6.18h-2.61c0,1.86-.05,3.64-.44,5.13-.3,1.14-.68,2.14-1.79,3.47-.11.14-.17.19-.25.19s-.12-.04-.23-.14c-.17-.17-.4-.3-.67-.4,1.12-1.17,1.68-2.38,2-3.67.28-1.17.35-2.71.35-4.92v-2.15c0-.96-.03-1.71-.12-2.47.42.09.72.17,1.14.35,1.43-.39,2.61-.89,3.48-1.37.35-.19.63-.4.88-.63.28.23.56.53.77.79.07.09.11.16.11.25,0,.07-.09.14-.23.16-.19.02-.39.09-.65.21-1.17.58-2.68,1.14-4.36,1.58v2.7h3.76c1.54,0,2.03-.04,2.12-.04.12,0,.14.02.14.14v.73Z" style="fill:gray;"/><path d="m397.08,309.75c.11-.14.17-.14.28-.09.84.51,1.63,1.07,2.4,1.8.09.09.09.12-.02.25l-.42.49c-.17.21-.19.23-.3.12-.72-.75-1.54-1.4-2.33-1.89-.12-.07-.11-.11.02-.25l.37-.44Zm1.26,9.78c-.18.39-.3.65-.32.81-.02.1-.09.19-.14.19-.07,0-.16-.04-.28-.11-.3-.19-.51-.33-.81-.58.33-.42.56-.75.82-1.28.54-1.05,1.14-2.43,1.66-4.17.18.25.35.37.6.53.26.17.26.19.16.54-.53,1.44-1.12,2.85-1.7,4.06Zm-.46-14.09c.12-.14.17-.16.28-.09.82.52,1.61,1.15,2.29,1.87.09.11.09.17-.05.33l-.38.47c-.14.16-.17.17-.28.07-.7-.77-1.58-1.54-2.29-2-.11-.07-.11-.1.05-.26l.39-.4Zm14.26,6.14c0,.1-.02.12-.14.12-.09,0-.7-.04-2.49-.04h-6.48c-1.77,0-2.38.04-2.49.04-.12,0-.14-.02-.14-.12v-.65c0-.12.02-.14.14-.14.1,0,.72.04,2.49.04h2.59v-1.28h-1.44c-1.68,0-2.22.04-2.33.04-.12,0-.14-.02-.14-.14v-.58c0-.12.02-.14.14-.14.1,0,.65.04,2.33.04h1.44v-1.21h-1.79c-1.73,0-2.29.04-2.38.04-.12,0-.14-.02-.14-.14v-.61c0-.12.02-.14.14-.14.09,0,.65.03,2.38.03h1.79v-.12c0-.91-.02-1.35-.12-1.79.4.02.86.05,1.14.09.14.02.21.09.21.16,0,.12-.05.19-.11.31-.07.16-.09.42-.09,1.19v.16h2.15c1.73,0,2.31-.03,2.4-.03.12,0,.14.02.14.14v.61c0,.12-.02.14-.14.14-.09,0-.67-.04-2.4-.04h-2.15v1.21h1.72c1.68,0,2.21-.04,2.31-.04.12,0,.14.02.14.14v.58c0,.12-.02.14-.14.14-.1,0-.63-.04-2.31-.04h-1.72v1.28h2.85c1.79,0,2.4-.04,2.49-.04.12,0,.14.02.14.14v.65Zm-4.17,1.16c1.58,0,2.12-.04,2.21-.04.12,0,.14.02.14.14,0,.11-.04.7-.04,2.05v1.84c0,.93.02,1.85.02,2.33,0,.54-.07.93-.37,1.16-.32.23-.6.32-1.89.32-.35,0-.37,0-.46-.35-.05-.21-.14-.42-.3-.67.42.04.79.05,1.29.05.59,0,.7-.17.7-.65v-1.21h-6.09v.61c0,1.59.04,2.13.04,2.22,0,.1-.02.12-.14.12h-.79c-.12,0-.14-.02-.14-.12s.04-.58.04-2.19v-3.57c0-1.33-.04-1.84-.04-1.94,0-.12.02-.14.14-.14.09,0,.65.04,2.22.04h3.45Zm1.31.84h-6.09v1.24h6.09v-1.24Zm0,2.07h-6.09v1.24h6.09v-1.24Z" style="fill:gray;"/><path d="m418.99,309.85c.17,0,.24-.02.33-.05.07-.04.11-.05.17-.05.11,0,.23.05.47.32.28.28.35.4.35.51,0,.09-.05.16-.14.23-.1.09-.21.21-.31.53-1,2.87-2.54,5.09-5.01,7.02-.12.1-.19.16-.25.16-.07,0-.14-.07-.25-.23-.17-.25-.37-.44-.58-.56,2.52-1.73,4.15-3.99,5.11-6.88h-2.5c-1.29,0-1.7.04-1.79.04-.12,0-.14-.02-.14-.14v-.79c0-.1.02-.12.14-.12.09,0,.49.03,1.79.03h2.59Zm3.36-2c.31,1.45.91,2.89,1.68,4.18,1.03-.86,1.87-1.75,2.77-2.85.23-.28.37-.54.49-.84.39.23.65.4.95.65.12.09.16.16.16.25,0,.11-.09.16-.21.23-.16.09-.38.28-.8.74-.77.82-1.7,1.73-2.83,2.66,1.4,2.05,3.27,3.73,5.27,4.71-.21.16-.42.38-.61.68-.11.16-.14.23-.23.23-.05,0-.12-.05-.26-.12-2.82-1.65-5.44-4.85-6.44-8.33.05,3.04.14,6.63.14,8.82,0,.56-.17,1-.63,1.24-.33.21-.86.3-2.17.3q-.35,0-.46-.35c-.09-.32-.21-.59-.37-.8.44.03,1.03.05,1.51.05.72,0,1-.16,1-.65v-11.59c0-.96-.02-1.44-.12-1.92.4.02.84.05,1.17.09.14.02.23.09.23.16,0,.14-.07.25-.11.37-.07.19-.1.52-.1,1.29v.82Z" style="fill:gray;"/><path d="m447.01,309.07c0,.12-.02.14-.14.14-.09,0-.63-.03-2.28-.03h-6.23c-.04.98-.1,1.85-.21,2.68h4.41c1.49,0,1.96-.04,2.05-.04.12,0,.17.05.16.19-.04.4-.05.82-.09,1.22-.17,2.61-.38,4.27-.63,5.29-.33,1.35-.91,1.8-2.17,1.8-.33,0-1.03-.04-1.68-.11q-.33-.04-.37-.4c-.04-.3-.12-.63-.25-.82,1.01.17,1.82.21,2.22.21.67,0,.98-.37,1.16-1.07.26-1.03.47-2.94.59-5.25h-5.55c-.63,3.52-2.14,5.65-5.37,7.47-.12.07-.21.1-.26.1-.11,0-.16-.09-.28-.28-.16-.23-.38-.4-.63-.56,4.2-2.07,5.65-4.67,5.74-10.45h-3.08c-1.63,0-2.19.03-2.28.03-.12,0-.14-.02-.14-.14v-.8c0-.12.02-.14.14-.14.09,0,.65.04,2.28.04h4.52v-1.35c0-.89-.02-1.38-.12-1.8.42,0,.88.04,1.21.09.14.02.21.07.21.14,0,.12-.05.21-.1.33-.07.17-.09.44-.09,1.22v1.37h4.85c1.65,0,2.19-.04,2.28-.04.12,0,.14.02.14.14v.8Z" style="fill:gray;"/><path d="m464.42,306.72c0,.11-.02.12-.14.12-.11,0-.65-.04-2.29-.04h-4.85c-.26.88-.63,1.8-1.08,2.66h5.01c1.75,0,2.34-.04,2.45-.04.12,0,.14.02.14.14,0,.1-.03.77-.03,3.2v3.05c0,3.87.03,4.5.03,4.6,0,.12-.02.14-.14.14h-.82c-.12,0-.14-.02-.14-.14v-.86h-11.5v.88c0,.12-.02.14-.14.14h-.8c-.12,0-.14-.02-.14-.14,0-.1.04-.74.04-4.62v-2.73c0-2.75-.04-3.41-.04-3.52,0-.12.02-.14.14-.14.1,0,.7.04,2.45.04h2.38c.42-.79.81-1.79,1.07-2.66h-4.38c-1.65,0-2.21.04-2.29.04-.12,0-.14-.02-.14-.12v-.79c0-.12.02-.14.14-.14.09,0,.65.03,2.29.03h10.36c1.64,0,2.19-.03,2.29-.03.12,0,.14.02.14.14v.79Zm-10.43,3.68h-2.94v8.23h2.94v-8.23Zm4.58,0h-3.59v2.1h3.59v-2.1Zm0,2.98h-3.59v2.15h3.59v-2.15Zm0,3.03h-3.59v2.22h3.59v-2.22Zm3.97-6h-2.96v8.23h2.96v-8.23Z" style="fill:gray;"/><polygon points="495.97 313.77 484.38 307.08 484.38 311.16 470.83 311.16 470.83 316.39 484.38 316.39 484.38 320.47 495.97 313.77" style="fill:gray;"/><path d="m48.58,314.58c0,.12-.02.14-.14.14-.09,0-.58-.04-2.12-.04h-.54c.7,1.01,1.42,1.56,2.59,2.24-.14.14-.3.33-.42.61-.07.14-.1.21-.16.21s-.12-.05-.25-.16c-.86-.63-1.52-1.33-2.14-2.35.04,2.82.12,4.48.12,5.22,0,.12-.02.14-.16.14h-.79c-.12,0-.14-.02-.14-.14,0-.72.05-2.29.1-5.01-.72,1.4-1.61,2.5-2.97,3.61-.12.09-.19.14-.26.14s-.11-.07-.17-.21c-.12-.26-.32-.51-.47-.65,1.54-1.03,2.64-2.14,3.5-3.66h-.89c-1.54,0-2.05.04-2.13.04-.12,0-.14-.02-.14-.14v-.7c0-.12.02-.14.14-.14.09,0,.59.04,2.13.04h1.23v-.04c0-.82-.02-1.24-.11-1.65.37.02.77.05,1.07.09.11.02.17.07.17.14,0,.11-.03.18-.07.25-.05.12-.09.33-.09,1.17v.04h.84c1.54,0,2.03-.04,2.12-.04.12,0,.14.02.14.14v.7Zm.3-2.94c0,.12-.02.14-.14.14-.11,0-.61-.04-2.17-.04h-3.38c-1.58,0-2.08.04-2.17.04-.12,0-.14-.02-.14-.14v-.72c0-.12.02-.14.14-.14.09,0,.59.04,2.17.04h2.31c.38-.77.61-1.4.8-2,.09-.26.14-.47.16-.75.38.09.67.16.95.25.16.05.21.12.21.21s-.05.14-.12.21c-.09.09-.17.19-.26.4-.23.58-.46,1.07-.77,1.68h.1c1.52,0,2.03-.04,2.17-.04.12,0,.14.02.14.14v.72Zm-.28-4.13c0,.12-.02.14-.14.14-.09,0-.58-.04-2.08-.04h-2.91c-1.5,0-2,.04-2.08.04-.12,0-.14-.02-.14-.14v-.68c0-.12.02-.14.14-.14.09,0,.58.03,2.08.03h1.02v-.54c0-.44-.02-.88-.12-1.26.46.02.79.03,1.14.09.14.02.23.07.23.14,0,.12-.05.21-.1.32-.09.16-.09.3-.09.72v.54h.84c1.5,0,2-.03,2.08-.03.12,0,.14.02.14.14v.68Zm-5.48.63c.14-.05.17-.04.25.07.33.56.58,1.16.75,1.73.04.12.02.17-.16.25l-.44.17c-.23.07-.28.07-.32-.09-.17-.63-.37-1.19-.67-1.75-.07-.12-.05-.16.18-.24l.4-.14Zm13.6,3.52c0,.12-.02.14-.14.14-.09,0-.58-.04-2.12-.04h-.09v6.18c0,1.89.04,2.52.04,2.61,0,.14-.02.14-.14.14h-.86c-.12,0-.14,0-.14-.14,0-.09.04-.72.04-2.61v-6.18h-2.61c0,1.86-.05,3.64-.44,5.13-.3,1.14-.68,2.14-1.79,3.47-.11.14-.17.19-.25.19s-.12-.04-.23-.14c-.17-.17-.4-.3-.67-.4,1.12-1.17,1.68-2.38,2-3.67.28-1.17.35-2.71.35-4.92v-2.15c0-.96-.03-1.71-.12-2.47.42.09.72.17,1.14.35,1.43-.39,2.61-.89,3.48-1.37.35-.19.63-.4.88-.63.28.23.56.53.77.79.07.09.11.16.11.25,0,.07-.09.14-.23.16-.19.02-.39.09-.65.21-1.17.58-2.68,1.14-4.36,1.58v2.7h3.76c1.54,0,2.03-.04,2.12-.04.12,0,.14.02.14.14v.73Z" style="fill:gray;"/><path d="m65.82,311.45c0,.12-.02.14-.14.14-.09,0-.56-.04-2.07-.04h-2.97c-1.49,0-2,.04-2.08.04-.11,0-.12-.02-.12-.14v-.61c0-.12.02-.14.12-.14.09,0,.59.04,2.08.04h1.17v-1.23h-.52c-1.26,0-1.66.04-1.75.04-.12,0-.14-.02-.14-.14v-.6c0-.1.02-.12.14-.12.09,0,.49.04,1.75.04h.52v-1.16h-.77c-1.42,0-1.86.04-1.96.04-.12,0-.14-.02-.14-.14v-.61c0-.12.02-.14.14-.14.1,0,.54.03,1.96.03h.77v-.05c0-.93-.02-1.4-.12-1.87.42.02.74.05,1.07.11.14.02.23.09.23.14,0,.14-.07.21-.12.33-.07.19-.09.49-.09,1.3v.05h.77c1.42,0,1.85-.03,1.96-.03s.12.02.12.14v.61c0,.12-.02.14-.12.14s-.54-.04-1.96-.04h-.77v1.16h.47c1.28,0,1.66-.04,1.77-.04.12,0,.14.02.14.12v.6c0,.12-.02.14-.14.14-.1,0-.49-.04-1.77-.04h-.47v1.23h.84c1.51,0,1.98-.04,2.07-.04.12,0,.14.02.14.14v.61Zm-2.59,1.19c1.24,0,1.65-.04,1.73-.04.12,0,.14.02.14.14,0,.09-.04.7-.04,2.05v2.14c0,.89.02,1.84.02,2.21,0,.46-.07.84-.37,1.07-.31.21-.56.3-1.68.3-.35,0-.37.02-.46-.35-.05-.23-.16-.46-.26-.65.38.04.7.07,1.12.07.58,0,.68-.17.68-.65v-1.31h-3.62v.96c0,1.31.02,1.87.02,1.96,0,.1,0,.12-.12.12h-.74c-.12,0-.14-.02-.14-.12s.03-.58.03-1.93v-3.9c0-1.35-.03-1.86-.03-1.96,0-.12.02-.14.14-.14.11,0,.51.04,1.73.04h1.84Zm.89.84h-3.62v1.24h3.62v-1.24Zm0,2.07h-3.62v1.24h3.62v-1.24Zm10.17-2.49c0,.12-.02.14-.12.14-.07,0-.38-.02-1.14-.04v1.71c0,1.28.04,1.71.04,1.82s-.02.12-.14.12h-.7c-.12,0-.14-.02-.14-.12v-.68h-2.08v.37c0,.75.02,1.77.02,2.38,0,.79-.09,1.12-.44,1.4-.26.23-.79.32-1.93.3-.35,0-.35.02-.44-.35-.07-.26-.17-.49-.33-.7.37.05.75.07,1.28.07.65,0,.86-.14.86-.84v-2.62h-.44c-1.47,0-1.94.04-2.03.04-.12,0-.14-.02-.14-.14v-.65c0-.12.02-.14.14-.14.09,0,.56.04,2.03.04h.44v-2h-.8c-1.61,0-2.15.04-2.24.04-.12,0-.14-.02-.14-.14v-.67c0-.12.02-.14.14-.14.09,0,.63.04,2.24.04h.8v-1.93h-.28c-1.38,0-1.79.04-1.87.04-.12,0-.14-.02-.14-.12v-.67c0-.12.02-.14.14-.14.09,0,.49.04,1.87.04h.65c.46-.63.86-1.35,1.19-2.1h-2.26c-.51.79-1.07,1.49-1.87,2.28-.12.12-.18.17-.25.17-.05,0-.11-.05-.23-.17-.17-.17-.33-.28-.54-.38,1.19-1.01,2-2.1,2.61-3.34.21-.44.35-.82.38-1.1.37.09.67.16.95.26.12.03.19.09.19.17s-.05.16-.16.25c-.09.07-.21.28-.4.67l-.21.38h1.98c.18,0,.16-.02.23-.05.07-.04.11-.05.16-.05.12,0,.23.05.49.28.26.23.32.33.32.42,0,.11-.05.19-.17.26-.12.07-.25.25-.33.4-.3.6-.65,1.14-1,1.66h.54c1.38,0,1.84-.04,1.93-.04.12,0,.14.02.14.14,0,.09-.04.52-.04,1.82v.86c.75,0,1.07-.04,1.14-.04.11,0,.12.02.12.14v.67Zm-2.21-2.7h-2.08v1.93h2.08v-1.93Zm0,2.8h-2.08v2h2.08v-2Z" style="fill:gray;"/><path d="m87.97,305.88c1.75,0,2.34-.04,2.45-.04.12,0,.14.02.14.14,0,.09-.04,1.19-.04,3.55v6.69c0,1.4.02,2.24.02,2.8,0,.51-.09.88-.42,1.15-.26.21-.75.33-2.1.33-.33,0-.35,0-.42-.33-.07-.28-.21-.61-.35-.82.51.05,1.07.07,1.56.07.46,0,.65-.19.65-.7v-11.87h-11.5v10.41c0,2.19.04,3.17.04,3.26,0,.12-.02.14-.14.14h-.86c-.12,0-.14-.02-.14-.14,0-.11.04-1.1.04-3.5v-7.51c0-2.42-.04-3.45-.04-3.54,0-.12.02-.14.14-.14.1,0,.7.04,2.45.04h8.52Zm.61,5.74c0,.12-.02.14-.16.14-.09,0-.65-.04-2.31-.04h-1.98v4.9h2.4v-1.49c0-.82,0-1.29-.12-1.77.42.02.84.05,1.08.09.12.02.19.07.19.16s-.02.16-.07.25c-.07.12-.1.33-.1,1.29v1.73c0,.82.04,1.17.04,1.26,0,.12-.02.14-.14.14h-.73c-.12,0-.14-.02-.14-.14v-.65h-5.65v1.08c0,.12-.02.14-.14.14h-.74c-.12,0-.14-.02-.14-.14,0-.1.04-.45.04-1.36v-2.03c0-.93-.02-1.33-.11-1.79.37.02.79.05,1.07.1.14.02.21.07.21.12,0,.12-.05.21-.1.33-.07.16-.09.4-.09,1.23v1.43h2.28v-4.9h-1.84c-1.7,0-2.24.04-2.34.04-.12,0-.14-.02-.14-.14v-.68c0-.12.02-.14.14-.14.1,0,.65.04,2.34.04h2.98c.53-.91.89-1.63,1.23-2.4.1-.25.19-.53.28-.89.33.1.68.25.96.4.12.07.17.11.17.21,0,.09-.09.16-.16.21-.09.07-.17.17-.3.42-.28.56-.68,1.31-1.14,2.05h.77c1.66,0,2.22-.04,2.31-.04.14,0,.16.02.16.14v.68Zm-7.46-3.92c.17-.09.19-.1.28,0,.46.61.84,1.29,1.17,2.01.05.12.02.16-.19.26l-.42.21c-.23.12-.26.12-.32,0-.3-.7-.63-1.37-1.08-2.01-.07-.11-.05-.14.14-.25l.42-.23Z" style="fill:gray;"/><path d="m108.87,309.07c0,.12-.02.14-.14.14-.09,0-.63-.03-2.28-.03h-6.23c-.04.98-.1,1.85-.21,2.68h4.41c1.49,0,1.96-.04,2.05-.04.12,0,.17.05.16.19-.04.4-.05.82-.09,1.22-.17,2.61-.38,4.27-.63,5.29-.33,1.35-.91,1.8-2.17,1.8-.33,0-1.03-.04-1.68-.11q-.33-.04-.37-.4c-.04-.3-.12-.63-.25-.82,1.01.17,1.82.21,2.22.21.67,0,.98-.37,1.16-1.07.26-1.03.47-2.94.59-5.25h-5.55c-.63,3.52-2.14,5.65-5.37,7.47-.12.07-.21.1-.26.1-.11,0-.16-.09-.28-.28-.16-.23-.38-.4-.63-.56,4.2-2.07,5.65-4.67,5.74-10.45h-3.08c-1.63,0-2.19.03-2.28.03-.12,0-.14-.02-.14-.14v-.8c0-.12.02-.14.14-.14.09,0,.65.04,2.28.04h4.52v-1.35c0-.89-.02-1.38-.12-1.8.42,0,.88.04,1.21.09.14.02.21.07.21.14,0,.12-.05.21-.1.33-.07.17-.09.44-.09,1.22v1.37h4.85c1.65,0,2.19-.04,2.28-.04.12,0,.14.02.14.14v.8Z" style="fill:gray;"/><path d="m126.28,306.72c0,.11-.02.12-.14.12-.11,0-.65-.04-2.29-.04h-4.85c-.26.88-.63,1.8-1.08,2.66h5.01c1.75,0,2.34-.04,2.45-.04.12,0,.14.02.14.14,0,.1-.03.77-.03,3.2v3.05c0,3.87.03,4.5.03,4.6,0,.12-.02.14-.14.14h-.82c-.12,0-.14-.02-.14-.14v-.86h-11.5v.88c0,.12-.02.14-.14.14h-.8c-.12,0-.14-.02-.14-.14,0-.1.04-.74.04-4.62v-2.73c0-2.75-.04-3.41-.04-3.52,0-.12.02-.14.14-.14.1,0,.7.04,2.45.04h2.38c.42-.79.81-1.79,1.07-2.66h-4.38c-1.65,0-2.21.04-2.29.04-.12,0-.14-.02-.14-.12v-.79c0-.12.02-.14.14-.14.09,0,.65.03,2.29.03h10.36c1.64,0,2.19-.03,2.29-.03.12,0,.14.02.14.14v.79Zm-10.43,3.68h-2.94v8.23h2.94v-8.23Zm4.58,0h-3.59v2.1h3.59v-2.1Zm0,2.98h-3.59v2.15h3.59v-2.15Zm0,3.03h-3.59v2.22h3.59v-2.22Zm3.97-6h-2.96v8.23h2.96v-8.23Z" style="fill:gray;"/><polygon points="9.26 313.77 20.86 307.08 20.86 311.16 34.4 311.16 34.4 316.39 20.86 316.39 20.86 320.47 9.26 313.77" style="fill:gray;"/><line x1="7.5" y1="350.26" x2="489.88" y2="350.26" style="fill:none; stroke:#e6e6e6; stroke-linecap:round; stroke-miterlimit:10; stroke-width:15px;"/><path d="m154.02,354.08c0,.36.01.73.01,1.03,0,.35-.05.54-.26.72-.19.18-.46.25-1.56.25-.24,0-.25,0-.3-.24-.05-.18-.12-.36-.23-.49.4.02.79.04,1.08.04.37,0,.52-.12.52-.5v-5.59h-7.4v5.17c0,1.09.02,1.56.02,1.62,0,.08-.01.1-.1.1h-.59c-.08,0-.1-.01-.1-.1,0-.07.02-.49.02-1.63v-4.07c0-1.14-.02-1.6-.02-1.67,0-.08.01-.1.1-.1.06,0,.49.02,1.7.02h2.15v-1.27h-3.09c-1.13,0-1.51.02-1.57.02-.08,0-.1-.01-.1-.1v-.52c0-.08.01-.1.1-.1.06,0,.44.02,1.57.02h3.09v-.05c0-.71-.01-.9-.1-1.31.3.01.59.04.82.07.1.01.16.06.16.11,0,.08-.04.14-.07.24-.04.12-.07.29-.07.89v.05h3.35c1.13,0,1.51-.02,1.57-.02.08,0,.1.01.1.1v.52c0,.08-.01.1-.1.1-.06,0-.44-.02-1.57-.02h-3.35v1.27h2.43c1.22,0,1.65-.02,1.71-.02.08,0,.1.01.1.1,0,.07-.02.59-.02,1.73v3.63Zm-4.25.44c0,.83.02,1.16.02,1.24,0,.08-.01.1-.1.1h-.54c-.08,0-.1-.01-.1-.1,0-.07.02-.41.02-1.24v-.85h-.9c-1.1,0-1.46.02-1.52.02-.08,0-.1-.01-.1-.1v-.47c0-.08.01-.1.1-.1.06,0,.42.02,1.52.02h.9v-1.25h-.72c-1.08,0-1.45.02-1.51.02-.08,0-.1-.01-.1-.1v-.46c0-.08.01-.1.1-.1.06,0,.4.02,1.37.02h1.74c.23-.38.46-.84.6-1.22.06-.17.11-.35.12-.47.25.05.41.08.61.16.08.02.14.07.14.13,0,.05-.04.1-.08.13-.07.05-.12.14-.17.24-.14.3-.35.68-.56,1.03h.17c1.02,0,1.37-.02,1.43-.02.1,0,.11.01.11.1v.46c0,.08-.01.1-.11.1-.06,0-.43-.02-1.51-.02h-.94v1.25h1.15c1.1,0,1.46-.02,1.54-.02.08,0,.1.01.1.1v.47c0,.08-.01.1-.1.1-.07,0-.43-.02-1.54-.02h-1.15v.85Zm-1.88-4.94c.11-.05.13-.05.18.02.24.31.47.7.62,1.08.02.07.01.1-.11.16l-.32.14c-.14.06-.16.05-.19-.05-.12-.35-.31-.73-.58-1.07-.05-.07-.04-.11.07-.16l.32-.13Z" style="fill:gray;"/><path d="m161.18,354.26c0,.08-.01.1-.1.1-.06,0-.4-.02-1.42-.02h-.59v.55c0,.92.02,1.32.02,1.38,0,.07-.01.08-.1.08h-.53c-.08,0-.1-.01-.1-.08s.02-.46.02-1.38v-.55h-.68c-1.03,0-1.38.02-1.44.02-.08,0-.08-.01-.08-.1v-.47c0-.07,0-.08.08-.08.06,0,.41.02,1.44.02h.68v-1.12h-.26c-.86,0-1.15.02-1.22.02-.08,0-.1-.01-.1-.1,0-.06.02-.34.02-1.1v-1.55c0-.77-.02-1.02-.02-1.09,0-.08.01-.1.1-.1.07,0,.35.02,1.22.02h.26v-1.16h-.56c-1.02,0-1.34.02-1.42.02-.08,0-.1-.01-.1-.1v-.46c0-.08.01-.1.1-.1.07,0,.4.02,1.42.02h.56v-.11c0-.76-.04-1.03-.08-1.34.3.01.49.02.74.06.08.01.13.05.13.11,0,.05-.02.11-.05.19-.05.13-.07.31-.07.84v.25h.56c1.02,0,1.34-.02,1.4-.02.1,0,.11.01.11.1v.46c0,.08-.01.1-.11.1-.06,0-.38-.02-1.4-.02h-.56v1.16h.29c.88,0,1.16-.02,1.24-.02s.08.01.08.1c0,.06-.01.32-.01,1.09v1.55c0,.77.01,1.04.01,1.1,0,.08-.01.1-.08.1s-.36-.02-1.24-.02h-.29v1.12h.59c1.02,0,1.36-.02,1.42-.02.08,0,.1.01.1.08v.47Zm-1.14-4.98h-2.54v1.08h2.54v-1.08Zm0,1.62h-2.54v1.16h2.54v-1.16Zm4.17-4.92c.72,1.21,1.7,2.13,3.02,2.85-.14.13-.24.26-.35.43-.07.11-.1.16-.14.16-.04,0-.08-.02-.17-.07-1.29-.88-2.03-1.69-2.7-2.79-.66,1.15-1.49,2.15-2.43,2.9-.08.06-.13.1-.17.1-.05,0-.08-.05-.14-.16-.1-.16-.2-.28-.35-.38,1.17-.82,2.03-1.86,2.52-2.79.12-.24.2-.46.24-.68.26.02.46.06.68.11.12.04.16.07.16.12,0,.06-.02.1-.08.14l-.08.07Zm2.53,6.5c0,.08-.01.1-.1.1-.06,0-.42-.02-1.5-.02h-.88v1.94c0,1.25.02,1.69.02,1.75,0,.08-.01.1-.1.1h-.56c-.08,0-.1-.01-.1-.1,0-.06.02-.5.02-1.75v-1.94h-.68c-1.08,0-1.43.02-1.49.02-.1,0-.11-.01-.11-.1v-.49c0-.08.01-.1.11-.1.06,0,.41.02,1.49.02h.68v-1.98h-.3c-.91,0-1.2.02-1.26.02-.08,0-.1-.01-.1-.1v-.49c0-.08.01-.1.1-.1.06,0,.35.02,1.26.02h1.45c.91,0,1.19-.02,1.25-.02.1,0,.11.01.11.1v.49c0,.08-.01.1-.11.1-.06,0-.34-.02-1.25-.02h-.44v1.98h.88c1.08,0,1.44-.02,1.5-.02.08,0,.1.01.1.1v.49Z" style="fill:gray;"/><path d="m171.59,349.38c.11-.05.14-.04.18.04.37.7.59,1.27.79,1.94.02.07.01.12-.12.16l-.28.08c-.16.05-.18.04-.22-.07l-.11-.38c-.37.05-.72.08-1.07.12v3.21c0,1.31.02,1.68.02,1.74,0,.08-.01.1-.1.1h-.54c-.08,0-.1-.01-.1-.1,0-.06.02-.43.02-1.74v-3.15c-.42.04-.83.07-1.22.1-.26.02-.36.06-.46.1-.06.02-.1.05-.14.05-.06,0-.11-.06-.12-.14-.04-.18-.06-.37-.1-.66.26.02.47.04.77.02h.12c.31-.41.61-.82.89-1.22-.55-.68-1.13-1.31-1.75-1.88-.07-.07-.06-.1.04-.22l.19-.25c.08-.11.12-.11.18-.05.17.16.32.3.47.46.3-.46.56-.91.8-1.39.19-.4.26-.58.31-.77.23.08.46.19.64.3.08.05.12.08.12.14s-.04.1-.1.13c-.08.06-.13.12-.2.25-.42.7-.73,1.2-1.13,1.78.28.29.54.59.82.91.32-.49.61-1,.91-1.51.17-.3.28-.53.35-.79.23.1.47.2.65.3.07.04.11.08.11.14,0,.07-.04.11-.11.16-.12.1-.22.23-.41.54-.67,1.07-1.34,2.06-2,2.94.62-.02,1.26-.07,1.96-.13-.12-.34-.25-.65-.43-.98-.04-.07-.02-.1.12-.16l.24-.1Zm-2.18,3.27c-.04.07-.07.24-.11.46-.1.66-.25,1.34-.53,2.16-.04.13-.06.18-.11.18-.04,0-.08-.04-.18-.1-.1-.07-.3-.16-.41-.18.35-.8.5-1.52.59-2.17.04-.3.05-.5.04-.73.25.04.49.08.6.12.11.04.17.07.17.12,0,.06-.02.08-.06.14Zm2.24-.48c.12-.04.13-.04.17.05.22.52.37,1.21.49,1.83.01.08.01.1-.16.16l-.25.1c-.17.06-.18.06-.19-.05-.08-.66-.24-1.33-.43-1.86-.02-.08-.02-.11.13-.16l.24-.07Zm2.29-.46c.12,0,.2-.02.23-.04.05-.02.07-.04.1-.04.07,0,.12.02.3.2.19.17.23.24.23.3,0,.07-.02.11-.1.16-.07.05-.13.12-.22.32-.35,1-.94,1.96-2.08,2.89-.08.07-.13.11-.18.11s-.1-.06-.18-.17c-.1-.12-.22-.22-.35-.29,1.2-.79,1.91-1.86,2.25-2.84h-.61c-.5,0-.76.02-.82.02-.08,0-.1-.01-.1-.1v-.47c0-.08.01-.1.1-.1.06,0,.29.02.88.02h.54Zm1.82-1.09c.25.74.53,1.4.88,1.99.43-.38.79-.77,1.07-1.1.12-.16.23-.3.31-.47.19.11.36.23.49.35.07.06.12.1.12.17s-.06.11-.13.14c-.13.07-.24.16-.46.4-.29.31-.64.64-1.08,1.01.5.7,1.14,1.3,2.01,1.86-.14.11-.25.25-.35.42-.07.12-.11.17-.16.17s-.1-.04-.17-.1c-1.21-1.02-1.95-1.97-2.59-3.65.04,1.32.08,2.21.08,3.35,0,.35-.07.61-.37.8-.22.12-.44.17-1.19.16-.23,0-.22.01-.29-.24-.05-.18-.12-.32-.23-.46.3.02.71.04.86.04.42,0,.53-.12.53-.44v-4.39h-.61c-1.02,0-1.37.02-1.44.02-.08,0-.1-.01-.1-.1,0-.07.02-.34.02-1.12v-1.59c0-.78-.02-1.06-.02-1.12,0-.08.01-.1.1-.1.07,0,.42.02,1.44.02h.3c.1-.23.17-.42.23-.62.07-.24.12-.41.14-.68.24.04.49.08.67.12.12.02.16.07.16.13s-.04.1-.1.16c-.07.07-.12.14-.16.24-.1.26-.18.47-.26.66h1c1.02,0,1.35-.02,1.43-.02.08,0,.1.01.1.1,0,.06-.02.34-.02,1.12v1.59c0,.78.02,1.06.02,1.12,0,.08-.01.1-.1.1-.07,0-.41-.02-1.43-.02h-.72Zm1.54-3.41h-3.63v1.09h3.63v-1.09Zm0,1.66h-3.63v1.18h3.63v-1.18Z" style="fill:gray;"/><path d="m124.51,98.11c.52-.02.68-.05.88-.19.12-.09.26-.05.46.07.21.14.49.37.7.58s.17.39.03.53c-.17.16-.31.32-.46.61-1.07,2.28-2.19,4.1-3.38,5.46-1.58,1.8-3.45,3.38-5.46,4.53-.14.09-.26.05-.38-.05-.25-.23-.58-.38-.98-.51,2.57-1.4,4.13-2.75,5.79-4.64,1.31-1.52,2.29-3.06,3.29-5.36l-5.04.14c-1.29,1.61-2.22,2.7-3.47,3.75-.19.18-.35.18-.54.04-.19-.14-.53-.3-.89-.37,2.21-1.77,3.5-3.34,4.57-5.09.56-.93.79-1.49.88-2.19.52.16,1.05.4,1.31.61.17.12.19.33,0,.46-.19.12-.39.37-.53.59-.26.42-.46.75-.7,1.1l3.92-.07Zm1.94-2.43c.07-.05.12-.05.19,0,.7.49,1.47,1.35,1.98,2.12.05.07.04.14-.04.19l-.51.42c-.09.07-.18.05-.23-.04-.51-.86-1.24-1.68-2.03-2.24l.63-.46Zm1.47-1.16c.07-.05.12-.07.19-.02.7.54,1.49,1.31,2,2.05.05.09.03.14-.05.21l-.47.42c-.07.07-.14.07-.21-.03-.44-.72-1.19-1.58-2.01-2.19l.56-.44Z" style="fill:gray;"/><path d="m134.93,100.97c-.98,0-1.75.02-2.47.09-.16.02-.23-.05-.26-.23-.05-.28-.1-.68-.12-1.1.89.09,1.8.12,2.91.12h6.27c.44,0,.68-.04.86-.12.21-.1.3-.12.47.02.23.17.49.42.65.63.17.23.16.33-.04.47-.17.12-.26.3-.4.6-1.52,3.45-3.71,6-7.39,7.89-.21.11-.33.11-.47-.04-.26-.23-.63-.42-.98-.54,3.64-1.75,6.3-4.34,7.61-7.79h-6.63Zm1.42-3.64c-.93,0-1.71.02-2.49.07-.16.02-.19-.05-.21-.25-.04-.26-.09-.74-.09-1.05,1.02.11,1.68.12,2.85.12h2.71c1.1,0,1.87-.04,2.71-.09.16,0,.19.05.19.21.02.23.02.54,0,.79,0,.19-.03.25-.23.23-.8,0-1.54-.04-2.61-.04h-2.85Z" style="fill:gray;"/><path d="m147.47,96.92c.12-.12.19-.14.33,0,.93.75,1.87,1.71,2.64,2.87.09.14.09.23-.04.35-.19.19-.51.47-.73.61-.11.07-.23.07-.32-.09-.74-1.21-1.59-2.21-2.66-3.12.28-.23.63-.51.77-.63Zm10.78.33c.21.14.16.28,0,.49-.17.25-.3.46-.52,1.05-.95,2.45-2.12,4.6-3.29,6.06-1.22,1.59-2.91,3.19-4.41,4.13-.17.1-.32.12-.47-.02-.21-.17-.58-.35-1.01-.46,2.01-1.24,3.61-2.75,4.88-4.34,1.19-1.5,2.29-3.62,2.99-5.67.21-.65.35-1.17.38-1.94.56.19,1.12.47,1.45.7Z" style="fill:gray;"/><path d="m163.83,103.08c-1.52,0-2.26.17-2.36.17-.16,0-.25-.07-.3-.25-.07-.3-.14-.86-.17-1.33,1.07.14,2.42.16,3.87.16h5.37c1.21,0,2.5-.02,3.83-.05.21-.02.26.02.26.21.02.26.02.63,0,.91,0,.19-.05.23-.26.21-1.31-.04-2.61-.04-3.78-.04h-6.46Z" style="fill:gray;"/><path d="m180.91,100.32c2.01.58,3.96,1.4,5.71,2.43.14.07.17.16.12.28-.12.32-.28.63-.42.86-.11.14-.18.17-.33.07-1.63-1.07-3.5-1.89-5.09-2.34v4.06c0,1.07.04,2.43.05,3.57.02.17-.04.23-.23.23-.26.02-.61.02-.89,0-.19,0-.25-.05-.25-.25.05-1.12.07-2.49.07-3.55v-7.79c0-1.31-.07-2.21-.19-2.8.61.05,1.14.12,1.45.23.28.07.21.26.12.53-.1.3-.12.82-.12,1.94v2.54Zm4.34-4.57c.07-.05.12-.05.19,0,.7.49,1.47,1.35,1.98,2.12.05.07.03.14-.04.19l-.51.42c-.09.07-.17.05-.23-.04-.51-.86-1.24-1.68-2.03-2.24l.63-.46Zm1.47-1.16c.07-.05.12-.07.19-.02.7.54,1.49,1.31,2,2.05.05.09.04.14-.05.21l-.47.42c-.07.07-.14.07-.21-.04-.44-.72-1.19-1.58-2.01-2.19l.56-.44Z" style="fill:gray;"/><path d="m206.79,107.25c0,.14-.02.16-.16.16-.09,0-.63-.04-2.28-.04h-4.83v.79c0,1.43.04,1.92.04,2.01,0,.12-.02.12-.14.12h-.84c-.12,0-.14,0-.14-.12,0-.11.04-.58.04-2.01v-.79h-4.62c-1.65,0-2.19.04-2.28.04-.12,0-.14-.02-.14-.16v-.7c0-.14.02-.16.14-.16.09,0,.63.04,2.28.04h4.62v-1.73h-2c-1.73,0-2.33.04-2.43.04-.12,0-.14-.02-.14-.14,0-.1.04-.51.04-1.63v-2.33c0-1.12-.04-1.52-.04-1.63,0-.12.02-.14.14-.14.1,0,.7.04,2.43.04h5.25c1.75,0,2.35-.04,2.43-.04.12,0,.14.02.14.14,0,.09-.04.51-.04,1.63v2.33c0,1.12.04,1.52.04,1.63,0,.12-.02.14-.14.14-.09,0-.68-.04-2.43-.04h-2.21v1.73h4.83c1.64,0,2.19-.04,2.28-.04.14,0,.16.02.16.16v.7Zm-.05-10.36c0,.12-.02.14-.14.14-.09,0-.65-.04-2.29-.04h-2.52c0,.82.04,1.14.04,1.21,0,.12-.02.14-.14.14h-.77c-.12,0-.14-.02-.14-.14,0-.07.04-.38.04-1.21h-3.57c0,.82.03,1.14.03,1.21,0,.12-.02.14-.14.14h-.77c-.12,0-.14-.02-.14-.14,0-.07.04-.38.04-1.21h-2.33c-1.64,0-2.19.04-2.29.04-.12,0-.14-.02-.14-.14v-.74c0-.12.02-.14.14-.14.1,0,.65.04,2.29.04h2.33c-.02-.63-.04-1.14-.11-1.52.4.02.79.05,1.09.11.1.02.17.07.17.14,0,.09-.04.14-.07.23-.07.12-.1.46-.1,1.05h3.57c-.02-.63-.04-1.14-.11-1.52.4.02.79.05,1.08.11.11.02.17.07.17.14,0,.09-.03.14-.07.23-.07.12-.11.46-.11,1.05h2.52c1.65,0,2.21-.04,2.29-.04.12,0,.14.02.14.14v.74Zm-3.5,2.91h-8.26v1.54h8.26v-1.54Zm0,2.4h-8.26v1.63h8.26v-1.63Z" style="fill:gray;"/><path d="m213.1,104.47c.65,1.28,1.54,2.43,2.77,3.38-.19.17-.35.35-.49.54-.09.12-.14.18-.19.18s-.12-.05-.25-.18c-.91-.88-1.56-1.75-2.08-2.83-.07.28-.16.54-.25.77-.42,1.14-1.29,2.45-2.66,3.54-.12.09-.19.14-.26.14s-.14-.07-.28-.23c-.19-.23-.33-.33-.51-.44,1.61-1.08,2.38-2.24,2.87-3.5.14-.37.26-.82.35-1.37h-.94c-1.42,0-1.86.04-1.94.04-.14,0-.16-.02-.16-.14v-.7c0-.12.02-.14.16-.14.09,0,.53.04,1.94.04h1.07c.07-.77.1-1.68.12-2.71h-1.22c-.32.53-.68,1.05-1.19,1.61-.12.14-.17.19-.25.19-.05,0-.12-.05-.25-.17-.17-.17-.37-.28-.52-.35,1.19-1.07,1.8-2.4,2.15-3.33.11-.28.21-.72.23-.96.37.09.67.17.93.26.1.04.17.09.17.18s-.07.16-.14.23c-.12.12-.17.25-.25.44-.14.35-.28.68-.44,1.01h2.03c1.16,0,1.49-.04,1.59-.04.12,0,.14.02.14.14v.68c0,.12-.02.14-.14.14-.11,0-.44-.04-1.59-.04h-.3c-.02,1.03-.05,1.93-.14,2.71h.44c1.4,0,1.84-.04,1.94-.04s.12.02.12.14v.7c0,.12-.02.14-.12.14s-.54-.04-1.94-.04h-.53Zm11.08-7.51c0,.12-.02.14-.14.14-.1,0-.65-.04-2.29-.04h-2.42c0,.54.04.75.04.82,0,.12-.02.14-.14.14h-.77c-.12,0-.14-.02-.14-.14,0-.07.02-.28.04-.82h-3.68c0,.86.04,1.17.04,1.26,0,.12-.02.14-.14.14h-.77c-.12,0-.14-.02-.14-.14,0-.1.03-.4.03-1.26h-2.34c-1.65,0-2.19.04-2.28.04-.12,0-.14-.02-.14-.14v-.72c0-.12.02-.14.14-.14.09,0,.63.04,2.28.04h2.34v-.16c0-.44,0-1-.1-1.47.44.02.79.07,1.08.11.11.02.19.09.19.16s-.02.14-.09.25c-.07.12-.11.46-.11.93v.19h3.68v-.17c0-.44,0-1-.11-1.45.44.02.79.05,1.08.11.11.02.17.07.17.14,0,.09-.02.14-.07.25-.07.12-.11.44-.11.93v.21h2.42c1.65,0,2.19-.04,2.29-.04s.14.02.14.14v.72Zm.02,12.13c0,.12-.02.14-.14.14-.1,0-.63-.04-2.26-.04h-4.22v.93c0,.12-.02.14-.14.14h-.7c-.12,0-.14-.02-.14-.14,0-.09.04-.44.04-1.66v-6.42c-.26.37-.54.75-.86,1.14-.1.12-.16.17-.23.17-.05,0-.1-.05-.23-.17-.16-.17-.3-.26-.49-.35,1.1-1.03,1.96-2.55,2.38-3.64.16-.47.25-.79.3-1.17.37.09.68.17.91.25.14.05.21.09.21.19,0,.09-.05.17-.14.26-.12.12-.23.31-.44.79-.14.28-.26.56-.4.82h2.43c.26-.49.46-.93.61-1.33.11-.26.17-.51.21-.86.4.09.68.16.95.25.12.04.17.11.17.19s-.05.16-.14.23c-.11.09-.21.23-.33.51-.16.33-.3.65-.49,1.02h.84c1.38,0,1.8-.04,1.91-.04.12,0,.14.02.14.14v.61c0,.12-.02.14-.14.14-.1,0-.52-.04-1.91-.04h-.91v1.79h.31c1.51,0,2-.04,2.08-.04.14,0,.16.02.16.14v.6c0,.12-.02.14-.16.14-.09,0-.58-.04-2.08-.04h-.31v1.8h.3c1.52,0,2.01-.04,2.1-.04.14,0,.16.02.16.14v.58c0,.12-.02.14-.16.14-.09,0-.58-.02-2.1-.02h-.3v2.01h.8c1.63,0,2.15-.04,2.26-.04.12,0,.14.02.14.14v.63Zm-4.15-7.95h-2.47v1.79h2.47v-1.79Zm0,2.59h-2.47v1.8h2.47v-1.8Zm0,2.61h-2.47v2.01h2.47v-2.01Z" style="fill:gray;"/><path d="m197.58,146.56c0-.72,0-1.47.02-2.21-.67.79-1.47,1.5-2.52,2.29-.12.09-.19.14-.25.14-.07,0-.12-.07-.21-.19-.16-.26-.33-.46-.51-.58,1.91-1.19,3.48-2.98,4.39-4.64.14-.26.26-.56.33-.84.39.14.67.26.93.4.12.07.19.11.19.21,0,.09-.05.14-.16.21-.1.07-.25.23-.4.49-.25.4-.51.82-.75,1.19v5.86c0,1.47.04,2.08.04,2.17,0,.12-.02.14-.16.14h-.84c-.12,0-.14-.02-.14-.14,0-.09.04-.7.04-2.17v-2.35Zm11.87-7.98c0,.14-.02.16-.14.16-.09,0-.63-.04-2.28-.04h-2.54c0,.86.04,1.23.04,1.31,0,.12-.02.14-.14.14h-.79c-.12,0-.14-.02-.14-.14,0-.09.04-.46.04-1.31h-3.66c0,.86.04,1.23.04,1.29,0,.14-.02.16-.14.16h-.8c-.1,0-.12-.02-.12-.16,0-.07.03-.44.03-1.29h-2.21c-1.63,0-2.19.04-2.28.04-.12,0-.14-.02-.14-.16v-.74c0-.12.02-.14.14-.14.09,0,.65.04,2.28.04h2.21v-.14c0-.75-.02-1.42-.12-1.89.44.02.8.05,1.1.1.12.02.19.07.19.16,0,.07-.02.14-.07.23-.07.14-.11.58-.11,1.37v.18h3.66v-.16c0-.75,0-1.42-.11-1.89.44.02.79.05,1.08.1.12.02.21.07.21.16s-.03.14-.09.24c-.07.12-.11.56-.11,1.33v.21h2.54c1.65,0,2.19-.04,2.28-.04.12,0,.14.02.14.14v.74Zm-6.35,10.41c0,.61.14.79.53.88.4.09,1.14.11,1.8.11,1.07,0,1.87-.09,2.24-.3.47-.3.59-1.03.65-2.15.21.17.46.31.72.42.28.11.3.14.28.44-.14,1.12-.37,1.73-.91,2.08-.53.37-1.45.51-2.99.51-1.01,0-1.89-.03-2.43-.19-.61-.17-.93-.44-.93-1.56v-6.84c0-.81-.02-1.33-.1-1.77.44.02.77.05,1.14.1.16.02.23.09.23.16,0,.12-.05.19-.11.31-.07.16-.11.32-.11,1.24v2.75c1.37-.72,2.61-1.54,3.4-2.26.39-.35.6-.61.74-.84.38.25.63.42.86.63.09.09.12.12.14.19,0,.11-.05.18-.19.25-.19.09-.35.18-.84.58-1.05.86-2.52,1.77-4.1,2.54v2.73Z" style="fill:gray;"/><path d="m222.64,146.35c1.77,0,2.36-.04,2.45-.04.12,0,.17.05.16.17-.05.54-.1,1.21-.17,1.66-.12,1.08-.26,1.65-.54,2.17-.28.53-.91.74-1.54.74-.58,0-1.08,0-1.79-.07-.31-.02-.33-.02-.4-.38-.05-.25-.12-.49-.25-.67.82.12,1.65.17,2.24.17.42,0,.67-.1.82-.42.23-.42.4-1.5.46-2.43h-5.36c-.47,1.16-1.22,1.96-2.31,2.62-1.07.67-2.45,1.07-3.99,1.33-.33.05-.37.05-.49-.28-.11-.26-.26-.49-.44-.65,1.77-.16,3.29-.58,4.39-1.26.79-.49,1.37-1.01,1.73-1.77h-2.89c-1.77,0-2.34.04-2.43.04-.12,0-.14-.02-.14-.14v-.7c0-.12.02-.14.14-.14.09,0,.67.04,2.43.04h3.2c.11-.49.19-.88.16-1.33h-2.43c-1.77,0-2.4.04-2.49.04-.14,0-.16-.02-.16-.14,0-.11.04-.46.04-1.54v-2.03c0-1.08-.04-1.45-.04-1.56,0-.12.02-.14.16-.14.09,0,.72.04,2.49.04h2.57c-.61-.44-1.23-.82-1.98-1.24-.12-.07-.11-.12.05-.26l.35-.32c.14-.12.19-.12.3-.07.6.33,1.17.7,1.77,1.12,1.19-.52,2.24-1.1,3.1-1.68h-5.85c-1.73,0-2.31.04-2.4.04-.12,0-.14-.02-.14-.14v-.7c0-.12.02-.14.14-.14.09,0,.67.04,2.4.04h6.41c.21,0,.3-.02.37-.05.07-.04.14-.05.23-.05.07,0,.21.09.44.32.26.26.37.38.37.53,0,.1-.07.17-.21.23-.16.07-.38.21-.7.4-.84.52-2.07,1.21-3.41,1.77l.3.23h2.28c1.79,0,2.4-.04,2.5-.04s.12.02.12.14c0,.09-.04.47-.04,1.56v2.03c0,1.09.04,1.45.04,1.54,0,.12-.02.14-.12.14s-.72-.04-2.5-.04h-3.89c.33.04.67.07.93.12.19.04.32.07.32.18s-.09.23-.16.33c-.1.14-.16.4-.23.7h3.64Zm-4.43-5.83h-4.15v1.38h4.15v-1.38Zm0,2.19h-4.15v1.47h4.15v-1.47Zm5.39-2.19h-4.39v1.38h4.39v-1.38Zm0,2.19h-4.39v1.47h4.39v-1.47Z" style="fill:gray;"/><path d="m352.24,77.99c0,.14-.02.16-.16.16-.09,0-.63-.04-2.28-.04h-4.83v.79c0,1.43.04,1.92.04,2.01,0,.12-.02.12-.14.12h-.84c-.12,0-.14,0-.14-.12,0-.11.03-.58.03-2.01v-.79h-4.62c-1.65,0-2.19.04-2.28.04-.12,0-.14-.02-.14-.16v-.7c0-.14.02-.16.14-.16.09,0,.63.04,2.28.04h4.62v-1.73h-1.99c-1.73,0-2.33.04-2.43.04-.12,0-.14-.02-.14-.14,0-.1.04-.51.04-1.63v-2.33c0-1.12-.04-1.52-.04-1.63,0-.12.02-.14.14-.14.11,0,.7.04,2.43.04h5.25c1.75,0,2.35-.04,2.43-.04.12,0,.14.02.14.14,0,.09-.03.51-.03,1.63v2.33c0,1.12.03,1.52.03,1.63,0,.12-.02.14-.14.14-.09,0-.68-.04-2.43-.04h-2.21v1.73h4.83c1.65,0,2.19-.04,2.28-.04.14,0,.16.02.16.16v.7Zm-.05-10.36c0,.12-.02.14-.14.14-.09,0-.65-.04-2.29-.04h-2.52c0,.82.04,1.14.04,1.21,0,.12-.02.14-.14.14h-.77c-.12,0-.14-.02-.14-.14,0-.07.04-.38.04-1.21h-3.57c0,.82.04,1.14.04,1.21,0,.12-.02.14-.14.14h-.77c-.12,0-.14-.02-.14-.14,0-.07.03-.38.03-1.21h-2.33c-1.65,0-2.19.04-2.29.04-.12,0-.14-.02-.14-.14v-.74c0-.12.02-.14.14-.14.1,0,.65.04,2.29.04h2.33c-.02-.63-.03-1.14-.1-1.52.4.02.79.05,1.08.11.11.02.18.07.18.14,0,.09-.04.14-.07.23-.07.12-.11.46-.11,1.05h3.57c-.02-.63-.04-1.14-.1-1.52.4.02.79.05,1.08.11.11.02.17.07.17.14,0,.09-.03.14-.07.23-.07.12-.11.46-.11,1.05h2.52c1.65,0,2.21-.04,2.29-.04.12,0,.14.02.14.14v.74Zm-3.5,2.91h-8.26v1.54h8.26v-1.54Zm0,2.4h-8.26v1.63h8.26v-1.63Z" style="fill:gray;"/><path d="m358.55,75.2c.65,1.28,1.54,2.43,2.76,3.38-.19.17-.35.35-.49.54-.09.12-.14.18-.19.18s-.12-.05-.25-.18c-.91-.88-1.56-1.75-2.08-2.83-.07.28-.16.54-.25.77-.42,1.14-1.29,2.45-2.66,3.54-.12.09-.19.14-.26.14s-.14-.07-.28-.23c-.19-.23-.33-.33-.51-.44,1.61-1.08,2.38-2.24,2.87-3.5.14-.37.26-.82.35-1.37h-.94c-1.42,0-1.86.04-1.94.04-.14,0-.16-.02-.16-.14v-.7c0-.12.02-.14.16-.14.09,0,.53.04,1.94.04h1.07c.07-.77.11-1.68.12-2.71h-1.22c-.32.53-.68,1.05-1.19,1.61-.12.14-.17.19-.25.19-.05,0-.12-.05-.25-.17-.17-.17-.37-.28-.52-.35,1.19-1.07,1.8-2.4,2.15-3.33.11-.28.21-.72.23-.96.37.09.67.17.93.26.11.04.18.09.18.18s-.07.16-.14.23c-.12.12-.17.25-.24.44-.14.35-.28.68-.44,1.01h2.03c1.16,0,1.49-.04,1.59-.04.12,0,.14.02.14.14v.68c0,.12-.02.14-.14.14-.11,0-.44-.04-1.59-.04h-.3c-.02,1.03-.05,1.93-.14,2.71h.44c1.4,0,1.84-.04,1.94-.04s.12.02.12.14v.7c0,.12-.02.14-.12.14s-.54-.04-1.94-.04h-.52Zm11.08-7.51c0,.12-.02.14-.14.14-.11,0-.65-.04-2.29-.04h-2.42c0,.54.04.75.04.82,0,.12-.02.14-.14.14h-.77c-.12,0-.14-.02-.14-.14,0-.07.02-.28.04-.82h-3.68c0,.86.04,1.17.04,1.26,0,.12-.02.14-.14.14h-.77c-.12,0-.14-.02-.14-.14,0-.1.04-.4.04-1.26h-2.35c-1.64,0-2.19.04-2.27.04-.12,0-.14-.02-.14-.14v-.72c0-.12.02-.14.14-.14.09,0,.63.04,2.27.04h2.35v-.16c0-.44,0-1-.11-1.47.44.02.79.07,1.09.11.11.02.19.09.19.16s-.02.14-.09.25c-.07.12-.11.46-.11.93v.19h3.68v-.17c0-.44,0-1-.11-1.45.44.02.79.05,1.08.11.1.02.17.07.17.14,0,.09-.02.14-.07.25-.07.12-.1.44-.1.93v.21h2.42c1.65,0,2.19-.04,2.29-.04s.14.02.14.14v.72Zm.02,12.13c0,.12-.02.14-.14.14-.11,0-.63-.04-2.26-.04h-4.22v.93c0,.12-.02.14-.14.14h-.7c-.12,0-.14-.02-.14-.14,0-.09.04-.44.04-1.66v-6.42c-.26.37-.54.75-.86,1.14-.1.12-.16.17-.23.17-.05,0-.11-.05-.23-.17-.16-.17-.3-.26-.49-.35,1.1-1.03,1.96-2.55,2.38-3.64.16-.47.25-.79.3-1.17.37.09.68.17.91.25.14.05.21.09.21.19,0,.09-.05.17-.14.26-.12.12-.23.31-.44.79-.14.28-.26.56-.4.82h2.43c.26-.49.46-.93.61-1.33.1-.26.17-.51.21-.86.4.09.68.16.95.25.12.04.17.11.17.19s-.05.16-.14.23c-.11.09-.21.23-.33.51-.16.33-.3.65-.49,1.02h.84c1.38,0,1.8-.04,1.91-.04.12,0,.14.02.14.14v.61c0,.12-.02.14-.14.14-.1,0-.52-.04-1.91-.04h-.91v1.79h.31c1.51,0,2-.04,2.08-.04.14,0,.16.02.16.14v.6c0,.12-.02.14-.16.14-.09,0-.58-.04-2.08-.04h-.31v1.8h.3c1.52,0,2.01-.04,2.1-.04.14,0,.16.02.16.14v.58c0,.12-.02.14-.16.14-.09,0-.58-.02-2.1-.02h-.3v2.01h.8c1.63,0,2.15-.04,2.26-.04.12,0,.14.02.14.14v.63Zm-4.15-7.95h-2.47v1.79h2.47v-1.79Zm0,2.59h-2.47v1.8h2.47v-1.8Zm0,2.61h-2.47v2.01h2.47v-2.01Z" style="fill:gray;"/><path d="m377,72.6c.14-.07.18-.07.23.03.61,1.28,1.28,2.35,2.12,3.26.54-.61,1-1.26,1.4-1.96.33-.58.52-1.02.68-1.51.42.16.79.33,1.03.46.12.07.21.16.21.25,0,.11-.07.19-.21.3-.14.12-.42.47-.63.82-.54.89-1.08,1.68-1.71,2.4,1.63,1.43,3.8,2.4,7,3.12-.23.23-.38.51-.51.79-.09.23-.14.3-.26.3-.05,0-.14-.02-.24-.05-3.08-.84-5.16-1.91-6.74-3.38-1.49,1.4-3.43,2.47-6.48,3.38-.12.04-.21.05-.28.05-.12,0-.16-.07-.26-.28-.14-.28-.3-.49-.49-.65,2.96-.74,5.15-1.82,6.74-3.27-.88-1-1.61-2.15-2.29-3.52-.05-.12-.05-.16.16-.26l.54-.26Zm9.89-4.15c0,.12-.02.14-.14.14-.09,0-.65-.04-2.31-.04h-10.01c-1.68,0-2.22.04-2.31.04-.12,0-.14-.02-.14-.14v-.79c0-.12.02-.14.14-.14.09,0,.63.04,2.31.04h4.34v-.49c0-.89-.02-1.35-.12-1.77.47.02.79.04,1.17.09.12.02.21.07.21.14,0,.11-.05.19-.1.32-.05.14-.07.44-.07,1.22v.49h4.58c1.66,0,2.22-.04,2.31-.04.12,0,.14.02.14.14v.79Zm-9.84,1.8c-.14.09-.33.3-.53.54-.91,1.12-1.8,1.98-3.39,3.04-.12.07-.19.12-.26.12s-.12-.07-.23-.21c-.18-.24-.35-.42-.58-.56,1.71-1,2.7-1.94,3.55-3.01.18-.21.38-.59.49-.89.33.14.7.33.93.49.16.11.19.16.19.26,0,.07-.07.14-.17.21Zm5.04-.82c.17-.11.23-.11.31,0,1.14,1.42,2.59,2.62,4.39,3.45-.19.16-.44.42-.56.65-.1.17-.16.24-.23.24s-.16-.03-.28-.1c-1.68-.96-3.08-2.21-4.18-3.69-.09-.12-.07-.16.12-.28l.42-.26Z" style="fill:gray;"/><path d="m397.6,70.76c1.96,1.52,3.83,2.24,6.84,3.12-.19.19-.33.4-.44.61-.17.33-.17.32-.51.21-2.78-.91-4.9-2.01-6.6-3.59,0,1.16.07,2.08.07,2.36,0,.12-.02.14-.14.14h-.82c-.12,0-.14-.02-.14-.14,0-.28.07-1.21.09-2.35-1.63,1.63-3.87,2.78-6.37,3.59q-.32.11-.49-.21c-.14-.21-.3-.38-.46-.54,2.73-.74,4.83-1.66,6.54-3.2h-3.57c-1.68,0-2.24.04-2.33.04-.14,0-.16-.02-.16-.14v-.65c0-.12.02-.14.16-.14.09,0,.65.04,2.33.04h1.16c-.23-.58-.46-1.02-.77-1.54-.07-.12-.07-.16.18-.25l.46-.16c.19-.07.21-.09.28.04.37.58.7,1.23.95,1.91h2.07v-2.66c-1.68.17-2.87.26-4.46.35q-.32.02-.47-.28c-.11-.23-.25-.44-.4-.58,2.31-.09,3.76-.19,5.71-.46,1.29-.17,2.48-.38,3.61-.67.54-.14.82-.25,1.14-.4.33.19.7.44.93.63.09.09.12.16.12.23,0,.1-.12.16-.33.16-.17,0-.47.07-1.03.21-1.05.26-2.31.49-3.78.68v2.78h2.21c.35-.65.65-1.31.88-1.93.1-.31.14-.47.17-.72.37.09.68.16.98.26.12.04.17.12.17.19,0,.11-.07.16-.16.23-.07.05-.14.16-.21.32-.24.54-.49,1.07-.8,1.65h1.29c1.68,0,2.24-.04,2.33-.04.12,0,.14.02.14.14v.65c0,.12-.02.14-.14.14-.09,0-.65-.04-2.33-.04h-3.87Zm4.03,6.91c0,2.56.04,2.96.04,3.04,0,.12-.02.14-.14.14h-.79c-.12,0-.14-.02-.14-.14v-.72h-8.07v.77c0,.12-.02.14-.14.14h-.77c-.12,0-.14-.02-.14-.14,0-.09.04-.51.04-3.06v-1.45c0-1.43-.04-1.89-.04-2,0-.12.02-.14.14-.14.09,0,.68.04,2.42.04h5.06c1.73,0,2.33-.04,2.43-.04.12,0,.14.02.14.14,0,.11-.04.54-.04,1.77v1.65Zm-5.71-2.68h-3.4v1.61h3.4v-1.61Zm0,2.42h-3.4v1.75h3.4v-1.75Zm4.67-2.42h-3.67v1.61h3.67v-1.61Zm0,2.42h-3.67v1.75h3.67v-1.75Z" style="fill:gray;"/><path d="m171.51,242.35c0,.12-.02.14-.14.14-.09,0-.63-.04-2.26-.04h-6.48c-.42.86-.93,1.66-1.52,2.38h5.71c1.61,0,2.35-.03,2.45-.03s.12.02.12.14c0,.09-.04.51-.04,1.79v1.28c0,2.19.04,2.56.04,2.66,0,.12-.02.14-.12.14h-.82c-.12,0-.14-.02-.14-.14v-.86h-7.33v.95c0,.12-.02.12-.14.12h-.8c-.12,0-.14,0-.14-.12,0-.09.04-.54.04-2.68v-1.96c-.93.86-1.98,1.59-3.19,2.21-.12.07-.21.1-.26.1-.09,0-.14-.07-.24-.26-.14-.25-.35-.46-.51-.58,2.54-1.08,4.64-2.77,5.74-5.13h-2.94c-1.64,0-2.19.04-2.28.04-.12,0-.14-.02-.14-.14v-.73c0-.12.02-.14.14-.14.09,0,.63.04,2.28.04h10.59c1.63,0,2.17-.04,2.26-.04.12,0,.14.02.14.14v.73Zm-3.06-4.99c0-.53-.02-.89-.12-1.35.46.02.84.05,1.15.1.12.02.19.09.19.16,0,.05-.04.16-.09.25-.07.14-.09.37-.09.86v.94c0,.84.04,1.19.04,1.3,0,.12-.02.14-.14.14-.09,0-.72-.04-2.49-.04h-6.41c-1.77,0-2.4.04-2.48.04-.12,0-.14-.02-.14-.14,0-.11.04-.46.04-1.3v-.94c0-.56-.02-.89-.12-1.37.42.02.84.05,1.17.09.12.02.19.09.19.16,0,.1-.05.21-.11.33-.05.14-.09.37-.09.75v1.45h4.1v-1.84c0-.93-.02-1.38-.12-1.86.4.02.86.05,1.17.1.12.02.19.07.19.14,0,.12-.05.21-.11.33-.05.16-.09.42-.09,1.28v1.84h4.34v-1.43Zm-.14,8.4h-7.33v3.12h7.33v-3.12Z" style="fill:gray;"/><path d="m189.12,242.9c0,.12-.02.14-.14.14-.07,0-.47-.02-1.49-.03v4.04c0,.8.02,1.56.02,2.03,0,.82-.12,1.17-.46,1.44-.33.26-.77.37-2.12.35q-.35,0-.42-.35c-.05-.28-.16-.53-.33-.77.61.09.94.1,1.42.1.63,0,.88-.1.88-.82v-6.02h-7.39v2.33c0,1.66.04,2.36.04,2.47,0,.12-.02.14-.12.14h-.7c-.12,0-.14-.02-.14-.14v-.77h-3.41v1.61c0,.12-.02.14-.14.14h-.67c-.14,0-.16-.02-.16-.14,0-.1.04-.88.04-2.68v-4.9c0-1.24-.02-1.77-.11-2.34.32.02.74.05,1.02.09.12.02.19.11.19.16,0,.1-.05.21-.09.31-.07.19-.09.46-.09,1.68v5.16h1.24v-8.31c0-1.17-.02-1.66-.12-2.35.38.02.77.05,1.05.09.12.02.23.07.23.17s-.09.21-.12.37c-.05.21-.09.6-.09,1.7v8.33h1.22v-5.08c0-1.14,0-1.73-.12-2.33.35.02.8.05,1.03.1.12.02.19.07.19.14,0,.1-.04.19-.07.3-.05.18-.11.44-.11,1.72v1.1h7.47c1.73,0,2.33-.04,2.42-.04.12,0,.14.02.14.14v.72Zm-4.64-4.8c.86,1.28,2.01,2.14,3.83,2.59-.17.14-.35.4-.44.63-.16.35-.17.37-.49.25-1.47-.59-2.73-1.7-3.59-3.12-.52,1.37-1.52,2.34-3.19,3.1-.12.05-.21.09-.26.09-.09,0-.14-.07-.25-.25-.12-.19-.3-.4-.51-.51,1.8-.56,2.91-1.45,3.38-2.78h-.7c-1.59,0-2.1.04-2.19.04-.14,0-.16-.02-.16-.14v-.65c0-.12.02-.14.16-.14.09,0,.59.04,2.19.04h.93l.04-.25c.09-.8.1-1.28.02-1.79.42.02.73.05,1,.11.14.04.26.09.26.17,0,.05-.02.11-.07.19-.09.12-.17.28-.23.86-.02.25-.05.47-.09.7h1.63c1.59,0,2.12-.04,2.21-.04.12,0,.14.02.14.12v.67c0,.12-.02.14-.14.14-.09,0-.61-.04-2.21-.04h-1.28Zm.19,8.31c0,1.68.04,1.96.04,2.07,0,.12-.02.14-.14.14h-.67c-.12,0-.14-.02-.14-.14v-.51h-2.29v.91c0,.12-.02.14-.16.14h-.68c-.12,0-.14-.02-.14-.14,0-.1.04-.4.04-2.29v-.86c0-.84-.04-1.17-.04-1.28,0-.12.02-.14.14-.14.09,0,.39.04,1.38.04h1.19c.98,0,1.28-.04,1.37-.04.12,0,.14.02.14.14,0,.09-.04.42-.04,1.05v.91Zm-.91-1.24h-2.29v2h2.29v-2Z" style="fill:gray;"/><path d="m191.01,239.96c.1-.14.16-.16.28-.09.81.49,1.66,1.1,2.42,1.82.07.07.07.12-.05.28l-.37.49c-.14.17-.19.17-.3.07-.74-.75-1.51-1.37-2.33-1.86-.12-.07-.12-.12,0-.28l.35-.44Zm1.4,9.8c-.17.37-.28.63-.31.79-.04.12-.07.21-.16.21-.05,0-.12-.02-.24-.09-.32-.19-.53-.33-.86-.58.32-.42.53-.75.79-1.29.51-1.07,1.05-2.42,1.56-4.22.16.17.35.35.54.49q.3.21.21.54c-.4,1.49-.96,2.92-1.52,4.15Zm-.54-14.11c.14-.16.17-.17.28-.1.79.51,1.57,1.16,2.29,1.87.09.09.09.12-.04.28l-.37.47c-.14.19-.19.21-.3.09-.73-.81-1.56-1.5-2.26-1.98-.1-.07-.09-.12.05-.26l.33-.37Zm14.32,1.14c0,.12-.02.14-.14.14-.09,0-.7-.04-2.48-.04h-1.58v2.28h.73c1.72,0,2.29-.04,2.4-.04.12,0,.14.02.14.14,0,.11-.04.79-.04,3.33v3.19c0,4.03.04,4.69.04,4.78,0,.12-.02.14-.14.14h-.74c-.12,0-.14-.02-.14-.14v-1h-7.65v1.03c0,.1-.02.12-.14.12h-.73c-.12,0-.14-.02-.14-.12s.04-.77.04-4.8v-2.87c0-2.85-.04-3.55-.04-3.66,0-.12.02-.14.14-.14.09,0,.68.04,2.38.04h.51v-2.28h-1.33c-1.79,0-2.4.04-2.49.04-.12,0-.14-.02-.14-.14v-.72c0-.12.02-.14.14-.14.09,0,.7.04,2.49.04h6.28c1.79,0,2.4-.04,2.48-.04.12,0,.14.02.14.14v.72Zm-1.94,7.26c-.51.04-.93.05-1.42.05-.81,0-1.17-.11-1.42-.32-.26-.23-.35-.51-.35-1.17v-2.57h-1.52c-.02.82-.11,1.7-.32,2.38-.26.75-.75,1.65-1.52,2.38-.11.1-.16.16-.23.16-.09,0-.16-.07-.3-.21-.16-.16-.35-.28-.53-.35.86-.67,1.37-1.4,1.66-2.21.19-.56.28-1.28.3-2.15h-2.01v6h7.65v-2Zm0,2.89h-7.65v1.71h7.65v-1.71Zm-3.19-10.05h-1.52v2.28h1.52v-2.28Zm3.19,3.15h-2.28v2.33c0,.32.04.53.14.63.14.14.3.19.93.19.38,0,.79,0,1.21-.04v-3.12Z" style="fill:gray;"/><path d="m222.29,238.28c0,.82.04,1.03.04,1.14,0,.12-.02.14-.14.14-.11,0-.72-.04-2.49-.04h-8.96v.91c0,1.38-.09,3.24-.35,4.9-.28,1.75-.67,3.26-1.75,4.85-.09.12-.12.19-.17.19s-.12-.07-.23-.19c-.21-.23-.46-.4-.67-.51,1.17-1.56,1.52-2.94,1.8-4.71.25-1.58.33-3.41.33-5.46,0-2.33-.04-3.31-.04-3.41,0-.12.02-.14.12-.14s.74.04,2.5.04h7.4c1.77,0,2.38-.04,2.49-.04.12,0,.14.02.14.14,0,.11-.04.33-.04,1.14v1.05Zm1,11.88c0,.12-.02.14-.14.14-.09,0-.68-.04-2.45-.04h-8.03c-1.75,0-2.34.04-2.43.04-.12,0-.14-.02-.14-.14v-.68c0-.12.02-.14.14-.14.09,0,.68.04,2.43.04h3.33v-1.86h-1.64c-1.7,0-2.28.04-2.38.04-.12,0-.14-.02-.14-.14v-.67c0-.12.02-.14.14-.14.11,0,.68.03,2.38.03h1.64v-.25c0-.68-.02-1.05-.1-1.4.38.02.72.05,1.05.09.14.02.23.09.23.16,0,.12-.04.19-.09.33-.07.17-.09.42-.09.77v.3h2.17c1.71,0,2.28-.03,2.38-.03.12,0,.14.02.14.14v.67c0,.12-.02.14-.14.14-.11,0-.67-.04-2.38-.04h-2.17v1.86h3.71c1.77,0,2.36-.04,2.45-.04.12,0,.14.02.14.14v.68Zm-2.03-13.28h-10.52v1.75h10.52v-1.75Zm1.63,4.83c0,.12-.02.14-.14.14-.09,0-.68-.04-2.45-.04h-4.57c-.38.79-.75,1.45-1.17,2.05,1.61-.05,3.29-.17,4.97-.32-.3-.28-.63-.54-1-.84-.11-.09-.12-.11.07-.25l.4-.28c.12-.09.14-.09.26,0,1.1.81,1.87,1.59,2.85,2.64.09.11.09.14-.11.28l-.37.28c-.23.17-.25.17-.32.05-.35-.42-.67-.79-1-1.12-2.52.23-4.97.42-7.65.54-.49.02-.56.05-.68.11-.09.04-.17.07-.25.07s-.12-.07-.16-.18c-.07-.25-.16-.65-.21-.98.56.02,1.17.04,1.77.02h.28c.47-.72.84-1.38,1.14-2.08h-.81c-1.75,0-2.34.04-2.43.04-.12,0-.14-.02-.14-.14v-.68c0-.12.02-.14.14-.14.09,0,.68.04,2.43.04h6.53c1.77,0,2.36-.04,2.45-.04.12,0,.14.02.14.14v.68Z" style="fill:gray;"/><circle cx="233.65" cy="110.42" r="4.49" style="fill:gray;"/><circle cx="233.65" cy="135.52" r="4.49" style="fill:gray;"/><circle cx="329.23" cy="71.67" r="4.49" style="fill:gray;"/><circle cx="233.65" cy="245.61" r="4.49" style="fill:gray;"/><polyline points="245.01 71.67 245.01 278.56 234.79 278.56" style="fill:none; stroke:#ed0030; stroke-linecap:round; stroke-miterlimit:10; stroke-width:2.94px;"/><polyline points="248.09 74.33 245.19 67.42 241.8 74.33" style="fill:none; stroke:#ed0030; stroke-linecap:round; stroke-miterlimit:10; stroke-width:2.38px;"/></g></svg>