<?xml version="1.0" encoding="UTF-8"?><svg id="_レイヤー_2" xmlns="http://www.w3.org/2000/svg" width="497.38" height="394.08" viewBox="0 0 497.38 394.08"><g id="_レイヤー_1-2"><line x1="139.36" y1="287.81" x2="139.36" y2="341.68" style="fill:none; stroke:#e6e6e6; stroke-linecap:round; stroke-miterlimit:10; stroke-width:8px;"/><line x1="342.88" y1="4" x2="342.88" y2="80.3" style="fill:none; stroke:#e6e6e6; stroke-linecap:round; stroke-miterlimit:10; stroke-width:8px;"/><line x1=".5" y1="54.26" x2="496.88" y2="54.26" style="fill:none; stroke:#6a6766; stroke-miterlimit:10; stroke-width:7.56px;"/><line x1=".5" y1="54.26" x2="496.88" y2="54.26" style="fill:none; stroke:#fff; stroke-miterlimit:10; stroke-width:5.04px;"/><line x1=".5" y1="54.26" x2="496.88" y2="54.26" style="fill:none; stroke:#6a6766; stroke-dasharray:0 0 11 13; stroke-miterlimit:10; stroke-width:5.04px;"/><line x1=".5" y1="351.64" x2="496.88" y2="351.64" style="fill:none; stroke:#4d4948; stroke-miterlimit:10; stroke-width:7.56px;"/><line x1=".5" y1="351.64" x2="496.88" y2="351.64" style="fill:none; stroke:#fff; stroke-miterlimit:10; stroke-width:5.04px;"/><line x1=".5" y1="351.64" x2="496.88" y2="351.64" style="fill:none; stroke:#4d4948; stroke-dasharray:0 0 25.2 25.2; stroke-miterlimit:10; stroke-width:5.04px;"/><line x1=".5" y1="328.64" x2="496.88" y2="328.64" style="fill:none; stroke:#7499d3; stroke-miterlimit:10; stroke-width:7.56px;"/><line x1=".5" y1="328.64" x2="496.88" y2="328.64" style="fill:none; stroke:#fff; stroke-miterlimit:10; stroke-width:5.04px;"/><line x1=".5" y1="328.64" x2="496.88" y2="328.64" style="fill:none; stroke:#7499d3; stroke-dasharray:0 0 48 46; stroke-miterlimit:10; stroke-width:5.04px;"/><rect x="356.16" y="37.43" width="65.22" height="33.66" style="fill:#fff; stroke:#545454; stroke-miterlimit:10; stroke-width:.5px;"/><path d="m370.73,55.43c.54,1.14,1.33,2.1,2.33,2.91.8-.56,1.58-1.16,2.22-1.77.19-.19.35-.39.49-.65.38.24.6.4.88.63.09.09.12.14.12.21,0,.09-.07.14-.21.17-.16.05-.26.09-.58.33-.68.54-1.38,1.08-2.22,1.61,1.45.98,3.22,1.68,5.22,2.12-.16.16-.32.35-.47.65-.18.33-.21.35-.54.26-3.9-1.05-6.9-3.2-8.28-6.48h-2.15v4.73c1.16-.33,2.28-.68,3.62-1.17-.05.23-.05.44-.05.65,0,.35-.04.37-.37.49-2.15.8-3.88,1.26-5.69,1.73-.33.09-.58.19-.67.26-.07.05-.1.1-.19.1-.07,0-.11-.03-.18-.16-.14-.3-.3-.72-.38-1.03.7-.11,1.21-.19,1.87-.35l.98-.25v-5h-.77c-1.63,0-2.19.04-2.28.04-.12,0-.14-.02-.14-.14v-.75c0-.12.02-.14.14-.14.09,0,.65.04,2.28.04h.77v-5.08c0-1.33-.04-1.87-.04-1.96,0-.12.02-.14.14-.14.07,0,.7.04,2.43.04h5.37c1.75,0,2.33-.04,2.43-.04.12,0,.14.02.14.14v.75c0,.12-.02.14-.14.14-.11,0-.68-.03-2.43-.03h-6.86v1.45h6.13c1.68,0,2.22-.04,2.33-.04.12,0,.14.02.14.14v.72c0,.12-.02.14-.14.14-.1,0-.65-.04-2.33-.04h-6.13v1.35h6.13c1.68,0,2.21-.04,2.31-.04.12,0,.14.02.14.14v.72c0,.12-.02.14-.14.14-.1,0-.63-.04-2.31-.04h-6.13v1.52h8.65c1.65,0,2.19-.04,2.29-.04.12,0,.14.02.14.14v.75c0,.12-.02.14-.14.14-.11,0-.65-.04-2.29-.04h-5.44Z" style="fill:gray;"/><path d="m381.26,51.28c.11-.14.16-.14.26-.07.82.47,1.68,1.1,2.48,1.85.11.11.07.14-.04.3l-.37.51c-.12.17-.17.17-.28.07-.74-.73-1.58-1.42-2.43-1.94-.12-.07-.12-.1,0-.26l.37-.46Zm1.4,9.84c-.16.35-.28.61-.31.77-.02.1-.07.19-.16.19-.05,0-.12-.04-.24-.1-.33-.21-.54-.37-.88-.63.35-.4.56-.72.84-1.24.54-1.07,1.19-2.45,1.71-4.15.14.16.33.35.56.53.28.21.3.21.19.53-.49,1.47-1.12,2.89-1.72,4.11Zm-.21-14.14c.12-.14.16-.14.28-.07.82.52,1.63,1.21,2.35,1.92.09.09.09.12-.05.3l-.37.47c-.14.17-.19.19-.3.09-.75-.8-1.5-1.45-2.31-2.01-.1-.07-.09-.12.05-.28l.35-.42Zm10.46.54c1.72,0,2.31-.04,2.4-.04.12,0,.16.04.16.17-.04.39-.04.74-.05,1.05-.09,2.29-.28,3.82-.56,4.41-.25.51-.7.75-1.19.79-.54.05-1.12.05-1.65.02q-.35-.02-.42-.37c-.05-.26-.12-.51-.24-.72.58.11,1.17.14,1.7.14.4,0,.67-.18.82-.44.26-.47.42-2.07.47-4.08h-3.92c-.16,2.8-1.51,4.76-4.24,6.06-.1.05-.19.09-.24.09-.07,0-.12-.07-.25-.23-.17-.24-.37-.44-.59-.58,2.73-1.1,4.09-2.73,4.25-5.34h-1.05c-1.7,0-2.27.04-2.36.04-.12,0-.14-.02-.14-.14v-.72c0-.14.02-.16.14-.16.09,0,.67.04,2.36.04h4.6Zm2.01,11.32c0,2.52.04,2.92.04,3.01,0,.14-.02.16-.14.16h-.82c-.12,0-.14-.02-.14-.16v-.82h-6.21v.93c0,.12-.02.14-.14.14h-.81c-.12,0-.14-.02-.14-.14,0-.09.04-.51.04-3.05v-1.43c0-1.44-.04-1.87-.04-1.98s.02-.12.14-.12c.09,0,.65.04,2.24.04h3.62c1.61,0,2.17-.04,2.26-.04.12,0,.14.02.14.12s-.04.54-.04,1.75v1.59Zm-1.07-2.49h-6.21v3.73h6.21v-3.73Z" style="fill:gray;"/><path d="m399.09,56.73q.21.07.19.21c-.09,1.31-.25,2.5-.77,3.69-.05.12-.09.12-.24.02l-.42-.28c-.14-.09-.16-.11-.11-.23.44-.98.67-2.05.77-3.45.02-.14.04-.14.26-.07l.31.11Zm5.93-8.72c0,.12-.02.14-.14.14-.09,0-.51-.04-1.71-.04h-.74v1.68h.26c1.26,0,1.63-.04,1.71-.04.12,0,.14.02.14.14v.6c0,.12-.02.14-.14.14-.09,0-.46-.04-1.71-.04h-.26v1.68h.26c1.26,0,1.63-.04,1.71-.04.12,0,.14.02.14.14v.6c0,.12-.02.14-.14.14-.09,0-.46-.04-1.71-.04h-.26v1.75h.61c1.17,0,1.52-.03,1.63-.03s.16.03.14.16c-.02.33-.04.65-.05.98-.12,2.84-.44,4.2-.73,4.88-.3.61-.88.96-1.52.96-.3,0-.7-.02-1-.03-.21-.02-.25-.02-.3-.37-.05-.3-.12-.49-.23-.7.54.07,1.07.11,1.37.11.4,0,.65-.19.82-.51.28-.49.54-1.79.65-4.62h-3.17c-1.3,0-1.73.04-1.87.04-.12,0-.14-.02-.14-.16,0-.09.04-.68.04-1.87v-4.2c0-1.43-.04-2.01-.04-2.12,0-.12.02-.14.14-.14.14,0,.58.04,1.87.04h2.52c1.21,0,1.63-.04,1.71-.04.12,0,.14.02.14.14v.67Zm-3.5.1h-1.91v1.68h1.91v-1.68Zm0,2.49h-1.91v1.68h1.91v-1.68Zm0,2.49h-1.91v1.75h1.91v-1.75Zm-1.35,3.64c.16-.04.19-.04.21.07.19.93.3,1.79.35,2.8,0,.16-.02.17-.17.23l-.37.12c-.16.05-.19.05-.19-.11-.04-1.07-.12-1.92-.3-2.85-.03-.14,0-.14.14-.17l.33-.09Zm1.17-.12c.14-.05.17-.05.21.07.23.7.4,1.47.52,2.36.02.12,0,.14-.14.19l-.3.12c-.16.07-.19.05-.21-.07-.11-.91-.25-1.72-.47-2.42-.04-.12-.02-.12.12-.17l.26-.09Zm1.08-.19c.14-.05.17-.05.23.05.25.51.44,1.07.61,1.79.02.11,0,.12-.12.17l-.26.12c-.14.07-.17.05-.19-.05-.16-.72-.35-1.35-.58-1.82-.05-.1-.04-.12.11-.17l.21-.09Zm7.42-2.96c.35,3.13,1.44,5.95,3.76,7.75-.21.14-.42.32-.61.58-.11.14-.16.21-.21.21s-.1-.05-.23-.16c-2.28-2-3.29-4.85-3.69-8.38h-1.75c-.04,1.17-.11,2.19-.23,3.27-.23,1.77-.75,3.64-1.85,5.13-.09.12-.14.19-.19.19s-.11-.07-.23-.17c-.21-.21-.46-.37-.68-.47,1.26-1.38,1.73-3.13,1.98-5.08.23-1.75.23-3.52.23-6.21,0-1.63-.04-2.33-.04-2.42,0-.12.02-.14.14-.14.11,0,.54.04,1.96.04h2.33c1.38,0,1.85-.04,1.94-.04.12,0,.14.02.14.14,0,.09-.04.54-.04,1.75v2.96c0,1.23.04,1.61.04,1.72,0,.12-.02.14-.14.14h-.75c-.12,0-.14-.02-.14-.14v-.67h-1.73Zm1.73-4.94h-4.43v1.71c0,.88,0,1.63-.02,2.31h4.45v-4.03Z" style="fill:gray;"/><path d="m385.83,22.85c0,.12-.02.14-.14.14-.09,0-.58-.04-2.12-.04h-.54c.7,1.02,1.42,1.56,2.59,2.24-.14.14-.3.33-.42.61-.07.14-.1.21-.16.21s-.12-.05-.25-.16c-.86-.63-1.52-1.33-2.14-2.35.04,2.82.12,4.48.12,5.22,0,.12-.02.14-.16.14h-.79c-.12,0-.14-.02-.14-.14,0-.72.05-2.29.1-5.01-.72,1.4-1.61,2.5-2.97,3.61-.12.09-.19.14-.26.14s-.11-.07-.17-.21c-.12-.26-.32-.51-.47-.65,1.54-1.03,2.64-2.14,3.5-3.66h-.89c-1.54,0-2.05.04-2.13.04-.12,0-.14-.02-.14-.14v-.7c0-.12.02-.14.14-.14.09,0,.59.03,2.13.03h1.23v-.03c0-.82-.02-1.24-.11-1.65.37.02.77.05,1.07.09.11.02.17.07.17.14,0,.11-.03.18-.07.25-.05.12-.09.33-.09,1.17v.03h.84c1.54,0,2.03-.03,2.12-.03.12,0,.14.02.14.14v.7Zm.3-2.94c0,.12-.02.14-.14.14-.11,0-.61-.03-2.17-.03h-3.38c-1.58,0-2.08.03-2.17.03-.12,0-.14-.02-.14-.14v-.72c0-.12.02-.14.14-.14.09,0,.59.04,2.17.04h2.31c.38-.77.61-1.4.8-2,.09-.26.14-.47.16-.75.38.09.67.16.95.25.16.05.21.12.21.21s-.05.14-.12.21c-.09.09-.17.19-.26.4-.23.58-.46,1.07-.77,1.68h.1c1.52,0,2.03-.04,2.17-.04.12,0,.14.02.14.14v.72Zm-.28-4.13c0,.12-.02.14-.14.14-.09,0-.58-.04-2.08-.04h-2.91c-1.5,0-2,.04-2.08.04-.12,0-.14-.02-.14-.14v-.68c0-.12.02-.14.14-.14.09,0,.58.03,2.08.03h1.02v-.54c0-.44-.02-.88-.12-1.26.46.02.79.03,1.14.09.14.02.23.07.23.14,0,.12-.05.21-.1.32-.09.16-.09.3-.09.72v.54h.84c1.5,0,2-.03,2.08-.03.12,0,.14.02.14.14v.68Zm-5.48.63c.14-.05.17-.04.25.07.33.56.58,1.16.75,1.73.04.12.02.17-.16.25l-.44.17c-.23.07-.28.07-.32-.09-.17-.63-.37-1.19-.67-1.75-.07-.12-.05-.16.18-.24l.4-.14Zm13.6,3.52c0,.12-.02.14-.14.14-.09,0-.58-.04-2.12-.04h-.09v6.18c0,1.89.04,2.52.04,2.61,0,.14-.02.14-.14.14h-.86c-.12,0-.14,0-.14-.14,0-.09.04-.72.04-2.61v-6.18h-2.61c0,1.86-.05,3.64-.44,5.13-.3,1.14-.68,2.14-1.79,3.47-.11.14-.17.19-.25.19s-.12-.04-.23-.14c-.17-.17-.4-.3-.67-.4,1.12-1.17,1.68-2.38,2-3.68.28-1.17.35-2.71.35-4.92v-2.15c0-.96-.03-1.72-.12-2.47.42.09.72.17,1.14.35,1.43-.39,2.61-.89,3.48-1.37.35-.19.63-.4.88-.63.28.23.56.53.77.79.07.09.11.16.11.25,0,.07-.09.14-.23.16-.19.02-.39.09-.65.21-1.17.58-2.68,1.14-4.36,1.58v2.7h3.76c1.54,0,2.03-.04,2.12-.04.12,0,.14.02.14.14v.73Z" style="fill:gray;"/><path d="m396.19,18.02c.11-.14.17-.14.28-.09.84.51,1.63,1.07,2.4,1.8.09.09.09.12-.02.25l-.42.49c-.17.21-.19.23-.3.12-.72-.75-1.54-1.4-2.33-1.89-.12-.07-.11-.1.02-.24l.37-.44Zm1.26,9.78c-.18.39-.3.65-.32.81-.02.1-.09.19-.14.19-.07,0-.16-.04-.28-.1-.3-.19-.51-.33-.81-.58.33-.42.56-.75.82-1.28.54-1.05,1.14-2.43,1.66-4.17.18.25.35.37.6.52.26.18.26.19.16.54-.53,1.44-1.12,2.85-1.7,4.06Zm-.46-14.09c.12-.14.17-.16.28-.09.82.52,1.61,1.15,2.29,1.87.09.1.09.17-.05.33l-.38.47c-.14.16-.17.17-.28.07-.7-.77-1.58-1.54-2.29-2-.11-.07-.11-.1.05-.26l.39-.4Zm14.26,6.14c0,.1-.02.12-.14.12-.09,0-.7-.04-2.49-.04h-6.48c-1.77,0-2.38.04-2.49.04-.12,0-.14-.02-.14-.12v-.65c0-.12.02-.14.14-.14.1,0,.72.04,2.49.04h2.59v-1.28h-1.44c-1.68,0-2.22.04-2.33.04-.12,0-.14-.02-.14-.14v-.58c0-.12.02-.14.14-.14.1,0,.65.04,2.33.04h1.44v-1.21h-1.79c-1.73,0-2.29.04-2.38.04-.12,0-.14-.02-.14-.14v-.61c0-.12.02-.14.14-.14.09,0,.65.03,2.38.03h1.79v-.12c0-.91-.02-1.35-.12-1.79.4.02.86.05,1.14.09.14.02.21.09.21.16,0,.12-.05.19-.11.31-.07.16-.09.42-.09,1.19v.16h2.15c1.73,0,2.31-.03,2.4-.03.12,0,.14.02.14.14v.61c0,.12-.02.14-.14.14-.09,0-.67-.04-2.4-.04h-2.15v1.21h1.72c1.68,0,2.21-.04,2.31-.04.12,0,.14.02.14.14v.58c0,.12-.02.14-.14.14-.1,0-.63-.04-2.31-.04h-1.72v1.28h2.85c1.79,0,2.4-.04,2.49-.04.12,0,.14.02.14.14v.65Zm-4.17,1.16c1.58,0,2.12-.04,2.21-.04.12,0,.14.02.14.14,0,.1-.04.7-.04,2.05v1.84c0,.93.02,1.85.02,2.33,0,.54-.07.93-.37,1.16-.32.23-.6.31-1.89.31-.35,0-.37,0-.46-.35-.05-.21-.14-.42-.3-.67.42.04.79.05,1.29.05.59,0,.7-.18.7-.65v-1.21h-6.09v.61c0,1.59.04,2.14.04,2.22,0,.1-.02.12-.14.12h-.79c-.12,0-.14-.02-.14-.12s.04-.58.04-2.19v-3.57c0-1.33-.04-1.84-.04-1.94,0-.12.02-.14.14-.14.09,0,.65.04,2.22.04h3.45Zm1.31.84h-6.09v1.24h6.09v-1.24Zm0,2.07h-6.09v1.24h6.09v-1.24Z" style="fill:gray;"/><path d="m418.1,18.12c.17,0,.24-.02.33-.05.07-.04.11-.05.17-.05.11,0,.23.05.47.32.28.28.35.4.35.51,0,.09-.05.16-.14.23-.1.09-.21.21-.31.52-1,2.87-2.54,5.09-5.01,7.02-.12.1-.19.16-.25.16-.07,0-.14-.07-.25-.23-.17-.24-.37-.44-.58-.56,2.52-1.73,4.15-3.99,5.11-6.88h-2.5c-1.29,0-1.7.03-1.79.03-.12,0-.14-.02-.14-.14v-.79c0-.1.02-.12.14-.12.09,0,.49.03,1.79.03h2.59Zm3.36-2c.31,1.45.91,2.89,1.68,4.18,1.03-.86,1.87-1.75,2.77-2.85.23-.28.37-.54.49-.84.39.23.65.4.95.65.12.09.16.16.16.25,0,.1-.09.16-.21.23-.16.09-.38.28-.8.73-.77.82-1.7,1.73-2.83,2.66,1.4,2.05,3.27,3.73,5.27,4.71-.21.16-.42.38-.61.68-.11.16-.14.23-.23.23-.05,0-.12-.05-.26-.12-2.82-1.65-5.44-4.85-6.44-8.33.05,3.05.14,6.63.14,8.82,0,.56-.17,1-.63,1.24-.33.21-.86.3-2.17.3q-.35,0-.46-.35c-.09-.32-.21-.6-.37-.81.44.03,1.03.05,1.51.05.72,0,1-.16,1-.65v-11.59c0-.96-.02-1.44-.12-1.92.4.02.84.05,1.17.09.14.02.23.09.23.16,0,.14-.07.25-.11.37-.07.19-.1.52-.1,1.3v.82Z" style="fill:gray;"/><path d="m446.12,17.34c0,.12-.02.14-.14.14-.09,0-.63-.03-2.28-.03h-6.23c-.04.98-.1,1.85-.21,2.68h4.41c1.49,0,1.96-.04,2.05-.04.12,0,.17.05.16.19-.04.4-.05.82-.09,1.23-.17,2.61-.38,4.27-.63,5.29-.33,1.35-.91,1.8-2.17,1.8-.33,0-1.03-.04-1.68-.1q-.33-.04-.37-.4c-.04-.3-.12-.63-.25-.82,1.01.17,1.82.21,2.22.21.67,0,.98-.37,1.16-1.07.26-1.03.47-2.94.59-5.25h-5.55c-.63,3.52-2.14,5.65-5.37,7.47-.12.07-.21.1-.26.1-.11,0-.16-.09-.28-.28-.16-.23-.38-.4-.63-.56,4.2-2.06,5.65-4.67,5.74-10.45h-3.08c-1.63,0-2.19.03-2.28.03-.12,0-.14-.02-.14-.14v-.81c0-.12.02-.14.14-.14.09,0,.65.04,2.28.04h4.52v-1.35c0-.89-.02-1.38-.12-1.8.42,0,.88.03,1.21.09.14.02.21.07.21.14,0,.12-.05.21-.1.33-.07.17-.09.44-.09,1.23v1.37h4.85c1.65,0,2.19-.04,2.28-.04.12,0,.14.02.14.14v.81Z" style="fill:gray;"/><path d="m463.54,14.99c0,.11-.02.12-.14.12-.11,0-.65-.03-2.29-.03h-4.85c-.26.88-.63,1.8-1.08,2.66h5.01c1.75,0,2.34-.04,2.45-.04.12,0,.14.02.14.14,0,.1-.03.77-.03,3.2v3.05c0,3.87.03,4.5.03,4.6,0,.12-.02.14-.14.14h-.82c-.12,0-.14-.02-.14-.14v-.86h-11.5v.88c0,.12-.02.14-.14.14h-.8c-.12,0-.14-.02-.14-.14,0-.1.04-.74.04-4.62v-2.73c0-2.75-.04-3.41-.04-3.52,0-.12.02-.14.14-.14.1,0,.7.04,2.45.04h2.38c.42-.79.81-1.79,1.07-2.66h-4.38c-1.65,0-2.21.03-2.29.03-.12,0-.14-.02-.14-.12v-.79c0-.12.02-.14.14-.14.09,0,.65.03,2.29.03h10.36c1.64,0,2.19-.03,2.29-.03.12,0,.14.02.14.14v.79Zm-10.43,3.68h-2.94v8.23h2.94v-8.23Zm4.58,0h-3.59v2.1h3.59v-2.1Zm0,2.98h-3.59v2.15h3.59v-2.15Zm0,3.03h-3.59v2.22h3.59v-2.22Zm3.97-6h-2.96v8.23h2.96v-8.23Z" style="fill:gray;"/><polygon points="495.97 21.7 484.38 15 484.38 19.08 470.83 19.08 470.83 24.31 484.38 24.31 484.38 28.39 495.97 21.7" style="fill:gray;"/><path d="m41.65,22.85c0,.12-.02.14-.14.14-.09,0-.58-.04-2.12-.04h-.54c.7,1.02,1.42,1.56,2.59,2.24-.14.14-.3.33-.42.61-.07.14-.1.21-.16.21s-.12-.05-.25-.16c-.86-.63-1.52-1.33-2.14-2.35.04,2.82.12,4.48.12,5.22,0,.12-.02.14-.16.14h-.79c-.12,0-.14-.02-.14-.14,0-.72.05-2.29.1-5.01-.72,1.4-1.61,2.5-2.97,3.61-.12.09-.19.14-.26.14s-.11-.07-.17-.21c-.12-.26-.32-.51-.47-.65,1.54-1.03,2.64-2.14,3.5-3.66h-.89c-1.54,0-2.05.04-2.13.04-.12,0-.14-.02-.14-.14v-.7c0-.12.02-.14.14-.14.09,0,.59.03,2.13.03h1.23v-.03c0-.82-.02-1.24-.11-1.65.37.02.77.05,1.07.09.11.02.17.07.17.14,0,.11-.03.18-.07.25-.05.12-.09.33-.09,1.17v.03h.84c1.54,0,2.03-.03,2.12-.03.12,0,.14.02.14.14v.7Zm.3-2.94c0,.12-.02.14-.14.14-.11,0-.61-.03-2.17-.03h-3.38c-1.58,0-2.08.03-2.17.03-.12,0-.14-.02-.14-.14v-.72c0-.12.02-.14.14-.14.09,0,.59.04,2.17.04h2.31c.38-.77.61-1.4.8-2,.09-.26.14-.47.16-.75.38.09.67.16.95.25.16.05.21.12.21.21s-.05.14-.12.21c-.09.09-.17.19-.26.4-.23.58-.46,1.07-.77,1.68h.1c1.52,0,2.03-.04,2.17-.04.12,0,.14.02.14.14v.72Zm-.28-4.13c0,.12-.02.14-.14.14-.09,0-.58-.04-2.08-.04h-2.91c-1.5,0-2,.04-2.08.04-.12,0-.14-.02-.14-.14v-.68c0-.12.02-.14.14-.14.09,0,.58.03,2.08.03h1.02v-.54c0-.44-.02-.88-.12-1.26.46.02.79.03,1.14.09.14.02.23.07.23.14,0,.12-.05.21-.1.32-.09.16-.09.3-.09.72v.54h.84c1.5,0,2-.03,2.08-.03.12,0,.14.02.14.14v.68Zm-5.48.63c.14-.05.17-.04.25.07.33.56.58,1.16.75,1.73.04.12.02.17-.16.25l-.44.17c-.23.07-.28.07-.32-.09-.17-.63-.37-1.19-.67-1.75-.07-.12-.05-.16.18-.24l.4-.14Zm13.6,3.52c0,.12-.02.14-.14.14-.09,0-.58-.04-2.12-.04h-.09v6.18c0,1.89.04,2.52.04,2.61,0,.14-.02.14-.14.14h-.86c-.12,0-.14,0-.14-.14,0-.09.04-.72.04-2.61v-6.18h-2.61c0,1.86-.05,3.64-.44,5.13-.3,1.14-.68,2.14-1.79,3.47-.11.14-.17.19-.25.19s-.12-.04-.23-.14c-.17-.17-.4-.3-.67-.4,1.12-1.17,1.68-2.38,2-3.68.28-1.17.35-2.71.35-4.92v-2.15c0-.96-.03-1.72-.12-2.47.42.09.72.17,1.14.35,1.43-.39,2.61-.89,3.48-1.37.35-.19.63-.4.88-.63.28.23.56.53.77.79.07.09.11.16.11.25,0,.07-.09.14-.23.16-.19.02-.39.09-.65.21-1.17.58-2.68,1.14-4.36,1.58v2.7h3.76c1.54,0,2.03-.04,2.12-.04.12,0,.14.02.14.14v.73Z" style="fill:gray;"/><path d="m58.89,19.72c0,.12-.02.14-.14.14-.09,0-.56-.04-2.07-.04h-2.97c-1.49,0-2,.04-2.08.04-.11,0-.12-.02-.12-.14v-.61c0-.12.02-.14.12-.14.09,0,.59.04,2.08.04h1.17v-1.23h-.52c-1.26,0-1.66.03-1.75.03-.12,0-.14-.02-.14-.14v-.6c0-.1.02-.12.14-.12.09,0,.49.04,1.75.04h.52v-1.16h-.77c-1.42,0-1.86.04-1.96.04-.12,0-.14-.02-.14-.14v-.61c0-.12.02-.14.14-.14.1,0,.54.03,1.96.03h.77v-.05c0-.93-.02-1.4-.12-1.87.42.02.74.05,1.07.11.14.02.23.09.23.14,0,.14-.07.21-.12.33-.07.19-.09.49-.09,1.3v.05h.77c1.42,0,1.85-.03,1.96-.03s.12.02.12.14v.61c0,.12-.02.14-.12.14s-.54-.04-1.96-.04h-.77v1.16h.47c1.28,0,1.66-.04,1.77-.04.12,0,.14.02.14.12v.6c0,.12-.02.14-.14.14-.1,0-.49-.03-1.77-.03h-.47v1.23h.84c1.51,0,1.98-.04,2.07-.04.12,0,.14.02.14.14v.61Zm-2.59,1.19c1.24,0,1.65-.04,1.73-.04.12,0,.14.02.14.14,0,.09-.04.7-.04,2.05v2.14c0,.89.02,1.84.02,2.21,0,.46-.07.84-.37,1.07-.31.21-.56.3-1.68.3-.35,0-.37.02-.46-.35-.05-.23-.16-.46-.26-.65.38.04.7.07,1.12.07.58,0,.68-.18.68-.65v-1.31h-3.62v.96c0,1.31.02,1.87.02,1.96,0,.1,0,.12-.12.12h-.74c-.12,0-.14-.02-.14-.12s.03-.58.03-1.93v-3.9c0-1.35-.03-1.85-.03-1.96,0-.12.02-.14.14-.14.11,0,.51.04,1.73.04h1.84Zm.89.84h-3.62v1.24h3.62v-1.24Zm0,2.07h-3.62v1.24h3.62v-1.24Zm10.17-2.49c0,.12-.02.14-.12.14-.07,0-.38-.02-1.14-.04v1.72c0,1.28.04,1.71.04,1.82s-.02.12-.14.12h-.7c-.12,0-.14-.02-.14-.12v-.68h-2.08v.37c0,.75.02,1.77.02,2.38,0,.79-.09,1.12-.44,1.4-.26.23-.79.32-1.93.3-.35,0-.35.02-.44-.35-.07-.26-.17-.49-.33-.7.37.05.75.07,1.28.07.65,0,.86-.14.86-.84v-2.63h-.44c-1.47,0-1.94.04-2.03.04-.12,0-.14-.02-.14-.14v-.65c0-.12.02-.14.14-.14.09,0,.56.04,2.03.04h.44v-2h-.8c-1.61,0-2.15.04-2.24.04-.12,0-.14-.02-.14-.14v-.67c0-.12.02-.14.14-.14.09,0,.63.04,2.24.04h.8v-1.93h-.28c-1.38,0-1.79.04-1.87.04-.12,0-.14-.02-.14-.12v-.67c0-.12.02-.14.14-.14.09,0,.49.04,1.87.04h.65c.46-.63.86-1.35,1.19-2.1h-2.26c-.51.79-1.07,1.49-1.87,2.28-.12.12-.18.17-.25.17-.05,0-.11-.05-.23-.17-.17-.17-.33-.28-.54-.39,1.19-1.01,2-2.1,2.61-3.34.21-.44.35-.82.38-1.1.37.09.67.16.95.26.12.03.19.09.19.17s-.05.16-.16.25c-.09.07-.21.28-.4.67l-.21.39h1.98c.18,0,.16-.02.23-.05.07-.04.11-.05.16-.05.12,0,.23.05.49.28.26.23.32.33.32.42,0,.1-.05.19-.17.26-.12.07-.25.25-.33.4-.3.6-.65,1.14-1,1.66h.54c1.38,0,1.84-.04,1.93-.04.12,0,.14.02.14.14,0,.09-.04.52-.04,1.82v.86c.75,0,1.07-.04,1.14-.04.11,0,.12.02.12.14v.67Zm-2.21-2.7h-2.08v1.93h2.08v-1.93Zm0,2.8h-2.08v2h2.08v-2Z" style="fill:gray;"/><path d="m81.05,14.15c1.75,0,2.34-.04,2.45-.04.12,0,.14.02.14.14,0,.09-.04,1.19-.04,3.55v6.69c0,1.4.02,2.24.02,2.8,0,.51-.09.88-.42,1.15-.26.21-.75.33-2.1.33-.33,0-.35,0-.42-.33-.07-.28-.21-.61-.35-.82.51.05,1.07.07,1.56.07.46,0,.65-.19.65-.7v-11.87h-11.5v10.41c0,2.19.04,3.17.04,3.26,0,.12-.02.14-.14.14h-.86c-.12,0-.14-.02-.14-.14,0-.1.04-1.1.04-3.5v-7.51c0-2.42-.04-3.45-.04-3.54,0-.12.02-.14.14-.14.1,0,.7.04,2.45.04h8.52Zm.61,5.74c0,.12-.02.14-.16.14-.09,0-.65-.03-2.31-.03h-1.98v4.9h2.4v-1.49c0-.82,0-1.29-.12-1.77.42.02.84.05,1.08.09.12.02.19.07.19.16s-.02.16-.07.25c-.07.12-.1.33-.1,1.29v1.73c0,.82.04,1.17.04,1.26,0,.12-.02.14-.14.14h-.73c-.12,0-.14-.02-.14-.14v-.65h-5.65v1.08c0,.12-.02.14-.14.14h-.74c-.12,0-.14-.02-.14-.14,0-.1.04-.45.04-1.36v-2.03c0-.93-.02-1.33-.11-1.79.37.02.79.05,1.07.1.14.02.21.07.21.12,0,.12-.05.21-.1.33-.07.16-.09.4-.09,1.23v1.44h2.28v-4.9h-1.84c-1.7,0-2.24.03-2.34.03-.12,0-.14-.02-.14-.14v-.68c0-.12.02-.14.14-.14.1,0,.65.04,2.34.04h2.98c.53-.91.89-1.63,1.23-2.4.1-.25.19-.52.28-.89.33.1.68.25.96.4.12.07.17.1.17.21,0,.09-.09.16-.16.21-.09.07-.17.17-.3.42-.28.56-.68,1.31-1.14,2.05h.77c1.66,0,2.22-.04,2.31-.04.14,0,.16.02.16.14v.68Zm-7.46-3.92c.17-.09.19-.1.28,0,.46.61.84,1.29,1.17,2.01.05.12.02.16-.19.26l-.42.21c-.23.12-.26.12-.32,0-.3-.7-.63-1.37-1.08-2.01-.07-.1-.05-.14.14-.24l.42-.23Z" style="fill:gray;"/><path d="m101.94,17.34c0,.12-.02.14-.14.14-.09,0-.63-.03-2.28-.03h-6.23c-.04.98-.1,1.85-.21,2.68h4.41c1.49,0,1.96-.04,2.05-.04.12,0,.17.05.16.19-.04.4-.05.82-.09,1.23-.17,2.61-.38,4.27-.63,5.29-.33,1.35-.91,1.8-2.17,1.8-.33,0-1.03-.04-1.68-.1q-.33-.04-.37-.4c-.04-.3-.12-.63-.25-.82,1.01.17,1.82.21,2.22.21.67,0,.98-.37,1.16-1.07.26-1.03.47-2.94.59-5.25h-5.55c-.63,3.52-2.14,5.65-5.37,7.47-.12.07-.21.1-.26.1-.11,0-.16-.09-.28-.28-.16-.23-.38-.4-.63-.56,4.2-2.06,5.65-4.67,5.74-10.45h-3.08c-1.63,0-2.19.03-2.28.03-.12,0-.14-.02-.14-.14v-.81c0-.12.02-.14.14-.14.09,0,.65.04,2.28.04h4.52v-1.35c0-.89-.02-1.38-.12-1.8.42,0,.88.03,1.21.09.14.02.21.07.21.14,0,.12-.05.21-.1.33-.07.17-.09.44-.09,1.23v1.37h4.85c1.65,0,2.19-.04,2.28-.04.12,0,.14.02.14.14v.81Z" style="fill:gray;"/><path d="m119.35,14.99c0,.11-.02.12-.14.12-.11,0-.65-.03-2.29-.03h-4.85c-.26.88-.63,1.8-1.08,2.66h5.01c1.75,0,2.34-.04,2.45-.04.12,0,.14.02.14.14,0,.1-.03.77-.03,3.2v3.05c0,3.87.03,4.5.03,4.6,0,.12-.02.14-.14.14h-.82c-.12,0-.14-.02-.14-.14v-.86h-11.5v.88c0,.12-.02.14-.14.14h-.8c-.12,0-.14-.02-.14-.14,0-.1.04-.74.04-4.62v-2.73c0-2.75-.04-3.41-.04-3.52,0-.12.02-.14.14-.14.1,0,.7.04,2.45.04h2.38c.42-.79.81-1.79,1.07-2.66h-4.38c-1.65,0-2.21.03-2.29.03-.12,0-.14-.02-.14-.12v-.79c0-.12.02-.14.14-.14.09,0,.65.03,2.29.03h10.36c1.64,0,2.19-.03,2.29-.03.12,0,.14.02.14.14v.79Zm-10.43,3.68h-2.94v8.23h2.94v-8.23Zm4.58,0h-3.59v2.1h3.59v-2.1Zm0,2.98h-3.59v2.15h3.59v-2.15Zm0,3.03h-3.59v2.22h3.59v-2.22Zm3.97-6h-2.96v8.23h2.96v-8.23Z" style="fill:gray;"/><polygon points="1.74 21.7 13.34 15 13.34 19.08 26.88 19.08 26.88 24.31 13.34 24.31 13.34 28.39 1.74 21.7" style="fill:gray;"/><path d="m397.58,379.05c.11-.14.17-.14.28-.09.84.51,1.63,1.07,2.4,1.8.09.09.09.12-.02.25l-.42.49c-.17.21-.19.23-.3.12-.72-.75-1.54-1.4-2.33-1.89-.12-.07-.11-.11.02-.25l.37-.44Zm1.26,9.78c-.18.39-.3.65-.32.81-.02.1-.09.19-.14.19-.07,0-.16-.04-.28-.1-.3-.19-.51-.33-.81-.58.33-.42.56-.75.82-1.28.54-1.05,1.14-2.43,1.66-4.17.18.25.35.37.6.53.26.17.26.19.16.54-.53,1.44-1.12,2.85-1.7,4.06Zm-.46-14.09c.12-.14.17-.16.28-.09.82.53,1.61,1.16,2.29,1.87.09.11.09.17-.05.33l-.38.47c-.14.16-.17.18-.28.07-.7-.77-1.58-1.54-2.29-2-.11-.07-.11-.1.05-.26l.39-.4Zm14.26,6.14c0,.11-.02.12-.14.12-.09,0-.7-.04-2.49-.04h-6.48c-1.77,0-2.38.04-2.49.04-.12,0-.14-.02-.14-.12v-.65c0-.12.02-.14.14-.14.1,0,.72.04,2.49.04h2.59v-1.28h-1.44c-1.68,0-2.22.04-2.33.04-.12,0-.14-.02-.14-.14v-.58c0-.12.02-.14.14-.14.1,0,.65.04,2.33.04h1.44v-1.21h-1.79c-1.73,0-2.29.04-2.38.04-.12,0-.14-.02-.14-.14v-.61c0-.12.02-.14.14-.14.09,0,.65.04,2.38.04h1.79v-.12c0-.91-.02-1.35-.12-1.79.4.02.86.05,1.14.09.14.02.21.09.21.16,0,.12-.05.19-.11.31-.07.16-.09.42-.09,1.19v.16h2.15c1.73,0,2.31-.04,2.4-.04.12,0,.14.02.14.14v.61c0,.12-.02.14-.14.14-.09,0-.67-.04-2.4-.04h-2.15v1.21h1.72c1.68,0,2.21-.04,2.31-.04.12,0,.14.02.14.14v.58c0,.12-.02.14-.14.14-.1,0-.63-.04-2.31-.04h-1.72v1.28h2.85c1.79,0,2.4-.04,2.49-.04.12,0,.14.02.14.14v.65Zm-4.17,1.16c1.58,0,2.12-.04,2.21-.04.12,0,.14.02.14.14,0,.1-.04.7-.04,2.05v1.84c0,.93.02,1.85.02,2.33,0,.54-.07.93-.37,1.16-.32.23-.6.31-1.89.31-.35,0-.37,0-.46-.35-.05-.21-.14-.42-.3-.67.42.04.79.05,1.29.05.59,0,.7-.17.7-.65v-1.21h-6.09v.61c0,1.59.04,2.14.04,2.22,0,.11-.02.12-.14.12h-.79c-.12,0-.14-.02-.14-.12s.04-.58.04-2.19v-3.57c0-1.33-.04-1.84-.04-1.94,0-.12.02-.14.14-.14.09,0,.65.04,2.22.04h3.45Zm1.31.84h-6.09v1.24h6.09v-1.24Zm0,2.06h-6.09v1.24h6.09v-1.24Z" style="fill:gray;"/><path d="m419.49,379.15c.17,0,.24-.02.33-.05.07-.04.11-.05.17-.05.11,0,.23.05.47.32.28.28.35.4.35.51,0,.09-.05.16-.14.23-.1.09-.21.21-.31.53-1,2.87-2.54,5.09-5.01,7.02-.12.11-.19.16-.25.16-.07,0-.14-.07-.25-.23-.17-.24-.37-.44-.58-.56,2.52-1.73,4.15-3.99,5.11-6.88h-2.5c-1.29,0-1.7.04-1.79.04-.12,0-.14-.02-.14-.14v-.79c0-.11.02-.12.14-.12.09,0,.49.04,1.79.04h2.59Zm3.36-2c.31,1.45.91,2.89,1.68,4.18,1.03-.86,1.87-1.75,2.77-2.85.23-.28.37-.54.49-.84.39.23.65.4.95.65.12.09.16.16.16.25,0,.1-.09.16-.21.23-.16.09-.38.28-.8.73-.77.82-1.7,1.73-2.83,2.66,1.4,2.05,3.27,3.73,5.27,4.71-.21.16-.42.38-.61.68-.11.16-.14.23-.23.23-.05,0-.12-.05-.26-.12-2.82-1.64-5.44-4.85-6.44-8.33.05,3.04.14,6.63.14,8.82,0,.56-.17,1-.63,1.24-.33.21-.86.3-2.17.3q-.35,0-.46-.35c-.09-.32-.21-.59-.37-.81.44.04,1.03.05,1.51.05.72,0,1-.16,1-.65v-11.59c0-.96-.02-1.43-.12-1.92.4.02.84.05,1.17.09.14.02.23.09.23.16,0,.14-.07.25-.11.37-.07.19-.1.53-.1,1.3v.82Z" style="fill:gray;"/><path d="m447.51,378.37c0,.12-.02.14-.14.14-.09,0-.63-.03-2.28-.03h-6.23c-.04.98-.1,1.85-.21,2.68h4.41c1.49,0,1.96-.04,2.05-.04.12,0,.17.05.16.19-.04.4-.05.82-.09,1.23-.17,2.61-.38,4.27-.63,5.29-.33,1.35-.91,1.8-2.17,1.8-.33,0-1.03-.04-1.68-.11q-.33-.04-.37-.4c-.04-.3-.12-.63-.25-.82,1.01.17,1.82.21,2.22.21.67,0,.98-.37,1.16-1.07.26-1.03.47-2.94.59-5.25h-5.55c-.63,3.52-2.14,5.65-5.37,7.47-.12.07-.21.1-.26.1-.11,0-.16-.09-.28-.28-.16-.23-.38-.4-.63-.56,4.2-2.06,5.65-4.67,5.74-10.45h-3.08c-1.63,0-2.19.03-2.28.03-.12,0-.14-.02-.14-.14v-.8c0-.12.02-.14.14-.14.09,0,.65.04,2.28.04h4.52v-1.35c0-.89-.02-1.38-.12-1.8.42,0,.88.04,1.21.09.14.02.21.07.21.14,0,.12-.05.21-.1.33-.07.17-.09.44-.09,1.22v1.37h4.85c1.65,0,2.19-.04,2.28-.04.12,0,.14.02.14.14v.8Z" style="fill:gray;"/><path d="m464.92,376.02c0,.11-.02.12-.14.12-.11,0-.65-.04-2.29-.04h-4.85c-.26.88-.63,1.8-1.08,2.66h5.01c1.75,0,2.34-.04,2.45-.04.12,0,.14.02.14.14,0,.1-.03.77-.03,3.2v3.05c0,3.87.03,4.5.03,4.6,0,.12-.02.14-.14.14h-.82c-.12,0-.14-.02-.14-.14v-.86h-11.5v.88c0,.12-.02.14-.14.14h-.8c-.12,0-.14-.02-.14-.14,0-.1.04-.74.04-4.62v-2.73c0-2.75-.04-3.41-.04-3.52,0-.12.02-.14.14-.14.1,0,.7.04,2.45.04h2.38c.42-.79.81-1.79,1.07-2.66h-4.38c-1.65,0-2.21.04-2.29.04-.12,0-.14-.02-.14-.12v-.79c0-.12.02-.14.14-.14.09,0,.65.04,2.29.04h10.36c1.64,0,2.19-.04,2.29-.04.12,0,.14.02.14.14v.79Zm-10.43,3.68h-2.94v8.23h2.94v-8.23Zm4.58,0h-3.59v2.1h3.59v-2.1Zm0,2.97h-3.59v2.15h3.59v-2.15Zm0,3.03h-3.59v2.22h3.59v-2.22Zm3.97-6h-2.96v8.23h2.96v-8.23Z" style="fill:gray;"/><polygon points="495.97 383.07 484.38 376.38 484.38 380.46 470.83 380.46 470.83 385.69 484.38 385.69 484.38 389.77 495.97 383.07" style="fill:gray;"/><path d="m48.32,380.75c0,.12-.02.14-.14.14-.09,0-.56-.04-2.07-.04h-2.97c-1.49,0-2,.04-2.08.04-.11,0-.12-.02-.12-.14v-.61c0-.12.02-.14.12-.14.09,0,.59.04,2.08.04h1.17v-1.22h-.52c-1.26,0-1.66.04-1.75.04-.12,0-.14-.02-.14-.14v-.59c0-.1.02-.12.14-.12.09,0,.49.04,1.75.04h.52v-1.16h-.77c-1.42,0-1.86.04-1.96.04-.12,0-.14-.02-.14-.14v-.61c0-.12.02-.14.14-.14.1,0,.54.04,1.96.04h.77v-.05c0-.93-.02-1.4-.12-1.87.42.02.74.05,1.07.11.14.02.23.09.23.14,0,.14-.07.21-.12.33-.07.19-.09.49-.09,1.29v.05h.77c1.42,0,1.85-.04,1.96-.04s.12.02.12.14v.61c0,.12-.02.14-.12.14s-.54-.04-1.96-.04h-.77v1.16h.47c1.28,0,1.66-.04,1.77-.04.12,0,.14.02.14.12v.59c0,.12-.02.14-.14.14-.1,0-.49-.04-1.77-.04h-.47v1.22h.84c1.51,0,1.98-.04,2.07-.04.12,0,.14.02.14.14v.61Zm-2.59,1.19c1.24,0,1.65-.04,1.73-.04.12,0,.14.02.14.14,0,.09-.04.7-.04,2.05v2.13c0,.89.02,1.84.02,2.21,0,.46-.07.84-.37,1.07-.31.21-.56.3-1.68.3-.35,0-.37.02-.46-.35-.05-.23-.16-.46-.26-.65.38.04.7.07,1.12.07.58,0,.68-.17.68-.65v-1.31h-3.62v.96c0,1.31.02,1.87.02,1.96,0,.11,0,.12-.12.12h-.74c-.12,0-.14-.02-.14-.12s.03-.58.03-1.92v-3.9c0-1.35-.03-1.85-.03-1.96,0-.12.02-.14.14-.14.11,0,.51.04,1.73.04h1.84Zm.89.84h-3.62v1.24h3.62v-1.24Zm0,2.07h-3.62v1.24h3.62v-1.24Zm10.17-2.49c0,.12-.02.14-.12.14-.07,0-.38-.02-1.14-.04v1.71c0,1.28.04,1.71.04,1.82s-.02.12-.14.12h-.7c-.12,0-.14-.02-.14-.12v-.68h-2.08v.37c0,.75.02,1.77.02,2.38,0,.79-.09,1.12-.44,1.4-.26.23-.79.32-1.93.3-.35,0-.35.02-.44-.35-.07-.26-.17-.49-.33-.7.37.05.75.07,1.28.07.65,0,.86-.14.86-.84v-2.63h-.44c-1.47,0-1.94.04-2.03.04-.12,0-.14-.02-.14-.14v-.65c0-.12.02-.14.14-.14.09,0,.56.04,2.03.04h.44v-1.99h-.8c-1.61,0-2.15.04-2.24.04-.12,0-.14-.02-.14-.14v-.67c0-.12.02-.14.14-.14.09,0,.63.04,2.24.04h.8v-1.93h-.28c-1.38,0-1.79.04-1.87.04-.12,0-.14-.02-.14-.12v-.66c0-.12.02-.14.14-.14.09,0,.49.04,1.87.04h.65c.46-.63.86-1.35,1.19-2.1h-2.26c-.51.79-1.07,1.49-1.87,2.28-.12.12-.18.17-.25.17-.05,0-.11-.05-.23-.17-.17-.17-.33-.28-.54-.39,1.19-1.01,2-2.1,2.61-3.34.21-.44.35-.82.38-1.1.37.09.67.16.95.26.12.03.19.09.19.17s-.05.16-.16.25c-.09.07-.21.28-.4.66l-.21.39h1.98c.18,0,.16-.02.23-.05.07-.04.11-.05.16-.05.12,0,.23.05.49.28.26.23.32.33.32.42,0,.11-.05.19-.17.26-.12.07-.25.25-.33.4-.3.59-.65,1.14-1,1.66h.54c1.38,0,1.84-.04,1.93-.04.12,0,.14.02.14.14,0,.09-.04.52-.04,1.82v.86c.75,0,1.07-.04,1.14-.04.11,0,.12.02.12.14v.67Zm-2.21-2.7h-2.08v1.93h2.08v-1.93Zm0,2.8h-2.08v1.99h2.08v-1.99Z" style="fill:gray;"/><path d="m70.47,375.18c1.75,0,2.34-.04,2.45-.04.12,0,.14.02.14.14,0,.09-.04,1.19-.04,3.55v6.69c0,1.4.02,2.24.02,2.8,0,.51-.09.88-.42,1.15-.26.21-.75.33-2.1.33-.33,0-.35,0-.42-.33-.07-.28-.21-.61-.35-.82.51.05,1.07.07,1.56.07.46,0,.65-.19.65-.7v-11.87h-11.5v10.41c0,2.19.04,3.17.04,3.25,0,.12-.02.14-.14.14h-.86c-.12,0-.14-.02-.14-.14,0-.1.04-1.1.04-3.5v-7.51c0-2.42-.04-3.45-.04-3.54,0-.12.02-.14.14-.14.1,0,.7.04,2.45.04h8.52Zm.61,5.74c0,.12-.02.14-.16.14-.09,0-.65-.04-2.31-.04h-1.98v4.9h2.4v-1.49c0-.82,0-1.29-.12-1.77.42.02.84.05,1.08.09.12.02.19.07.19.16s-.02.16-.07.24c-.07.12-.1.33-.1,1.29v1.73c0,.82.04,1.17.04,1.26,0,.12-.02.14-.14.14h-.73c-.12,0-.14-.02-.14-.14v-.65h-5.65v1.08c0,.12-.02.14-.14.14h-.74c-.12,0-.14-.02-.14-.14,0-.1.04-.45.04-1.36v-2.03c0-.93-.02-1.33-.11-1.79.37.02.79.05,1.07.11.14.02.21.07.21.12,0,.12-.05.21-.1.33-.07.16-.09.4-.09,1.22v1.44h2.28v-4.9h-1.84c-1.7,0-2.24.04-2.34.04-.12,0-.14-.02-.14-.14v-.68c0-.12.02-.14.14-.14.1,0,.65.04,2.34.04h2.98c.53-.91.89-1.63,1.23-2.4.1-.24.19-.52.28-.89.33.11.68.25.96.4.12.07.17.1.17.21,0,.09-.09.16-.16.21-.09.07-.17.17-.3.42-.28.56-.68,1.31-1.14,2.05h.77c1.66,0,2.22-.04,2.31-.04.14,0,.16.02.16.14v.68Zm-7.46-3.92c.17-.09.19-.11.28,0,.46.61.84,1.29,1.17,2.01.05.12.02.16-.19.26l-.42.21c-.23.12-.26.12-.32,0-.3-.7-.63-1.37-1.08-2.01-.07-.11-.05-.14.14-.25l.42-.23Z" style="fill:gray;"/><path d="m91.37,378.37c0,.12-.02.14-.14.14-.09,0-.63-.03-2.28-.03h-6.23c-.04.98-.1,1.85-.21,2.68h4.41c1.49,0,1.96-.04,2.05-.04.12,0,.17.05.16.19-.04.4-.05.82-.09,1.23-.17,2.61-.38,4.27-.63,5.29-.33,1.35-.91,1.8-2.17,1.8-.33,0-1.03-.04-1.68-.11q-.33-.04-.37-.4c-.04-.3-.12-.63-.25-.82,1.01.17,1.82.21,2.22.21.67,0,.98-.37,1.16-1.07.26-1.03.47-2.94.59-5.25h-5.55c-.63,3.52-2.14,5.65-5.37,7.47-.12.07-.21.1-.26.1-.11,0-.16-.09-.28-.28-.16-.23-.38-.4-.63-.56,4.2-2.06,5.65-4.67,5.74-10.45h-3.08c-1.63,0-2.19.03-2.28.03-.12,0-.14-.02-.14-.14v-.8c0-.12.02-.14.14-.14.09,0,.65.04,2.28.04h4.52v-1.35c0-.89-.02-1.38-.12-1.8.42,0,.88.04,1.21.09.14.02.21.07.21.14,0,.12-.05.21-.1.33-.07.17-.09.44-.09,1.22v1.37h4.85c1.65,0,2.19-.04,2.28-.04.12,0,.14.02.14.14v.8Z" style="fill:gray;"/><path d="m108.78,376.02c0,.11-.02.12-.14.12-.11,0-.65-.04-2.29-.04h-4.85c-.26.88-.63,1.8-1.08,2.66h5.01c1.75,0,2.34-.04,2.45-.04.12,0,.14.02.14.14,0,.1-.03.77-.03,3.2v3.05c0,3.87.03,4.5.03,4.6,0,.12-.02.14-.14.14h-.82c-.12,0-.14-.02-.14-.14v-.86h-11.5v.88c0,.12-.02.14-.14.14h-.8c-.12,0-.14-.02-.14-.14,0-.1.04-.74.04-4.62v-2.73c0-2.75-.04-3.41-.04-3.52,0-.12.02-.14.14-.14.1,0,.7.04,2.45.04h2.38c.42-.79.81-1.79,1.07-2.66h-4.38c-1.65,0-2.21.04-2.29.04-.12,0-.14-.02-.14-.12v-.79c0-.12.02-.14.14-.14.09,0,.65.04,2.29.04h10.36c1.64,0,2.19-.04,2.29-.04.12,0,.14.02.14.14v.79Zm-10.43,3.68h-2.94v8.23h2.94v-8.23Zm4.58,0h-3.59v2.1h3.59v-2.1Zm0,2.97h-3.59v2.15h3.59v-2.15Zm0,3.03h-3.59v2.22h3.59v-2.22Zm3.97-6h-2.96v8.23h2.96v-8.23Z" style="fill:gray;"/><polygon points="9.26 383.07 20.86 376.38 20.86 380.46 34.4 380.46 34.4 385.69 20.86 385.69 20.86 389.77 9.26 383.07" style="fill:gray;"/><rect x="211.19" y="2.49" width="98.76" height="41.9" style="fill:#e6e6e6;"/><rect x="11.67" y="199.15" width="98.76" height="116.78" style="fill:#e6e6e6;"/><path d="m235.6,22.38c.37-.89.54-1.4.56-1.98.58.19,1.08.38,1.38.58.24.14.19.33.03.49-.19.19-.37.44-.61,1-.84,1.91-2.03,3.87-3.96,5.76-.17.17-.39.21-.54.07-.19-.17-.54-.35-.96-.46,2.07-1.75,3.43-3.83,4.1-5.46Zm5.71-1.8c.16-.09.23-.1.37.04,1.87,1.85,3.34,4.15,4.38,6.28.09.16.09.26-.07.37-.19.14-.51.39-.82.54-.16.09-.21.05-.28-.1-1.07-2.43-2.47-4.66-4.34-6.6.3-.21.59-.42.77-.52Zm1.96-2.19c.07-.05.12-.05.19,0,.7.49,1.47,1.35,1.98,2.12.05.07.04.14-.04.19l-.51.42c-.09.07-.18.05-.23-.04-.51-.86-1.24-1.68-2.03-2.24l.63-.45Zm1.47-1.16c.07-.05.12-.07.19-.02.7.54,1.49,1.31,2,2.05.05.09.03.14-.05.21l-.47.42c-.07.07-.14.07-.21-.04-.44-.72-1.19-1.58-2.01-2.19l.56-.44Z" style="fill:gray;"/><path d="m250.67,18.82c.12-.12.21-.1.31-.04.98.54,2.14,1.37,3.15,2.33.12.12.14.19.05.33-.14.21-.46.61-.59.75-.11.12-.16.14-.28.02-1.03-1.02-2.19-1.91-3.33-2.59.23-.28.49-.59.68-.8Zm1.58,9.28c1.89-1,3.43-1.94,5.06-3.26,1.77-1.45,3.22-2.75,4.73-4.71.07.49.17.82.3,1.16.1.23.09.37-.12.61-1.17,1.38-2.71,2.78-4.25,4.03-1.49,1.19-3.24,2.31-5.25,3.41-.47.28-.81.54-.96.68-.17.16-.32.16-.47-.02-.26-.28-.58-.7-.86-1.19.68-.19,1.21-.4,1.84-.72Z" style="fill:gray;"/><path d="m274.26,19.49c.59-.02.79-.07.93-.19.16-.14.3-.14.47-.03.23.14.54.46.75.7.14.18.11.33-.07.47-.16.12-.28.25-.42.53-.75,1.63-1.73,3.27-2.78,4.64.7.56,1.42,1.19,2.1,1.93.11.1.05.19-.02.31-.12.21-.38.46-.58.6-.14.1-.19.09-.28-.02-.59-.68-1.29-1.37-1.96-1.93-1.8,2.05-3.73,3.5-6.07,4.78-.19.1-.32.14-.47-.02-.28-.25-.61-.42-.98-.56,2.66-1.33,4.81-2.89,6.58-4.92-.74-.6-1.71-1.23-2.75-1.79.19-.26.39-.49.61-.7.09-.09.14-.12.28-.05.79.4,1.77,1.05,2.61,1.65.98-1.24,1.94-2.87,2.55-4.36l-5.16.11c-1.21,1.65-2.15,2.69-3.82,4.06-.17.14-.3.18-.46.05-.23-.19-.51-.35-.84-.49,2.42-1.84,3.96-3.76,5.01-5.65.4-.72.56-1.16.7-1.73.42.12.88.35,1.24.6.21.14.16.35-.04.49-.21.16-.38.39-.51.6-.19.33-.35.6-.63,1.02l3.99-.07Zm1.82-2.54c.07-.05.12-.05.19,0,.7.49,1.47,1.35,1.98,2.12.05.07.04.14-.04.19l-.51.42c-.09.07-.17.05-.23-.04-.51-.86-1.24-1.68-2.03-2.24l.63-.46Zm1.47-1.15c.07-.05.12-.07.19-.02.7.54,1.49,1.31,2,2.05.05.09.04.14-.05.21l-.47.42c-.07.07-.14.07-.21-.04-.44-.72-1.19-1.58-2.01-2.19l.56-.44Z" style="fill:gray;"/><path d="m287.18,27.66c0,1.05.02,2.05.05,3.17.02.16-.04.21-.17.21-.32.02-.7.02-1.02,0-.14,0-.17-.05-.17-.21.04-1.05.07-2.1.07-3.12v-5.18c-1.84,1.63-3.55,2.82-5.5,3.96-.16.09-.28.05-.4-.07-.23-.23-.54-.4-.88-.56,2.17-1.19,3.99-2.45,5.44-3.69,1.33-1.14,2.57-2.38,3.39-3.38.74-.89,1.05-1.42,1.21-1.98.47.24.95.52,1.21.79.17.17.14.38-.07.49s-.54.42-.98.93c-.73.89-1.37,1.59-2.19,2.42v6.23Z" style="fill:gray;"/><path d="m40.33,255.78h-1.45v-7.58c0-1.47.04-2.68.04-4.08h-.3c-.37,1.37-.68,2.52-1.14,3.97l-2.43,7.68h-1.94l-2.38-7.67c-.44-1.38-.75-2.57-1.17-3.99h-.3c-.02,1.4.04,2.62.04,4.09v7.56h-1.37v-12.9h2.55l2.31,7.6c.38,1.28.77,2.61,1.17,3.94h.3c.45-1.35.79-2.54,1.21-3.9l2.35-7.63h2.52v12.9Z" style="fill:gray;"/><path d="m52.81,255.78h-1.59l-1.24-4.1h-4.6l-1.29,4.1h-1.49l4.15-12.9h1.92l4.15,12.9Zm-4.13-8.42c-.33-1.08-.59-2.08-.91-3.31h-.26c-.3,1.23-.56,2.21-.89,3.29l-.94,3.15h3.97l-.96-3.13Z" style="fill:gray;"/><path d="m59.41,242.89c3.05,0,4.43,1.24,4.43,3.38,0,1.59-.91,2.84-2.73,3.26l3.08,6.27h-1.68l-2.84-6.02h-3.12v6.02h-1.49v-12.9h4.34Zm-2.85,5.69h2.66c2.15,0,3.06-.84,3.06-2.29s-.81-2.17-2.96-2.17h-2.77v4.46Z" style="fill:gray;"/><path d="m71.06,248.08l5.2,7.7h-1.79l-4.41-6.67-1.98,2.08v4.59h-1.5v-12.9h1.5v6.6l5.86-6.6h1.82l-4.71,5.2Z" style="fill:gray;"/><path d="m85.19,255.78h-1.52v-12.9h1.52v12.9Z" style="fill:gray;"/><path d="m94.96,246.18c-.46-1.58-1.42-2.28-2.73-2.28-1.61,0-2.59.82-2.59,2.08,0,1.35.65,1.96,2.68,2.47l.56.16c3.08.79,3.85,1.89,3.85,3.75,0,2.19-1.58,3.68-4.45,3.68-2.38,0-4.03-1.1-4.66-3.24l1.5-.53c.42,1.68,1.63,2.52,3.12,2.52,2.01,0,2.92-.95,2.92-2.26s-.51-1.98-2.89-2.61l-.51-.16c-2.8-.75-3.66-1.8-3.66-3.71,0-1.79,1.4-3.4,4.08-3.4,2.08,0,3.61.96,4.29,3.06l-1.52.46Z" style="fill:gray;"/><path d="m52.94,270.74c0,.12-.02.14-.14.14-.09,0-.56-.04-2.07-.04h-2.97c-1.49,0-2,.04-2.08.04-.11,0-.12-.02-.12-.14v-.61c0-.12.02-.14.12-.14.09,0,.59.04,2.08.04h1.17v-1.22h-.52c-1.26,0-1.66.03-1.75.03-.12,0-.14-.02-.14-.14v-.59c0-.11.02-.12.14-.12.09,0,.49.04,1.75.04h.52v-1.16h-.77c-1.42,0-1.86.04-1.96.04-.12,0-.14-.02-.14-.14v-.61c0-.12.02-.14.14-.14.1,0,.54.04,1.96.04h.77v-.05c0-.93-.02-1.4-.12-1.87.42.02.74.05,1.07.11.14.02.23.09.23.14,0,.14-.07.21-.12.33-.07.19-.09.49-.09,1.29v.05h.77c1.42,0,1.85-.04,1.96-.04s.12.02.12.14v.61c0,.12-.02.14-.12.14s-.54-.04-1.96-.04h-.77v1.16h.47c1.28,0,1.66-.04,1.77-.04.12,0,.14.02.14.12v.59c0,.12-.02.14-.14.14-.1,0-.49-.03-1.77-.03h-.47v1.22h.84c1.51,0,1.98-.04,2.07-.04.12,0,.14.02.14.14v.61Zm-2.59,1.19c1.24,0,1.65-.04,1.73-.04.12,0,.14.02.14.14,0,.09-.04.7-.04,2.05v2.13c0,.89.02,1.84.02,2.21,0,.46-.07.84-.37,1.07-.31.21-.56.3-1.68.3-.35,0-.37.02-.46-.35-.05-.23-.16-.46-.26-.65.38.04.7.07,1.12.07.58,0,.68-.18.68-.65v-1.31h-3.62v.96c0,1.31.02,1.87.02,1.96,0,.11,0,.12-.12.12h-.74c-.12,0-.14-.02-.14-.12s.03-.58.03-1.92v-3.9c0-1.35-.03-1.85-.03-1.96,0-.12.02-.14.14-.14.11,0,.51.04,1.73.04h1.84Zm.89.84h-3.62v1.24h3.62v-1.24Zm0,2.07h-3.62v1.24h3.62v-1.24Zm10.17-2.49c0,.12-.02.14-.12.14-.07,0-.38-.02-1.14-.04v1.72c0,1.28.04,1.71.04,1.82s-.02.12-.14.12h-.7c-.12,0-.14-.02-.14-.12v-.68h-2.08v.37c0,.75.02,1.77.02,2.38,0,.79-.09,1.12-.44,1.4-.26.23-.79.32-1.93.3-.35,0-.35.02-.44-.35-.07-.26-.17-.49-.33-.7.37.05.75.07,1.28.07.65,0,.86-.14.86-.84v-2.63h-.44c-1.47,0-1.94.04-2.03.04-.12,0-.14-.02-.14-.14v-.65c0-.12.02-.14.14-.14.09,0,.56.04,2.03.04h.44v-2h-.8c-1.61,0-2.15.04-2.24.04-.12,0-.14-.02-.14-.14v-.67c0-.12.02-.14.14-.14.09,0,.63.04,2.24.04h.8v-1.92h-.28c-1.38,0-1.79.04-1.87.04-.12,0-.14-.02-.14-.12v-.67c0-.12.02-.14.14-.14.09,0,.49.04,1.87.04h.65c.46-.63.86-1.35,1.19-2.1h-2.26c-.51.79-1.07,1.49-1.87,2.28-.12.12-.18.17-.25.17-.05,0-.11-.05-.23-.17-.17-.17-.33-.28-.54-.39,1.19-1.01,2-2.1,2.61-3.34.21-.44.35-.82.38-1.1.37.09.67.16.95.26.12.04.19.09.19.17s-.05.16-.16.25c-.09.07-.21.28-.4.67l-.21.39h1.98c.18,0,.16-.02.23-.05.07-.04.11-.05.16-.05.12,0,.23.05.49.28.26.23.32.33.32.42,0,.1-.05.19-.17.26-.12.07-.25.25-.33.4-.3.59-.65,1.14-1,1.66h.54c1.38,0,1.84-.04,1.93-.04.12,0,.14.02.14.14,0,.09-.04.53-.04,1.82v.86c.75,0,1.07-.04,1.14-.04.11,0,.12.02.12.14v.67Zm-2.21-2.7h-2.08v1.92h2.08v-1.92Zm0,2.8h-2.08v2h2.08v-2Z" style="fill:gray;"/><path d="m74.86,265.18c1.75,0,2.34-.04,2.45-.04.12,0,.14.02.14.14,0,.09-.04,1.19-.04,3.55v6.69c0,1.4.02,2.24.02,2.8,0,.51-.09.88-.42,1.16-.26.21-.75.33-2.1.33-.33,0-.35,0-.42-.33-.07-.28-.21-.61-.35-.82.51.05,1.07.07,1.56.07.46,0,.65-.19.65-.7v-11.87h-11.5v10.41c0,2.19.04,3.17.04,3.25,0,.12-.02.14-.14.14h-.86c-.12,0-.14-.02-.14-.14,0-.1.04-1.1.04-3.5v-7.51c0-2.42-.04-3.45-.04-3.54,0-.12.02-.14.14-.14.1,0,.7.04,2.45.04h8.52Zm.61,5.74c0,.12-.02.14-.16.14-.09,0-.65-.03-2.31-.03h-1.98v4.9h2.4v-1.49c0-.82,0-1.29-.12-1.77.42.02.84.05,1.08.09.12.02.19.07.19.16s-.02.16-.07.25c-.07.12-.1.33-.1,1.29v1.73c0,.82.04,1.17.04,1.26,0,.12-.02.14-.14.14h-.73c-.12,0-.14-.02-.14-.14v-.65h-5.65v1.08c0,.12-.02.14-.14.14h-.74c-.12,0-.14-.02-.14-.14,0-.11.04-.46.04-1.37v-2.03c0-.93-.02-1.33-.11-1.79.37.02.79.05,1.07.11.14.02.21.07.21.12,0,.12-.05.21-.1.33-.07.16-.09.4-.09,1.22v1.44h2.28v-4.9h-1.84c-1.7,0-2.24.03-2.34.03-.12,0-.14-.02-.14-.14v-.68c0-.12.02-.14.14-.14.1,0,.65.04,2.34.04h2.98c.53-.91.89-1.63,1.23-2.4.1-.25.19-.52.28-.89.33.11.68.25.96.4.12.07.17.1.17.21,0,.09-.09.16-.16.21-.09.07-.17.17-.3.42-.28.56-.68,1.31-1.14,2.05h.77c1.66,0,2.22-.04,2.31-.04.14,0,.16.02.16.14v.68Zm-7.46-3.92c.17-.09.19-.11.28,0,.46.61.84,1.29,1.17,2.01.05.12.02.16-.19.26l-.42.21c-.23.12-.26.12-.32,0-.3-.7-.63-1.37-1.08-2.01-.07-.1-.05-.14.14-.24l.42-.23Z" style="fill:gray;"/><rect x="123.71" y="337.78" width="104.22" height="32.41" style="fill:#fff; stroke:#545454; stroke-miterlimit:10; stroke-width:.5px;"/><path d="m137.57,356.59c0,2.47-1.61,3.45-3.45,3.45-.37,0-.77-.04-1.21-.07l-.07-1.24c.46.07.82.09,1.21.09,1.08,0,2-.75,2-2.4v-9.52h1.52v9.7Z" style="fill:gray;"/><path d="m145.27,346.89c3.04,0,4.43,1.24,4.43,3.38,0,1.59-.91,2.83-2.73,3.25l3.08,6.27h-1.68l-2.84-6.02h-3.12v6.02h-1.49v-12.9h4.34Zm-2.85,5.69h2.66c2.15,0,3.06-.84,3.06-2.29s-.81-2.17-2.96-2.17h-2.77v4.46Z" style="fill:gray;"/><path d="m160.81,356.06c1.96,1.86,4.57,3.04,7.51,3.85-.19.19-.35.4-.49.68-.16.33-.17.31-.47.21-2.42-.84-5.15-2.1-7.18-4.38,0,2.59.14,4.52.14,4.76,0,.12-.02.12-.14.12h-.89c-.12,0-.14,0-.14-.12,0-.25.1-2.1.12-4.64-1.59,1.92-3.99,3.2-6.62,4.22-.12.05-.21.09-.26.09-.11,0-.16-.09-.25-.28-.12-.26-.28-.44-.46-.61,2.77-.81,5.15-2.07,6.93-3.9h-1.87c-1.77,0-2.4.04-2.49.04-.12,0-.14-.02-.14-.14,0-.11.04-.49.04-1.65v-2.52c0-1.16-.04-1.56-.04-1.65,0-.12.02-.14.14-.14.09,0,.72.04,2.49.04h2.45v-1.54h-4.66c-1.63,0-2.15.04-2.26.04-.12,0-.14-.02-.14-.14v-.72c0-.12.02-.14.14-.14.11,0,.63.04,2.26.04h4.66v-.11c0-.98,0-1.29-.12-1.92.42,0,.8.04,1.16.09.14.02.23.09.23.14,0,.14-.05.23-.11.35-.07.21-.1.51-.1,1.38v.07h5.06c1.63,0,2.15-.04,2.26-.04s.12.02.12.14v.72c0,.12-.02.14-.12.14s-.63-.04-2.26-.04h-5.06v1.54h2.78c1.79,0,2.42-.04,2.5-.04.12,0,.14.02.14.14,0,.09-.04.49-.04,1.65v2.52c0,1.16.04,1.56.04,1.65,0,.12-.02.14-.14.14-.09,0-.72-.04-2.5-.04h-2.22Zm-1.61-5.18h-4.03v1.7h4.03v-1.7Zm0,2.52h-4.03v1.82h4.03v-1.82Zm5.43-2.52h-4.38v1.7h4.38v-1.7Zm0,2.52h-4.38v1.82h4.38v-1.82Z" style="fill:gray;"/><path d="m176.9,352.13c0,.12-.02.14-.14.14-.09,0-.56-.04-2.07-.04h-2.98c-1.49,0-2,.04-2.08.04-.11,0-.12-.02-.12-.14v-.61c0-.12.02-.14.12-.14.09,0,.59.04,2.08.04h1.17v-1.23h-.53c-1.26,0-1.66.04-1.75.04-.12,0-.14-.02-.14-.14v-.6c0-.1.02-.12.14-.12.09,0,.49.04,1.75.04h.53v-1.16h-.77c-1.42,0-1.86.04-1.96.04-.12,0-.14-.02-.14-.14v-.61c0-.12.02-.14.14-.14.11,0,.54.04,1.96.04h.77v-.05c0-.93-.02-1.4-.12-1.87.42.02.73.05,1.07.11.14.02.23.09.23.14,0,.14-.07.21-.12.33-.07.19-.09.49-.09,1.29v.05h.77c1.42,0,1.86-.04,1.96-.04s.12.02.12.14v.61c0,.12-.02.14-.12.14s-.54-.04-1.96-.04h-.77v1.16h.47c1.28,0,1.66-.04,1.77-.04.12,0,.14.02.14.12v.6c0,.12-.02.14-.14.14-.11,0-.49-.04-1.77-.04h-.47v1.23h.84c1.5,0,1.98-.04,2.07-.04.12,0,.14.02.14.14v.61Zm-2.59,1.19c1.24,0,1.64-.04,1.73-.04.12,0,.14.02.14.14,0,.09-.03.7-.03,2.05v2.13c0,.89.02,1.84.02,2.21,0,.46-.07.84-.37,1.07-.31.21-.56.3-1.68.3-.35,0-.37.02-.46-.35-.05-.23-.16-.46-.26-.65.38.04.7.07,1.12.07.58,0,.68-.17.68-.65v-1.31h-3.62v.96c0,1.31.02,1.87.02,1.96,0,.11,0,.12-.12.12h-.73c-.12,0-.14-.02-.14-.12s.04-.58.04-1.92v-3.9c0-1.35-.04-1.86-.04-1.96,0-.12.02-.14.14-.14.1,0,.51.04,1.73.04h1.84Zm.89.84h-3.62v1.24h3.62v-1.24Zm0,2.06h-3.62v1.24h3.62v-1.24Zm10.17-2.49c0,.12-.02.14-.12.14-.07,0-.38-.02-1.14-.04v1.71c0,1.28.04,1.72.04,1.82s-.02.12-.14.12h-.7c-.12,0-.14-.02-.14-.12v-.68h-2.08v.37c0,.75.02,1.77.02,2.38,0,.79-.09,1.12-.44,1.4-.26.23-.79.31-1.92.3-.35,0-.35.02-.44-.35-.07-.26-.17-.49-.33-.7.37.05.75.07,1.28.07.65,0,.86-.14.86-.84v-2.63h-.44c-1.47,0-1.94.04-2.03.04-.12,0-.14-.02-.14-.14v-.65c0-.12.02-.14.14-.14.09,0,.56.04,2.03.04h.44v-2h-.8c-1.61,0-2.15.04-2.24.04-.12,0-.14-.02-.14-.14v-.67c0-.12.02-.14.14-.14.09,0,.63.04,2.24.04h.8v-1.93h-.28c-1.38,0-1.79.04-1.87.04-.12,0-.14-.02-.14-.12v-.67c0-.12.02-.14.14-.14.09,0,.49.04,1.87.04h.65c.46-.63.86-1.35,1.19-2.1h-2.26c-.51.79-1.07,1.49-1.87,2.28-.12.12-.17.17-.24.17-.05,0-.11-.05-.23-.17-.18-.18-.33-.28-.54-.39,1.19-1.01,2-2.1,2.61-3.34.21-.44.35-.82.39-1.1.37.09.67.16.94.26.12.04.19.09.19.17s-.05.16-.16.25c-.09.07-.21.28-.4.67l-.21.38h1.98c.17,0,.16-.02.23-.05.07-.04.11-.05.16-.05.12,0,.23.05.49.28s.32.33.32.42c0,.1-.05.19-.17.26-.12.07-.25.24-.33.4-.3.59-.65,1.14-1,1.66h.54c1.38,0,1.84-.04,1.93-.04.12,0,.14.02.14.14,0,.09-.04.52-.04,1.82v.86c.75,0,1.07-.04,1.14-.04.11,0,.12.02.12.14v.67Zm-2.21-2.7h-2.08v1.93h2.08v-1.93Zm0,2.8h-2.08v2h2.08v-2Z" style="fill:gray;"/><path d="m198.81,346.56c1.75,0,2.34-.03,2.45-.03.12,0,.14.02.14.14,0,.09-.03,1.19-.03,3.55v6.69c0,1.4.02,2.24.02,2.8,0,.51-.09.88-.42,1.16-.26.21-.75.33-2.1.33-.33,0-.35,0-.42-.33-.07-.28-.21-.61-.35-.82.51.05,1.07.07,1.56.07.46,0,.65-.19.65-.7v-11.87h-11.5v10.41c0,2.19.03,3.17.03,3.25,0,.12-.02.14-.14.14h-.86c-.12,0-.14-.02-.14-.14,0-.1.03-1.1.03-3.5v-7.51c0-2.42-.03-3.45-.03-3.54,0-.12.02-.14.14-.14.1,0,.7.03,2.45.03h8.52Zm.61,5.74c0,.12-.02.14-.16.14-.09,0-.65-.04-2.31-.04h-1.98v4.9h2.4v-1.49c0-.82,0-1.29-.12-1.77.42.02.84.05,1.08.09.12.02.19.07.19.16s-.02.16-.07.25c-.07.12-.11.33-.11,1.29v1.73c0,.82.04,1.17.04,1.26,0,.12-.02.14-.14.14h-.73c-.12,0-.14-.02-.14-.14v-.65h-5.65v1.08c0,.12-.02.14-.14.14h-.73c-.12,0-.14-.02-.14-.14,0-.11.04-.46.04-1.37v-2.03c0-.93-.02-1.33-.11-1.79.37.02.79.05,1.07.1.14.02.21.07.21.12,0,.12-.05.21-.11.33-.07.16-.09.4-.09,1.23v1.43h2.27v-4.9h-1.84c-1.7,0-2.24.04-2.35.04-.12,0-.14-.02-.14-.14v-.68c0-.12.02-.14.14-.14.11,0,.65.03,2.35.03h2.97c.53-.91.89-1.63,1.23-2.4.1-.25.19-.53.28-.89.33.11.68.25.96.4.12.07.18.11.18.21,0,.09-.09.16-.16.21-.09.07-.17.18-.3.42-.28.56-.68,1.31-1.14,2.05h.77c1.66,0,2.22-.03,2.31-.03.14,0,.16.02.16.14v.68Zm-7.46-3.92c.17-.09.19-.1.28,0,.46.61.84,1.3,1.17,2.01.05.12.02.16-.19.26l-.42.21c-.23.12-.26.12-.32,0-.3-.7-.63-1.37-1.08-2.01-.07-.1-.05-.14.14-.25l.42-.23Z" style="fill:gray;"/><path d="m205.28,355.85q.21.07.19.21c-.09,1.31-.25,2.5-.77,3.69-.05.12-.09.12-.25.02l-.42-.28c-.14-.09-.16-.11-.1-.23.44-.98.67-2.05.77-3.45.02-.14.04-.14.26-.07l.32.11Zm5.93-8.72c0,.12-.02.14-.14.14-.09,0-.51-.04-1.72-.04h-.73v1.68h.26c1.26,0,1.63-.04,1.71-.04.12,0,.14.02.14.14v.6c0,.12-.02.14-.14.14-.09,0-.46-.04-1.71-.04h-.26v1.68h.26c1.26,0,1.63-.04,1.71-.04.12,0,.14.02.14.14v.6c0,.12-.02.14-.14.14-.09,0-.46-.04-1.71-.04h-.26v1.75h.61c1.17,0,1.52-.03,1.63-.03s.16.03.14.16c-.02.33-.04.65-.05.98-.12,2.84-.44,4.2-.73,4.88-.3.61-.88.96-1.52.96-.3,0-.7-.02-1-.03-.21-.02-.25-.02-.3-.37-.05-.3-.12-.49-.23-.7.54.07,1.07.11,1.37.11.4,0,.65-.19.82-.51.28-.49.54-1.79.65-4.62h-3.17c-1.3,0-1.73.04-1.87.04-.12,0-.14-.02-.14-.16,0-.09.03-.68.03-1.87v-4.2c0-1.43-.03-2.01-.03-2.12,0-.12.02-.14.14-.14.14,0,.58.04,1.87.04h2.52c1.21,0,1.63-.04,1.72-.04.12,0,.14.02.14.14v.67Zm-3.5.1h-1.91v1.68h1.91v-1.68Zm0,2.49h-1.91v1.68h1.91v-1.68Zm0,2.49h-1.91v1.75h1.91v-1.75Zm-1.35,3.64c.16-.04.19-.04.21.07.19.93.3,1.79.35,2.8,0,.16-.02.17-.17.23l-.37.12c-.16.05-.19.05-.19-.11-.04-1.07-.12-1.92-.3-2.85-.04-.14,0-.14.14-.17l.33-.09Zm1.17-.12c.14-.05.17-.05.21.07.23.7.4,1.47.52,2.36.02.12,0,.14-.14.19l-.3.12c-.16.07-.19.05-.21-.07-.1-.91-.25-1.72-.47-2.42-.04-.12-.02-.12.12-.17l.26-.09Zm1.08-.19c.14-.05.17-.05.23.05.25.51.44,1.07.61,1.79.02.11,0,.12-.12.17l-.26.12c-.14.07-.18.05-.19-.05-.16-.72-.35-1.35-.58-1.82-.05-.1-.04-.12.11-.17l.21-.09Zm7.42-2.96c.35,3.13,1.43,5.95,3.76,7.75-.21.14-.42.32-.61.58-.11.14-.16.21-.21.21s-.1-.05-.23-.16c-2.27-2-3.29-4.85-3.69-8.38h-1.75c-.04,1.17-.11,2.19-.23,3.27-.23,1.77-.75,3.64-1.86,5.13-.09.12-.14.19-.19.19s-.11-.07-.23-.17c-.21-.21-.46-.37-.68-.47,1.26-1.38,1.73-3.13,1.98-5.08.23-1.75.23-3.52.23-6.21,0-1.63-.04-2.33-.04-2.42,0-.12.02-.14.14-.14.1,0,.54.04,1.96.04h2.33c1.38,0,1.85-.04,1.94-.04.12,0,.14.02.14.14,0,.09-.04.54-.04,1.75v2.96c0,1.23.04,1.61.04,1.72,0,.12-.02.14-.14.14h-.75c-.12,0-.14-.02-.14-.14v-.67h-1.73Zm1.73-4.94h-4.43v1.71c0,.88,0,1.63-.02,2.31h4.45v-4.03Z" style="fill:gray;"/><line x1="7.5" y1="184.66" x2="489.88" y2="184.66" style="fill:none; stroke:#e6e6e6; stroke-linecap:round; stroke-miterlimit:10; stroke-width:15px;"/><line x1="7.5" y1="86.97" x2="489.88" y2="86.97" style="fill:none; stroke:#e6e6e6; stroke-linecap:round; stroke-miterlimit:10; stroke-width:15px;"/><line x1="262.07" y1="89.28" x2="262.07" y2="179" style="fill:none; stroke:#e6e6e6; stroke-linecap:round; stroke-miterlimit:10; stroke-width:8px;"/><path d="m207.2,269.82h-53.87c-18.95,0-19.95,32.92,2,32.92h53.87v-114.77" style="fill:none; stroke:#e6e6e6; stroke-linecap:round; stroke-miterlimit:10; stroke-width:8px;"/><path d="m146.09,202.95c.79,0,1.12-.05,1.28-.14.16-.09.32-.07.44.05.3.26.54.53.75.82.16.23.09.4-.09.53-.26.19-.44.28-.82.74-1.29,1.52-3.13,3.4-4.99,4.88.6.59,1.26,1.35,1.8,2.05.12.14.12.23,0,.37-.19.21-.42.4-.65.56-.14.09-.19.1-.3-.05-1.58-2.03-3.38-3.8-5.41-5.25.21-.21.51-.51.7-.68.12-.1.18-.09.33,0,1.01.77,1.89,1.47,2.7,2.21,1.82-1.5,3.67-3.43,4.85-4.97l-7.7.03c-1.42,0-2.5.07-3.47.14-.19.02-.25-.04-.28-.19-.05-.35-.12-.79-.14-1.23,1.16.12,2.36.14,3.89.14h7.11Z" style="fill:gray;"/><path d="m152.45,202.21c.12-.05.23-.05.33.07.77.94,1.38,2.01,1.86,3.13.07.16.07.24-.11.33-.16.09-.54.3-.77.38-.19.07-.26.02-.35-.17-.49-1.17-1.03-2.22-1.87-3.25.33-.21.68-.4.91-.49Zm11.92-.02c.16.1.16.32.02.46-.19.19-.38.47-.73,1.31-.89,2.1-1.84,3.82-3.06,5.41-1.38,1.79-2.92,3.24-4.73,4.41-.19.12-.28.14-.44.04-.3-.21-.67-.38-1.07-.49,2.17-1.37,3.76-2.8,5.18-4.62,1.24-1.63,2.19-3.34,2.83-5.06.32-.84.44-1.38.53-2.13.54.21,1.1.44,1.47.68Zm-7.53-1.02c.14-.05.23-.03.32.07.65.86,1.24,2.01,1.64,3.12.07.17.05.26-.09.35-.21.12-.58.28-.79.35-.19.07-.26.05-.33-.12-.42-1.24-1-2.33-1.7-3.33.3-.16.65-.32.95-.44Z" style="fill:gray;"/><path d="m176.27,202.44c.6-.02.79-.07.93-.19.16-.14.3-.14.47-.04.23.14.54.46.75.7.14.17.1.33-.07.47-.16.12-.28.25-.42.52-.75,1.63-1.73,3.27-2.78,4.64.7.56,1.42,1.19,2.1,1.92.11.11.05.19-.02.32-.12.21-.38.46-.58.59-.14.1-.19.09-.28-.02-.59-.68-1.29-1.37-1.96-1.92-1.8,2.05-3.73,3.5-6.07,4.78-.19.11-.32.14-.47-.02-.28-.25-.61-.42-.98-.56,2.66-1.33,4.81-2.89,6.58-4.92-.74-.6-1.71-1.23-2.75-1.79.19-.26.38-.49.61-.7.09-.09.14-.12.28-.05.79.4,1.77,1.05,2.61,1.65.98-1.24,1.94-2.87,2.55-4.36l-5.16.11c-1.21,1.64-2.15,2.7-3.82,4.06-.17.14-.3.17-.46.05-.23-.19-.51-.35-.84-.49,2.42-1.84,3.96-3.76,5.01-5.65.4-.72.56-1.16.7-1.73.42.12.88.35,1.24.59.21.14.16.35-.04.49-.21.16-.38.38-.51.59-.19.33-.35.59-.63,1.02l3.99-.07Zm1.82-2.54c.07-.05.12-.05.19,0,.7.49,1.47,1.35,1.98,2.12.05.07.03.14-.04.19l-.51.42c-.09.07-.17.05-.23-.04-.51-.86-1.24-1.68-2.03-2.24l.63-.46Zm1.47-1.16c.07-.05.12-.07.19-.02.7.54,1.49,1.31,2,2.05.05.09.04.14-.05.21l-.47.42c-.07.07-.14.07-.21-.03-.44-.72-1.19-1.58-2.01-2.19l.56-.44Z" style="fill:gray;"/><path d="m301.38,209.56c1.96,1.86,4.57,3.04,7.51,3.85-.19.19-.35.4-.49.68-.16.33-.17.31-.47.21-2.42-.84-5.15-2.1-7.18-4.38,0,2.59.14,4.52.14,4.76,0,.12-.02.12-.14.12h-.89c-.12,0-.14,0-.14-.12,0-.25.1-2.1.12-4.64-1.59,1.92-3.99,3.2-6.62,4.22-.12.05-.21.09-.26.09-.11,0-.16-.09-.25-.28-.12-.26-.28-.44-.46-.61,2.77-.81,5.15-2.07,6.93-3.9h-1.87c-1.77,0-2.4.04-2.49.04-.12,0-.14-.02-.14-.14,0-.11.04-.49.04-1.65v-2.52c0-1.16-.04-1.56-.04-1.65,0-.12.02-.14.14-.14.09,0,.72.04,2.49.04h2.45v-1.54h-4.66c-1.63,0-2.15.04-2.26.04-.12,0-.14-.02-.14-.14v-.72c0-.12.02-.14.14-.14.11,0,.63.04,2.26.04h4.66v-.11c0-.98,0-1.29-.12-1.92.42,0,.8.04,1.16.09.14.02.23.09.23.14,0,.14-.05.23-.11.35-.07.21-.1.51-.1,1.38v.07h5.06c1.63,0,2.15-.04,2.26-.04s.12.02.12.14v.72c0,.12-.02.14-.12.14s-.63-.04-2.26-.04h-5.06v1.54h2.78c1.79,0,2.42-.04,2.5-.04.12,0,.14.02.14.14,0,.09-.04.49-.04,1.65v2.52c0,1.16.04,1.56.04,1.65,0,.12-.02.14-.14.14-.09,0-.72-.04-2.5-.04h-2.22Zm-1.61-5.18h-4.03v1.7h4.03v-1.7Zm0,2.52h-4.03v1.82h4.03v-1.82Zm5.43-2.52h-4.38v1.7h4.38v-1.7Zm0,2.52h-4.38v1.82h4.38v-1.82Z" style="fill:gray;"/><path d="m317.47,205.62c0,.12-.02.14-.14.14-.09,0-.56-.04-2.07-.04h-2.98c-1.49,0-2,.04-2.08.04-.11,0-.12-.02-.12-.14v-.61c0-.12.02-.14.12-.14.09,0,.59.04,2.08.04h1.17v-1.23h-.53c-1.26,0-1.66.04-1.75.04-.12,0-.14-.02-.14-.14v-.6c0-.1.02-.12.14-.12.09,0,.49.04,1.75.04h.53v-1.16h-.77c-1.42,0-1.86.04-1.96.04-.12,0-.14-.02-.14-.14v-.61c0-.12.02-.14.14-.14.11,0,.54.04,1.96.04h.77v-.05c0-.93-.02-1.4-.12-1.87.42.02.73.05,1.07.11.14.02.23.09.23.14,0,.14-.07.21-.12.33-.07.19-.09.49-.09,1.29v.05h.77c1.42,0,1.86-.04,1.96-.04s.12.02.12.14v.61c0,.12-.02.14-.12.14s-.54-.04-1.96-.04h-.77v1.16h.47c1.28,0,1.66-.04,1.77-.04.12,0,.14.02.14.12v.6c0,.12-.02.14-.14.14-.11,0-.49-.04-1.77-.04h-.47v1.23h.84c1.5,0,1.98-.04,2.07-.04.12,0,.14.02.14.14v.61Zm-2.59,1.19c1.24,0,1.64-.04,1.73-.04.12,0,.14.02.14.14,0,.09-.03.7-.03,2.05v2.13c0,.89.02,1.84.02,2.21,0,.46-.07.84-.37,1.07-.31.21-.56.3-1.68.3-.35,0-.37.02-.46-.35-.05-.23-.16-.46-.26-.65.38.04.7.07,1.12.07.58,0,.68-.17.68-.65v-1.31h-3.62v.96c0,1.31.02,1.87.02,1.96,0,.11,0,.12-.12.12h-.73c-.12,0-.14-.02-.14-.12s.04-.58.04-1.92v-3.9c0-1.35-.04-1.86-.04-1.96,0-.12.02-.14.14-.14.1,0,.51.04,1.73.04h1.84Zm.89.84h-3.62v1.24h3.62v-1.24Zm0,2.06h-3.62v1.24h3.62v-1.24Zm10.17-2.49c0,.12-.02.14-.12.14-.07,0-.38-.02-1.14-.04v1.71c0,1.28.04,1.72.04,1.82s-.02.12-.14.12h-.7c-.12,0-.14-.02-.14-.12v-.68h-2.08v.37c0,.75.02,1.77.02,2.38,0,.79-.09,1.12-.44,1.4-.26.23-.79.31-1.92.3-.35,0-.35.02-.44-.35-.07-.26-.17-.49-.33-.7.37.05.75.07,1.28.07.65,0,.86-.14.86-.84v-2.63h-.44c-1.47,0-1.94.04-2.03.04-.12,0-.14-.02-.14-.14v-.65c0-.12.02-.14.14-.14.09,0,.56.04,2.03.04h.44v-2h-.8c-1.61,0-2.15.04-2.24.04-.12,0-.14-.02-.14-.14v-.67c0-.12.02-.14.14-.14.09,0,.63.04,2.24.04h.8v-1.93h-.28c-1.38,0-1.79.04-1.87.04-.12,0-.14-.02-.14-.12v-.67c0-.12.02-.14.14-.14.09,0,.49.04,1.87.04h.65c.46-.63.86-1.35,1.19-2.1h-2.26c-.51.79-1.07,1.49-1.87,2.28-.12.12-.17.17-.24.17-.05,0-.11-.05-.23-.17-.18-.18-.33-.28-.54-.39,1.19-1.01,2-2.1,2.61-3.34.21-.44.35-.82.39-1.1.37.09.67.16.94.26.12.04.19.09.19.17s-.05.16-.16.25c-.09.07-.21.28-.4.67l-.21.38h1.98c.17,0,.16-.02.23-.05.07-.04.11-.05.16-.05.12,0,.23.05.49.28s.32.33.32.42c0,.1-.05.19-.17.26-.12.07-.25.24-.33.4-.3.59-.65,1.14-1,1.66h.54c1.38,0,1.84-.04,1.93-.04.12,0,.14.02.14.14,0,.09-.04.52-.04,1.82v.86c.75,0,1.07-.04,1.14-.04.11,0,.12.02.12.14v.67Zm-2.21-2.7h-2.08v1.93h2.08v-1.93Zm0,2.8h-2.08v2h2.08v-2Z" style="fill:gray;"/><path d="m339.39,200.06c1.75,0,2.34-.03,2.45-.03.12,0,.14.02.14.14,0,.09-.03,1.19-.03,3.55v6.69c0,1.4.02,2.24.02,2.8,0,.51-.09.88-.42,1.16-.26.21-.75.33-2.1.33-.33,0-.35,0-.42-.33-.07-.28-.21-.61-.35-.82.51.05,1.07.07,1.56.07.46,0,.65-.19.65-.7v-11.87h-11.5v10.41c0,2.19.03,3.17.03,3.25,0,.12-.02.14-.14.14h-.86c-.12,0-.14-.02-.14-.14,0-.1.03-1.1.03-3.5v-7.51c0-2.42-.03-3.45-.03-3.54,0-.12.02-.14.14-.14.1,0,.7.03,2.45.03h8.52Zm.61,5.74c0,.12-.02.14-.16.14-.09,0-.65-.04-2.31-.04h-1.98v4.9h2.4v-1.49c0-.82,0-1.29-.12-1.77.42.02.84.05,1.08.09.12.02.19.07.19.16s-.02.16-.07.25c-.07.12-.11.33-.11,1.29v1.73c0,.82.04,1.17.04,1.26,0,.12-.02.14-.14.14h-.73c-.12,0-.14-.02-.14-.14v-.65h-5.65v1.08c0,.12-.02.14-.14.14h-.73c-.12,0-.14-.02-.14-.14,0-.11.04-.46.04-1.37v-2.03c0-.93-.02-1.33-.11-1.79.37.02.79.05,1.07.1.14.02.21.07.21.12,0,.12-.05.21-.11.33-.07.16-.09.4-.09,1.23v1.43h2.27v-4.9h-1.84c-1.7,0-2.24.04-2.35.04-.12,0-.14-.02-.14-.14v-.68c0-.12.02-.14.14-.14.11,0,.65.03,2.35.03h2.97c.53-.91.89-1.63,1.23-2.4.1-.25.19-.53.28-.89.33.11.68.25.96.4.12.07.18.11.18.21,0,.09-.09.16-.16.21-.09.07-.17.18-.3.42-.28.56-.68,1.31-1.14,2.05h.77c1.66,0,2.22-.03,2.31-.03.14,0,.16.02.16.14v.68Zm-7.46-3.92c.17-.09.19-.1.28,0,.46.61.84,1.3,1.17,2.01.05.12.02.16-.19.26l-.42.21c-.23.12-.26.12-.32,0-.3-.7-.63-1.37-1.08-2.01-.07-.1-.05-.14.14-.25l.42-.23Z" style="fill:gray;"/><path d="m348.8,202.46c-1.38,0-2.42.07-3.25.16-.19.02-.26-.05-.3-.19-.07-.3-.16-.84-.19-1.21,1.07.11,2.1.12,3.61.12h7.28c.98,0,1.16-.05,1.31-.11.09-.04.19-.07.26-.07.09,0,.17.05.26.12.25.21.46.42.65.68.14.17.12.37-.09.51-.16.09-.28.28-.39.44-.8,1.21-2,2.43-3.34,3.45-.14.11-.31.11-.46-.02-.26-.21-.54-.33-.91-.44,1.51-.96,2.71-2.12,3.55-3.45h-8Zm1.16,7.25c.65-1.35.88-2.75.88-4.3,0-.58-.05-.98-.16-1.45.51.04,1.05.12,1.38.25.28.11.28.3.17.51-.09.16-.14.37-.14.86,0,1.49-.28,3.22-1,4.66-.68,1.37-1.91,2.59-3.29,3.47-.18.1-.37.14-.53,0-.25-.23-.56-.4-.95-.54,1.72-.89,2.96-2.03,3.62-3.43Z" style="fill:gray;"/><path d="m362.67,207.74c-1.52,0-2.26.17-2.36.17-.16,0-.25-.07-.3-.25-.07-.3-.14-.86-.17-1.33,1.07.14,2.42.16,3.87.16h5.37c1.21,0,2.5-.02,3.83-.05.21-.02.26.02.26.21.02.26.02.63,0,.91,0,.19-.05.23-.26.21-1.31-.04-2.61-.04-3.78-.04h-6.46Z" style="fill:gray;"/><path d="m379.89,204.98c2.01.58,3.96,1.4,5.71,2.43.14.07.17.16.12.28-.12.32-.28.63-.42.86-.1.14-.17.17-.33.07-1.63-1.07-3.5-1.89-5.09-2.34v4.06c0,1.07.03,2.43.05,3.57.02.17-.03.23-.23.23-.26.02-.61.02-.89,0-.19,0-.25-.05-.25-.25.05-1.12.07-2.49.07-3.55v-7.79c0-1.31-.07-2.21-.19-2.8.61.05,1.14.12,1.45.23.28.07.21.26.12.53-.11.3-.12.82-.12,1.94v2.54Z" style="fill:gray;"/><path d="m399.08,207.3c-.16,1.61-.72,3.19-1.5,4.04.79.88,1.33,1.07,2.47,1.07l-.33,1.07h-.35c-1.28,0-1.91-.32-2.71-1.21-.95.86-2.07,1.24-3.52,1.24-2.43,0-4.13-1.56-4.13-3.73,0-1.84.89-2.98,2.82-3.87-.68-1.05-.96-1.8-.96-2.73,0-1.59,1.24-2.8,2.96-2.8s2.87,1.01,2.87,2.62c0,1.51-.91,2.54-3.19,3.24.98,1.5,2.24,3.17,3.33,4.39.65-.96.89-2.17,1.02-3.64l1.24.3Zm-8.73,2.36c0,1.59,1.28,2.78,2.98,2.78,1.1,0,1.94-.28,2.62-.91-1.19-1.35-2.59-3.22-3.62-4.85-1.43.74-1.98,1.58-1.98,2.98Zm5.04-6.7c0-.91-.63-1.56-1.58-1.56s-1.66.7-1.66,1.73c0,.75.21,1.33.86,2.34,1.84-.65,2.38-1.37,2.38-2.52Z" style="fill:gray;"/><path d="m303.4,222.48c.59,0,.79-.02,1-.14.11-.07.23-.04.35.05.25.19.51.46.72.72.1.14.07.26-.09.4-.17.14-.33.35-.51.65-.77,1.31-1.66,2.61-2.59,3.76,1.8,1.31,3.43,2.71,5.02,4.39.16.14.16.19.02.37-.19.23-.42.44-.63.63-.12.11-.19.11-.32-.04-1.47-1.68-3.13-3.17-4.83-4.45-2,2.07-4.1,3.69-6.25,4.88-.19.11-.3.12-.44-.04-.23-.26-.54-.44-.91-.63,2.64-1.31,4.71-2.92,6.44-4.74,1.14-1.21,2.29-2.76,3.33-4.69h-5.27c-.98,0-1.73.05-2.52.11-.16,0-.17-.05-.21-.19-.05-.25-.1-.77-.1-1.12.86.07,1.63.07,2.71.07h5.08Z" style="fill:gray;"/><path d="m313.8,228.19c.28.17.23.28.02.49-.12.12-.26.28-.47.68-.42.8-1.09,1.87-1.8,2.7-.16.17-.26.23-.47.1-.28-.17-.6-.31-.91-.38,1.03-1.03,1.63-1.98,2.07-2.87.19-.39.33-.81.4-1.28.44.16.82.33,1.17.56Zm3.04-4.8c0-.98-.05-1.84-.19-2.42.54.04,1.14.11,1.45.19.25.07.28.26.14.49-.14.23-.18.79-.18,1.82v1.07h2.28c1.26,0,2.56-.04,3.59-.09.16-.02.21.05.21.21,0,.25,0,.54-.02.79,0,.17-.03.25-.21.25-1.14-.05-2.5-.07-3.62-.07h-2.22v3.05c0,1.49.05,2.64.05,3.76,0,.75-.26,1.31-.88,1.61-.63.31-1.45.47-2.01.51-.14.02-.25-.05-.3-.21-.16-.38-.38-.7-.73-.98.89,0,1.68-.12,2.17-.32.37-.14.47-.37.47-1.01v-6.41h-2.8c-.98,0-2.06.05-2.99.12-.16.02-.21-.07-.23-.25-.02-.21-.07-.75-.07-1.08,1.24.1,2.29.12,3.26.12h2.83v-1.16Zm4.66,4.43c.12-.09.21-.05.33.05.93.82,1.73,1.93,2.45,3.17.1.19.07.26-.07.4-.17.16-.44.37-.67.51-.14.09-.23.09-.3-.07-.59-1.21-1.47-2.48-2.52-3.5.28-.21.52-.38.77-.56Zm3.4-6.06c0,.98-.79,1.77-1.77,1.77s-1.77-.79-1.77-1.77.79-1.77,1.77-1.77,1.77.79,1.77,1.77Zm-2.87,0c0,.61.49,1.1,1.1,1.1s1.1-.49,1.1-1.1-.49-1.1-1.1-1.1-1.1.49-1.1,1.1Z" style="fill:gray;"/><path d="m329.56,228.37c-1.52,0-2.26.17-2.36.17-.16,0-.25-.07-.3-.25-.07-.3-.14-.86-.17-1.33,1.07.14,2.42.16,3.87.16h5.37c1.21,0,2.5-.02,3.83-.05.21-.02.26.02.26.21.02.26.02.63,0,.91,0,.19-.05.23-.26.21-1.31-.04-2.61-.04-3.78-.04h-6.46Z" style="fill:gray;"/><path d="m343.17,222.84c.12-.05.23-.05.33.07.77.94,1.38,2.01,1.85,3.13.07.16.07.24-.1.33-.16.09-.54.3-.77.38-.19.07-.26.02-.35-.17-.49-1.17-1.03-2.22-1.87-3.25.33-.21.68-.4.91-.49Zm11.92-.02c.16.1.16.32.02.46-.19.19-.39.47-.74,1.31-.89,2.1-1.84,3.82-3.06,5.41-1.38,1.79-2.92,3.24-4.73,4.41-.19.12-.28.14-.44.04-.3-.21-.67-.38-1.07-.49,2.17-1.37,3.76-2.8,5.18-4.62,1.24-1.63,2.19-3.34,2.84-5.06.31-.84.44-1.38.52-2.13.54.21,1.1.44,1.47.68Zm-7.53-1.02c.14-.05.23-.03.32.07.65.86,1.24,2.01,1.65,3.12.07.17.05.26-.09.35-.21.12-.58.28-.79.35-.19.07-.26.05-.33-.12-.42-1.24-1-2.33-1.7-3.33.3-.16.65-.32.94-.44Z" style="fill:gray;"/><path d="m355.88,235.72h-.98l6.88-16.17h.98l-6.88,16.17Z" style="fill:gray;"/><path d="m367.02,226.53c1.72-.46,3.64-1.14,5.09-1.82.91-.44,1.29-.68,1.7-1.15.4.33.8.7,1.01.96.14.19.09.42-.14.46-.32.07-.77.26-1.61.65-1.71.77-4.06,1.56-6.06,2.1v3.01c0,.93.25,1.22.91,1.37.74.16,1.58.19,2.62.19,1.26,0,2.87-.11,4.45-.39.19-.03.23.02.25.18.03.28.07.61.09.84,0,.19-.07.23-.28.25-1.71.25-2.96.3-4.74.3-1.31,0-2.24-.09-3.1-.31-.94-.26-1.38-.93-1.38-2.17v-6.51c0-1.56,0-2.35-.16-3.1.56.07,1.07.14,1.44.25.26.07.19.3.1.49-.16.33-.19.93-.19,2.1v2.33Z" style="fill:gray;"/><path d="m381.28,231.81v1.19c0,.21-.04.25-.25.26-.23,0-.58.02-.82,0-.19-.02-.25-.05-.25-.23.05-1.1.07-2.26.07-3.75v-3.45c0-.93,0-1.85-.04-2.8,0-.16.05-.19.19-.19.89.04,1.84.04,2.82.04h3.85c1.05,0,2.19,0,3.1-.04.18,0,.21.05.21.25-.02.89-.04,1.82-.04,2.76v3.52c0,1.35.05,2.55.09,3.45,0,.19-.05.25-.23.25h-.91c-.16,0-.17-.05-.17-.23v-1.03h-7.63Zm7.63-7.81h-7.65v6.69h7.65v-6.69Z" style="fill:gray;"/><path d="m397.65,225.95c.37-.89.54-1.4.56-1.98.58.19,1.09.38,1.38.58.25.14.19.33.04.49-.19.19-.37.44-.61,1-.84,1.91-2.03,3.87-3.96,5.76-.17.17-.38.21-.54.07-.19-.18-.54-.35-.96-.46,2.07-1.75,3.43-3.83,4.1-5.46Zm5.71-1.8c.16-.09.23-.11.37.04,1.87,1.86,3.34,4.15,4.38,6.28.09.16.09.26-.07.37-.19.14-.51.38-.82.54-.16.09-.21.05-.28-.11-1.07-2.43-2.47-4.66-4.34-6.6.3-.21.59-.42.77-.53Zm1.96-2.19c.07-.05.12-.05.19,0,.7.49,1.47,1.35,1.98,2.12.05.07.04.14-.04.19l-.51.42c-.09.07-.17.05-.23-.04-.51-.86-1.24-1.68-2.03-2.24l.63-.46Zm1.47-1.16c.07-.05.12-.07.19-.02.7.54,1.49,1.31,2,2.05.05.09.04.14-.05.21l-.47.42c-.07.07-.14.07-.21-.04-.44-.72-1.19-1.58-2.01-2.19l.56-.44Z" style="fill:gray;"/><circle cx="190.24" cy="204.44" r="4.49" style="fill:gray;"/><circle cx="279.03" cy="204.44" r="4.49" style="fill:gray;"/><path d="m325.64,111.29c0-.72,0-1.47.02-2.21-.67.79-1.47,1.5-2.52,2.29-.12.09-.19.14-.25.14-.07,0-.12-.07-.21-.19-.16-.26-.33-.46-.51-.58,1.91-1.19,3.48-2.98,4.39-4.64.14-.26.26-.56.33-.84.38.14.67.26.93.4.12.07.19.11.19.21,0,.09-.05.14-.16.21-.11.07-.25.23-.4.49-.24.4-.51.82-.75,1.19v5.86c0,1.47.04,2.08.04,2.17,0,.12-.02.14-.16.14h-.84c-.12,0-.14-.02-.14-.14,0-.09.04-.7.04-2.17v-2.35Zm11.87-7.98c0,.14-.02.16-.14.16-.09,0-.63-.04-2.28-.04h-2.54c0,.86.04,1.23.04,1.31,0,.12-.02.14-.14.14h-.79c-.12,0-.14-.02-.14-.14,0-.09.04-.46.04-1.31h-3.66c0,.86.03,1.23.03,1.29,0,.14-.02.16-.14.16h-.8c-.11,0-.12-.02-.12-.16,0-.07.04-.44.04-1.29h-2.21c-1.63,0-2.19.04-2.28.04-.12,0-.14-.02-.14-.16v-.74c0-.12.02-.14.14-.14.09,0,.65.04,2.28.04h2.21v-.14c0-.75-.02-1.42-.12-1.89.44.02.8.05,1.1.1.12.02.19.07.19.16,0,.07-.02.14-.07.23-.07.14-.1.58-.1,1.37v.18h3.66v-.16c0-.75,0-1.42-.1-1.89.44.02.79.05,1.08.1.12.02.21.07.21.16s-.04.14-.09.24c-.07.12-.1.56-.1,1.33v.21h2.54c1.65,0,2.19-.04,2.28-.04.12,0,.14.02.14.14v.74Zm-6.35,10.41c0,.61.14.79.53.88.4.09,1.14.11,1.8.11,1.07,0,1.87-.09,2.24-.3.47-.3.59-1.03.65-2.15.21.17.46.31.72.42.28.11.3.14.28.44-.14,1.12-.37,1.73-.91,2.08-.52.37-1.45.51-2.99.51-1.02,0-1.89-.03-2.43-.19-.61-.17-.93-.44-.93-1.56v-6.84c0-.81-.02-1.33-.11-1.77.44.02.77.05,1.14.1.16.02.23.09.23.16,0,.12-.05.19-.1.31-.07.16-.11.32-.11,1.24v2.75c1.37-.72,2.61-1.54,3.4-2.26.38-.35.59-.61.74-.84.38.25.63.42.86.63.09.09.12.12.14.19,0,.11-.05.18-.19.25-.19.09-.35.18-.84.58-1.05.86-2.52,1.77-4.1,2.54v2.73Z" style="fill:gray;"/><path d="m353.91,103.55c0,.82.04,1.03.04,1.14,0,.12-.02.14-.14.14-.1,0-.72-.04-2.49-.04h-8.96v.91c0,1.38-.09,3.24-.35,4.9-.28,1.75-.67,3.26-1.75,4.85-.09.12-.12.19-.18.19s-.12-.07-.23-.19c-.21-.23-.46-.4-.67-.51,1.17-1.56,1.52-2.94,1.8-4.71.25-1.58.33-3.41.33-5.46,0-2.33-.04-3.31-.04-3.41,0-.12.02-.14.12-.14s.74.04,2.5.04h7.4c1.77,0,2.38-.04,2.49-.04.12,0,.14.02.14.14,0,.11-.04.33-.04,1.14v1.05Zm1,11.88c0,.12-.02.14-.14.14-.09,0-.68-.04-2.45-.04h-8.03c-1.75,0-2.35.04-2.43.04-.12,0-.14-.02-.14-.14v-.68c0-.12.02-.14.14-.14.09,0,.68.04,2.43.04h3.33v-1.86h-1.65c-1.7,0-2.28.04-2.38.04-.12,0-.14-.02-.14-.14v-.67c0-.12.02-.14.14-.14.1,0,.68.03,2.38.03h1.65v-.25c0-.68-.02-1.05-.11-1.4.39.02.72.05,1.05.09.14.02.23.09.23.16,0,.12-.04.19-.09.33-.07.17-.09.42-.09.77v.3h2.17c1.71,0,2.27-.03,2.38-.03.12,0,.14.02.14.14v.67c0,.12-.02.14-.14.14-.11,0-.67-.04-2.38-.04h-2.17v1.86h3.71c1.77,0,2.36-.04,2.45-.04.12,0,.14.02.14.14v.68Zm-2.03-13.28h-10.52v1.75h10.52v-1.75Zm1.63,4.83c0,.12-.02.14-.14.14-.09,0-.68-.04-2.45-.04h-4.57c-.38.79-.75,1.45-1.17,2.05,1.61-.05,3.29-.17,4.97-.32-.3-.28-.63-.54-1-.84-.1-.09-.12-.11.07-.25l.4-.28c.12-.09.14-.09.26,0,1.1.81,1.87,1.59,2.85,2.64.09.11.09.14-.1.28l-.37.28c-.23.17-.25.17-.32.05-.35-.42-.67-.79-1-1.12-2.52.23-4.97.42-7.65.54-.49.02-.56.05-.68.11-.09.04-.18.07-.25.07s-.12-.07-.16-.18c-.07-.25-.16-.65-.21-.98.56.02,1.17.04,1.77.02h.28c.47-.72.84-1.38,1.14-2.08h-.8c-1.75,0-2.35.04-2.43.04-.12,0-.14-.02-.14-.14v-.68c0-.12.02-.14.14-.14.09,0,.68.04,2.43.04h6.53c1.77,0,2.36-.04,2.45-.04.12,0,.14.02.14.14v.68Z" style="fill:gray;"/><path d="m365.33,103.76c.14-.04.19,0,.21.12.03.21.07.51.09.72.02.17-.02.23-.17.26-1.14.31-2.1.54-3.17.72-1.05,3.55-2.12,6.6-3.36,9.43-.07.16-.14.16-.26.1-.14-.05-.59-.26-.82-.38-.09-.05-.11-.14-.07-.23,1.45-3.08,2.45-5.81,3.27-8.73-1.14.12-2.35.19-3.54.21-.21,0-.24-.02-.28-.17-.04-.25-.09-.61-.14-.96.33.04.63.04,1.1.04.82,0,2.03-.07,3.15-.21.25-.93.39-1.56.51-2.21.09-.49.17-1.07.14-1.65.49.09,1.03.25,1.4.4.09.04.14.11.14.19s-.05.17-.14.28c-.12.16-.19.32-.28.68-.21.72-.37,1.44-.56,2.1.82-.14,1.8-.4,2.78-.72Zm-.88,8.02c.14,0,.18.04.19.17.12,1.58,1.1,2.1,3.31,2.1.89,0,1.87-.12,2.59-.23.14-.02.19-.02.21.12.04.21.07.6.07.84,0,.17-.05.21-.19.23-.54.09-1.45.17-2.29.17-1.89,0-3.06-.25-3.85-.96-.61-.53-.84-1.31-.86-2.36.3-.05.63-.09.82-.09Zm.44-4.5c0-.16.04-.21.23-.26,1.02-.23,2.03-.37,3.06-.37.72,0,1.49.09,2.17.17.21.04.25.09.26.19.02.17.04.54.02.77-.02.21-.07.26-.23.23-.75-.12-1.5-.19-2.24-.19-1.08,0-2.17.16-3.22.38-.04-.3-.05-.72-.05-.93Z" style="fill:gray;"/><path d="m378.53,102.94c.14-.61.17-1.05.16-1.68.54.14.91.26,1.37.47.19.09.25.3.07.46-.14.14-.21.28-.3.58-.26.86-.49,1.68-.75,2.54.56-.07,1.28-.12,1.7-.12,1.52,0,2.28.77,2.28,2.82,0,2.31-.39,4.39-.96,5.65-.44.96-1.14,1.38-2,1.38-.72,0-1.35-.12-1.79-.31-.14-.05-.21-.14-.21-.3-.02-.3-.05-.68-.21-1.05.77.33,1.42.49,2.03.49.51,0,.84-.18,1.17-.91.44-1,.79-2.77.79-4.92,0-1.37-.26-1.86-1.21-1.86-.54,0-1.28.09-1.89.19-1.02,3.03-2.15,5.76-3.57,8.28-.07.12-.18.14-.3.09-.17-.09-.51-.32-.7-.47-.11-.09-.09-.17-.04-.28,1.47-2.47,2.5-4.88,3.36-7.46-.72.11-1.43.23-2.31.39-.31.05-.63.14-.77.23-.19.12-.35.12-.46-.09-.14-.3-.28-.7-.4-1.19.63.02,1.31-.02,1.82-.09.96-.11,1.64-.21,2.47-.33.23-.82.42-1.52.65-2.5Zm6.42,1.44c.11-.04.17-.02.26.07,1.22,1.05,2.24,2.57,2.82,4.24.04.12.05.21-.05.3-.17.16-.51.37-.72.47-.14.09-.26.07-.3-.1-.59-1.79-1.47-3.27-2.8-4.43.24-.19.52-.39.79-.54Z" style="fill:gray;"/><path d="m398.33,104.69c1.16-.42,2.28-.67,3.33-.67,2.01,0,3.29,1.07,3.29,2.92,0,2.17-1.79,3.24-4.31,3.24-.28,0-.56,0-.82-.04-.17-.02-.23-.07-.28-.17-.12-.35-.24-.67-.51-1,.51.09.98.14,1.56.14,1.75,0,3.1-.68,3.1-2.26,0-1.4-1.07-1.79-2.03-1.79-1.16,0-1.98.25-2.78.51-1.15.38-2.24.84-3.31,1.29.98,2.8,1.89,5.36,2.83,8.12.07.17.07.23-.1.31-.26.14-.54.25-.86.32-.11.02-.12,0-.16-.11-.89-2.89-1.7-5.36-2.73-8.17-.84.37-1.44.63-2.07.91-.49.23-.77.38-.95.54-.09.09-.19.14-.26.14-.09,0-.19-.05-.3-.18-.25-.28-.54-.72-.74-1.08.74-.16,1.22-.3,1.77-.51.67-.26,1.26-.47,2.13-.84-.21-.63-.42-1.22-.68-1.92-.23-.59-.44-1.03-.84-1.61.51-.1,1.08-.16,1.49-.16.21,0,.23.1.23.26-.02.17,0,.28.05.51.05.23.14.49.35,1.16.19.6.31.89.46,1.31,1.08-.46,2.03-.82,3.13-1.19Zm-.28-3.55c.11-.07.14-.07.26,0,.65.42,1.26.95,1.89,1.66.07.09.07.17,0,.26-.19.21-.42.42-.67.58-.07.05-.16.04-.23-.05-.58-.75-1.22-1.35-2.06-1.86.3-.25.61-.47.8-.6Z" style="fill:gray;"/><path d="m414.97,103.74c.16-.04.21,0,.23.1.04.21.07.53.09.75.02.16-.02.19-.16.21-.95.19-1.89.35-2.92.51-1.01,2.75-2.28,5.39-3.52,7.39-.09.14-.17.12-.28.05-.26-.16-.54-.37-.7-.53-.1-.09-.1-.16-.02-.3,1.45-2.19,2.45-4.25,3.29-6.51-.75.07-1.45.12-2.21.12-.26,0-.53,0-.93-.04-.16-.02-.18-.04-.21-.21-.05-.23-.09-.54-.11-.88.56.05,1.02.07,1.38.07.8,0,1.52-.05,2.38-.14.21-.67.37-1.31.53-2.05.1-.51.16-.86.14-1.37.51.09,1.02.21,1.37.35.11.04.16.1.16.19s-.04.16-.14.26c-.09.1-.14.23-.25.54-.19.63-.38,1.28-.56,1.89.79-.11,1.54-.23,2.43-.44Zm1.07,4.24c0-.35-.02-.67-.1-1.12.47.05.82.1,1.19.23.12.04.19.1.19.21,0,.07-.03.16-.1.32-.07.19-.07.47-.07.82,0,1.05.09,2.1.21,3.22,1.28.51,2.26,1.01,3.31,1.75.14.09.12.14.07.28-.09.23-.28.54-.42.77-.09.12-.17.11-.28.02-.79-.7-1.73-1.24-2.66-1.66.02,1.77-.88,2.73-3.13,2.73-1.33,0-2.71-.68-2.71-2.13,0-1.31,1.26-2.21,2.98-2.21.53,0,1.21.09,1.75.21-.1-1.09-.19-2.49-.21-3.43Zm-1.49,4.18c-1.4,0-2.03.54-2.03,1.19,0,.8.65,1.17,1.8,1.17,1.43,0,1.96-.75,1.96-1.65,0-.23,0-.33-.02-.42-.54-.17-1.16-.3-1.71-.3Zm2.97-7.84c.09-.14.14-.16.3-.1,1.17.37,2.43.93,3.43,1.64.12.11.12.18.04.32-.11.23-.26.51-.4.7-.09.12-.14.1-.24.04-1.02-.77-2.31-1.4-3.57-1.79.17-.3.31-.6.45-.81Z" style="fill:gray;"/><path d="m428.72,102.54c-.16-.49-.3-.77-.58-1.12.51-.09,1.03-.12,1.37-.12.18,0,.3.09.3.21,0,.07-.04.17-.04.28,0,.16.04.31.14.73.12.46.23.77.33,1.14,1.24-.26,2.26-.49,3.66-.96.1-.04.16-.05.19.07.07.21.12.46.16.65.02.14-.04.21-.16.25-1.29.4-2.31.65-3.55.93.21.63.49,1.29.82,1.98,1.29-.26,2.42-.58,3.48-1,.14-.05.19-.04.24.09.07.23.12.44.16.67.02.12,0,.19-.14.25-1.07.35-2.22.67-3.33.91.68,1.28,1.65,2.66,2.73,3.57.11.11.14.16.07.3-.11.25-.26.49-.42.68-.14.16-.23.17-.39.04-.35-.25-.8-.46-1.24-.63-.93-.35-1.96-.53-3.34-.53-1.82,0-2.99.53-2.99,1.73,0,1.35,1.65,1.84,4.43,1.84.63,0,1.21-.05,1.79-.11.14-.02.16.07.14.19-.04.24-.11.58-.19.84-.04.14-.07.19-.23.21-.46.04-.88.07-1.54.07-3.5,0-5.51-.95-5.51-2.96,0-1.72,1.49-2.77,4.04-2.77,1.49,0,2.73.21,3.62.65-.68-.75-1.33-1.71-1.98-2.91-1.77.32-3.43.53-5.06.58-.14,0-.16-.02-.21-.18-.07-.21-.14-.56-.16-.82,1.8-.05,3.4-.23,4.99-.53-.28-.59-.58-1.28-.86-1.98-1.42.26-3.05.46-4.6.51-.14,0-.19-.02-.23-.17-.04-.14-.1-.49-.16-.81,1.66-.02,3.41-.23,4.69-.42-.14-.4-.26-.79-.46-1.35Zm6.16-1.42c.05-.04.11-.04.18.02.7.49,1.47,1.35,1.98,2.12.05.07.04.14-.04.19l-.51.42c-.09.07-.17.05-.23-.04-.51-.86-1.24-1.68-2.03-2.24l.65-.47Zm1.45-1.14c.07-.05.12-.07.19-.02.7.54,1.49,1.31,2,2.05.05.09.04.14-.05.21l-.47.42c-.07.07-.14.07-.21-.04-.44-.72-1.19-1.58-2.01-2.19l.56-.44Z" style="fill:gray;"/><path d="m293.96,159.56c-1.38,0-2.42.07-3.25.16-.19.02-.26-.05-.3-.19-.07-.3-.16-.84-.19-1.21,1.07.11,2.1.12,3.61.12h7.28c.98,0,1.16-.05,1.31-.11.09-.04.19-.07.26-.07.09,0,.18.05.26.12.25.21.46.42.65.68.14.17.12.37-.09.51-.16.09-.28.28-.39.44-.8,1.21-2,2.43-3.34,3.45-.14.11-.31.11-.46-.02-.26-.21-.54-.33-.91-.44,1.51-.96,2.71-2.12,3.55-3.45h-8Zm1.16,7.25c.65-1.35.88-2.75.88-4.3,0-.58-.05-.98-.16-1.45.51.04,1.05.12,1.38.25.28.11.28.3.17.51-.09.16-.14.37-.14.86,0,1.49-.28,3.22-1,4.66-.68,1.37-1.91,2.59-3.29,3.47-.18.1-.37.14-.53,0-.25-.23-.56-.4-.95-.54,1.72-.89,2.96-2.03,3.62-3.43Z" style="fill:gray;"/><path d="m310.22,160.4c-1.03,0-2,.04-2.94.11-.21.02-.28-.05-.31-.28-.02-.25-.07-.79-.09-1.08,1.08.1,2.07.14,3.36.14h6.2c.51,0,.68-.05.88-.16.14-.09.31-.07.46.02.3.21.58.47.79.72.14.19.12.39-.05.54-.16.14-.26.32-.38.59-.84,2.22-2.07,4.2-3.43,5.74-1.42,1.59-3.03,3.03-5.2,4.22-.21.14-.44.14-.6-.04-.21-.21-.54-.44-.91-.59,2.68-1.33,4.18-2.64,5.65-4.32,1.31-1.47,2.56-3.41,3.29-5.6h-6.7Zm11.43-2.8c0,.98-.79,1.77-1.77,1.77s-1.77-.79-1.77-1.77.79-1.77,1.77-1.77,1.77.79,1.77,1.77Zm-2.87,0c0,.61.49,1.1,1.1,1.1s1.1-.49,1.1-1.1-.49-1.1-1.1-1.1-1.1.49-1.1,1.1Z" style="fill:gray;"/><path d="m326.47,162.73c-.98,0-1.75.02-2.47.09-.16.02-.23-.05-.26-.23-.05-.28-.11-.68-.12-1.1.89.09,1.8.12,2.91.12h6.27c.44,0,.68-.04.86-.12.21-.1.3-.12.47.02.23.17.49.42.65.63.17.23.16.33-.04.47-.17.12-.26.3-.4.6-1.52,3.45-3.71,6-7.39,7.89-.21.11-.33.11-.47-.04-.26-.23-.63-.42-.98-.54,3.64-1.75,6.3-4.34,7.61-7.79h-6.63Zm1.42-3.64c-.93,0-1.71.02-2.49.07-.16.02-.19-.05-.21-.25-.03-.26-.09-.74-.09-1.05,1.01.11,1.68.12,2.85.12h2.71c1.1,0,1.87-.04,2.71-.09.16,0,.19.05.19.21.02.23.02.54,0,.79,0,.19-.04.25-.23.23-.8,0-1.54-.04-2.61-.04h-2.85Z" style="fill:gray;"/><path d="m345.69,167.71c0,1.05.02,2.05.05,3.17.02.16-.04.21-.17.21-.32.02-.7.02-1.02,0-.14,0-.17-.05-.17-.21.04-1.05.07-2.1.07-3.12v-5.18c-1.84,1.63-3.55,2.82-5.5,3.96-.16.09-.28.05-.4-.07-.23-.23-.54-.4-.88-.56,2.17-1.19,3.99-2.45,5.44-3.69,1.33-1.14,2.57-2.38,3.4-3.38.73-.89,1.05-1.42,1.21-1.98.47.25.95.52,1.21.79.17.18.14.39-.07.49-.21.11-.54.42-.98.93-.74.89-1.37,1.59-2.19,2.42v6.23Z" style="fill:gray;"/><path d="m356.47,162.08c2.01.58,3.96,1.4,5.71,2.43.14.07.17.16.12.28-.12.32-.28.63-.42.86-.1.14-.17.17-.33.07-1.63-1.07-3.5-1.89-5.09-2.34v4.06c0,1.07.04,2.43.05,3.57.02.17-.04.23-.23.23-.26.02-.61.02-.89,0-.19,0-.25-.05-.25-.25.05-1.12.07-2.49.07-3.55v-7.79c0-1.31-.07-2.21-.19-2.8.61.05,1.14.12,1.45.23.28.07.21.26.12.53-.11.3-.12.82-.12,1.94v2.54Zm4.34-4.57c.07-.05.12-.05.19,0,.7.49,1.47,1.35,1.98,2.12.05.07.04.14-.04.19l-.51.42c-.09.07-.18.05-.23-.04-.51-.86-1.24-1.68-2.03-2.24l.63-.46Zm1.47-1.16c.07-.05.12-.07.19-.02.7.54,1.49,1.31,2,2.05.05.09.04.14-.05.21l-.47.42c-.07.07-.14.07-.21-.04-.44-.72-1.19-1.58-2.01-2.19l.56-.44Z" style="fill:gray;"/><path d="m223.59,165.7c0,.12-.02.14-.14.14-.09,0-.65-.04-2.31-.04h-4.46v2.89c0,2.12.04,3.06.04,3.15,0,.12-.02.14-.14.14h-.88c-.12,0-.14-.02-.14-.14,0-.09.04-1.03.04-3.13v-2.91h-4.59c-1.66,0-2.22.04-2.31.04-.12,0-.14-.02-.14-.14v-.8c0-.12.02-.12.14-.12.09,0,.65.02,2.31.02h4.59v-3.8h-3.92c-.47.84-1.07,1.65-1.82,2.42-.11.12-.18.17-.23.17s-.12-.07-.25-.21c-.19-.19-.42-.35-.63-.44,1.59-1.49,2.48-3.08,2.99-4.62.14-.44.21-.73.25-1.16.38.07.75.16,1.05.26.14.05.25.11.25.21,0,.09-.05.16-.14.25-.14.12-.21.26-.28.47-.21.56-.42,1.1-.68,1.65h3.41v-1.58c0-1.14-.02-1.68-.12-2.21.45.02.86.05,1.19.1.12.02.21.07.21.14,0,.09-.05.19-.09.31-.05.17-.11.61-.11,1.59v1.63h3.12c1.77,0,2.36-.04,2.45-.04.11,0,.12.02.12.14v.79c0,.12-.02.14-.12.14-.09,0-.68-.04-2.45-.04h-3.12v3.8h4.46c1.66,0,2.22-.02,2.31-.02.12,0,.14,0,.14.12v.8Z" style="fill:gray;"/><path d="m236.02,160.64c1.75,0,2.36-.04,2.47-.04.12,0,.14.02.14.14,0,.11-.03.65-.03,1.87v5.06c0,.82.02,1.64.02,2.38,0,.54-.14.91-.49,1.17-.33.28-.96.37-2.54.37q-.33,0-.42-.35c-.07-.3-.17-.56-.33-.82.65.05,1.33.09,1.8.09.7,0,.93-.17.93-.81v-2.33h-9.22c-.37,1.8-1.1,3.06-2.19,4.22-.12.12-.17.17-.23.17-.07,0-.12-.05-.26-.16-.25-.19-.46-.33-.72-.42,1.89-1.75,2.64-3.52,2.64-7.16v-1.42c0-.68-.02-1.16-.02-1.45-.49.38-1.03.77-1.65,1.15-.1.07-.17.12-.23.12-.07,0-.12-.09-.21-.26-.12-.23-.28-.44-.46-.59,2.12-1.1,3.64-2.68,4.71-4.41.28-.47.4-.8.49-1.12.47.12.72.19,1.01.3.18.07.21.16.21.23,0,.09-.07.16-.17.23-.1.07-.25.23-.4.51l-.28.42h3.61c.21,0,.28-.02.35-.05.07-.04.12-.05.17-.05.09,0,.21.05.49.3.26.23.33.33.33.44,0,.09-.07.16-.21.23-.12.07-.3.23-.46.44-.37.54-.74,1.08-1.16,1.61h2.29Zm-6.04-2.03c-.54.74-1.1,1.4-1.79,2.01.37.02.98.02,1.96.02h2.4c.53-.68.95-1.33,1.37-2.03h-3.94Zm2.47,5.79h-3.82c-.02.77-.05,1.45-.14,2.08h3.96v-2.08Zm0-2.89h-3.82v2.01h3.82v-2.01Zm5.11,0h-4.11v2.01h4.11v-2.01Zm0,2.89h-4.11v2.08h4.11v-2.08Z" style="fill:gray;"/><path d="m287.07,124.72c0,1.23.04,1.66.04,1.77,0,.12-.02.14-.14.14-.1,0-.72-.03-2.48-.03h-5.51c-1.75,0-2.36.03-2.47.03-.12,0-.14-.02-.14-.14,0-.1.04-.54.04-1.77v-2.92c0-.89-.02-1.37-.04-1.59-.49.38-1.05.77-1.66,1.16-.12.09-.19.12-.25.12-.09,0-.12-.09-.21-.24-.16-.28-.31-.44-.46-.56,2.42-1.33,3.83-2.77,4.85-4.25.31-.46.47-.84.56-1.16.4.11.65.19.96.32.16.07.19.14.19.21,0,.09-.07.16-.17.23-.09.07-.21.19-.39.47-.1.16-.19.31-.3.46h3.66c.21,0,.3-.02.37-.05.04-.02.1-.04.16-.04.11,0,.21.04.49.28.26.23.35.33.35.44s-.09.17-.23.25c-.12.07-.26.23-.44.44-.4.54-.88,1.1-1.38,1.66h2.01c1.77,0,2.38-.03,2.48-.03.12,0,.14.02.14.14,0,.09-.04.53-.04,1.77v2.92Zm-9.98,3.1c.17.09.19.12.12.26-.53,1.03-1.23,1.89-2.15,2.71-.11.1-.18.12-.33.02l-.47-.35c-.21-.16-.21-.19-.1-.28.93-.77,1.63-1.56,2.13-2.57.07-.14.12-.14.3-.05l.51.26Zm1.73-9.98c-.6.72-1.26,1.4-2.08,2.06.32,0,.96.02,2.22.02h2.35c.65-.75,1.12-1.35,1.61-2.08h-4.1Zm2.31,2.94h-3.73v2h3.73v-2Zm0,2.83h-3.73v2.12h3.73v-2.12Zm-1.31,4.01c.16-.02.21-.02.25.11.26.88.4,1.77.53,2.75.02.12,0,.16-.23.19l-.56.07c-.26.04-.28.02-.3-.14-.11-.98-.19-1.86-.44-2.73-.04-.12,0-.14.21-.17l.54-.07Zm6.23-6.84h-3.92v2h3.92v-2Zm0,2.83h-3.92v2.12h3.92v-2.12Zm-2.75,3.92c.17-.03.21-.03.26.07.4.86.77,1.75,1.01,2.7.02.11,0,.16-.21.21l-.56.16c-.25.07-.28.07-.32-.07-.19-.95-.53-1.91-.91-2.75-.05-.11-.02-.14.21-.19l.51-.12Zm3.4-.25c.16-.09.17-.09.28.02.79.79,1.49,1.72,2.12,2.8.07.12.05.16-.14.28l-.47.28c-.23.14-.28.12-.33.02-.59-1.12-1.21-2.03-2-2.89-.1-.1-.09-.14.09-.25l.46-.26Z" style="fill:gray;"/><path d="m294.88,127.51c.33.88.72,1.36,1.5,1.73.63.28,1.84.44,3.5.44,2.24,0,4.81-.12,7.35-.37-.17.23-.28.49-.33.79q-.05.37-.4.38c-2.28.14-4.43.21-6.21.21-1.91,0-3.46-.17-4.3-.56-.81-.38-1.24-.93-1.63-1.73-.56.59-1.21,1.15-1.89,1.71-.21.16-.33.28-.37.35-.07.12-.14.16-.21.16s-.14-.04-.21-.14c-.17-.26-.35-.58-.51-.93.46-.23.72-.38,1.08-.65.51-.37,1.12-.91,1.61-1.43v-4.32h-1.29c-.93,0-1.14.04-1.23.04-.12,0-.14-.02-.14-.14v-.77c0-.12.02-.14.14-.14.09,0,.3.03,1.23.03h.95c.89,0,1.15-.03,1.26-.03.12,0,.14.02.14.14,0,.09-.03.54-.03,1.63v3.61Zm-2.4-11.41c.16-.1.17-.12.28-.02.77.72,1.45,1.52,2.13,2.47.07.1.09.16-.07.28l-.46.39c-.17.14-.23.16-.32.02-.67-1-1.35-1.82-2.07-2.52-.1-.11-.12-.14.07-.28l.42-.33Zm13.93,11.6c0,.12-.02.14-.14.14-.09,0-.65-.04-2.35-.04h-4.5c-1.71,0-2.31.04-2.4.04-.12,0-.14-.02-.14-.14,0-.09.03-.74.03-2.24v-5.34c-.35.49-.75.98-1.19,1.5-.12.14-.18.21-.23.21-.07,0-.12-.09-.25-.23-.16-.17-.3-.28-.46-.38,1.42-1.44,2.4-2.98,3.12-4.64.19-.49.28-.75.33-1.14.35.07.67.18,1,.32.12.05.19.12.19.19,0,.11-.09.17-.17.23-.14.11-.21.26-.37.56-.26.52-.51,1.01-.79,1.5h3.06c.39-.68.63-1.21.86-1.8.12-.33.19-.59.23-.91.4.09.7.16,1.01.28.12.05.19.1.19.19s-.07.17-.14.23c-.12.09-.23.16-.37.47-.26.56-.52,1.08-.79,1.54h1.73c1.63,0,2.15-.04,2.24-.04.14,0,.16.02.16.14v.67c0,.12-.02.14-.16.14-.09,0-.61-.04-2.24-.04h-1.85v1.94h1.17c1.58,0,2.08-.04,2.17-.04.12,0,.14.02.14.14v.65c0,.12-.02.14-.14.14-.09,0-.6-.04-2.17-.04h-1.17v1.98h1.17c1.58,0,2.08-.04,2.17-.04.12,0,.14.02.14.16v.63c0,.12-.02.14-.14.14-.09,0-.6-.04-2.17-.04h-1.17v2.17h1.87c1.7,0,2.26-.04,2.35-.04.12,0,.14.02.14.14v.67Zm-5.32-8.58h-3.19v1.94h3.19v-1.94Zm0,2.8h-3.19v1.98h3.19v-1.98Zm0,2.84h-3.19v2.17h3.19v-2.17Z" style="fill:gray;"/><circle cx="312.95" cy="105.74" r="4.49" style="fill:gray;"/><circle cx="281.52" cy="105.74" r="4.49" style="fill:gray;"/><circle cx="248.6" cy="168.02" r="4.49" style="fill:gray;"/><circle cx="277.53" cy="166.03" r="4.49" style="fill:gray;"/><polyline points="217.93 292.47 217.93 182.68 252.77 182.68" style="fill:none; stroke:#ed0030; stroke-linecap:round; stroke-miterlimit:10; stroke-width:2.94px;"/><polyline points="214.86 289.8 217.75 296.72 221.15 289.8" style="fill:none; stroke:#ed0030; stroke-linecap:round; stroke-miterlimit:10; stroke-width:2.38px;"/><polyline points="143.21 336.43 143.21 304.77 199.89 304.77" style="fill:none; stroke:#ed0030; stroke-linecap:round; stroke-miterlimit:10; stroke-width:2.94px;"/><polyline points="140.13 333.76 143.03 340.68 146.42 333.76" style="fill:none; stroke:#ed0030; stroke-linecap:round; stroke-miterlimit:10; stroke-width:2.38px;"/><polyline points="256.26 152.8 256.26 77.31 343.55 77.31" style="fill:none; stroke:#ed0030; stroke-linecap:round; stroke-miterlimit:10; stroke-width:2.94px;"/><polyline points="253.19 150.13 256.08 157.05 259.48 150.13" style="fill:none; stroke:#ed0030; stroke-linecap:round; stroke-miterlimit:10; stroke-width:2.38px;"/><line x1="351.71" y1="72.06" x2="351.71" y2="59.35" style="fill:none; stroke:#ed0030; stroke-linecap:round; stroke-miterlimit:10; stroke-width:2.94px;"/><polyline points="348.63 69.39 351.53 76.31 354.93 69.39" style="fill:none; stroke:#ed0030; stroke-linecap:round; stroke-miterlimit:10; stroke-width:2.38px;"/><path d="m151.37,83.7c0-.85-.01-1.18-.08-1.64.3.01.58.04.82.06.08.01.14.06.14.11,0,.07-.02.12-.05.22-.05.14-.08.43-.08,1.23v6.45c0,1.31.02,1.87.02,1.93,0,.08-.01.1-.1.1h-.6c-.08,0-.1-.01-.1-.1,0-.07.02-.62.02-1.92v-6.44Zm8.73,4.04c0,3.41.02,4.01.02,4.07,0,.08-.01.1-.08.1h-.58c-.08,0-.1-.01-.1-.1v-.78h-4.52v.85c0,.08-.01.1-.1.1h-.56c-.08,0-.1-.01-.1-.1,0-.07.02-.67.02-4.1v-2.31c0-2.31-.02-2.95-.02-3.01,0-.08.01-.1.1-.1.07,0,.47.02,1.58.02h2.69c1.13,0,1.51-.02,1.58-.02s.08.01.08.1c0,.06-.02.68-.02,2.7v2.59Zm-.73-4.69h-4.52v3.18h4.52v-3.18Zm0,3.84h-4.52v3.47h4.52v-3.47Z" style="fill:gray;"/><path d="m164.5,89.91c.23.6.5.94,1.04,1.19.42.2,1.25.3,2.39.3,1.54,0,3.26-.08,5.04-.26-.12.16-.19.37-.22.58q-.05.25-.29.26c-1.56.1-3.03.14-4.25.14-1.32,0-2.41-.11-2.95-.38-.54-.26-.9-.68-1.15-1.2-.38.42-.83.8-1.28,1.19-.13.12-.19.18-.24.25-.05.07-.1.11-.14.11s-.08-.02-.14-.1c-.13-.18-.28-.43-.38-.66.28-.11.52-.25.75-.43.37-.28.79-.61,1.13-.98v-2.96h-.89c-.62,0-.78.02-.83.02-.1,0-.11-.01-.11-.1v-.53c0-.08.01-.1.11-.1.05,0,.2.02.83.02h.65c.62,0,.8-.02.86-.02.08,0,.1.01.1.1,0,.06-.02.37-.02,1.12v2.45Zm-1.64-7.78c.12-.08.13-.1.2-.02.49.48.95,1.03,1.37,1.68.05.07.04.08-.08.18l-.3.24c-.14.11-.17.11-.23.01-.37-.61-.86-1.27-1.32-1.72-.07-.06-.06-.08.07-.17l.29-.2Zm9.59,1.63c0,.1-.01.11-.1.11-.07,0-.48-.02-1.68-.02h-1.74c-.13.34-.26.68-.41,1h1.31c1.08,0,1.45-.02,1.51-.02.08,0,.1.01.1.1,0,.06-.02.4-.02,1.33v2.76c0,.94.02,1.26.02,1.32,0,.08-.01.1-.1.1-.06,0-.43-.02-1.51-.02h-2.24c-1.07,0-1.45.02-1.51.02-.08,0-.1-.01-.1-.1,0-.06.02-.38.02-1.32v-2.76c0-.94-.02-1.27-.02-1.33,0-.08.01-.1.1-.1.06,0,.44.02,1.51.02h.23c.16-.32.28-.65.37-1h-1.33c-1.25,0-1.66.02-1.72.02-.08,0-.1-.01-.1-.11v-.46c0-.1.01-.11.1-.11.06,0,.47.02,1.72.02h2.41c.23-.36.41-.68.58-1.07.07-.16.13-.31.17-.53.24.05.47.1.68.18.07.02.12.07.12.13,0,.07-.05.11-.11.16s-.12.14-.18.24c-.13.23-.35.58-.58.89h.72c1.2,0,1.61-.02,1.68-.02.08,0,.1.01.1.11v.46Zm-5.46-2.07c.11-.04.14-.05.2.01.24.25.52.66.71,1.03.05.08.01.11-.08.16l-.36.18c-.16.07-.17.08-.22-.01-.16-.36-.38-.73-.67-1.08-.06-.07-.05-.12.1-.17l.32-.12Zm3.74,3.73h-4.04v1.04h4.04v-1.04Zm0,1.61h-4.04v1.06h4.04v-1.06Zm0,1.62h-4.04v1.15h4.04v-1.15Z" style="fill:gray;"/><path d="m145.46,186.18c0,3.69.02,4.39.02,4.46,0,.08-.01.1-.1.1h-.58c-.08,0-.1-.01-.1-.1v-.68h-7.98v.68c0,.08-.01.1-.1.1h-.56c-.08,0-.1-.01-.1-.1,0-.07.02-.76.02-4.46v-2.41c0-2.41-.02-3.13-.02-3.19,0-.08.01-.1.1-.1.07,0,.48.02,1.67.02h5.97c1.19,0,1.6-.02,1.67-.02.08,0,.1.01.1.1,0,.06-.02.78-.02,2.84v2.76Zm-.74-5h-7.98v8.13h7.98v-8.13Zm-.66,6.86c0,.08-.01.1-.1.1-.07,0-.44-.02-1.62-.02h-3.21c-1.18,0-1.55.02-1.61.02-.1,0-.11-.01-.11-.1v-.48c0-.08.01-.1.11-.1.06,0,.43.02,1.61.02h1.17v-2.15h-.68c-1.06,0-1.39.02-1.46.02-.08,0-.1-.01-.1-.1v-.46c0-.08.01-.1.1-.1.07,0,.41.02,1.46.02h.68v-1.8h-.98c-1.15,0-1.52.02-1.58.02-.08,0-.1-.01-.1-.1v-.47c0-.08.01-.1.1-.1.06,0,.43.02,1.58.02h2.88c1.15,0,1.52-.02,1.58-.02.08,0,.1.01.1.1v.47c0,.08-.01.1-.1.1-.06,0-.43-.02-1.58-.02h-1.19v1.8h.84c1.04,0,1.39-.02,1.45-.02.08,0,.1.01.1.1v.46c0,.08-.01.1-.1.1-.06,0-.41-.02-1.45-.02h-.84v2.15h1.33c1.18,0,1.55-.02,1.62-.02.08,0,.1.01.1.1v.48Zm-1.81-2.34c.11-.08.11-.06.19.01.34.31.62.67.92,1.15.05.07.05.08-.07.17l-.24.17c-.06.05-.11.07-.13.07-.04,0-.06-.04-.08-.08-.24-.43-.55-.83-.88-1.18-.06-.07-.04-.08.08-.17l.2-.14Z" style="fill:gray;"/><path d="m149.74,188.21c.23.6.5.94,1.04,1.19.42.2,1.25.3,2.39.3,1.54,0,3.26-.08,5.04-.26-.12.16-.19.37-.22.58q-.05.25-.29.26c-1.56.1-3.03.14-4.25.14-1.32,0-2.41-.11-2.95-.38-.54-.26-.9-.68-1.15-1.2-.38.42-.83.8-1.28,1.19-.13.12-.19.18-.24.25-.05.07-.1.11-.14.11s-.08-.02-.14-.1c-.13-.18-.28-.43-.38-.66.28-.11.52-.25.75-.43.37-.28.79-.61,1.13-.98v-2.96h-.89c-.62,0-.78.02-.83.02-.1,0-.11-.01-.11-.1v-.53c0-.08.01-.1.11-.1.05,0,.2.02.83.02h.65c.62,0,.8-.02.86-.02.08,0,.1.01.1.1,0,.06-.02.37-.02,1.12v2.45Zm-1.64-7.78c.12-.08.13-.1.2-.02.49.48.95,1.03,1.37,1.68.05.07.04.08-.08.18l-.3.24c-.14.11-.17.11-.23.01-.37-.61-.86-1.27-1.32-1.72-.07-.06-.06-.08.07-.17l.29-.2Zm9.59,1.63c0,.1-.01.11-.1.11-.07,0-.48-.02-1.68-.02h-1.74c-.13.34-.26.68-.41,1h1.31c1.08,0,1.45-.02,1.51-.02.08,0,.1.01.1.1,0,.06-.02.4-.02,1.33v2.76c0,.94.02,1.26.02,1.32,0,.08-.01.1-.1.1-.06,0-.43-.02-1.51-.02h-2.24c-1.07,0-1.45.02-1.51.02-.08,0-.1-.01-.1-.1,0-.06.02-.38.02-1.32v-2.76c0-.94-.02-1.27-.02-1.33,0-.08.01-.1.1-.1.06,0,.44.02,1.51.02h.23c.16-.32.28-.65.37-1h-1.33c-1.25,0-1.66.02-1.72.02-.08,0-.1-.01-.1-.11v-.46c0-.1.01-.11.1-.11.06,0,.47.02,1.72.02h2.41c.23-.36.41-.68.58-1.07.07-.16.13-.31.17-.53.24.05.47.1.68.18.07.02.12.07.12.13,0,.07-.05.11-.11.16s-.12.14-.18.24c-.13.23-.35.58-.58.89h.72c1.2,0,1.61-.02,1.68-.02.08,0,.1.01.1.11v.46Zm-5.46-2.07c.11-.04.14-.05.2.01.24.25.52.66.71,1.03.05.08.01.11-.08.16l-.36.18c-.16.07-.17.08-.22-.01-.16-.36-.38-.73-.67-1.08-.06-.07-.05-.12.1-.17l.32-.12Zm3.74,3.73h-4.04v1.04h4.04v-1.04Zm0,1.61h-4.04v1.06h4.04v-1.06Zm0,1.62h-4.04v1.15h4.04v-1.15Z" style="fill:gray;"/><path d="m162.49,188.84h1.63v.8h-4.33v-.8h1.74v-6.93c-.46.31-1.06.61-1.73.86l-.17-.88c.73-.24,1.43-.61,2.04-1.03h.82v7.98Z" style="fill:gray;"/><path d="m175.39,185.25c0,.08-.01.1-.1.1-.06,0-.43-.02-1.57-.02h-4.74c-.18.43-.37.86-.6,1.27h3.65c1.1,0,1.47-.02,1.54-.02.1,0,.13.04.12.12-.05.41-.11.79-.17,1.2-.08.58-.19,1.1-.36,1.68-.22.73-.7.98-1.4.98-.43,0-.86-.01-1.26-.04-.24-.01-.24-.02-.3-.26-.05-.19-.12-.37-.22-.52.71.07,1.2.11,1.73.11.3,0,.61-.12.76-.6.13-.47.24-1.02.37-2h-4.83c-.17.26-.35.52-.54.76-.05.06-.07.07-.22.04l-.41-.1c-.19-.06-.2-.07-.14-.16.58-.7,1.13-1.63,1.47-2.46h-1.52c-1.14,0-1.51.02-1.57.02-.08,0-.1-.01-.1-.1v-.53c0-.08.01-.1.1-.1.06,0,.43.02,1.57.02h7.08c1.14,0,1.51-.02,1.57-.02.08,0,.1.01.1.1v.53Zm-1.93-2.67c0,.68.02.91.02.98s-.01.08-.1.08c-.07,0-.47-.02-1.64-.02h-3.19c-1.17,0-1.58.02-1.64.02-.08,0-.1-.01-.1-.08s.02-.3.02-.98v-1.08c0-.67-.02-.9-.02-.97,0-.08.01-.1.1-.1.06,0,.47.02,1.64.02h3.19c1.18,0,1.57-.02,1.64-.02.08,0,.1.01.1.1,0,.07-.02.3-.02.97v1.08Zm-.71-1.49h-5.21v1.9h5.21v-1.9Z" style="fill:gray;"/><path d="m180.39,183.79c.11-.05.14-.04.18.04.37.7.59,1.27.79,1.94.02.07.01.12-.12.16l-.28.08c-.16.05-.18.04-.22-.07l-.11-.38c-.37.05-.72.08-1.07.12v3.21c0,1.31.02,1.68.02,1.74,0,.08-.01.1-.1.1h-.54c-.08,0-.1-.01-.1-.1,0-.06.02-.43.02-1.74v-3.15c-.42.04-.83.07-1.22.1-.26.02-.36.06-.46.1-.06.02-.1.05-.14.05-.06,0-.11-.06-.12-.14-.04-.18-.06-.37-.1-.66.26.02.47.04.77.02h.12c.31-.41.61-.82.89-1.22-.55-.68-1.13-1.31-1.75-1.88-.07-.07-.06-.1.04-.22l.19-.25c.08-.11.12-.11.18-.05.17.16.32.3.47.46.3-.46.56-.91.8-1.39.19-.4.26-.58.31-.77.23.08.46.19.64.3.08.05.12.08.12.14s-.04.1-.1.13c-.08.06-.13.12-.2.25-.42.7-.73,1.2-1.13,1.77.28.29.54.59.82.91.32-.49.61-1,.91-1.51.17-.3.28-.53.35-.79.23.1.47.2.65.3.07.04.11.08.11.14,0,.07-.04.11-.11.16-.12.1-.22.23-.41.54-.67,1.07-1.34,2.06-2,2.94.62-.02,1.26-.07,1.96-.13-.12-.34-.25-.65-.43-.98-.04-.07-.02-.1.12-.16l.24-.1Zm-2.18,3.27c-.04.07-.07.24-.11.46-.1.66-.25,1.34-.53,2.16-.04.13-.06.18-.11.18-.04,0-.08-.04-.18-.1-.1-.07-.3-.16-.41-.18.35-.8.5-1.52.59-2.17.04-.3.05-.5.04-.73.25.04.49.08.6.12.11.04.17.07.17.12,0,.06-.02.08-.06.14Zm2.24-.48c.12-.04.13-.04.17.05.22.52.37,1.21.49,1.83.01.08.01.1-.16.16l-.25.1c-.17.06-.18.06-.19-.05-.08-.66-.24-1.33-.43-1.86-.02-.08-.02-.11.13-.16l.24-.07Zm2.29-.46c.12,0,.2-.02.23-.04.05-.02.07-.04.1-.04.07,0,.12.02.3.2.19.17.23.24.23.3,0,.07-.02.11-.1.16-.07.05-.13.12-.22.32-.35,1-.94,1.95-2.08,2.89-.08.07-.13.11-.18.11s-.1-.06-.18-.17c-.1-.12-.22-.22-.35-.29,1.2-.79,1.91-1.86,2.25-2.84h-.61c-.5,0-.76.02-.82.02-.08,0-.1-.01-.1-.1v-.47c0-.08.01-.1.1-.1.06,0,.29.02.88.02h.54Zm1.82-1.09c.25.74.53,1.4.88,1.99.43-.38.79-.77,1.07-1.1.12-.16.23-.3.31-.47.19.11.36.23.49.35.07.06.12.1.12.17s-.06.11-.13.14c-.13.07-.24.16-.46.4-.29.31-.64.64-1.08,1.01.5.7,1.14,1.3,2.01,1.86-.14.11-.25.25-.35.42-.07.12-.11.17-.16.17s-.1-.04-.17-.1c-1.21-1.02-1.95-1.97-2.59-3.65.04,1.32.08,2.21.08,3.35,0,.35-.07.61-.37.8-.22.12-.44.17-1.19.16-.23,0-.22.01-.29-.24-.05-.18-.12-.32-.23-.46.3.02.71.04.86.04.42,0,.53-.12.53-.44v-4.39h-.61c-1.02,0-1.37.02-1.44.02-.08,0-.1-.01-.1-.1,0-.07.02-.34.02-1.12v-1.6c0-.78-.02-1.06-.02-1.12,0-.08.01-.1.1-.1.07,0,.42.02,1.44.02h.3c.1-.23.17-.42.23-.62.07-.24.12-.41.14-.68.24.04.49.08.67.12.12.02.16.07.16.13s-.04.1-.1.16c-.07.07-.12.14-.16.24-.1.26-.18.47-.26.66h1c1.02,0,1.35-.02,1.43-.02.08,0,.1.01.1.1,0,.06-.02.34-.02,1.12v1.6c0,.78.02,1.06.02,1.12,0,.08-.01.1-.1.1-.07,0-.41-.02-1.43-.02h-.72Zm1.54-3.41h-3.63v1.09h3.63v-1.09Zm0,1.66h-3.63v1.18h3.63v-1.18Z" style="fill:gray;"/></g></svg>