<?xml version="1.0" encoding="UTF-8"?><svg id="_レイヤー_2" xmlns="http://www.w3.org/2000/svg" width="497.38" height="411.38" viewBox="0 0 497.38 411.38"><g id="_レイヤー_1-2"><line x1="393.79" y1="111.19" x2="393.79" y2="42.35" style="fill:none; stroke:#e6e6e6; stroke-linecap:round; stroke-miterlimit:10; stroke-width:13px;"/><polygon points="230.84 158.07 238.82 190 268.09 190 268.09 165.39 230.84 158.07" style="fill:#e6e6e6;"/><polyline points="105.81 210.99 216.21 145.11 226.93 108.98" style="fill:none; stroke:#e6e6e6; stroke-linecap:round; stroke-miterlimit:10; stroke-width:8px;"/><line x1="278.5" y1="60.2" x2="496.88" y2="60.2" style="fill:none; stroke:#6a6766; stroke-miterlimit:10; stroke-width:7.56px;"/><line x1="278.5" y1="60.2" x2="496.88" y2="60.2" style="fill:none; stroke:#fff; stroke-miterlimit:10; stroke-width:5.04px;"/><line x1="278.5" y1="60.2" x2="496.88" y2="60.2" style="fill:none; stroke:#6a6766; stroke-dasharray:0 0 11 13; stroke-miterlimit:10; stroke-width:5.04px;"/><polygon points="177.64 76.65 201.58 27.43 248.14 36.74 357.21 36.74 357.21 95.27 229.51 95.27 177.64 76.65" style="fill:#e6e6e6;"/><line x1=".5" y1="395.51" x2="496.88" y2="395.51" style="fill:none; stroke:#4d4948; stroke-miterlimit:10; stroke-width:7.56px;"/><line x1=".5" y1="395.51" x2="496.88" y2="395.51" style="fill:none; stroke:#fff; stroke-miterlimit:10; stroke-width:5.04px;"/><line x1=".5" y1="395.51" x2="496.88" y2="395.51" style="fill:none; stroke:#4d4948; stroke-dasharray:0 0 25.2 25.2; stroke-miterlimit:10; stroke-width:5.04px;"/><rect x="271.99" y="36.76" width="85.22" height="40.24" style="fill:#fff; stroke:#545454; stroke-miterlimit:10; stroke-width:.5px;"/><line x1="7.5" y1="343.31" x2="489.88" y2="343.31" style="fill:none; stroke:#e6e6e6; stroke-linecap:round; stroke-miterlimit:10; stroke-width:15px;"/><polyline points="200.96 340.65 137.73 128.52 187.95 20.78" style="fill:none; stroke:#e6e6e6; stroke-linecap:round; stroke-miterlimit:10; stroke-width:13px;"/><line x1="316.23" y1="339.32" x2="393.79" y2="111.19" style="fill:none; stroke:#e6e6e6; stroke-linecap:round; stroke-miterlimit:10; stroke-width:13px;"/><polyline points="489.88 180.4 371.65 180.4 72.55 115.22" style="fill:none; stroke:#e6e6e6; stroke-linecap:round; stroke-miterlimit:10; stroke-width:8px;"/><line x1="137.73" y1="128.52" x2="79.21" y2="171.09" style="fill:none; stroke:#e6e6e6; stroke-linecap:round; stroke-miterlimit:10; stroke-width:13px;"/><line x1="219.21" y1="148.1" x2="245.48" y2="246.91" style="fill:none; stroke:#e6e6e6; stroke-linecap:round; stroke-miterlimit:10; stroke-width:8px;"/><line x1="177.64" y1="246.91" x2="349.23" y2="246.91" style="fill:none; stroke:#e6e6e6; stroke-linecap:round; stroke-miterlimit:10; stroke-width:8px;"/><line x1="186.95" y1="289.79" x2="325.29" y2="289.79" style="fill:none; stroke:#e6e6e6; stroke-linecap:round; stroke-miterlimit:10; stroke-width:8px;"/><line x1="238.02" y1="199.02" x2="359.87" y2="199.02" style="fill:none; stroke:#e6e6e6; stroke-linecap:round; stroke-miterlimit:10; stroke-width:8px;"/><polyline points="161.68 85.96 226.85 107.24 435.69 107.24" style="fill:none; stroke:#e6e6e6; stroke-linecap:round; stroke-miterlimit:10; stroke-width:8px;"/><rect x="223.02" y="298.26" width="80.65" height="33.06" style="fill:#e6e6e6;"/><polygon points="185.3 331.33 95.34 331.33 95.34 298.26 175.99 298.26 185.3 331.33" style="fill:#e6e6e6;"/><line x1="224.97" y1="93.31" x2="244.55" y2="37.81" style="fill:#e6e6e6; stroke:#545454; stroke-dasharray:0 0 3 6; stroke-miterlimit:10; stroke-width:.5px;"/><line x1="239.98" y1="94.61" x2="258.92" y2="37.16" style="fill:#e6e6e6; stroke:#545454; stroke-dasharray:0 0 3 6; stroke-miterlimit:10; stroke-width:.5px;"/><polyline points="231.38 96.23 242.31 67.75 274.58 67.75" style="fill:none; stroke:#ed0030; stroke-linecap:round; stroke-miterlimit:10; stroke-width:2.94px;"/><polyline points="229.4 92.67 229.59 99.66 235.41 94.61" style="fill:none; stroke:#ed0030; stroke-linecap:round; stroke-miterlimit:10; stroke-width:2.38px;"/><line x1="220.08" y1="133.23" x2="226.49" y2="110.24" style="fill:none; stroke:#ed0030; stroke-linecap:round; stroke-miterlimit:10; stroke-width:2.94px;"/><polyline points="217.91 129.79 218.48 136.75 224.02 131.4" style="fill:none; stroke:#ed0030; stroke-linecap:round; stroke-miterlimit:10; stroke-width:2.38px;"/><line x1="204.87" y1="323.34" x2="198.07" y2="300.46" style="fill:none; stroke:#ed0030; stroke-linecap:round; stroke-miterlimit:10; stroke-width:2.94px;"/><polyline points="201.21 321.58 205.39 327.17 207.23 319.69" style="fill:none; stroke:#ed0030; stroke-linecap:round; stroke-miterlimit:10; stroke-width:2.38px;"/><line x1="227.79" y1="371.03" x2="214.58" y2="351.14" style="fill:none; stroke:#ed0030; stroke-linecap:round; stroke-miterlimit:10; stroke-width:2.94px;"/><polyline points="223.77 370.42 229.41 374.54 228.98 366.84" style="fill:none; stroke:#ed0030; stroke-linecap:round; stroke-miterlimit:10; stroke-width:2.38px;"/><line x1="193.86" y1="242.2" x2="233.45" y2="242.46" style="fill:none; stroke:#ed0030; stroke-linecap:round; stroke-miterlimit:10; stroke-width:2.94px;"/><polyline points="196.62 239.21 190.04 241.56 196.65 245.53" style="fill:none; stroke:#ed0030; stroke-linecap:round; stroke-miterlimit:10; stroke-width:2.38px;"/><line x1="242.76" y1="234" x2="222.81" y2="153.16" style="fill:none; stroke:#ed0030; stroke-linecap:round; stroke-miterlimit:10; stroke-width:2.94px;"/><polyline points="239.14 232.16 243.19 237.84 245.21 230.41" style="fill:none; stroke:#ed0030; stroke-linecap:round; stroke-miterlimit:10; stroke-width:2.38px;"/><polygon points="1.29 376.78 10.04 371.73 10.04 374.81 20.26 374.81 20.26 378.75 10.04 378.75 10.04 381.83 1.29 376.78" style="fill:gray;"/><polyline points="236.07 95.92 251.73 128.56 266.75 128.56" style="fill:none; stroke:gray; stroke-miterlimit:10; stroke-width:.5px;"/><rect x="181.27" y="378.66" width="139.13" height="32.41" style="fill:#fff; stroke:#545454; stroke-miterlimit:10; stroke-width:.64px;"/><polyline points="182.53 350.47 191.67 366.13 208.65 366.13 219.09 377.89" style="fill:none; stroke:#545454; stroke-dasharray:0 0 3 6; stroke-miterlimit:10; stroke-width:.5px;"/><line x1="223.01" y1="350.47" x2="243.25" y2="376.58" style="fill:none; stroke:#545454; stroke-dasharray:0 0 3 6; stroke-miterlimit:10; stroke-width:.5px;"/><rect x="193.84" y="264.75" width="17.36" height="17.36" style="fill:#fff; stroke:#545454; stroke-miterlimit:10; stroke-width:.5px;"/><path d="m205.69,277.93h-1.04v-4.2h-4.34v4.2h-1.04v-8.84h1.04v3.75h4.34v-3.75h1.04v8.84Z" style="fill:gray;"/><polygon points="231.51 237.79 181.77 237.79 174.97 214.61 221.06 204.06 231.51 237.79" style="fill:#e6e6e6;"/><polygon points="15.36 72.28 115.12 94.23 148.37 25.72 46.62 3.44 15.36 72.28" style="fill:#e6e6e6;"/><line x1="188.07" y1="267.4" x2="181.27" y2="244.52" style="fill:none; stroke:#ed0030; stroke-linecap:round; stroke-miterlimit:10; stroke-width:2.94px;"/><polyline points="184.4 265.64 188.59 271.23 190.43 263.75" style="fill:none; stroke:#ed0030; stroke-linecap:round; stroke-miterlimit:10; stroke-width:2.38px;"/><path d="m128.27,360.2v5.68c0,.67.13,1.22.38,1.66.37.67,1,1,1.89,1,1.06,0,1.79-.36,2.17-1.08.21-.39.31-.92.31-1.58v-5.68h1.26v5.16c0,1.13-.15,2-.46,2.61-.56,1.11-1.62,1.66-3.17,1.66s-2.61-.55-3.17-1.66c-.31-.61-.46-1.48-.46-2.61v-5.16h1.26Z" style="fill:gray;"/><path d="m135.96,362.69h1.07v.95c.32-.39.65-.67,1.01-.84.35-.17.75-.26,1.18-.26.95,0,1.59.33,1.93.99.18.36.28.88.28,1.56v4.3h-1.14v-4.22c0-.41-.06-.74-.18-.99-.2-.42-.56-.62-1.09-.62-.27,0-.49.03-.66.08-.31.09-.58.28-.81.55-.19.22-.31.45-.37.68-.06.24-.08.57-.08,1.01v3.51h-1.13v-6.7Z" style="fill:gray;"/><path d="m146.77,362.89c.2.12.43.34.68.66v-3.38h1.08v9.22h-1.01v-.93c-.26.41-.57.71-.93.89-.36.18-.77.27-1.23.27-.74,0-1.39-.31-1.93-.94-.54-.63-.82-1.46-.82-2.5,0-.98.25-1.82.74-2.54.5-.71,1.21-1.07,2.13-1.07.51,0,.94.11,1.28.33Zm-2.51,5.02c.3.48.79.73,1.46.73.52,0,.94-.22,1.28-.67s.5-1.09.5-1.93-.17-1.47-.52-1.88c-.34-.41-.77-.61-1.28-.61-.56,0-1.02.22-1.37.65-.35.43-.53,1.07-.53,1.91,0,.72.15,1.32.45,1.8Z" style="fill:gray;"/><path d="m154.3,362.87c.44.22.78.51,1.01.87.22.34.37.73.45,1.18.07.31.1.8.1,1.48h-4.87c.02.68.18,1.23.48,1.64.3.41.76.62,1.38.62.58,0,1.05-.2,1.4-.58.19-.23.33-.49.41-.79h1.11c-.03.25-.13.52-.29.82-.17.3-.35.55-.55.74-.34.33-.76.56-1.26.68-.27.07-.57.1-.91.1-.83,0-1.53-.3-2.11-.91s-.86-1.46-.86-2.55.29-1.95.87-2.62,1.34-1.01,2.27-1.01c.47,0,.93.11,1.37.33Zm.4,2.63c-.05-.49-.15-.88-.32-1.17-.31-.54-.82-.81-1.53-.81-.51,0-.94.19-1.29.56s-.53.85-.55,1.42h3.69Z" style="fill:gray;"/><path d="m157.22,362.69h1.07v1.16c.09-.22.3-.5.64-.82s.74-.48,1.18-.48c.02,0,.06,0,.11,0,.05,0,.14.01.26.03v1.19c-.07-.01-.13-.02-.18-.02-.06,0-.12,0-.18,0-.57,0-1,.18-1.31.55-.3.36-.46.78-.46,1.26v3.85h-1.13v-6.7Z" style="fill:gray;"/><path d="m161.37,362.72h1.1v.89c.23-.3.47-.54.74-.71.38-.25.83-.38,1.34-.38.76,0,1.41.29,1.94.87.53.58.8,1.41.8,2.49,0,1.46-.38,2.5-1.15,3.13-.49.4-1.05.59-1.69.59-.51,0-.93-.11-1.27-.33-.2-.12-.42-.34-.67-.64v3.42h-1.13v-9.33Zm4.23,5.25c.35-.44.52-1.1.52-1.97,0-.53-.08-.99-.23-1.38-.29-.74-.83-1.11-1.61-1.11s-1.32.39-1.61,1.17c-.15.42-.23.95-.23,1.59,0,.52.08.96.23,1.32.29.69.83,1.04,1.61,1.04.53,0,.96-.22,1.31-.66Z" style="fill:gray;"/><path d="m172.09,365.33c.26-.03.43-.14.52-.32.05-.1.07-.25.07-.43,0-.38-.14-.66-.41-.84s-.66-.26-1.17-.26c-.59,0-1,.16-1.25.48-.14.18-.23.44-.27.79h-1.05c.02-.83.29-1.4.8-1.73.51-.32,1.11-.49,1.79-.49.79,0,1.43.15,1.92.45.49.3.73.77.73,1.4v3.86c0,.12.02.21.07.28.05.07.15.11.3.11.05,0,.11,0,.17,0,.06,0,.13-.02.2-.03v.83c-.17.05-.31.08-.4.09-.09.01-.22.02-.38.02-.39,0-.67-.14-.84-.41-.09-.15-.16-.35-.19-.62-.23.3-.56.56-.99.78-.43.22-.9.33-1.42.33-.62,0-1.13-.19-1.52-.57s-.59-.85-.59-1.42c0-.62.19-1.1.58-1.44.39-.34.9-.55,1.53-.63l1.79-.22Zm-2.37,3.04c.24.19.52.28.84.28.4,0,.78-.09,1.15-.27.62-.3.94-.8.94-1.49v-.91c-.14.09-.31.16-.53.22s-.43.1-.64.12l-.68.09c-.41.05-.71.14-.92.26-.35.2-.52.51-.52.94,0,.32.12.58.36.77Z" style="fill:gray;"/><path d="m176.27,367.28c.03.38.13.66.29.86.29.36.79.54,1.51.54.43,0,.8-.09,1.12-.27.32-.18.49-.46.49-.84,0-.29-.13-.51-.39-.66-.17-.09-.49-.2-.98-.32l-.91-.23c-.58-.14-1.01-.3-1.28-.47-.49-.3-.74-.73-.74-1.26,0-.63.23-1.15.69-1.54.46-.39,1.08-.59,1.87-.59,1.02,0,1.76.3,2.21.89.28.38.42.78.41,1.21h-1.06c-.02-.25-.11-.48-.27-.69-.26-.29-.72-.44-1.38-.44-.44,0-.76.08-.99.24-.22.16-.34.38-.34.64,0,.29.15.52.44.7.17.1.42.2.75.27l.76.18c.82.2,1.38.39,1.66.57.44.29.66.74.66,1.36s-.23,1.11-.69,1.54c-.46.43-1.16.65-2.09.65-1.01,0-1.72-.23-2.14-.68s-.64-1.01-.67-1.68h1.08Z" style="fill:gray;"/><path d="m182.73,367.28c.03.38.13.66.29.86.29.36.79.54,1.51.54.43,0,.8-.09,1.12-.27.32-.18.49-.46.49-.84,0-.29-.13-.51-.39-.66-.17-.09-.49-.2-.98-.32l-.91-.23c-.58-.14-1.01-.3-1.28-.47-.49-.3-.74-.73-.74-1.26,0-.63.23-1.15.69-1.54.46-.39,1.08-.59,1.87-.59,1.02,0,1.76.3,2.21.89.28.38.42.78.41,1.21h-1.06c-.02-.25-.11-.48-.27-.69-.26-.29-.72-.44-1.38-.44-.44,0-.76.08-.99.24-.22.16-.34.38-.34.64,0,.29.15.52.44.7.17.1.42.2.75.27l.76.18c.82.2,1.38.39,1.66.57.44.29.66.74.66,1.36s-.23,1.11-.69,1.54c-.46.43-1.16.65-2.09.65-1.01,0-1.72-.23-2.14-.68s-.64-1.01-.67-1.68h1.08Z" style="fill:gray;"/><path d="m108.38,308.57h1.72l4.08,11.24h-1.67l-1.14-3.37h-4.45l-1.22,3.37h-1.56l4.23-11.24Zm2.5,6.63l-1.71-4.97-1.81,4.97h3.52Z" style="fill:gray;"/><path d="m121.12,312.43c.72.7,1.09,1.74,1.09,3.1s-.32,2.41-.96,3.27-1.63,1.29-2.97,1.29c-1.12,0-2.01-.38-2.67-1.14-.66-.76-.99-1.79-.99-3.07,0-1.38.35-2.47,1.04-3.29.69-.82,1.63-1.22,2.8-1.22,1.05,0,1.94.35,2.66,1.05Zm-.86,5.45c.34-.69.5-1.46.5-2.3,0-.76-.12-1.39-.36-1.87-.38-.75-1.04-1.13-1.98-1.13-.83,0-1.44.32-1.82.96-.38.64-.57,1.42-.57,2.32s.19,1.6.57,2.18.98.87,1.8.87c.9,0,1.52-.34,1.86-1.04Z" style="fill:gray;"/><path d="m123.81,308.57h1.4v1.56h-1.4v-1.56Zm0,3.08h1.4v8.16h-1.4v-8.16Z" style="fill:gray;"/><path d="m140,308.57v1.34h-3.79v9.9h-1.54v-9.9h-3.79v-1.34h9.11Z" style="fill:gray;"/><path d="m145.73,312.43c.72.7,1.09,1.74,1.09,3.1s-.32,2.41-.96,3.27-1.63,1.29-2.97,1.29c-1.12,0-2.01-.38-2.67-1.14-.66-.76-.99-1.79-.99-3.07,0-1.38.35-2.47,1.04-3.29.69-.82,1.63-1.22,2.8-1.22,1.05,0,1.94.35,2.66,1.05Zm-.86,5.45c.34-.69.5-1.46.5-2.3,0-.76-.12-1.39-.36-1.87-.38-.75-1.04-1.13-1.98-1.13-.83,0-1.44.32-1.82.96-.38.64-.57,1.42-.57,2.32s.19,1.6.57,2.18.98.87,1.8.87c.9,0,1.52-.34,1.86-1.04Z" style="fill:gray;"/><path d="m148.9,311.62l1.58,6.46,1.6-6.46h1.55l1.61,6.42,1.68-6.42h1.38l-2.38,8.2h-1.43l-1.67-6.34-1.61,6.34h-1.43l-2.36-8.2h1.51Z" style="fill:gray;"/><path d="m164.35,311.84c.54.27.96.63,1.24,1.06.27.41.46.9.55,1.45.08.38.12.98.12,1.81h-5.96c.03.83.22,1.5.58,2.01.36.5.93.76,1.69.76.71,0,1.28-.24,1.71-.71.24-.28.41-.6.51-.96h1.35c-.04.3-.15.64-.36,1.01-.2.37-.43.67-.67.91-.42.41-.93.68-1.54.83-.33.08-.7.12-1.12.12-1.01,0-1.87-.37-2.58-1.11-.7-.74-1.06-1.78-1.06-3.12s.35-2.39,1.06-3.21,1.64-1.23,2.78-1.23c.58,0,1.14.14,1.68.41Zm.49,3.22c-.06-.6-.18-1.07-.39-1.43-.37-.66-1-1-1.87-1-.63,0-1.15.23-1.58.68-.42.46-.65,1.04-.68,1.74h4.51Z" style="fill:gray;"/><path d="m167.9,311.62h1.31v1.42c.11-.28.37-.61.79-1.01s.9-.59,1.45-.59c.03,0,.07,0,.13,0,.06,0,.17.01.31.03v1.45c-.08-.02-.16-.03-.23-.03-.07,0-.14,0-.23,0-.69,0-1.23.22-1.6.67-.37.45-.56.96-.56,1.54v4.71h-1.38v-8.2Z" style="fill:gray;"/><path d="m260.41,171.76c.04.64.18,1.16.44,1.55.49.75,1.34,1.12,2.57,1.12.55,0,1.05-.08,1.5-.25.88-.32,1.31-.88,1.31-1.7,0-.61-.18-1.05-.56-1.31-.38-.25-.96-.48-1.76-.67l-1.47-.34c-.96-.22-1.65-.47-2.05-.74-.69-.47-1.04-1.17-1.04-2.1,0-1.01.34-1.84,1.02-2.49.68-.65,1.64-.97,2.89-.97,1.15,0,2.12.28,2.92.85.8.57,1.2,1.48,1.2,2.73h-1.43c-.07-.6-.23-1.06-.47-1.38-.44-.59-1.2-.88-2.27-.88-.86,0-1.48.19-1.86.57-.38.38-.56.82-.56,1.32,0,.55.22.95.67,1.21.29.16.95.37,1.98.61l1.53.36c.74.17,1.31.41,1.71.71.69.53,1.04,1.29,1.04,2.29,0,1.25-.44,2.14-1.33,2.67-.88.54-1.91.8-3.08.8-1.36,0-2.43-.36-3.2-1.07-.77-.71-1.15-1.67-1.13-2.88h1.43Z" style="fill:gray;"/><path d="m269.52,164.1h1.38v4.19c.33-.41.62-.7.88-.87.44-.29,1-.44,1.66-.44,1.19,0,2,.42,2.42,1.25.23.45.34,1.08.34,1.89v5.26h-1.42v-5.17c0-.6-.08-1.04-.23-1.32-.25-.45-.72-.67-1.41-.67-.57,0-1.09.2-1.55.59-.46.39-.7,1.13-.7,2.23v4.35h-1.38v-11.28Z" style="fill:gray;"/><path d="m278.13,164.14h1.4v1.56h-1.4v-1.56Zm0,3.08h1.4v8.16h-1.4v-8.16Z" style="fill:gray;"/><path d="m280.81,174.3l4.87-5.88h-4.51v-1.23h6.36v1.12l-4.84,5.84h4.98v1.23h-6.86v-1.09Z" style="fill:gray;"/><path d="m290.33,167.19v5.44c0,.42.06.76.19,1.03.24.49.68.73,1.33.73.93,0,1.57-.43,1.91-1.29.18-.46.28-1.09.28-1.89v-4.02h1.38v8.2h-1.3v-1.21c-.16.31-.38.57-.64.79-.52.43-1.14.64-1.88.64-1.15,0-1.93-.39-2.34-1.17-.22-.42-.34-.98-.34-1.68v-5.57h1.41Z" style="fill:gray;"/><path d="m303.52,168c.72.7,1.09,1.74,1.09,3.1s-.32,2.41-.96,3.27c-.64.86-1.63,1.29-2.97,1.29-1.12,0-2.01-.38-2.67-1.14-.66-.76-.99-1.79-.99-3.07,0-1.38.35-2.47,1.04-3.29s1.63-1.22,2.8-1.22c1.05,0,1.94.35,2.66,1.05Zm-.86,5.45c.33-.69.5-1.46.5-2.3,0-.76-.12-1.39-.36-1.87-.38-.75-1.04-1.13-1.98-1.13-.83,0-1.44.32-1.82.96-.38.64-.57,1.42-.57,2.32s.19,1.6.57,2.18c.38.58.98.87,1.8.87.9,0,1.52-.34,1.86-1.04Z" style="fill:gray;"/><path d="m306.18,164.14h1.32v6.53l3.53-3.48h1.76l-3.15,3.05,3.33,5.15h-1.76l-2.58-4.17-1.13,1.09v3.08h-1.32v-11.24Z" style="fill:gray;"/><path d="m318.29,170.42c.32-.04.53-.17.64-.4.06-.12.09-.3.09-.53,0-.47-.17-.81-.5-1.03-.33-.21-.81-.32-1.43-.32-.72,0-1.23.2-1.53.58-.17.21-.28.54-.33.96h-1.29c.03-1.01.35-1.72.98-2.11.63-.4,1.36-.59,2.19-.59.96,0,1.75.18,2.35.55.6.37.89.94.89,1.71v4.72c0,.14.03.26.09.34s.18.13.37.13c.06,0,.13,0,.21-.01.08,0,.16-.02.25-.03v1.02c-.21.06-.38.1-.49.12-.11.01-.27.02-.46.02-.47,0-.82-.17-1.03-.5-.11-.18-.19-.43-.24-.76-.28.37-.68.69-1.21.96s-1.1.41-1.74.41c-.76,0-1.38-.23-1.86-.69-.48-.46-.72-1.04-.72-1.73,0-.76.24-1.35.71-1.77.47-.42,1.1-.67,1.87-.77l2.2-.28Zm-2.9,3.72c.29.23.63.34,1.03.34.49,0,.95-.11,1.41-.34.77-.37,1.15-.98,1.15-1.83v-1.11c-.17.11-.38.2-.65.27s-.52.12-.78.15l-.83.11c-.5.07-.87.17-1.13.31-.43.24-.64.62-.64,1.15,0,.4.15.71.44.94Z" style="fill:gray;"/><path d="m251.45,180.33v1.34h-3.79v9.9h-1.54v-9.9h-3.79v-1.34h9.11Z" style="fill:gray;"/><path d="m257.18,184.19c.72.7,1.09,1.74,1.09,3.1s-.32,2.41-.96,3.27c-.64.86-1.63,1.29-2.97,1.29-1.12,0-2.01-.38-2.67-1.14-.66-.76-.99-1.79-.99-3.07,0-1.38.35-2.47,1.04-3.29s1.63-1.22,2.8-1.22c1.05,0,1.94.35,2.66,1.05Zm-.86,5.45c.33-.69.5-1.46.5-2.3,0-.76-.12-1.39-.36-1.87-.38-.75-1.04-1.13-1.98-1.13-.83,0-1.44.32-1.82.96-.38.64-.57,1.42-.57,2.32s.19,1.6.57,2.18c.38.58.98.87,1.8.87.9,0,1.52-.34,1.86-1.04Z" style="fill:gray;"/><path d="m259.84,180.33h1.32v6.53l3.53-3.48h1.76l-3.15,3.05,3.33,5.15h-1.76l-2.58-4.17-1.13,1.09v3.08h-1.32v-11.24Z" style="fill:gray;"/><path d="m273.18,183.38h1.52c-.19.53-.62,1.72-1.29,3.6-.5,1.41-.92,2.56-1.25,3.45-.8,2.09-1.36,3.36-1.68,3.82s-.89.69-1.68.69c-.19,0-.34,0-.45-.02-.1-.01-.23-.04-.39-.08v-1.25c.24.07.41.11.52.12.11.01.2.02.28.02.25,0,.44-.04.56-.13s.22-.19.3-.31c.03-.04.12-.25.28-.63.16-.38.27-.66.34-.84l-3.03-8.44h1.56l2.2,6.68,2.21-6.68Z" style="fill:gray;"/><path d="m277.23,183.38v5.44c0,.42.06.76.19,1.03.24.49.68.73,1.33.73.93,0,1.57-.43,1.91-1.29.18-.46.28-1.09.28-1.89v-4.02h1.38v8.2h-1.3l.02-1.21c-.18.31-.39.57-.65.79-.52.43-1.14.64-1.88.64-1.15,0-1.93-.39-2.34-1.17-.23-.42-.34-.98-.34-1.68v-5.57h1.41Z" style="fill:gray;"/><path d="m290.1,187.95c.04.64.18,1.16.44,1.55.49.75,1.34,1.12,2.57,1.12.55,0,1.05-.08,1.5-.25.88-.32,1.31-.88,1.31-1.7,0-.61-.18-1.05-.56-1.31-.38-.25-.96-.48-1.76-.67l-1.47-.34c-.96-.22-1.65-.47-2.05-.74-.69-.47-1.04-1.17-1.04-2.1,0-1.01.34-1.84,1.02-2.49.68-.65,1.64-.97,2.89-.97,1.15,0,2.12.28,2.92.85.8.57,1.2,1.48,1.2,2.73h-1.43c-.07-.6-.23-1.06-.47-1.38-.44-.59-1.2-.88-2.27-.88-.86,0-1.48.19-1.86.57-.38.38-.56.82-.56,1.32,0,.55.22.95.67,1.21.29.16.95.37,1.98.61l1.53.36c.74.17,1.31.41,1.71.71.69.53,1.04,1.29,1.04,2.29,0,1.25-.44,2.14-1.33,2.67-.88.54-1.91.8-3.08.8-1.36,0-2.43-.36-3.2-1.07-.77-.71-1.15-1.67-1.13-2.88h1.43Z" style="fill:gray;"/><path d="m303.87,183.71c.25.18.5.45.73.81v-1.14h1.3v11.46h-1.38v-4.21c-.23.37-.55.66-.95.88s-.91.33-1.52.33c-.87,0-1.65-.34-2.34-1.03s-1.03-1.72-1.03-3.12c0-1.31.32-2.39.97-3.23.64-.84,1.48-1.26,2.5-1.26.68,0,1.25.17,1.71.51Zm-3.44,5.66c.35.85.98,1.28,1.89,1.28.96,0,1.62-.45,1.98-1.35.2-.5.3-1.13.3-1.9,0-.71-.11-1.3-.33-1.77-.37-.81-1.03-1.22-1.96-1.22-.6,0-1.11.26-1.53.78-.43.52-.64,1.32-.64,2.4,0,.71.1,1.3.3,1.78Z" style="fill:gray;"/><path d="m309.25,183.38v5.44c0,.42.06.76.19,1.03.24.49.68.73,1.33.73.93,0,1.57-.43,1.91-1.29.18-.46.28-1.09.28-1.89v-4.02h1.38v8.2h-1.3l.02-1.21c-.18.31-.39.57-.65.79-.52.43-1.14.64-1.88.64-1.15,0-1.93-.39-2.34-1.17-.23-.42-.34-.98-.34-1.68v-5.57h1.41Z" style="fill:gray;"/><path d="m320.74,186.61c.32-.04.53-.17.64-.4.06-.12.09-.3.09-.53,0-.47-.17-.81-.5-1.03-.33-.21-.81-.32-1.43-.32-.72,0-1.23.2-1.53.58-.17.21-.28.54-.33.96h-1.29c.03-1.01.35-1.72.98-2.11.63-.4,1.36-.59,2.19-.59.96,0,1.75.18,2.35.55.6.37.89.94.89,1.71v4.72c0,.14.03.26.09.34s.18.13.37.13c.06,0,.13,0,.21-.01.08,0,.16-.02.25-.03v1.02c-.21.06-.38.1-.49.12-.11.01-.27.02-.46.02-.47,0-.82-.17-1.03-.5-.11-.18-.19-.43-.24-.76-.28.37-.68.69-1.21.96s-1.1.41-1.74.41c-.76,0-1.38-.23-1.86-.69-.48-.46-.72-1.04-.72-1.73,0-.76.24-1.35.71-1.77.47-.42,1.1-.67,1.87-.77l2.2-.28Zm-2.9,3.72c.29.23.63.34,1.03.34.49,0,.95-.11,1.41-.34.77-.37,1.15-.98,1.15-1.83v-1.11c-.17.11-.38.2-.65.27s-.52.12-.78.15l-.83.11c-.5.07-.87.17-1.13.31-.43.24-.64.62-.64,1.15,0,.4.15.71.44.94Z" style="fill:gray;"/><path d="m324.99,183.38h1.31v1.42c.11-.28.37-.61.79-1.01.42-.4.9-.59,1.45-.59.03,0,.07,0,.13,0,.06,0,.17.01.31.03v1.45c-.08-.02-.16-.03-.23-.03-.07,0-.14,0-.23,0-.69,0-1.23.22-1.6.67-.37.45-.56.96-.56,1.54v4.71h-1.38v-8.2Z" style="fill:gray;"/><path d="m335.09,183.6c.54.27.96.63,1.24,1.06.27.41.46.9.55,1.45.08.38.12.98.12,1.81h-5.96c.03.83.22,1.5.58,2.01s.93.76,1.69.76c.71,0,1.28-.24,1.71-.71.24-.28.41-.6.51-.96h1.35c-.04.3-.15.64-.36,1.01-.2.37-.43.67-.67.91-.42.41-.93.68-1.54.83-.33.08-.7.12-1.12.12-1.01,0-1.87-.37-2.58-1.11-.7-.74-1.06-1.78-1.06-3.12s.35-2.39,1.06-3.21,1.64-1.23,2.78-1.23c.58,0,1.14.14,1.68.41Zm.49,3.22c-.06-.6-.18-1.07-.39-1.43-.38-.66-1-1-1.88-1-.63,0-1.15.23-1.58.68-.42.46-.65,1.04-.67,1.74h4.51Z" style="fill:gray;"/><path d="m224.35,9.83c.03.64.18,1.16.44,1.55.49.75,1.34,1.12,2.57,1.12.55,0,1.05-.08,1.5-.25.88-.32,1.31-.88,1.31-1.7,0-.61-.19-1.05-.56-1.31-.38-.25-.96-.48-1.76-.67l-1.48-.34c-.96-.22-1.65-.47-2.05-.74-.69-.47-1.04-1.17-1.04-2.1,0-1.01.34-1.84,1.02-2.49.68-.65,1.64-.97,2.89-.97,1.15,0,2.12.28,2.92.85.8.57,1.2,1.48,1.2,2.73h-1.43c-.07-.6-.23-1.06-.47-1.38-.44-.59-1.2-.88-2.27-.88-.86,0-1.48.19-1.86.57-.38.38-.56.82-.56,1.32,0,.55.22.95.67,1.21.29.16.95.37,1.98.61l1.53.36c.74.17,1.31.41,1.71.71.69.53,1.04,1.29,1.04,2.29,0,1.25-.44,2.14-1.32,2.67-.88.54-1.91.8-3.08.8-1.36,0-2.43-.36-3.2-1.07-.77-.71-1.15-1.67-1.13-2.88h1.43Z" style="fill:gray;"/><path d="m233.47,2.18h1.38v4.19c.33-.41.62-.7.88-.87.44-.29,1-.44,1.66-.44,1.19,0,1.99.42,2.42,1.25.23.45.34,1.08.34,1.89v5.26h-1.42v-5.17c0-.6-.08-1.04-.23-1.32-.25-.45-.72-.67-1.41-.67-.57,0-1.09.2-1.55.59-.46.39-.7,1.13-.7,2.23v4.35h-1.38V2.18Z" style="fill:gray;"/><path d="m242.08,2.21h1.4v1.56h-1.4v-1.56Zm0,3.08h1.4v8.16h-1.4V5.3Z" style="fill:gray;"/><path d="m245.44,5.26h1.31v1.16c.39-.48.8-.82,1.23-1.03s.92-.31,1.45-.31c1.16,0,1.95.41,2.36,1.22.22.44.34,1.08.34,1.91v5.26h-1.4v-5.17c0-.5-.07-.9-.22-1.21-.25-.51-.69-.77-1.33-.77-.33,0-.59.03-.8.1-.38.11-.71.34-.99.67-.23.27-.38.55-.45.84s-.1.7-.1,1.24v4.29h-1.38V5.26Z" style="fill:gray;"/><path d="m253.86,8.38h3.84v1.42h-3.84v-1.42Z" style="fill:gray;"/><path d="m260.62,9.83c.04.64.18,1.16.44,1.55.49.75,1.34,1.12,2.57,1.12.55,0,1.05-.08,1.5-.25.88-.32,1.31-.88,1.31-1.7,0-.61-.18-1.05-.56-1.31-.38-.25-.96-.48-1.76-.67l-1.47-.34c-.96-.22-1.65-.47-2.05-.74-.69-.47-1.04-1.17-1.04-2.1,0-1.01.34-1.84,1.02-2.49.68-.65,1.64-.97,2.89-.97,1.15,0,2.12.28,2.92.85.8.57,1.2,1.48,1.2,2.73h-1.43c-.07-.6-.23-1.06-.47-1.38-.44-.59-1.2-.88-2.27-.88-.86,0-1.48.19-1.86.57-.38.38-.56.82-.56,1.32,0,.55.22.95.67,1.21.29.16.95.37,1.98.61l1.53.36c.74.17,1.31.41,1.71.71.69.53,1.04,1.29,1.04,2.29,0,1.25-.44,2.14-1.33,2.67-.88.54-1.91.8-3.08.8-1.36,0-2.43-.36-3.2-1.07-.77-.71-1.15-1.67-1.13-2.88h1.43Z" style="fill:gray;"/><path d="m269.73,2.18h1.38v4.19c.33-.41.62-.7.88-.87.44-.29,1-.44,1.66-.44,1.19,0,1.99.42,2.42,1.25.23.45.34,1.08.34,1.89v5.26h-1.42v-5.17c0-.6-.08-1.04-.23-1.32-.25-.45-.72-.67-1.41-.67-.57,0-1.09.2-1.55.59s-.7,1.13-.7,2.23v4.35h-1.38V2.18Z" style="fill:gray;"/><path d="m278.34,2.21h1.4v1.56h-1.4v-1.56Zm0,3.08h1.4v8.16h-1.4V5.3Z" style="fill:gray;"/><path d="m281.02,12.37l4.87-5.88h-4.51v-1.23h6.36v1.12l-4.84,5.84h4.98v1.23h-6.86v-1.09Z" style="fill:gray;"/><path d="m290.54,5.26v5.44c0,.42.06.76.19,1.03.24.49.68.73,1.33.73.93,0,1.57-.43,1.91-1.29.18-.46.28-1.09.28-1.89v-4.02h1.38v8.2h-1.3l.02-1.21c-.18.31-.39.57-.65.79-.52.43-1.14.64-1.88.64-1.15,0-1.93-.39-2.34-1.17-.23-.42-.34-.98-.34-1.68v-5.57h1.41Z" style="fill:gray;"/><path d="m303.73,6.08c.72.7,1.09,1.74,1.09,3.1s-.32,2.41-.96,3.27c-.64.86-1.63,1.29-2.97,1.29-1.12,0-2.01-.38-2.67-1.14-.66-.76-.99-1.79-.99-3.07,0-1.38.35-2.47,1.04-3.29s1.63-1.22,2.8-1.22c1.05,0,1.94.35,2.66,1.05Zm-.86,5.45c.33-.69.5-1.46.5-2.3,0-.76-.12-1.39-.36-1.87-.38-.75-1.04-1.13-1.98-1.13-.83,0-1.44.32-1.82.96-.38.64-.57,1.42-.57,2.32s.19,1.6.57,2.18c.38.58.98.87,1.8.87.9,0,1.52-.34,1.86-1.04Z" style="fill:gray;"/><path d="m306.39,2.21h1.32v6.53l3.53-3.48h1.76l-3.15,3.05,3.33,5.15h-1.76l-2.58-4.17-1.13,1.09v3.08h-1.32V2.21Z" style="fill:gray;"/><path d="m318.5,8.5c.32-.04.53-.17.63-.4.06-.12.09-.3.09-.53,0-.47-.17-.81-.5-1.03-.33-.21-.81-.32-1.43-.32-.72,0-1.23.2-1.53.58-.17.21-.28.54-.33.96h-1.29c.03-1.01.35-1.72.98-2.11.63-.4,1.36-.59,2.19-.59.96,0,1.75.18,2.35.55.6.37.89.94.89,1.71v4.72c0,.14.03.26.09.34s.18.13.37.13c.06,0,.13,0,.21-.01.08,0,.16-.02.25-.03v1.02c-.21.06-.38.1-.49.12-.11.01-.27.02-.46.02-.47,0-.82-.17-1.03-.5-.11-.18-.19-.43-.24-.76-.28.37-.68.69-1.21.96-.53.27-1.11.41-1.74.41-.76,0-1.38-.23-1.86-.69-.48-.46-.72-1.04-.72-1.73,0-.76.24-1.35.71-1.77.47-.42,1.1-.67,1.87-.77l2.2-.28Zm-2.9,3.72c.29.23.63.34,1.03.34.48,0,.95-.11,1.41-.34.76-.37,1.15-.98,1.15-1.83v-1.11c-.17.11-.38.2-.65.27s-.52.12-.78.15l-.83.11c-.5.07-.87.17-1.12.31-.43.24-.64.62-.64,1.15,0,.4.15.71.44.94Z" style="fill:gray;"/><path d="m254.58,19.22c.78.75,1.21,1.6,1.29,2.56h-1.48c-.17-.72-.5-1.3-.99-1.72-.49-.42-1.19-.64-2.08-.64-1.09,0-1.96.39-2.63,1.17-.67.78-1,1.97-1,3.58,0,1.32.3,2.39.91,3.21.6.82,1.5,1.23,2.7,1.23,1.1,0,1.94-.43,2.52-1.29.31-.45.53-1.05.68-1.79h1.49c-.13,1.18-.57,2.18-1.3,2.98-.88.96-2.07,1.45-3.57,1.45-1.29,0-2.38-.4-3.25-1.19-1.15-1.05-1.73-2.66-1.73-4.85,0-1.66.43-3.02,1.3-4.08.94-1.15,2.23-1.73,3.88-1.73,1.41,0,2.5.38,3.27,1.12Z" style="fill:gray;"/><path d="m262.73,21.68c.54.27.96.63,1.24,1.06.27.41.46.9.55,1.45.08.38.12.98.12,1.81h-5.96c.03.83.22,1.5.58,2.01s.93.76,1.69.76c.71,0,1.28-.24,1.71-.71.24-.28.41-.6.51-.96h1.35c-.04.3-.15.64-.36,1.01-.2.37-.43.67-.67.91-.42.41-.93.68-1.54.83-.33.08-.7.12-1.12.12-1.01,0-1.87-.37-2.58-1.11-.7-.74-1.06-1.78-1.06-3.12s.35-2.39,1.06-3.21,1.64-1.23,2.78-1.23c.58,0,1.14.14,1.68.41Zm.49,3.22c-.06-.6-.18-1.07-.39-1.43-.38-.66-1-1-1.88-1-.63,0-1.15.23-1.58.68-.42.46-.65,1.04-.67,1.74h4.51Z" style="fill:gray;"/><path d="m266.27,21.45h1.31v1.16c.39-.48.8-.82,1.23-1.03s.92-.31,1.45-.31c1.16,0,1.95.41,2.36,1.22.22.44.34,1.08.34,1.91v5.26h-1.4v-5.17c0-.5-.07-.9-.22-1.21-.25-.51-.69-.77-1.33-.77-.33,0-.59.03-.8.1-.38.11-.71.34-1,.67-.23.27-.38.55-.45.84-.07.29-.1.7-.1,1.24v4.29h-1.38v-8.2Z" style="fill:gray;"/><path d="m280.91,22.27c.72.7,1.09,1.74,1.09,3.1s-.32,2.41-.96,3.27c-.64.86-1.63,1.29-2.97,1.29-1.12,0-2.01-.38-2.67-1.14-.66-.76-.99-1.79-.99-3.07,0-1.38.35-2.47,1.04-3.29.69-.82,1.63-1.22,2.8-1.22,1.05,0,1.93.35,2.66,1.05Zm-.86,5.45c.34-.69.5-1.46.5-2.3,0-.76-.12-1.39-.36-1.87-.38-.75-1.04-1.13-1.98-1.13-.83,0-1.44.32-1.82.96-.38.64-.57,1.42-.57,2.32s.19,1.6.57,2.18c.38.58.98.87,1.8.87.9,0,1.52-.34,1.86-1.04Z" style="fill:gray;"/><path d="m284.05,21.45l2.19,6.67,2.28-6.67h1.51l-3.08,8.2h-1.47l-3.02-8.2h1.6Z" style="fill:gray;"/><path d="m295.23,24.69c.32-.04.53-.17.63-.4.06-.12.09-.3.09-.53,0-.47-.17-.81-.5-1.03-.33-.21-.81-.32-1.43-.32-.72,0-1.23.2-1.53.58-.17.21-.28.54-.33.96h-1.29c.03-1.01.35-1.72.98-2.11.63-.4,1.36-.59,2.19-.59.96,0,1.75.18,2.35.55.6.37.89.94.89,1.71v4.72c0,.14.03.26.09.34s.18.13.37.13c.06,0,.13,0,.21-.01.08,0,.16-.02.25-.03v1.02c-.21.06-.38.1-.49.12-.11.01-.27.02-.46.02-.47,0-.82-.17-1.03-.5-.11-.18-.19-.43-.24-.76-.28.37-.68.69-1.21.96-.53.27-1.11.41-1.74.41-.76,0-1.38-.23-1.86-.69-.48-.46-.72-1.04-.72-1.73,0-.76.24-1.35.71-1.77.47-.42,1.1-.67,1.87-.77l2.2-.28Zm-2.9,3.72c.29.23.63.34,1.03.34.48,0,.95-.11,1.41-.34.76-.37,1.15-.98,1.15-1.83v-1.11c-.17.11-.38.2-.65.27s-.52.12-.78.15l-.83.11c-.5.07-.87.17-1.12.31-.43.24-.64.62-.64,1.15,0,.4.15.71.44.94Z" style="fill:gray;"/><path d="m277.66,52.77c.03.49.14.89.33,1.2.38.57,1.03.86,1.98.86.42,0,.81-.06,1.16-.19.67-.24,1.01-.68,1.01-1.31,0-.47-.14-.81-.43-1.01-.29-.2-.74-.37-1.36-.51l-1.13-.26c-.74-.17-1.27-.36-1.57-.57-.53-.36-.8-.9-.8-1.62,0-.78.26-1.42.79-1.91.52-.5,1.26-.75,2.22-.75.88,0,1.63.22,2.25.66.62.44.92,1.14.92,2.1h-1.1c-.06-.46-.18-.82-.36-1.07-.34-.45-.92-.68-1.74-.68-.66,0-1.14.15-1.43.44-.29.29-.43.63-.43,1.01,0,.42.17.73.51.93.22.13.73.28,1.52.47l1.17.28c.57.13,1,.32,1.31.55.53.4.8.99.8,1.76,0,.96-.34,1.64-1.02,2.05-.68.41-1.47.62-2.37.62-1.05,0-1.87-.27-2.46-.82-.59-.54-.88-1.29-.87-2.22h1.1Z" style="fill:gray;"/><path d="m284.68,46.89h1.06v3.23c.25-.32.48-.54.68-.67.34-.22.77-.33,1.28-.33.91,0,1.53.32,1.86.96.18.35.27.83.27,1.45v4.04h-1.09v-3.97c0-.46-.06-.8-.18-1.02-.19-.35-.55-.52-1.08-.52-.44,0-.84.15-1.2.45-.36.3-.54.87-.54,1.71v3.34h-1.06v-8.68Z" style="fill:gray;"/><path d="m291.32,46.92h1.08v1.2h-1.08v-1.2Zm0,2.37h1.08v6.27h-1.08v-6.27Z" style="fill:gray;"/><path d="m293.92,49.26h1.01v.9c.3-.37.61-.63.95-.79.33-.16.7-.24,1.11-.24.89,0,1.5.31,1.81.94.17.34.26.83.26,1.47v4.04h-1.08v-3.97c0-.38-.06-.69-.17-.93-.19-.39-.53-.59-1.02-.59-.25,0-.46.03-.62.08-.29.09-.54.26-.76.52-.18.21-.29.42-.34.64s-.08.54-.08.95v3.3h-1.06v-6.3Z" style="fill:gray;"/><path d="m300.41,51.66h2.96v1.09h-2.96v-1.09Z" style="fill:gray;"/><path d="m305.63,52.77c.03.49.14.89.33,1.2.38.57,1.03.86,1.98.86.42,0,.81-.06,1.16-.19.67-.24,1.01-.68,1.01-1.31,0-.47-.14-.81-.43-1.01-.29-.2-.74-.37-1.36-.51l-1.13-.26c-.74-.17-1.27-.36-1.57-.57-.53-.36-.8-.9-.8-1.62,0-.78.26-1.42.79-1.91.52-.5,1.26-.75,2.22-.75.88,0,1.63.22,2.25.66.62.44.92,1.14.92,2.1h-1.1c-.06-.46-.18-.82-.36-1.07-.34-.45-.92-.68-1.74-.68-.66,0-1.14.15-1.43.44-.29.29-.43.63-.43,1.01,0,.42.17.73.51.93.22.13.73.28,1.52.47l1.17.28c.57.13,1,.32,1.31.55.53.4.8.99.8,1.76,0,.96-.34,1.64-1.02,2.05-.68.41-1.47.62-2.37.62-1.05,0-1.87-.27-2.46-.82-.59-.54-.88-1.29-.87-2.22h1.1Z" style="fill:gray;"/><path d="m312.65,46.89h1.06v3.23c.25-.32.48-.54.68-.67.34-.22.77-.33,1.28-.33.91,0,1.53.32,1.86.96.18.35.27.83.27,1.45v4.04h-1.09v-3.97c0-.46-.06-.8-.18-1.02-.19-.35-.55-.52-1.08-.52-.44,0-.84.15-1.2.45-.36.3-.54.87-.54,1.71v3.34h-1.06v-8.68Z" style="fill:gray;"/><path d="m319.29,46.92h1.08v1.2h-1.08v-1.2Zm0,2.37h1.08v6.27h-1.08v-6.27Z" style="fill:gray;"/><path d="m321.37,54.73l3.74-4.52h-3.47v-.95h4.89v.87l-3.72,4.49h3.83v.95h-5.28v-.84Z" style="fill:gray;"/><path d="m328.71,49.26v4.19c0,.32.05.58.15.79.18.38.53.56,1.03.56.72,0,1.21-.33,1.47-.99.14-.35.21-.84.21-1.45v-3.1h1.06v6.3h-1v-.93c-.12.24-.29.44-.49.61-.4.33-.88.5-1.44.5-.88,0-1.48-.3-1.8-.9-.17-.32-.26-.75-.26-1.29v-4.29h1.08Z" style="fill:gray;"/><path d="m338.86,49.89c.56.54.84,1.34.84,2.39s-.25,1.85-.74,2.52c-.49.66-1.25.99-2.29.99-.86,0-1.55-.29-2.05-.88-.51-.59-.76-1.37-.76-2.36,0-1.06.27-1.9.8-2.53.53-.63,1.25-.94,2.15-.94.81,0,1.49.27,2.05.81Zm-.66,4.19c.26-.53.39-1.12.39-1.77,0-.59-.09-1.07-.28-1.43-.29-.58-.8-.87-1.53-.87-.64,0-1.11.25-1.4.74-.29.49-.44,1.09-.44,1.79s.15,1.23.44,1.67c.29.45.75.67,1.38.67.69,0,1.17-.27,1.43-.8Z" style="fill:gray;"/><path d="m340.93,46.92h1.02v5.02l2.72-2.68h1.35l-2.42,2.34,2.56,3.96h-1.35l-1.98-3.21-.87.84v2.37h-1.02v-8.65Z" style="fill:gray;"/><path d="m350.26,51.75c.24-.03.41-.13.49-.31.05-.09.07-.23.07-.41,0-.36-.13-.63-.38-.79s-.62-.25-1.1-.25c-.55,0-.94.15-1.17.45-.13.17-.21.41-.25.74h-.99c.02-.78.27-1.32.75-1.63.48-.3,1.05-.46,1.68-.46.74,0,1.34.14,1.81.42.46.28.69.72.69,1.32v3.63c0,.11.02.2.07.26.04.07.14.1.29.1.05,0,.1,0,.16,0,.06,0,.12-.01.19-.03v.78c-.17.05-.29.08-.38.09-.09.01-.2.02-.35.02-.37,0-.63-.13-.79-.39-.09-.14-.15-.33-.18-.58-.22.28-.53.53-.93.74-.4.21-.85.31-1.34.31-.58,0-1.06-.18-1.43-.53s-.56-.8-.56-1.33c0-.58.18-1.04.55-1.36s.84-.52,1.44-.59l1.69-.21Zm-2.23,2.86c.22.18.49.26.79.26.37,0,.73-.09,1.08-.26.59-.29.88-.75.88-1.4v-.85c-.13.08-.3.15-.5.21-.2.05-.4.09-.6.12l-.64.08c-.38.05-.67.13-.87.24-.33.18-.49.48-.49.88,0,.31.11.55.34.72Z" style="fill:gray;"/><path d="m297.49,65.23c.03.49.14.89.33,1.2.38.57,1.03.86,1.98.86.42,0,.81-.06,1.16-.19.67-.24,1.01-.68,1.01-1.31,0-.47-.14-.81-.43-1.01-.29-.2-.74-.37-1.36-.51l-1.13-.26c-.74-.17-1.27-.36-1.57-.57-.53-.36-.8-.9-.8-1.62,0-.78.26-1.42.79-1.91.52-.5,1.26-.75,2.22-.75.88,0,1.63.22,2.25.66.62.44.92,1.14.92,2.1h-1.1c-.06-.46-.18-.82-.36-1.07-.34-.45-.92-.68-1.74-.68-.66,0-1.14.15-1.43.44-.29.29-.43.63-.43,1.01,0,.42.17.73.51.93.22.13.73.28,1.52.47l1.17.28c.57.13,1,.32,1.31.55.53.4.8.99.8,1.76,0,.96-.34,1.64-1.02,2.05-.68.41-1.47.62-2.37.62-1.05,0-1.87-.27-2.46-.82-.59-.54-.88-1.29-.87-2.22h1.1Z" style="fill:gray;"/><path d="m304.73,59.95h1.07v1.76h1.01v.87h-1.01v4.11c0,.22.07.37.22.44.08.04.22.06.41.06.05,0,.11,0,.16,0,.06,0,.13,0,.21-.02v.84c-.12.04-.25.06-.38.08-.13.02-.27.02-.43.02-.5,0-.83-.13-1.01-.38s-.26-.58-.26-.99v-4.17h-.85v-.87h.85v-1.76Z" style="fill:gray;"/><path d="m311.23,64.2c.24-.03.41-.13.49-.31.05-.09.07-.23.07-.41,0-.36-.13-.63-.38-.79s-.62-.25-1.1-.25c-.55,0-.94.15-1.17.45-.13.17-.21.41-.25.74h-.99c.02-.78.27-1.32.75-1.63.48-.3,1.05-.46,1.68-.46.74,0,1.34.14,1.81.42.46.28.69.72.69,1.32v3.63c0,.11.02.2.07.26.04.07.14.1.29.1.05,0,.1,0,.16,0,.06,0,.12-.01.19-.03v.78c-.17.05-.29.08-.38.09-.09.01-.2.02-.35.02-.37,0-.63-.13-.79-.39-.09-.14-.15-.33-.18-.58-.22.28-.53.53-.93.74-.4.21-.85.31-1.34.31-.58,0-1.06-.18-1.43-.53s-.56-.8-.56-1.33c0-.58.18-1.04.55-1.36s.84-.52,1.44-.59l1.69-.21Zm-2.23,2.86c.22.18.49.26.79.26.37,0,.73-.09,1.08-.26.59-.29.88-.75.88-1.4v-.85c-.13.08-.3.15-.5.21-.2.05-.4.09-.6.12l-.64.08c-.38.05-.67.13-.87.24-.33.18-.49.48-.49.88,0,.31.11.55.34.72Z" style="fill:gray;"/><path d="m314.61,59.95h1.07v1.76h1.01v.87h-1.01v4.11c0,.22.07.37.22.44.08.04.22.06.41.06.05,0,.11,0,.16,0,.06,0,.13,0,.21-.02v.84c-.12.04-.25.06-.38.08-.13.02-.27.02-.43.02-.5,0-.83-.13-1.01-.38s-.26-.58-.26-.99v-4.17h-.85v-.87h.85v-1.76Z" style="fill:gray;"/><path d="m317.72,59.37h1.08v1.2h-1.08v-1.2Zm0,2.37h1.08v6.27h-1.08v-6.27Z" style="fill:gray;"/><path d="m324.96,62.34c.56.54.84,1.34.84,2.39s-.25,1.85-.74,2.52c-.49.66-1.25.99-2.29.99-.86,0-1.55-.29-2.05-.88-.51-.59-.76-1.37-.76-2.36,0-1.06.27-1.9.8-2.53.53-.63,1.25-.94,2.15-.94.81,0,1.49.27,2.05.81Zm-.66,4.19c.26-.53.39-1.12.39-1.77,0-.59-.09-1.07-.28-1.43-.29-.58-.8-.87-1.53-.87-.64,0-1.11.25-1.4.74-.29.49-.44,1.09-.44,1.79s.15,1.23.44,1.67c.29.45.75.67,1.38.67.69,0,1.17-.27,1.43-.8Z" style="fill:gray;"/><path d="m327.04,61.71h1.01v.9c.3-.37.61-.63.95-.79.33-.16.7-.24,1.11-.24.89,0,1.5.31,1.81.94.17.34.26.83.26,1.47v4.04h-1.08v-3.97c0-.38-.06-.69-.17-.93-.19-.39-.53-.59-1.02-.59-.25,0-.46.03-.62.08-.29.09-.54.26-.76.52-.18.21-.29.42-.34.64s-.08.54-.08.95v3.3h-1.06v-6.3Z" style="fill:gray;"/><path d="m37.5,45.21c.03.64.18,1.16.44,1.55.49.75,1.34,1.12,2.57,1.12.55,0,1.05-.08,1.5-.25.88-.32,1.31-.88,1.31-1.7,0-.61-.19-1.05-.56-1.31-.38-.25-.96-.48-1.76-.67l-1.48-.34c-.96-.22-1.65-.47-2.05-.74-.69-.47-1.04-1.17-1.04-2.1,0-1.01.34-1.84,1.02-2.49.68-.65,1.64-.97,2.89-.97,1.15,0,2.12.28,2.92.85.8.57,1.2,1.48,1.2,2.73h-1.43c-.07-.6-.23-1.06-.47-1.38-.44-.59-1.2-.88-2.27-.88-.86,0-1.48.19-1.86.57-.38.38-.56.82-.56,1.32,0,.55.22.95.67,1.21.29.16.95.37,1.98.61l1.53.36c.74.17,1.31.41,1.71.71.69.53,1.04,1.29,1.04,2.29,0,1.25-.44,2.14-1.32,2.67-.88.54-1.91.8-3.08.8-1.36,0-2.43-.36-3.2-1.07-.77-.71-1.15-1.67-1.13-2.88h1.43Z" style="fill:gray;"/><path d="m47.95,40.64v5.44c0,.42.06.76.19,1.03.24.49.68.73,1.33.73.93,0,1.57-.43,1.91-1.29.18-.46.28-1.09.28-1.89v-4.02h1.38v8.2h-1.3l.02-1.21c-.18.31-.39.57-.65.79-.52.43-1.14.64-1.88.64-1.15,0-1.93-.39-2.34-1.17-.23-.42-.34-.98-.34-1.68v-5.57h1.41Z" style="fill:gray;"/><path d="m55.09,40.64h1.31v1.16c.39-.48.8-.82,1.23-1.03s.92-.31,1.45-.31c1.16,0,1.95.41,2.36,1.22.22.44.34,1.08.34,1.91v5.26h-1.4v-5.17c0-.5-.07-.9-.22-1.21-.25-.51-.69-.77-1.33-.77-.33,0-.59.03-.8.1-.38.11-.71.34-.99.67-.23.27-.38.55-.45.84s-.1.7-.1,1.24v4.29h-1.38v-8.2Z" style="fill:gray;"/><path d="m63.64,40.68h1.35v1.09c.28-.37.58-.66.91-.87.47-.31,1.01-.46,1.64-.46.93,0,1.72.36,2.37,1.07.65.71.97,1.73.97,3.05,0,1.79-.47,3.06-1.41,3.83-.59.48-1.29.73-2.07.73-.62,0-1.14-.13-1.56-.41-.25-.15-.52-.42-.82-.79v4.19h-1.38v-11.42Zm5.18,6.42c.43-.54.64-1.34.64-2.41,0-.65-.09-1.21-.28-1.68-.36-.9-1.01-1.35-1.97-1.35s-1.61.48-1.97,1.43c-.19.51-.28,1.16-.28,1.94,0,.63.09,1.17.28,1.61.36.85,1.01,1.27,1.97,1.27.65,0,1.18-.27,1.61-.81Z" style="fill:gray;"/><path d="m73.79,40.64v5.44c0,.42.06.76.19,1.03.24.49.68.73,1.33.73.93,0,1.57-.43,1.91-1.29.18-.46.28-1.09.28-1.89v-4.02h1.38v8.2h-1.3l.02-1.21c-.18.31-.39.57-.65.79-.52.43-1.14.64-1.88.64-1.15,0-1.93-.39-2.34-1.17-.23-.42-.34-.98-.34-1.68v-5.57h1.41Z" style="fill:gray;"/><path d="m93.62,38.41c.78.75,1.21,1.6,1.29,2.56h-1.48c-.17-.72-.49-1.3-.99-1.72-.49-.42-1.19-.64-2.08-.64-1.09,0-1.96.39-2.63,1.17-.67.78-1,1.97-1,3.58,0,1.32.3,2.39.91,3.21.6.82,1.5,1.23,2.7,1.23,1.1,0,1.94-.43,2.52-1.29.31-.45.53-1.05.68-1.79h1.48c-.13,1.18-.56,2.18-1.3,2.98-.88.96-2.07,1.45-3.57,1.45-1.29,0-2.38-.4-3.25-1.19-1.15-1.05-1.73-2.66-1.73-4.85,0-1.66.43-3.02,1.3-4.08.94-1.15,2.23-1.73,3.88-1.73,1.41,0,2.5.38,3.27,1.12Z" style="fill:gray;"/><path d="m100.93,43.88c.32-.04.53-.17.64-.4.06-.12.09-.3.09-.53,0-.47-.17-.81-.5-1.03-.33-.21-.81-.32-1.43-.32-.72,0-1.23.2-1.53.58-.17.21-.28.54-.33.96h-1.29c.03-1.01.35-1.72.98-2.11s1.36-.59,2.19-.59c.96,0,1.75.18,2.35.55.6.37.89.94.89,1.71v4.72c0,.14.03.26.09.34s.18.13.37.13c.06,0,.13,0,.21-.01s.16-.02.25-.03v1.02c-.21.06-.38.1-.49.12-.11.01-.27.02-.46.02-.47,0-.82-.17-1.03-.5-.11-.18-.19-.43-.24-.76-.28.37-.68.69-1.21.96-.53.27-1.1.41-1.74.41-.76,0-1.38-.23-1.86-.69s-.72-1.04-.72-1.73c0-.76.24-1.35.71-1.77.47-.42,1.1-.67,1.87-.77l2.2-.28Zm-2.9,3.72c.29.23.63.34,1.03.34.48,0,.95-.11,1.41-.34.77-.37,1.15-.98,1.15-1.83v-1.11c-.17.11-.38.2-.65.27s-.52.12-.78.15l-.83.11c-.5.07-.87.17-1.13.31-.43.24-.64.62-.64,1.15,0,.4.15.71.44.94Z" style="fill:gray;"/><path d="m106.04,46.26c.04.46.16.81.35,1.06.35.44.97.67,1.84.67.52,0,.98-.11,1.37-.33.4-.22.59-.56.59-1.03,0-.35-.16-.62-.47-.8-.2-.11-.6-.24-1.2-.39l-1.11-.28c-.71-.17-1.23-.37-1.57-.58-.6-.37-.9-.89-.9-1.54,0-.78.28-1.4.85-1.88.57-.48,1.33-.72,2.28-.72,1.25,0,2.15.36,2.71,1.09.35.46.51.95.5,1.48h-1.3c-.03-.31-.14-.59-.34-.84-.32-.36-.89-.54-1.68-.54-.53,0-.94.1-1.21.3-.27.2-.41.46-.41.79,0,.36.18.64.54.85.21.13.51.24.92.34l.93.22c1.01.24,1.68.47,2.03.7.54.35.8.91.8,1.66s-.28,1.36-.84,1.89c-.56.53-1.41.8-2.56.8-1.23,0-2.11-.28-2.62-.83-.51-.55-.79-1.24-.83-2.05h1.32Z" style="fill:gray;"/><path d="m113.29,38.35h1.39v2.29h1.31v1.12h-1.31v5.35c0,.29.1.48.29.57.11.06.29.08.54.08.07,0,.14,0,.21,0,.08,0,.17-.01.27-.03v1.09c-.16.05-.32.08-.49.1s-.36.03-.55.03c-.64,0-1.08-.16-1.31-.49s-.34-.76-.34-1.28v-5.42h-1.11v-1.12h1.11v-2.29Z" style="fill:gray;"/><path d="m117.34,37.59h1.38v11.24h-1.38v-11.24Z" style="fill:gray;"/><path d="m125.78,40.87c.54.27.96.63,1.24,1.06.27.41.46.9.55,1.45.08.38.12.98.12,1.81h-5.96c.03.83.22,1.5.58,2.01.36.5.93.76,1.69.76.71,0,1.28-.24,1.71-.71.24-.28.41-.6.51-.96h1.35c-.04.3-.15.64-.36,1.01-.2.37-.43.67-.67.91-.42.41-.93.68-1.54.83-.33.08-.7.12-1.12.12-1.01,0-1.87-.37-2.58-1.11-.7-.74-1.06-1.78-1.06-3.12s.35-2.39,1.06-3.21,1.64-1.23,2.78-1.23c.58,0,1.14.14,1.68.41Zm.49,3.22c-.06-.6-.18-1.07-.39-1.43-.37-.66-1-1-1.87-1-.63,0-1.15.23-1.58.68-.42.46-.65,1.04-.68,1.74h4.51Z" style="fill:gray;"/><path d="m67.41,53.78h5.03c.99,0,1.8.28,2.41.85.61.56.92,1.36.92,2.38,0,.88-.27,1.64-.82,2.29-.55.65-1.38.98-2.5.98h-3.51v4.75h-1.52v-11.24Zm5.91,1.55c-.33-.16-.79-.24-1.38-.24h-3.01v3.9h3.01c.68,0,1.23-.15,1.65-.44s.63-.8.63-1.54c0-.83-.3-1.39-.91-1.68Z" style="fill:gray;"/><path d="m81.44,60.06c.32-.04.53-.17.64-.4.06-.12.09-.3.09-.53,0-.47-.17-.81-.5-1.03-.33-.21-.81-.32-1.43-.32-.72,0-1.23.2-1.53.58-.17.21-.28.54-.33.96h-1.29c.03-1.01.35-1.72.98-2.11s1.36-.59,2.19-.59c.96,0,1.75.18,2.35.55.6.37.89.94.89,1.71v4.72c0,.14.03.26.09.34s.18.13.37.13c.06,0,.13,0,.21-.01s.16-.02.25-.03v1.02c-.21.06-.38.1-.49.12-.11.01-.27.02-.46.02-.47,0-.82-.17-1.03-.5-.11-.18-.19-.43-.24-.76-.28.37-.68.69-1.21.96-.53.27-1.1.41-1.74.41-.76,0-1.38-.23-1.86-.69s-.72-1.04-.72-1.73c0-.76.24-1.35.71-1.77.47-.42,1.1-.67,1.87-.77l2.2-.28Zm-2.9,3.72c.29.23.63.34,1.03.34.48,0,.95-.11,1.41-.34.77-.37,1.15-.98,1.15-1.83v-1.11c-.17.11-.38.2-.65.27s-.52.12-.78.15l-.83.11c-.5.07-.87.17-1.13.31-.43.24-.64.62-.64,1.15,0,.4.15.71.44.94Z" style="fill:gray;"/><path d="m85.69,56.83h1.31v1.42c.11-.28.37-.61.79-1.01s.9-.59,1.45-.59c.03,0,.07,0,.13,0,.06,0,.17.01.31.03v1.45c-.08-.02-.16-.03-.23-.03-.07,0-.14,0-.23,0-.69,0-1.23.22-1.6.67-.37.45-.56.96-.56,1.54v4.71h-1.38v-8.2Z" style="fill:gray;"/><path d="m90.8,53.78h1.32v6.53l3.53-3.48h1.76l-3.15,3.05,3.33,5.15h-1.76l-2.58-4.17-1.13,1.09v3.08h-1.32v-11.24Z" style="fill:gray;"/><path d="m186.99,219.33h1.85l2.74,8.07,2.73-8.07h1.84v9.55h-1.23v-5.63c0-.2,0-.52.01-.97,0-.45.01-.93.01-1.45l-2.73,8.05h-1.28l-2.75-8.05v.29c0,.23,0,.59.02,1.07.01.48.02.83.02,1.06v5.63h-1.23v-9.55Z" style="fill:gray;"/><path d="m206,220.69c.63.84.95,1.93.95,3.24,0,1.42-.36,2.61-1.08,3.55-.85,1.11-2.06,1.66-3.63,1.66-1.47,0-2.62-.49-3.46-1.46-.75-.94-1.12-2.12-1.12-3.55,0-1.29.32-2.4.96-3.31.82-1.18,2.04-1.77,3.65-1.77s2.93.54,3.74,1.62Zm-1.14,6.08c.51-.82.76-1.76.76-2.82,0-1.12-.29-2.03-.88-2.71-.59-.69-1.39-1.03-2.41-1.03s-1.79.34-2.42,1.02c-.62.68-.94,1.68-.94,3,0,1.06.27,1.95.8,2.68.53.73,1.4,1.09,2.6,1.09s1.96-.41,2.47-1.23Z" style="fill:gray;"/><path d="m208.5,219.33h3.82c1.3,0,2.3.47,3.01,1.4.64.84.96,1.92.96,3.23,0,1.01-.19,1.93-.56,2.75-.66,1.45-1.8,2.17-3.42,2.17h-3.8v-9.55Zm3.56,8.44c.43,0,.78-.05,1.06-.14.49-.17.89-.49,1.21-.97.25-.39.43-.88.54-1.48.06-.36.1-.69.1-1,0-1.18-.23-2.1-.69-2.75-.46-.65-1.2-.98-2.22-.98h-2.24v7.33h2.26Z" style="fill:gray;"/><path d="m218.08,219.33h1.31v9.55h-1.31v-9.55Z" style="fill:gray;"/><path d="m216.37,269.03h6.21v1.05h-5.08v2.6h4.7v.99h-4.7v2.9h5.17v1.02h-6.3v-8.56Z" style="fill:gray;"/><path d="m223.59,271.35h1.36l1.43,2.2,1.45-2.2,1.28.03-2.1,3.01,2.2,3.2h-1.34l-1.55-2.34-1.5,2.34h-1.33l2.2-3.2-2.09-3.04Z" style="fill:gray;"/><path d="m230.11,269.03h1.07v1.19h-1.07v-1.19Zm0,2.35h1.07v6.21h-1.07v-6.21Z" style="fill:gray;"/><path d="m232.92,269.6h1.06v1.74h1v.86h-1v4.07c0,.22.07.36.22.44.08.04.22.06.41.06.05,0,.1,0,.16,0,.06,0,.13,0,.2-.02v.83c-.12.04-.25.06-.38.08-.13.01-.27.02-.42.02-.49,0-.82-.12-1-.38-.17-.25-.26-.58-.26-.98v-4.13h-.85v-.86h.85v-1.74Z" style="fill:gray;"/><path d="m272.28,123.27h6.21v1.05h-5.08v2.6h4.7v.99h-4.7v2.9h5.17v1.02h-6.3v-8.56Z" style="fill:gray;"/><path d="m279.5,125.58h1.36l1.43,2.2,1.45-2.2,1.28.03-2.1,3.01,2.2,3.2h-1.34l-1.55-2.34-1.5,2.34h-1.33l2.2-3.2-2.09-3.04Z" style="fill:gray;"/><path d="m286.02,123.27h1.07v1.19h-1.07v-1.19Zm0,2.35h1.07v6.21h-1.07v-6.21Z" style="fill:gray;"/><path d="m288.83,123.84h1.06v1.74h1v.86h-1v4.07c0,.22.07.36.22.44.08.04.22.06.41.06.05,0,.11,0,.16,0,.06,0,.13,0,.2-.02v.83c-.12.04-.25.06-.38.08-.13.01-.27.02-.42.02-.49,0-.82-.12-1-.38-.17-.25-.26-.58-.26-.98v-4.13h-.84v-.86h.84v-1.74Z" style="fill:gray;"/><path d="m191.52,397.15c0,1.09-.13,1.93-.4,2.53-.49,1.1-1.42,1.65-2.8,1.65-.79,0-1.47-.26-2.03-.78-.56-.52-.84-1.45-.84-2.79v-.92h1.35v.92c0,.7.13,1.23.39,1.58.26.35.66.53,1.2.53.77,0,1.27-.32,1.5-.96.14-.39.22-1.13.22-2.22v-8.58h1.42v9.04Z" style="fill:gray;"/><path d="m193.75,388.11h4.81c.79,0,1.45.14,1.96.43.98.55,1.46,1.56,1.46,3.04,0,.77-.13,1.4-.39,1.89-.26.49-.63.88-1.1,1.18.41.2.72.47.93.81.21.33.33.87.35,1.62l.05,1.73c.01.49.05.86.1,1.1.09.41.24.67.46.79v.29h-1.76c-.05-.11-.09-.25-.12-.43-.03-.17-.05-.51-.07-1.02l-.09-2.15c-.03-.84-.28-1.41-.75-1.69-.27-.16-.68-.24-1.25-.24h-3.17v5.52h-1.43v-12.88Zm4.66,5.9c.65,0,1.17-.16,1.55-.49.38-.33.57-.92.57-1.77,0-.92-.27-1.54-.8-1.88-.29-.17-.67-.26-1.14-.26h-3.41v4.4h3.22Z" style="fill:gray;"/><path d="m209.28,396.83c.03.73.17,1.32.41,1.78.46.85,1.27,1.28,2.42,1.28.52,0,.99-.09,1.42-.28.82-.36,1.24-1.01,1.24-1.95,0-.7-.17-1.2-.52-1.5-.35-.29-.91-.55-1.66-.76l-1.39-.39c-.91-.26-1.55-.54-1.93-.85-.65-.54-.98-1.34-.98-2.41,0-1.16.32-2.11.96-2.85s1.55-1.11,2.72-1.11c1.08,0,2,.33,2.75.98.76.65,1.13,1.69,1.13,3.12h-1.35c-.07-.69-.22-1.22-.44-1.59-.42-.67-1.13-1.01-2.13-1.01-.81,0-1.39.22-1.75.65-.35.43-.53.94-.53,1.51,0,.63.21,1.09.63,1.38.27.19.9.42,1.86.7l1.44.41c.69.2,1.23.47,1.61.82.65.6.98,1.48.98,2.62,0,1.43-.42,2.45-1.25,3.06-.83.61-1.8.92-2.9.92-1.28,0-2.29-.41-3.02-1.23-.73-.81-1.08-1.91-1.07-3.3h1.35Z" style="fill:gray;"/><path d="m217.86,388.06h1.3v4.8c.31-.47.58-.81.83-1,.42-.33.94-.5,1.56-.5,1.12,0,1.88.48,2.28,1.43.22.52.32,1.24.32,2.17v6.02h-1.33v-5.92c0-.69-.07-1.2-.22-1.52-.24-.51-.68-.77-1.33-.77-.54,0-1.03.22-1.46.67s-.66,1.3-.66,2.55v4.98h-1.3v-12.92Z" style="fill:gray;"/><path d="m225.98,388.11h1.32v1.79h-1.32v-1.79Zm0,3.53h1.32v9.34h-1.32v-9.34Z" style="fill:gray;"/><path d="m228.51,399.74l4.58-6.73h-4.24v-1.41h5.99v1.29l-4.55,6.69h4.69v1.41h-6.46v-1.25Z" style="fill:gray;"/><path d="m237.49,391.6v6.23c0,.48.06.87.18,1.17.22.56.64.84,1.26.84.88,0,1.48-.49,1.8-1.47.17-.53.26-1.25.26-2.17v-4.61h1.3v9.39h-1.23v-1.38c-.15.36-.36.66-.6.9-.49.49-1.07.74-1.77.74-1.08,0-1.81-.45-2.21-1.34-.21-.48-.32-1.12-.32-1.92v-6.38h1.33Z" style="fill:gray;"/><path d="m249.91,392.53c.68.81,1.02,1.99,1.02,3.56s-.3,2.76-.9,3.75c-.6.99-1.53,1.48-2.8,1.48-1.05,0-1.89-.44-2.51-1.31s-.93-2.04-.93-3.52c0-1.58.33-2.83.98-3.77.65-.93,1.53-1.4,2.63-1.4.99,0,1.82.4,2.5,1.21Zm-.81,6.24c.32-.79.47-1.67.47-2.64,0-.88-.11-1.59-.34-2.14-.36-.86-.98-1.3-1.87-1.3-.78,0-1.35.37-1.71,1.1-.36.74-.53,1.62-.53,2.66s.18,1.83.53,2.5c.36.67.92,1,1.7,1,.85,0,1.43-.4,1.75-1.19Z" style="fill:gray;"/><path d="m252.42,388.11h1.25v7.48l3.33-3.99h1.66l-2.96,3.49,3.13,5.9h-1.66l-2.43-4.78-1.06,1.25v3.52h-1.25v-12.88Z" style="fill:gray;"/><path d="m263.83,395.3c.3-.05.5-.2.6-.45.06-.14.09-.34.09-.61,0-.54-.16-.93-.47-1.17-.31-.24-.76-.37-1.35-.37-.68,0-1.16.22-1.44.67-.16.25-.26.61-.31,1.1h-1.21c.02-1.16.33-1.97.93-2.42.59-.45,1.28-.68,2.06-.68.91,0,1.64.21,2.21.63.56.42.84,1.08.84,1.96v5.41c0,.16.03.29.08.39.06.1.17.15.35.15.06,0,.12,0,.2-.01.07,0,.15-.02.23-.04v1.17c-.2.07-.36.11-.46.13-.11.02-.25.03-.43.03-.45,0-.77-.19-.97-.58-.11-.2-.18-.49-.22-.87-.26.42-.64.79-1.14,1.1-.5.31-1.04.46-1.64.46-.72,0-1.3-.26-1.75-.79-.45-.53-.68-1.19-.68-1.98,0-.87.22-1.54.67-2.02.45-.48,1.03-.77,1.76-.88l2.07-.32Zm-2.73,4.26c.27.26.6.39.97.39.46,0,.9-.13,1.33-.39.72-.43,1.08-1.12,1.08-2.09v-1.27c-.16.12-.36.23-.61.31-.25.08-.49.14-.73.18l-.78.12c-.47.08-.82.2-1.06.36-.4.27-.6.71-.6,1.31,0,.46.14.81.41,1.08Z" style="fill:gray;"/><path d="m273.11,396.83c.03.73.17,1.32.41,1.78.46.85,1.27,1.28,2.42,1.28.52,0,.99-.09,1.42-.28.82-.36,1.24-1.01,1.24-1.95,0-.7-.17-1.2-.52-1.5-.35-.29-.91-.55-1.66-.76l-1.39-.39c-.91-.26-1.55-.54-1.93-.85-.65-.54-.98-1.34-.98-2.41,0-1.16.32-2.11.96-2.85s1.55-1.11,2.72-1.11c1.08,0,2,.33,2.75.98.75.65,1.13,1.69,1.13,3.12h-1.35c-.07-.69-.22-1.22-.44-1.59-.42-.67-1.13-1.01-2.13-1.01-.81,0-1.39.22-1.75.65-.36.43-.53.94-.53,1.51,0,.63.21,1.09.63,1.38.28.19.9.42,1.87.7l1.44.41c.69.2,1.23.47,1.61.82.65.6.98,1.48.98,2.62,0,1.43-.42,2.45-1.25,3.06-.83.61-1.8.92-2.9.92-1.28,0-2.29-.41-3.01-1.23-.73-.81-1.08-1.91-1.07-3.3h1.35Z" style="fill:gray;"/><path d="m281.96,388.97h1.31v2.62h1.23v1.29h-1.23v6.13c0,.33.09.55.27.66.1.06.27.1.5.1.06,0,.13,0,.2,0,.07,0,.16-.01.25-.03v1.25c-.15.05-.3.09-.46.11s-.33.04-.52.04c-.61,0-1.02-.19-1.23-.57-.22-.38-.32-.87-.32-1.47v-6.22h-1.04v-1.29h1.04v-2.62Z" style="fill:gray;"/><path d="m289.91,395.3c.3-.05.5-.2.6-.45.06-.14.09-.34.09-.61,0-.54-.16-.93-.47-1.17-.31-.24-.76-.37-1.35-.37-.68,0-1.16.22-1.44.67-.16.25-.26.61-.31,1.1h-1.21c.02-1.16.33-1.97.93-2.42.59-.45,1.28-.68,2.06-.68.91,0,1.64.21,2.21.63.56.42.84,1.08.84,1.96v5.41c0,.16.03.29.08.39.06.1.17.15.35.15.06,0,.12,0,.2-.01.07,0,.15-.02.23-.04v1.17c-.2.07-.36.11-.46.13-.11.02-.25.03-.43.03-.45,0-.77-.19-.97-.58-.11-.2-.18-.49-.22-.87-.26.42-.64.79-1.14,1.1-.5.31-1.04.46-1.64.46-.72,0-1.3-.26-1.75-.79-.45-.53-.68-1.19-.68-1.98,0-.87.22-1.54.67-2.02.45-.48,1.03-.77,1.76-.88l2.07-.32Zm-2.73,4.26c.27.26.6.39.97.39.46,0,.9-.13,1.33-.39.72-.43,1.08-1.12,1.08-2.09v-1.27c-.16.12-.36.23-.61.31-.25.08-.49.14-.73.18l-.78.12c-.47.08-.82.2-1.06.36-.4.27-.6.71-.6,1.31,0,.46.14.81.41,1.08Z" style="fill:gray;"/><path d="m294.03,388.97h1.31v2.62h1.23v1.29h-1.23v6.13c0,.33.09.55.27.66.1.06.27.1.5.1.06,0,.13,0,.2,0,.07,0,.16-.01.25-.03v1.25c-.15.05-.3.09-.46.11s-.33.04-.52.04c-.61,0-1.02-.19-1.23-.57-.22-.38-.32-.87-.32-1.47v-6.22h-1.04v-1.29h1.04v-2.62Z" style="fill:gray;"/><path d="m297.83,388.11h1.32v1.79h-1.32v-1.79Zm0,3.53h1.32v9.34h-1.32v-9.34Z" style="fill:gray;"/><path d="m306.69,392.53c.68.81,1.02,1.99,1.02,3.56s-.3,2.76-.9,3.75c-.6.99-1.53,1.48-2.8,1.48-1.05,0-1.89-.44-2.51-1.31s-.93-2.04-.93-3.52c0-1.58.33-2.83.98-3.77.65-.93,1.53-1.4,2.63-1.4.99,0,1.82.4,2.5,1.21Zm-.81,6.24c.32-.79.47-1.67.47-2.64,0-.88-.11-1.59-.34-2.14-.36-.86-.98-1.3-1.87-1.3-.78,0-1.35.37-1.71,1.1-.36.74-.53,1.62-.53,2.66s.18,1.83.53,2.5c.36.67.92,1,1.7,1,.85,0,1.43-.4,1.75-1.19Z" style="fill:gray;"/><path d="m309.22,391.6h1.23v1.33c.37-.55.75-.94,1.16-1.18.41-.24.86-.36,1.36-.36,1.1,0,1.83.46,2.22,1.39.21.51.32,1.24.32,2.18v6.02h-1.32v-5.92c0-.57-.07-1.04-.21-1.39-.23-.58-.65-.88-1.25-.88-.31,0-.56.04-.76.11-.36.13-.67.39-.94.77-.22.31-.36.63-.42.96-.06.33-.1.8-.1,1.42v4.92h-1.3v-9.39Z" style="fill:gray;"/><path d="m25.39,371.77h6.74v1.19h-5.42v2.95h4.77v1.16h-4.77v4.42h-1.32v-9.71Z" style="fill:gray;"/><path d="m38.28,375.11c.63.61.94,1.5.94,2.68s-.28,2.08-.83,2.83c-.55.74-1.41,1.12-2.57,1.12-.97,0-1.74-.33-2.31-.99-.57-.66-.85-1.54-.85-2.65,0-1.19.3-2.14.9-2.84.6-.71,1.41-1.06,2.42-1.06.91,0,1.67.3,2.3.91Zm-.74,4.71c.29-.6.44-1.26.44-1.99,0-.66-.1-1.2-.31-1.61-.33-.65-.9-.98-1.71-.98-.72,0-1.24.28-1.57.83s-.49,1.22-.49,2.01.16,1.38.49,1.88.85.75,1.56.75c.78,0,1.32-.3,1.61-.9Z" style="fill:gray;"/><path d="m40.62,374.4h1.13v1.22c.09-.24.32-.53.68-.87.36-.34.78-.51,1.25-.51.02,0,.06,0,.11,0,.05,0,.14.01.27.03v1.26c-.07-.01-.14-.02-.2-.03-.06,0-.12,0-.19,0-.6,0-1.06.19-1.38.58s-.48.83-.48,1.33v4.07h-1.19v-7.08Z" style="fill:gray;"/><path d="m49.05,371.77h1.33v4.01h4.99v-4.01h1.33v9.71h-1.33v-4.54h-4.99v4.54h-1.33v-9.71Z" style="fill:gray;"/><path d="m62.33,377.2c.27-.04.46-.15.55-.34.05-.11.08-.26.08-.46,0-.41-.14-.7-.43-.89s-.7-.28-1.24-.28c-.62,0-1.06.17-1.32.5-.15.19-.24.46-.28.83h-1.11c.02-.88.31-1.49.85-1.83.54-.34,1.17-.51,1.89-.51.83,0,1.51.16,2.03.48.52.32.77.81.77,1.48v4.08c0,.12.02.22.08.3s.16.11.32.11c.05,0,.11,0,.18,0,.07,0,.14-.02.21-.03v.88c-.19.05-.33.09-.42.1-.1.01-.23.02-.4.02-.41,0-.71-.15-.89-.44-.1-.15-.17-.37-.2-.65-.24.32-.59.59-1.04.83s-.95.35-1.5.35c-.66,0-1.19-.2-1.61-.6-.42-.4-.62-.9-.62-1.5,0-.66.2-1.17.61-1.53.41-.36.95-.58,1.61-.67l1.9-.24Zm-2.51,3.22c.25.2.55.3.89.3.42,0,.82-.1,1.22-.29.66-.32.99-.85.99-1.58v-.96c-.15.09-.33.17-.56.23-.23.06-.45.11-.67.13l-.72.09c-.43.06-.76.15-.97.27-.37.21-.55.54-.55.99,0,.34.13.61.38.81Z" style="fill:gray;"/><path d="m65.99,374.4h1.18v1.01c.28-.35.54-.6.77-.76.39-.27.84-.4,1.34-.4.56,0,1.02.14,1.36.42.19.16.37.39.53.7.26-.38.58-.66.93-.84.36-.18.76-.27,1.2-.27.95,0,1.6.34,1.94,1.03.19.37.28.87.28,1.5v4.71h-1.24v-4.92c0-.47-.12-.8-.35-.97-.24-.18-.52-.26-.86-.26-.47,0-.87.16-1.21.47-.34.31-.51.84-.51,1.57v4.12h-1.21v-4.62c0-.48-.06-.83-.17-1.05-.18-.33-.52-.5-1.01-.5-.45,0-.86.17-1.23.52-.37.35-.55.98-.55,1.89v3.76h-1.19v-7.08Z" style="fill:gray;"/><path d="m80.95,377.2c.27-.04.46-.15.55-.34.05-.11.08-.26.08-.46,0-.41-.14-.7-.43-.89s-.7-.28-1.24-.28c-.62,0-1.06.17-1.32.5-.15.19-.24.46-.28.83h-1.11c.02-.88.31-1.49.85-1.83.54-.34,1.17-.51,1.89-.51.83,0,1.51.16,2.03.48.52.32.77.81.77,1.48v4.08c0,.12.02.22.08.3s.16.11.32.11c.05,0,.11,0,.18,0,.07,0,.14-.02.21-.03v.88c-.19.05-.33.09-.42.1-.1.01-.23.02-.4.02-.41,0-.71-.15-.89-.44-.1-.15-.17-.37-.2-.65-.24.32-.59.59-1.04.83s-.95.35-1.5.35c-.66,0-1.19-.2-1.61-.6-.42-.4-.62-.9-.62-1.5,0-.66.2-1.17.61-1.53.41-.36.95-.58,1.61-.67l1.9-.24Zm-2.51,3.22c.25.2.55.3.89.3.42,0,.82-.1,1.22-.29.66-.32.99-.85.99-1.58v-.96c-.15.09-.33.17-.56.23-.23.06-.45.11-.67.13l-.72.09c-.43.06-.76.15-.97.27-.37.21-.55.54-.55.99,0,.34.13.61.38.81Z" style="fill:gray;"/><path d="m84.61,374.4h1.18v1.01c.28-.35.54-.6.77-.76.39-.27.84-.4,1.34-.4.56,0,1.02.14,1.36.42.19.16.37.39.53.7.26-.38.58-.66.93-.84.36-.18.76-.27,1.2-.27.95,0,1.6.34,1.94,1.03.19.37.28.87.28,1.5v4.71h-1.24v-4.92c0-.47-.12-.8-.35-.97-.24-.18-.52-.26-.86-.26-.47,0-.87.16-1.21.47-.34.31-.51.84-.51,1.57v4.12h-1.21v-4.62c0-.48-.06-.83-.17-1.05-.18-.33-.52-.5-1.01-.5-.45,0-.86.17-1.23.52-.37.35-.55.98-.55,1.89v3.76h-1.19v-7.08Z" style="fill:gray;"/><path d="m99.57,377.2c.27-.04.46-.15.55-.34.05-.11.08-.26.08-.46,0-.41-.14-.7-.43-.89s-.7-.28-1.24-.28c-.62,0-1.06.17-1.32.5-.15.19-.24.46-.28.83h-1.11c.02-.88.31-1.49.85-1.83.54-.34,1.17-.51,1.89-.51.83,0,1.51.16,2.03.48.52.32.77.81.77,1.48v4.08c0,.12.02.22.08.3s.16.11.32.11c.05,0,.11,0,.18,0,.07,0,.14-.02.21-.03v.88c-.19.05-.33.09-.42.1-.1.01-.23.02-.4.02-.41,0-.71-.15-.89-.44-.1-.15-.17-.37-.2-.65-.24.32-.59.59-1.04.83s-.95.35-1.5.35c-.66,0-1.19-.2-1.61-.6-.42-.4-.62-.9-.62-1.5,0-.66.2-1.17.61-1.53.41-.36.95-.58,1.61-.67l1.9-.24Zm-2.51,3.22c.25.2.55.3.89.3.42,0,.82-.1,1.22-.29.66-.32.99-.85.99-1.58v-.96c-.15.09-.33.17-.56.23-.23.06-.45.11-.67.13l-.72.09c-.43.06-.76.15-.97.27-.37.21-.55.54-.55.99,0,.34.13.61.38.81Z" style="fill:gray;"/><path d="m103.35,372.43h1.2v1.98h1.13v.97h-1.13v4.62c0,.25.08.41.25.5.09.05.25.07.46.07.06,0,.12,0,.19,0,.07,0,.14,0,.23-.02v.95c-.14.04-.28.07-.43.09-.15.02-.31.03-.48.03-.56,0-.93-.14-1.13-.43-.2-.28-.3-.65-.3-1.11v-4.69h-.96v-.97h.96v-1.98Z" style="fill:gray;"/><path d="m107.55,379.26c.04.4.14.7.3.91.31.38.84.58,1.59.58.45,0,.85-.1,1.19-.29.34-.19.51-.49.51-.89,0-.3-.14-.54-.41-.69-.17-.1-.52-.21-1.04-.34l-.96-.24c-.61-.15-1.07-.32-1.36-.5-.52-.32-.78-.77-.78-1.34,0-.67.24-1.21.73-1.63.49-.41,1.15-.62,1.97-.62,1.08,0,1.86.31,2.34.94.3.4.44.83.44,1.28h-1.12c-.02-.27-.12-.51-.29-.73-.28-.31-.77-.47-1.46-.47-.46,0-.81.09-1.05.26-.24.17-.35.4-.35.68,0,.31.16.55.47.74.18.11.44.21.79.29l.8.19c.87.21,1.46.41,1.75.6.46.3.69.78.69,1.44s-.24,1.17-.73,1.63c-.48.46-1.22.69-2.21.69-1.07,0-1.82-.24-2.27-.72-.44-.48-.68-1.07-.71-1.78h1.14Z" style="fill:gray;"/><path d="m114.77,374.4v4.7c0,.36.06.66.17.89.21.42.59.63,1.15.63.81,0,1.36-.37,1.65-1.11.16-.4.24-.94.24-1.63v-3.48h1.19v7.08h-1.12v-1.04c-.14.27-.33.5-.55.68-.45.37-.99.55-1.62.55-.99,0-1.67-.34-2.02-1.01-.19-.36-.29-.84-.29-1.45v-4.81h1.22Z" style="fill:gray;"/><polygon points="496.88 376.78 488.13 381.83 488.13 378.75 477.91 378.75 477.91 374.81 488.13 374.81 488.13 371.73 496.88 376.78" style="fill:gray;"/><path d="m403.75,371.77h6.74v1.19h-5.42v2.95h4.77v1.16h-4.77v4.42h-1.32v-9.71Z" style="fill:gray;"/><path d="m416.64,375.11c.63.61.94,1.5.94,2.68s-.28,2.08-.83,2.83c-.55.74-1.41,1.12-2.57,1.12-.97,0-1.74-.33-2.3-.99s-.85-1.54-.85-2.65c0-1.19.3-2.14.9-2.84s1.41-1.06,2.42-1.06c.91,0,1.67.3,2.3.91Zm-.74,4.71c.29-.6.44-1.26.44-1.99,0-.66-.11-1.2-.31-1.61-.33-.65-.9-.98-1.71-.98-.72,0-1.24.28-1.57.83s-.49,1.22-.49,2.01.16,1.38.49,1.88.85.75,1.56.75c.78,0,1.32-.3,1.61-.9Z" style="fill:gray;"/><path d="m418.98,374.4h1.13v1.22c.09-.24.32-.53.68-.87s.78-.51,1.25-.51c.02,0,.06,0,.11,0,.05,0,.14.01.27.03v1.26c-.07-.01-.14-.02-.2-.03-.06,0-.12,0-.2,0-.6,0-1.06.19-1.38.58-.32.39-.48.83-.48,1.33v4.07h-1.19v-7.08Z" style="fill:gray;"/><path d="m428.24,378.35c.03.55.16,1,.38,1.34.42.64,1.16.97,2.22.97.48,0,.91-.07,1.3-.21.76-.27,1.13-.76,1.13-1.47,0-.53-.16-.91-.48-1.13-.32-.22-.83-.41-1.52-.58l-1.27-.3c-.83-.19-1.42-.41-1.77-.64-.6-.41-.9-1.01-.9-1.82,0-.87.29-1.59.88-2.15.59-.56,1.42-.84,2.5-.84.99,0,1.83.25,2.53.74.69.49,1.04,1.28,1.04,2.36h-1.24c-.06-.52-.2-.92-.41-1.2-.38-.51-1.04-.76-1.96-.76-.74,0-1.28.16-1.6.49-.33.33-.49.71-.49,1.14,0,.48.19.83.58,1.04.25.14.82.32,1.71.53l1.32.31c.64.15,1.13.36,1.47.62.6.45.9,1.11.9,1.98,0,1.08-.38,1.84-1.14,2.31-.76.46-1.65.69-2.66.69-1.18,0-2.1-.31-2.77-.93-.67-.61-.99-1.44-.98-2.49h1.24Z" style="fill:gray;"/><path d="m436.12,371.74h1.19v3.62c.28-.36.54-.61.76-.75.38-.25.86-.38,1.44-.38,1.03,0,1.72.36,2.09,1.08.2.39.3.94.3,1.63v4.54h-1.22v-4.46c0-.52-.07-.9-.2-1.14-.22-.39-.62-.58-1.22-.58-.49,0-.94.17-1.34.51s-.6.98-.6,1.92v3.76h-1.19v-9.75Z" style="fill:gray;"/><path d="m443.58,371.77h1.21v1.35h-1.21v-1.35Zm0,2.67h1.21v7.05h-1.21v-7.05Z" style="fill:gray;"/><path d="m446.49,374.4h1.18v1.01c.28-.35.54-.6.77-.76.39-.27.84-.4,1.34-.4.56,0,1.02.14,1.36.42.19.16.37.39.53.7.26-.38.58-.66.93-.84.36-.18.76-.27,1.2-.27.95,0,1.6.34,1.94,1.03.19.37.28.87.28,1.5v4.71h-1.24v-4.92c0-.47-.12-.8-.35-.97-.24-.18-.52-.26-.86-.26-.47,0-.87.16-1.21.47-.34.31-.51.84-.51,1.57v4.12h-1.21v-4.62c0-.48-.06-.83-.17-1.05-.18-.33-.52-.5-1.01-.5-.45,0-.86.17-1.23.52-.37.35-.55.98-.55,1.89v3.76h-1.19v-7.08Z" style="fill:gray;"/><path d="m457.7,371.77h1.21v1.35h-1.21v-1.35Zm0,2.67h1.21v7.05h-1.21v-7.05Z" style="fill:gray;"/><path d="m460.02,380.55l4.21-5.08h-3.9v-1.07h5.5v.97l-4.18,5.05h4.3v1.06h-5.93v-.94Z" style="fill:gray;"/><path d="m468.26,374.4v4.7c0,.36.06.66.17.89.21.42.59.63,1.15.63.81,0,1.36-.37,1.65-1.11.16-.4.24-.94.24-1.63v-3.48h1.19v7.08h-1.12v-1.04c-.14.27-.33.5-.55.68-.45.37-.99.55-1.62.55-.99,0-1.67-.34-2.02-1.01-.2-.36-.29-.84-.29-1.45v-4.81h1.22Z" style="fill:gray;"/><polygon points="496.88 24.64 488.13 29.69 488.13 26.61 477.91 26.61 477.91 22.67 488.13 22.67 488.13 19.59 496.88 24.64" style="fill:gray;"/><path d="m372.05,19.63h6.74v1.19h-5.42v2.95h4.77v1.16h-4.77v4.42h-1.32v-9.71Z" style="fill:gray;"/><path d="m384.94,22.97c.63.61.94,1.5.94,2.68s-.28,2.08-.83,2.83-1.41,1.12-2.57,1.12c-.97,0-1.74-.33-2.31-.99-.57-.66-.85-1.54-.85-2.65,0-1.19.3-2.14.9-2.84.6-.71,1.41-1.06,2.42-1.06.91,0,1.67.3,2.3.91Zm-.74,4.71c.29-.6.43-1.26.43-1.99,0-.66-.1-1.2-.31-1.61-.33-.65-.9-.98-1.71-.98-.72,0-1.24.28-1.57.83s-.49,1.22-.49,2.01.16,1.38.49,1.88.85.75,1.56.75c.78,0,1.32-.3,1.61-.9Z" style="fill:gray;"/><path d="m387.28,22.26h1.13v1.22c.09-.24.32-.53.68-.87.36-.34.78-.51,1.25-.51.02,0,.06,0,.11,0,.05,0,.14.01.27.03v1.26c-.07-.01-.14-.02-.2-.03-.06,0-.12,0-.19,0-.6,0-1.06.19-1.38.58-.32.39-.48.83-.48,1.33v4.07h-1.19v-7.08Z" style="fill:gray;"/><path d="m396.54,26.21c.03.55.16,1,.38,1.34.42.64,1.16.97,2.22.97.48,0,.91-.07,1.3-.21.76-.27,1.13-.76,1.13-1.47,0-.53-.16-.91-.48-1.13-.33-.22-.83-.41-1.52-.58l-1.28-.3c-.83-.19-1.42-.41-1.77-.64-.6-.41-.9-1.01-.9-1.82,0-.87.29-1.59.88-2.15.59-.56,1.42-.84,2.5-.84.99,0,1.83.25,2.53.74.69.49,1.04,1.28,1.04,2.36h-1.24c-.06-.52-.2-.92-.41-1.2-.38-.51-1.04-.76-1.96-.76-.74,0-1.28.16-1.6.49-.33.33-.49.71-.49,1.14,0,.48.19.83.58,1.04.25.14.82.32,1.71.53l1.32.31c.64.15,1.13.36,1.47.62.6.45.9,1.11.9,1.98,0,1.08-.38,1.84-1.15,2.31-.76.46-1.65.69-2.66.69-1.18,0-2.1-.31-2.77-.93-.67-.61-.99-1.44-.98-2.49h1.24Z" style="fill:gray;"/><path d="m404.43,19.6h1.19v3.62c.28-.36.54-.61.76-.75.38-.25.86-.38,1.43-.38,1.03,0,1.72.36,2.09,1.08.2.39.3.94.3,1.63v4.54h-1.22v-4.46c0-.52-.07-.9-.2-1.14-.22-.39-.62-.58-1.22-.58-.49,0-.94.17-1.34.51s-.6.98-.6,1.92v3.76h-1.19v-9.75Z" style="fill:gray;"/><path d="m411.88,19.63h1.21v1.35h-1.21v-1.35Zm0,2.67h1.21v7.05h-1.21v-7.05Z" style="fill:gray;"/><path d="m414.79,22.26h1.13v1.01c.33-.42.69-.71,1.06-.89.38-.18.79-.27,1.25-.27,1,0,1.68.35,2.04,1.05.19.38.29.93.29,1.65v4.54h-1.21v-4.46c0-.43-.06-.78-.19-1.04-.21-.44-.6-.66-1.15-.66-.28,0-.51.03-.7.09-.33.1-.61.29-.86.58-.2.23-.33.47-.39.72s-.09.61-.09,1.07v3.71h-1.19v-7.08Z" style="fill:gray;"/><path d="m422.08,24.96h3.32v1.22h-3.32v-1.22Z" style="fill:gray;"/><path d="m427.93,26.21c.03.55.16,1,.38,1.34.42.64,1.16.97,2.22.97.48,0,.91-.07,1.3-.21.76-.27,1.13-.76,1.13-1.47,0-.53-.16-.91-.48-1.13-.33-.22-.83-.41-1.52-.58l-1.28-.3c-.83-.19-1.42-.41-1.77-.64-.6-.41-.9-1.01-.9-1.82,0-.87.29-1.59.88-2.15.59-.56,1.42-.84,2.5-.84.99,0,1.83.25,2.53.74.69.49,1.04,1.28,1.04,2.36h-1.24c-.06-.52-.2-.92-.41-1.2-.38-.51-1.04-.76-1.96-.76-.74,0-1.28.16-1.6.49-.33.33-.49.71-.49,1.14,0,.48.19.83.58,1.04.25.14.82.32,1.71.53l1.32.31c.64.15,1.13.36,1.47.62.6.45.9,1.11.9,1.98,0,1.08-.38,1.84-1.15,2.31-.76.46-1.65.69-2.66.69-1.18,0-2.1-.31-2.77-.93-.67-.61-.99-1.44-.98-2.49h1.24Z" style="fill:gray;"/><path d="m435.82,19.6h1.19v3.62c.28-.36.54-.61.76-.75.38-.25.86-.38,1.43-.38,1.03,0,1.72.36,2.09,1.08.2.39.3.94.3,1.63v4.54h-1.22v-4.46c0-.52-.07-.9-.2-1.14-.22-.39-.62-.58-1.22-.58-.49,0-.94.17-1.34.51s-.6.98-.6,1.92v3.76h-1.19v-9.75Z" style="fill:gray;"/><path d="m443.27,19.63h1.21v1.35h-1.21v-1.35Zm0,2.67h1.21v7.05h-1.21v-7.05Z" style="fill:gray;"/><path d="m446.19,22.26h1.18v1.01c.28-.35.54-.6.77-.76.39-.27.84-.4,1.33-.4.56,0,1.02.14,1.36.42.19.16.37.39.53.7.26-.38.58-.66.93-.84s.76-.27,1.2-.27c.95,0,1.6.34,1.94,1.03.19.37.28.87.28,1.5v4.71h-1.24v-4.92c0-.47-.12-.8-.35-.97-.24-.18-.52-.26-.86-.26-.47,0-.87.16-1.21.47-.34.31-.51.84-.51,1.57v4.12h-1.21v-4.62c0-.48-.06-.83-.17-1.05-.18-.33-.52-.5-1.01-.5-.45,0-.86.17-1.23.52s-.55.98-.55,1.89v3.76h-1.19v-7.08Z" style="fill:gray;"/><path d="m457.4,19.63h1.21v1.35h-1.21v-1.35Zm0,2.67h1.21v7.05h-1.21v-7.05Z" style="fill:gray;"/><path d="m459.72,28.41l4.21-5.08h-3.9v-1.07h5.5v.97l-4.18,5.05h4.3v1.06h-5.93v-.94Z" style="fill:gray;"/><path d="m467.96,22.26v4.7c0,.36.06.66.17.89.21.42.59.63,1.15.63.81,0,1.36-.37,1.65-1.11.16-.4.24-.94.24-1.63v-3.48h1.19v7.08h-1.12v-1.04c-.14.27-.33.5-.55.68-.45.37-.99.55-1.62.55-.99,0-1.67-.34-2.02-1.01-.19-.36-.29-.84-.29-1.45v-4.81h1.22Z" style="fill:gray;"/><path d="m325.56,339.62h1.18l3.69,5.98v-5.98h.96v7.4h-1.13l-3.74-5.97v5.97h-.96v-7.4Z" style="fill:gray;"/><path d="m335.77,343.76c.21-.03.35-.11.42-.26.04-.08.06-.2.06-.35,0-.31-.11-.54-.33-.67-.22-.14-.53-.21-.94-.21-.47,0-.81.13-1,.38-.11.14-.18.35-.22.63h-.85c.02-.67.23-1.13.65-1.39.41-.26.89-.39,1.44-.39.63,0,1.15.12,1.54.36.39.24.59.62.59,1.13v3.11c0,.09.02.17.06.23.04.06.12.09.25.09.04,0,.08,0,.14,0,.05,0,.1-.01.16-.02v.67c-.14.04-.25.07-.32.08-.07,0-.17.02-.3.02-.31,0-.54-.11-.68-.33-.07-.12-.13-.28-.16-.5-.18.24-.45.45-.8.63-.35.18-.73.27-1.14.27-.5,0-.91-.15-1.23-.46-.32-.3-.48-.68-.48-1.14,0-.5.16-.89.47-1.16.31-.28.72-.44,1.23-.51l1.45-.18Zm-1.91,2.45c.19.15.42.23.68.23.32,0,.63-.07.93-.22.5-.25.76-.65.76-1.2v-.73c-.11.07-.25.13-.43.18-.17.05-.34.08-.51.1l-.55.07c-.33.04-.58.11-.74.21-.28.16-.42.41-.42.75,0,.26.1.47.29.62Z" style="fill:gray;"/><path d="m338.73,340.12h.92v1.51h.86v.74h-.86v3.52c0,.19.06.31.19.38.07.04.19.06.35.06.04,0,.09,0,.14,0,.05,0,.11,0,.18-.02v.72c-.1.03-.21.05-.32.07-.11.01-.23.02-.37.02-.42,0-.71-.11-.86-.33-.15-.22-.23-.5-.23-.84v-3.57h-.73v-.74h.73v-1.51Z" style="fill:gray;"/><path d="m341.47,339.62h.92v1.03h-.92v-1.03Zm0,2.03h.92v5.37h-.92v-5.37Z" style="fill:gray;"/><path d="m347.74,342.17c.48.46.72,1.14.72,2.04s-.21,1.59-.63,2.15c-.42.57-1.07.85-1.96.85-.74,0-1.32-.25-1.76-.75-.43-.5-.65-1.18-.65-2.02,0-.91.23-1.63.69-2.16.46-.54,1.07-.81,1.84-.81.69,0,1.27.23,1.75.69Zm-.56,3.59c.22-.46.33-.96.33-1.52,0-.5-.08-.91-.24-1.23-.25-.5-.69-.74-1.3-.74-.55,0-.95.21-1.2.63s-.37.93-.37,1.53.12,1.05.37,1.43c.25.38.64.57,1.19.57.59,0,1-.23,1.22-.68Z" style="fill:gray;"/><path d="m349.59,341.63h.86v.77c.25-.32.53-.54.81-.68s.6-.21.95-.21c.77,0,1.28.27,1.55.8.15.29.22.71.22,1.25v3.46h-.92v-3.4c0-.33-.05-.59-.15-.8-.16-.33-.45-.5-.88-.5-.21,0-.39.02-.53.07-.25.07-.47.22-.65.44-.15.18-.25.36-.29.55-.05.19-.07.46-.07.81v2.83h-.91v-5.39Z" style="fill:gray;"/><path d="m358.2,343.76c.21-.03.35-.11.42-.26.04-.08.06-.2.06-.35,0-.31-.11-.54-.33-.67-.22-.14-.53-.21-.94-.21-.47,0-.81.13-1,.38-.11.14-.18.35-.22.63h-.85c.02-.67.23-1.13.65-1.39.41-.26.89-.39,1.44-.39.63,0,1.15.12,1.54.36.39.24.59.62.59,1.13v3.11c0,.09.02.17.06.23.04.06.12.09.25.09.04,0,.08,0,.14,0,.05,0,.1-.01.16-.02v.67c-.14.04-.25.07-.32.08-.07,0-.17.02-.3.02-.31,0-.54-.11-.68-.33-.07-.12-.13-.28-.16-.5-.18.24-.45.45-.8.63-.35.18-.73.27-1.14.27-.5,0-.91-.15-1.23-.46-.32-.3-.48-.68-.48-1.14,0-.5.16-.89.47-1.16.31-.28.72-.44,1.23-.51l1.45-.18Zm-1.91,2.45c.19.15.42.23.68.23.32,0,.63-.07.93-.22.5-.25.76-.65.76-1.2v-.73c-.11.07-.25.13-.43.18-.17.05-.34.08-.51.1l-.55.07c-.33.04-.58.11-.74.21-.28.16-.42.41-.42.75,0,.26.1.47.29.62Z" style="fill:gray;"/><path d="m361.08,339.62h.91v7.4h-.91v-7.4Z" style="fill:gray;"/><path d="m366.45,339.62h3.36c.55,0,1.01.08,1.37.25.68.32,1.02.9,1.02,1.75,0,.44-.09.81-.27,1.09-.18.28-.44.51-.77.68.29.12.51.27.65.46.15.19.23.5.24.93l.04.99c.01.28.03.49.07.63.06.23.17.39.32.45v.17h-1.23c-.03-.06-.06-.15-.08-.25-.02-.1-.04-.29-.05-.58l-.06-1.23c-.02-.48-.2-.81-.52-.97-.19-.09-.48-.14-.88-.14h-2.22v3.17h-1v-7.4Zm3.26,3.39c.46,0,.82-.09,1.08-.28.27-.19.4-.53.4-1.02,0-.53-.19-.89-.56-1.08-.2-.1-.46-.15-.8-.15h-2.38v2.53h2.25Z" style="fill:gray;"/><path d="m377.56,342.17c.48.46.72,1.14.72,2.04s-.21,1.59-.63,2.15c-.42.57-1.07.85-1.96.85-.74,0-1.32-.25-1.76-.75-.43-.5-.65-1.18-.65-2.02,0-.91.23-1.63.69-2.16.46-.54,1.07-.81,1.84-.81.69,0,1.27.23,1.75.69Zm-.56,3.59c.22-.46.33-.96.33-1.52,0-.5-.08-.91-.24-1.23-.25-.5-.69-.74-1.3-.74-.55,0-.95.21-1.2.63s-.37.93-.37,1.53.12,1.05.37,1.43c.25.38.64.57,1.19.57.59,0,1-.23,1.22-.68Z" style="fill:gray;"/><path d="m380.31,341.63v3.58c0,.28.04.5.13.67.16.32.45.48.88.48.62,0,1.03-.28,1.26-.85.12-.3.18-.72.18-1.24v-2.65h.91v5.39h-.86v-.8c-.1.21-.25.38-.42.52-.34.28-.75.42-1.24.42-.75,0-1.27-.26-1.54-.77-.15-.27-.22-.64-.22-1.1v-3.67h.93Z" style="fill:gray;"/><path d="m385.3,340.12h.92v1.51h.86v.74h-.86v3.52c0,.19.06.31.19.38.07.04.19.06.35.06.04,0,.09,0,.14,0,.05,0,.11,0,.18-.02v.72c-.1.03-.21.05-.32.07-.11.01-.23.02-.37.02-.42,0-.71-.11-.86-.33-.15-.22-.23-.5-.23-.84v-3.57h-.73v-.74h.73v-1.51Z" style="fill:gray;"/><path d="m391.25,341.78c.36.18.63.41.82.7.18.27.3.59.36.95.05.25.08.64.08,1.19h-3.92c.02.55.14.99.38,1.32.24.33.61.5,1.11.5.47,0,.84-.16,1.12-.47.16-.18.27-.39.33-.63h.89c-.02.2-.1.42-.23.66-.13.24-.28.44-.44.6-.27.27-.61.45-1.01.54-.22.05-.46.08-.74.08-.67,0-1.23-.24-1.7-.73-.46-.49-.7-1.17-.7-2.05s.23-1.57.7-2.11c.47-.54,1.08-.81,1.83-.81.38,0,.75.09,1.11.27Zm.32,2.12c-.04-.39-.12-.71-.25-.94-.25-.44-.66-.65-1.23-.65-.41,0-.76.15-1.04.45-.28.3-.43.68-.45,1.15h2.97Z" style="fill:gray;"/><path d="m396.85,341.92v-.7c.65-.06,1.11-.17,1.37-.32s.45-.5.58-1.06h.71v7.18h-.97v-5.11h-1.7Z" style="fill:gray;"/><path d="m162.8,198.6l.42,1.37-5.37,3.84,6.6.21.41,1.37-7.08,2.14-.28-.92,4.18-1.26c.14-.04.39-.11.72-.21.34-.09.69-.2,1.08-.32l-6.58-.22-.29-.95,5.36-3.84-.22.06c-.17.05-.44.14-.79.25-.35.12-.61.2-.78.25l-4.18,1.26-.28-.92,7.08-2.14Z" style="fill:gray;"/><path d="m163.33,207.38l.27.88-5.14,1.55-.27-.88,5.14-1.55Zm1.94-.59l.27.88-.98.3-.27-.88.98-.3Z" style="fill:gray;"/><path d="m165,212.83l.29.96c-.37-.02-1.21-.07-2.51-.13-.98-.05-1.79-.09-2.41-.13-1.47-.1-2.38-.21-2.73-.33-.35-.12-.6-.43-.75-.93-.04-.12-.06-.22-.07-.29-.01-.07-.02-.15-.02-.26l.79-.24c0,.16.01.28.02.35s.02.13.04.18c.05.16.11.27.19.33.07.06.16.1.25.13.03,0,.18.03.45.05.27.03.47.05.6.06l4.74-3.51.3.98-3.79,2.65,4.63.12Z" style="fill:gray;"/><path d="m165.79,215.47l-3.43,1.04c-.26.08-.47.19-.61.32-.26.24-.33.57-.21.98.18.59.57.91,1.17.96.32.03.74-.03,1.24-.19l2.54-.77.26.87-5.16,1.56-.25-.82.76-.22c-.23-.05-.44-.14-.62-.26-.37-.24-.62-.6-.76-1.06-.22-.72-.12-1.29.29-1.7.22-.22.55-.4.99-.53l3.51-1.06.27.89Z" style="fill:gray;"/><path d="m169.09,219.46l.25.83-4.11,1.24,2.86,1.56.33,1.11-2.52-1.4-2.61,3.08-.33-1.11,2.14-2.42-.91-.5-1.94.59-.25-.84,7.08-2.14Z" style="fill:gray;"/><path d="m168.67,225.09l.27.88-5.14,1.55-.27-.88,5.14-1.55Zm1.94-.59l.27.88-.98.3-.27-.88.98-.3Z" style="fill:gray;"/><path d="m167.36,227.75l.73,2.42-.89.27-.73-2.42.89-.27Z" style="fill:gray;"/><path d="m171.16,233.81c-.05.18-.17.41-.35.68l2.61-.79.25.83-7.11,2.15-.24-.78.72-.22c-.38-.11-.68-.28-.91-.51-.22-.23-.39-.53-.5-.88-.17-.57-.08-1.14.28-1.71.36-.57.94-.97,1.74-1.21.75-.23,1.46-.23,2.13-.02.67.22,1.11.68,1.32,1.39.12.39.14.75.05,1.07Zm-4.46-.77c-.3.35-.38.78-.22,1.29.12.4.39.68.82.83.42.15.96.13,1.6-.06.65-.2,1.1-.48,1.33-.84.23-.36.29-.74.17-1.13-.13-.43-.4-.74-.82-.91s-.95-.16-1.6.04c-.55.17-.98.42-1.28.77Z" style="fill:gray;"/><path d="m172.76,240.39c-.3.59-.89,1.02-1.75,1.28-.83.25-1.58.26-2.24.02-.66-.24-1.12-.78-1.38-1.63-.21-.71-.14-1.34.21-1.9.36-.56.94-.96,1.75-1.21.87-.26,1.62-.25,2.27.03.65.28,1.08.79,1.3,1.53.2.66.15,1.29-.16,1.88Zm-3.59.5c.5.08,1.02.04,1.55-.12.48-.15.85-.34,1.11-.58.4-.38.51-.87.34-1.46-.16-.53-.48-.85-.95-.96-.48-.12-1-.09-1.57.08-.55.17-.97.42-1.26.77-.29.35-.36.78-.21,1.3.17.57.51.89,1.01.97Z" style="fill:gray;"/><path d="m173.81,242.02l.25.83-.89.27c.19.01.46.12.78.3.33.19.54.46.65.8,0,.02.01.04.02.08,0,.04.02.11.04.2l-.92.28c0-.05-.01-.1-.02-.15-.01-.04-.02-.09-.04-.14-.13-.44-.37-.73-.73-.88-.35-.15-.71-.17-1.08-.06l-2.97.9-.26-.87,5.16-1.56Z" style="fill:gray;"/><path d="m174.79,245.35l.27.88-5.14,1.55-.27-.88,5.14-1.55Zm1.94-.59l.27.88-.98.3-.27-.88.98-.3Z" style="fill:gray;"/><path d="m215.05,156.54l.26.94-3.49.96,4.47,2.61.37,1.35-3.72-2.26-3.4,4.28-.35-1.26,2.88-3.54-1.42-.86-2.49.68-.26-.94,7.13-1.96Z" style="fill:gray;"/><path d="m215.61,166.7c-.08.39-.23.72-.46.97-.22.25-.49.45-.82.6-.23.12-.6.25-1.13.39l-1.04-3.78c-.52.16-.91.4-1.17.72-.26.32-.32.72-.19,1.21.12.45.38.77.75.96.22.1.45.15.7.15l.24.86c-.2.03-.43.01-.7-.05-.27-.06-.5-.15-.69-.27-.33-.19-.6-.47-.79-.83-.11-.19-.2-.42-.27-.69-.18-.64-.09-1.25.26-1.83.35-.58.95-.98,1.8-1.22.83-.23,1.58-.19,2.22.12.65.31,1.07.82,1.27,1.55.1.37.11.75.03,1.14Zm-1.96.87c.37-.14.65-.3.84-.49.36-.35.46-.81.3-1.36-.11-.4-.35-.69-.71-.88-.36-.19-.77-.23-1.22-.13l.79,2.87Z" style="fill:gray;"/><path d="m217.25,172.09l.27.97c-.37-.03-1.2-.1-2.51-.19-.98-.07-1.78-.14-2.41-.2-1.47-.14-2.37-.27-2.72-.4-.35-.13-.59-.44-.73-.95-.03-.12-.06-.22-.06-.29,0-.07-.01-.16-.01-.26l.8-.22c0,.16,0,.28.01.35,0,.07.02.13.03.18.04.16.1.27.18.34.07.06.16.11.25.14.03,0,.18.03.45.07.27.03.46.06.59.07l4.83-3.39.27.99-3.86,2.56,4.62.24Z" style="fill:gray;"/><path d="m216.39,177.02c.08.19.2.3.36.33.09.02.21,0,.35-.04.3-.08.49-.25.56-.5.08-.25.06-.57-.05-.96-.12-.46-.34-.74-.64-.87-.17-.07-.39-.08-.67-.04l-.22-.81c.65-.16,1.15-.08,1.51.25.36.33.61.76.76,1.29.17.61.19,1.14.06,1.58-.13.44-.44.73-.93.87l-3,.82c-.09.03-.16.06-.2.12-.05.05-.05.14-.02.26.01.04.03.08.04.13.02.05.04.1.06.15l-.65.18c-.08-.12-.13-.22-.16-.29-.03-.07-.06-.17-.09-.29-.08-.3-.04-.55.14-.74.09-.1.24-.2.44-.28-.28-.11-.55-.31-.82-.6-.26-.29-.45-.63-.56-1.03-.13-.48-.09-.92.12-1.3.21-.39.53-.64.97-.76.48-.13.9-.08,1.25.14.35.23.62.58.82,1.05l.56,1.35Zm-2.87-1.19c-.09.22-.11.46-.04.72.08.31.24.59.46.83.37.42.82.56,1.36.41l.7-.19c-.1-.09-.19-.21-.29-.37-.09-.16-.17-.31-.23-.47l-.21-.51c-.13-.3-.26-.53-.39-.66-.23-.23-.51-.3-.84-.21-.25.07-.43.22-.52.44Z" style="fill:gray;"/><path d="m221.13,178.68l.23.84-4.14,1.14,2.83,1.63.31,1.12-2.48-1.47-2.69,3.01-.31-1.12,2.2-2.36-.89-.53-1.95.54-.23-.84,7.13-1.96Z" style="fill:gray;"/><path d="m220.57,184.3l.24.89-5.18,1.42-.24-.89,5.18-1.42Zm1.96-.54l.24.89-.99.27-.24-.89.99-.27Z" style="fill:gray;"/><path d="m219.19,186.92l.67,2.44-.9.25-.67-2.44.9-.25Z" style="fill:gray;"/><path d="m222.84,193.07c-.06.18-.18.4-.37.67l2.63-.72.23.84-7.16,1.97-.22-.79.72-.2c-.38-.12-.67-.29-.89-.53-.22-.24-.38-.54-.48-.89-.16-.58-.05-1.14.32-1.7.37-.56.96-.95,1.77-1.17.76-.21,1.47-.2,2.13.04.66.23,1.09.71,1.29,1.42.11.4.12.75.02,1.07Zm-4.44-.88c-.31.34-.4.77-.25,1.29.11.4.38.69.79.85.42.16.95.16,1.6-.02.66-.18,1.11-.45,1.35-.8.24-.35.31-.73.2-1.12-.12-.44-.39-.75-.8-.93-.41-.18-.94-.18-1.6,0-.56.15-.99.4-1.3.74Z" style="fill:gray;"/><path d="m224.27,199.7c-.32.58-.91.99-1.78,1.23-.84.23-1.59.22-2.24-.04-.66-.25-1.1-.81-1.34-1.66-.2-.71-.11-1.34.26-1.89.37-.55.96-.94,1.78-1.16.87-.24,1.63-.21,2.27.09.64.3,1.06.82,1.27,1.56.18.67.11,1.29-.21,1.87Zm-3.61.41c.5.09,1.01.06,1.55-.08.48-.13.86-.32,1.12-.56.41-.37.54-.86.37-1.46-.15-.53-.46-.86-.93-.99-.47-.13-1-.11-1.57.05-.55.15-.98.4-1.28.74-.3.34-.38.77-.24,1.29.16.57.49.91.98,1Z" style="fill:gray;"/><path d="m225.28,201.35l.23.83-.9.25c.19.02.45.13.77.33.32.2.53.47.63.82,0,.02,0,.04.02.08,0,.04.02.11.04.2l-.92.25c0-.05-.01-.1-.02-.15,0-.04-.02-.09-.03-.14-.12-.44-.36-.74-.7-.9s-.71-.19-1.08-.09l-2.99.82-.24-.87,5.2-1.43Z" style="fill:gray;"/><path d="m226.17,204.7l.24.89-5.18,1.42-.24-.89,5.18-1.42Zm1.96-.54l.24.89-.99.27-.24-.89.99-.27Z" style="fill:gray;"/><path d="m412.64,176.36v.88h-2.49v6.52h-1.01v-6.52h-2.49v-.88h6Z" style="fill:gray;"/><path d="m415.92,178.51c.36.18.63.41.82.7.18.27.3.59.36.95.05.25.08.64.08,1.19h-3.92c.02.55.14.99.38,1.32.24.33.61.5,1.11.5.47,0,.84-.16,1.12-.47.16-.18.27-.39.33-.63h.89c-.02.2-.1.42-.23.66-.13.24-.28.44-.44.6-.27.27-.61.45-1.01.54-.22.05-.46.08-.74.08-.67,0-1.23-.24-1.7-.73-.46-.49-.7-1.17-.7-2.05s.23-1.57.7-2.11c.47-.54,1.08-.81,1.83-.81.38,0,.75.09,1.11.27Zm.32,2.12c-.04-.39-.12-.71-.25-.94-.25-.44-.66-.65-1.23-.65-.41,0-.76.15-1.04.45-.28.3-.43.68-.45,1.15h2.97Z" style="fill:gray;"/><path d="m418.33,178.36h.86v.77c.25-.32.53-.54.81-.68s.6-.21.95-.21c.77,0,1.28.27,1.55.8.15.29.22.71.22,1.25v3.46h-.92v-3.4c0-.33-.05-.59-.15-.8-.16-.33-.45-.5-.88-.5-.21,0-.39.02-.53.07-.25.07-.47.22-.65.44-.15.18-.25.36-.29.55-.05.19-.07.46-.07.81v2.83h-.91v-5.39Z" style="fill:gray;"/><path d="m424.08,178.36h.9v.77c.21-.27.41-.46.58-.58.3-.21.64-.31,1.02-.31.43,0,.78.11,1.04.32.15.12.28.3.4.53.2-.29.44-.5.71-.64.27-.14.58-.21.92-.21.73,0,1.22.26,1.48.79.14.28.21.66.21,1.14v3.59h-.94v-3.75c0-.36-.09-.61-.27-.74-.18-.13-.4-.2-.66-.2-.36,0-.66.12-.92.36-.26.24-.38.64-.38,1.19v3.14h-.92v-3.52c0-.37-.04-.63-.13-.8-.14-.25-.39-.38-.77-.38-.34,0-.65.13-.93.4-.28.27-.42.75-.42,1.44v2.86h-.91v-5.39Z" style="fill:gray;"/><path d="m435.55,180.49c.21-.03.35-.11.42-.26.04-.08.06-.2.06-.35,0-.31-.11-.54-.33-.67-.22-.14-.53-.21-.94-.21-.47,0-.81.13-1,.38-.11.14-.18.35-.22.63h-.85c.02-.67.23-1.13.65-1.39.41-.26.89-.39,1.44-.39.63,0,1.15.12,1.54.36.39.24.59.62.59,1.13v3.11c0,.09.02.17.06.23.04.06.12.09.25.09.04,0,.08,0,.14,0,.05,0,.1-.01.16-.02v.67c-.14.04-.25.07-.32.08-.07,0-.17.02-.3.02-.31,0-.54-.11-.68-.33-.07-.12-.13-.28-.16-.5-.18.24-.45.45-.8.63-.35.18-.73.27-1.14.27-.5,0-.91-.15-1.23-.46-.32-.3-.48-.68-.48-1.14,0-.5.16-.89.47-1.16.31-.28.72-.44,1.23-.51l1.45-.18Zm-1.91,2.45c.19.15.42.23.68.23.32,0,.63-.07.93-.22.5-.25.76-.65.76-1.2v-.73c-.11.07-.25.13-.43.18-.17.05-.34.08-.51.1l-.55.07c-.33.04-.58.11-.74.21-.28.16-.42.41-.42.75,0,.26.1.47.29.62Z" style="fill:gray;"/><path d="m441.96,178.65c.38.3.61.8.69,1.53h-.88c-.05-.33-.18-.61-.37-.83-.19-.22-.5-.33-.92-.33-.58,0-.99.28-1.24.85-.16.37-.24.82-.24,1.35s.11.99.34,1.36.59.55,1.08.55c.38,0,.67-.11.89-.34.22-.23.37-.54.46-.94h.88c-.1.72-.35,1.24-.76,1.57-.4.33-.92.5-1.55.5-.71,0-1.27-.26-1.69-.77s-.63-1.16-.63-1.93c0-.95.23-1.68.69-2.21s1.05-.79,1.76-.79c.61,0,1.1.15,1.48.44Z" style="fill:gray;"/><path d="m443.66,176.33h.91v2.76c.21-.27.41-.46.58-.57.29-.19.66-.29,1.09-.29.78,0,1.31.27,1.59.82.15.3.23.71.23,1.24v3.46h-.93v-3.4c0-.4-.05-.69-.15-.87-.17-.29-.47-.44-.93-.44-.38,0-.72.13-1.02.39-.31.26-.46.75-.46,1.47v2.86h-.91v-7.42Z" style="fill:gray;"/><path d="m453.37,178.9c.48.46.72,1.14.72,2.04s-.21,1.59-.63,2.15c-.42.57-1.07.85-1.96.85-.74,0-1.32-.25-1.76-.75-.43-.5-.65-1.18-.65-2.02,0-.91.23-1.63.69-2.16.46-.54,1.07-.81,1.84-.81.69,0,1.27.23,1.75.69Zm-.56,3.59c.22-.46.33-.96.33-1.52,0-.5-.08-.91-.24-1.23-.25-.5-.69-.74-1.3-.74-.55,0-.95.21-1.2.63s-.37.93-.37,1.53.12,1.05.37,1.43c.25.38.64.57,1.19.57.59,0,1-.23,1.22-.68Z" style="fill:gray;"/><path d="m455.17,180.42h2.53v.93h-2.53v-.93Z" style="fill:gray;"/><path d="m462.06,178.53c.16.1.34.28.55.53v-2.73h.87v7.42h-.82v-.75c-.21.33-.46.57-.75.72s-.62.22-.99.22c-.6,0-1.12-.25-1.56-.76-.44-.51-.66-1.18-.66-2.02,0-.79.2-1.47.6-2.04.4-.58.97-.86,1.71-.86.41,0,.76.09,1.03.26Zm-2.02,4.04c.24.39.63.58,1.17.58.42,0,.76-.18,1.03-.54.27-.36.4-.88.4-1.55s-.14-1.19-.42-1.51c-.28-.33-.62-.49-1.03-.49-.45,0-.82.17-1.11.52-.28.35-.42.86-.42,1.54,0,.58.12,1.06.37,1.45Z" style="fill:gray;"/><path d="m468.83,178.9c.48.46.72,1.14.72,2.04s-.21,1.59-.63,2.15c-.42.57-1.07.85-1.96.85-.74,0-1.32-.25-1.76-.75-.43-.5-.65-1.18-.65-2.02,0-.91.23-1.63.69-2.16.46-.54,1.07-.81,1.84-.81.69,0,1.27.23,1.75.69Zm-.56,3.59c.22-.46.33-.96.33-1.52,0-.5-.08-.91-.24-1.23-.25-.5-.69-.74-1.3-.74-.55,0-.95.21-1.2.63s-.37.93-.37,1.53.12,1.05.37,1.43c.25.38.64.57,1.19.57.59,0,1-.23,1.22-.68Z" style="fill:gray;"/><path d="m470.7,178.36h.86v.93c.07-.18.24-.4.52-.66.28-.26.59-.39.95-.39.02,0,.04,0,.08,0,.04,0,.11.01.21.02v.96c-.05,0-.1-.02-.15-.02-.05,0-.09,0-.15,0-.46,0-.81.15-1.05.44-.25.29-.37.63-.37,1.02v3.1h-.91v-5.39Z" style="fill:gray;"/><path d="m474.16,176.36h.92v1.03h-.92v-1.03Zm0,2.03h.92v5.37h-.92v-5.37Z" style="fill:gray;"/><path d="m237.27,304.69h1.27l1.89,6.26,1.87-6.26h1.26v7.4h-.85v-4.37c0-.15,0-.4,0-.75,0-.35,0-.72,0-1.12l-1.87,6.24h-.88l-1.89-6.24v.23c0,.18,0,.46.01.83s.01.64.01.82v4.37h-.85v-7.4Z" style="fill:gray;"/><path d="m247.35,308.83c.18-.03.31-.11.37-.26.04-.08.05-.2.05-.35,0-.31-.1-.54-.29-.67-.19-.14-.47-.21-.83-.21-.42,0-.72.13-.89.38-.1.14-.16.35-.19.63h-.75c.01-.67.21-1.13.57-1.39.37-.26.79-.39,1.28-.39.56,0,1.02.12,1.37.36.35.24.52.62.52,1.13v3.11c0,.09.02.17.05.23.03.06.11.09.22.09.04,0,.08,0,.12,0,.04,0,.09-.01.14-.02v.67c-.12.04-.22.07-.29.08-.07,0-.15.02-.27.02-.28,0-.48-.11-.6-.33-.07-.12-.11-.28-.14-.5-.16.24-.4.45-.71.63-.31.18-.64.27-1.01.27-.44,0-.81-.15-1.09-.46-.28-.3-.42-.68-.42-1.14,0-.5.14-.89.42-1.16.28-.28.64-.44,1.09-.51l1.28-.18Zm-1.69,2.45c.17.15.37.23.6.23.28,0,.56-.07.82-.22.45-.25.67-.65.67-1.2v-.73c-.1.07-.22.13-.38.18-.15.05-.31.08-.45.1l-.49.07c-.29.04-.51.11-.66.21-.25.16-.37.41-.37.75,0,.26.08.47.25.62Z" style="fill:gray;"/><path d="m249.93,305.19h.81v1.51h.76v.74h-.76v3.52c0,.19.06.31.17.38.06.04.17.06.31.06.04,0,.08,0,.12,0,.04,0,.1,0,.16-.02v.72c-.09.03-.19.05-.29.07-.1.01-.21.02-.32.02-.38,0-.63-.11-.76-.33-.13-.22-.2-.5-.2-.84v-3.57h-.65v-.74h.65v-1.51Z" style="fill:gray;"/><path d="m252.79,310.4c.02.3.09.53.21.7.21.29.57.44,1.08.44.3,0,.57-.07.8-.22.23-.15.35-.37.35-.68,0-.23-.09-.41-.28-.53-.12-.07-.35-.16-.7-.26l-.65-.18c-.41-.11-.72-.24-.92-.38-.35-.25-.53-.58-.53-1.02,0-.51.17-.92.5-1.24.33-.32.77-.47,1.33-.47.73,0,1.26.24,1.58.72.2.3.3.63.29.98h-.76c-.01-.2-.08-.39-.2-.56-.19-.24-.52-.36-.98-.36-.31,0-.55.07-.71.2-.16.13-.24.3-.24.52,0,.23.11.42.32.56.12.08.3.16.54.22l.54.15c.59.16.98.31,1.18.46.31.23.47.6.47,1.09s-.16.89-.49,1.24c-.33.35-.83.52-1.49.52-.72,0-1.23-.18-1.53-.55s-.46-.82-.48-1.35h.77Z" style="fill:gray;"/><path d="m257.68,306.7v3.58c0,.28.04.5.11.67.14.32.4.48.78.48.54,0,.92-.28,1.11-.85.11-.3.16-.72.16-1.24v-2.65h.8v5.39h-.76v-.8c-.09.21-.22.38-.37.52-.3.28-.67.42-1.1.42-.67,0-1.12-.26-1.37-.77-.13-.27-.2-.64-.2-1.1v-3.67h.82Z" style="fill:gray;"/><path d="m261.48,311.38l2.84-3.87h-2.63v-.81h3.71v.74l-2.82,3.84h2.91v.81h-4v-.71Z" style="fill:gray;"/><path d="m268.94,308.83c.18-.03.31-.11.37-.26.04-.08.05-.2.05-.35,0-.31-.1-.54-.29-.67-.2-.14-.47-.21-.84-.21-.42,0-.72.13-.89.38-.1.14-.16.35-.19.63h-.75c.01-.67.21-1.13.57-1.39.37-.26.79-.39,1.28-.39.56,0,1.02.12,1.37.36.35.24.52.62.52,1.13v3.11c0,.09.02.17.05.23.03.06.11.09.22.09.04,0,.08,0,.12,0s.09-.01.14-.02v.67c-.12.04-.22.07-.29.08s-.16.02-.27.02c-.28,0-.48-.11-.6-.33-.07-.12-.11-.28-.14-.5-.16.24-.4.45-.71.63-.31.18-.64.27-1.01.27-.44,0-.81-.15-1.09-.46-.28-.3-.42-.68-.42-1.14,0-.5.14-.89.42-1.16.28-.28.64-.44,1.09-.51l1.28-.18Zm-1.69,2.45c.17.15.37.23.6.23.28,0,.56-.07.82-.22.45-.25.67-.65.67-1.2v-.73c-.1.07-.22.13-.38.18-.15.05-.31.08-.45.1l-.49.07c-.29.04-.51.11-.66.21-.25.16-.37.41-.37.75,0,.26.08.47.25.62Z" style="fill:gray;"/><path d="m271.43,304.69h.77v4.3l2.06-2.29h1.03l-1.84,2.01,1.94,3.39h-1.03l-1.5-2.75-.66.72v2.02h-.77v-7.4Z" style="fill:gray;"/><path d="m278.52,308.83c.18-.03.31-.11.37-.26.04-.08.05-.2.05-.35,0-.31-.1-.54-.29-.67-.2-.14-.47-.21-.84-.21-.42,0-.72.13-.89.38-.1.14-.16.35-.19.63h-.75c.01-.67.21-1.13.57-1.39.37-.26.79-.39,1.28-.39.56,0,1.02.12,1.37.36.35.24.52.62.52,1.13v3.11c0,.09.02.17.05.23.03.06.11.09.22.09.04,0,.08,0,.12,0s.09-.01.14-.02v.67c-.12.04-.22.07-.29.08s-.16.02-.27.02c-.28,0-.48-.11-.6-.33-.07-.12-.11-.28-.14-.5-.16.24-.4.45-.71.63-.31.18-.64.27-1.01.27-.44,0-.81-.15-1.09-.46-.28-.3-.42-.68-.42-1.14,0-.5.14-.89.42-1.16.28-.28.64-.44,1.09-.51l1.28-.18Zm-1.69,2.45c.17.15.37.23.6.23.28,0,.56-.07.82-.22.45-.25.67-.65.67-1.2v-.73c-.1.07-.22.13-.38.18-.15.05-.31.08-.45.1l-.49.07c-.29.04-.51.11-.66.21-.25.16-.37.41-.37.75,0,.26.08.47.25.62Z" style="fill:gray;"/><path d="m283.84,306.7h.89c-.11.35-.36,1.14-.75,2.37-.29.93-.54,1.68-.73,2.27-.46,1.38-.79,2.21-.98,2.52-.19.3-.52.45-.98.45-.11,0-.2,0-.26-.01-.06,0-.14-.03-.23-.06v-.83c.14.04.24.07.3.08.06,0,.12.01.17.01.15,0,.26-.03.33-.08.07-.05.13-.12.18-.2.01-.03.07-.16.16-.41s.16-.43.2-.55l-1.77-5.55h.91l1.28,4.39,1.29-4.39Z" style="fill:gray;"/><path d="m287.81,308.83c.18-.03.31-.11.37-.26.04-.08.05-.2.05-.35,0-.31-.1-.54-.29-.67-.2-.14-.47-.21-.84-.21-.42,0-.72.13-.89.38-.1.14-.16.35-.19.63h-.75c.01-.67.21-1.13.57-1.39.37-.26.79-.39,1.28-.39.56,0,1.02.12,1.37.36.35.24.52.62.52,1.13v3.11c0,.09.02.17.05.23.03.06.11.09.22.09.04,0,.08,0,.12,0s.09-.01.14-.02v.67c-.12.04-.22.07-.29.08s-.16.02-.27.02c-.28,0-.48-.11-.6-.33-.07-.12-.11-.28-.14-.5-.16.24-.4.45-.71.63-.31.18-.64.27-1.01.27-.44,0-.81-.15-1.09-.46-.28-.3-.42-.68-.42-1.14,0-.5.14-.89.42-1.16.28-.28.64-.44,1.09-.51l1.28-.18Zm-1.69,2.45c.17.15.37.23.6.23.28,0,.56-.07.82-.22.45-.25.67-.65.67-1.2v-.73c-.1.07-.22.13-.38.18-.15.05-.31.08-.45.1l-.49.07c-.29.04-.51.11-.66.21-.25.16-.37.41-.37.75,0,.26.08.47.25.62Z" style="fill:gray;"/><path d="m228.06,315.35h2.62c.89,0,1.58.36,2.07,1.08.44.65.66,1.49.66,2.5,0,.79-.13,1.5-.39,2.13-.46,1.12-1.24,1.68-2.35,1.68h-2.61v-7.4Zm2.45,6.54c.29,0,.54-.04.72-.11.34-.13.61-.38.83-.76.17-.3.3-.68.37-1.15.04-.28.07-.54.07-.78,0-.92-.16-1.63-.47-2.14-.32-.51-.82-.76-1.53-.76h-1.54v5.68h1.55Z" style="fill:gray;"/><path d="m237.42,317.5c.32.18.56.41.72.7.16.27.27.59.32.95.05.25.07.64.07,1.19h-3.48c.01.55.13.99.34,1.32s.54.5.99.5c.42,0,.75-.16,1-.47.14-.18.24-.39.29-.63h.79c-.02.2-.09.42-.21.66-.12.24-.25.44-.39.6-.24.27-.54.45-.9.54-.19.05-.41.08-.65.08-.59,0-1.09-.24-1.5-.73-.41-.49-.62-1.17-.62-2.05s.21-1.57.62-2.11c.41-.54.96-.81,1.62-.81.34,0,.66.09.98.27Zm.29,2.12c-.03-.39-.11-.71-.23-.94-.22-.44-.58-.65-1.09-.65-.37,0-.67.15-.92.45-.25.3-.38.68-.39,1.15h2.63Z" style="fill:gray;"/><path d="m239.47,317.38h.79v.71c.16-.25.34-.43.53-.57.27-.2.59-.3.96-.3.54,0,1,.23,1.38.7.38.47.57,1.14.57,2.01,0,1.17-.27,2.01-.82,2.52-.35.32-.75.48-1.21.48-.36,0-.66-.09-.91-.27-.14-.1-.3-.27-.48-.52v2.75h-.8v-7.52Zm3.02,4.23c.25-.35.37-.88.37-1.59,0-.43-.06-.8-.17-1.11-.21-.59-.59-.89-1.15-.89s-.94.31-1.15.94c-.11.34-.17.76-.17,1.28,0,.42.06.77.17,1.06.21.56.59.84,1.15.84.38,0,.69-.18.94-.53Z" style="fill:gray;"/><path d="m247.14,319.48c.18-.03.31-.11.37-.26.04-.08.05-.2.05-.35,0-.31-.1-.54-.29-.67-.19-.14-.47-.21-.83-.21-.42,0-.72.13-.89.38-.1.14-.16.35-.19.63h-.75c.01-.67.21-1.13.57-1.39.37-.26.79-.39,1.28-.39.56,0,1.02.12,1.37.36.35.24.52.62.52,1.13v3.11c0,.09.02.17.05.23.03.06.11.09.22.09.04,0,.08,0,.12,0,.04,0,.09-.01.14-.02v.67c-.12.04-.22.07-.29.08-.07,0-.15.02-.27.02-.28,0-.48-.11-.6-.33-.07-.12-.11-.28-.14-.5-.16.24-.4.45-.71.63-.31.18-.64.27-1.01.27-.44,0-.81-.15-1.09-.46-.28-.3-.42-.68-.42-1.14,0-.5.14-.89.42-1.16.28-.28.64-.44,1.09-.51l1.28-.18Zm-1.69,2.45c.17.15.37.23.6.23.28,0,.56-.07.82-.22.45-.25.67-.65.67-1.2v-.73c-.1.07-.22.13-.38.18-.15.05-.31.08-.45.1l-.49.07c-.29.04-.51.11-.66.21-.25.16-.37.41-.37.75,0,.26.08.47.25.62Z" style="fill:gray;"/><path d="m249.65,317.35h.76v.93c.06-.18.22-.4.46-.66.24-.26.53-.39.84-.39.02,0,.04,0,.08,0,.04,0,.1.01.18.02v.96s-.09-.02-.13-.02c-.04,0-.08,0-.13,0-.4,0-.72.15-.93.44-.22.29-.33.63-.33,1.02v3.1h-.8v-5.39Z" style="fill:gray;"/><path d="m253.06,315.85h.81v1.51h.76v.74h-.76v3.52c0,.19.06.31.17.38.06.04.17.06.31.06.04,0,.08,0,.12,0,.04,0,.1,0,.16-.02v.72c-.09.03-.19.05-.29.07s-.21.02-.32.02c-.38,0-.63-.11-.76-.33s-.2-.5-.2-.84v-3.57h-.65v-.74h.65v-1.51Z" style="fill:gray;"/><path d="m255.43,317.35h.79v.77c.19-.27.36-.46.52-.58.26-.21.57-.31.9-.31.38,0,.69.11.92.32.13.12.25.3.36.53.18-.29.39-.5.63-.64.24-.14.51-.21.81-.21.64,0,1.08.26,1.31.79.12.28.19.66.19,1.14v3.59h-.83v-3.75c0-.36-.08-.61-.24-.74-.16-.13-.35-.2-.58-.2-.32,0-.59.12-.81.36s-.34.64-.34,1.19v3.14h-.82v-3.52c0-.37-.04-.63-.12-.8-.12-.25-.35-.38-.68-.38-.3,0-.58.13-.83.4-.25.27-.37.75-.37,1.44v2.86h-.8v-5.39Z" style="fill:gray;"/><path d="m265.98,317.5c.32.18.56.41.72.7.16.27.27.59.32.95.05.25.07.64.07,1.19h-3.48c.01.55.13.99.34,1.32s.54.5.99.5c.42,0,.75-.16,1-.47.14-.18.24-.39.29-.63h.79c-.02.2-.09.42-.21.66-.12.24-.25.44-.39.6-.24.27-.54.45-.9.54-.19.05-.41.08-.65.08-.59,0-1.09-.24-1.5-.73-.41-.49-.62-1.17-.62-2.05s.21-1.57.62-2.11c.41-.54.96-.81,1.62-.81.34,0,.66.09.98.27Zm.29,2.12c-.03-.39-.11-.71-.23-.94-.22-.44-.58-.65-1.09-.65-.37,0-.67.15-.92.45-.25.3-.38.68-.39,1.15h2.63Z" style="fill:gray;"/><path d="m268.07,317.35h.76v.77c.23-.32.47-.54.72-.68s.53-.21.84-.21c.68,0,1.14.27,1.38.8.13.29.2.71.2,1.25v3.46h-.82v-3.4c0-.33-.04-.59-.13-.8-.14-.33-.4-.5-.78-.5-.19,0-.35.02-.47.07-.22.07-.41.22-.58.44-.13.18-.22.36-.26.55-.04.19-.06.46-.06.81v2.83h-.8v-5.39Z" style="fill:gray;"/><path d="m273.25,315.85h.81v1.51h.76v.74h-.76v3.52c0,.19.06.31.17.38.06.04.17.06.31.06.04,0,.08,0,.12,0,.04,0,.1,0,.16-.02v.72c-.09.03-.19.05-.29.07s-.21.02-.32.02c-.38,0-.63-.11-.76-.33s-.2-.5-.2-.84v-3.57h-.65v-.74h.65v-1.51Z" style="fill:gray;"/><path d="m278.67,320.36c.02.42.1.76.25,1.02.28.49.78.74,1.5.74.32,0,.61-.05.88-.16.51-.21.77-.58.77-1.12,0-.4-.11-.69-.32-.86-.22-.17-.56-.31-1.03-.44l-.86-.23c-.56-.15-.96-.31-1.19-.49-.4-.31-.6-.77-.6-1.38,0-.67.2-1.21.59-1.64.4-.43.96-.64,1.69-.64.67,0,1.24.19,1.71.56.47.38.7.97.7,1.8h-.83c-.04-.4-.13-.7-.27-.91-.26-.39-.7-.58-1.32-.58-.5,0-.86.12-1.08.37-.22.25-.33.54-.33.87,0,.36.13.63.39.8.17.11.55.24,1.16.4l.89.24c.43.11.76.27,1,.47.4.35.61.85.61,1.51,0,.82-.26,1.41-.77,1.76-.51.35-1.11.53-1.79.53-.8,0-1.42-.24-1.87-.71-.45-.47-.67-1.1-.66-1.9h.83Z" style="fill:gray;"/><path d="m284.18,315.85h.81v1.51h.76v.74h-.76v3.52c0,.19.06.31.17.38.06.04.17.06.31.06.04,0,.08,0,.12,0,.04,0,.1,0,.16-.02v.72c-.09.03-.19.05-.29.07s-.21.02-.32.02c-.38,0-.63-.11-.76-.33s-.2-.5-.2-.84v-3.57h-.65v-.74h.65v-1.51Z" style="fill:gray;"/><path d="m289.94,317.89c.42.46.63,1.14.63,2.04s-.19,1.59-.56,2.15c-.37.57-.95.85-1.73.85-.65,0-1.17-.25-1.56-.75-.38-.5-.58-1.18-.58-2.02,0-.91.2-1.63.61-2.16.4-.54.95-.81,1.63-.81.61,0,1.13.23,1.55.69Zm-.5,3.59c.2-.46.29-.96.29-1.52,0-.5-.07-.91-.21-1.23-.22-.5-.61-.74-1.16-.74-.49,0-.84.21-1.06.63s-.33.93-.33,1.53.11,1.05.33,1.43c.22.38.57.57,1.05.57.53,0,.89-.23,1.08-.68Z" style="fill:gray;"/><path d="m291.55,317.35h.76v.93c.06-.18.22-.4.46-.66.24-.26.53-.39.84-.39.01,0,.04,0,.08,0,.04,0,.1.01.18.02v.96s-.09-.02-.13-.02c-.04,0-.08,0-.13,0-.4,0-.72.15-.93.44-.22.29-.33.63-.33,1.02v3.1h-.8v-5.39Z" style="fill:gray;"/><path d="m297.47,317.5c.32.18.56.41.72.7.16.27.27.59.32.95.05.25.07.64.07,1.19h-3.48c.01.55.13.99.34,1.32s.54.5.99.5c.42,0,.75-.16,1-.47.14-.18.24-.39.29-.63h.79c-.02.2-.09.42-.21.66-.12.24-.25.44-.39.6-.24.27-.54.45-.9.54-.19.05-.41.08-.65.08-.59,0-1.09-.24-1.5-.73-.41-.49-.62-1.17-.62-2.05s.21-1.57.62-2.11c.41-.54.96-.81,1.62-.81.34,0,.66.09.98.27Zm.29,2.12c-.03-.39-.11-.71-.23-.94-.22-.44-.58-.65-1.09-.65-.37,0-.67.15-.92.45-.25.3-.38.68-.39,1.15h2.63Z" style="fill:gray;"/></g></svg>