<?xml version="1.0" encoding="UTF-8"?><svg id="_レイヤー_2" xmlns="http://www.w3.org/2000/svg" width="497.48" height="368.44" viewBox="0 0 497.48 368.44"><g id="_レイヤー_1-2"><path d="m253.51,364.44V68.5s-1.33,0,43.9,0,42.57,42.57,0,42.57-41.24-1.33-41.24-1.33" style="fill:none; stroke:#e6e6e6; stroke-linecap:round; stroke-miterlimit:10; stroke-width:8px;"/><line x1=".6" y1="32.49" x2="496.98" y2="32.49" style="fill:none; stroke:#4d4948; stroke-miterlimit:10; stroke-width:7.56px;"/><line x1=".6" y1="32.49" x2="496.98" y2="32.49" style="fill:none; stroke:#fff; stroke-miterlimit:10; stroke-width:5.04px;"/><line x1=".6" y1="32.49" x2="496.98" y2="32.49" style="fill:none; stroke:#4d4948; stroke-dasharray:0 0 25.2 25.2; stroke-miterlimit:10; stroke-width:5.04px;"/><rect x="166.49" y="9.04" width="158.09" height="40.24" style="fill:#fff; stroke:#545454; stroke-miterlimit:10; stroke-width:.68px;"/><line x1="7.6" y1="246.87" x2="489.98" y2="246.87" style="fill:none; stroke:#e6e6e6; stroke-linecap:round; stroke-miterlimit:10; stroke-width:8px;"/><line x1="7.6" y1="182.48" x2="489.98" y2="182.48" style="fill:none; stroke:#e6e6e6; stroke-linecap:round; stroke-miterlimit:10; stroke-width:8px;"/><line x1=".6" y1="277.78" x2="496.98" y2="277.78" style="fill:none; stroke:#6a6766; stroke-miterlimit:10; stroke-width:7.56px;"/><line x1=".6" y1="277.78" x2="496.98" y2="277.78" style="fill:none; stroke:#fff; stroke-miterlimit:10; stroke-width:5.04px;"/><line x1=".6" y1="277.78" x2="496.98" y2="277.78" style="fill:none; stroke:#6a6766; stroke-dasharray:0 0 11 13; stroke-miterlimit:10; stroke-width:5.04px;"/><rect x="155.59" y="260.93" width="85.22" height="32.41" style="fill:#fff; stroke:#545454; stroke-miterlimit:10; stroke-width:.5px;"/><line x1="7.6" y1="111.07" x2="489.98" y2="111.07" style="fill:none; stroke:#e6e6e6; stroke-linecap:round; stroke-miterlimit:10; stroke-width:8px;"/><line x1="7.6" y1="337.78" x2="489.98" y2="337.78" style="fill:none; stroke:#e6e6e6; stroke-linecap:round; stroke-miterlimit:10; stroke-width:15px;"/><circle cx="233.75" cy="97.94" r="4.49" style="fill:gray;"/><circle cx="233.75" cy="123.04" r="4.49" style="fill:gray;"/><circle cx="329.33" cy="59.19" r="4.49" style="fill:gray;"/><circle cx="233.75" cy="233.13" r="4.49" style="fill:gray;"/><polyline points="245.11 59.19 245.11 266.08 234.89 266.08" style="fill:none; stroke:#ed0030; stroke-linecap:round; stroke-miterlimit:10; stroke-width:2.94px;"/><polyline points="248.19 61.85 245.29 54.94 241.9 61.85" style="fill:none; stroke:#ed0030; stroke-linecap:round; stroke-miterlimit:10; stroke-width:2.38px;"/><path d="m173.98,266.46h1.14v4.23l4.33-4.23h1.64l-3.69,3.49,3.77,5.16h-1.53l-3.1-4.34-1.41,1.33v3.01h-1.14v-8.65Z" style="fill:gray;"/><path d="m182.75,268.81v4.19c0,.32.05.58.15.79.18.38.53.56,1.03.56.72,0,1.21-.33,1.47-.99.14-.35.21-.84.21-1.45v-3.1h1.06v6.3h-1v-.93c-.12.24-.29.44-.49.61-.4.33-.88.5-1.44.5-.88,0-1.48-.3-1.8-.9-.17-.32-.26-.75-.26-1.29v-4.29h1.08Z" style="fill:gray;"/><path d="m188.91,273.13c.03.35.12.62.27.81.27.34.75.51,1.42.51.4,0,.75-.08,1.06-.26s.46-.43.46-.79c0-.27-.12-.48-.37-.62-.16-.09-.46-.19-.92-.3l-.86-.21c-.55-.13-.95-.28-1.21-.45-.46-.29-.69-.68-.69-1.19,0-.6.22-1.08.65-1.45.43-.37,1.02-.55,1.76-.55.96,0,1.66.28,2.08.84.27.35.4.73.39,1.14h-1c-.02-.24-.11-.46-.26-.65-.25-.28-.68-.42-1.3-.42-.41,0-.72.08-.93.23s-.32.35-.32.6c0,.27.14.49.42.66.16.1.4.18.71.26l.71.17c.78.18,1.29.36,1.56.54.41.27.62.7.62,1.28s-.21,1.05-.65,1.45c-.43.41-1.09.61-1.97.61-.95,0-1.62-.21-2.02-.64s-.61-.95-.63-1.58h1.02Z" style="fill:gray;"/><path d="m197.69,271.29c.24-.03.41-.13.49-.31.05-.09.07-.23.07-.41,0-.36-.13-.63-.38-.79s-.62-.25-1.1-.25c-.55,0-.94.15-1.17.45-.13.17-.21.41-.25.74h-.99c.02-.78.27-1.32.75-1.63.48-.3,1.05-.46,1.68-.46.74,0,1.34.14,1.81.42.46.28.69.72.69,1.32v3.63c0,.11.02.2.07.26.04.07.14.1.29.1.05,0,.1,0,.16,0,.06,0,.12-.01.19-.03v.78c-.17.05-.29.08-.38.09-.09.01-.2.02-.35.02-.37,0-.63-.13-.79-.39-.09-.14-.15-.33-.18-.58-.22.28-.53.53-.93.74-.4.21-.85.31-1.34.31-.58,0-1.06-.18-1.43-.53s-.56-.8-.56-1.33c0-.58.18-1.04.55-1.36s.84-.52,1.44-.59l1.69-.21Zm-2.23,2.86c.22.18.49.26.79.26.37,0,.73-.09,1.08-.26.59-.29.88-.75.88-1.4v-.85c-.13.08-.3.15-.5.21-.2.05-.4.09-.6.12l-.64.08c-.38.05-.67.13-.87.24-.33.18-.49.48-.49.88,0,.31.11.55.34.72Z" style="fill:gray;"/><path d="m200.96,268.81h1.01v.9c.3-.37.61-.63.95-.79.33-.16.7-.24,1.11-.24.89,0,1.5.31,1.81.94.17.34.26.83.26,1.47v4.04h-1.08v-3.97c0-.38-.06-.69-.17-.93-.19-.39-.53-.59-1.02-.59-.25,0-.46.03-.62.08-.29.09-.54.26-.76.52-.18.21-.29.42-.34.64s-.08.54-.08.95v3.3h-1.06v-6.3Z" style="fill:gray;"/><path d="m210.93,271.29c.24-.03.41-.13.49-.31.05-.09.07-.23.07-.41,0-.36-.13-.63-.38-.79s-.62-.25-1.1-.25c-.55,0-.94.15-1.17.45-.13.17-.21.41-.25.74h-.99c.02-.78.27-1.32.75-1.63.48-.3,1.05-.46,1.68-.46.74,0,1.34.14,1.81.42.46.28.69.72.69,1.32v3.63c0,.11.02.2.07.26.04.07.14.1.29.1.05,0,.1,0,.16,0,.06,0,.12-.01.19-.03v.78c-.17.05-.29.08-.38.09-.09.01-.2.02-.35.02-.37,0-.63-.13-.79-.39-.09-.14-.15-.33-.18-.58-.22.28-.53.53-.93.74-.4.21-.85.31-1.34.31-.58,0-1.06-.18-1.43-.53s-.56-.8-.56-1.33c0-.58.18-1.04.55-1.36s.84-.52,1.44-.59l1.69-.21Zm-2.23,2.86c.22.18.49.26.79.26.37,0,.73-.09,1.08-.26.59-.29.88-.75.88-1.4v-.85c-.13.08-.3.15-.5.21-.2.05-.4.09-.6.12l-.64.08c-.38.05-.67.13-.87.24-.33.18-.49.48-.49.88,0,.31.11.55.34.72Z" style="fill:gray;"/><path d="m217.67,269.06c.2.14.4.34.61.6v-.79h.98v5.73c0,.8-.12,1.43-.35,1.89-.44.86-1.27,1.28-2.48,1.28-.68,0-1.25-.15-1.71-.46-.46-.3-.72-.78-.77-1.43h1.08c.05.28.15.5.3.65.24.24.61.35,1.12.35.81,0,1.34-.29,1.59-.86.15-.34.22-.94.21-1.81-.21.32-.47.56-.76.72-.3.16-.69.24-1.18.24-.68,0-1.28-.24-1.79-.73s-.76-1.29-.76-2.4c0-1.06.26-1.88.77-2.47.51-.59,1.13-.89,1.86-.89.49,0,.92.12,1.29.37Zm.13,1.14c-.32-.38-.73-.57-1.22-.57-.74,0-1.25.35-1.52,1.05-.14.37-.22.86-.22,1.47,0,.71.14,1.25.43,1.62.29.37.67.56,1.16.56.76,0,1.29-.34,1.6-1.03.17-.39.26-.84.26-1.36,0-.78-.16-1.36-.48-1.74Z" style="fill:gray;"/><path d="m220.78,266.46h1.08v1.2h-1.08v-1.2Zm0,2.37h1.08v6.27h-1.08v-6.27Z" style="fill:gray;"/><path d="m180.98,284.77c.03.49.14.89.33,1.2.38.57,1.03.86,1.98.86.42,0,.81-.06,1.16-.19.67-.24,1.01-.68,1.01-1.31,0-.47-.14-.81-.43-1.01-.29-.2-.74-.37-1.36-.51l-1.13-.26c-.74-.17-1.27-.36-1.57-.57-.53-.36-.8-.9-.8-1.62,0-.78.26-1.42.79-1.91.52-.5,1.26-.75,2.22-.75.88,0,1.63.22,2.25.66.62.44.92,1.14.92,2.1h-1.1c-.06-.46-.18-.82-.36-1.07-.34-.45-.92-.68-1.74-.68-.66,0-1.14.15-1.43.44-.29.29-.43.63-.43,1.01,0,.42.17.73.51.93.22.13.73.28,1.52.47l1.17.28c.57.13,1,.32,1.31.55.53.4.8.99.8,1.76,0,.96-.34,1.64-1.02,2.05-.68.41-1.47.62-2.37.62-1.05,0-1.87-.27-2.46-.82-.59-.54-.88-1.29-.87-2.22h1.1Z" style="fill:gray;"/><path d="m188.21,279.5h1.07v1.76h1.01v.87h-1.01v4.11c0,.22.07.37.22.44.08.04.22.06.41.06.05,0,.11,0,.16,0,.06,0,.13,0,.21-.02v.84c-.12.04-.25.06-.38.08-.13.02-.27.02-.43.02-.5,0-.83-.13-1.01-.38s-.26-.58-.26-.99v-4.17h-.85v-.87h.85v-1.76Z" style="fill:gray;"/><path d="m194.72,283.75c.24-.03.41-.13.49-.31.05-.09.07-.23.07-.41,0-.36-.13-.63-.38-.79s-.62-.25-1.1-.25c-.55,0-.94.15-1.17.45-.13.17-.21.41-.25.74h-.99c.02-.78.27-1.32.75-1.63.48-.3,1.05-.46,1.68-.46.74,0,1.34.14,1.81.42.46.28.69.72.69,1.32v3.63c0,.11.02.2.07.26.04.07.14.1.29.1.05,0,.1,0,.16,0,.06,0,.12-.01.19-.03v.78c-.17.05-.29.08-.38.09-.09.01-.2.02-.35.02-.37,0-.63-.13-.79-.39-.09-.14-.15-.33-.18-.58-.22.28-.53.53-.93.74-.4.21-.85.31-1.34.31-.58,0-1.06-.18-1.43-.53s-.56-.8-.56-1.33c0-.58.18-1.04.55-1.36s.84-.52,1.44-.59l1.69-.21Zm-2.23,2.86c.22.18.49.26.79.26.37,0,.73-.09,1.08-.26.59-.29.88-.75.88-1.4v-.85c-.13.08-.3.15-.5.21-.2.05-.4.09-.6.12l-.64.08c-.38.05-.67.13-.87.24-.33.18-.49.48-.49.88,0,.31.11.55.34.72Z" style="fill:gray;"/><path d="m198.09,279.5h1.07v1.76h1.01v.87h-1.01v4.11c0,.22.07.37.22.44.08.04.22.06.41.06.05,0,.11,0,.16,0,.06,0,.13,0,.21-.02v.84c-.12.04-.25.06-.38.08-.13.02-.27.02-.43.02-.5,0-.83-.13-1.01-.38s-.26-.58-.26-.99v-4.17h-.85v-.87h.85v-1.76Z" style="fill:gray;"/><path d="m201.2,278.92h1.08v1.2h-1.08v-1.2Zm0,2.37h1.08v6.27h-1.08v-6.27Z" style="fill:gray;"/><path d="m208.45,281.89c.56.54.84,1.34.84,2.39s-.25,1.85-.74,2.52c-.49.66-1.25.99-2.29.99-.86,0-1.55-.29-2.05-.88-.51-.59-.76-1.37-.76-2.36,0-1.06.27-1.9.8-2.53.53-.63,1.25-.94,2.15-.94.81,0,1.49.27,2.05.81Zm-.66,4.19c.26-.53.39-1.12.39-1.77,0-.59-.09-1.07-.28-1.43-.29-.58-.8-.87-1.53-.87-.64,0-1.11.25-1.4.74-.29.49-.44,1.09-.44,1.79s.15,1.23.44,1.67c.29.45.75.67,1.38.67.69,0,1.17-.27,1.43-.8Z" style="fill:gray;"/><path d="m210.53,281.26h1.01v.9c.3-.37.61-.63.95-.79.33-.16.7-.24,1.11-.24.89,0,1.5.31,1.81.94.17.34.26.83.26,1.47v4.04h-1.08v-3.97c0-.38-.06-.69-.17-.93-.19-.39-.53-.59-1.02-.59-.25,0-.46.03-.62.08-.29.09-.54.26-.76.52-.18.21-.29.42-.34.64s-.08.54-.08.95v3.3h-1.06v-6.3Z" style="fill:gray;"/><path d="m116.42,334.26h1.44l2.13,6.26,2.11-6.26h1.43v7.4h-.96v-4.37c0-.15,0-.4.01-.75,0-.35,0-.72,0-1.12l-2.11,6.24h-.99l-2.13-6.24v.23c0,.18,0,.46.01.83.01.37.02.64.02.82v4.37h-.96v-7.4Z" style="fill:gray;"/><path d="m124.98,334.26h.92v1.03h-.92v-1.03Zm0,2.03h.92v5.37h-.92v-5.37Z" style="fill:gray;"/><path d="m127.28,336.27h.86v.77c.25-.32.53-.54.81-.68s.6-.21.95-.21c.77,0,1.28.27,1.55.8.15.29.22.71.22,1.25v3.46h-.92v-3.4c0-.33-.05-.59-.15-.8-.16-.33-.45-.5-.88-.5-.21,0-.39.02-.53.07-.25.07-.47.22-.65.44-.15.18-.25.36-.29.55-.05.19-.07.46-.07.81v2.83h-.91v-5.39Z" style="fill:gray;"/><path d="m135.89,338.4c.21-.03.35-.11.42-.26.04-.08.06-.2.06-.35,0-.31-.11-.54-.33-.67-.22-.14-.53-.21-.94-.21-.47,0-.81.13-1,.38-.11.14-.18.35-.22.63h-.85c.02-.67.23-1.13.65-1.39.41-.26.89-.39,1.44-.39.63,0,1.15.12,1.54.36.39.24.59.62.59,1.13v3.11c0,.09.02.17.06.23.04.06.12.09.25.09.04,0,.08,0,.14,0,.05,0,.1-.01.16-.02v.67c-.14.04-.25.07-.32.08-.07,0-.17.02-.3.02-.31,0-.54-.11-.68-.33-.07-.12-.13-.28-.16-.5-.18.24-.45.45-.8.63-.35.18-.73.27-1.14.27-.5,0-.91-.15-1.23-.46-.32-.3-.48-.68-.48-1.14,0-.5.16-.89.47-1.16.31-.28.72-.44,1.23-.51l1.45-.18Zm-1.91,2.45c.19.15.42.23.68.23.32,0,.63-.07.93-.22.5-.25.76-.65.76-1.2v-.73c-.11.07-.25.13-.43.18-.17.05-.34.08-.51.1l-.55.07c-.33.04-.58.11-.74.21-.28.16-.42.41-.42.75,0,.26.1.47.29.62Z" style="fill:gray;"/><path d="m138.76,336.27h.9v.77c.21-.27.41-.46.58-.58.3-.21.64-.31,1.02-.31.43,0,.78.11,1.04.32.15.12.28.3.4.53.2-.29.44-.5.71-.64.27-.14.58-.21.92-.21.73,0,1.22.26,1.48.79.14.28.21.66.21,1.14v3.59h-.94v-3.75c0-.36-.09-.61-.27-.74-.18-.13-.4-.2-.66-.2-.36,0-.66.12-.92.36-.26.24-.38.64-.38,1.19v3.14h-.92v-3.52c0-.37-.04-.63-.13-.8-.14-.25-.39-.38-.77-.38-.34,0-.65.13-.93.4-.28.27-.42.75-.42,1.44v2.86h-.91v-5.39Z" style="fill:gray;"/><path d="m147.37,334.26h.92v1.03h-.92v-1.03Zm0,2.03h.92v5.37h-.92v-5.37Z" style="fill:gray;"/><path d="m149.67,334.26h.87v4.3l2.32-2.29h1.16l-2.07,2.01,2.19,3.39h-1.16l-1.7-2.75-.74.72v2.02h-.87v-7.4Z" style="fill:gray;"/><path d="m157.73,338.4c.21-.03.35-.11.42-.26.04-.08.06-.2.06-.35,0-.31-.11-.54-.33-.67-.22-.14-.53-.21-.94-.21-.47,0-.81.13-1,.38-.11.14-.18.35-.22.63h-.85c.02-.67.23-1.13.65-1.39.41-.26.89-.39,1.44-.39.63,0,1.15.12,1.54.36.39.24.59.62.59,1.13v3.11c0,.09.02.17.06.23.04.06.12.09.25.09.04,0,.08,0,.14,0,.05,0,.1-.01.16-.02v.67c-.14.04-.25.07-.32.08-.07,0-.17.02-.3.02-.31,0-.54-.11-.68-.33-.07-.12-.13-.28-.16-.5-.18.24-.45.45-.8.63-.35.18-.73.27-1.14.27-.5,0-.91-.15-1.23-.46-.32-.3-.48-.68-.48-1.14,0-.5.16-.89.47-1.16.31-.28.72-.44,1.23-.51l1.45-.18Zm-1.91,2.45c.19.15.42.23.68.23.32,0,.63-.07.93-.22.5-.25.76-.65.76-1.2v-.73c-.11.07-.25.13-.43.18-.17.05-.34.08-.51.1l-.55.07c-.33.04-.58.11-.74.21-.28.16-.42.41-.42.75,0,.26.1.47.29.62Z" style="fill:gray;"/><path d="m160.59,336.27h.86v.77c.25-.32.53-.54.81-.68s.6-.21.95-.21c.77,0,1.28.27,1.55.8.15.29.22.71.22,1.25v3.46h-.92v-3.4c0-.33-.05-.59-.15-.8-.16-.33-.45-.5-.88-.5-.21,0-.39.02-.53.07-.25.07-.47.22-.65.44-.15.18-.25.36-.29.55-.05.19-.07.46-.07.81v2.83h-.91v-5.39Z" style="fill:gray;"/><path d="m166.89,339.97c.03.3.1.53.23.7.23.29.64.44,1.21.44.34,0,.64-.07.9-.22.26-.15.39-.37.39-.68,0-.23-.1-.41-.31-.53-.13-.07-.4-.16-.79-.26l-.73-.18c-.47-.11-.81-.24-1.03-.38-.4-.25-.59-.58-.59-1.02,0-.51.19-.92.56-1.24.37-.32.87-.47,1.5-.47.82,0,1.42.24,1.78.72.23.3.34.63.33.98h-.86c-.02-.2-.09-.39-.22-.56-.21-.24-.58-.36-1.11-.36-.35,0-.62.07-.8.2-.18.13-.27.3-.27.52,0,.23.12.42.36.56.14.08.34.16.61.22l.61.15c.66.16,1.11.31,1.33.46.35.23.53.6.53,1.09s-.18.89-.55,1.24-.93.52-1.69.52c-.81,0-1.39-.18-1.73-.55-.34-.36-.52-.82-.54-1.35h.87Z" style="fill:gray;"/><path d="m174.92,336.42c.36.18.63.41.82.7.18.27.3.59.36.95.05.25.08.64.08,1.19h-3.92c.02.55.14.99.38,1.32.24.33.61.5,1.11.5.47,0,.84-.16,1.12-.47.16-.18.27-.39.33-.63h.89c-.02.2-.1.42-.23.66-.13.24-.28.44-.44.6-.27.27-.61.45-1.01.54-.22.05-.46.08-.74.08-.67,0-1.23-.24-1.7-.73-.46-.49-.7-1.17-.7-2.05s.23-1.57.7-2.11c.47-.54,1.08-.81,1.83-.81.38,0,.75.09,1.11.27Zm.32,2.12c-.04-.39-.12-.71-.25-.94-.25-.44-.66-.65-1.23-.65-.41,0-.76.15-1.04.45-.28.3-.43.68-.45,1.15h2.97Z" style="fill:gray;"/><path d="m177.33,336.27h.86v.77c.25-.32.53-.54.81-.68s.6-.21.95-.21c.77,0,1.28.27,1.55.8.15.29.22.71.22,1.25v3.46h-.92v-3.4c0-.33-.05-.59-.15-.8-.16-.33-.45-.5-.88-.5-.21,0-.39.02-.53.07-.25.07-.47.22-.65.44-.15.18-.25.36-.29.55-.05.19-.07.46-.07.81v2.83h-.91v-5.39Z" style="fill:gray;"/><path d="m186.71,339.27c.02.42.12.76.29,1.02.32.49.88.74,1.69.74.36,0,.69-.05.99-.16.58-.21.86-.58.86-1.12,0-.4-.12-.69-.37-.86-.25-.17-.63-.31-1.16-.44l-.97-.23c-.63-.15-1.08-.31-1.35-.49-.46-.31-.68-.77-.68-1.38,0-.67.22-1.21.67-1.64.45-.43,1.08-.64,1.9-.64.75,0,1.4.19,1.92.56.53.38.79.97.79,1.8h-.94c-.05-.4-.15-.7-.31-.91-.29-.39-.79-.58-1.49-.58-.57,0-.97.12-1.22.37-.25.25-.37.54-.37.87,0,.36.15.63.44.8.19.11.63.24,1.3.4l1.01.24c.48.11.86.27,1.12.47.46.35.68.85.68,1.51,0,.82-.29,1.41-.87,1.76s-1.26.53-2.03.53c-.9,0-1.6-.24-2.11-.71-.51-.47-.76-1.1-.75-1.9h.94Z" style="fill:gray;"/><path d="m192.98,334.76h.92v1.51h.86v.74h-.86v3.52c0,.19.06.31.19.38.07.04.19.06.35.06.04,0,.09,0,.14,0,.05,0,.11,0,.18-.02v.72c-.1.03-.21.05-.32.07-.11.01-.23.02-.37.02-.42,0-.71-.11-.86-.33-.15-.22-.23-.5-.23-.84v-3.57h-.73v-.74h.73v-1.51Z" style="fill:gray;"/><path d="m195.9,340.56h1.05v1.1h-1.05v-1.1Z" style="fill:gray;"/><path d="m93.77,227.08h1.44v10.54h-1.44v-10.54Z" style="fill:gray;"/><path d="m97.82,229.94l1.48,6.05,1.5-6.05h1.45l1.51,6.02,1.57-6.02h1.29l-2.23,7.68h-1.34l-1.56-5.95-1.51,5.95h-1.34l-2.22-7.68h1.41Z" style="fill:gray;"/><path d="m111.64,232.97c.3-.04.5-.16.6-.37.06-.12.09-.28.09-.5,0-.44-.16-.76-.47-.96-.31-.2-.76-.3-1.34-.3-.67,0-1.15.18-1.43.55-.16.2-.26.5-.31.9h-1.21c.02-.95.33-1.61.92-1.98.59-.37,1.27-.56,2.05-.56.9,0,1.64.17,2.2.52.56.34.84.88.84,1.61v4.43c0,.13.03.24.08.32.05.08.17.12.35.12.06,0,.12,0,.19-.01.07,0,.15-.02.23-.03v.95c-.2.06-.35.09-.46.11-.1.02-.25.02-.43.02-.45,0-.77-.16-.97-.47-.11-.17-.18-.4-.22-.71-.26.35-.64.64-1.13.9-.49.25-1.04.38-1.63.38-.71,0-1.29-.22-1.75-.65s-.68-.97-.68-1.62c0-.71.22-1.26.67-1.65.44-.39,1.03-.63,1.75-.72l2.06-.26Zm-2.72,3.49c.27.21.6.32.97.32.45,0,.89-.11,1.32-.31.72-.35,1.08-.92,1.08-1.71v-1.04c-.16.1-.36.19-.61.25-.25.07-.49.12-.73.14l-.78.1c-.47.06-.82.16-1.06.29-.4.22-.6.58-.6,1.07,0,.37.14.67.41.88Z" style="fill:gray;"/><path d="m116.43,235.21c.04.43.15.76.33.99.33.42.91.62,1.73.62.49,0,.92-.1,1.29-.31.37-.21.56-.53.56-.96,0-.33-.15-.58-.44-.75-.19-.1-.56-.23-1.12-.37l-1.04-.26c-.67-.16-1.16-.34-1.47-.54-.56-.35-.85-.83-.85-1.45,0-.73.27-1.32.8-1.77.53-.45,1.24-.67,2.14-.67,1.17,0,2.02.34,2.54,1.02.32.43.48.89.47,1.39h-1.22c-.02-.29-.13-.55-.32-.79-.3-.34-.83-.51-1.58-.51-.5,0-.88.09-1.13.28-.26.19-.39.43-.39.74,0,.33.17.6.51.8.19.12.48.22.86.31l.87.21c.95.22,1.58.44,1.9.65.5.33.75.85.75,1.56s-.26,1.28-.79,1.77c-.53.5-1.33.75-2.4.75-1.16,0-1.98-.26-2.46-.78-.48-.52-.74-1.16-.77-1.93h1.24Z" style="fill:gray;"/><path d="m127.13,232.97c.3-.04.5-.16.6-.37.06-.12.09-.28.09-.5,0-.44-.16-.76-.47-.96-.31-.2-.76-.3-1.34-.3-.67,0-1.15.18-1.43.55-.16.2-.26.5-.31.9h-1.21c.02-.95.33-1.61.92-1.98.59-.37,1.27-.56,2.05-.56.9,0,1.64.17,2.2.52.56.34.84.88.84,1.61v4.43c0,.13.03.24.08.32.05.08.17.12.35.12.06,0,.12,0,.19-.01.07,0,.15-.02.23-.03v.95c-.2.06-.35.09-.46.11-.1.02-.25.02-.43.02-.45,0-.77-.16-.97-.47-.11-.17-.18-.4-.22-.71-.26.35-.64.64-1.13.9-.49.25-1.04.38-1.63.38-.71,0-1.29-.22-1.75-.65s-.68-.97-.68-1.62c0-.71.22-1.26.67-1.65.44-.39,1.03-.63,1.75-.72l2.06-.26Zm-2.72,3.49c.27.21.6.32.97.32.45,0,.89-.11,1.32-.31.72-.35,1.08-.92,1.08-1.71v-1.04c-.16.1-.36.19-.61.25-.25.07-.49.12-.73.14l-.78.1c-.47.06-.82.16-1.06.29-.4.22-.6.58-.6,1.07,0,.37.14.67.41.88Z" style="fill:gray;"/><path d="m131.09,227.08h1.24v6.12l3.31-3.26h1.65l-2.95,2.86,3.12,4.83h-1.65l-2.42-3.91-1.06,1.03v2.88h-1.24v-10.54Z" style="fill:gray;"/><path d="m138.47,227.08h1.31v1.46h-1.31v-1.46Zm0,2.89h1.31v7.65h-1.31v-7.65Z" style="fill:gray;"/><path d="m145.99,227.08h1.43v9.28h5.29v1.26h-6.72v-10.54Z" style="fill:gray;"/><path d="m153.9,227.08h1.31v1.46h-1.31v-1.46Zm0,2.89h1.31v7.65h-1.31v-7.65Z" style="fill:gray;"/><path d="m161.5,230.25c.24.17.47.43.69.76v-1.07h1.22v10.75h-1.29v-3.95c-.21.34-.51.62-.89.82-.38.2-.85.3-1.42.3-.82,0-1.55-.32-2.19-.96-.64-.64-.97-1.62-.97-2.93,0-1.23.3-2.24.91-3.03.6-.79,1.39-1.19,2.35-1.19.63,0,1.17.16,1.6.48Zm-3.23,5.31c.33.8.92,1.2,1.77,1.2.9,0,1.52-.42,1.86-1.26.19-.46.28-1.06.28-1.78,0-.67-.1-1.22-.31-1.66-.35-.76-.96-1.14-1.84-1.14-.56,0-1.04.24-1.44.73-.4.49-.6,1.24-.6,2.25,0,.66.09,1.22.28,1.67Z" style="fill:gray;"/><path d="m166.55,229.94v5.1c0,.39.06.71.18.96.22.46.64.69,1.25.69.88,0,1.47-.4,1.79-1.21.17-.43.26-1.02.26-1.77v-3.77h1.29v7.68h-1.22v-1.13c-.15.29-.35.54-.6.74-.48.4-1.07.6-1.76.6-1.08,0-1.81-.37-2.2-1.1-.21-.39-.32-.92-.32-1.57v-5.22h1.32Z" style="fill:gray;"/><path d="m178.92,230.71c.68.66,1.02,1.63,1.02,2.91s-.3,2.26-.9,3.07c-.6.81-1.53,1.21-2.79,1.21-1.05,0-1.88-.36-2.5-1.07-.62-.71-.93-1.67-.93-2.88,0-1.29.33-2.32.98-3.08.65-.77,1.52-1.15,2.62-1.15.98,0,1.81.33,2.49.99Zm-.8,5.11c.31-.65.47-1.37.47-2.16,0-.72-.11-1.3-.34-1.75-.36-.71-.98-1.06-1.86-1.06-.78,0-1.35.3-1.7.9-.35.6-.53,1.33-.53,2.18s.18,1.5.53,2.04c.36.54.92.82,1.69.82.85,0,1.43-.32,1.74-.97Z" style="fill:gray;"/><path d="m181.46,229.94h1.23v1.33c.1-.26.35-.57.74-.94.39-.37.84-.56,1.36-.56.02,0,.06,0,.12,0,.06,0,.16.01.29.03v1.36c-.08-.02-.15-.03-.21-.03-.06,0-.13,0-.21,0-.65,0-1.15.21-1.5.63-.35.42-.52.9-.52,1.45v4.42h-1.29v-7.68Z" style="fill:gray;"/><path d="m191.5,234.22c.03.6.17,1.08.41,1.46.46.7,1.26,1.05,2.41,1.05.52,0,.99-.08,1.41-.23.82-.3,1.23-.83,1.23-1.59,0-.57-.17-.98-.52-1.23-.35-.24-.9-.45-1.65-.62l-1.38-.32c-.9-.21-1.54-.44-1.92-.7-.65-.44-.97-1.1-.97-1.97,0-.95.32-1.72.96-2.33s1.54-.91,2.71-.91c1.08,0,1.99.27,2.74.8.75.53,1.13,1.39,1.13,2.56h-1.34c-.07-.56-.22-1-.44-1.3-.42-.55-1.13-.83-2.13-.83-.81,0-1.39.18-1.74.53-.35.36-.53.77-.53,1.23,0,.52.21.89.63,1.13.27.15.89.34,1.86.57l1.43.34c.69.16,1.22.38,1.6.67.65.49.97,1.21.97,2.14,0,1.17-.41,2-1.24,2.5-.83.5-1.79.75-2.89.75-1.28,0-2.28-.34-3-1.01-.72-.66-1.08-1.57-1.06-2.7h1.34Z" style="fill:gray;"/><path d="m200.31,227.79h1.31v2.15h1.23v1.05h-1.23v5.01c0,.27.09.45.27.54.1.05.27.08.5.08.06,0,.13,0,.2,0,.07,0,.16-.01.25-.03v1.03c-.15.04-.3.07-.46.09-.16.02-.33.03-.52.03-.6,0-1.01-.15-1.23-.46-.22-.31-.32-.71-.32-1.2v-5.09h-1.04v-1.05h1.04v-2.15Z" style="fill:gray;"/><path d="m209.53,230.71c.68.66,1.02,1.63,1.02,2.91s-.3,2.26-.9,3.07c-.6.81-1.53,1.21-2.79,1.21-1.05,0-1.88-.36-2.5-1.07-.62-.71-.93-1.67-.93-2.88,0-1.29.33-2.32.98-3.08.65-.77,1.52-1.15,2.62-1.15.98,0,1.81.33,2.49.99Zm-.8,5.11c.31-.65.47-1.37.47-2.16,0-.72-.11-1.3-.34-1.75-.36-.71-.98-1.06-1.86-1.06-.78,0-1.35.3-1.7.9-.35.6-.53,1.33-.53,2.18s.18,1.5.53,2.04c.36.54.92.82,1.69.82.85,0,1.43-.32,1.74-.97Z" style="fill:gray;"/><path d="m212.07,229.94h1.23v1.33c.1-.26.35-.57.74-.94.39-.37.84-.56,1.36-.56.02,0,.06,0,.12,0,.06,0,.16.01.29.03v1.36c-.08-.02-.15-.03-.21-.03-.06,0-.13,0-.21,0-.65,0-1.15.21-1.5.63-.35.42-.52.9-.52,1.45v4.42h-1.29v-7.68Z" style="fill:gray;"/><path d="m221.54,230.15c.51.26.9.59,1.16.99.26.39.43.84.51,1.36.08.35.11.92.11,1.69h-5.59c.02.78.21,1.41.55,1.88s.87.71,1.59.71c.67,0,1.2-.22,1.6-.67.22-.26.38-.56.47-.9h1.27c-.03.28-.14.6-.33.95-.19.35-.4.63-.63.85-.39.38-.87.64-1.45.78-.31.08-.66.11-1.05.11-.95,0-1.76-.35-2.42-1.04-.66-.7-.99-1.67-.99-2.92s.33-2.24,1-3.01c.67-.77,1.54-1.16,2.61-1.16.54,0,1.07.13,1.58.38Zm.46,3.02c-.05-.56-.17-1.01-.36-1.34-.35-.62-.94-.93-1.76-.93-.59,0-1.08.21-1.48.64s-.61.97-.63,1.63h4.23Z" style="fill:gray;"/><path d="m190.1,130.14h1.44v4.35h5.42v-4.35h1.44v10.54h-1.44v-4.93h-5.42v4.93h-1.44v-10.54Z" style="fill:gray;"/><path d="m204.5,136.03c.3-.04.5-.16.6-.37.06-.12.09-.28.09-.5,0-.44-.16-.76-.47-.96-.31-.2-.76-.3-1.34-.3-.67,0-1.15.18-1.43.55-.16.2-.26.5-.31.9h-1.21c.02-.95.33-1.61.92-1.98.59-.37,1.27-.56,2.05-.56.9,0,1.64.17,2.2.52.56.34.84.88.84,1.61v4.43c0,.13.03.24.08.32s.17.12.35.12c.06,0,.12,0,.19-.01.07,0,.15-.02.23-.03v.95c-.2.06-.35.09-.46.11-.1.01-.25.02-.43.02-.45,0-.77-.16-.97-.47-.11-.17-.18-.4-.22-.71-.26.34-.64.64-1.13.9-.49.25-1.04.38-1.63.38-.71,0-1.29-.22-1.75-.65-.45-.43-.68-.97-.68-1.62,0-.71.22-1.26.67-1.65.44-.39,1.03-.63,1.75-.72l2.06-.26Zm-2.72,3.49c.27.21.6.32.97.32.45,0,.89-.1,1.32-.31.72-.35,1.08-.92,1.08-1.71v-1.04c-.16.1-.36.18-.61.25s-.49.12-.73.14l-.78.1c-.47.06-.82.16-1.06.29-.4.22-.6.58-.6,1.07,0,.37.14.67.41.88Z" style="fill:gray;"/><path d="m208.47,132.99h1.23v1.09c.36-.45.75-.77,1.16-.97.41-.2.86-.29,1.36-.29,1.09,0,1.83.38,2.21,1.14.21.42.32,1.01.32,1.79v4.93h-1.31v-4.84c0-.47-.07-.85-.21-1.13-.23-.48-.65-.72-1.25-.72-.31,0-.56.03-.75.09-.35.11-.67.32-.93.63-.21.25-.36.51-.42.79s-.1.66-.1,1.16v4.03h-1.29v-7.68Z" style="fill:gray;"/><path d="m220.62,136.03c.3-.04.5-.16.6-.37.06-.12.09-.28.09-.5,0-.44-.16-.76-.47-.96-.31-.2-.76-.3-1.34-.3-.67,0-1.15.18-1.43.55-.16.2-.26.5-.31.9h-1.21c.02-.95.33-1.61.92-1.98.59-.37,1.27-.56,2.05-.56.9,0,1.64.17,2.2.52.56.34.84.88.84,1.61v4.43c0,.13.03.24.08.32s.17.12.35.12c.06,0,.12,0,.19-.01.07,0,.15-.02.23-.03v.95c-.2.06-.35.09-.46.11-.1.01-.25.02-.43.02-.45,0-.77-.16-.97-.47-.11-.17-.18-.4-.22-.71-.26.34-.64.64-1.13.9-.49.25-1.04.38-1.63.38-.71,0-1.29-.22-1.75-.65-.45-.43-.68-.97-.68-1.62,0-.71.22-1.26.67-1.65.44-.39,1.03-.63,1.75-.72l2.06-.26Zm-2.72,3.49c.27.21.6.32.97.32.45,0,.89-.1,1.32-.31.72-.35,1.08-.92,1.08-1.71v-1.04c-.16.1-.36.18-.61.25s-.49.12-.73.14l-.78.1c-.47.06-.82.16-1.06.29-.4.22-.6.58-.6,1.07,0,.37.14.67.41.88Z" style="fill:gray;"/><path d="m229.1,132.99h1.43c-.18.49-.59,1.62-1.21,3.37-.47,1.32-.86,2.4-1.18,3.23-.75,1.96-1.27,3.15-1.58,3.58-.31.43-.83.65-1.58.65-.18,0-.32,0-.42-.02s-.22-.04-.36-.08v-1.18c.22.06.39.1.49.12s.19.02.26.02c.24,0,.41-.04.53-.12s.21-.18.28-.29c.02-.04.11-.23.26-.59.15-.35.26-.62.32-.79l-2.84-7.91h1.46l2.06,6.26,2.07-6.26Z" style="fill:gray;"/><path d="m232.91,132.99v5.1c0,.39.06.71.18.96.22.46.64.69,1.25.69.88,0,1.47-.4,1.79-1.21.17-.43.26-1.02.26-1.77v-3.77h1.29v7.68h-1.22v-1.13c-.15.29-.35.54-.6.74-.48.4-1.07.6-1.76.6-1.08,0-1.81-.37-2.2-1.1-.21-.39-.32-.92-.32-1.57v-5.22h1.32Z" style="fill:gray;"/><path d="m339.04,54.14h4.72c.93,0,1.69.26,2.26.79.57.53.86,1.27.86,2.23,0,.82-.26,1.54-.77,2.15-.51.61-1.29.92-2.35.92h-3.29v4.46h-1.43v-10.54Zm5.54,1.45c-.31-.15-.74-.22-1.29-.22h-2.82v3.65h2.82c.64,0,1.15-.14,1.55-.41.4-.27.59-.75.59-1.44,0-.77-.29-1.3-.86-1.58Z" style="fill:gray;"/><path d="m353.73,57.76c.68.66,1.02,1.63,1.02,2.91s-.3,2.26-.9,3.07-1.53,1.21-2.79,1.21c-1.05,0-1.88-.36-2.5-1.07-.62-.71-.93-1.67-.93-2.88,0-1.29.33-2.32.98-3.08s1.52-1.15,2.62-1.15c.98,0,1.81.33,2.49.99Zm-.8,5.11c.31-.65.47-1.37.47-2.16,0-.72-.11-1.3-.34-1.75-.36-.71-.98-1.06-1.86-1.06-.78,0-1.35.3-1.7.9-.35.6-.53,1.33-.53,2.18s.18,1.5.53,2.04c.36.54.92.82,1.69.82.85,0,1.43-.32,1.74-.97Z" style="fill:gray;"/><path d="m356.28,54.14h1.29v10.54h-1.29v-10.54Z" style="fill:gray;"/><path d="m359.41,54.14h1.31v1.46h-1.31v-1.46Zm0,2.89h1.31v7.65h-1.31v-7.65Z" style="fill:gray;"/><path d="m367.74,57.41c.54.42.87,1.15.98,2.17h-1.25c-.08-.47-.25-.87-.52-1.18-.27-.31-.71-.47-1.31-.47-.82,0-1.41.4-1.76,1.2-.23.52-.34,1.16-.34,1.93s.16,1.42.49,1.94c.33.53.84.79,1.54.79.54,0,.96-.16,1.27-.49s.53-.77.65-1.34h1.25c-.14,1.02-.5,1.76-1.08,2.23-.57.47-1.31.71-2.2.71-1,0-1.81-.37-2.4-1.1-.6-.73-.9-1.65-.9-2.75,0-1.35.33-2.4.98-3.15s1.49-1.13,2.5-1.13c.87,0,1.57.21,2.11.63Z" style="fill:gray;"/><path d="m374.82,57.21c.51.26.9.59,1.16.99.26.39.43.84.51,1.36.08.35.11.92.11,1.69h-5.59c.02.78.21,1.41.55,1.88s.87.71,1.59.71c.67,0,1.2-.22,1.6-.67.22-.26.38-.56.47-.9h1.27c-.03.28-.14.6-.33.94-.19.35-.4.63-.63.85-.39.38-.87.64-1.45.78-.31.08-.66.11-1.05.11-.95,0-1.76-.35-2.42-1.04-.66-.7-.99-1.67-.99-2.92s.33-2.24,1-3.01c.67-.77,1.54-1.16,2.61-1.16.54,0,1.07.13,1.58.38Zm.46,3.02c-.05-.56-.17-1.01-.36-1.34-.35-.62-.94-.93-1.76-.93-.59,0-1.08.21-1.48.64-.4.43-.61.97-.63,1.63h4.23Z" style="fill:gray;"/><path d="m383.44,61.28c.03.6.17,1.08.41,1.46.46.7,1.26,1.05,2.41,1.05.52,0,.99-.08,1.41-.23.82-.3,1.23-.83,1.23-1.59,0-.57-.17-.98-.52-1.23-.35-.24-.9-.45-1.65-.62l-1.38-.32c-.9-.21-1.54-.44-1.92-.7-.65-.44-.97-1.1-.97-1.97,0-.95.32-1.72.96-2.33s1.54-.91,2.71-.91c1.08,0,1.99.27,2.74.8.75.53,1.13,1.39,1.13,2.56h-1.34c-.07-.56-.22-1-.44-1.3-.42-.55-1.13-.83-2.13-.83-.81,0-1.39.18-1.74.53-.35.35-.53.77-.53,1.23,0,.52.21.89.63,1.13.27.15.89.34,1.86.57l1.43.34c.69.16,1.22.38,1.6.67.65.49.97,1.21.97,2.14,0,1.17-.41,2-1.24,2.5-.83.5-1.79.75-2.89.75-1.28,0-2.28-.33-3-1-.72-.66-1.08-1.57-1.06-2.7h1.34Z" style="fill:gray;"/><path d="m392.24,54.85h1.31v2.15h1.23v1.05h-1.23v5.01c0,.27.09.45.27.54.1.05.27.08.5.08.06,0,.13,0,.2,0,.07,0,.16-.01.25-.02v1.03c-.15.04-.3.07-.46.09-.16.02-.33.03-.52.03-.6,0-1.01-.15-1.23-.46-.22-.31-.32-.71-.32-1.2v-5.09h-1.04v-1.05h1.04v-2.15Z" style="fill:gray;"/><path d="m400.16,60.03c.3-.04.5-.16.6-.37.06-.12.09-.28.09-.5,0-.44-.16-.76-.47-.96-.31-.2-.76-.3-1.34-.3-.67,0-1.15.18-1.43.55-.16.2-.26.5-.31.9h-1.21c.02-.95.33-1.61.92-1.98.59-.37,1.27-.56,2.05-.56.9,0,1.64.17,2.2.52.56.34.84.88.84,1.61v4.43c0,.13.03.24.08.32s.17.12.35.12c.06,0,.12,0,.19-.01.07,0,.15-.02.23-.03v.95c-.2.06-.35.09-.46.11-.1.01-.25.02-.43.02-.45,0-.77-.16-.97-.47-.11-.17-.18-.4-.22-.71-.26.34-.64.64-1.13.9-.49.25-1.04.38-1.63.38-.71,0-1.29-.22-1.75-.65-.45-.43-.68-.97-.68-1.62,0-.71.22-1.26.67-1.65.44-.39,1.03-.63,1.75-.72l2.06-.26Zm-2.72,3.49c.27.21.6.32.97.32.45,0,.89-.1,1.32-.31.72-.35,1.08-.92,1.08-1.71v-1.04c-.16.1-.36.18-.61.25s-.49.12-.73.14l-.78.1c-.47.06-.82.16-1.06.29-.4.22-.6.58-.6,1.07,0,.37.14.67.41.88Z" style="fill:gray;"/><path d="m404.26,54.85h1.31v2.15h1.23v1.05h-1.23v5.01c0,.27.09.45.27.54.1.05.27.08.5.08.06,0,.13,0,.2,0,.07,0,.16-.01.25-.02v1.03c-.15.04-.3.07-.46.09-.16.02-.33.03-.52.03-.6,0-1.01-.15-1.23-.46-.22-.31-.32-.71-.32-1.2v-5.09h-1.04v-1.05h1.04v-2.15Z" style="fill:gray;"/><path d="m408.04,54.14h1.31v1.46h-1.31v-1.46Zm0,2.89h1.31v7.65h-1.31v-7.65Z" style="fill:gray;"/><path d="m416.86,57.76c.68.66,1.02,1.63,1.02,2.91s-.3,2.26-.9,3.07-1.53,1.21-2.79,1.21c-1.05,0-1.88-.36-2.5-1.07-.62-.71-.93-1.67-.93-2.88,0-1.29.33-2.32.98-3.08s1.52-1.15,2.62-1.15c.98,0,1.81.33,2.49.99Zm-.8,5.11c.31-.65.47-1.37.47-2.16,0-.72-.11-1.3-.34-1.75-.36-.71-.98-1.06-1.86-1.06-.78,0-1.35.3-1.7.9-.35.6-.53,1.33-.53,2.18s.18,1.5.53,2.04c.36.54.92.82,1.69.82.85,0,1.43-.32,1.74-.97Z" style="fill:gray;"/><path d="m419.38,57h1.23v1.09c.36-.45.75-.77,1.16-.97.41-.2.86-.29,1.36-.29,1.09,0,1.83.38,2.21,1.14.21.42.32,1.01.32,1.79v4.93h-1.31v-4.84c0-.47-.07-.85-.21-1.13-.23-.48-.65-.72-1.25-.72-.31,0-.56.03-.75.09-.35.11-.67.32-.93.63-.21.25-.36.51-.42.79s-.1.66-.1,1.16v4.03h-1.29v-7.68Z" style="fill:gray;"/><path d="m107.1,87.7c1.03.55,1.66,1.51,1.9,2.89h-1.41c-.17-.77-.52-1.33-1.05-1.68s-1.2-.53-2-.53c-.96,0-1.76.37-2.41,1.1-.65.73-.98,1.82-.98,3.27,0,1.25.27,2.27.81,3.06.54.79,1.42,1.18,2.64,1.18.93,0,1.71-.28,2.32-.83.61-.55.92-1.45.94-2.68h-3.3v-1.18h4.63v5.64h-.92l-.34-1.36c-.48.53-.9.9-1.26,1.11-.62.35-1.4.53-2.35.53-1.23,0-2.28-.4-3.17-1.21-.96-1.01-1.45-2.41-1.45-4.18s.47-3.17,1.41-4.21c.9-1,2.06-1.49,3.48-1.49.98,0,1.82.19,2.53.57Z" style="fill:gray;"/><path d="m111.24,90.26h1.23v1.33c.1-.26.35-.57.74-.94.39-.37.84-.56,1.36-.56.02,0,.06,0,.12,0s.16.01.29.03v1.36c-.08-.01-.15-.02-.21-.03-.06,0-.13,0-.21,0-.65,0-1.15.21-1.5.63-.35.42-.52.9-.52,1.45v4.42h-1.29v-7.68Z" style="fill:gray;"/><path d="m120.09,93.29c.3-.04.5-.16.6-.37.06-.12.09-.28.09-.5,0-.44-.16-.76-.47-.96-.31-.2-.76-.3-1.34-.3-.67,0-1.15.18-1.43.55-.16.2-.26.5-.31.9h-1.21c.02-.95.33-1.61.92-1.98.59-.37,1.27-.56,2.05-.56.9,0,1.64.17,2.2.52.56.34.84.88.84,1.61v4.43c0,.13.03.24.08.32s.17.12.35.12c.06,0,.12,0,.19-.01.07,0,.15-.02.23-.03v.95c-.2.06-.35.09-.46.11-.1.01-.25.02-.43.02-.45,0-.77-.16-.97-.47-.11-.17-.18-.4-.22-.71-.26.34-.64.64-1.13.9-.49.25-1.04.38-1.63.38-.71,0-1.29-.22-1.75-.65-.45-.43-.68-.97-.68-1.62,0-.71.22-1.26.67-1.65.44-.39,1.03-.63,1.75-.72l2.06-.26Zm-2.72,3.49c.27.21.6.32.97.32.45,0,.89-.1,1.32-.31.72-.35,1.08-.92,1.08-1.71v-1.04c-.16.1-.36.18-.61.25s-.49.12-.73.14l-.78.1c-.47.06-.82.16-1.06.29-.4.22-.6.58-.6,1.07,0,.37.14.67.41.88Z" style="fill:gray;"/><path d="m124.88,95.53c.04.43.15.76.33.99.33.42.91.62,1.73.62.49,0,.92-.1,1.29-.31s.56-.53.56-.96c0-.33-.15-.58-.44-.75-.19-.1-.56-.23-1.12-.37l-1.04-.26c-.67-.16-1.16-.34-1.47-.54-.56-.35-.85-.83-.85-1.45,0-.73.27-1.32.8-1.76.53-.45,1.24-.67,2.14-.67,1.17,0,2.02.34,2.54,1.02.32.43.48.89.47,1.39h-1.22c-.02-.29-.13-.55-.32-.79-.3-.34-.83-.51-1.58-.51-.5,0-.88.09-1.13.28-.26.19-.39.43-.39.74,0,.33.17.6.51.8.19.12.48.22.86.32l.87.21c.95.22,1.58.44,1.9.65.5.33.75.85.75,1.56s-.26,1.27-.79,1.77-1.33.75-2.4.75c-1.16,0-1.98-.26-2.46-.78s-.74-1.16-.77-1.93h1.24Z" style="fill:gray;"/><path d="m131.93,90.26l1.48,6.05,1.5-6.05h1.45l1.51,6.02,1.57-6.02h1.29l-2.23,7.68h-1.34l-1.56-5.95-1.51,5.95h-1.34l-2.22-7.68h1.41Z" style="fill:gray;"/><path d="m147.28,91.02c.68.66,1.02,1.63,1.02,2.91s-.3,2.26-.9,3.07-1.53,1.21-2.79,1.21c-1.05,0-1.88-.36-2.5-1.07-.62-.71-.93-1.67-.93-2.88,0-1.29.33-2.32.98-3.08s1.52-1.15,2.62-1.15c.98,0,1.81.33,2.49.99Zm-.8,5.11c.31-.65.47-1.37.47-2.16,0-.72-.11-1.3-.34-1.75-.36-.71-.98-1.06-1.86-1.06-.78,0-1.35.3-1.7.9-.35.6-.53,1.33-.53,2.18s.18,1.5.53,2.04c.36.54.92.82,1.69.82.85,0,1.43-.32,1.74-.97Z" style="fill:gray;"/><path d="m149.82,90.26h1.23v1.33c.1-.26.35-.57.74-.94.39-.37.84-.56,1.36-.56.02,0,.06,0,.12,0s.16.01.29.03v1.36c-.08-.01-.15-.02-.21-.03-.06,0-.13,0-.21,0-.65,0-1.15.21-1.5.63-.35.42-.52.9-.52,1.45v4.42h-1.29v-7.68Z" style="fill:gray;"/><path d="m158.84,90.49c.23.14.49.39.78.75v-3.88h1.24v10.58h-1.16v-1.07c-.3.47-.66.82-1.06,1.03-.41.21-.88.32-1.41.32-.85,0-1.59-.36-2.22-1.08-.62-.72-.94-1.68-.94-2.87,0-1.12.29-2.09.85-2.91s1.38-1.23,2.44-1.23c.59,0,1.08.12,1.47.37Zm-2.88,5.76c.35.55.9.83,1.67.83.59,0,1.08-.26,1.47-.77.38-.51.58-1.25.58-2.21s-.2-1.69-.59-2.16c-.39-.47-.88-.7-1.46-.7-.65,0-1.17.25-1.57.75-.4.5-.6,1.23-.6,2.2,0,.82.17,1.51.52,2.07Z" style="fill:gray;"/><path d="m167.04,87.4h1.39v5.16l5.27-5.16h2l-4.5,4.25,4.6,6.29h-1.87l-3.78-5.3-1.72,1.62v3.67h-1.39v-10.54Z" style="fill:gray;"/><path d="m177.72,90.26v5.1c0,.39.06.71.18.96.22.46.64.69,1.25.69.88,0,1.47-.4,1.79-1.21.17-.43.26-1.02.26-1.77v-3.77h1.29v7.68h-1.22v-1.13c-.15.29-.35.54-.6.74-.48.4-1.07.6-1.76.6-1.08,0-1.81-.37-2.2-1.1-.21-.39-.32-.92-.32-1.57v-5.22h1.32Z" style="fill:gray;"/><path d="m185.21,95.53c.04.43.15.76.33.99.33.42.91.62,1.73.62.49,0,.92-.1,1.29-.31s.56-.53.56-.96c0-.33-.15-.58-.44-.75-.19-.1-.56-.23-1.12-.37l-1.04-.26c-.67-.16-1.16-.34-1.47-.54-.56-.35-.85-.83-.85-1.45,0-.73.27-1.32.8-1.76.53-.45,1.24-.67,2.14-.67,1.17,0,2.02.34,2.54,1.02.32.43.48.89.47,1.39h-1.22c-.02-.29-.13-.55-.32-.79-.3-.34-.83-.51-1.58-.51-.5,0-.88.09-1.13.28-.26.19-.39.43-.39.74,0,.33.17.6.51.8.19.12.48.22.86.32l.87.21c.95.22,1.58.44,1.9.65.5.33.75.85.75,1.56s-.26,1.27-.79,1.77-1.33.75-2.4.75c-1.16,0-1.98-.26-2.46-.78s-.74-1.16-.77-1.93h1.24Z" style="fill:gray;"/><path d="m195.91,93.29c.3-.04.5-.16.6-.37.06-.12.09-.28.09-.5,0-.44-.16-.76-.47-.96-.31-.2-.76-.3-1.34-.3-.67,0-1.15.18-1.43.55-.16.2-.26.5-.31.9h-1.21c.02-.95.33-1.61.92-1.98.59-.37,1.27-.56,2.05-.56.9,0,1.64.17,2.2.52.56.34.84.88.84,1.61v4.43c0,.13.03.24.08.32s.17.12.35.12c.06,0,.12,0,.19-.01.07,0,.15-.02.23-.03v.95c-.2.06-.35.09-.46.11-.1.01-.25.02-.43.02-.45,0-.77-.16-.97-.47-.11-.17-.18-.4-.22-.71-.26.34-.64.64-1.13.9-.49.25-1.04.38-1.63.38-.71,0-1.29-.22-1.75-.65-.45-.43-.68-.97-.68-1.62,0-.71.22-1.26.67-1.65.44-.39,1.03-.63,1.75-.72l2.06-.26Zm-2.72,3.49c.27.21.6.32.97.32.45,0,.89-.1,1.32-.31.72-.35,1.08-.92,1.08-1.71v-1.04c-.16.1-.36.18-.61.25s-.49.12-.73.14l-.78.1c-.47.06-.82.16-1.06.29-.4.22-.6.58-.6,1.07,0,.37.14.67.41.88Z" style="fill:gray;"/><path d="m199.88,90.26h1.23v1.09c.36-.45.75-.77,1.16-.97.41-.2.86-.29,1.36-.29,1.09,0,1.83.38,2.21,1.14.21.42.32,1.01.32,1.79v4.93h-1.31v-4.84c0-.47-.07-.85-.21-1.13-.23-.48-.65-.72-1.25-.72-.31,0-.56.03-.75.09-.35.11-.67.32-.93.63-.21.25-.36.51-.42.79s-.1.66-.1,1.16v4.03h-1.29v-7.68Z" style="fill:gray;"/><path d="m212.02,93.29c.3-.04.5-.16.6-.37.06-.12.09-.28.09-.5,0-.44-.16-.76-.47-.96-.31-.2-.76-.3-1.34-.3-.67,0-1.15.18-1.43.55-.16.2-.26.5-.31.9h-1.21c.02-.95.33-1.61.92-1.98.59-.37,1.27-.56,2.05-.56.9,0,1.64.17,2.2.52.56.34.84.88.84,1.61v4.43c0,.13.03.24.08.32s.17.12.35.12c.06,0,.12,0,.19-.01.07,0,.15-.02.23-.03v.95c-.2.06-.35.09-.46.11-.1.01-.25.02-.43.02-.45,0-.77-.16-.97-.47-.11-.17-.18-.4-.22-.71-.26.34-.64.64-1.13.9-.49.25-1.04.38-1.63.38-.71,0-1.29-.22-1.75-.65-.45-.43-.68-.97-.68-1.62,0-.71.22-1.26.67-1.65.44-.39,1.03-.63,1.75-.72l2.06-.26Zm-2.72,3.49c.27.21.6.32.97.32.45,0,.89-.1,1.32-.31.72-.35,1.08-.92,1.08-1.71v-1.04c-.16.1-.36.18-.61.25s-.49.12-.73.14l-.78.1c-.47.06-.82.16-1.06.29-.4.22-.6.58-.6,1.07,0,.37.14.67.41.88Z" style="fill:gray;"/><path d="m220.23,90.57c.24.17.49.41.74.73v-.97h1.19v6.99c0,.98-.14,1.75-.43,2.31-.53,1.04-1.54,1.56-3.02,1.56-.82,0-1.52-.19-2.08-.56-.56-.37-.88-.95-.94-1.74h1.31c.06.34.19.61.37.8.29.29.75.43,1.37.43.98,0,1.63-.35,1.93-1.05.18-.41.26-1.15.25-2.2-.26.39-.57.68-.93.88-.36.19-.84.29-1.44.29-.83,0-1.55-.3-2.18-.89s-.93-1.57-.93-2.93c0-1.29.31-2.29.94-3.01.63-.72,1.38-1.08,2.27-1.08.6,0,1.12.15,1.57.45Zm.16,1.38c-.39-.46-.89-.69-1.49-.69-.9,0-1.52.43-1.86,1.28-.18.45-.26,1.05-.26,1.79,0,.87.17,1.52.53,1.98.35.45.82.68,1.41.68.92,0,1.57-.42,1.95-1.26.21-.47.31-1.03.31-1.66,0-.95-.2-1.66-.58-2.12Z" style="fill:gray;"/><path d="m224.01,87.4h1.31v1.46h-1.31v-1.46Zm0,2.89h1.31v7.65h-1.31v-7.65Z" style="fill:gray;"/><polygon points="496.38 301.93 487.63 306.98 487.63 303.9 477.41 303.9 477.41 299.96 487.63 299.96 487.63 296.88 496.38 301.93" style="fill:gray;"/><path d="m371.55,296.92h6.74v1.19h-5.42v2.95h4.77v1.16h-4.77v4.42h-1.32v-9.71Z" style="fill:gray;"/><path d="m384.44,300.26c.63.61.94,1.5.94,2.68s-.28,2.08-.83,2.83c-.55.74-1.41,1.12-2.57,1.12-.97,0-1.74-.33-2.3-.99s-.85-1.54-.85-2.65c0-1.19.3-2.14.9-2.84s1.41-1.06,2.42-1.06c.91,0,1.67.3,2.3.91Zm-.74,4.71c.29-.6.44-1.26.44-1.99,0-.66-.11-1.2-.31-1.61-.33-.65-.9-.98-1.71-.98-.72,0-1.24.28-1.57.83s-.49,1.22-.49,2.01.16,1.38.49,1.88.85.75,1.56.75c.78,0,1.32-.3,1.61-.9Z" style="fill:gray;"/><path d="m386.78,299.55h1.13v1.22c.09-.24.32-.53.68-.87s.78-.51,1.25-.51c.02,0,.06,0,.11,0,.05,0,.14.01.27.03v1.26c-.07-.01-.14-.02-.2-.03-.06,0-.12,0-.2,0-.6,0-1.06.19-1.38.58-.32.39-.48.83-.48,1.33v4.07h-1.19v-7.08Z" style="fill:gray;"/><path d="m396.04,303.5c.03.55.16,1,.38,1.34.42.64,1.16.97,2.22.97.48,0,.91-.07,1.3-.21.76-.27,1.13-.76,1.13-1.47,0-.53-.16-.91-.48-1.13-.32-.22-.83-.41-1.52-.58l-1.27-.3c-.83-.19-1.42-.41-1.77-.64-.6-.41-.9-1.01-.9-1.82,0-.87.29-1.59.88-2.15.59-.56,1.42-.84,2.5-.84.99,0,1.83.25,2.53.74.69.49,1.04,1.28,1.04,2.36h-1.24c-.06-.52-.2-.92-.41-1.2-.38-.51-1.04-.76-1.96-.76-.74,0-1.28.16-1.6.49-.33.33-.49.71-.49,1.14,0,.48.19.83.58,1.04.25.14.82.32,1.71.53l1.32.31c.64.15,1.13.36,1.47.62.6.45.9,1.11.9,1.98,0,1.08-.38,1.84-1.14,2.31-.76.46-1.65.69-2.66.69-1.18,0-2.1-.31-2.77-.93-.67-.61-.99-1.44-.98-2.49h1.24Z" style="fill:gray;"/><path d="m403.93,296.89h1.19v3.62c.28-.36.54-.61.76-.75.38-.25.86-.38,1.44-.38,1.03,0,1.72.36,2.09,1.08.2.39.3.94.3,1.63v4.54h-1.22v-4.46c0-.52-.07-.9-.2-1.14-.22-.39-.62-.58-1.22-.58-.49,0-.94.17-1.34.51s-.6.98-.6,1.92v3.76h-1.19v-9.75Z" style="fill:gray;"/><path d="m411.38,296.92h1.21v1.35h-1.21v-1.35Zm0,2.67h1.21v7.05h-1.21v-7.05Z" style="fill:gray;"/><path d="m414.29,299.55h1.13v1.01c.33-.42.69-.71,1.06-.89.38-.18.79-.27,1.25-.27,1.01,0,1.68.35,2.04,1.05.19.38.29.93.29,1.65v4.54h-1.21v-4.46c0-.43-.06-.78-.19-1.04-.21-.44-.59-.66-1.15-.66-.28,0-.51.03-.69.09-.33.1-.61.29-.86.58-.2.23-.33.47-.39.72-.06.25-.09.61-.09,1.07v3.71h-1.19v-7.08Z" style="fill:gray;"/><path d="m421.58,302.25h3.32v1.22h-3.32v-1.22Z" style="fill:gray;"/><path d="m427.44,303.5c.03.55.16,1,.38,1.34.42.64,1.16.97,2.22.97.48,0,.91-.07,1.3-.21.76-.27,1.13-.76,1.13-1.47,0-.53-.16-.91-.48-1.13-.32-.22-.83-.41-1.52-.58l-1.27-.3c-.83-.19-1.42-.41-1.77-.64-.6-.41-.9-1.01-.9-1.82,0-.87.29-1.59.88-2.15.59-.56,1.42-.84,2.5-.84.99,0,1.83.25,2.53.74.69.49,1.04,1.28,1.04,2.36h-1.24c-.06-.52-.2-.92-.41-1.2-.38-.51-1.04-.76-1.96-.76-.74,0-1.28.16-1.6.49-.33.33-.49.71-.49,1.14,0,.48.19.83.58,1.04.25.14.82.32,1.71.53l1.32.31c.64.15,1.13.36,1.47.62.6.45.9,1.11.9,1.98,0,1.08-.38,1.84-1.14,2.31-.76.46-1.65.69-2.66.69-1.18,0-2.1-.31-2.77-.93-.67-.61-.99-1.44-.98-2.49h1.24Z" style="fill:gray;"/><path d="m435.32,296.89h1.19v3.62c.28-.36.54-.61.76-.75.38-.25.86-.38,1.44-.38,1.03,0,1.72.36,2.09,1.08.2.39.3.94.3,1.63v4.54h-1.22v-4.46c0-.52-.07-.9-.2-1.14-.22-.39-.62-.58-1.22-.58-.49,0-.94.17-1.34.51s-.6.98-.6,1.92v3.76h-1.19v-9.75Z" style="fill:gray;"/><path d="m442.77,296.92h1.21v1.35h-1.21v-1.35Zm0,2.67h1.21v7.05h-1.21v-7.05Z" style="fill:gray;"/><path d="m445.69,299.55h1.18v1.01c.28-.35.54-.6.77-.76.39-.27.84-.4,1.34-.4.56,0,1.02.14,1.36.42.19.16.37.39.53.7.26-.38.58-.66.93-.84.36-.18.76-.27,1.2-.27.95,0,1.6.34,1.94,1.03.19.37.28.87.28,1.5v4.71h-1.24v-4.92c0-.47-.12-.8-.35-.97-.24-.18-.52-.26-.86-.26-.47,0-.87.16-1.21.47-.34.31-.51.84-.51,1.57v4.12h-1.21v-4.62c0-.48-.06-.83-.17-1.05-.18-.33-.52-.5-1.01-.5-.45,0-.86.17-1.23.52-.37.35-.55.98-.55,1.89v3.76h-1.19v-7.08Z" style="fill:gray;"/><path d="m456.9,296.92h1.21v1.35h-1.21v-1.35Zm0,2.67h1.21v7.05h-1.21v-7.05Z" style="fill:gray;"/><path d="m459.22,305.7l4.21-5.08h-3.89v-1.07h5.5v.97l-4.18,5.05h4.3v1.06h-5.93v-.94Z" style="fill:gray;"/><path d="m467.46,299.55v4.7c0,.36.06.66.17.89.21.42.59.63,1.15.63.81,0,1.36-.37,1.65-1.11.16-.4.24-.94.24-1.63v-3.48h1.19v7.08h-1.12v-1.04c-.14.27-.33.5-.55.68-.45.37-.99.55-1.62.55-.99,0-1.67-.34-2.02-1.01-.2-.36-.29-.84-.29-1.45v-4.81h1.22Z" style="fill:gray;"/><polygon points="0 301.93 8.75 296.88 8.75 299.96 18.97 299.96 18.97 303.9 8.75 303.9 8.75 306.98 0 301.93" style="fill:gray;"/><path d="m24.82,296.92h6.74v1.19h-5.42v2.95h4.77v1.16h-4.77v4.42h-1.32v-9.71Z" style="fill:gray;"/><path d="m37.71,300.26c.63.61.94,1.5.94,2.68s-.28,2.08-.83,2.83-1.41,1.12-2.57,1.12c-.97,0-1.74-.33-2.31-.99-.57-.66-.85-1.54-.85-2.65,0-1.19.3-2.14.9-2.84.6-.71,1.41-1.06,2.42-1.06.91,0,1.67.3,2.3.91Zm-.74,4.71c.29-.6.43-1.26.43-1.99,0-.66-.1-1.2-.31-1.61-.33-.65-.9-.98-1.71-.98-.72,0-1.24.28-1.57.83s-.49,1.22-.49,2.01.16,1.38.49,1.88.85.75,1.56.75c.78,0,1.32-.3,1.61-.9Z" style="fill:gray;"/><path d="m40.05,299.55h1.13v1.22c.09-.24.32-.53.68-.87.36-.34.78-.51,1.25-.51.02,0,.06,0,.11,0,.05,0,.14.01.27.03v1.26c-.07-.01-.14-.02-.2-.03-.06,0-.12,0-.19,0-.6,0-1.06.19-1.38.58-.32.39-.48.83-.48,1.33v4.07h-1.19v-7.08Z" style="fill:gray;"/><path d="m49.31,303.5c.03.55.16,1,.38,1.34.42.64,1.16.97,2.22.97.48,0,.91-.07,1.3-.21.76-.27,1.13-.76,1.13-1.47,0-.53-.16-.91-.48-1.13-.33-.22-.83-.41-1.52-.58l-1.28-.3c-.83-.19-1.42-.41-1.77-.64-.6-.41-.9-1.01-.9-1.82,0-.87.29-1.59.88-2.15.59-.56,1.42-.84,2.5-.84.99,0,1.83.25,2.53.74.69.49,1.04,1.28,1.04,2.36h-1.24c-.06-.52-.2-.92-.41-1.2-.38-.51-1.04-.76-1.96-.76-.74,0-1.28.16-1.6.49-.33.33-.49.71-.49,1.14,0,.48.19.83.58,1.04.25.14.82.32,1.71.53l1.32.31c.64.15,1.13.36,1.47.62.6.45.9,1.11.9,1.98,0,1.08-.38,1.84-1.15,2.31-.76.46-1.65.69-2.66.69-1.18,0-2.1-.31-2.77-.93-.67-.61-.99-1.44-.98-2.49h1.24Z" style="fill:gray;"/><path d="m57.19,296.89h1.19v3.62c.28-.36.54-.61.76-.75.38-.25.86-.38,1.43-.38,1.03,0,1.72.36,2.09,1.08.2.39.3.94.3,1.63v4.54h-1.22v-4.46c0-.52-.07-.9-.2-1.14-.22-.39-.62-.58-1.22-.58-.49,0-.94.17-1.34.51s-.6.98-.6,1.92v3.76h-1.19v-9.75Z" style="fill:gray;"/><path d="m64.65,296.92h1.21v1.35h-1.21v-1.35Zm0,2.67h1.21v7.05h-1.21v-7.05Z" style="fill:gray;"/><path d="m67.56,299.55h1.13v1.01c.33-.42.69-.71,1.06-.89.38-.18.79-.27,1.25-.27,1,0,1.68.35,2.04,1.05.19.38.29.93.29,1.65v4.54h-1.21v-4.46c0-.43-.06-.78-.19-1.04-.21-.44-.6-.66-1.15-.66-.28,0-.51.03-.7.09-.33.1-.61.29-.86.58-.2.23-.33.47-.39.72s-.09.61-.09,1.07v3.71h-1.19v-7.08Z" style="fill:gray;"/><path d="m74.85,302.25h3.32v1.22h-3.32v-1.22Z" style="fill:gray;"/><path d="m80.7,303.5c.03.55.16,1,.38,1.34.42.64,1.16.97,2.22.97.48,0,.91-.07,1.3-.21.76-.27,1.13-.76,1.13-1.47,0-.53-.16-.91-.48-1.13-.33-.22-.83-.41-1.52-.58l-1.28-.3c-.83-.19-1.42-.41-1.77-.64-.6-.41-.9-1.01-.9-1.82,0-.87.29-1.59.88-2.15.59-.56,1.42-.84,2.5-.84.99,0,1.83.25,2.53.74.69.49,1.04,1.28,1.04,2.36h-1.24c-.06-.52-.2-.92-.41-1.2-.38-.51-1.04-.76-1.96-.76-.74,0-1.28.16-1.6.49-.33.33-.49.71-.49,1.14,0,.48.19.83.58,1.04.25.14.82.32,1.71.53l1.32.31c.64.15,1.13.36,1.47.62.6.45.9,1.11.9,1.98,0,1.08-.38,1.84-1.15,2.31-.76.46-1.65.69-2.66.69-1.18,0-2.1-.31-2.77-.93-.67-.61-.99-1.44-.98-2.49h1.24Z" style="fill:gray;"/><path d="m88.59,296.89h1.19v3.62c.28-.36.54-.61.76-.75.38-.25.86-.38,1.43-.38,1.03,0,1.72.36,2.09,1.08.2.39.3.94.3,1.63v4.54h-1.22v-4.46c0-.52-.07-.9-.2-1.14-.22-.39-.62-.58-1.22-.58-.49,0-.94.17-1.34.51s-.6.98-.6,1.92v3.76h-1.19v-9.75Z" style="fill:gray;"/><path d="m96.04,296.92h1.21v1.35h-1.21v-1.35Zm0,2.67h1.21v7.05h-1.21v-7.05Z" style="fill:gray;"/><path d="m98.36,305.7l4.21-5.08h-3.9v-1.07h5.5v.97l-4.18,5.05h4.3v1.06h-5.93v-.94Z" style="fill:gray;"/><path d="m106.6,299.55v4.7c0,.36.06.66.17.89.21.42.59.63,1.15.63.81,0,1.36-.37,1.65-1.11.16-.4.24-.94.24-1.63v-3.48h1.19v7.08h-1.12v-1.04c-.14.27-.33.5-.55.68-.45.37-.99.55-1.62.55-.99,0-1.67-.34-2.02-1.01-.2-.36-.29-.84-.29-1.45v-4.81h1.22Z" style="fill:gray;"/><path d="m118.01,300.26c.63.61.94,1.5.94,2.68s-.28,2.08-.83,2.83-1.41,1.12-2.57,1.12c-.97,0-1.74-.33-2.31-.99-.57-.66-.85-1.54-.85-2.65,0-1.19.3-2.14.9-2.84.6-.71,1.41-1.06,2.42-1.06.91,0,1.67.3,2.3.91Zm-.74,4.71c.29-.6.43-1.26.43-1.99,0-.66-.1-1.2-.31-1.61-.33-.65-.9-.98-1.71-.98-.72,0-1.24.28-1.57.83s-.49,1.22-.49,2.01.16,1.38.49,1.88.85.75,1.56.75c.78,0,1.32-.3,1.61-.9Z" style="fill:gray;"/><path d="m120.32,296.92h1.14v5.64l3.05-3.01h1.52l-2.72,2.63,2.88,4.45h-1.52l-2.23-3.6-.98.95v2.66h-1.14v-9.71Z" style="fill:gray;"/><path d="m130.79,302.35c.27-.04.46-.15.55-.34.05-.11.08-.26.08-.46,0-.41-.14-.7-.43-.89s-.7-.28-1.24-.28c-.62,0-1.06.17-1.32.5-.15.19-.24.46-.28.83h-1.11c.02-.88.3-1.49.85-1.83.54-.34,1.17-.51,1.89-.51.83,0,1.51.16,2.03.48.52.32.77.81.77,1.48v4.08c0,.12.02.22.08.3s.16.11.32.11c.05,0,.11,0,.18,0,.07,0,.14-.02.21-.03v.88c-.18.05-.33.09-.42.1-.1.01-.23.02-.4.02-.41,0-.71-.15-.89-.44-.1-.15-.17-.37-.2-.65-.24.32-.59.59-1.04.83s-.96.35-1.5.35c-.66,0-1.19-.2-1.61-.6-.42-.4-.62-.9-.62-1.5,0-.66.2-1.17.61-1.53.41-.36.95-.58,1.61-.67l1.9-.24Zm-2.51,3.22c.25.2.55.3.89.3.42,0,.82-.1,1.22-.29.66-.32.99-.85.99-1.58v-.96c-.15.09-.33.17-.56.23-.23.06-.45.11-.67.13l-.72.09c-.43.06-.75.15-.97.27-.37.21-.55.54-.55.99,0,.34.12.61.38.81Z" style="fill:gray;"/><polygon points="496.38 6.92 487.63 11.97 487.63 8.89 477.41 8.89 477.41 4.95 487.63 4.95 487.63 1.87 496.38 6.92" style="fill:gray;"/><path d="m399.25,1.91h6.74v1.19h-5.42v2.95h4.77v1.16h-4.77v4.42h-1.32V1.91Z" style="fill:gray;"/><path d="m412.14,5.25c.63.61.94,1.5.94,2.68s-.28,2.08-.83,2.83c-.55.74-1.41,1.12-2.57,1.12-.97,0-1.74-.33-2.31-.99s-.85-1.54-.85-2.65c0-1.19.3-2.14.9-2.84s1.41-1.06,2.42-1.06c.91,0,1.67.3,2.3.91Zm-.74,4.71c.29-.6.43-1.26.43-1.99,0-.66-.1-1.2-.31-1.61-.33-.65-.9-.98-1.71-.98-.72,0-1.24.28-1.57.83s-.49,1.22-.49,2.01.16,1.38.49,1.88.85.75,1.56.75c.78,0,1.31-.3,1.61-.9Z" style="fill:gray;"/><path d="m414.48,4.55h1.13v1.22c.09-.24.32-.53.68-.87s.78-.51,1.25-.51c.02,0,.06,0,.11,0,.05,0,.14.01.27.03v1.26c-.07-.01-.14-.02-.2-.03-.06,0-.12,0-.19,0-.6,0-1.06.19-1.38.58s-.48.83-.48,1.33v4.07h-1.19v-7.08Z" style="fill:gray;"/><path d="m423.74,8.49c.03.55.16,1,.38,1.34.42.64,1.16.97,2.22.97.48,0,.91-.07,1.3-.21.76-.27,1.13-.76,1.13-1.47,0-.53-.16-.91-.48-1.13-.32-.22-.83-.41-1.52-.58l-1.28-.3c-.83-.19-1.42-.41-1.77-.64-.6-.41-.9-1.01-.9-1.82,0-.87.29-1.59.88-2.15.59-.56,1.42-.84,2.5-.84.99,0,1.83.25,2.53.74.69.49,1.04,1.28,1.04,2.36h-1.24c-.06-.52-.2-.92-.41-1.2-.38-.51-1.04-.76-1.96-.76-.74,0-1.28.16-1.6.49-.33.33-.49.71-.49,1.14,0,.48.19.83.58,1.04.25.14.82.32,1.71.53l1.32.31c.64.15,1.13.36,1.47.62.6.45.9,1.11.9,1.98,0,1.08-.38,1.84-1.14,2.31s-1.65.69-2.66.69c-1.18,0-2.1-.31-2.77-.93-.67-.61-.99-1.44-.98-2.49h1.24Z" style="fill:gray;"/><path d="m431.62,1.88h1.19v3.62c.28-.36.54-.61.76-.75.38-.25.86-.38,1.43-.38,1.03,0,1.72.36,2.09,1.08.2.39.3.94.3,1.63v4.54h-1.22v-4.46c0-.52-.07-.9-.2-1.14-.22-.39-.62-.58-1.22-.58-.49,0-.94.17-1.34.51s-.6.98-.6,1.92v3.76h-1.19V1.88Z" style="fill:gray;"/><path d="m439.08,1.91h1.21v1.35h-1.21v-1.35Zm0,2.67h1.21v7.05h-1.21v-7.05Z" style="fill:gray;"/><path d="m441.99,4.55h1.18v1.01c.28-.35.54-.6.77-.76.39-.27.84-.4,1.33-.4.56,0,1.02.14,1.36.42.19.16.37.39.53.7.26-.38.58-.66.93-.84.36-.18.76-.27,1.2-.27.95,0,1.6.34,1.94,1.03.19.37.28.87.28,1.5v4.71h-1.24v-4.92c0-.47-.12-.8-.35-.97-.24-.18-.52-.26-.86-.26-.47,0-.87.16-1.21.47-.34.31-.51.84-.51,1.57v4.12h-1.21v-4.62c0-.48-.06-.83-.17-1.05-.18-.33-.52-.5-1.01-.5-.45,0-.86.17-1.23.52s-.55.98-.55,1.89v3.76h-1.19v-7.08Z" style="fill:gray;"/><path d="m453.2,1.91h1.21v1.35h-1.21v-1.35Zm0,2.67h1.21v7.05h-1.21v-7.05Z" style="fill:gray;"/><path d="m455.52,10.69l4.21-5.08h-3.9v-1.07h5.5v.97l-4.18,5.05h4.3v1.06h-5.93v-.94Z" style="fill:gray;"/><path d="m463.76,4.55v4.7c0,.36.06.66.17.89.21.42.59.63,1.15.63.81,0,1.36-.37,1.65-1.11.16-.4.24-.94.24-1.63v-3.48h1.19v7.08h-1.12v-1.04c-.14.27-.33.5-.55.68-.45.37-.99.55-1.62.55-.99,0-1.67-.34-2.02-1.01-.2-.36-.29-.84-.29-1.45v-4.81h1.22Z" style="fill:gray;"/><polygon points="0 6.92 8.75 1.87 8.75 4.95 18.97 4.95 18.97 8.89 8.75 8.89 8.75 11.97 0 6.92" style="fill:gray;"/><path d="m27.52,1.91h6.74v1.19h-5.42v2.95h4.77v1.16h-4.77v4.42h-1.32V1.91Z" style="fill:gray;"/><path d="m40.4,5.25c.63.61.94,1.5.94,2.68s-.28,2.08-.83,2.83c-.55.74-1.41,1.12-2.57,1.12-.97,0-1.74-.33-2.3-.99s-.85-1.54-.85-2.65c0-1.19.3-2.14.9-2.84s1.41-1.06,2.42-1.06c.91,0,1.67.3,2.3.91Zm-.74,4.71c.29-.6.44-1.26.44-1.99,0-.66-.11-1.2-.31-1.61-.33-.65-.9-.98-1.71-.98-.72,0-1.24.28-1.57.83s-.49,1.22-.49,2.01.16,1.38.49,1.88.85.75,1.56.75c.78,0,1.32-.3,1.61-.9Z" style="fill:gray;"/><path d="m42.74,4.55h1.13v1.22c.09-.24.32-.53.68-.87s.78-.51,1.25-.51c.02,0,.06,0,.11,0,.05,0,.14.01.27.03v1.26c-.07-.01-.14-.02-.2-.03-.06,0-.12,0-.2,0-.6,0-1.06.19-1.38.58-.32.39-.48.83-.48,1.33v4.07h-1.19v-7.08Z" style="fill:gray;"/><path d="m52,8.49c.03.55.16,1,.38,1.34.42.64,1.16.97,2.22.97.48,0,.91-.07,1.3-.21.76-.27,1.13-.76,1.13-1.47,0-.53-.16-.91-.48-1.13-.32-.22-.83-.41-1.52-.58l-1.27-.3c-.83-.19-1.42-.41-1.77-.64-.6-.41-.9-1.01-.9-1.82,0-.87.29-1.59.88-2.15.59-.56,1.42-.84,2.5-.84.99,0,1.83.25,2.53.74.69.49,1.04,1.28,1.04,2.36h-1.24c-.06-.52-.2-.92-.41-1.2-.38-.51-1.04-.76-1.96-.76-.74,0-1.28.16-1.6.49-.33.33-.49.71-.49,1.14,0,.48.19.83.58,1.04.25.14.82.32,1.71.53l1.32.31c.64.15,1.13.36,1.47.62.6.45.9,1.11.9,1.98,0,1.08-.38,1.84-1.14,2.31-.76.46-1.65.69-2.66.69-1.18,0-2.1-.31-2.77-.93-.67-.61-.99-1.44-.98-2.49h1.24Z" style="fill:gray;"/><path d="m59.89,1.88h1.19v3.62c.28-.36.54-.61.76-.75.38-.25.86-.38,1.44-.38,1.03,0,1.72.36,2.09,1.08.2.39.3.94.3,1.63v4.54h-1.22v-4.46c0-.52-.07-.9-.2-1.14-.22-.39-.62-.58-1.22-.58-.49,0-.94.17-1.34.51s-.6.98-.6,1.92v3.76h-1.19V1.88Z" style="fill:gray;"/><path d="m67.34,1.91h1.21v1.35h-1.21v-1.35Zm0,2.67h1.21v7.05h-1.21v-7.05Z" style="fill:gray;"/><path d="m69.66,10.69l4.21-5.08h-3.9v-1.07h5.5v.97l-4.18,5.05h4.3v1.06h-5.93v-.94Z" style="fill:gray;"/><path d="m77.9,4.55v4.7c0,.36.06.66.17.89.21.42.59.63,1.15.63.81,0,1.36-.37,1.65-1.11.16-.4.24-.94.24-1.63v-3.48h1.19v7.08h-1.12v-1.04c-.14.27-.33.5-.55.68-.45.37-.99.55-1.62.55-.99,0-1.67-.34-2.02-1.01-.2-.36-.29-.84-.29-1.45v-4.81h1.22Z" style="fill:gray;"/><path d="m89.31,5.25c.63.61.94,1.5.94,2.68s-.28,2.08-.83,2.83c-.55.74-1.41,1.12-2.57,1.12-.97,0-1.74-.33-2.3-.99s-.85-1.54-.85-2.65c0-1.19.3-2.14.9-2.84s1.41-1.06,2.42-1.06c.91,0,1.67.3,2.3.91Zm-.74,4.71c.29-.6.44-1.26.44-1.99,0-.66-.11-1.2-.31-1.61-.33-.65-.9-.98-1.71-.98-.72,0-1.24.28-1.57.83s-.49,1.22-.49,2.01.16,1.38.49,1.88.85.75,1.56.75c.78,0,1.32-.3,1.61-.9Z" style="fill:gray;"/><path d="m91.62,1.91h1.14v5.64l3.05-3.01h1.52l-2.72,2.63,2.88,4.45h-1.52l-2.23-3.6-.98.95v2.66h-1.14V1.91Z" style="fill:gray;"/><path d="m102.09,7.34c.27-.04.46-.15.55-.34.05-.11.08-.26.08-.46,0-.41-.14-.7-.43-.89s-.7-.28-1.24-.28c-.62,0-1.06.17-1.32.5-.14.19-.24.46-.28.83h-1.11c.02-.88.31-1.49.85-1.83.54-.34,1.17-.51,1.89-.51.83,0,1.51.16,2.03.48.51.32.77.81.77,1.48v4.08c0,.12.03.22.08.3s.16.11.32.11c.05,0,.11,0,.18,0,.07,0,.14-.02.21-.03v.88c-.19.05-.33.09-.42.1-.1.01-.23.02-.4.02-.41,0-.71-.15-.89-.44-.1-.15-.17-.37-.21-.65-.24.32-.59.59-1.04.83s-.95.35-1.5.35c-.66,0-1.19-.2-1.61-.6s-.62-.9-.62-1.5c0-.66.21-1.17.62-1.53.41-.36.95-.58,1.61-.67l1.9-.24Zm-2.51,3.22c.25.2.55.3.89.3.42,0,.82-.1,1.22-.29.66-.32.99-.85.99-1.58v-.96c-.15.09-.33.17-.56.23-.23.06-.45.11-.67.13l-.72.09c-.43.06-.76.15-.97.27-.37.21-.55.54-.55.99,0,.34.13.61.38.81Z" style="fill:gray;"/><path d="m178.16,29.93c0,1.09-.15,1.93-.45,2.53-.56,1.1-1.62,1.65-3.18,1.65-.9,0-1.67-.26-2.31-.78-.64-.52-.96-1.45-.96-2.79v-.92h1.53v.92c0,.7.15,1.23.44,1.58.29.35.75.53,1.37.53.87,0,1.44-.32,1.71-.96.16-.39.25-1.13.25-2.22v-8.58h1.61v9.04Z" style="fill:gray;"/><path d="m180.69,20.89h5.46c.9,0,1.64.14,2.23.43,1.11.55,1.66,1.56,1.66,3.04,0,.77-.15,1.4-.45,1.89-.3.49-.71.88-1.25,1.18.47.2.82.47,1.06.81.24.33.37.87.4,1.62l.06,1.73c.02.49.05.86.11,1.1.1.41.27.67.52.79v.29h-2c-.05-.11-.1-.25-.13-.43-.03-.17-.06-.51-.08-1.02l-.1-2.15c-.04-.84-.32-1.41-.85-1.69-.3-.16-.78-.24-1.42-.24h-3.6v5.52h-1.63v-12.88Zm5.29,5.9c.74,0,1.33-.16,1.76-.49.43-.33.65-.92.65-1.77,0-.92-.3-1.54-.91-1.88-.32-.17-.76-.26-1.3-.26h-3.87v4.4h3.66Z" style="fill:gray;"/><path d="m197.25,20.89h1.59v6.3l6.01-6.3h2.28l-5.13,5.2,5.24,7.68h-2.13l-4.31-6.47-1.96,1.98v4.49h-1.59v-12.88Z" style="fill:gray;"/><path d="m209.41,24.38v6.23c0,.48.07.87.21,1.17.25.56.73.84,1.43.84,1,0,1.68-.49,2.04-1.47.2-.53.29-1.25.29-2.17v-4.61h1.47v9.39h-1.39l.02-1.38c-.19.36-.42.66-.7.9-.55.49-1.22.74-2.01.74-1.23,0-2.06-.45-2.5-1.34-.24-.48-.36-1.12-.36-1.92v-6.38h1.51Z" style="fill:gray;"/><path d="m217.94,30.82c.04.53.17.93.38,1.21.38.51,1.04.76,1.97.76.56,0,1.05-.13,1.47-.38s.63-.65.63-1.18c0-.4-.17-.71-.51-.92-.22-.13-.64-.28-1.28-.45l-1.19-.32c-.76-.2-1.32-.42-1.68-.67-.64-.43-.96-1.02-.96-1.77,0-.89.3-1.61.91-2.16.61-.55,1.42-.82,2.44-.82,1.34,0,2.3.42,2.89,1.25.37.53.55,1.09.54,1.7h-1.39c-.03-.35-.15-.68-.36-.97-.35-.41-.95-.62-1.8-.62-.57,0-1,.11-1.29.34-.29.23-.44.53-.44.9,0,.41.19.73.58.98.22.15.55.27.98.38l.99.25c1.08.28,1.8.54,2.17.8.57.4.86,1.04.86,1.9s-.3,1.56-.9,2.17c-.6.61-1.51.91-2.74.91-1.32,0-2.25-.32-2.8-.95-.55-.63-.84-1.42-.88-2.35h1.42Z" style="fill:gray;"/><path d="m230.12,28.08c.34-.05.56-.2.68-.45.07-.14.1-.34.1-.61,0-.54-.18-.93-.54-1.17-.36-.24-.87-.37-1.53-.37-.77,0-1.31.22-1.63.67-.18.25-.3.61-.35,1.1h-1.38c.03-1.16.38-1.97,1.05-2.42s1.45-.68,2.34-.68c1.03,0,1.87.21,2.51.63.64.42.96,1.08.96,1.96v5.41c0,.16.03.29.09.39.06.1.2.15.4.15.07,0,.14,0,.22-.01.08,0,.17-.02.26-.04v1.17c-.23.07-.4.11-.52.13-.12.02-.28.03-.49.03-.51,0-.88-.19-1.1-.58-.12-.2-.21-.49-.25-.87-.3.42-.73.79-1.29,1.1-.56.31-1.18.46-1.86.46-.81,0-1.48-.26-1.99-.79s-.77-1.19-.77-1.98c0-.87.25-1.54.76-2.02.51-.48,1.17-.77,2-.88l2.35-.32Zm-3.1,4.26c.31.26.68.39,1.1.39.52,0,1.02-.13,1.5-.39.82-.43,1.23-1.12,1.23-2.09v-1.27c-.18.12-.41.23-.69.31s-.56.14-.83.18l-.89.12c-.53.08-.93.2-1.2.36-.46.27-.68.71-.68,1.31,0,.46.16.81.47,1.08Z" style="fill:gray;"/><path d="m234.64,24.38h1.4v1.33c.41-.55.85-.94,1.32-1.18.46-.24.98-.36,1.55-.36,1.24,0,2.08.46,2.52,1.39.24.51.36,1.24.36,2.18v6.02h-1.5v-5.92c0-.57-.08-1.04-.24-1.39-.26-.58-.74-.88-1.42-.88-.35,0-.64.04-.86.11-.4.13-.76.39-1.06.77-.25.31-.41.63-.48.96s-.11.8-.11,1.42v4.92h-1.47v-9.39Z" style="fill:gray;"/><path d="m248.48,28.08c.34-.05.56-.2.68-.45.07-.14.1-.34.1-.61,0-.54-.18-.93-.54-1.17-.36-.24-.87-.37-1.53-.37-.77,0-1.31.22-1.63.67-.18.25-.3.61-.35,1.1h-1.38c.03-1.16.38-1.97,1.05-2.42s1.45-.68,2.34-.68c1.03,0,1.87.21,2.51.63.64.42.96,1.08.96,1.96v5.41c0,.16.03.29.09.39.06.1.2.15.4.15.07,0,.14,0,.22-.01.08,0,.17-.02.26-.04v1.17c-.23.07-.4.11-.52.13-.12.02-.28.03-.49.03-.51,0-.88-.19-1.1-.58-.12-.2-.21-.49-.25-.87-.3.42-.73.79-1.29,1.1-.56.31-1.18.46-1.86.46-.81,0-1.48-.26-1.99-.79s-.77-1.19-.77-1.98c0-.87.25-1.54.76-2.02.51-.48,1.17-.77,2-.88l2.35-.32Zm-3.1,4.26c.31.26.68.39,1.1.39.52,0,1.02-.13,1.5-.39.82-.43,1.23-1.12,1.23-2.09v-1.27c-.18.12-.41.23-.69.31s-.56.14-.83.18l-.89.12c-.53.08-.93.2-1.2.36-.46.27-.68.71-.68,1.31,0,.46.16.81.47,1.08Z" style="fill:gray;"/><path d="m257.82,24.75c.28.2.56.5.85.89v-1.18h1.36v8.54c0,1.19-.16,2.13-.49,2.82-.61,1.27-1.76,1.91-3.45,1.91-.94,0-1.73-.23-2.37-.68s-1-1.16-1.08-2.13h1.5c.07.42.21.75.42.97.33.35.85.53,1.56.53,1.12,0,1.86-.43,2.21-1.28.21-.5.3-1.4.28-2.69-.29.48-.65.84-1.06,1.07-.41.23-.96.35-1.64.35-.95,0-1.77-.36-2.48-1.08s-1.06-1.92-1.06-3.58c0-1.57.36-2.8,1.07-3.68.71-.88,1.58-1.32,2.59-1.32.68,0,1.28.18,1.79.54Zm.18,1.69c-.45-.56-1.01-.84-1.7-.84-1.03,0-1.74.52-2.12,1.56-.2.56-.3,1.28-.3,2.18,0,1.06.2,1.86.6,2.42.4.55.93.83,1.61.83,1.05,0,1.79-.51,2.22-1.53.24-.58.36-1.25.36-2.03,0-1.16-.22-2.02-.67-2.59Z" style="fill:gray;"/><path d="m262.12,20.89h1.5v1.79h-1.5v-1.79Zm0,3.53h1.5v9.34h-1.5v-9.34Z" style="fill:gray;"/><path d="m271.75,29.61c.04.73.19,1.32.46,1.78.52.85,1.44,1.28,2.75,1.28.59,0,1.12-.09,1.61-.28.94-.36,1.4-1.01,1.4-1.95,0-.7-.2-1.2-.59-1.5-.4-.29-1.03-.55-1.89-.76l-1.58-.39c-1.03-.26-1.76-.54-2.19-.85-.74-.54-1.11-1.34-1.11-2.41,0-1.16.36-2.11,1.09-2.85.73-.74,1.76-1.11,3.09-1.11,1.23,0,2.27.33,3.12.98.86.65,1.29,1.69,1.29,3.12h-1.53c-.08-.69-.25-1.22-.5-1.59-.48-.67-1.28-1.01-2.42-1.01-.92,0-1.58.22-1.98.65-.4.43-.6.94-.6,1.51,0,.63.24,1.09.71,1.38.31.19,1.02.42,2.12.7l1.63.41c.79.2,1.4.47,1.82.82.74.6,1.11,1.48,1.11,2.62,0,1.43-.47,2.45-1.42,3.06-.94.61-2.04.92-3.29.92-1.46,0-2.6-.41-3.42-1.23-.82-.81-1.23-1.91-1.21-3.3h1.53Z" style="fill:gray;"/><path d="m281.78,21.75h1.49v2.62h1.4v1.29h-1.4v6.13c0,.33.1.55.31.66.11.06.3.1.57.1.07,0,.15,0,.23,0,.08,0,.18-.01.29-.03v1.25c-.17.05-.34.09-.53.11-.18.02-.38.04-.59.04-.69,0-1.15-.19-1.4-.57-.25-.38-.37-.87-.37-1.47v-6.22h-1.19v-1.29h1.19v-2.62Z" style="fill:gray;"/><path d="m290.8,28.08c.34-.05.56-.2.68-.45.07-.14.1-.34.1-.61,0-.54-.18-.93-.54-1.17-.36-.24-.87-.37-1.53-.37-.77,0-1.31.22-1.63.67-.18.25-.3.61-.35,1.1h-1.38c.03-1.16.38-1.97,1.05-2.42s1.45-.68,2.34-.68c1.03,0,1.87.21,2.51.63.64.42.96,1.08.96,1.96v5.41c0,.16.03.29.09.39.06.1.2.15.4.15.07,0,.14,0,.22-.01.08,0,.17-.02.26-.04v1.17c-.23.07-.4.11-.52.13-.12.02-.28.03-.49.03-.51,0-.88-.19-1.1-.58-.12-.2-.21-.49-.25-.87-.3.42-.73.79-1.29,1.1-.56.31-1.18.46-1.86.46-.81,0-1.48-.26-1.99-.79s-.77-1.19-.77-1.98c0-.87.25-1.54.76-2.02.51-.48,1.17-.77,2-.88l2.35-.32Zm-3.1,4.26c.31.26.68.39,1.1.39.52,0,1.02-.13,1.5-.39.82-.43,1.23-1.12,1.23-2.09v-1.27c-.18.12-.41.23-.69.31s-.56.14-.83.18l-.89.12c-.53.08-.93.2-1.2.36-.46.27-.68.71-.68,1.31,0,.46.16.81.47,1.08Z" style="fill:gray;"/><path d="m295.46,21.75h1.49v2.62h1.4v1.29h-1.4v6.13c0,.33.1.55.31.66.11.06.3.1.57.1.07,0,.15,0,.23,0,.08,0,.18-.01.29-.03v1.25c-.17.05-.34.09-.53.11-.18.02-.38.04-.59.04-.69,0-1.15-.19-1.4-.57-.25-.38-.37-.87-.37-1.47v-6.22h-1.19v-1.29h1.19v-2.62Z" style="fill:gray;"/><path d="m299.76,20.89h1.5v1.79h-1.5v-1.79Zm0,3.53h1.5v9.34h-1.5v-9.34Z" style="fill:gray;"/><path d="m309.81,25.31c.77.81,1.16,1.99,1.16,3.56s-.34,2.76-1.02,3.75c-.68.99-1.74,1.48-3.18,1.48-1.2,0-2.15-.44-2.85-1.31s-1.06-2.04-1.06-3.52c0-1.58.37-2.83,1.11-3.77.74-.93,1.74-1.4,2.99-1.4,1.12,0,2.07.4,2.84,1.21Zm-.91,6.24c.36-.79.54-1.67.54-2.64,0-.88-.13-1.59-.39-2.14-.41-.86-1.12-1.3-2.12-1.3-.89,0-1.54.37-1.94,1.1-.4.74-.61,1.62-.61,2.66s.2,1.83.61,2.5c.41.67,1.05,1,1.93,1,.97,0,1.63-.4,1.99-1.19Z" style="fill:gray;"/><path d="m312.67,24.38h1.4v1.33c.41-.55.85-.94,1.32-1.18.46-.24.98-.36,1.55-.36,1.24,0,2.08.46,2.52,1.39.24.51.36,1.24.36,2.18v6.02h-1.5v-5.92c0-.57-.08-1.04-.24-1.39-.26-.58-.74-.88-1.42-.88-.35,0-.64.04-.86.11-.4.13-.76.39-1.06.77-.25.31-.41.63-.48.96s-.11.8-.11,1.42v4.92h-1.47v-9.39Z" style="fill:gray;"/></g></svg>