<?xml version="1.0" encoding="UTF-8"?><svg id="_レイヤー_2" xmlns="http://www.w3.org/2000/svg" width="497.38" height="391.01" viewBox="0 0 497.38 391.01"><g id="_レイヤー_1-2"><line x1="139.36" y1="287.81" x2="139.36" y2="341.68" style="fill:none; stroke:#e6e6e6; stroke-linecap:round; stroke-miterlimit:10; stroke-width:8px;"/><line x1="342.88" y1="4" x2="342.88" y2="80.3" style="fill:none; stroke:#e6e6e6; stroke-linecap:round; stroke-miterlimit:10; stroke-width:8px;"/><line x1=".5" y1="54.26" x2="496.88" y2="54.26" style="fill:none; stroke:#6a6766; stroke-miterlimit:10; stroke-width:7.56px;"/><line x1=".5" y1="54.26" x2="496.88" y2="54.26" style="fill:none; stroke:#fff; stroke-miterlimit:10; stroke-width:5.04px;"/><line x1=".5" y1="54.26" x2="496.88" y2="54.26" style="fill:none; stroke:#6a6766; stroke-dasharray:0 0 11 13; stroke-miterlimit:10; stroke-width:5.04px;"/><line x1=".5" y1="351.64" x2="496.88" y2="351.64" style="fill:none; stroke:#4d4948; stroke-miterlimit:10; stroke-width:7.56px;"/><line x1=".5" y1="351.64" x2="496.88" y2="351.64" style="fill:none; stroke:#fff; stroke-miterlimit:10; stroke-width:5.04px;"/><line x1=".5" y1="351.64" x2="496.88" y2="351.64" style="fill:none; stroke:#4d4948; stroke-dasharray:0 0 25.2 25.2; stroke-miterlimit:10; stroke-width:5.04px;"/><line x1=".5" y1="328.64" x2="496.88" y2="328.64" style="fill:none; stroke:#7499d3; stroke-miterlimit:10; stroke-width:7.56px;"/><line x1=".5" y1="328.64" x2="496.88" y2="328.64" style="fill:none; stroke:#fff; stroke-miterlimit:10; stroke-width:5.04px;"/><line x1=".5" y1="328.64" x2="496.88" y2="328.64" style="fill:none; stroke:#7499d3; stroke-dasharray:0 0 48 46; stroke-miterlimit:10; stroke-width:5.04px;"/><rect x="356.16" y="37.43" width="65.22" height="33.66" style="fill:#fff; stroke:#545454; stroke-miterlimit:10; stroke-width:.5px;"/><rect x="211.19" y="2.49" width="98.76" height="41.9" style="fill:#e6e6e6;"/><rect x="11.67" y="199.15" width="98.76" height="116.78" style="fill:#e6e6e6;"/><rect x="107.97" y="337.78" width="145.72" height="38.11" style="fill:#fff; stroke:#545454; stroke-miterlimit:10; stroke-width:.64px;"/><line x1="7.5" y1="184.66" x2="489.88" y2="184.66" style="fill:none; stroke:#e6e6e6; stroke-linecap:round; stroke-miterlimit:10; stroke-width:15px;"/><line x1="7.5" y1="86.97" x2="489.88" y2="86.97" style="fill:none; stroke:#e6e6e6; stroke-linecap:round; stroke-miterlimit:10; stroke-width:15px;"/><line x1="262.07" y1="89.28" x2="262.07" y2="179" style="fill:none; stroke:#e6e6e6; stroke-linecap:round; stroke-miterlimit:10; stroke-width:8px;"/><path d="m207.2,269.82h-53.87c-18.95,0-19.95,32.92,2,32.92h53.87v-114.77" style="fill:none; stroke:#e6e6e6; stroke-linecap:round; stroke-miterlimit:10; stroke-width:8px;"/><circle cx="190.24" cy="204.44" r="4.49" style="fill:gray;"/><circle cx="279.03" cy="204.44" r="4.49" style="fill:gray;"/><circle cx="312.95" cy="105.74" r="4.49" style="fill:gray;"/><circle cx="281.52" cy="105.74" r="4.49" style="fill:gray;"/><circle cx="248.6" cy="168.02" r="4.49" style="fill:gray;"/><circle cx="277.53" cy="166.03" r="4.49" style="fill:gray;"/><polyline points="217.93 292.47 217.93 182.68 252.77 182.68" style="fill:none; stroke:#ed0030; stroke-linecap:round; stroke-miterlimit:10; stroke-width:2.94px;"/><polyline points="214.86 289.8 217.75 296.72 221.15 289.8" style="fill:none; stroke:#ed0030; stroke-linecap:round; stroke-miterlimit:10; stroke-width:2.38px;"/><polyline points="143.21 336.43 143.21 304.77 199.89 304.77" style="fill:none; stroke:#ed0030; stroke-linecap:round; stroke-miterlimit:10; stroke-width:2.94px;"/><polyline points="140.13 333.76 143.03 340.68 146.42 333.76" style="fill:none; stroke:#ed0030; stroke-linecap:round; stroke-miterlimit:10; stroke-width:2.38px;"/><polyline points="256.26 152.8 256.26 77.31 343.55 77.31" style="fill:none; stroke:#ed0030; stroke-linecap:round; stroke-miterlimit:10; stroke-width:2.94px;"/><polyline points="253.19 150.13 256.08 157.05 259.48 150.13" style="fill:none; stroke:#ed0030; stroke-linecap:round; stroke-miterlimit:10; stroke-width:2.38px;"/><line x1="351.71" y1="72.06" x2="351.71" y2="59.35" style="fill:none; stroke:#ed0030; stroke-linecap:round; stroke-miterlimit:10; stroke-width:2.94px;"/><polyline points="348.63 69.39 351.53 76.31 354.93 69.39" style="fill:none; stroke:#ed0030; stroke-linecap:round; stroke-miterlimit:10; stroke-width:2.38px;"/><path d="m30.07,243.8h2.18l3.23,9.5,3.21-9.5h2.17v11.24h-1.45v-6.63c0-.23,0-.61.02-1.14,0-.53.02-1.1.02-1.71l-3.21,9.48h-1.51l-3.24-9.48v.34c0,.28,0,.7.02,1.26.01.56.02.98.02,1.24v6.63h-1.45v-11.24Z" style="fill:gray;"/><path d="m46.36,243.8h1.72l4.08,11.24h-1.67l-1.14-3.37h-4.45l-1.22,3.37h-1.56l4.23-11.24Zm2.5,6.63l-1.71-4.97-1.81,4.97h3.52Z" style="fill:gray;"/><path d="m53.55,243.8h5.11c.84,0,1.54.12,2.08.38,1.04.48,1.56,1.37,1.56,2.66,0,.67-.14,1.22-.42,1.65-.28.43-.67.77-1.17,1.03.44.18.77.41.99.7.22.29.35.76.37,1.42l.05,1.51c.01.43.05.75.11.96.09.36.26.59.49.69v.25h-1.87c-.05-.1-.09-.22-.12-.38-.03-.15-.06-.45-.08-.89l-.09-1.88c-.03-.73-.3-1.23-.79-1.48-.28-.14-.73-.21-1.33-.21h-3.37v4.82h-1.52v-11.24Zm4.95,5.15c.69,0,1.24-.14,1.65-.43.4-.29.61-.8.61-1.55,0-.8-.28-1.35-.85-1.64-.3-.15-.71-.23-1.21-.23h-3.62v3.84h3.42Z" style="fill:gray;"/><path d="m64.52,243.8h1.48v5.5l5.62-5.5h2.13l-4.8,4.54,4.9,6.7h-1.99l-4.03-5.65-1.83,1.73v3.92h-1.48v-11.24Z" style="fill:gray;"/><path d="m79.67,243.8h1.54v11.24h-1.54v-11.24Z" style="fill:gray;"/><path d="m84.5,251.41c.04.64.18,1.16.44,1.55.49.75,1.34,1.12,2.57,1.12.55,0,1.05-.08,1.5-.25.88-.32,1.31-.88,1.31-1.7,0-.61-.18-1.05-.56-1.31-.38-.25-.96-.48-1.76-.67l-1.47-.34c-.96-.22-1.65-.47-2.05-.74-.69-.47-1.04-1.17-1.04-2.1,0-1.01.34-1.84,1.02-2.49.68-.65,1.64-.97,2.89-.97,1.15,0,2.12.28,2.92.85.8.57,1.2,1.48,1.2,2.73h-1.43c-.07-.6-.23-1.06-.47-1.38-.44-.59-1.2-.88-2.27-.88-.86,0-1.48.19-1.86.57-.38.38-.56.82-.56,1.32,0,.55.22.95.67,1.21.29.16.95.37,1.98.61l1.53.36c.74.17,1.31.41,1.71.71.69.53,1.04,1.29,1.04,2.29,0,1.25-.44,2.14-1.33,2.67-.88.54-1.91.8-3.08.8-1.36,0-2.43-.36-3.2-1.07-.77-.71-1.15-1.67-1.13-2.88h1.43Z" style="fill:gray;"/><path d="m31.34,267.6c.03.64.18,1.16.43,1.55.49.75,1.34,1.12,2.57,1.12.55,0,1.05-.08,1.5-.25.88-.32,1.31-.88,1.31-1.7,0-.61-.19-1.05-.56-1.31-.38-.25-.96-.48-1.76-.67l-1.48-.34c-.96-.22-1.65-.47-2.05-.74-.69-.47-1.04-1.17-1.04-2.1,0-1.01.34-1.84,1.02-2.49.68-.65,1.64-.97,2.89-.97,1.15,0,2.12.28,2.92.85.8.57,1.2,1.48,1.2,2.73h-1.43c-.07-.6-.23-1.06-.47-1.38-.45-.59-1.2-.88-2.27-.88-.86,0-1.48.19-1.86.57-.38.38-.57.82-.57,1.32,0,.55.22.95.67,1.21.29.16.95.37,1.98.61l1.53.36c.74.17,1.3.41,1.71.71.69.53,1.04,1.29,1.04,2.29,0,1.25-.44,2.14-1.32,2.67-.88.54-1.91.8-3.08.8-1.36,0-2.43-.36-3.2-1.07-.77-.71-1.15-1.67-1.13-2.88h1.43Z" style="fill:gray;"/><path d="m40.45,259.95h1.38v4.19c.33-.41.62-.7.88-.87.44-.29,1-.44,1.66-.44,1.19,0,1.99.42,2.42,1.25.23.45.34,1.08.34,1.89v5.26h-1.42v-5.17c0-.6-.08-1.04-.23-1.32-.25-.45-.72-.67-1.41-.67-.57,0-1.09.2-1.55.59s-.7,1.13-.7,2.23v4.35h-1.38v-11.28Z" style="fill:gray;"/><path d="m49.06,259.99h1.4v1.56h-1.4v-1.56Zm0,3.08h1.4v8.16h-1.4v-8.16Z" style="fill:gray;"/><path d="m51.74,270.14l4.87-5.88h-4.51v-1.23h6.36v1.12l-4.83,5.84h4.98v1.23h-6.86v-1.09Z" style="fill:gray;"/><path d="m61.26,263.03v5.44c0,.42.06.76.19,1.03.24.49.68.73,1.33.73.93,0,1.57-.43,1.91-1.29.18-.46.28-1.09.28-1.89v-4.02h1.38v8.2h-1.3l.02-1.21c-.18.31-.39.57-.65.79-.52.43-1.14.64-1.88.64-1.15,0-1.93-.39-2.34-1.17-.23-.42-.34-.98-.34-1.68v-5.57h1.41Z" style="fill:gray;"/><path d="m74.45,263.85c.72.7,1.09,1.74,1.09,3.1s-.32,2.41-.96,3.27c-.64.86-1.63,1.29-2.97,1.29-1.12,0-2.01-.38-2.67-1.14-.66-.76-.99-1.79-.99-3.07,0-1.38.35-2.47,1.04-3.29.69-.82,1.63-1.22,2.8-1.22,1.05,0,1.93.35,2.66,1.05Zm-.86,5.45c.34-.69.5-1.46.5-2.3,0-.76-.12-1.39-.36-1.87-.38-.75-1.04-1.13-1.98-1.13-.83,0-1.44.32-1.82.96-.38.64-.57,1.42-.57,2.32s.19,1.6.57,2.18c.38.58.98.87,1.8.87.9,0,1.52-.34,1.86-1.04Z" style="fill:gray;"/><path d="m77.11,259.99h1.32v6.53l3.53-3.48h1.76l-3.15,3.05,3.33,5.15h-1.76l-2.58-4.17-1.13,1.09v3.08h-1.32v-11.24Z" style="fill:gray;"/><path d="m89.22,266.27c.32-.04.53-.17.63-.4.06-.12.09-.3.09-.53,0-.47-.17-.81-.5-1.03-.33-.21-.81-.32-1.43-.32-.72,0-1.23.2-1.53.58-.17.21-.28.54-.33.96h-1.29c.03-1.01.35-1.72.98-2.11.63-.4,1.36-.59,2.19-.59.96,0,1.75.18,2.35.55.6.37.89.94.89,1.71v4.72c0,.14.03.26.09.34s.18.13.37.13c.06,0,.13,0,.21-.01.08,0,.16-.02.25-.03v1.02c-.21.06-.38.1-.49.12-.11.01-.27.02-.46.02-.47,0-.82-.17-1.03-.5-.11-.18-.19-.43-.24-.76-.28.37-.68.69-1.21.96-.53.27-1.11.41-1.74.41-.76,0-1.38-.23-1.86-.69-.48-.46-.72-1.04-.72-1.73,0-.76.24-1.35.71-1.77.47-.42,1.1-.67,1.87-.77l2.2-.28Zm-2.9,3.72c.29.23.63.34,1.03.34.48,0,.95-.11,1.41-.34.76-.37,1.15-.98,1.15-1.83v-1.11c-.17.11-.38.2-.65.27s-.52.12-.78.15l-.83.11c-.5.07-.87.17-1.12.31-.43.24-.64.62-.64,1.15,0,.4.15.71.44.94Z" style="fill:gray;"/><path d="m360.21,43.59h1.38l4.31,6.99v-6.99h1.12v8.65h-1.32l-4.38-6.98v6.98h-1.12v-8.65Z" style="fill:gray;"/><path d="m372.06,48.42c.24-.03.41-.13.49-.31.05-.09.07-.23.07-.41,0-.36-.13-.63-.38-.79s-.62-.25-1.1-.25c-.55,0-.94.15-1.17.45-.13.17-.21.41-.25.74h-.99c.02-.78.27-1.32.75-1.63.48-.3,1.05-.46,1.68-.46.74,0,1.34.14,1.81.42.46.28.69.72.69,1.32v3.63c0,.11.02.2.07.26.04.07.14.1.29.1.05,0,.1,0,.16,0,.06,0,.12-.01.19-.03v.78c-.17.05-.29.08-.38.09-.09.01-.2.02-.35.02-.37,0-.63-.13-.79-.39-.09-.14-.15-.33-.18-.58-.22.28-.53.53-.93.74-.4.21-.85.31-1.34.31-.58,0-1.06-.18-1.43-.53s-.56-.8-.56-1.33c0-.58.18-1.04.55-1.36s.84-.52,1.44-.59l1.69-.21Zm-2.23,2.86c.22.18.49.26.79.26.37,0,.73-.09,1.08-.26.59-.29.88-.75.88-1.4v-.85c-.13.08-.3.15-.5.21-.2.05-.4.09-.6.12l-.64.08c-.38.05-.67.13-.87.24-.33.18-.49.48-.49.88,0,.31.11.55.34.72Z" style="fill:gray;"/><path d="m378.79,46.19c.2.14.4.34.61.6v-.79h.98v5.73c0,.8-.12,1.43-.35,1.89-.44.86-1.27,1.28-2.48,1.28-.68,0-1.25-.15-1.71-.46-.46-.3-.72-.78-.77-1.43h1.08c.05.28.15.5.3.65.24.24.61.35,1.12.35.81,0,1.34-.29,1.59-.86.15-.34.22-.94.21-1.81-.21.32-.47.56-.76.72-.3.16-.69.24-1.18.24-.68,0-1.28-.24-1.79-.73s-.76-1.29-.76-2.4c0-1.06.26-1.88.77-2.47.51-.59,1.13-.89,1.86-.89.49,0,.92.12,1.29.37Zm.13,1.14c-.32-.38-.73-.57-1.22-.57-.74,0-1.25.35-1.52,1.05-.14.37-.22.86-.22,1.47,0,.71.14,1.25.43,1.62.29.37.67.56,1.16.56.76,0,1.29-.34,1.6-1.03.17-.39.26-.84.26-1.36,0-.78-.16-1.36-.48-1.74Z" style="fill:gray;"/><path d="m385.26,48.42c.24-.03.41-.13.49-.31.05-.09.07-.23.07-.41,0-.36-.13-.63-.38-.79s-.62-.25-1.1-.25c-.55,0-.94.15-1.17.45-.13.17-.21.41-.25.74h-.99c.02-.78.27-1.32.75-1.63.48-.3,1.05-.46,1.68-.46.74,0,1.34.14,1.81.42.46.28.69.72.69,1.32v3.63c0,.11.02.2.07.26.04.07.14.1.29.1.05,0,.1,0,.16,0,.06,0,.12-.01.19-.03v.78c-.17.05-.29.08-.38.09-.09.01-.2.02-.35.02-.37,0-.63-.13-.79-.39-.09-.14-.15-.33-.18-.58-.22.28-.53.53-.93.74-.4.21-.85.31-1.34.31-.58,0-1.06-.18-1.43-.53s-.56-.8-.56-1.33c0-.58.18-1.04.55-1.36s.84-.52,1.44-.59l1.69-.21Zm-2.23,2.86c.22.18.49.26.79.26.37,0,.73-.09,1.08-.26.59-.29.88-.75.88-1.4v-.85c-.13.08-.3.15-.5.21-.2.05-.4.09-.6.12l-.64.08c-.38.05-.67.13-.87.24-.33.18-.49.48-.49.88,0,.31.11.55.34.72Z" style="fill:gray;"/><path d="m388.53,45.93h1.01v.9c.3-.37.61-.63.95-.79.33-.16.7-.24,1.11-.24.89,0,1.5.31,1.81.94.17.34.26.83.26,1.47v4.04h-1.08v-3.97c0-.38-.06-.69-.17-.93-.19-.39-.53-.59-1.02-.59-.25,0-.46.03-.62.08-.29.09-.54.26-.76.52-.18.21-.29.42-.34.64s-.08.54-.08.95v3.3h-1.06v-6.3Z" style="fill:gray;"/><path d="m396.21,45.93v4.19c0,.32.05.58.15.79.18.38.53.56,1.03.56.72,0,1.21-.33,1.47-.99.14-.35.21-.84.21-1.45v-3.1h1.06v6.3h-1v-.93c-.12.24-.29.44-.49.61-.4.33-.88.5-1.44.5-.88,0-1.48-.3-1.8-.9-.17-.32-.26-.75-.26-1.29v-4.29h1.08Z" style="fill:gray;"/><path d="m401.72,45.93h1.05v.9c.25-.31.48-.54.68-.68.35-.24.75-.36,1.19-.36.5,0,.91.12,1.21.37.17.14.33.35.47.62.24-.34.51-.59.83-.75.32-.16.67-.24,1.07-.24.85,0,1.42.31,1.73.92.17.33.25.77.25,1.33v4.2h-1.1v-4.38c0-.42-.1-.71-.31-.87-.21-.16-.47-.24-.77-.24-.42,0-.77.14-1.07.42-.3.28-.45.74-.45,1.4v3.67h-1.08v-4.11c0-.43-.05-.74-.15-.94-.16-.29-.46-.44-.9-.44-.4,0-.76.16-1.09.46-.33.31-.49.87-.49,1.68v3.34h-1.06v-6.3Z" style="fill:gray;"/><path d="m415.04,48.42c.24-.03.41-.13.49-.31.05-.09.07-.23.07-.41,0-.36-.13-.63-.38-.79s-.62-.25-1.1-.25c-.55,0-.94.15-1.17.45-.13.17-.21.41-.25.74h-.99c.02-.78.27-1.32.75-1.63.48-.3,1.05-.46,1.68-.46.74,0,1.34.14,1.81.42.46.28.69.72.69,1.32v3.63c0,.11.02.2.07.26.04.07.14.1.29.1.05,0,.1,0,.16,0,.06,0,.12-.01.19-.03v.78c-.17.05-.29.08-.38.09-.09.01-.2.02-.35.02-.37,0-.63-.13-.79-.39-.09-.14-.15-.33-.18-.58-.22.28-.53.53-.93.74-.4.21-.85.31-1.34.31-.58,0-1.06-.18-1.43-.53s-.56-.8-.56-1.33c0-.58.18-1.04.55-1.36s.84-.52,1.44-.59l1.69-.21Zm-2.23,2.86c.22.18.49.26.79.26.37,0,.73-.09,1.08-.26.59-.29.88-.75.88-1.4v-.85c-.13.08-.3.15-.5.21-.2.05-.4.09-.6.12l-.64.08c-.38.05-.67.13-.87.24-.33.18-.49.48-.49.88,0,.31.11.55.34.72Z" style="fill:gray;"/><path d="m371.55,61.9c.03.49.14.89.33,1.2.38.57,1.03.86,1.98.86.42,0,.81-.06,1.16-.19.67-.24,1.01-.68,1.01-1.31,0-.47-.14-.81-.43-1.01-.29-.2-.74-.37-1.36-.51l-1.13-.26c-.74-.17-1.27-.36-1.57-.57-.53-.36-.8-.9-.8-1.62,0-.78.26-1.42.79-1.91.52-.5,1.26-.75,2.22-.75.88,0,1.63.22,2.25.66.62.44.92,1.14.92,2.1h-1.1c-.06-.46-.18-.82-.36-1.07-.34-.45-.92-.68-1.74-.68-.66,0-1.14.15-1.43.44-.29.29-.43.63-.43,1.01,0,.42.17.73.51.93.22.13.73.28,1.52.47l1.17.28c.57.13,1,.32,1.31.55.53.4.8.99.8,1.76,0,.96-.34,1.64-1.02,2.05-.68.41-1.47.62-2.37.62-1.05,0-1.87-.27-2.46-.82-.59-.54-.88-1.29-.87-2.22h1.1Z" style="fill:gray;"/><path d="m378.78,56.63h1.07v1.76h1.01v.87h-1.01v4.11c0,.22.07.37.22.44.08.04.22.06.41.06.05,0,.11,0,.16,0,.06,0,.13,0,.21-.02v.84c-.12.04-.25.06-.38.08-.13.02-.27.02-.43.02-.5,0-.83-.13-1.01-.38s-.26-.58-.26-.99v-4.17h-.85v-.87h.85v-1.76Z" style="fill:gray;"/><path d="m385.29,60.87c.24-.03.41-.13.49-.31.05-.09.07-.23.07-.41,0-.36-.13-.63-.38-.79s-.62-.25-1.1-.25c-.55,0-.94.15-1.17.45-.13.17-.21.41-.25.74h-.99c.02-.78.27-1.32.75-1.63.48-.3,1.05-.46,1.68-.46.74,0,1.34.14,1.81.42.46.28.69.72.69,1.32v3.63c0,.11.02.2.07.26.04.07.14.1.29.1.05,0,.1,0,.16,0,.06,0,.12-.01.19-.03v.78c-.17.05-.29.08-.38.09-.09.01-.2.02-.35.02-.37,0-.63-.13-.79-.39-.09-.14-.15-.33-.18-.58-.22.28-.53.53-.93.74-.4.21-.85.31-1.34.31-.58,0-1.06-.18-1.43-.53s-.56-.8-.56-1.33c0-.58.18-1.04.55-1.36s.84-.52,1.44-.59l1.69-.21Zm-2.23,2.86c.22.18.49.26.79.26.37,0,.73-.09,1.08-.26.59-.29.88-.75.88-1.4v-.85c-.13.08-.3.15-.5.21-.2.05-.4.09-.6.12l-.64.08c-.38.05-.67.13-.87.24-.33.18-.49.48-.49.88,0,.31.11.55.34.72Z" style="fill:gray;"/><path d="m388.66,56.63h1.07v1.76h1.01v.87h-1.01v4.11c0,.22.07.37.22.44.08.04.22.06.41.06.05,0,.11,0,.16,0,.06,0,.13,0,.21-.02v.84c-.12.04-.25.06-.38.08-.13.02-.27.02-.43.02-.5,0-.83-.13-1.01-.38s-.26-.58-.26-.99v-4.17h-.85v-.87h.85v-1.76Z" style="fill:gray;"/><path d="m391.77,56.04h1.08v1.2h-1.08v-1.2Zm0,2.37h1.08v6.27h-1.08v-6.27Z" style="fill:gray;"/><path d="m399.02,59.02c.56.54.84,1.34.84,2.39s-.25,1.85-.74,2.52c-.49.66-1.25.99-2.29.99-.86,0-1.55-.29-2.05-.88-.51-.59-.76-1.37-.76-2.36,0-1.06.27-1.9.8-2.53.53-.63,1.25-.94,2.15-.94.81,0,1.49.27,2.05.81Zm-.66,4.19c.26-.53.39-1.12.39-1.77,0-.59-.09-1.07-.28-1.43-.29-.58-.8-.87-1.53-.87-.64,0-1.11.25-1.4.74-.29.49-.44,1.09-.44,1.79s.15,1.23.44,1.67c.29.45.75.67,1.38.67.69,0,1.17-.27,1.43-.8Z" style="fill:gray;"/><path d="m401.09,58.39h1.01v.9c.3-.37.61-.63.95-.79.33-.16.7-.24,1.11-.24.89,0,1.5.31,1.81.94.17.34.26.83.26,1.47v4.04h-1.08v-3.97c0-.38-.06-.69-.17-.93-.19-.39-.53-.59-1.02-.59-.25,0-.46.03-.62.08-.29.09-.54.26-.76.52-.18.21-.29.42-.34.64s-.08.54-.08.95v3.3h-1.06v-6.3Z" style="fill:gray;"/><polygon points=".81 379.66 9.56 374.61 9.56 377.68 19.77 377.68 19.77 381.63 9.56 381.63 9.56 384.71 .81 379.66" style="fill:gray;"/><path d="m27.61,374.68h6.74v1.19h-5.42v2.95h4.77v1.16h-4.77v4.42h-1.32v-9.71Z" style="fill:gray;"/><path d="m40.5,378.01c.63.61.94,1.5.94,2.68s-.28,2.08-.83,2.83c-.55.74-1.41,1.12-2.57,1.12-.97,0-1.74-.33-2.3-.99s-.85-1.54-.85-2.65c0-1.19.3-2.14.9-2.84s1.41-1.06,2.42-1.06c.91,0,1.67.3,2.3.91Zm-.74,4.71c.29-.6.44-1.26.44-1.99,0-.66-.11-1.2-.31-1.61-.33-.65-.9-.98-1.71-.98-.72,0-1.24.28-1.57.83s-.49,1.22-.49,2.01.16,1.38.49,1.88.85.75,1.56.75c.78,0,1.32-.3,1.61-.9Z" style="fill:gray;"/><path d="m42.84,377.31h1.13v1.22c.09-.24.32-.53.68-.87s.78-.51,1.25-.51c.02,0,.06,0,.11,0,.05,0,.14.01.27.03v1.26c-.07-.01-.14-.02-.2-.03-.06,0-.12,0-.2,0-.6,0-1.06.19-1.38.58-.32.39-.48.83-.48,1.33v4.07h-1.19v-7.08Z" style="fill:gray;"/><path d="m52.1,381.26c.03.55.16,1,.38,1.34.42.64,1.16.97,2.22.97.48,0,.91-.07,1.3-.21.76-.27,1.13-.76,1.13-1.47,0-.53-.16-.91-.48-1.13-.32-.22-.83-.41-1.52-.58l-1.27-.3c-.83-.19-1.42-.41-1.77-.64-.6-.41-.9-1.01-.9-1.82,0-.87.29-1.59.88-2.15.59-.56,1.42-.84,2.5-.84.99,0,1.83.25,2.53.74.69.49,1.04,1.28,1.04,2.36h-1.24c-.06-.52-.2-.92-.41-1.2-.38-.51-1.04-.76-1.96-.76-.74,0-1.28.16-1.6.49-.33.33-.49.71-.49,1.14,0,.48.19.83.58,1.04.25.14.82.32,1.71.53l1.32.31c.64.15,1.13.36,1.47.62.6.45.9,1.11.9,1.98,0,1.08-.38,1.84-1.14,2.31-.76.46-1.65.69-2.66.69-1.18,0-2.1-.31-2.77-.93-.67-.61-.99-1.44-.98-2.49h1.24Z" style="fill:gray;"/><path d="m59.98,374.64h1.19v3.62c.28-.36.54-.61.76-.75.38-.25.86-.38,1.44-.38,1.03,0,1.72.36,2.09,1.08.2.39.3.94.3,1.63v4.54h-1.22v-4.46c0-.52-.07-.9-.2-1.14-.22-.39-.62-.58-1.22-.58-.49,0-.94.17-1.34.51s-.6.98-.6,1.92v3.76h-1.19v-9.75Z" style="fill:gray;"/><path d="m67.44,374.68h1.21v1.35h-1.21v-1.35Zm0,2.67h1.21v7.05h-1.21v-7.05Z" style="fill:gray;"/><path d="m69.76,383.45l4.21-5.08h-3.9v-1.07h5.5v.97l-4.18,5.05h4.3v1.06h-5.93v-.94Z" style="fill:gray;"/><path d="m78,377.31v4.7c0,.36.06.66.17.89.21.42.59.63,1.15.63.81,0,1.36-.37,1.65-1.11.16-.4.24-.94.24-1.63v-3.48h1.19v7.08h-1.12v-1.04c-.14.27-.33.5-.55.68-.45.37-.99.55-1.62.55-.99,0-1.67-.34-2.02-1.01-.2-.36-.29-.84-.29-1.45v-4.81h1.22Z" style="fill:gray;"/><path d="m89.4,378.01c.63.61.94,1.5.94,2.68s-.28,2.08-.83,2.83c-.55.74-1.41,1.12-2.57,1.12-.97,0-1.74-.33-2.3-.99s-.85-1.54-.85-2.65c0-1.19.3-2.14.9-2.84s1.41-1.06,2.42-1.06c.91,0,1.67.3,2.3.91Zm-.74,4.71c.29-.6.44-1.26.44-1.99,0-.66-.11-1.2-.31-1.61-.33-.65-.9-.98-1.71-.98-.72,0-1.24.28-1.57.83s-.49,1.22-.49,2.01.16,1.38.49,1.88.85.75,1.56.75c.78,0,1.32-.3,1.61-.9Z" style="fill:gray;"/><path d="m91.72,374.68h1.14v5.64l3.05-3.01h1.52l-2.72,2.63,2.88,4.45h-1.52l-2.23-3.6-.98.95v2.66h-1.14v-9.71Z" style="fill:gray;"/><path d="m102.19,380.1c.27-.04.46-.15.55-.34.05-.11.08-.26.08-.46,0-.41-.14-.7-.43-.89s-.7-.28-1.24-.28c-.62,0-1.06.17-1.32.5-.14.19-.24.46-.28.83h-1.11c.02-.88.31-1.49.85-1.83.54-.34,1.17-.51,1.89-.51.83,0,1.51.16,2.03.48.51.32.77.81.77,1.48v4.08c0,.12.03.22.08.3s.16.11.32.11c.05,0,.11,0,.18,0,.07,0,.14-.02.21-.03v.88c-.19.05-.33.09-.42.1-.1.01-.23.02-.4.02-.41,0-.71-.15-.89-.44-.1-.15-.17-.37-.21-.65-.24.32-.59.59-1.04.83s-.95.35-1.5.35c-.66,0-1.19-.2-1.61-.6s-.62-.9-.62-1.5c0-.66.21-1.17.62-1.53.41-.36.95-.58,1.61-.67l1.9-.24Zm-2.51,3.22c.25.2.55.3.89.3.42,0,.82-.1,1.22-.29.66-.32.99-.85.99-1.58v-.96c-.15.09-.33.17-.56.23-.23.06-.45.11-.67.13l-.72.09c-.43.06-.76.15-.97.27-.37.21-.55.54-.55.99,0,.34.13.61.38.81Z" style="fill:gray;"/><polygon points="496.39 379.66 487.65 384.71 487.65 381.63 477.43 381.63 477.43 377.68 487.65 377.68 487.65 374.61 496.39 379.66" style="fill:gray;"/><path d="m403.27,374.78h6.74v1.19h-5.42v2.95h4.77v1.16h-4.77v4.42h-1.32v-9.71Z" style="fill:gray;"/><path d="m416.15,378.12c.63.61.94,1.5.94,2.68s-.28,2.08-.83,2.83c-.55.74-1.41,1.12-2.57,1.12-.97,0-1.74-.33-2.31-.99s-.85-1.54-.85-2.65c0-1.19.3-2.14.9-2.84s1.41-1.06,2.42-1.06c.91,0,1.67.3,2.3.91Zm-.74,4.71c.29-.6.43-1.26.43-1.99,0-.66-.1-1.2-.31-1.61-.33-.65-.9-.98-1.71-.98-.72,0-1.24.28-1.57.83s-.49,1.22-.49,2.01.16,1.38.49,1.88.85.75,1.56.75c.78,0,1.31-.3,1.61-.9Z" style="fill:gray;"/><path d="m418.5,377.41h1.13v1.22c.09-.24.32-.53.68-.87s.78-.51,1.25-.51c.02,0,.06,0,.11,0,.05,0,.14.01.27.03v1.26c-.07-.01-.14-.02-.2-.03-.06,0-.12,0-.19,0-.6,0-1.06.19-1.38.58s-.48.83-.48,1.33v4.07h-1.19v-7.08Z" style="fill:gray;"/><path d="m427.76,381.36c.03.55.16,1,.38,1.34.42.64,1.16.97,2.22.97.48,0,.91-.07,1.3-.21.76-.27,1.13-.76,1.13-1.47,0-.53-.16-.91-.48-1.13-.32-.22-.83-.41-1.52-.58l-1.28-.3c-.83-.19-1.42-.41-1.77-.64-.6-.41-.9-1.01-.9-1.82,0-.87.29-1.59.88-2.15.59-.56,1.42-.84,2.5-.84.99,0,1.83.25,2.53.74.69.49,1.04,1.28,1.04,2.36h-1.24c-.06-.52-.2-.92-.41-1.2-.38-.51-1.04-.76-1.96-.76-.74,0-1.28.16-1.6.49-.33.33-.49.71-.49,1.14,0,.48.19.83.58,1.04.25.14.82.32,1.71.53l1.32.31c.64.15,1.13.36,1.47.62.6.45.9,1.11.9,1.98,0,1.08-.38,1.84-1.14,2.31s-1.65.69-2.66.69c-1.18,0-2.1-.31-2.77-.93-.67-.61-.99-1.44-.98-2.49h1.24Z" style="fill:gray;"/><path d="m435.64,374.74h1.19v3.62c.28-.36.54-.61.76-.75.38-.25.86-.38,1.43-.38,1.03,0,1.72.36,2.09,1.08.2.39.3.94.3,1.63v4.54h-1.22v-4.46c0-.52-.07-.9-.2-1.14-.22-.39-.62-.58-1.22-.58-.49,0-.94.17-1.34.51s-.6.98-.6,1.92v3.76h-1.19v-9.75Z" style="fill:gray;"/><path d="m443.09,374.78h1.21v1.35h-1.21v-1.35Zm0,2.67h1.21v7.05h-1.21v-7.05Z" style="fill:gray;"/><path d="m446.01,377.41h1.18v1.01c.28-.35.54-.6.77-.76.39-.27.84-.4,1.33-.4.56,0,1.02.14,1.36.42.19.16.37.39.53.7.26-.38.58-.66.93-.84.36-.18.76-.27,1.2-.27.95,0,1.6.34,1.94,1.03.19.37.28.87.28,1.5v4.71h-1.24v-4.92c0-.47-.12-.8-.35-.97-.24-.18-.52-.26-.86-.26-.47,0-.87.16-1.21.47-.34.31-.51.84-.51,1.57v4.12h-1.21v-4.62c0-.48-.06-.83-.17-1.05-.18-.33-.52-.5-1.01-.5-.45,0-.86.17-1.23.52s-.55.98-.55,1.89v3.76h-1.19v-7.08Z" style="fill:gray;"/><path d="m457.22,374.78h1.21v1.35h-1.21v-1.35Zm0,2.67h1.21v7.05h-1.21v-7.05Z" style="fill:gray;"/><path d="m459.54,383.55l4.21-5.08h-3.9v-1.07h5.5v.97l-4.18,5.05h4.3v1.06h-5.93v-.94Z" style="fill:gray;"/><path d="m467.78,377.41v4.7c0,.36.06.66.17.89.21.42.59.63,1.15.63.81,0,1.36-.37,1.65-1.11.16-.4.24-.94.24-1.63v-3.48h1.19v7.08h-1.12v-1.04c-.14.27-.33.5-.55.68-.45.37-.99.55-1.62.55-.99,0-1.67-.34-2.02-1.01-.2-.36-.29-.84-.29-1.45v-4.81h1.22Z" style="fill:gray;"/><path d="m105.58,181.24h1.18l3.69,5.98v-5.98h.96v7.4h-1.13l-3.74-5.97v5.97h-.96v-7.4Z" style="fill:gray;"/><path d="m115.79,185.37c.21-.03.35-.11.42-.26.04-.08.06-.2.06-.35,0-.31-.11-.54-.33-.67-.22-.14-.53-.21-.94-.21-.47,0-.81.13-1,.38-.11.14-.18.35-.22.63h-.85c.02-.67.23-1.13.65-1.39.41-.26.89-.39,1.44-.39.63,0,1.15.12,1.54.36.39.24.59.62.59,1.13v3.11c0,.09.02.17.06.23.04.06.12.09.25.09.04,0,.08,0,.14,0,.05,0,.1-.01.16-.02v.67c-.14.04-.25.07-.32.08-.07,0-.17.02-.3.02-.31,0-.54-.11-.68-.33-.07-.12-.13-.28-.16-.5-.18.24-.45.45-.8.63-.35.18-.73.27-1.14.27-.5,0-.91-.15-1.23-.46-.32-.3-.48-.68-.48-1.14,0-.5.16-.89.47-1.16.31-.28.72-.44,1.23-.51l1.45-.18Zm-1.91,2.45c.19.15.42.23.68.23.32,0,.63-.07.93-.22.5-.25.76-.65.76-1.2v-.73c-.11.07-.25.13-.43.18-.17.05-.34.08-.51.1l-.55.07c-.33.04-.58.11-.74.21-.28.16-.42.41-.42.75,0,.26.1.47.29.62Z" style="fill:gray;"/><path d="m118.75,181.74h.92v1.51h.86v.74h-.86v3.52c0,.19.06.31.19.38.07.04.19.06.35.06.04,0,.09,0,.14,0,.05,0,.11,0,.18-.02v.72c-.1.03-.21.05-.32.07-.11.01-.23.02-.37.02-.42,0-.71-.11-.86-.33-.15-.22-.23-.5-.23-.84v-3.57h-.73v-.74h.73v-1.51Z" style="fill:gray;"/><path d="m121.49,181.24h.92v1.03h-.92v-1.03Zm0,2.03h.92v5.37h-.92v-5.37Z" style="fill:gray;"/><path d="m127.76,183.78c.48.46.72,1.14.72,2.04s-.21,1.59-.63,2.15c-.42.57-1.07.85-1.96.85-.74,0-1.32-.25-1.76-.75-.43-.5-.65-1.18-.65-2.02,0-.91.23-1.63.69-2.16.46-.54,1.07-.81,1.84-.81.69,0,1.27.23,1.75.69Zm-.56,3.59c.22-.46.33-.96.33-1.52,0-.5-.08-.91-.24-1.23-.25-.5-.69-.74-1.3-.74-.55,0-.95.21-1.2.63s-.37.93-.37,1.53.12,1.05.37,1.43c.25.38.64.57,1.19.57.59,0,1-.23,1.22-.68Z" style="fill:gray;"/><path d="m129.61,183.24h.86v.77c.25-.32.53-.54.81-.68s.6-.21.95-.21c.77,0,1.28.27,1.55.8.15.29.22.71.22,1.25v3.46h-.92v-3.4c0-.33-.05-.59-.15-.8-.16-.33-.45-.5-.88-.5-.21,0-.39.02-.53.07-.25.07-.47.22-.65.44-.15.18-.25.36-.29.55-.05.19-.07.46-.07.81v2.83h-.91v-5.39Z" style="fill:gray;"/><path d="m138.22,185.37c.21-.03.35-.11.42-.26.04-.08.06-.2.06-.35,0-.31-.11-.54-.33-.67-.22-.14-.53-.21-.94-.21-.47,0-.81.13-1,.38-.11.14-.18.35-.22.63h-.85c.02-.67.23-1.13.65-1.39.41-.26.89-.39,1.44-.39.63,0,1.15.12,1.54.36.39.24.59.62.59,1.13v3.11c0,.09.02.17.06.23.04.06.12.09.25.09.04,0,.08,0,.14,0,.05,0,.1-.01.16-.02v.67c-.14.04-.25.07-.32.08-.07,0-.17.02-.3.02-.31,0-.54-.11-.68-.33-.07-.12-.13-.28-.16-.5-.18.24-.45.45-.8.63-.35.18-.73.27-1.14.27-.5,0-.91-.15-1.23-.46-.32-.3-.48-.68-.48-1.14,0-.5.16-.89.47-1.16.31-.28.72-.44,1.23-.51l1.45-.18Zm-1.91,2.45c.19.15.42.23.68.23.32,0,.63-.07.93-.22.5-.25.76-.65.76-1.2v-.73c-.11.07-.25.13-.43.18-.17.05-.34.08-.51.1l-.55.07c-.33.04-.58.11-.74.21-.28.16-.42.41-.42.75,0,.26.1.47.29.62Z" style="fill:gray;"/><path d="m141.1,181.24h.91v7.4h-.91v-7.4Z" style="fill:gray;"/><path d="m146.47,181.24h3.36c.55,0,1.01.08,1.37.25.68.32,1.02.9,1.02,1.75,0,.44-.09.81-.27,1.09-.18.28-.44.51-.77.68.29.12.51.27.65.46.15.19.23.5.24.93l.04.99c.01.28.03.49.07.63.06.23.17.39.32.45v.17h-1.23c-.03-.06-.06-.15-.08-.25-.02-.1-.04-.29-.05-.58l-.06-1.23c-.02-.48-.2-.81-.52-.97-.19-.09-.48-.14-.88-.14h-2.22v3.17h-1v-7.4Zm3.26,3.39c.46,0,.82-.09,1.08-.28.27-.19.4-.53.4-1.02,0-.53-.19-.89-.56-1.08-.2-.1-.46-.15-.8-.15h-2.38v2.53h2.25Z" style="fill:gray;"/><path d="m157.58,183.78c.48.46.72,1.14.72,2.04s-.21,1.59-.63,2.15c-.42.57-1.07.85-1.96.85-.74,0-1.32-.25-1.76-.75-.43-.5-.65-1.18-.65-2.02,0-.91.23-1.63.69-2.16.46-.54,1.07-.81,1.84-.81.69,0,1.27.23,1.75.69Zm-.56,3.59c.22-.46.33-.96.33-1.52,0-.5-.08-.91-.24-1.23-.25-.5-.69-.74-1.3-.74-.55,0-.95.21-1.2.63s-.37.93-.37,1.53.12,1.05.37,1.43c.25.38.64.57,1.19.57.59,0,1-.23,1.22-.68Z" style="fill:gray;"/><path d="m160.33,183.24v3.58c0,.28.04.5.13.67.16.32.45.48.88.48.62,0,1.03-.28,1.26-.85.12-.3.18-.72.18-1.24v-2.65h.91v5.39h-.86v-.8c-.1.21-.25.38-.42.52-.34.28-.75.42-1.24.42-.75,0-1.27-.26-1.54-.77-.15-.27-.22-.64-.22-1.1v-3.67h.93Z" style="fill:gray;"/><path d="m165.32,181.74h.92v1.51h.86v.74h-.86v3.52c0,.19.06.31.19.38.07.04.19.06.35.06.04,0,.09,0,.14,0,.05,0,.11,0,.18-.02v.72c-.1.03-.21.05-.32.07-.11.01-.23.02-.37.02-.42,0-.71-.11-.86-.33-.15-.22-.23-.5-.23-.84v-3.57h-.73v-.74h.73v-1.51Z" style="fill:gray;"/><path d="m171.27,183.39c.36.18.63.41.82.7.18.27.3.59.36.95.05.25.08.64.08,1.19h-3.92c.02.55.14.99.38,1.32.24.33.61.5,1.11.5.47,0,.84-.16,1.12-.47.16-.18.27-.39.33-.63h.89c-.02.2-.1.42-.23.66-.13.24-.28.44-.44.6-.27.27-.61.45-1.01.54-.22.05-.46.08-.74.08-.67,0-1.23-.24-1.7-.73-.46-.49-.7-1.17-.7-2.05s.23-1.57.7-2.11c.47-.54,1.08-.81,1.83-.81.38,0,.75.09,1.11.27Zm.32,2.12c-.04-.39-.12-.71-.25-.94-.25-.44-.66-.65-1.23-.65-.41,0-.76.15-1.04.45-.28.3-.43.68-.45,1.15h2.97Z" style="fill:gray;"/><path d="m176.87,183.53v-.7c.65-.06,1.11-.17,1.37-.32s.45-.5.58-1.06h.71v7.18h-.97v-5.11h-1.7Z" style="fill:gray;"/><path d="m145.69,83.26v.88h-2.49v6.52h-1.01v-6.52h-2.49v-.88h6Z" style="fill:gray;"/><path d="m149.58,85.8c.48.46.72,1.14.72,2.04s-.21,1.59-.63,2.15c-.42.57-1.07.85-1.96.85-.74,0-1.32-.25-1.76-.75-.43-.5-.65-1.18-.65-2.02,0-.91.23-1.63.69-2.16.46-.54,1.07-.81,1.84-.81.69,0,1.27.23,1.75.69Zm-.56,3.59c.22-.46.33-.96.33-1.52,0-.5-.08-.91-.24-1.23-.25-.5-.69-.74-1.3-.74-.55,0-.95.21-1.2.63s-.37.93-.37,1.53.12,1.05.37,1.43c.25.38.64.57,1.19.57.59,0,1-.23,1.22-.68Z" style="fill:gray;"/><path d="m151.42,83.26h.87v4.3l2.32-2.29h1.16l-2.07,2.01,2.19,3.39h-1.16l-1.7-2.75-.74.72v2.02h-.87v-7.4Z" style="fill:gray;"/><path d="m159.48,87.39c.21-.03.35-.11.42-.26.04-.08.06-.2.06-.35,0-.31-.11-.54-.33-.67-.22-.14-.53-.21-.94-.21-.47,0-.81.13-1,.38-.11.14-.18.35-.22.63h-.85c.02-.67.23-1.13.65-1.39.41-.26.89-.39,1.44-.39.63,0,1.15.12,1.54.36.39.24.59.62.59,1.13v3.11c0,.09.02.17.06.23.04.06.12.09.25.09.04,0,.08,0,.14,0,.05,0,.1-.01.16-.02v.67c-.14.04-.25.07-.32.08-.07,0-.17.02-.3.02-.31,0-.54-.11-.68-.33-.07-.12-.13-.28-.16-.5-.18.24-.45.45-.8.63-.35.18-.73.27-1.14.27-.5,0-.91-.15-1.23-.46-.32-.3-.48-.68-.48-1.14,0-.5.16-.89.47-1.16.31-.28.72-.44,1.23-.51l1.45-.18Zm-1.91,2.45c.19.15.42.23.68.23.32,0,.63-.07.93-.22.5-.25.76-.65.76-1.2v-.73c-.11.07-.25.13-.43.18-.17.05-.34.08-.51.1l-.55.07c-.33.04-.58.11-.74.21-.28.16-.42.41-.42.75,0,.26.1.47.29.62Z" style="fill:gray;"/><path d="m162.36,83.26h.92v1.03h-.92v-1.03Zm0,2.03h.92v5.37h-.92v-5.37Z" style="fill:gray;"/><path d="m167.71,85.43c.16.1.34.28.55.53v-2.73h.87v7.42h-.82v-.75c-.21.33-.46.57-.75.72s-.62.22-.99.22c-.6,0-1.12-.25-1.56-.76-.44-.51-.66-1.18-.66-2.02,0-.79.2-1.47.6-2.04.4-.58.97-.86,1.71-.86.41,0,.76.09,1.03.26Zm-2.02,4.04c.24.39.63.58,1.17.58.42,0,.76-.18,1.03-.54.27-.36.4-.88.4-1.55s-.14-1.19-.42-1.51c-.28-.33-.62-.49-1.03-.49-.45,0-.82.17-1.11.52-.28.35-.42.86-.42,1.54,0,.58.12,1.06.37,1.45Z" style="fill:gray;"/><path d="m174.48,85.8c.48.46.72,1.14.72,2.04s-.21,1.59-.63,2.15c-.42.57-1.07.85-1.96.85-.74,0-1.32-.25-1.76-.75-.43-.5-.65-1.18-.65-2.02,0-.91.23-1.63.69-2.16.46-.54,1.07-.81,1.84-.81.69,0,1.27.23,1.75.69Zm-.56,3.59c.22-.46.33-.96.33-1.52,0-.5-.08-.91-.24-1.23-.25-.5-.69-.74-1.3-.74-.55,0-.95.21-1.2.63s-.37.93-.37,1.53.12,1.05.37,1.43c.25.38.64.57,1.19.57.59,0,1-.23,1.22-.68Z" style="fill:gray;"/><polygon points="496.88 18.7 488.13 23.75 488.13 20.67 477.91 20.67 477.91 16.72 488.13 16.72 488.13 13.64 496.88 18.7" style="fill:gray;"/><path d="m372.05,13.69h6.74v1.19h-5.42v2.95h4.77v1.16h-4.77v4.42h-1.32v-9.71Z" style="fill:gray;"/><path d="m384.94,17.03c.63.61.94,1.5.94,2.68s-.28,2.08-.83,2.83-1.41,1.12-2.57,1.12c-.97,0-1.74-.33-2.31-.99-.57-.66-.85-1.54-.85-2.65,0-1.19.3-2.14.9-2.84.6-.71,1.41-1.06,2.42-1.06.91,0,1.67.3,2.3.91Zm-.74,4.71c.29-.6.43-1.26.43-1.99,0-.66-.1-1.2-.31-1.61-.33-.65-.9-.98-1.71-.98-.72,0-1.24.28-1.57.83s-.49,1.22-.49,2.01.16,1.38.49,1.88.85.75,1.56.75c.78,0,1.32-.3,1.61-.9Z" style="fill:gray;"/><path d="m387.28,16.32h1.13v1.22c.09-.24.32-.53.68-.87.36-.34.78-.51,1.25-.51.02,0,.06,0,.11,0,.05,0,.14.01.27.03v1.26c-.07-.01-.14-.02-.2-.03-.06,0-.12,0-.19,0-.6,0-1.06.19-1.38.58-.32.39-.48.83-.48,1.33v4.07h-1.19v-7.08Z" style="fill:gray;"/><path d="m396.54,20.27c.03.55.16,1,.38,1.34.42.64,1.16.97,2.22.97.48,0,.91-.07,1.3-.21.76-.27,1.13-.76,1.13-1.47,0-.53-.16-.91-.48-1.13-.33-.22-.83-.41-1.52-.58l-1.28-.3c-.83-.19-1.42-.41-1.77-.64-.6-.41-.9-1.01-.9-1.82,0-.87.29-1.59.88-2.15.59-.56,1.42-.84,2.5-.84.99,0,1.83.25,2.53.74.69.49,1.04,1.28,1.04,2.36h-1.24c-.06-.52-.2-.92-.41-1.2-.38-.51-1.04-.76-1.96-.76-.74,0-1.28.16-1.6.49-.33.33-.49.71-.49,1.14,0,.48.19.83.58,1.04.25.14.82.32,1.71.53l1.32.31c.64.15,1.13.36,1.47.62.6.45.9,1.11.9,1.98,0,1.08-.38,1.84-1.15,2.31-.76.46-1.65.69-2.66.69-1.18,0-2.1-.31-2.77-.93-.67-.61-.99-1.44-.98-2.49h1.24Z" style="fill:gray;"/><path d="m404.43,13.66h1.19v3.62c.28-.36.54-.61.76-.75.38-.25.86-.38,1.43-.38,1.03,0,1.72.36,2.09,1.08.2.39.3.94.3,1.63v4.54h-1.22v-4.46c0-.52-.07-.9-.2-1.14-.22-.39-.62-.58-1.22-.58-.49,0-.94.17-1.34.51s-.6.98-.6,1.92v3.76h-1.19v-9.75Z" style="fill:gray;"/><path d="m411.88,13.69h1.21v1.35h-1.21v-1.35Zm0,2.67h1.21v7.05h-1.21v-7.05Z" style="fill:gray;"/><path d="m414.79,16.32h1.13v1.01c.33-.42.69-.71,1.06-.89.38-.18.79-.27,1.25-.27,1,0,1.68.35,2.04,1.05.19.38.29.93.29,1.65v4.54h-1.21v-4.46c0-.43-.06-.78-.19-1.04-.21-.44-.6-.66-1.15-.66-.28,0-.51.03-.7.09-.33.1-.61.29-.86.58-.2.23-.33.47-.39.72s-.09.61-.09,1.07v3.71h-1.19v-7.08Z" style="fill:gray;"/><path d="m422.08,19.02h3.32v1.22h-3.32v-1.22Z" style="fill:gray;"/><path d="m427.93,20.27c.03.55.16,1,.38,1.34.42.64,1.16.97,2.22.97.48,0,.91-.07,1.3-.21.76-.27,1.13-.76,1.13-1.47,0-.53-.16-.91-.48-1.13-.33-.22-.83-.41-1.52-.58l-1.28-.3c-.83-.19-1.42-.41-1.77-.64-.6-.41-.9-1.01-.9-1.82,0-.87.29-1.59.88-2.15.59-.56,1.42-.84,2.5-.84.99,0,1.83.25,2.53.74.69.49,1.04,1.28,1.04,2.36h-1.24c-.06-.52-.2-.92-.41-1.2-.38-.51-1.04-.76-1.96-.76-.74,0-1.28.16-1.6.49-.33.33-.49.71-.49,1.14,0,.48.19.83.58,1.04.25.14.82.32,1.71.53l1.32.31c.64.15,1.13.36,1.47.62.6.45.9,1.11.9,1.98,0,1.08-.38,1.84-1.15,2.31-.76.46-1.65.69-2.66.69-1.18,0-2.1-.31-2.77-.93-.67-.61-.99-1.44-.98-2.49h1.24Z" style="fill:gray;"/><path d="m435.82,13.66h1.19v3.62c.28-.36.54-.61.76-.75.38-.25.86-.38,1.43-.38,1.03,0,1.72.36,2.09,1.08.2.39.3.94.3,1.63v4.54h-1.22v-4.46c0-.52-.07-.9-.2-1.14-.22-.39-.62-.58-1.22-.58-.49,0-.94.17-1.34.51s-.6.98-.6,1.92v3.76h-1.19v-9.75Z" style="fill:gray;"/><path d="m443.27,13.69h1.21v1.35h-1.21v-1.35Zm0,2.67h1.21v7.05h-1.21v-7.05Z" style="fill:gray;"/><path d="m446.19,16.32h1.18v1.01c.28-.35.54-.6.77-.76.39-.27.84-.4,1.33-.4.56,0,1.02.14,1.36.42.19.16.37.39.53.7.26-.38.58-.66.93-.84s.76-.27,1.2-.27c.95,0,1.6.34,1.94,1.03.19.37.28.87.28,1.5v4.71h-1.24v-4.92c0-.47-.12-.8-.35-.97-.24-.18-.52-.26-.86-.26-.47,0-.87.16-1.21.47-.34.31-.51.84-.51,1.57v4.12h-1.21v-4.62c0-.48-.06-.83-.17-1.05-.18-.33-.52-.5-1.01-.5-.45,0-.86.17-1.23.52s-.55.98-.55,1.89v3.76h-1.19v-7.08Z" style="fill:gray;"/><path d="m457.4,13.69h1.21v1.35h-1.21v-1.35Zm0,2.67h1.21v7.05h-1.21v-7.05Z" style="fill:gray;"/><path d="m459.72,22.46l4.21-5.08h-3.9v-1.07h5.5v.97l-4.18,5.05h4.3v1.06h-5.93v-.94Z" style="fill:gray;"/><path d="m467.96,16.32v4.7c0,.36.06.66.17.89.21.42.59.63,1.15.63.81,0,1.36-.37,1.65-1.11.16-.4.24-.94.24-1.63v-3.48h1.19v7.08h-1.12v-1.04c-.14.27-.33.5-.55.68-.45.37-.99.55-1.62.55-.99,0-1.67-.34-2.02-1.01-.19-.36-.29-.84-.29-1.45v-4.81h1.22Z" style="fill:gray;"/><path d="m331.68,100.68v1.25h-3.55v9.28h-1.44v-9.28h-3.55v-1.25h8.54Z" style="fill:gray;"/><path d="m335.52,106.57c.3-.04.5-.16.6-.37.06-.12.09-.28.09-.5,0-.44-.16-.76-.47-.96-.31-.2-.76-.3-1.34-.3-.67,0-1.15.18-1.43.55-.16.2-.26.5-.31.9h-1.21c.02-.95.33-1.61.92-1.98.59-.37,1.27-.56,2.05-.56.9,0,1.64.17,2.2.52.56.34.84.88.84,1.61v4.43c0,.13.03.24.08.32s.17.12.35.12c.06,0,.12,0,.19-.01.07,0,.15-.02.23-.03v.95c-.2.06-.35.09-.46.11-.1.01-.25.02-.43.02-.45,0-.77-.16-.97-.47-.11-.17-.18-.4-.22-.71-.26.34-.64.64-1.13.9-.49.25-1.04.38-1.63.38-.71,0-1.29-.22-1.75-.65-.45-.43-.68-.97-.68-1.62,0-.71.22-1.26.67-1.65.44-.39,1.03-.63,1.75-.72l2.06-.26Zm-2.72,3.49c.27.21.6.32.97.32.45,0,.89-.1,1.32-.31.72-.35,1.08-.92,1.08-1.71v-1.04c-.16.1-.36.18-.61.25s-.49.12-.73.14l-.78.1c-.47.06-.82.16-1.06.29-.4.22-.6.58-.6,1.07,0,.37.14.67.41.88Z" style="fill:gray;"/><path d="m339.47,100.68h1.24v6.12l3.31-3.26h1.65l-2.95,2.86,3.12,4.83h-1.65l-2.42-3.91-1.06,1.03v2.88h-1.24v-10.54Z" style="fill:gray;"/><path d="m350.83,106.57c.3-.04.5-.16.6-.37.06-.12.09-.28.09-.5,0-.44-.16-.76-.47-.96-.31-.2-.76-.3-1.34-.3-.67,0-1.15.18-1.43.55-.16.2-.26.5-.31.9h-1.21c.02-.95.33-1.61.92-1.98.59-.37,1.27-.56,2.05-.56.9,0,1.64.17,2.2.52.56.34.84.88.84,1.61v4.43c0,.13.03.24.08.32s.17.12.35.12c.06,0,.12,0,.19-.01.07,0,.15-.02.23-.03v.95c-.2.06-.35.09-.46.11-.1.01-.25.02-.43.02-.45,0-.77-.16-.97-.47-.11-.17-.18-.4-.22-.71-.26.34-.64.64-1.13.9-.49.25-1.04.38-1.63.38-.71,0-1.29-.22-1.75-.65-.45-.43-.68-.97-.68-1.62,0-.71.22-1.26.67-1.65.44-.39,1.03-.63,1.75-.72l2.06-.26Zm-2.72,3.49c.27.21.6.32.97.32.45,0,.89-.1,1.32-.31.72-.35,1.08-.92,1.08-1.71v-1.04c-.16.1-.36.18-.61.25s-.49.12-.73.14l-.78.1c-.47.06-.82.16-1.06.29-.4.22-.6.58-.6,1.07,0,.37.14.67.41.88Z" style="fill:gray;"/><path d="m359.31,103.53h1.43c-.18.49-.59,1.62-1.21,3.37-.47,1.32-.86,2.4-1.18,3.23-.75,1.96-1.27,3.15-1.58,3.58-.31.43-.83.65-1.58.65-.18,0-.32,0-.42-.02s-.22-.04-.36-.08v-1.18c.22.06.39.1.49.12s.19.02.26.02c.24,0,.41-.04.53-.12s.21-.18.28-.29c.02-.04.11-.23.26-.59.15-.35.26-.62.32-.79l-2.84-7.91h1.46l2.06,6.26,2.07-6.26Z" style="fill:gray;"/><path d="m365.64,106.57c.3-.04.5-.16.6-.37.06-.12.09-.28.09-.5,0-.44-.16-.76-.47-.96-.31-.2-.76-.3-1.34-.3-.67,0-1.15.18-1.43.55-.16.2-.26.5-.31.9h-1.21c.02-.95.33-1.61.92-1.98.59-.37,1.27-.56,2.05-.56.9,0,1.64.17,2.2.52.56.34.84.88.84,1.61v4.43c0,.13.03.24.08.32s.17.12.35.12c.06,0,.12,0,.19-.01.07,0,.15-.02.23-.03v.95c-.2.06-.35.09-.46.11-.1.01-.25.02-.43.02-.45,0-.77-.16-.97-.47-.11-.17-.18-.4-.22-.71-.26.34-.64.64-1.13.9-.49.25-1.04.38-1.63.38-.71,0-1.29-.22-1.75-.65-.45-.43-.68-.97-.68-1.62,0-.71.22-1.26.67-1.65.44-.39,1.03-.63,1.75-.72l2.06-.26Zm-2.72,3.49c.27.21.6.32.97.32.45,0,.89-.1,1.32-.31.72-.35,1.08-.92,1.08-1.71v-1.04c-.16.1-.36.18-.61.25s-.49.12-.73.14l-.78.1c-.47.06-.82.16-1.06.29-.4.22-.6.58-.6,1.07,0,.37.14.67.41.88Z" style="fill:gray;"/><path d="m369.61,103.53h1.23v1.09c.36-.45.75-.77,1.16-.97.41-.2.86-.29,1.36-.29,1.09,0,1.83.38,2.21,1.14.21.42.32,1.01.32,1.79v4.93h-1.31v-4.84c0-.47-.07-.85-.21-1.13-.23-.48-.65-.72-1.25-.72-.31,0-.56.03-.75.09-.35.11-.67.32-.93.63-.21.25-.36.51-.42.79s-.1.66-.1,1.16v4.03h-1.29v-7.68Z" style="fill:gray;"/><path d="m381.76,106.57c.3-.04.5-.16.6-.37.06-.12.09-.28.09-.5,0-.44-.16-.76-.47-.96-.31-.2-.76-.3-1.34-.3-.67,0-1.15.18-1.43.55-.16.2-.26.5-.31.9h-1.21c.02-.95.33-1.61.92-1.98.59-.37,1.27-.56,2.05-.56.9,0,1.64.17,2.2.52.56.34.84.88.84,1.61v4.43c0,.13.03.24.08.32s.17.12.35.12c.06,0,.12,0,.19-.01.07,0,.15-.02.23-.03v.95c-.2.06-.35.09-.46.11-.1.01-.25.02-.43.02-.45,0-.77-.16-.97-.47-.11-.17-.18-.4-.22-.71-.26.34-.64.64-1.13.9-.49.25-1.04.38-1.63.38-.71,0-1.29-.22-1.75-.65-.45-.43-.68-.97-.68-1.62,0-.71.22-1.26.67-1.65.44-.39,1.03-.63,1.75-.72l2.06-.26Zm-2.72,3.49c.27.21.6.32.97.32.45,0,.89-.1,1.32-.31.72-.35,1.08-.92,1.08-1.71v-1.04c-.16.1-.36.18-.61.25s-.49.12-.73.14l-.78.1c-.47.06-.82.16-1.06.29-.4.22-.6.58-.6,1.07,0,.37.14.67.41.88Z" style="fill:gray;"/><path d="m389.96,103.84c.24.17.49.41.74.73v-.97h1.19v6.99c0,.98-.14,1.75-.43,2.31-.53,1.04-1.54,1.56-3.02,1.56-.82,0-1.52-.19-2.08-.56-.56-.37-.88-.95-.94-1.74h1.31c.06.34.19.61.37.8.29.29.75.43,1.37.43.98,0,1.63-.35,1.93-1.05.18-.41.26-1.15.25-2.2-.26.39-.57.68-.93.88-.36.19-.84.29-1.44.29-.83,0-1.55-.3-2.18-.89s-.93-1.57-.93-2.93c0-1.29.31-2.29.94-3.01.63-.72,1.38-1.08,2.27-1.08.6,0,1.12.15,1.57.45Zm.16,1.38c-.39-.46-.89-.69-1.49-.69-.9,0-1.52.43-1.86,1.28-.18.45-.26,1.05-.26,1.79,0,.87.17,1.52.53,1.98.35.45.82.68,1.41.68.92,0,1.57-.42,1.95-1.26.21-.47.31-1.03.31-1.66,0-.95-.2-1.66-.58-2.12Z" style="fill:gray;"/><path d="m393.74,100.68h1.31v1.46h-1.31v-1.46Zm0,2.89h1.31v7.65h-1.31v-7.65Z" style="fill:gray;"/><path d="m401.4,100.68h7.31v1.29h-5.88v3.2h5.17v1.25h-5.17v4.79h-1.43v-10.54Z" style="fill:gray;"/><path d="m409.95,100.68h1.29v10.54h-1.29v-10.54Z" style="fill:gray;"/><path d="m418.74,104.3c.68.66,1.02,1.63,1.02,2.91s-.3,2.26-.9,3.07-1.53,1.21-2.79,1.21c-1.05,0-1.88-.36-2.5-1.07-.62-.71-.93-1.67-.93-2.88,0-1.29.33-2.32.98-3.08s1.52-1.15,2.62-1.15c.98,0,1.81.33,2.49.99Zm-.8,5.11c.31-.65.47-1.37.47-2.16,0-.72-.11-1.3-.34-1.75-.36-.71-.98-1.06-1.86-1.06-.78,0-1.35.3-1.7.9-.35.6-.53,1.33-.53,2.18s.18,1.5.53,2.04c.36.54.92.82,1.69.82.85,0,1.43-.32,1.74-.97Z" style="fill:gray;"/><path d="m421.72,103.53l1.48,6.05,1.5-6.05h1.45l1.51,6.02,1.57-6.02h1.29l-2.23,7.68h-1.34l-1.56-5.95-1.51,5.95h-1.34l-2.22-7.68h1.41Z" style="fill:gray;"/><path d="m436.21,103.75c.51.26.9.59,1.16.99.26.39.43.84.51,1.36.08.35.11.92.11,1.69h-5.59c.02.78.21,1.41.55,1.88s.87.71,1.59.71c.67,0,1.2-.22,1.6-.67.22-.26.38-.56.47-.9h1.27c-.03.28-.14.6-.33.94-.19.35-.4.63-.63.85-.39.38-.87.64-1.45.78-.31.08-.66.11-1.05.11-.95,0-1.76-.35-2.42-1.04-.66-.7-.99-1.67-.99-2.92s.33-2.24,1-3.01c.67-.77,1.54-1.16,2.61-1.16.54,0,1.07.13,1.58.38Zm.46,3.02c-.05-.56-.17-1.01-.36-1.34-.35-.62-.94-.93-1.76-.93-.59,0-1.08.21-1.48.64-.4.43-.61.97-.63,1.63h4.23Z" style="fill:gray;"/><path d="m439.55,103.53h1.23v1.33c.1-.26.35-.57.74-.94.39-.37.84-.56,1.36-.56.02,0,.06,0,.12,0s.16.01.29.03v1.36c-.08-.01-.15-.02-.21-.03-.06,0-.13,0-.21,0-.65,0-1.15.21-1.5.63-.35.42-.52.9-.52,1.45v4.42h-1.29v-7.68Z" style="fill:gray;"/><path d="m449.59,107.82c.03.6.17,1.08.41,1.46.46.7,1.26,1.05,2.41,1.05.52,0,.99-.08,1.41-.23.82-.3,1.23-.83,1.23-1.59,0-.57-.17-.98-.52-1.23-.35-.24-.9-.45-1.65-.62l-1.38-.32c-.9-.21-1.54-.44-1.92-.7-.65-.44-.97-1.1-.97-1.97,0-.95.32-1.72.96-2.33s1.54-.91,2.71-.91c1.08,0,1.99.27,2.74.8.75.53,1.13,1.39,1.13,2.56h-1.34c-.07-.56-.22-1-.44-1.3-.42-.55-1.13-.83-2.13-.83-.81,0-1.39.18-1.74.53-.35.35-.53.77-.53,1.23,0,.52.21.89.63,1.13.27.15.89.34,1.86.57l1.43.34c.69.16,1.22.38,1.6.67.65.49.97,1.21.97,2.14,0,1.17-.41,2-1.24,2.5-.83.5-1.79.75-2.89.75-1.28,0-2.28-.33-3-1-.72-.66-1.08-1.57-1.06-2.7h1.34Z" style="fill:gray;"/><path d="m458.14,100.64h1.29v3.93c.31-.39.58-.66.83-.82.42-.27.94-.41,1.56-.41,1.11,0,1.87.39,2.27,1.17.21.43.32,1.02.32,1.77v4.93h-1.33v-4.84c0-.56-.07-.98-.21-1.24-.23-.42-.67-.63-1.32-.63-.54,0-1.02.18-1.46.55-.44.37-.65,1.06-.65,2.09v4.08h-1.29v-10.58Z" style="fill:gray;"/><path d="m471.85,104.3c.68.66,1.02,1.63,1.02,2.91s-.3,2.26-.9,3.07-1.53,1.21-2.79,1.21c-1.05,0-1.88-.36-2.5-1.07-.62-.71-.93-1.67-.93-2.88,0-1.29.33-2.32.98-3.08s1.52-1.15,2.62-1.15c.98,0,1.81.33,2.49.99Zm-.8,5.11c.31-.65.47-1.37.47-2.16,0-.72-.11-1.3-.34-1.75-.36-.71-.98-1.06-1.86-1.06-.78,0-1.35.3-1.7.9-.35.6-.53,1.33-.53,2.18s.18,1.5.53,2.04c.36.54.92.82,1.69.82.85,0,1.43-.32,1.74-.97Z" style="fill:gray;"/><path d="m474.32,103.57h1.26v1.02c.26-.35.54-.62.85-.81.44-.29.95-.43,1.54-.43.87,0,1.61.33,2.22,1,.61.67.91,1.62.91,2.86,0,1.67-.44,2.87-1.32,3.59-.56.45-1.21.68-1.95.68-.58,0-1.07-.13-1.46-.38-.23-.14-.49-.39-.77-.74v3.92h-1.29v-10.71Zm4.86,6.02c.4-.5.6-1.26.6-2.26,0-.61-.09-1.14-.27-1.58-.34-.85-.95-1.27-1.84-1.27s-1.51.45-1.84,1.34c-.18.48-.27,1.09-.27,1.82,0,.59.09,1.1.27,1.51.34.79.95,1.19,1.84,1.19.61,0,1.11-.25,1.51-.76Z" style="fill:gray;"/><path d="m294.5,199.39h1.44v4.35h5.42v-4.35h1.44v10.54h-1.44v-4.93h-5.42v4.93h-1.44v-10.54Z" style="fill:gray;"/><path d="m304.82,199.39h1.31v1.46h-1.31v-1.46Zm0,2.89h1.31v7.65h-1.31v-7.65Z" style="fill:gray;"/><path d="m312.36,202.55c.24.17.49.41.74.73v-.97h1.19v6.99c0,.98-.14,1.75-.43,2.31-.53,1.04-1.54,1.56-3.02,1.56-.82,0-1.52-.19-2.08-.56-.56-.37-.88-.95-.94-1.74h1.31c.06.34.19.61.37.8.29.29.75.43,1.37.43.98,0,1.63-.35,1.93-1.05.18-.41.26-1.15.25-2.2-.26.39-.57.68-.93.88-.36.19-.84.29-1.44.29-.83,0-1.55-.3-2.18-.89s-.93-1.57-.93-2.93c0-1.29.31-2.29.94-3.01.63-.72,1.38-1.08,2.27-1.08.6,0,1.12.15,1.57.45Zm.16,1.38c-.39-.46-.89-.69-1.49-.69-.9,0-1.52.43-1.86,1.28-.18.45-.26,1.05-.26,1.79,0,.87.17,1.52.53,1.98.35.45.82.68,1.41.68.92,0,1.57-.42,1.95-1.26.21-.47.31-1.03.31-1.66,0-.95-.2-1.66-.58-2.12Z" style="fill:gray;"/><path d="m320.23,205.27c.3-.04.5-.16.6-.37.06-.12.09-.28.09-.5,0-.44-.16-.76-.47-.96-.31-.2-.76-.3-1.34-.3-.67,0-1.15.18-1.43.55-.16.2-.26.5-.31.9h-1.21c.02-.95.33-1.61.92-1.98.59-.37,1.27-.56,2.05-.56.9,0,1.64.17,2.2.52.56.34.84.88.84,1.61v4.43c0,.13.03.24.08.32s.17.12.35.12c.06,0,.12,0,.19-.01.07,0,.15-.02.23-.03v.95c-.2.06-.35.09-.46.11-.1.01-.25.02-.43.02-.45,0-.77-.16-.97-.47-.11-.17-.18-.4-.22-.71-.26.34-.64.64-1.13.9-.49.25-1.04.38-1.63.38-.71,0-1.29-.22-1.75-.65-.45-.43-.68-.97-.68-1.62,0-.71.22-1.26.67-1.65.44-.39,1.03-.63,1.75-.72l2.06-.26Zm-2.72,3.49c.27.21.6.32.97.32.45,0,.89-.1,1.32-.31.72-.35,1.08-.92,1.08-1.71v-1.04c-.16.1-.36.18-.61.25s-.49.12-.73.14l-.78.1c-.47.06-.82.16-1.06.29-.4.22-.6.58-.6,1.07,0,.37.14.67.41.88Z" style="fill:gray;"/><path d="m325.02,207.51c.04.43.15.76.33.99.33.42.91.62,1.73.62.49,0,.92-.1,1.29-.31s.56-.53.56-.96c0-.33-.15-.58-.44-.75-.19-.1-.56-.23-1.12-.37l-1.04-.26c-.67-.16-1.16-.34-1.47-.54-.56-.35-.85-.83-.85-1.45,0-.73.27-1.32.8-1.76.53-.45,1.24-.67,2.14-.67,1.17,0,2.02.34,2.54,1.02.32.43.48.89.47,1.39h-1.22c-.02-.29-.13-.55-.32-.79-.3-.34-.83-.51-1.58-.51-.5,0-.88.09-1.13.28-.26.19-.39.43-.39.74,0,.33.17.6.51.8.19.12.48.22.86.32l.87.21c.95.22,1.58.44,1.9.65.5.33.75.85.75,1.56s-.26,1.27-.79,1.77-1.33.75-2.4.75c-1.16,0-1.98-.26-2.46-.78s-.74-1.16-.77-1.93h1.24Z" style="fill:gray;"/><path d="m331.59,199.35h1.29v3.93c.31-.39.58-.66.83-.82.42-.27.94-.41,1.56-.41,1.11,0,1.87.39,2.27,1.17.21.43.32,1.02.32,1.77v4.93h-1.33v-4.84c0-.56-.07-.98-.21-1.24-.23-.42-.67-.63-1.32-.63-.54,0-1.02.18-1.46.55-.44.37-.65,1.06-.65,2.09v4.08h-1.29v-10.58Z" style="fill:gray;"/><path d="m339.67,199.39h1.31v1.46h-1.31v-1.46Zm0,2.89h1.31v7.65h-1.31v-7.65Z" style="fill:gray;"/><path d="m342.65,205.17h3.6v1.33h-3.6v-1.33Z" style="fill:gray;"/><path d="m348.99,206.52c.03.6.17,1.08.41,1.46.46.7,1.26,1.05,2.41,1.05.52,0,.99-.08,1.41-.23.82-.3,1.23-.83,1.23-1.59,0-.57-.17-.98-.52-1.23-.35-.24-.9-.45-1.65-.62l-1.38-.32c-.9-.21-1.54-.44-1.92-.7-.65-.44-.97-1.1-.97-1.97,0-.95.32-1.72.96-2.33s1.54-.91,2.71-.91c1.08,0,1.99.27,2.74.8.75.53,1.13,1.39,1.13,2.56h-1.34c-.07-.56-.22-1-.44-1.3-.42-.55-1.13-.83-2.13-.83-.81,0-1.39.18-1.74.53-.35.35-.53.77-.53,1.23,0,.52.21.89.63,1.13.27.15.89.34,1.86.57l1.43.34c.69.16,1.22.38,1.6.67.65.49.97,1.21.97,2.14,0,1.17-.41,2-1.24,2.5-.83.5-1.79.75-2.89.75-1.28,0-2.28-.33-3-1-.72-.66-1.08-1.57-1.06-2.7h1.34Z" style="fill:gray;"/><path d="m357.54,199.35h1.29v3.93c.31-.39.58-.66.83-.82.42-.27.94-.41,1.56-.41,1.11,0,1.87.39,2.27,1.17.21.43.32,1.02.32,1.77v4.93h-1.33v-4.84c0-.56-.07-.98-.21-1.24-.23-.42-.67-.63-1.32-.63-.54,0-1.02.18-1.46.55-.44.37-.65,1.06-.65,2.09v4.08h-1.29v-10.58Z" style="fill:gray;"/><path d="m365.62,199.39h1.31v1.46h-1.31v-1.46Zm0,2.89h1.31v7.65h-1.31v-7.65Z" style="fill:gray;"/><path d="m368.14,208.91l4.56-5.51h-4.23v-1.15h5.96v1.05l-4.53,5.47h4.67v1.16h-6.44v-1.02Z" style="fill:gray;"/><path d="m377.07,202.24v5.1c0,.39.06.71.18.96.22.46.64.69,1.25.69.88,0,1.47-.4,1.79-1.21.17-.43.26-1.02.26-1.77v-3.77h1.29v7.68h-1.22v-1.13c-.15.29-.35.54-.6.74-.48.4-1.07.6-1.76.6-1.08,0-1.81-.37-2.2-1.1-.21-.39-.32-.92-.32-1.57v-5.22h1.32Z" style="fill:gray;"/><path d="m389.44,203.01c.68.66,1.02,1.63,1.02,2.91s-.3,2.26-.9,3.07-1.53,1.21-2.79,1.21c-1.05,0-1.88-.36-2.5-1.07-.62-.71-.93-1.67-.93-2.88,0-1.29.33-2.32.98-3.08s1.52-1.15,2.62-1.15c.98,0,1.81.33,2.49.99Zm-.8,5.11c.31-.65.47-1.37.47-2.16,0-.72-.11-1.3-.34-1.75-.36-.71-.98-1.06-1.86-1.06-.78,0-1.35.3-1.7.9-.35.6-.53,1.33-.53,2.18s.18,1.5.53,2.04c.36.54.92.82,1.69.82.85,0,1.43-.32,1.74-.97Z" style="fill:gray;"/><path d="m391.95,199.39h1.24v6.12l3.31-3.26h1.65l-2.95,2.86,3.12,4.83h-1.65l-2.42-3.91-1.06,1.03v2.88h-1.24v-10.54Z" style="fill:gray;"/><path d="m403.3,205.27c.3-.04.5-.16.6-.37.06-.12.09-.28.09-.5,0-.44-.16-.76-.47-.96-.31-.2-.76-.3-1.34-.3-.67,0-1.15.18-1.43.55-.16.2-.26.5-.31.9h-1.21c.02-.95.33-1.61.92-1.98.59-.37,1.27-.56,2.05-.56.9,0,1.64.17,2.2.52.56.34.84.88.84,1.61v4.43c0,.13.03.24.08.32s.17.12.35.12c.06,0,.12,0,.19-.01.07,0,.15-.02.23-.03v.95c-.2.06-.35.09-.46.11-.1.01-.25.02-.43.02-.45,0-.77-.16-.97-.47-.11-.17-.18-.4-.22-.71-.26.34-.64.64-1.13.9-.49.25-1.04.38-1.63.38-.71,0-1.29-.22-1.75-.65-.45-.43-.68-.97-.68-1.62,0-.71.22-1.26.67-1.65.44-.39,1.03-.63,1.75-.72l2.06-.26Zm-2.72,3.49c.27.21.6.32.97.32.45,0,.89-.1,1.32-.31.72-.35,1.08-.92,1.08-1.71v-1.04c-.16.1-.36.18-.61.25s-.49.12-.73.14l-.78.1c-.47.06-.82.16-1.06.29-.4.22-.6.58-.6,1.07,0,.37.14.67.41.88Z" style="fill:gray;"/><path d="m297.53,214.56h1.61l3.82,10.54h-1.56l-1.07-3.16h-4.17l-1.14,3.16h-1.46l3.97-10.54Zm2.35,6.22l-1.6-4.66-1.7,4.66h3.3Z" style="fill:gray;"/><path d="m304.1,217.42h1.23v1.33c.1-.26.35-.57.74-.94.39-.37.84-.56,1.36-.56.02,0,.06,0,.12,0s.16.01.29.03v1.36c-.08-.01-.15-.02-.21-.03-.06,0-.13,0-.21,0-.65,0-1.15.21-1.5.63-.35.42-.52.9-.52,1.45v4.42h-1.29v-7.68Z" style="fill:gray;"/><path d="m309.56,215.27h1.31v2.15h1.23v1.05h-1.23v5.01c0,.27.09.45.27.54.1.05.27.08.5.08.06,0,.13,0,.2,0,.07,0,.16-.01.25-.02v1.03c-.15.04-.3.07-.46.09-.16.02-.33.03-.52.03-.6,0-1.01-.15-1.23-.46-.22-.31-.32-.71-.32-1.2v-5.09h-1.04v-1.05h1.04v-2.15Z" style="fill:gray;"/><path d="m318.64,217.95c-.15-.35-.23-.69-.23-1.01,0-.68.23-1.24.69-1.69s1.07-.67,1.84-.67,1.3.21,1.71.62.62.91.62,1.49c0,.67-.21,1.26-.64,1.77-.25.3-.66.64-1.24,1.03l1.91,2.3c.13-.38.22-.67.26-.86.05-.19.1-.45.15-.79h1.23c-.08.67-.24,1.32-.49,1.94-.24.62-.36.87-.36.75l1.87,2.28h-1.66l-.99-1.21c-.39.43-.75.74-1.07.93-.57.34-1.22.52-1.96.52-1.09,0-1.88-.3-2.38-.89-.5-.59-.74-1.26-.74-2,0-.8.24-1.47.72-2,.29-.33.85-.73,1.65-1.22-.45-.51-.74-.94-.89-1.29Zm3.1,5.9c.38-.24.67-.52.88-.82l-2.37-2.91c-.67.45-1.11.79-1.31,1.03-.31.36-.47.8-.47,1.31,0,.56.2.99.61,1.29.41.3.84.45,1.3.45.53,0,.98-.12,1.36-.37Zm-.1-5.97c.28-.32.42-.68.42-1.08,0-.31-.1-.58-.31-.8-.21-.22-.48-.34-.83-.34-.53,0-.89.18-1.1.53-.1.18-.16.38-.16.59,0,.29.08.57.24.84.16.27.43.61.8,1.04.45-.32.76-.58.93-.78Z" style="fill:gray;"/><path d="m332.45,221.7c.03.6.17,1.08.41,1.46.46.7,1.26,1.05,2.41,1.05.52,0,.99-.08,1.41-.23.82-.3,1.23-.83,1.23-1.59,0-.57-.17-.98-.52-1.23-.35-.24-.9-.45-1.65-.62l-1.38-.32c-.9-.21-1.54-.44-1.92-.7-.65-.44-.97-1.1-.97-1.97,0-.95.32-1.72.96-2.33s1.54-.91,2.71-.91c1.08,0,1.99.27,2.74.8.75.53,1.13,1.39,1.13,2.56h-1.34c-.07-.56-.22-1-.44-1.3-.42-.55-1.13-.83-2.13-.83-.81,0-1.39.18-1.74.53-.35.35-.53.77-.53,1.23,0,.52.21.89.63,1.13.27.15.89.34,1.86.57l1.43.34c.69.16,1.22.38,1.6.67.65.49.97,1.21.97,2.14,0,1.17-.41,2-1.24,2.5-.83.5-1.79.75-2.89.75-1.28,0-2.28-.33-3-1-.72-.66-1.08-1.57-1.06-2.7h1.34Z" style="fill:gray;"/><path d="m340.95,217.46h1.26v1.02c.26-.35.54-.62.85-.81.44-.29.95-.43,1.54-.43.87,0,1.61.33,2.22,1,.61.67.91,1.62.91,2.86,0,1.67-.44,2.87-1.32,3.59-.56.45-1.21.68-1.95.68-.58,0-1.07-.13-1.46-.38-.23-.14-.49-.39-.77-.74v3.92h-1.29v-10.71Zm4.86,6.02c.4-.5.6-1.26.6-2.26,0-.61-.09-1.14-.27-1.58-.34-.85-.95-1.27-1.84-1.27s-1.51.45-1.84,1.34c-.18.48-.27,1.09-.27,1.82,0,.59.09,1.1.27,1.51.34.79.95,1.19,1.84,1.19.61,0,1.11-.25,1.51-.76Z" style="fill:gray;"/><path d="m354.84,218.19c.68.66,1.02,1.63,1.02,2.91s-.3,2.26-.9,3.07-1.53,1.21-2.79,1.21c-1.05,0-1.88-.36-2.5-1.07-.62-.71-.93-1.67-.93-2.88,0-1.29.33-2.32.98-3.08s1.52-1.15,2.62-1.15c.98,0,1.81.33,2.49.99Zm-.8,5.11c.31-.65.47-1.37.47-2.16,0-.72-.11-1.3-.34-1.75-.36-.71-.98-1.06-1.86-1.06-.78,0-1.35.3-1.7.9-.35.6-.53,1.33-.53,2.18s.18,1.5.53,2.04c.36.54.92.82,1.69.82.85,0,1.43-.32,1.74-.97Z" style="fill:gray;"/><path d="m357.37,217.42h1.23v1.33c.1-.26.35-.57.74-.94.39-.37.84-.56,1.36-.56.02,0,.06,0,.12,0s.16.01.29.03v1.36c-.08-.01-.15-.02-.21-.03-.06,0-.13,0-.21,0-.65,0-1.15.21-1.5.63-.35.42-.52.9-.52,1.45v4.42h-1.29v-7.68Z" style="fill:gray;"/><path d="m362.84,215.27h1.31v2.15h1.23v1.05h-1.23v5.01c0,.27.09.45.27.54.1.05.27.08.5.08.06,0,.13,0,.2,0,.07,0,.16-.01.25-.02v1.03c-.15.04-.3.07-.46.09-.16.02-.33.03-.52.03-.6,0-1.01-.15-1.23-.46-.22-.31-.32-.71-.32-1.2v-5.09h-1.04v-1.05h1.04v-2.15Z" style="fill:gray;"/><path d="m367.39,222.69c.04.43.15.76.33.99.33.42.91.62,1.73.62.49,0,.92-.1,1.29-.31s.56-.53.56-.96c0-.33-.15-.58-.44-.75-.19-.1-.56-.23-1.12-.37l-1.04-.26c-.67-.16-1.16-.34-1.47-.54-.56-.35-.85-.83-.85-1.45,0-.73.27-1.32.8-1.76.53-.45,1.24-.67,2.14-.67,1.17,0,2.02.34,2.54,1.02.32.43.48.89.47,1.39h-1.22c-.02-.29-.13-.55-.32-.79-.3-.34-.83-.51-1.58-.51-.5,0-.88.09-1.13.28-.26.19-.39.43-.39.74,0,.33.17.6.51.8.19.12.48.22.86.32l.87.21c.95.22,1.58.44,1.9.65.5.33.75.85.75,1.56s-.26,1.27-.79,1.77-1.33.75-2.4.75c-1.16,0-1.98-.26-2.46-.78s-.74-1.16-.77-1.93h1.24Z" style="fill:gray;"/><path d="m380.45,214.56h1.09l-3.34,10.54h-1.09l3.34-10.54Z" style="fill:gray;"/><path d="m386.43,214.56h1.44v4.35h5.42v-4.35h1.44v10.54h-1.44v-4.93h-5.42v4.93h-1.44v-10.54Z" style="fill:gray;"/><path d="m397.08,214.56h1.44v10.54h-1.44v-10.54Z" style="fill:gray;"/><path d="m400.83,214.56h4.79c.79,0,1.44.12,1.95.35.97.45,1.46,1.28,1.46,2.49,0,.63-.13,1.15-.39,1.55-.26.4-.62.72-1.09.97.41.17.72.39.93.66.21.27.32.71.35,1.33l.05,1.41c.01.4.05.7.1.9.09.33.24.55.46.65v.24h-1.75c-.05-.09-.09-.21-.12-.35s-.05-.42-.07-.83l-.09-1.76c-.03-.69-.28-1.15-.75-1.38-.27-.13-.68-.19-1.25-.19h-3.16v4.52h-1.43v-10.54Zm4.64,4.83c.65,0,1.17-.13,1.54-.4.38-.27.57-.75.57-1.45,0-.75-.27-1.26-.8-1.54-.28-.14-.66-.21-1.14-.21h-3.39v3.6h3.21Z" style="fill:gray;"/><path d="m419.74,216.07c.7.93,1.05,2.13,1.05,3.58,0,1.57-.4,2.88-1.2,3.92-.94,1.22-2.27,1.84-4.01,1.84-1.62,0-2.9-.54-3.82-1.61-.83-1.03-1.24-2.34-1.24-3.92,0-1.43.35-2.64,1.06-3.66.91-1.3,2.25-1.95,4.03-1.95s3.24.6,4.13,1.79Zm-1.26,6.72c.56-.9.84-1.94.84-3.11,0-1.24-.32-2.24-.97-2.99-.65-.76-1.53-1.13-2.66-1.13s-1.98.38-2.67,1.12-1.03,1.85-1.03,3.31c0,1.17.3,2.15.89,2.96.59.8,1.55,1.2,2.87,1.2s2.17-.45,2.73-1.35Z" style="fill:gray;"/><path d="m422.46,214.56h4.56c1.24,0,2.12.37,2.65,1.1.31.44.46.94.46,1.51,0,.67-.19,1.21-.57,1.64-.2.22-.48.43-.85.62.54.21.94.44,1.21.7.47.46.71,1.09.71,1.9,0,.68-.21,1.29-.64,1.84-.64.82-1.66,1.23-3.05,1.23h-4.48v-10.54Zm4.02,4.46c.61,0,1.08-.08,1.42-.25.53-.26.8-.74.8-1.42s-.28-1.15-.85-1.39c-.32-.13-.79-.2-1.42-.2h-2.57v3.26h2.62Zm.48,4.86c.88,0,1.51-.25,1.89-.76.24-.32.36-.71.36-1.16,0-.76-.35-1.29-1.04-1.56-.37-.15-.85-.22-1.46-.22h-2.86v3.71h3.11Z" style="fill:gray;"/><path d="m435.13,214.56h1.61l3.82,10.54h-1.56l-1.07-3.16h-4.17l-1.14,3.16h-1.46l3.97-10.54Zm2.35,6.22l-1.6-4.66-1.7,4.66h3.3Z" style="fill:gray;"/><path d="m137.9,221.32c.03.6.17,1.08.41,1.46.46.7,1.26,1.05,2.41,1.05.52,0,.98-.08,1.41-.23.82-.3,1.23-.83,1.23-1.59,0-.57-.17-.98-.52-1.23-.35-.24-.9-.45-1.65-.62l-1.38-.32c-.9-.21-1.54-.44-1.92-.7-.65-.44-.97-1.1-.97-1.97,0-.95.32-1.72.96-2.33.64-.61,1.54-.91,2.71-.91,1.07,0,1.99.27,2.74.8.75.53,1.13,1.39,1.13,2.56h-1.34c-.07-.56-.21-1-.44-1.3-.42-.55-1.13-.83-2.13-.83-.81,0-1.39.18-1.74.53-.35.35-.53.77-.53,1.23,0,.52.21.89.63,1.13.27.15.89.34,1.86.57l1.43.34c.69.16,1.22.38,1.6.67.65.49.97,1.21.97,2.14,0,1.17-.41,2-1.24,2.5-.83.5-1.79.75-2.89.75-1.28,0-2.28-.33-3-1-.72-.66-1.08-1.57-1.06-2.7h1.34Z" style="fill:gray;"/><path d="m146.45,214.15h1.29v3.93c.31-.39.58-.66.82-.82.42-.27.94-.41,1.56-.41,1.12,0,1.87.39,2.27,1.17.21.43.32,1.02.32,1.77v4.93h-1.33v-4.84c0-.56-.07-.98-.21-1.24-.23-.42-.68-.63-1.32-.63-.54,0-1.02.18-1.46.55s-.65,1.06-.65,2.09v4.08h-1.29v-10.58Z" style="fill:gray;"/><path d="m154.53,214.19h1.31v1.46h-1.31v-1.46Zm0,2.89h1.31v7.65h-1.31v-7.65Z" style="fill:gray;"/><path d="m157.05,223.71l4.56-5.51h-4.23v-1.15h5.96v1.05l-4.53,5.47h4.67v1.16h-6.44v-1.02Z" style="fill:gray;"/><path d="m165.98,217.04v5.1c0,.39.06.71.18.96.22.46.64.69,1.25.69.88,0,1.47-.4,1.79-1.21.17-.43.26-1.02.26-1.77v-3.77h1.29v7.68h-1.22l.02-1.13c-.17.29-.37.54-.61.74-.48.4-1.07.6-1.76.6-1.08,0-1.81-.37-2.2-1.1-.21-.39-.32-.92-.32-1.57v-5.22h1.32Z" style="fill:gray;"/><path d="m178.35,217.81c.68.66,1.02,1.63,1.02,2.91s-.3,2.26-.9,3.07c-.6.81-1.53,1.21-2.79,1.21-1.05,0-1.88-.36-2.5-1.07-.62-.71-.93-1.67-.93-2.88,0-1.29.33-2.32.98-3.08s1.52-1.15,2.62-1.15c.98,0,1.81.33,2.49.99Zm-.8,5.11c.31-.65.47-1.37.47-2.16,0-.72-.11-1.3-.34-1.75-.36-.71-.98-1.06-1.86-1.06-.78,0-1.35.3-1.7.9s-.53,1.33-.53,2.18.18,1.5.53,2.04.92.82,1.69.82c.85,0,1.43-.32,1.74-.97Z" style="fill:gray;"/><path d="m180.85,214.19h1.24v6.12l3.31-3.26h1.65l-2.95,2.86,3.12,4.83h-1.65l-2.42-3.91-1.06,1.03v2.88h-1.24v-10.54Z" style="fill:gray;"/><path d="m192.21,220.07c.3-.04.5-.16.6-.37.06-.12.09-.28.09-.5,0-.44-.16-.76-.47-.96s-.76-.3-1.34-.3c-.67,0-1.15.18-1.43.55-.16.2-.26.5-.31.9h-1.21c.02-.95.33-1.61.92-1.98.59-.37,1.28-.56,2.05-.56.9,0,1.64.17,2.2.52.56.34.84.88.84,1.61v4.43c0,.13.03.24.08.32s.17.12.35.12c.06,0,.12,0,.2-.01.07,0,.15-.02.23-.03v.95c-.2.06-.35.09-.46.11s-.25.02-.43.02c-.45,0-.77-.16-.97-.47-.11-.17-.18-.4-.22-.71-.26.34-.64.64-1.13.9-.49.25-1.04.38-1.63.38-.71,0-1.29-.22-1.75-.65-.45-.43-.68-.97-.68-1.62,0-.71.22-1.26.67-1.65.44-.39,1.03-.63,1.75-.72l2.06-.26Zm-2.72,3.49c.27.21.6.32.97.32.45,0,.89-.1,1.32-.31.72-.35,1.08-.92,1.08-1.71v-1.04c-.16.1-.36.18-.61.25s-.49.12-.73.14l-.78.1c-.47.06-.82.16-1.06.29-.4.22-.6.58-.6,1.07,0,.37.13.67.41.88Z" style="fill:gray;"/><path d="m144.74,229.36h2.05l3.03,8.91,3.01-8.91h2.03v10.54h-1.36v-6.22c0-.21,0-.57.01-1.07,0-.5.02-1.03.02-1.6l-3.01,8.89h-1.41l-3.04-8.89v.32c0,.26,0,.65.02,1.18.02.53.02.92.02,1.17v6.22h-1.36v-10.54Z" style="fill:gray;"/><path d="m160.9,235.25c.3-.04.5-.16.6-.37.06-.12.09-.28.09-.5,0-.44-.16-.76-.47-.96s-.76-.3-1.34-.3c-.67,0-1.15.18-1.43.55-.16.2-.26.5-.31.9h-1.21c.02-.95.33-1.61.92-1.98.59-.37,1.28-.56,2.05-.56.9,0,1.64.17,2.2.52.56.34.84.88.84,1.61v4.43c0,.13.03.24.08.32s.17.12.35.12c.06,0,.12,0,.2-.01.07,0,.15-.02.23-.03v.95c-.2.06-.35.09-.46.11s-.25.02-.43.02c-.45,0-.77-.16-.97-.47-.11-.17-.18-.4-.22-.71-.26.34-.64.64-1.13.9-.49.25-1.04.38-1.63.38-.71,0-1.29-.22-1.75-.65-.45-.43-.68-.97-.68-1.62,0-.71.22-1.26.67-1.65.44-.39,1.03-.63,1.75-.72l2.06-.26Zm-2.72,3.49c.27.21.6.32.97.32.45,0,.89-.1,1.32-.31.72-.35,1.08-.92,1.08-1.71v-1.04c-.16.1-.36.18-.61.25s-.49.12-.73.14l-.78.1c-.47.06-.82.16-1.06.29-.4.22-.6.58-.6,1.07,0,.37.13.67.41.88Z" style="fill:gray;"/><path d="m164.55,238.88l4.56-5.51h-4.23v-1.15h5.96v1.05l-4.53,5.47h4.67v1.16h-6.44v-1.02Z" style="fill:gray;"/><path d="m176.46,232.46c.23.14.49.39.78.75v-3.88h1.24v10.58h-1.16v-1.07c-.3.47-.65.82-1.06,1.03-.41.21-.88.32-1.41.32-.85,0-1.59-.36-2.21-1.08-.62-.72-.94-1.68-.94-2.87,0-1.12.29-2.09.86-2.91.57-.82,1.38-1.23,2.44-1.23.59,0,1.08.12,1.47.37Zm-2.88,5.76c.35.55.9.83,1.67.83.6,0,1.08-.26,1.47-.77.38-.51.58-1.25.58-2.21s-.2-1.69-.59-2.16c-.39-.47-.88-.7-1.46-.7-.65,0-1.17.25-1.57.75-.4.5-.6,1.23-.6,2.2,0,.82.17,1.51.52,2.07Z" style="fill:gray;"/><path d="m184.4,235.25c.3-.04.5-.16.6-.37.06-.12.09-.28.09-.5,0-.44-.16-.76-.47-.96s-.76-.3-1.34-.3c-.67,0-1.15.18-1.43.55-.16.2-.26.5-.31.9h-1.21c.02-.95.33-1.61.92-1.98.59-.37,1.28-.56,2.05-.56.9,0,1.64.17,2.2.52.56.34.84.88.84,1.61v4.43c0,.13.03.24.08.32s.17.12.35.12c.06,0,.12,0,.2-.01.07,0,.15-.02.23-.03v.95c-.2.06-.35.09-.46.11s-.25.02-.43.02c-.45,0-.77-.16-.97-.47-.11-.17-.18-.4-.22-.71-.26.34-.64.64-1.13.9-.49.25-1.04.38-1.63.38-.71,0-1.29-.22-1.75-.65-.45-.43-.68-.97-.68-1.62,0-.71.22-1.26.67-1.65.44-.39,1.03-.63,1.75-.72l2.06-.26Zm-2.72,3.49c.27.21.6.32.97.32.45,0,.89-.1,1.32-.31.72-.35,1.08-.92,1.08-1.71v-1.04c-.16.1-.36.18-.61.25s-.49.12-.73.14l-.78.1c-.47.06-.82.16-1.06.29-.4.22-.6.58-.6,1.07,0,.37.13.67.41.88Z" style="fill:gray;"/><path d="m276.7,117.1v6.51c0,.77.14,1.4.43,1.91.43.76,1.15,1.15,2.17,1.15,1.22,0,2.05-.41,2.49-1.24.24-.45.35-1.05.35-1.82v-6.51h1.44v5.92c0,1.3-.17,2.29-.53,2.99-.64,1.27-1.86,1.91-3.64,1.91s-3-.64-3.64-1.91c-.35-.7-.53-1.7-.53-2.99v-5.92h1.44Z" style="fill:gray;"/><path d="m291.09,120.72c.68.66,1.02,1.63,1.02,2.91s-.3,2.26-.9,3.07-1.53,1.21-2.79,1.21c-1.05,0-1.88-.36-2.5-1.07-.62-.71-.93-1.67-.93-2.88,0-1.29.33-2.32.98-3.08s1.52-1.15,2.62-1.15c.98,0,1.81.33,2.49.99Zm-.8,5.11c.31-.65.47-1.37.47-2.16,0-.72-.11-1.3-.34-1.75-.36-.71-.98-1.06-1.86-1.06-.78,0-1.35.3-1.7.9-.35.6-.53,1.33-.53,2.18s.18,1.5.53,2.04c.36.54.92.82,1.69.82.85,0,1.43-.32,1.74-.97Z" style="fill:gray;"/><path d="m294.35,125.23c.04.43.15.76.33.99.33.42.91.62,1.73.62.49,0,.92-.1,1.29-.31s.56-.53.56-.96c0-.33-.15-.58-.44-.75-.19-.1-.56-.23-1.12-.37l-1.04-.26c-.67-.16-1.16-.34-1.47-.54-.56-.35-.85-.83-.85-1.45,0-.73.27-1.32.8-1.76.53-.45,1.24-.67,2.14-.67,1.17,0,2.02.34,2.54,1.02.32.43.48.89.47,1.39h-1.22c-.02-.29-.13-.55-.32-.79-.3-.34-.83-.51-1.58-.51-.5,0-.88.09-1.13.28-.26.19-.39.43-.39.74,0,.33.17.6.51.8.19.12.48.22.86.32l.87.21c.95.22,1.58.44,1.9.65.5.33.75.85.75,1.56s-.26,1.27-.79,1.77-1.33.75-2.4.75c-1.16,0-1.98-.26-2.46-.78s-.74-1.16-.77-1.93h1.24Z" style="fill:gray;"/><path d="m300.92,117.06h1.29v3.93c.31-.39.58-.66.83-.82.42-.27.94-.41,1.56-.41,1.11,0,1.87.39,2.27,1.17.21.43.32,1.02.32,1.77v4.93h-1.33v-4.84c0-.56-.07-.98-.21-1.24-.23-.42-.67-.63-1.32-.63-.54,0-1.02.18-1.46.55-.44.37-.65,1.06-.65,2.09v4.08h-1.29v-10.58Z" style="fill:gray;"/><path d="m309,117.1h1.31v1.46h-1.31v-1.46Zm0,2.89h1.31v7.65h-1.31v-7.65Z" style="fill:gray;"/><path d="m312.16,119.96h1.23v1.09c.36-.45.75-.77,1.16-.97.41-.2.86-.29,1.36-.29,1.09,0,1.83.38,2.21,1.14.21.42.32,1.01.32,1.79v4.93h-1.31v-4.84c0-.47-.07-.85-.21-1.13-.23-.48-.65-.72-1.25-.72-.31,0-.56.03-.75.09-.35.11-.67.32-.93.63-.21.25-.36.51-.42.79s-.1.66-.1,1.16v4.03h-1.29v-7.68Z" style="fill:gray;"/><path d="m289.72,160.17h1.61l3.82,10.54h-1.56l-1.07-3.16h-4.17l-1.14,3.16h-1.46l3.97-10.54Zm2.35,6.22l-1.6-4.66-1.7,4.66h3.3Z" style="fill:gray;"/><path d="m296.2,163.06h1.26v1.02c.26-.35.54-.62.85-.81.44-.29.95-.43,1.54-.43.87,0,1.61.33,2.22,1,.61.67.91,1.62.91,2.86,0,1.67-.44,2.87-1.32,3.59-.56.45-1.21.68-1.95.68-.58,0-1.07-.13-1.46-.38-.23-.14-.49-.39-.77-.74v3.92h-1.29v-10.71Zm4.86,6.02c.4-.5.6-1.26.6-2.26,0-.61-.09-1.14-.27-1.58-.34-.85-.95-1.27-1.84-1.27s-1.51.45-1.84,1.34c-.18.48-.27,1.09-.27,1.82,0,.59.09,1.1.27,1.51.34.79.95,1.19,1.84,1.19.61,0,1.11-.25,1.51-.76Z" style="fill:gray;"/><path d="m304.39,163.06h1.26v1.02c.26-.35.54-.62.85-.81.44-.29.95-.43,1.54-.43.87,0,1.61.33,2.22,1,.61.67.91,1.62.91,2.86,0,1.67-.44,2.87-1.32,3.59-.56.45-1.21.68-1.95.68-.58,0-1.07-.13-1.46-.38-.23-.14-.49-.39-.77-.74v3.92h-1.29v-10.71Zm4.86,6.02c.4-.5.6-1.26.6-2.26,0-.61-.09-1.14-.27-1.58-.34-.85-.95-1.27-1.84-1.27s-1.51.45-1.84,1.34c-.18.48-.27,1.09-.27,1.82,0,.59.09,1.1.27,1.51.34.79.95,1.19,1.84,1.19.61,0,1.11-.25,1.51-.76Z" style="fill:gray;"/><path d="m312.67,160.17h1.29v10.54h-1.29v-10.54Z" style="fill:gray;"/><path d="m315.8,160.17h1.31v1.46h-1.31v-1.46Zm0,2.89h1.31v7.65h-1.31v-7.65Z" style="fill:gray;"/><path d="m323.75,163.23c.51.26.9.59,1.16.99.26.39.43.84.51,1.36.08.35.11.92.11,1.69h-5.59c.02.78.21,1.41.55,1.88s.87.71,1.59.71c.67,0,1.2-.22,1.6-.67.22-.26.38-.56.47-.9h1.27c-.03.28-.14.6-.33.94-.19.35-.4.63-.63.85-.39.38-.87.64-1.45.78-.31.08-.66.11-1.05.11-.95,0-1.76-.35-2.42-1.04-.66-.7-.99-1.67-.99-2.92s.33-2.24,1-3.01c.67-.77,1.54-1.16,2.61-1.16.54,0,1.07.13,1.58.38Zm.46,3.02c-.05-.56-.17-1.01-.36-1.34-.35-.62-.94-.93-1.76-.93-.59,0-1.08.21-1.48.64-.4.43-.61.97-.63,1.63h4.23Z" style="fill:gray;"/><path d="m331.37,163.26c.23.14.49.39.78.75v-3.88h1.24v10.58h-1.16v-1.07c-.3.47-.66.82-1.06,1.03-.41.21-.88.32-1.41.32-.85,0-1.59-.36-2.22-1.08-.62-.72-.94-1.68-.94-2.87,0-1.12.29-2.09.85-2.91s1.38-1.23,2.44-1.23c.59,0,1.08.12,1.47.37Zm-2.88,5.76c.35.55.9.83,1.67.83.59,0,1.08-.26,1.47-.77.38-.51.58-1.25.58-2.21s-.2-1.69-.59-2.16c-.39-.47-.88-.7-1.46-.7-.65,0-1.17.25-1.57.75-.4.5-.6,1.23-.6,2.2,0,.82.17,1.51.52,2.07Z" style="fill:gray;"/><path d="m188.68,159.2c1.03.55,1.66,1.51,1.9,2.89h-1.41c-.17-.77-.52-1.33-1.05-1.68s-1.2-.53-2-.53c-.96,0-1.76.37-2.41,1.1-.65.73-.98,1.82-.98,3.27,0,1.25.27,2.27.81,3.06.54.79,1.42,1.18,2.64,1.18.93,0,1.71-.28,2.32-.83.61-.55.92-1.45.94-2.68h-3.3v-1.18h4.63v5.64h-.92l-.34-1.36c-.48.53-.9.9-1.26,1.11-.62.35-1.4.53-2.35.53-1.23,0-2.28-.4-3.17-1.21-.96-1.01-1.45-2.41-1.45-4.18s.47-3.17,1.41-4.21c.9-1,2.06-1.49,3.48-1.49.98,0,1.82.19,2.53.57Z" style="fill:gray;"/><path d="m197.48,161.76h1.43c-.18.49-.59,1.62-1.21,3.37-.47,1.32-.86,2.4-1.18,3.23-.75,1.96-1.27,3.15-1.58,3.58-.31.43-.83.65-1.58.65-.18,0-.32,0-.42-.02s-.22-.04-.36-.08v-1.18c.22.06.39.1.49.12s.19.02.26.02c.24,0,.41-.04.53-.12s.21-.18.28-.29c.02-.04.11-.23.26-.59.15-.35.26-.62.32-.79l-2.84-7.91h1.46l2.06,6.26,2.07-6.26Z" style="fill:gray;"/><path d="m201.29,161.76v5.1c0,.39.06.71.18.96.22.46.64.69,1.25.69.88,0,1.47-.4,1.79-1.21.17-.43.26-1.02.26-1.77v-3.77h1.29v7.68h-1.22v-1.13c-.15.29-.35.54-.6.74-.48.4-1.07.6-1.76.6-1.08,0-1.81-.37-2.2-1.1-.21-.39-.32-.92-.32-1.57v-5.22h1.32Z" style="fill:gray;"/><path d="m207.98,158.9h1.24v6.12l3.31-3.26h1.65l-2.95,2.86,3.12,4.83h-1.65l-2.42-3.91-1.06,1.03v2.88h-1.24v-10.54Z" style="fill:gray;"/><path d="m219.34,164.79c.3-.04.5-.16.6-.37.06-.12.09-.28.09-.5,0-.44-.16-.76-.47-.96-.31-.2-.76-.3-1.34-.3-.67,0-1.15.18-1.43.55-.16.2-.26.5-.31.9h-1.21c.02-.95.33-1.61.92-1.98.59-.37,1.27-.56,2.05-.56.9,0,1.64.17,2.2.52.56.34.84.88.84,1.61v4.43c0,.13.03.24.08.32s.17.12.35.12c.06,0,.12,0,.19-.01.07,0,.15-.02.23-.03v.95c-.2.06-.35.09-.46.11-.1.01-.25.02-.43.02-.45,0-.77-.16-.97-.47-.11-.17-.18-.4-.22-.71-.26.34-.64.64-1.13.9-.49.25-1.04.38-1.63.38-.71,0-1.29-.22-1.75-.65-.45-.43-.68-.97-.68-1.62,0-.71.22-1.26.67-1.65.44-.39,1.03-.63,1.75-.72l2.06-.26Zm-2.72,3.49c.27.21.6.32.97.32.45,0,.89-.1,1.32-.31.72-.35,1.08-.92,1.08-1.71v-1.04c-.16.1-.36.18-.61.25s-.49.12-.73.14l-.78.1c-.47.06-.82.16-1.06.29-.4.22-.6.58-.6,1.07,0,.37.14.67.41.88Z" style="fill:gray;"/><path d="m223.29,158.9h1.24v6.12l3.31-3.26h1.65l-2.95,2.86,3.12,4.83h-1.65l-2.42-3.91-1.06,1.03v2.88h-1.24v-10.54Z" style="fill:gray;"/><path d="m231.91,161.76v5.1c0,.39.06.71.18.96.22.46.64.69,1.25.69.88,0,1.47-.4,1.79-1.21.17-.43.26-1.02.26-1.77v-3.77h1.29v7.68h-1.22v-1.13c-.15.29-.35.54-.6.74-.48.4-1.07.6-1.76.6-1.08,0-1.81-.37-2.2-1.1-.21-.39-.32-.92-.32-1.57v-5.22h1.32Z" style="fill:gray;"/><polygon points=".5 18.7 9.25 13.64 9.25 16.72 19.47 16.72 19.47 20.67 9.25 20.67 9.25 23.75 .5 18.7" style="fill:gray;"/><path d="m25.32,13.69h6.74v1.19h-5.42v2.95h4.77v1.16h-4.77v4.42h-1.32v-9.71Z" style="fill:gray;"/><path d="m38.2,17.03c.63.61.94,1.5.94,2.68s-.28,2.08-.83,2.83c-.55.74-1.41,1.12-2.57,1.12-.97,0-1.74-.33-2.3-.99s-.85-1.54-.85-2.65c0-1.19.3-2.14.9-2.84s1.41-1.06,2.42-1.06c.91,0,1.67.3,2.3.91Zm-.74,4.71c.29-.6.44-1.26.44-1.99,0-.66-.11-1.2-.31-1.61-.33-.65-.9-.98-1.71-.98-.72,0-1.24.28-1.57.83s-.49,1.22-.49,2.01.16,1.38.49,1.88.85.75,1.56.75c.78,0,1.32-.3,1.61-.9Z" style="fill:gray;"/><path d="m40.55,16.32h1.13v1.22c.09-.24.32-.53.68-.87s.78-.51,1.25-.51c.02,0,.06,0,.11,0,.05,0,.14.01.27.03v1.26c-.07-.01-.14-.02-.2-.03-.06,0-.12,0-.2,0-.6,0-1.06.19-1.38.58-.32.39-.48.83-.48,1.33v4.07h-1.19v-7.08Z" style="fill:gray;"/><path d="m49.81,20.27c.03.55.16,1,.38,1.34.42.64,1.16.97,2.22.97.48,0,.91-.07,1.3-.21.76-.27,1.13-.76,1.13-1.47,0-.53-.16-.91-.48-1.13-.32-.22-.83-.41-1.52-.58l-1.27-.3c-.83-.19-1.42-.41-1.77-.64-.6-.41-.9-1.01-.9-1.82,0-.87.29-1.59.88-2.15.59-.56,1.42-.84,2.5-.84.99,0,1.83.25,2.53.74.69.49,1.04,1.28,1.04,2.36h-1.24c-.06-.52-.2-.92-.41-1.2-.38-.51-1.04-.76-1.96-.76-.74,0-1.28.16-1.6.49-.33.33-.49.71-.49,1.14,0,.48.19.83.58,1.04.25.14.82.32,1.71.53l1.32.31c.64.15,1.13.36,1.47.62.6.45.9,1.11.9,1.98,0,1.08-.38,1.84-1.14,2.31-.76.46-1.65.69-2.66.69-1.18,0-2.1-.31-2.77-.93-.67-.61-.99-1.44-.98-2.49h1.24Z" style="fill:gray;"/><path d="m57.69,13.66h1.19v3.62c.28-.36.54-.61.76-.75.38-.25.86-.38,1.44-.38,1.03,0,1.72.36,2.09,1.08.2.39.3.94.3,1.63v4.54h-1.22v-4.46c0-.52-.07-.9-.2-1.14-.22-.39-.62-.58-1.22-.58-.49,0-.94.17-1.34.51s-.6.98-.6,1.92v3.76h-1.19v-9.75Z" style="fill:gray;"/><path d="m65.15,13.69h1.21v1.35h-1.21v-1.35Zm0,2.67h1.21v7.05h-1.21v-7.05Z" style="fill:gray;"/><path d="m68.06,16.32h1.13v1.01c.33-.42.69-.71,1.06-.89.38-.18.79-.27,1.25-.27,1.01,0,1.68.35,2.04,1.05.19.38.29.93.29,1.65v4.54h-1.21v-4.46c0-.43-.06-.78-.19-1.04-.21-.44-.59-.66-1.15-.66-.28,0-.51.03-.69.09-.33.1-.61.29-.86.58-.2.23-.33.47-.39.72-.06.25-.09.61-.09,1.07v3.71h-1.19v-7.08Z" style="fill:gray;"/><path d="m75.35,19.02h3.32v1.22h-3.32v-1.22Z" style="fill:gray;"/><path d="m81.2,20.27c.03.55.16,1,.38,1.34.42.64,1.16.97,2.22.97.48,0,.91-.07,1.3-.21.76-.27,1.13-.76,1.13-1.47,0-.53-.16-.91-.48-1.13-.32-.22-.83-.41-1.52-.58l-1.27-.3c-.83-.19-1.42-.41-1.77-.64-.6-.41-.9-1.01-.9-1.82,0-.87.29-1.59.88-2.15.59-.56,1.42-.84,2.5-.84.99,0,1.83.25,2.53.74.69.49,1.04,1.28,1.04,2.36h-1.24c-.06-.52-.2-.92-.41-1.2-.38-.51-1.04-.76-1.96-.76-.74,0-1.28.16-1.6.49-.33.33-.49.71-.49,1.14,0,.48.19.83.58,1.04.25.14.82.32,1.71.53l1.32.31c.64.15,1.13.36,1.47.62.6.45.9,1.11.9,1.98,0,1.08-.38,1.84-1.14,2.31-.76.46-1.65.69-2.66.69-1.18,0-2.1-.31-2.77-.93-.67-.61-.99-1.44-.98-2.49h1.24Z" style="fill:gray;"/><path d="m89.09,13.66h1.19v3.62c.28-.36.54-.61.76-.75.38-.25.86-.38,1.44-.38,1.03,0,1.72.36,2.09,1.08.2.39.3.94.3,1.63v4.54h-1.22v-4.46c0-.52-.07-.9-.2-1.14-.22-.39-.62-.58-1.22-.58-.49,0-.94.17-1.34.51s-.6.98-.6,1.92v3.76h-1.19v-9.75Z" style="fill:gray;"/><path d="m96.54,13.69h1.21v1.35h-1.21v-1.35Zm0,2.67h1.21v7.05h-1.21v-7.05Z" style="fill:gray;"/><path d="m98.86,22.46l4.21-5.08h-3.89v-1.07h5.5v.97l-4.18,5.05h4.3v1.06h-5.93v-.94Z" style="fill:gray;"/><path d="m107.1,16.32v4.7c0,.36.06.66.17.89.21.42.59.63,1.15.63.81,0,1.36-.37,1.65-1.11.16-.4.24-.94.24-1.63v-3.48h1.19v7.08h-1.12v-1.04c-.14.27-.33.5-.55.68-.45.37-.99.55-1.62.55-.99,0-1.67-.34-2.02-1.01-.19-.36-.29-.84-.29-1.45v-4.81h1.22Z" style="fill:gray;"/><path d="m118.51,17.03c.63.61.94,1.5.94,2.68s-.28,2.08-.83,2.83c-.55.74-1.41,1.12-2.57,1.12-.97,0-1.74-.33-2.3-.99s-.85-1.54-.85-2.65c0-1.19.3-2.14.9-2.84s1.41-1.06,2.42-1.06c.91,0,1.67.3,2.3.91Zm-.74,4.71c.29-.6.44-1.26.44-1.99,0-.66-.11-1.2-.31-1.61-.33-.65-.9-.98-1.71-.98-.72,0-1.24.28-1.57.83s-.49,1.22-.49,2.01.16,1.38.49,1.88.85.75,1.56.75c.78,0,1.32-.3,1.61-.9Z" style="fill:gray;"/><path d="m120.82,13.69h1.14v5.64l3.05-3.01h1.52l-2.72,2.63,2.88,4.45h-1.52l-2.23-3.6-.98.95v2.66h-1.14v-9.71Z" style="fill:gray;"/><path d="m131.29,19.12c.27-.04.46-.15.55-.34.05-.11.08-.26.08-.46,0-.41-.14-.7-.43-.89s-.7-.28-1.24-.28c-.62,0-1.06.17-1.32.5-.14.19-.24.46-.28.83h-1.11c.02-.88.31-1.49.85-1.83.54-.34,1.17-.51,1.89-.51.83,0,1.51.16,2.03.48.51.32.77.81.77,1.48v4.08c0,.12.03.22.08.3s.16.11.32.11c.05,0,.11,0,.18,0,.07,0,.14-.02.21-.03v.88c-.19.05-.33.09-.42.1-.1.01-.23.02-.4.02-.41,0-.71-.15-.89-.44-.1-.15-.17-.37-.21-.65-.24.32-.59.59-1.04.83s-.95.35-1.5.35c-.66,0-1.19-.2-1.61-.6s-.62-.9-.62-1.5c0-.66.21-1.17.62-1.53.41-.36.95-.58,1.61-.67l1.9-.24Zm-2.51,3.22c.25.2.55.3.89.3.42,0,.82-.1,1.22-.29.66-.32.99-.85.99-1.58v-.96c-.15.09-.33.17-.56.23-.23.06-.45.11-.67.13l-.72.09c-.43.06-.76.15-.97.27-.37.21-.55.54-.55.99,0,.34.13.61.38.81Z" style="fill:gray;"/><path d="m240.17,10.15h4.2c1.14,0,1.96.34,2.44,1.02.28.4.43.86.43,1.39,0,.61-.17,1.12-.52,1.51-.18.21-.44.4-.78.57.5.19.87.4,1.12.64.44.42.66,1.01.66,1.75,0,.63-.2,1.19-.59,1.7-.59.76-1.53,1.14-2.81,1.14h-4.13v-9.71Zm3.71,4.11c.56,0,1-.08,1.31-.23.49-.24.73-.68.73-1.31s-.26-1.06-.78-1.28c-.29-.12-.73-.19-1.31-.19h-2.37v3.01h2.42Zm.45,4.48c.81,0,1.4-.23,1.74-.7.22-.29.33-.65.33-1.07,0-.71-.32-1.19-.95-1.44-.34-.14-.79-.21-1.34-.21h-2.64v3.42h2.86Z" style="fill:gray;"/><path d="m252.83,15.58c.27-.04.46-.15.55-.34.05-.11.08-.26.08-.46,0-.41-.14-.7-.43-.89s-.7-.28-1.24-.28c-.62,0-1.06.17-1.32.5-.15.19-.24.46-.28.83h-1.11c.02-.88.3-1.49.85-1.83.54-.34,1.17-.51,1.89-.51.83,0,1.51.16,2.03.48.52.32.77.81.77,1.48v4.08c0,.12.02.22.08.3s.16.11.32.11c.05,0,.11,0,.18,0,.07,0,.14-.02.21-.03v.88c-.18.05-.33.09-.42.1-.1.01-.23.02-.4.02-.41,0-.71-.15-.89-.44-.1-.15-.17-.37-.2-.65-.24.32-.59.59-1.04.83s-.96.35-1.5.35c-.66,0-1.19-.2-1.61-.6-.42-.4-.62-.9-.62-1.5,0-.66.2-1.17.61-1.53.41-.36.95-.58,1.61-.67l1.9-.24Zm-2.51,3.22c.25.2.55.3.89.3.42,0,.82-.1,1.22-.29.66-.32.99-.85.99-1.58v-.96c-.15.09-.33.17-.56.23-.23.06-.45.11-.67.13l-.72.09c-.43.06-.75.15-.97.27-.37.21-.55.54-.55.99,0,.34.12.61.38.81Z" style="fill:gray;"/><path d="m256.5,12.78h1.13v1.01c.33-.42.69-.71,1.06-.89.38-.18.79-.27,1.25-.27,1.01,0,1.68.35,2.04,1.05.19.38.29.93.29,1.65v4.54h-1.21v-4.46c0-.43-.06-.78-.19-1.04-.21-.44-.59-.66-1.15-.66-.28,0-.51.03-.69.09-.33.1-.61.29-.86.58-.2.23-.33.47-.39.72-.06.25-.09.61-.09,1.07v3.71h-1.19v-7.08Z" style="fill:gray;"/><path d="m267.92,13c.21.13.45.36.72.69v-3.58h1.14v9.75h-1.07v-.99c-.28.44-.6.75-.98.95-.38.19-.81.29-1.3.29-.79,0-1.47-.33-2.04-1-.58-.66-.86-1.55-.86-2.65,0-1.03.26-1.93.79-2.68.52-.76,1.27-1.13,2.25-1.13.54,0,.99.11,1.36.34Zm-2.66,5.31c.32.51.83.77,1.54.77.55,0,1-.24,1.35-.71.35-.47.53-1.15.53-2.04s-.18-1.56-.55-1.99-.81-.64-1.35-.64c-.6,0-1.08.23-1.45.69-.37.46-.56,1.13-.56,2.02,0,.76.16,1.39.48,1.91Z" style="fill:gray;"/><path d="m275.24,15.58c.27-.04.46-.15.55-.34.05-.11.08-.26.08-.46,0-.41-.14-.7-.43-.89s-.7-.28-1.24-.28c-.62,0-1.06.17-1.32.5-.15.19-.24.46-.28.83h-1.11c.02-.88.3-1.49.85-1.83.54-.34,1.17-.51,1.89-.51.83,0,1.51.16,2.03.48.52.32.77.81.77,1.48v4.08c0,.12.02.22.08.3s.16.11.32.11c.05,0,.11,0,.18,0,.07,0,.14-.02.21-.03v.88c-.18.05-.33.09-.42.1-.1.01-.23.02-.4.02-.41,0-.71-.15-.89-.44-.1-.15-.17-.37-.2-.65-.24.32-.59.59-1.04.83s-.96.35-1.5.35c-.66,0-1.19-.2-1.61-.6-.42-.4-.62-.9-.62-1.5,0-.66.2-1.17.61-1.53.41-.36.95-.58,1.61-.67l1.9-.24Zm-2.51,3.22c.25.2.55.3.89.3.42,0,.82-.1,1.22-.29.66-.32.99-.85.99-1.58v-.96c-.15.09-.33.17-.56.23-.23.06-.45.11-.67.13l-.72.09c-.43.06-.75.15-.97.27-.37.21-.55.54-.55.99,0,.34.12.61.38.81Z" style="fill:gray;"/><path d="m278.93,10.15h1.21v1.35h-1.21v-1.35Zm0,2.67h1.21v7.05h-1.21v-7.05Z" style="fill:gray;"/><path d="m217.45,24.14h1.33v4.01h4.99v-4.01h1.33v9.71h-1.33v-4.54h-4.99v4.54h-1.33v-9.71Z" style="fill:gray;"/><path d="m232.19,27.48c.63.61.94,1.5.94,2.68s-.28,2.08-.83,2.83c-.55.74-1.41,1.12-2.57,1.12-.97,0-1.74-.33-2.3-.99s-.85-1.54-.85-2.65c0-1.19.3-2.14.9-2.84s1.41-1.06,2.42-1.06c.91,0,1.67.3,2.3.91Zm-.74,4.71c.29-.6.44-1.26.44-1.99,0-.66-.11-1.2-.31-1.61-.33-.65-.9-.98-1.71-.98-.72,0-1.24.28-1.57.83s-.49,1.22-.49,2.01.16,1.38.49,1.88.85.75,1.56.75c.78,0,1.32-.3,1.61-.9Z" style="fill:gray;"/><path d="m234.47,24.11h1.16v3.53c.26-.34.57-.6.94-.78.36-.18.76-.27,1.18-.27.89,0,1.6.3,2.15.91s.83,1.5.83,2.68c0,1.12-.27,2.05-.82,2.79-.54.74-1.3,1.11-2.26,1.11-.54,0-1-.13-1.37-.39-.22-.15-.46-.4-.71-.74v.91h-1.1v-9.75Zm4.55,8.15c.32-.51.48-1.19.48-2.02,0-.75-.16-1.36-.48-1.85-.32-.49-.79-.73-1.42-.73-.54,0-1.02.2-1.43.6-.41.4-.61,1.06-.61,1.98,0,.67.08,1.21.25,1.62.31.78.9,1.17,1.76,1.17.65,0,1.13-.26,1.45-.77Z" style="fill:gray;"/><path d="m242.02,24.11h1.16v3.53c.26-.34.57-.6.94-.78.36-.18.76-.27,1.18-.27.89,0,1.6.3,2.15.91s.83,1.5.83,2.68c0,1.12-.27,2.05-.82,2.79-.54.74-1.3,1.11-2.26,1.11-.54,0-1-.13-1.37-.39-.22-.15-.46-.4-.71-.74v.91h-1.1v-9.75Zm4.55,8.15c.32-.51.48-1.19.48-2.02,0-.75-.16-1.36-.48-1.85-.32-.49-.79-.73-1.42-.73-.54,0-1.02.2-1.43.6-.41.4-.61,1.06-.61,1.98,0,.67.08,1.21.25,1.62.31.78.9,1.17,1.76,1.17.65,0,1.13-.26,1.45-.77Z" style="fill:gray;"/><path d="m253.85,26.77h1.32c-.17.46-.54,1.49-1.12,3.11-.43,1.22-.79,2.21-1.08,2.98-.69,1.81-1.17,2.91-1.45,3.3s-.77.59-1.45.59c-.17,0-.3,0-.39-.02-.09-.01-.2-.04-.33-.07v-1.08c.21.06.36.09.45.11.09.01.17.02.24.02.22,0,.38-.04.49-.11.1-.07.19-.16.26-.27.02-.04.1-.22.24-.54.14-.33.24-.57.3-.73l-2.62-7.29h1.35l1.9,5.77,1.91-5.77Z" style="fill:gray;"/><path d="m260.24,24.14h6.74v1.19h-5.42v2.95h4.77v1.16h-4.77v4.42h-1.32v-9.71Z" style="fill:gray;"/><path d="m271.56,29.57c.27-.04.46-.15.55-.34.05-.11.08-.26.08-.46,0-.41-.14-.7-.43-.89s-.7-.28-1.24-.28c-.62,0-1.06.17-1.32.5-.14.19-.24.46-.28.83h-1.11c.02-.88.31-1.49.85-1.83.54-.34,1.17-.51,1.89-.51.83,0,1.51.16,2.03.48.51.32.77.81.77,1.48v4.08c0,.12.03.22.08.3s.16.11.32.11c.05,0,.11,0,.18,0,.07,0,.14-.02.21-.03v.88c-.19.05-.33.09-.42.1-.1.01-.23.02-.4.02-.41,0-.71-.15-.89-.44-.1-.15-.17-.37-.21-.65-.24.32-.59.59-1.04.83s-.95.35-1.5.35c-.66,0-1.19-.2-1.61-.6s-.62-.9-.62-1.5c0-.66.21-1.17.62-1.53.41-.36.95-.58,1.61-.67l1.9-.24Zm-2.51,3.22c.25.2.55.3.89.3.42,0,.82-.1,1.22-.29.66-.32.99-.85.99-1.58v-.96c-.15.09-.33.17-.56.23-.23.06-.45.11-.67.13l-.72.09c-.43.06-.76.15-.97.27-.37.21-.55.54-.55.99,0,.34.13.61.38.81Z" style="fill:gray;"/><path d="m279.87,27.15c.5.39.8,1.06.9,2h-1.16c-.07-.44-.23-.8-.48-1.09-.25-.29-.66-.43-1.21-.43-.76,0-1.3.37-1.63,1.11-.21.48-.32,1.07-.32,1.78s.15,1.31.45,1.79.77.73,1.42.73c.49,0,.88-.15,1.17-.45s.49-.71.6-1.24h1.16c-.13.94-.46,1.63-.99,2.06-.53.43-1.21.65-2.03.65-.93,0-1.66-.34-2.21-1.02-.55-.68-.83-1.52-.83-2.54,0-1.24.3-2.21.91-2.9.6-.69,1.37-1.04,2.31-1.04.8,0,1.45.19,1.95.58Z" style="fill:gray;"/><path d="m282.29,24.79h1.2v1.98h1.13v.97h-1.13v4.62c0,.25.08.41.25.5.09.05.25.07.46.07.06,0,.12,0,.18,0,.07,0,.14,0,.23-.02v.95c-.14.04-.28.07-.43.09-.15.02-.31.03-.48.03-.56,0-.93-.14-1.13-.43-.2-.28-.3-.65-.3-1.11v-4.69h-.96v-.97h.96v-1.98Z" style="fill:gray;"/><path d="m290.79,27.48c.63.61.94,1.5.94,2.68s-.28,2.08-.83,2.83c-.55.74-1.41,1.12-2.57,1.12-.97,0-1.74-.33-2.3-.99s-.85-1.54-.85-2.65c0-1.19.3-2.14.9-2.84s1.41-1.06,2.42-1.06c.91,0,1.67.3,2.3.91Zm-.74,4.71c.29-.6.44-1.26.44-1.99,0-.66-.11-1.2-.31-1.61-.33-.65-.9-.98-1.71-.98-.72,0-1.24.28-1.57.83s-.49,1.22-.49,2.01.16,1.38.49,1.88.85.75,1.56.75c.78,0,1.32-.3,1.61-.9Z" style="fill:gray;"/><path d="m293.13,26.77h1.13v1.22c.09-.24.32-.53.68-.87s.78-.51,1.25-.51c.02,0,.06,0,.11,0,.05,0,.14.01.27.03v1.26c-.07-.01-.14-.02-.2-.03-.06,0-.12,0-.2,0-.6,0-1.06.19-1.38.58-.32.39-.48.83-.48,1.33v4.07h-1.19v-7.08Z" style="fill:gray;"/><path d="m302.37,26.77h1.32c-.17.46-.54,1.49-1.12,3.11-.43,1.22-.79,2.21-1.08,2.98-.69,1.81-1.17,2.91-1.45,3.3s-.77.59-1.45.59c-.17,0-.3,0-.39-.02-.09-.01-.2-.04-.33-.07v-1.08c.21.06.36.09.45.11.09.01.17.02.24.02.22,0,.38-.04.49-.11.1-.07.19-.16.26-.27.02-.04.1-.22.24-.54.14-.33.24-.57.3-.73l-2.62-7.29h1.35l1.9,5.77,1.91-5.77Z" style="fill:gray;"/><path d="m119.39,350.14c0,1.09-.13,1.93-.4,2.53-.49,1.1-1.42,1.65-2.8,1.65-.79,0-1.47-.26-2.04-.78-.56-.52-.84-1.45-.84-2.79v-.92h1.35v.92c0,.7.13,1.23.39,1.58s.66.53,1.2.53c.77,0,1.27-.32,1.5-.96.14-.39.22-1.13.22-2.22v-8.58h1.42v9.04Z" style="fill:gray;"/><path d="m121.62,341.1h4.81c.79,0,1.45.14,1.96.43.98.55,1.46,1.56,1.46,3.04,0,.77-.13,1.4-.39,1.89-.26.49-.63.88-1.1,1.18.41.2.72.47.93.81.21.33.33.87.35,1.62l.05,1.73c.01.49.05.86.1,1.1.09.41.24.67.46.79v.29h-1.76c-.05-.11-.09-.25-.12-.43-.03-.17-.05-.51-.07-1.02l-.09-2.15c-.03-.84-.28-1.41-.75-1.69-.27-.16-.68-.24-1.25-.24h-3.17v5.52h-1.43v-12.88Zm4.66,5.9c.65,0,1.17-.16,1.55-.49.38-.33.57-.92.57-1.77,0-.92-.27-1.54-.8-1.88-.29-.17-.67-.26-1.14-.26h-3.41v4.4h3.22Z" style="fill:gray;"/><path d="m136.25,341.1h1.45v5.32h5.44v-5.32h1.45v12.88h-1.45v-6.02h-5.44v6.02h-1.45v-12.88Z" style="fill:gray;"/><path d="m146.61,341.1h1.32v1.79h-1.32v-1.79Zm0,3.53h1.32v9.34h-1.32v-9.34Z" style="fill:gray;"/><path d="m154.18,344.97c.24.2.49.5.75.89v-1.18h1.2v8.54c0,1.19-.14,2.13-.43,2.82-.54,1.27-1.55,1.91-3.04,1.91-.83,0-1.53-.23-2.09-.68-.57-.45-.88-1.16-.95-2.13h1.32c.06.42.19.75.37.97.29.35.75.53,1.38.53.99,0,1.64-.43,1.94-1.28.18-.5.26-1.4.25-2.69-.26.48-.57.84-.93,1.07-.36.23-.84.35-1.44.35-.83,0-1.56-.36-2.19-1.08-.62-.72-.94-1.92-.94-3.58,0-1.57.31-2.8.94-3.68.63-.88,1.39-1.32,2.28-1.32.6,0,1.13.18,1.58.54Zm.16,1.69c-.39-.56-.89-.84-1.5-.84-.91,0-1.53.52-1.86,1.56-.18.56-.27,1.28-.27,2.18,0,1.06.18,1.86.53,2.42.35.55.82.83,1.42.83.93,0,1.58-.51,1.96-1.53.21-.58.32-1.25.32-2.03,0-1.16-.2-2.02-.59-2.59Z" style="fill:gray;"/><path d="m162.09,348.3c.3-.05.5-.2.6-.45.06-.14.09-.34.09-.61,0-.54-.16-.93-.47-1.17-.31-.24-.76-.37-1.35-.37-.68,0-1.16.22-1.44.67-.16.25-.26.61-.31,1.1h-1.21c.02-1.16.33-1.97.92-2.42s1.28-.68,2.06-.68c.91,0,1.64.21,2.21.63.56.42.84,1.08.84,1.96v5.41c0,.16.03.29.08.39.06.1.17.15.35.15.06,0,.12,0,.19-.01.07,0,.15-.02.23-.04v1.17c-.2.07-.36.11-.46.13-.11.02-.25.03-.43.03-.45,0-.77-.19-.97-.58-.11-.2-.18-.49-.22-.87-.26.42-.64.79-1.14,1.1-.49.31-1.04.46-1.64.46-.72,0-1.3-.26-1.75-.79s-.68-1.19-.68-1.98c0-.87.22-1.54.67-2.02.45-.48,1.03-.77,1.76-.88l2.07-.32Zm-2.73,4.26c.27.26.6.39.97.39.46,0,.9-.13,1.33-.39.72-.43,1.08-1.12,1.08-2.09v-1.27c-.16.12-.36.23-.61.31s-.49.14-.73.18l-.78.12c-.47.08-.82.2-1.06.36-.4.27-.6.71-.6,1.31,0,.46.14.81.41,1.08Z" style="fill:gray;"/><path d="m166.9,351.04c.04.53.15.93.33,1.21.33.51.91.76,1.74.76.49,0,.92-.13,1.29-.38.37-.25.56-.65.56-1.18,0-.4-.15-.71-.45-.92-.19-.13-.57-.28-1.13-.45l-1.05-.32c-.67-.2-1.16-.42-1.48-.67-.57-.43-.85-1.02-.85-1.77,0-.89.27-1.61.8-2.16.53-.55,1.25-.82,2.15-.82,1.18,0,2.03.42,2.55,1.25.33.53.48,1.09.47,1.7h-1.23c-.02-.35-.13-.68-.32-.97-.31-.41-.83-.62-1.59-.62-.5,0-.88.11-1.14.34-.26.23-.39.53-.39.9,0,.41.17.73.51.98.2.15.48.27.87.38l.87.25c.95.28,1.59.54,1.91.8.5.4.76,1.04.76,1.9s-.26,1.56-.79,2.17c-.53.61-1.33.91-2.41.91-1.16,0-1.99-.32-2.47-.95-.48-.63-.74-1.42-.78-2.35h1.25Z" style="fill:gray;"/><path d="m173.5,341.06h1.3v4.8c.31-.47.58-.81.83-1,.42-.33.94-.5,1.56-.5,1.12,0,1.88.48,2.28,1.43.22.52.32,1.24.32,2.17v6.02h-1.33v-5.92c0-.69-.07-1.2-.22-1.52-.24-.51-.68-.77-1.33-.77-.54,0-1.03.22-1.46.67-.44.45-.66,1.3-.66,2.55v4.98h-1.3v-12.92Z" style="fill:gray;"/><path d="m181.62,341.1h1.32v1.79h-1.32v-1.79Zm0,3.53h1.32v9.34h-1.32v-9.34Z" style="fill:gray;"/><path d="m184.61,348.17h3.62v1.62h-3.62v-1.62Z" style="fill:gray;"/><path d="m190.98,349.83c.03.73.17,1.32.41,1.78.46.85,1.27,1.28,2.42,1.28.52,0,.99-.09,1.42-.28.82-.36,1.24-1.01,1.24-1.95,0-.7-.17-1.2-.52-1.5-.35-.29-.91-.55-1.66-.76l-1.39-.39c-.91-.26-1.55-.54-1.93-.85-.65-.54-.98-1.34-.98-2.41,0-1.16.32-2.11.96-2.85s1.55-1.11,2.72-1.11c1.08,0,2,.33,2.75.98.75.65,1.13,1.69,1.13,3.12h-1.35c-.07-.69-.22-1.22-.44-1.59-.42-.67-1.13-1.01-2.13-1.01-.81,0-1.39.22-1.75.65-.36.43-.53.94-.53,1.51,0,.63.21,1.09.63,1.38.28.19.9.42,1.87.7l1.44.41c.69.2,1.23.47,1.61.82.65.6.98,1.48.98,2.62,0,1.43-.42,2.45-1.25,3.06-.83.61-1.8.92-2.9.92-1.28,0-2.29-.41-3.01-1.23-.73-.81-1.08-1.91-1.07-3.3h1.35Z" style="fill:gray;"/><path d="m199.57,341.06h1.3v4.8c.31-.47.58-.81.83-1,.42-.33.94-.5,1.56-.5,1.12,0,1.88.48,2.28,1.43.22.52.32,1.24.32,2.17v6.02h-1.33v-5.92c0-.69-.07-1.2-.22-1.52-.24-.51-.68-.77-1.33-.77-.54,0-1.03.22-1.46.67s-.66,1.3-.66,2.55v4.98h-1.3v-12.92Z" style="fill:gray;"/><path d="m207.68,341.1h1.32v1.79h-1.32v-1.79Zm0,3.53h1.32v9.34h-1.32v-9.34Z" style="fill:gray;"/><path d="m210.21,352.74l4.58-6.73h-4.24v-1.41h5.99v1.29l-4.55,6.69h4.69v1.41h-6.46v-1.25Z" style="fill:gray;"/><path d="m219.19,344.59v6.23c0,.48.06.87.18,1.17.22.56.64.84,1.26.84.88,0,1.48-.49,1.8-1.47.17-.53.26-1.25.26-2.17v-4.61h1.3v9.39h-1.23v-1.38c-.15.36-.36.66-.6.9-.49.49-1.08.74-1.77.74-1.08,0-1.82-.45-2.21-1.34-.21-.48-.32-1.12-.32-1.92v-6.38h1.33Z" style="fill:gray;"/><path d="m231.61,345.53c.68.81,1.02,1.99,1.02,3.56s-.3,2.76-.9,3.75c-.6.99-1.53,1.48-2.8,1.48-1.05,0-1.89-.44-2.51-1.31s-.93-2.04-.93-3.52c0-1.58.33-2.83.98-3.77.65-.93,1.53-1.4,2.63-1.4.99,0,1.82.4,2.5,1.21Zm-.81,6.24c.32-.79.47-1.67.47-2.64,0-.88-.11-1.59-.34-2.14-.36-.86-.98-1.3-1.87-1.3-.78,0-1.35.37-1.71,1.1-.36.74-.53,1.62-.53,2.66s.18,1.83.53,2.5c.36.67.92,1,1.7,1,.85,0,1.43-.4,1.75-1.19Z" style="fill:gray;"/><path d="m234.13,341.1h1.25v7.48l3.33-3.99h1.66l-2.97,3.49,3.13,5.9h-1.66l-2.43-4.78-1.07,1.25v3.52h-1.25v-12.88Z" style="fill:gray;"/><path d="m245.53,348.3c.3-.05.5-.2.6-.45.06-.14.09-.34.09-.61,0-.54-.16-.93-.47-1.17-.31-.24-.76-.37-1.35-.37-.68,0-1.16.22-1.44.67-.16.25-.26.61-.31,1.1h-1.21c.02-1.16.33-1.97.93-2.42.59-.45,1.28-.68,2.06-.68.91,0,1.64.21,2.21.63.56.42.84,1.08.84,1.96v5.41c0,.16.03.29.08.39.06.1.17.15.35.15.06,0,.12,0,.2-.01.07,0,.15-.02.23-.04v1.17c-.2.07-.36.11-.46.13-.11.02-.25.03-.43.03-.45,0-.77-.19-.97-.58-.11-.2-.18-.49-.22-.87-.26.42-.64.79-1.14,1.1-.5.31-1.04.46-1.64.46-.72,0-1.3-.26-1.75-.79-.45-.53-.68-1.19-.68-1.98,0-.87.22-1.54.67-2.02.45-.48,1.03-.77,1.76-.88l2.07-.32Zm-2.73,4.26c.27.26.6.39.97.39.46,0,.9-.13,1.33-.39.72-.43,1.08-1.12,1.08-2.09v-1.27c-.16.12-.36.23-.61.31-.25.08-.49.14-.73.18l-.78.12c-.47.08-.82.2-1.06.36-.4.27-.6.71-.6,1.31,0,.46.14.81.41,1.08Z" style="fill:gray;"/><path d="m160.21,368.37c.03.73.17,1.32.41,1.78.46.85,1.27,1.28,2.42,1.28.52,0,.99-.09,1.42-.28.82-.36,1.24-1.01,1.24-1.95,0-.7-.17-1.2-.52-1.5-.35-.29-.91-.55-1.66-.76l-1.39-.39c-.91-.26-1.55-.54-1.93-.85-.65-.54-.98-1.34-.98-2.41,0-1.16.32-2.11.96-2.85s1.55-1.11,2.72-1.11c1.08,0,2,.33,2.75.98.75.65,1.13,1.69,1.13,3.12h-1.35c-.07-.69-.22-1.22-.44-1.59-.42-.67-1.13-1.01-2.13-1.01-.81,0-1.39.22-1.75.65-.35.43-.53.94-.53,1.51,0,.63.21,1.09.63,1.38.27.19.9.42,1.86.7l1.44.41c.69.2,1.23.47,1.61.82.65.6.98,1.48.98,2.62,0,1.43-.42,2.45-1.25,3.06-.83.61-1.8.92-2.9.92-1.28,0-2.29-.41-3.02-1.23-.73-.81-1.08-1.91-1.07-3.3h1.35Z" style="fill:gray;"/><path d="m169.05,360.52h1.31v2.62h1.23v1.29h-1.23v6.13c0,.33.09.55.27.66.1.06.27.1.5.1.06,0,.13,0,.2,0s.16-.01.25-.03v1.25c-.15.05-.3.09-.46.11-.16.02-.34.04-.52.04-.61,0-1.02-.19-1.23-.57-.22-.38-.32-.87-.32-1.47v-6.22h-1.05v-1.29h1.05v-2.62Z" style="fill:gray;"/><path d="m177.01,366.85c.3-.05.5-.2.6-.45.06-.14.09-.34.09-.61,0-.54-.16-.93-.47-1.17-.31-.24-.76-.37-1.35-.37-.68,0-1.16.22-1.44.67-.16.25-.26.61-.31,1.1h-1.21c.02-1.16.33-1.97.92-2.42s1.28-.68,2.06-.68c.91,0,1.64.21,2.21.63.56.42.84,1.08.84,1.96v5.41c0,.16.03.29.08.39.05.1.17.15.35.15.06,0,.12,0,.19-.01s.15-.02.23-.04v1.17c-.2.07-.36.11-.46.13-.11.02-.25.03-.43.03-.45,0-.77-.19-.97-.58-.11-.2-.18-.49-.22-.87-.26.42-.64.79-1.14,1.1-.5.31-1.04.46-1.64.46-.72,0-1.3-.26-1.75-.79s-.68-1.19-.68-1.98c0-.87.22-1.54.67-2.02.45-.48,1.03-.77,1.76-.88l2.07-.32Zm-2.73,4.26c.27.26.6.39.97.39.46,0,.9-.13,1.33-.39.72-.43,1.08-1.12,1.08-2.09v-1.27c-.16.12-.36.23-.61.31-.25.08-.49.14-.73.18l-.78.12c-.47.08-.82.2-1.06.36-.4.27-.6.71-.6,1.31,0,.46.14.81.41,1.08Z" style="fill:gray;"/><path d="m181.13,360.52h1.31v2.62h1.23v1.29h-1.23v6.13c0,.33.09.55.27.66.1.06.27.1.5.1.06,0,.13,0,.2,0,.07,0,.15-.01.25-.03v1.25c-.15.05-.3.09-.46.11-.16.02-.34.04-.52.04-.61,0-1.02-.19-1.23-.57-.22-.38-.32-.87-.32-1.47v-6.22h-1.04v-1.29h1.04v-2.62Z" style="fill:gray;"/><path d="m184.92,359.65h1.32v1.79h-1.32v-1.79Zm0,3.53h1.32v9.34h-1.32v-9.34Z" style="fill:gray;"/><path d="m193.78,364.08c.68.81,1.02,1.99,1.02,3.56s-.3,2.76-.9,3.75c-.6.99-1.53,1.48-2.8,1.48-1.05,0-1.89-.44-2.51-1.31s-.93-2.04-.93-3.52c0-1.58.33-2.83.98-3.77.65-.93,1.53-1.4,2.63-1.4.99,0,1.82.4,2.5,1.21Zm-.81,6.24c.32-.79.47-1.67.47-2.64,0-.88-.11-1.59-.34-2.14-.36-.86-.98-1.3-1.87-1.3-.78,0-1.35.37-1.71,1.1-.36.74-.53,1.62-.53,2.66s.18,1.83.53,2.5c.36.67.92,1,1.7,1,.85,0,1.43-.4,1.75-1.19Z" style="fill:gray;"/><path d="m196.31,363.14h1.23v1.33c.37-.55.75-.94,1.16-1.18.41-.24.86-.36,1.36-.36,1.1,0,1.83.46,2.22,1.39.21.51.32,1.24.32,2.18v6.02h-1.32v-5.92c0-.57-.07-1.04-.21-1.39-.23-.58-.65-.88-1.25-.88-.31,0-.56.04-.76.11-.36.13-.67.39-.94.77-.22.31-.36.63-.42.96-.06.33-.1.8-.1,1.42v4.92h-1.3v-9.39Z" style="fill:gray;"/></g></svg>